<?xml version="1.0" encoding="utf-8"?>
<!-- Generator: Adobe Illustrator 22.0.1, SVG Export Plug-In . SVG Version: 6.00 Build 0)  -->
<svg version="1.1" id="analytics3" xmlns="http://www.w3.org/2000/svg" xmlns:xlink="http://www.w3.org/1999/xlink" x="0px" y="0px"
	 viewBox="0 0 600 600" enable-background="new 0 0 600 600" xml:space="preserve">
<g id="Layer_1">
</g>
<g id="Layer_2_1_">
	<g>
		<g>
			<polygon fill="#DCE1E5" points="259.3,191.7 323.7,229.1 388.5,191.7 			"/>
		</g>
	</g>
	
		<linearGradient id="SVGID_1_" gradientUnits="userSpaceOnUse" x1="34.9" y1="275.9" x2="557" y2="275.9" gradientTransform="matrix(1 0 0 -1 0 600)">
		<stop  offset="0" style="stop-color:#B1BAC1"/>
		<stop  offset="1" style="stop-color:#828B94"/>
	</linearGradient>
	<polygon fill="url(#SVGID_1_)" points="259.3,191.7 323.7,229.1 388.5,191.7 557,289.5 267.7,456.5 34.9,321.2 	"/>
	<g>
		<polygon fill="#C2CCD3" points="267.7,456.5 557,289.5 557,298.4 267.8,465.4 34.9,330.1 34.9,321.2 		"/>
	</g>
	<g>
		<polygon fill="#DCE1E5" points="267.7,465.4 557,298.4 557,307.3 267.8,474.3 34.9,338.9 34.9,330 		"/>
	</g>
	<g>
		<polygon fill="#C2CCD3" points="267.7,474.7 557,307.7 557,316.6 267.8,483.6 34.9,348.3 34.9,339.4 		"/>
	</g>
	<g>
		<polygon fill="#F4F7F9" points="175.1,276.4 145.2,259.1 174.9,242 204.8,259.3 		"/>
		<polygon fill="#DCE1E5" points="175.1,316.3 145.2,299.1 145.2,259.2 175.1,276.5 		"/>
		<polygon fill="#C2CCD3" points="174.9,316.3 204.8,299.1 204.8,259.2 174.9,276.5 		"/>
	</g>
	<g>
		<polygon fill="#F4F7F9" points="175.1,238.9 145.2,221.7 174.9,204.5 204.8,221.7 		"/>
		<polygon fill="#DCE1E5" points="175.1,278.8 145.2,261.6 145.2,221.7 175.1,239 		"/>
		<polygon fill="#C2CCD3" points="174.9,278.8 204.8,261.6 204.8,221.7 174.9,239 		"/>
	</g>
	<g>
		<polygon fill="#F4F7F9" points="175.1,204.9 145.2,187.6 174.9,170.4 204.8,187.6 		"/>
		<polygon fill="#DCE1E5" points="175.1,244.8 145.2,227.5 145.2,187.6 175.1,204.9 		"/>
		<polygon fill="#C2CCD3" points="174.9,244.8 204.8,227.5 204.8,187.6 174.9,204.9 		"/>
	</g>
	<g id="anim5">
		<polygon fill="#F4F7F9" points="175.1,171.3 145.2,154.1 174.9,136.8 204.8,154.1 		"/>
		<polygon fill="#DCE1E5" points="175.1,211.2 145.2,193.9 145.2,154.1 175.1,171.4 		"/>
		<polygon fill="#C2CCD3" points="174.9,211.2 204.8,193.9 204.8,154.1 174.9,171.4 		"/>
	</g>
	<g>
		<g>
			<polygon fill="#F4F7F9" points="205,293.8 175.1,276.5 204.9,259.3 234.8,276.6 			"/>
			<polygon fill="#DCE1E5" points="205,333.7 175.1,316.5 175.1,276.6 205,293.9 			"/>
			<polygon fill="#C2CCD3" points="204.9,333.7 234.8,316.5 234.8,276.6 204.9,293.9 			"/>
		</g>
		<g id="anim3">
			<polygon fill="#F4F7F9" points="205,289.8 175.1,272.6 204.9,255.5 234.8,272.7 			"/>
			<polygon fill="#DCE1E5" points="205,329.7 175.1,312.5 175.1,272.6 205,289.9 			"/>
			<polygon fill="#C2CCD3" points="204.9,329.7 234.8,312.5 234.8,272.6 204.9,289.9 			"/>
		</g>
	</g>
	<g>
		<g>
			<polygon fill="#D12C3D" points="234.9,311.2 205,293.9 234.7,276.8 264.6,294.1 			"/>
			<polygon fill="#D12C3D" points="234.9,351.1 205,333.8 205,294 234.9,311.2 			"/>
			<polygon fill="#B72332" points="234.7,351.1 264.6,333.8 264.6,294 234.7,311.2 			"/>
		</g>
		<g>
			<polygon fill="#E84B54" points="234.9,272.2 205,255 234.6,237.8 264.5,255.1 			"/>
			<polygon fill="#D12C3D" points="234.8,312.1 204.9,294.9 204.9,255 234.8,272.3 			"/>
			<polygon fill="#B72332" points="234.6,312.1 264.5,294.9 264.5,255 234.6,272.3 			"/>
		</g>
		<g id="anim1">
			<polygon fill="#E84B54" points="234.9,237.8 205,220.6 234.6,203.4 264.5,220.7 			"/>
			<polygon fill="#D12C3D" points="234.8,277.7 204.9,260.5 204.9,220.6 234.8,237.9 			"/>
			<polygon fill="#B72332" points="234.6,277.7 264.5,260.5 264.5,220.6 234.6,237.9 			"/>
		</g>
	</g>
	<g>
		<g>
			<polygon fill="#F4F7F9" points="264.8,328.5 234.9,311.3 264.7,294.1 294.6,311.4 			"/>
			<polygon fill="#DCE1E5" points="264.8,368.4 234.9,351.2 234.9,311.3 264.8,328.6 			"/>
			<polygon fill="#C2CCD3" points="264.7,368.4 294.6,351.2 294.6,311.3 264.7,328.6 			"/>
		</g>
		<g id="anim2">
			<polygon fill="#F4F7F9" points="264.8,318.6 234.9,301.3 264.7,284.1 294.6,301.4 			"/>
			<polygon fill="#DCE1E5" points="264.8,358.4 234.9,341.2 234.9,301.3 264.8,318.6 			"/>
			<polygon fill="#C2CCD3" points="264.7,358.4 294.6,341.2 294.6,301.3 264.7,318.6 			"/>
		</g>
	</g>
	<g>
		<g>
			<polygon fill="#F4F7F9" points="294.7,345.3 264.8,328 294.5,310.9 324.4,328.1 			"/>
			<polygon fill="#DCE1E5" points="294.7,385.2 264.8,367.9 264.8,328.1 294.7,345.3 			"/>
			<polygon fill="#C2CCD3" points="294.5,385.2 324.4,367.9 324.4,328.1 294.5,345.3 			"/>
		</g>
		<g id="anim">
			<polygon fill="#F4F7F9" points="294.7,336.1 264.8,318.8 294.5,301.7 324.4,318.9 			"/>
			<polygon fill="#DCE1E5" points="294.7,376 264.8,358.7 264.8,318.9 294.7,336.1 			"/>
			<polygon fill="#C2CCD3" points="294.5,376 324.4,358.7 324.4,318.9 294.5,336.1 			"/>
		</g>
	</g>
	<g>
		<polygon fill="#F4F7F9" points="324.5,362.5 294.6,345.2 324.3,328.1 354.2,345.4 		"/>
		<polygon fill="#DCE1E5" points="324.5,402.4 294.6,385.1 294.6,345.3 324.5,362.6 		"/>
		<polygon fill="#C2CCD3" points="324.3,402.4 354.2,385.1 354.2,345.3 324.3,362.6 		"/>
	</g>
	<g>
		<g>
			<polygon fill="#F4F7F9" points="235.1,345.3 205.2,328 234.9,310.9 264.8,328.2 			"/>
			<polygon fill="#DCE1E5" points="235.1,385.2 205.2,367.9 205.2,328.1 235.1,345.3 			"/>
			<polygon fill="#C2CCD3" points="234.9,385.2 264.8,367.9 264.8,328.1 234.9,345.3 			"/>
		</g>
		<g id="anim6">
			<polygon fill="#F4F7F9" points="235.1,336.1 205.2,318.8 234.9,301.7 264.8,319 			"/>
			<polygon fill="#DCE1E5" points="235.1,376 205.2,358.7 205.2,318.9 235.1,336.1 			"/>
			<polygon fill="#C2CCD3" points="234.9,376 264.8,358.7 264.8,318.9 234.9,336.1 			"/>
		</g>
	</g>
	<g id="animc">
		<g enable-background="new    ">
			<g>
				<g enable-background="new    ">
					<g>
						<path fill="#DCE1E5" d="M457.6,288.9v15c0,6.2-4.1,12.3-12.2,17c-16.3,9.5-42.8,9.5-59.2,0c-8.3-4.8-12.4-11-12.4-17.3v-15
							c0,6.2,4.1,12.5,12.4,17.3c16.4,9.5,42.9,9.5,59.2,0C453.5,301.2,457.5,295.1,457.6,288.9L457.6,288.9z"/>
					</g>
				</g>
			</g>
			<g>
				<g>
					<path fill="#C2CCD3" d="M445.2,271.6c16.4,9.5,16.5,24.8,0.2,34.3s-42.8,9.5-59.2,0c-16.4-9.5-16.5-24.8-0.2-34.3
						C402.3,262.2,428.8,262.2,445.2,271.6z"/>
				</g>
			</g>
		</g>
	</g>
	<g id="animb">
		<g enable-background="new    ">
			<g>
				<g enable-background="new    ">
					<g>
						<path fill="#DCE1E5" d="M457.6,270.3v15c0,6.2-4.1,12.3-12.2,17c-16.3,9.5-42.8,9.5-59.2,0c-8.3-4.8-12.4-11-12.4-17.3v-15
							c0,6.2,4.1,12.5,12.4,17.3c16.4,9.5,42.9,9.5,59.2,0C453.5,282.7,457.5,276.5,457.6,270.3L457.6,270.3z"/>
					</g>
				</g>
			</g>
			<g>
				<g>
					<path fill="#C2CCD3" d="M445.2,253c16.4,9.5,16.5,24.8,0.2,34.3s-42.8,9.5-59.2,0c-16.4-9.5-16.5-24.8-0.2-34.3
						C402.3,243.6,428.8,243.6,445.2,253z"/>
				</g>
			</g>
		</g>
	</g>
	<g id="anima">
		<g enable-background="new    ">
			<g>
				<g enable-background="new    ">
					<g>
						<path fill="#DCE1E5" d="M457.6,251.7v15c0,6.2-4.1,12.3-12.2,17c-16.3,9.5-42.8,9.5-59.2,0c-8.3-4.8-12.4-11-12.4-17.3v-15
							c0,6.2,4.1,12.5,12.4,17.3c16.4,9.5,42.9,9.5,59.2,0C453.5,264.1,457.5,257.9,457.6,251.7L457.6,251.7z"/>
					</g>
				</g>
			</g>
			<g>
				<g>
					<path fill="#F4F7F9" d="M445.2,234.4c16.4,9.5,16.5,24.8,0.2,34.3s-42.8,9.5-59.2,0c-16.4-9.5-16.5-24.8-0.2-34.3
						C402.3,225,428.8,225,445.2,234.4z"/>
				</g>
			</g>
		</g>
	</g>
</g>
</svg>
