<?xml version="1.0" encoding="utf-8"?>
<!-- Generator: Adobe Illustrator 22.0.1, SVG Export Plug-In . SVG Version: 6.00 Build 0)  -->
<svg version="1.1" id="Layer_1" xmlns="http://www.w3.org/2000/svg" xmlns:xlink="http://www.w3.org/1999/xlink" x="0px" y="0px"
	 viewBox="0 0 600 600" enable-background="new 0 0 600 600" xml:space="preserve">
<g>
	<path fill="#DCE1E5" d="M585.2,251.3L392.2,139.8c-8.7-5-24-4.4-34.1,1.4L14.3,339.7c-0.9,0.5-1.7,1-2.4,1.6L6,337.8l0,14.3
		l0.2,0.3c0.4,1.8,1.5,3.5,3.2,5l0,0l0.1,0c0.7,0.6,1.5,1.2,2.5,1.8l24.3,14l0,0v0l171.7,99.1c8.7,5,24,4.4,34.1-1.4l337.7-195l0,0
		l6-3.5c1.9-1.1,3.5-2.3,4.7-3.6l0,0l0,0c2-2,3.2-4.2,3.5-6.4l0.1-0.2v-14.5L585.2,251.3z"/>
	<linearGradient id="SVGID_1_" gradientUnits="userSpaceOnUse" x1="6" y1="293.8549" x2="593.9999" y2="293.8549">
		<stop  offset="0" style="stop-color:#B1BAC1"/>
		<stop  offset="1" style="stop-color:#828B94"/>
	</linearGradient>
	<path fill="url(#SVGID_1_)" d="M207.8,460.2L11.9,347.1c-8.7-5-7.6-13.9,2.4-19.7l343.7-198.4c10.1-5.8,25.4-6.5,34.1-1.4
		l195.9,113.1c8.7,5,7.6,13.9-2.4,19.7L241.9,458.8C231.9,464.6,216.6,465.2,207.8,460.2z"/>
</g>
<g>
	<polygon fill="#F4F7F9" points="460.1,269.7 424.5,249.2 459.8,228.7 495.4,249.3 	"/>
	<polygon fill="#DCE1E5" points="460,317.2 424.4,296.7 424.4,249.2 460,269.8 	"/>
	<polygon fill="#C2CCD3" points="459.8,317.2 495.4,296.7 495.4,249.2 459.8,269.8 	"/>
</g>
<g>
	<polygon fill="#F4F7F9" points="424.7,290.2 389.1,269.6 424.4,249.2 460,269.8 	"/>
	<polygon fill="#DCE1E5" points="424.7,337.7 389.1,317.1 389.1,269.7 424.7,290.2 	"/>
	<polygon fill="#B72332" points="424.4,337.7 460,317.1 460,269.7 424.4,290.2 	"/>
</g>
<g>
	<polygon fill="#F4F7F9" points="140.3,290 104.7,269.4 140.1,249 175.7,269.5 	"/>
	<polygon fill="#DCE1E5" points="140.3,337.5 104.7,316.9 104.7,269.5 140.3,290 	"/>
	<polygon fill="#C2CCD3" points="140.1,337.5 175.7,316.9 175.7,269.5 140.1,290 	"/>
</g>
<g>
	<polygon fill="#F4F7F9" points="211.4,290.4 175.8,269.8 211.2,249.4 246.8,270 	"/>
	<polygon fill="#DCE1E5" points="211.4,337.9 175.8,317.4 175.8,269.9 211.4,290.5 	"/>
	<polygon fill="#C2CCD3" points="211.2,337.9 246.8,317.4 246.8,269.9 211.2,290.5 	"/>
</g>
<g id="anim3">
	<polygon fill="#F4F7F9" points=" 	">
		<animate 
			attributeName="points"
			values="211.4,275.7 175.8,255.2 211.2,234.8 246.8,255.3; 211.4,245.7 175.8,225.2 211.2,204.8 246.8,225.3; 211.4,275.7 175.8,255.2 211.2,234.8 246.8,255.3"
			dur="3s"
			begin="0" 
			repeatCount="indefinite"
			id="anim-3-1" />

	</polygon>


	<polygon fill="#DCE1E5" points=" 	">
		<animate 
			attributeName="points"
			values="211.4,323.2 175.8,302.7 175.8,255.2 211.4,275.8; 211.4,293.2 175.8,272.7 175.8,225.2 211.4,245.8; 211.4,323.2 175.8,302.7 175.8,255.2 211.4,275.8"
			dur="3s"
			begin="0" 
			repeatCount="indefinite"
			id="anim-3-2" />
	</polygon>
	<polygon fill="#C2CCD3" points="211.2,323.2 246.8,302.7 246.8,255.2 211.2,275.8 	">

			<animate 
			attributeName="points"
			values="211.2,323.2 246.8,302.7 246.8,255.2 211.2,275.8; 211.2,293.2 246.8,272.7 246.8,225.2 211.2,245.8; 211.2,323.2 246.8,302.7 246.8,255.2 211.2,275.8"
			dur="3s"
			begin="0" 
			repeatCount="indefinite"
			id="anim-3-3" />

	</polygon>
</g>
<g>
	<polygon fill="#F4F7F9" points="282.4,290.4 246.8,269.8 282.2,249.4 317.8,270 	"/>
	<polygon fill="#DCE1E5" points="282.4,337.9 246.8,317.4 246.8,269.9 282.4,290.5 	"/>
	<polygon fill="#C2CCD3" points="282.2,337.9 317.8,317.4 317.8,269.9 282.2,290.5 	"/>
</g>
<g>
	<polygon fill="#F4F7F9" points="282.4,245.7 246.8,225.2 282.2,204.8 317.8,225.3 	"/>
	<polygon fill="#DCE1E5" points="282.4,293.2 246.8,272.7 246.8,225.2 282.4,245.8 	"/>
	<polygon fill="#C2CCD3" points="282.2,293.2 317.8,272.7 317.8,225.2 282.2,245.8 	"/>
</g>
<g>
	<polygon fill="#F4F7F9" points="282.4,205.2 246.8,184.6 282.2,164.2 317.8,184.7 	"/>
	<polygon fill="#DCE1E5" points="282.4,252.7 246.8,232.1 246.8,184.7 282.4,205.2 	"/>
	<polygon fill="#C2CCD3" points="282.2,252.7 317.8,232.1 317.8,184.7 282.2,205.2 	"/>
</g>
<g>
	<polygon fill="#F4F7F9" points="282.4,165.2 246.8,144.7 282.2,124.2 317.8,144.8 	"/>
	<polygon fill="#DCE1E5" points="282.4,212.7 246.8,192.2 246.8,144.7 282.4,165.3 	"/>
	<polygon fill="#C2CCD3" points="282.2,212.7 317.8,192.2 317.8,144.7 282.2,165.3 	"/>
</g>
<g>
	<polygon fill="#F4F7F9" points="353.4,290.4 317.8,269.8 353.2,249.4 388.8,270 	"/>
	<polygon fill="#DCE1E5" points="353.4,337.9 317.8,317.4 317.8,269.9 353.4,290.5 	"/>
	<polygon fill="#C2CCD3" points="353.2,337.9 388.8,317.4 388.8,269.9 353.2,290.5 	"/>
</g>
<g>
	<polygon fill="#F4F7F9" points="353.4,249.4 317.8,228.9 353.2,208.4 388.8,229 	"/>
	<polygon fill="#DCE1E5" points="353.4,296.9 317.8,276.4 317.8,228.9 353.4,249.5 	"/>
	<polygon fill="#C2CCD3" points="353.2,296.9 388.8,276.4 388.8,228.9 353.2,249.5 	"/>
</g>
<g>
	<polygon fill="#F4F7F9" points="353.4,219.7 317.8,199.2 353.2,178.7 388.8,199.3 	"/>
	<polygon fill="#DCE1E5" points="353.4,267.2 317.8,246.7 317.8,199.2 353.4,219.8 	"/>
	<polygon fill="#C2CCD3" points="353.2,267.2 388.8,246.7 388.8,199.2 353.2,219.8 	"/>
</g>
<g id="anim2">
	<polygon fill="#F4F7F9" points="">
		<animate 
			attributeName="points"
			values="353.4,189.7 317.8,169.2 353.2,148.7 388.8,169.3; 353.4,219.7 317.8,199.2 353.2,178.7 388.8,199.3; 353.4,189.7 317.8,169.2 353.2,148.7 388.8,169.3"
			dur="3s"
			begin="0" 
			repeatCount="indefinite"
			id="anim-2-1" />
	</polygon>
	<polygon fill="#DCE1E5" points=" 	">
		<animate 
			attributeName="points"
			values="353.4,237.2 317.8,216.7 317.8,169.2 353.4,189.8; 353.4,267.2 317.8,246.7 317.8,199.2 353.4,219.8; 353.4,237.2 317.8,216.7 317.8,169.2 353.4,189.8"
			dur="3s"
			begin="0" 
			repeatCount="indefinite"
			id="anim-2-2" />
	</polygon>
	<polygon fill="#C2CCD3" points=" 	">
			<animate 
			attributeName="points"
			values="353.2,237.2 388.8,216.7 388.8,169.2 353.2,189.8; 353.2,267.2 388.8,246.7 388.8,199.2 353.2,219.8; 353.2,237.2 388.8,216.7 388.8,169.2 353.2,189.8"
			dur="3s"
			begin="0" 
			repeatCount="indefinite"
			id="anim-2-3" />

	</polygon>
</g>
<g>
	<polygon fill="#E84B54" points="424.6,243.8 389,223.3 424.3,202.8 459.9,223.4 	"/>
	<polygon fill="#D12C3D" points="424.5,291.3 388.9,270.8 388.9,223.3 424.5,243.9 	"/>
	<polygon fill="#B72332" points="424.3,291.3 459.9,270.8 459.9,223.3 424.3,243.9 	"/>
</g>
<g id="anim1">
	<polygon fill="#E84B54">
		<animate 
			attributeName="points"
			values="424.6,212.8 389,192.3 424.3,171.8 459.9,192.4; 424.6,242.8 389,222.3 424.3,201.8 459.9,222.4; 424.6,212.8 389,192.3 424.3,171.8 459.9,192.4 "
			dur="3s"
			begin="0s" 
			repeatCount="indefinite"
			id="anim-1-1" />
	</polygon>

	<polygon fill="#D12C3D">
		<animate 
			attributeName="points"
			values="424.5,260.3 388.9,239.8 388.9,192.3 424.5,212.9; 424.5,290.3 388.9,269.8 388.9,222.3 424.5,242.9; 424.5,260.3 388.9,239.8 388.9,192.3 424.5,212.9"
			dur="3s"
			begin="0s" 
			repeatCount="indefinite"
			id="anim-1-2" />

	</polygon>
	<polygon fill="#B72332" points="">
		<animate 
			attributeName="points"
			values="424.3,260.3 459.9,239.8 459.9,192.3 424.3,212.9; 424.3,290.3 459.9,269.8 459.9,222.3 424.3,242.9; 424.3,260.3 459.9,239.8 459.9,192.3 424.3,212.9"
			dur="3s"
			begin="0s" 
			repeatCount="indefinite"
			id="anim-1-3" />
	</polygon>
</g>
<g>
	<polygon fill="#F4F7F9" points="388.9,310.9 353.3,290.3 388.7,269.9 424.3,290.5 	"/>
	<polygon fill="#DCE1E5" points="388.9,358.4 353.3,337.8 353.3,290.4 388.9,311 	"/>
	<polygon fill="#C2CCD3" points="388.7,358.4 424.3,337.8 424.3,290.4 388.7,311 	"/>
</g>
<g>
	<polygon fill="#F4F7F9" points="353.2,331.4 317.6,310.8 353,290.4 388.6,311 	"/>
	<polygon fill="#DCE1E5" points="353.2,378.9 317.6,358.3 317.6,310.9 353.2,331.4 	"/>
	<polygon fill="#C2CCD3" points="353,378.9 388.6,358.3 388.6,310.9 353,331.4 	"/>
</g>
</svg>
