<?xml version="1.0" encoding="utf-8"?>
<!-- Generator: Adobe Illustrator 22.0.1, SVG Export Plug-In . SVG Version: 6.00 Build 0)  -->
<svg version="1.1" id="Layer_1" xmlns="http://www.w3.org/2000/svg" xmlns:xlink="http://www.w3.org/1999/xlink" x="0px" y="0px"
	 viewBox="0 0 1280 1280" style="enable-background:new 0 0 1280 1280;" xml:space="preserve">
<style type="text/css">
	.st0{opacity:0.5;}
	.st1{fill:none;stroke:#DCE1E5;stroke-linecap:round;stroke-miterlimit:10;}
	.st2{opacity:0.2;fill:none;stroke:#E84B54;stroke-linecap:round;stroke-miterlimit:10;enable-background:new    ;}
	.st3{fill:#DCE1E5;}
	.st4{opacity:0.1;fill:none;stroke:#E84B54;stroke-linecap:round;stroke-miterlimit:10;enable-background:new    ;}
	.st5{opacity:0.3;fill:none;stroke:#E84B54;stroke-linecap:round;stroke-miterlimit:10;enable-background:new    ;}
	.st6{opacity:0.2;fill:#E84B54;enable-background:new    ;}
	.st7{opacity:0.1;fill:#E84B54;enable-background:new    ;}
</style>
<g class="st0">
	<g id="_x32_">
		<g>
			<g>
				<line class="st1" x1="707.4" y1="273.7" x2="707.4" y2="279.2"/>
				<line class="st1" x1="707.4" y1="253.9" x2="707.4" y2="259.4"/>
			</g>
			<g>
				<line class="st1" x1="700.3" y1="266.5" x2="694.8" y2="266.5"/>
				<line class="st1" x1="720.1" y1="266.5" x2="714.6" y2="266.5"/>
			</g>
			<g>
				<line class="st1" x1="702.4" y1="271.6" x2="698.5" y2="275.5"/>
				<line class="st1" x1="716.4" y1="257.6" x2="712.5" y2="261.5"/>
			</g>
			<g>
				<line class="st1" x1="702.4" y1="261.5" x2="698.5" y2="257.6"/>
				<line class="st1" x1="716.4" y1="275.5" x2="712.5" y2="271.6"/>
			</g>
		</g>
		<g>
			<g>
				<line class="st1" x1="103.4" y1="496.9" x2="103.4" y2="502.4"/>
				<line class="st1" x1="103.4" y1="477.1" x2="103.4" y2="482.6"/>
			</g>
			<g>
				<line class="st1" x1="96.3" y1="489.8" x2="90.8" y2="489.8"/>
				<line class="st1" x1="116.1" y1="489.8" x2="110.5" y2="489.8"/>
			</g>
			<g>
				<line class="st1" x1="98.4" y1="494.8" x2="94.5" y2="498.7"/>
				<line class="st1" x1="112.4" y1="480.8" x2="108.4" y2="484.8"/>
			</g>
			<g>
				<line class="st1" x1="98.4" y1="484.8" x2="94.5" y2="480.8"/>
				<line class="st1" x1="112.4" y1="498.7" x2="108.4" y2="494.8"/>
			</g>
		</g>
		<circle class="st2" cx="164.3" cy="320.3" r="7.1"/>
		<circle class="st3" cx="722.7" cy="151.2" r="5.3"/>
		<g>
			<g>
				<line class="st1" x1="281.4" y1="479.1" x2="278.5" y2="482.3"/>
				<line class="st1" x1="270" y1="490.5" x2="267.1" y2="493.4"/>
			</g>
			<g>
				<line class="st1" x1="281.4" y1="493.4" x2="278.5" y2="490.5"/>
				<line class="st1" x1="270" y1="482.3" x2="267.1" y2="479.1"/>
			</g>
		</g>
		<circle class="st4" cx="374.8" cy="194.5" r="7.1"/>
		<g>
			<g>
				<line class="st1" x1="49.3" y1="371.3" x2="46.4" y2="374.2"/>
				<line class="st1" x1="38.2" y1="382.3" x2="35" y2="385.2"/>
			</g>
			<g>
				<line class="st1" x1="49.3" y1="385.2" x2="46.4" y2="382.3"/>
				<line class="st1" x1="38.2" y1="374.2" x2="35" y2="371.3"/>
			</g>
		</g>
		<circle class="st3" cx="186.4" cy="198.5" r="5.3"/>
		<circle class="st3" cx="186.4" cy="735.6" r="5.3"/>
		<circle class="st5" cx="514" cy="396.6" r="7.1"/>
		<circle class="st5" cx="600" cy="482.5" r="7.1"/>
		<path class="st6" d="M278.7,573.5l-10-13.7c-0.3-0.3-0.5-0.3-0.5,0l-6.9,15.6c0,0.3,0,0.5,0.3,0.5l16.9-1.8
			C278.7,574.1,279,573.8,278.7,573.5z"/>
		<path class="st3" d="M53,222.2l-4.5,11.9c0,0.3,0,0.5,0.3,0.3l12.7-2.1c0.3,0,0.3-0.3,0.3-0.5l-8.2-10C53.2,222,53.2,222,53,222.2
			z"/>
		<path class="st3" d="M543.5,712.8l-4.5,11.9c0,0.3,0,0.5,0.3,0.3l12.7-2.1c0.3,0,0.3-0.3,0.3-0.5l-8.2-10
			C543.8,712.5,543.8,712.5,543.5,712.8z"/>
		<path class="st7" d="M410.6,127.3l-5.5-16.1c0-0.3-0.5-0.3-0.5,0l-11.1,12.9c-0.3,0.3,0,0.5,0.3,0.5l16.6,3.2
			C410.4,127.8,410.6,127.5,410.6,127.3z"/>
	</g>
	<g id="_x31_">
		<g>
			<g>
				<g>
					<line class="st1" x1="373.2" y1="652.2" x2="369.4" y2="652.2"/>
					<line class="st1" x1="387" y1="652.2" x2="383.1" y2="652.2"/>
				</g>
				<g>
					<line class="st1" x1="378.2" y1="647.2" x2="378.2" y2="643.4"/>
					<line class="st1" x1="378.2" y1="661" x2="378.2" y2="657.1"/>
				</g>
				<g>
					<line class="st1" x1="374.7" y1="648.7" x2="372" y2="646"/>
					<line class="st1" x1="384.4" y1="658.4" x2="381.7" y2="655.7"/>
				</g>
				<g>
					<line class="st1" x1="381.7" y1="648.7" x2="384.4" y2="646"/>
					<line class="st1" x1="372" y1="658.4" x2="374.7" y2="655.7"/>
				</g>
			</g>
			<g>
				<g>
					<line class="st1" x1="218.4" y1="233.1" x2="214.5" y2="233.1"/>
					<line class="st1" x1="232.1" y1="233.1" x2="228.2" y2="233.1"/>
				</g>
				<g>
					<line class="st1" x1="223.3" y1="228.1" x2="223.3" y2="224.3"/>
					<line class="st1" x1="223.3" y1="241.9" x2="223.3" y2="238"/>
				</g>
				<g>
					<line class="st1" x1="219.8" y1="229.6" x2="217.1" y2="226.9"/>
					<line class="st1" x1="229.5" y1="239.3" x2="226.8" y2="236.6"/>
				</g>
				<g>
					<line class="st1" x1="226.8" y1="229.6" x2="229.5" y2="226.9"/>
					<line class="st1" x1="217.1" y1="239.3" x2="219.8" y2="236.6"/>
				</g>
			</g>
			<circle class="st2" cx="340.9" cy="275.3" r="4.9"/>
			<circle class="st3" cx="458.2" cy="662.8" r="3.7"/>
			<g>
				<g>
					<line class="st1" x1="230.7" y1="356.6" x2="228.5" y2="354.5"/>
					<line class="st1" x1="222.8" y1="348.7" x2="220.8" y2="346.7"/>
				</g>
				<g>
					<line class="st1" x1="220.8" y1="356.6" x2="222.8" y2="354.5"/>
					<line class="st1" x1="228.5" y1="348.7" x2="230.7" y2="346.7"/>
				</g>
			</g>
			<circle class="st4" cx="428.1" cy="421.3" r="4.9"/>
			<g>
				<g>
					<line class="st1" x1="305.5" y1="195.5" x2="303.5" y2="193.5"/>
					<line class="st1" x1="297.8" y1="187.8" x2="295.8" y2="185.6"/>
				</g>
				<g>
					<line class="st1" x1="295.8" y1="195.5" x2="297.8" y2="193.5"/>
					<line class="st1" x1="303.5" y1="187.8" x2="305.5" y2="185.6"/>
				</g>
			</g>
			<circle class="st3" cx="425.4" cy="290.7" r="3.7"/>
			<circle class="st3" cx="52.7" cy="290.7" r="3.7"/>
			<circle class="st5" cx="288" cy="518" r="4.9"/>
			<circle class="st5" cx="228.3" cy="577.6" r="4.9"/>
			<path class="st6" d="M165.2,354.7l9.5-7c0.2-0.2,0.2-0.4,0-0.4l-10.8-4.8c-0.2,0-0.4,0-0.4,0.2l1.3,11.7
				C164.8,354.7,165,354.9,165.2,354.7z"/>
			<path class="st3" d="M408.9,198.1l-8.2-3.1c-0.2,0-0.4,0-0.2,0.2l1.5,8.8c0,0.2,0.2,0.2,0.4,0.2l7-5.7
				C409.1,198.3,409.1,198.3,408.9,198.1z"/>
			<path class="st3" d="M68.6,538.4l-8.2-3.1c-0.2,0-0.4,0-0.2,0.2l1.5,8.8c0,0.2,0.2,0.2,0.4,0.2l7-5.7
				C68.7,538.6,68.7,538.6,68.6,538.4z"/>
			<path class="st7" d="M474.8,446.2l11.2-3.8c0.2,0,0.2-0.4,0-0.4l-9-7.7c-0.2-0.2-0.4,0-0.4,0.2l-2.2,11.5
				C474.4,446,474.6,446.2,474.8,446.2z"/>
		</g>
		<g>
			<g>
				<g>
					<line class="st1" x1="395.2" y1="199.6" x2="399.1" y2="199.6"/>
					<line class="st1" x1="381.5" y1="199.6" x2="385.3" y2="199.6"/>
				</g>
				<g>
					<line class="st1" x1="390.3" y1="204.6" x2="390.3" y2="208.4"/>
					<line class="st1" x1="390.3" y1="190.8" x2="390.3" y2="194.7"/>
				</g>
				<g>
					<line class="st1" x1="393.7" y1="203.1" x2="396.5" y2="205.8"/>
					<line class="st1" x1="384" y1="193.4" x2="386.8" y2="196.1"/>
				</g>
				<g>
					<line class="st1" x1="386.8" y1="203.1" x2="384" y2="205.8"/>
					<line class="st1" x1="396.5" y1="193.4" x2="393.7" y2="196.1"/>
				</g>
			</g>
			<g>
				<g>
					<line class="st1" x1="550.1" y1="618.7" x2="553.9" y2="618.7"/>
					<line class="st1" x1="536.4" y1="618.7" x2="540.2" y2="618.7"/>
				</g>
				<g>
					<line class="st1" x1="545.2" y1="623.7" x2="545.2" y2="627.5"/>
					<line class="st1" x1="545.2" y1="609.9" x2="545.2" y2="613.8"/>
				</g>
				<g>
					<line class="st1" x1="548.6" y1="622.2" x2="551.4" y2="624.9"/>
					<line class="st1" x1="538.9" y1="612.5" x2="541.7" y2="615.2"/>
				</g>
				<g>
					<line class="st1" x1="541.7" y1="622.2" x2="538.9" y2="624.9"/>
					<line class="st1" x1="551.4" y1="612.5" x2="548.6" y2="615.2"/>
				</g>
			</g>
			<circle class="st2" cx="427.6" cy="576.5" r="4.9"/>
			<circle class="st3" cx="310.3" cy="189" r="3.7"/>
			<g>
				<g>
					<line class="st1" x1="537.8" y1="495.2" x2="540" y2="497.3"/>
					<line class="st1" x1="545.6" y1="503.1" x2="547.7" y2="505.1"/>
				</g>
				<g>
					<line class="st1" x1="547.7" y1="495.2" x2="545.6" y2="497.3"/>
					<line class="st1" x1="540" y1="503.1" x2="537.8" y2="505.1"/>
				</g>
			</g>
			<circle class="st4" cx="340.3" cy="430.5" r="4.9"/>
			<g>
				<g>
					<line class="st1" x1="462.9" y1="656.3" x2="464.9" y2="658.3"/>
					<line class="st1" x1="470.6" y1="664" x2="472.6" y2="666.2"/>
				</g>
				<g>
					<line class="st1" x1="472.6" y1="656.3" x2="470.6" y2="658.3"/>
					<line class="st1" x1="464.9" y1="664" x2="462.9" y2="666.2"/>
				</g>
			</g>
			<circle class="st3" cx="343.1" cy="561.1" r="3.7"/>
			<circle class="st3" cx="715.7" cy="561.1" r="3.7"/>
			<circle class="st5" cx="480.5" cy="333.8" r="4.9"/>
			<circle class="st5" cx="540.1" cy="274.2" r="4.9"/>
			<path class="st6" d="M603.3,497.1l-9.5,7c-0.2,0.2-0.2,0.4,0,0.4l10.8,4.8c0.2,0,0.4,0,0.4-0.2l-1.3-11.7
				C603.7,497.1,603.5,496.9,603.3,497.1z"/>
			<path class="st3" d="M359.5,653.7l8.2,3.1c0.2,0,0.4,0,0.2-0.2l-1.5-8.8c0-0.2-0.2-0.2-0.4-0.2l-7,5.7
				C359.3,653.5,359.3,653.5,359.5,653.7z"/>
			<path class="st3" d="M699.9,313.4l8.2,3.1c0.2,0,0.4,0,0.2-0.2l-1.5-8.8c0-0.2-0.2-0.2-0.4-0.2l-7,5.7
				C699.7,313.2,699.7,313.2,699.9,313.4z"/>
			<path class="st7" d="M293.6,405.6l-11.2,3.8c-0.2,0-0.2,0.4,0,0.4l9,7.7c0.2,0.2,0.4,0,0.4-0.2l2.2-11.5
				C294,405.8,293.8,405.6,293.6,405.6z"/>
		</g>
	</g>
</g>
<g class="st0">
	<g id="_x32__1_">
		<g>
			<g>
				<line class="st1" x1="574.6" y1="279.2" x2="574.6" y2="273.7"/>
				<line class="st1" x1="574.6" y1="259.4" x2="574.6" y2="253.9"/>
			</g>
			<g>
				<line class="st1" x1="587.3" y1="266.5" x2="581.7" y2="266.5"/>
				<line class="st1" x1="567.5" y1="266.5" x2="561.9" y2="266.5"/>
			</g>
			<g>
				<line class="st1" x1="583.6" y1="275.5" x2="579.6" y2="271.6"/>
				<line class="st1" x1="569.6" y1="261.5" x2="565.6" y2="257.6"/>
			</g>
			<g>
				<line class="st1" x1="583.6" y1="257.6" x2="579.6" y2="261.5"/>
				<line class="st1" x1="569.6" y1="271.6" x2="565.6" y2="275.5"/>
			</g>
		</g>
		<g>
			<g>
				<line class="st1" x1="1178.6" y1="502.4" x2="1178.6" y2="496.9"/>
				<line class="st1" x1="1178.6" y1="482.6" x2="1178.6" y2="477.1"/>
			</g>
			<g>
				<line class="st1" x1="1191.3" y1="489.8" x2="1185.7" y2="489.8"/>
				<line class="st1" x1="1171.5" y1="489.8" x2="1166" y2="489.8"/>
			</g>
			<g>
				<line class="st1" x1="1187.6" y1="498.7" x2="1183.6" y2="494.8"/>
				<line class="st1" x1="1173.6" y1="484.8" x2="1169.7" y2="480.8"/>
			</g>
			<g>
				<line class="st1" x1="1187.6" y1="480.8" x2="1183.6" y2="484.8"/>
				<line class="st1" x1="1173.6" y1="494.8" x2="1169.7" y2="498.7"/>
			</g>
		</g>
		<circle class="st2" cx="1117.8" cy="320.3" r="7.1"/>
		<circle class="st3" cx="559.3" cy="151.2" r="5.3"/>
		<g>
			<g>
				<line class="st1" x1="1003.6" y1="482.3" x2="1000.7" y2="479.1"/>
				<line class="st1" x1="1014.9" y1="493.4" x2="1012" y2="490.5"/>
			</g>
			<g>
				<line class="st1" x1="1003.6" y1="490.5" x2="1000.7" y2="493.4"/>
				<line class="st1" x1="1014.9" y1="479.1" x2="1012" y2="482.3"/>
			</g>
		</g>
		<circle class="st4" cx="907.3" cy="194.5" r="7.1"/>
		<g>
			<g>
				<line class="st1" x1="1235.7" y1="374.2" x2="1232.8" y2="371.3"/>
				<line class="st1" x1="1247" y1="385.2" x2="1243.8" y2="382.3"/>
			</g>
			<g>
				<line class="st1" x1="1235.7" y1="382.3" x2="1232.8" y2="385.2"/>
				<line class="st1" x1="1247" y1="371.3" x2="1243.8" y2="374.2"/>
			</g>
		</g>
		<circle class="st3" cx="1095.6" cy="198.5" r="5.3"/>
		<circle class="st3" cx="1095.6" cy="735.6" r="5.3"/>
		<circle class="st5" cx="768" cy="396.6" r="7.1"/>
		<circle class="st5" cx="682.1" cy="482.5" r="7.1"/>
		<path class="st6" d="M1003.6,574.1l16.9,1.8c0.3,0,0.3-0.3,0.3-0.5l-6.9-15.6c0-0.3-0.3-0.3-0.5,0l-10,13.7
			C1003,573.8,1003.3,574.1,1003.6,574.1z"/>
		<path class="st3" d="M1228.5,221.7l-8.2,10c0,0.3,0,0.5,0.3,0.5l12.7,2.1c0.3,0.3,0.3,0,0.3-0.3l-4.5-11.9
			C1228.8,222,1228.8,222,1228.5,221.7z"/>
		<path class="st3" d="M738,712.2l-8.2,10c0,0.3,0,0.5,0.3,0.5l12.7,2.1c0.3,0.3,0.3,0,0.3-0.3l-4.5-11.9
			C738.3,712.5,738.3,712.5,738,712.2z"/>
		<path class="st7" d="M871.7,127.8l16.6-3.2c0.3,0,0.5-0.3,0.3-0.5l-11.1-12.9c0-0.3-0.5-0.3-0.5,0l-5.5,16.1
			C871.4,127.5,871.7,127.8,871.7,127.8z"/>
	</g>
	<g id="_x31__1_">
		<g>
			<g>
				<g>
					<line class="st1" x1="912.6" y1="652.2" x2="908.8" y2="652.2"/>
					<line class="st1" x1="898.9" y1="652.2" x2="895.1" y2="652.2"/>
				</g>
				<g>
					<line class="st1" x1="903.9" y1="643.4" x2="903.9" y2="647.2"/>
					<line class="st1" x1="903.9" y1="657.1" x2="903.9" y2="661"/>
				</g>
				<g>
					<line class="st1" x1="910.1" y1="646" x2="907.3" y2="648.7"/>
					<line class="st1" x1="900.4" y1="655.7" x2="897.6" y2="658.4"/>
				</g>
				<g>
					<line class="st1" x1="897.6" y1="646" x2="900.4" y2="648.7"/>
					<line class="st1" x1="907.3" y1="655.7" x2="910.1" y2="658.4"/>
				</g>
			</g>
			<g>
				<g>
					<line class="st1" x1="1067.5" y1="233.1" x2="1063.7" y2="233.1"/>
					<line class="st1" x1="1053.8" y1="233.1" x2="1050" y2="233.1"/>
				</g>
				<g>
					<line class="st1" x1="1058.8" y1="224.3" x2="1058.8" y2="228.1"/>
					<line class="st1" x1="1058.8" y1="238" x2="1058.8" y2="241.9"/>
				</g>
				<g>
					<line class="st1" x1="1065" y1="226.9" x2="1062.2" y2="229.6"/>
					<line class="st1" x1="1055.3" y1="236.6" x2="1052.5" y2="239.3"/>
				</g>
				<g>
					<line class="st1" x1="1052.5" y1="226.9" x2="1055.3" y2="229.6"/>
					<line class="st1" x1="1062.2" y1="236.6" x2="1065" y2="239.3"/>
				</g>
			</g>
			<circle class="st2" cx="941.2" cy="275.3" r="4.9"/>
			<circle class="st3" cx="823.8" cy="662.8" r="3.7"/>
			<g>
				<g>
					<line class="st1" x1="1053.6" y1="354.5" x2="1051.4" y2="356.6"/>
					<line class="st1" x1="1061.2" y1="346.7" x2="1059.2" y2="348.7"/>
				</g>
				<g>
					<line class="st1" x1="1059.2" y1="354.5" x2="1061.2" y2="356.6"/>
					<line class="st1" x1="1051.4" y1="346.7" x2="1053.6" y2="348.7"/>
				</g>
			</g>
			<circle class="st4" cx="853.9" cy="421.3" r="4.9"/>
			<g>
				<g>
					<line class="st1" x1="978.5" y1="193.5" x2="976.5" y2="195.5"/>
					<line class="st1" x1="986.2" y1="185.6" x2="984.2" y2="187.8"/>
				</g>
				<g>
					<line class="st1" x1="984.2" y1="193.5" x2="986.2" y2="195.5"/>
					<line class="st1" x1="976.5" y1="185.6" x2="978.5" y2="187.8"/>
				</g>
			</g>
			<circle class="st3" cx="856.7" cy="290.7" r="3.7"/>
			<circle class="st3" cx="1229.3" cy="290.7" r="3.7"/>
			<circle class="st5" cx="994.1" cy="518" r="4.9"/>
			<circle class="st5" cx="1053.7" cy="577.6" r="4.9"/>
			<path class="st6" d="M1117.2,354.5l1.3-11.7c0-0.2-0.2-0.2-0.4-0.2l-10.8,4.8c-0.2,0-0.2,0.2,0,0.4l9.5,7
				C1117.1,354.9,1117.2,354.7,1117.2,354.5z"/>
			<path class="st3" d="M872.8,198.4l7,5.7c0.2,0,0.4,0,0.4-0.2l1.5-8.8c0.2-0.2,0-0.2-0.2-0.2l-8.2,3.1
				C872.9,198.3,872.9,198.3,872.8,198.4z"/>
			<path class="st3" d="M1213.1,538.8l7,5.7c0.2,0,0.4,0,0.4-0.2l1.5-8.8c0.2-0.2,0-0.2-0.2-0.2l-8.2,3.1
				C1213.3,538.6,1213.3,538.6,1213.1,538.8z"/>
			<path class="st7" d="M807.6,446l-2.2-11.5c0-0.2-0.2-0.4-0.4-0.2l-9,7.7c-0.2,0-0.2,0.4,0,0.4l11.2,3.8
				C807.4,446.2,807.6,446,807.6,446z"/>
		</g>
		<g>
			<g>
				<g>
					<line class="st1" x1="883" y1="199.6" x2="886.8" y2="199.6"/>
					<line class="st1" x1="896.7" y1="199.6" x2="900.6" y2="199.6"/>
				</g>
				<g>
					<line class="st1" x1="891.8" y1="208.4" x2="891.8" y2="204.6"/>
					<line class="st1" x1="891.8" y1="194.7" x2="891.8" y2="190.8"/>
				</g>
				<g>
					<line class="st1" x1="885.6" y1="205.8" x2="888.3" y2="203.1"/>
					<line class="st1" x1="895.3" y1="196.1" x2="898" y2="193.4"/>
				</g>
				<g>
					<line class="st1" x1="898" y1="205.8" x2="895.3" y2="203.1"/>
					<line class="st1" x1="888.3" y1="196.1" x2="885.6" y2="193.4"/>
				</g>
			</g>
			<g>
				<g>
					<line class="st1" x1="728.1" y1="618.7" x2="731.9" y2="618.7"/>
					<line class="st1" x1="741.8" y1="618.7" x2="745.7" y2="618.7"/>
				</g>
				<g>
					<line class="st1" x1="736.9" y1="627.5" x2="736.9" y2="623.7"/>
					<line class="st1" x1="736.9" y1="613.8" x2="736.9" y2="609.9"/>
				</g>
				<g>
					<line class="st1" x1="730.7" y1="624.9" x2="733.4" y2="622.2"/>
					<line class="st1" x1="740.4" y1="615.2" x2="743.1" y2="612.5"/>
				</g>
				<g>
					<line class="st1" x1="743.1" y1="624.9" x2="740.4" y2="622.2"/>
					<line class="st1" x1="733.4" y1="615.2" x2="730.7" y2="612.5"/>
				</g>
			</g>
			<circle class="st2" cx="854.4" cy="576.5" r="4.9"/>
			<circle class="st3" cx="971.8" cy="189" r="3.7"/>
			<g>
				<g>
					<line class="st1" x1="742.1" y1="497.3" x2="744.3" y2="495.2"/>
					<line class="st1" x1="734.4" y1="505.1" x2="736.4" y2="503.1"/>
				</g>
				<g>
					<line class="st1" x1="736.4" y1="497.3" x2="734.4" y2="495.2"/>
					<line class="st1" x1="744.3" y1="505.1" x2="742.1" y2="503.1"/>
				</g>
			</g>
			<circle class="st4" cx="941.7" cy="430.5" r="4.9"/>
			<g>
				<g>
					<line class="st1" x1="817.1" y1="658.3" x2="819.1" y2="656.3"/>
					<line class="st1" x1="809.4" y1="666.2" x2="811.4" y2="664"/>
				</g>
				<g>
					<line class="st1" x1="811.4" y1="658.3" x2="809.4" y2="656.3"/>
					<line class="st1" x1="819.1" y1="666.2" x2="817.1" y2="664"/>
				</g>
			</g>
			<circle class="st3" cx="939" cy="561.1" r="3.7"/>
			<circle class="st3" cx="566.3" cy="561.1" r="3.7"/>
			<circle class="st5" cx="801.6" cy="333.8" r="4.9"/>
			<circle class="st5" cx="741.9" cy="274.2" r="4.9"/>
			<path class="st6" d="M678.4,497.3l-1.3,11.7c0,0.2,0.2,0.2,0.4,0.2l10.8-4.8c0.2,0,0.2-0.2,0-0.4l-9.5-7
				C678.6,496.9,678.4,497.1,678.4,497.3z"/>
			<path class="st3" d="M922.9,653.4l-7-5.7c-0.2,0-0.4,0-0.4,0.2l-1.5,8.8c-0.2,0.2,0,0.2,0.2,0.2l8.2-3.1
				C922.7,653.5,922.7,653.5,922.9,653.4z"/>
			<path class="st3" d="M582.5,313l-7-5.7c-0.2,0-0.4,0-0.4,0.2l-1.5,8.8c-0.2,0.2,0,0.2,0.2,0.2l8.2-3.1
				C582.3,313.2,582.3,313.2,582.5,313z"/>
			<path class="st7" d="M988,405.8l2.2,11.5c0,0.2,0.2,0.4,0.4,0.2l9-7.7c0.2,0,0.2-0.4,0-0.4l-11.2-3.8
				C988.2,405.6,988,405.8,988,405.8z"/>
		</g>
	</g>
</g>
</svg>
