<?xml version="1.0" encoding="utf-8"?>
<!-- Generator: Adobe Illustrator 22.0.1, SVG Export Plug-In . SVG Version: 6.00 Build 0)  -->
<svg version="1.1" id="Layer_1" xmlns="http://www.w3.org/2000/svg" xmlns:xlink="http://www.w3.org/1999/xlink" x="0px" y="0px"
	 viewBox="0 0 600 600" enable-background="new 0 0 600 600" xml:space="preserve">
<g>
	<g>
		
			<ellipse transform="matrix(5.422033e-03 -1 1 5.422033e-03 -6.6221 603.3419)" fill="#DCE1E5" cx="300" cy="305" rx="165.4" ry="286.5"/>
		
			<linearGradient id="SVGID_1_" gradientUnits="userSpaceOnUse" x1="60.3652" y1="295.6699" x2="529.6348" y2="295.6699" gradientTransform="matrix(0.866 0.5 -1 0.5774 340.1924 -23.2051)">
			<stop  offset="0" style="stop-color:#B1BAC1"/>
			<stop  offset="1" style="stop-color:#828B94"/>
		</linearGradient>
		<path fill="url(#SVGID_1_)" d="M503.2,412.3c-111.5,64.4-292.9,64.1-405.1-0.7s-112.8-169.5-1.3-233.9s292.9-64.1,405.1,0.7
			S614.7,347.9,503.2,412.3z"/>
	</g>
	<g>
	
			
	</g>
	<g>
		<path fill="#DCE1E5" d="M484.2,186c-102.4-59.1-267.8-59.4-369.5-0.7s-101.2,154.2,1.2,213.3s267.8,59.4,369.5,0.7
			S586.5,245.1,484.2,186z M133.7,388.3c-92.4-53.4-92.9-139.6-1-192.6s241.2-52.8,333.6,0.6s92.9,139.6,1,192.6
			S226.1,441.7,133.7,388.3z"/>
		<path fill="#F4F7F9" d="M484.2,176c-102.4-59.1-267.8-59.4-369.5-0.7s-101.2,154.2,1.2,213.3s267.8,59.4,369.5,0.7
			S586.5,235.1,484.2,176z M133.7,378.3c-92.4-53.4-92.9-139.6-1-192.6s241.2-52.8,333.6,0.6s92.9,139.6,1,192.6
			S226.1,431.7,133.7,378.3z"/>
	</g>
	<g>
		<g>
			<path fill="#DBE0E4" d="M269.5,307c-16.9-9.8-17-25.6-0.2-35.3c16.8-9.7,44.2-9.7,61.2,0.1c16.9,9.8,17,25.6,0.2,35.3
				c-3.8,2.2-8.2,3.9-12.9,5.1l24.2,31c11-2.8,21.3-6.8,30.3-12c39.7-22.9,39.5-60.2-0.5-83.3s-104.5-23.2-144.2-0.3
				c-39.7,22.9-39.5,60.2,0.5,83.3L269.5,307z"/>
		</g>
	</g>
	<g>
		<g>
			<polygon fill="#CCD1D6" points="228.1,330.9 228.1,320.6 269.5,296.7 269.5,307 			"/>
		</g>
	</g>
	<g>
		<g>
			<polygon fill="#CCD1D6" points="342.1,343.2 342.1,332.9 317.8,301.9 317.8,312.2 			"/>
		</g>
	</g>
	<g>
		<g>
			<path fill="#CCD1D6" d="M348.6,280.2l-2.1-12.4l-10.1-11.1l-20.3-5.6l-27.7-3.1c0,0-28.2,12.2-34.7,21.3v19.5l2.9-0.1
				c0-0.6,0.1-1.2,0.2-1.8c0.9-5.6,5-11,12.4-15.2c16.8-9.7,44.2-9.7,61.2,0.1c8.2,4.7,12.4,10.8,12.7,17l1.2,0.1L348.6,280.2z"/>
		</g>
	</g>
	<g>
		<g>
			<path fill="#FFFFFF" d="M269.5,296.7c-16.9-9.8-17-25.6-0.2-35.3c16.8-9.7,44.2-9.7,61.2,0.1c16.9,9.8,17,25.6,0.2,35.3
				c-3.8,2.2-8.2,3.9-12.9,5.1l24.2,31c11-2.8,21.3-6.8,30.3-12c39.7-22.9,39.5-60.2-0.5-83.3s-104.5-23.2-144.2-0.3
				c-19.4,11.2-29.3,25.8-29.6,40.6c-0.4,15.4,9.7,30.9,30.1,42.7L269.5,296.7z"/>
		</g>
	</g>
	<g id="anim2">
		<g>
			<g>
				<path fill="#2C3238" d="">

							<animate 
			attributeName="d"
			values="M326,336.8l-13.3-17c-13.8,3.5-30.5,2-41.9-4.5l-25.3,14.6c-6.3-2.8-10.5-5.1-10.5-5.1v11.2
					c26.8,15.5,66.3,19,98.7,10.7v-11.2C333.7,335.4,332.4,335.7,326,336.8z;
					M326,346.8l-13.3-17c-13.8,3.5-30.5,2-41.9-4.5l-25.3,14.6c-6.3-2.8-10.5-5.1-10.5-5.1v11.2
					c26.8,15.5,66.3,19,98.7,10.7v-11.2C333.7,345.4,332.4,345.7,326,346.8z;
					M326,336.8l-13.3-17c-13.8,3.5-30.5,2-41.9-4.5l-25.3,14.6c-6.3-2.8-10.5-5.1-10.5-5.1v11.2
					c26.8,15.5,66.3,19,98.7,10.7v-11.2C333.7,335.4,332.4,335.7,326,336.8z"
			dur="3s"
			begin="0" 
			repeatCount="indefinite"
			id="anim-2-1" />


				</path>
			</g>
		</g>
		<g>
			<g>
				<path fill="#67717C" d="">

						<animate 
			attributeName="d"
			values="M333.7,335.4l-21-26.8c-13.8,3.5-30.5,2-41.9-4.5l-35.9,20.7C261.7,340.2,301.2,343.7,333.7,335.4z;
					M333.7,345.4l-21-26.8c-13.8,3.5-30.5,2-41.9-4.5l-35.9,20.7C261.7,350.2,301.2,353.7,333.7,345.4z;
					M333.7,335.4l-21-26.8c-13.8,3.5-30.5,2-41.9-4.5l-35.9,20.7C261.7,340.2,301.2,343.7,333.7,335.4z"
			dur="3s"
			begin="0" 
			repeatCount="indefinite"
			id="anim-2-2" />



				</path>
			</g>
		</g>
	</g>
	<g>
		<g>
			<path fill="#DBE0E4" d="M269.5,298.8c-16.9-9.8-17-25.6-0.2-35.3c16.8-9.7,44.2-9.7,61.2,0.1c16.9,9.8,17,25.6,0.2,35.3
				c-3.8,2.2-8.2,3.9-12.9,5.1l24.2,31c11-2.8,21.3-6.8,30.3-12c39.7-22.9,39.5-60.2-0.5-83.3s-104.5-23.2-144.2-0.3
				c-39.7,22.9-39.5,60.2,0.5,83.3L269.5,298.8z"/>
		</g>
	</g>
	<g>
		<g>
			<polygon fill="#CCD1D6" points="228.1,322.7 228.1,312.4 269.5,288.5 269.5,298.8 			"/>
		</g>
	</g>
	<g>
		<g>
			<polygon fill="#CCD1D6" points="342.1,335.1 342.1,324.7 317.8,293.7 317.8,304.1 			"/>
		</g>
	</g>
	<g>
		<g>
			<path fill="#CCD1D6" d="M348.6,272l-2.1-12.4l-10.1-11.1l-20.3-5.6l-27.7-3.1c0,0-28.2,12.2-34.7,21.3v19.5l2.9-0.1
				c0-0.6,0.1-1.2,0.2-1.8c0.9-5.6,5-11,12.4-15.2c16.8-9.7,44.2-9.7,61.2,0.1c8.2,4.7,12.4,10.8,12.7,17l1.2,0.1L348.6,272z"/>
		</g>
	</g>
	<g>
		<g>
			<path fill="#FFFFFF" d="M269.5,288.5c-16.9-9.8-17-25.6-0.2-35.3c16.8-9.7,44.2-9.7,61.2,0.1c16.9,9.8,17,25.6,0.2,35.3
				c-3.8,2.2-8.2,3.9-12.9,5.1l24.2,31c11-2.8,21.3-6.8,30.3-12c39.7-22.9,39.5-60.2-0.5-83.3s-104.5-23.2-144.2-0.3
				c-19.4,11.2-29.3,25.8-29.6,40.6c-0.4,15.4,9.7,30.9,30.1,42.7L269.5,288.5z"/>
		</g>
	</g>
	<g id="anim1">
		<g>
			<g>
				<path fill="#B72332" d="">

					<animate 
			attributeName="d"
			values="M325.8,325.6l-13.3-17c-13.7,3.5-30.4,2-41.7-4.5l-25.2,14.6c-6.3-2.7-10.5-5.1-10.5-5.1v11.1
					c26.6,15.4,65.9,18.9,98.2,10.6v-11.1C333.4,324.2,332.1,324.5,325.8,325.6z;
					M325.8,315.6l-13.3-17c-13.7,3.5-30.4,2-41.7-4.5l-25.2,14.6c-6.3-2.7-10.5-5.1-10.5-5.1v11.1
					c26.6,15.4,65.9,18.9,98.2,10.6v-11.1C333.4,314.2,332.1,314.5,325.8,315.6z;
					M325.8,325.6l-13.3-17c-13.7,3.5-30.4,2-41.7-4.5l-25.2,14.6c-6.3-2.7-10.5-5.1-10.5-5.1v11.1
					c26.6,15.4,65.9,18.9,98.2,10.6v-11.1C333.4,324.2,332.1,324.5,325.8,325.6z"
			dur="3s"
			begin="0" 
			repeatCount="indefinite"
			id="anim-3-2" />



				</path>
			</g>
		</g>
		<g>
			<g>
				<path fill="#E84B54" d="">
							<animate 
			attributeName="d"
			values="M333.4,324.2l-20.9-26.7c-13.7,3.5-30.4,2-41.7-4.5l-35.7,20.6C261.8,328.9,301.1,332.5,333.4,324.2z;
					M333.4,314.2l-20.9-26.7c-13.7,3.5-30.4,2-41.7-4.5l-35.7,20.6C261.8,318.9,301.1,322.5,333.4,314.2z;
					M333.4,324.2l-20.9-26.7c-13.7,3.5-30.4,2-41.7-4.5l-35.7,20.6C261.8,328.9,301.1,332.5,333.4,324.2z"
			dur="3s"
			begin="0" 
			repeatCount="indefinite"
			id="anim-3-2" />


				</path>
			</g>
		</g>
	</g>
</g>
</svg>
