<?xml version="1.0" encoding="utf-8"?>
<!-- Generator: Adobe Illustrator 22.0.1, SVG Export Plug-In . SVG Version: 6.00 Build 0)  -->
<svg version="1.1" xmlns="http://www.w3.org/2000/svg" xmlns:xlink="http://www.w3.org/1999/xlink" x="0px" y="0px"
	 viewBox="0 0 260 260" enable-background="new 0 0 260 260" xml:space="preserve">
<g id="user">
</g>
<g id="decorative">
	<circle fill="#FFFFFF" cx="130" cy="130" r="128.6"/>
	<g>
		<g>
			<g>
				<path fill="#67717C" d="M174,99.9c-0.3,0-0.5-0.2-0.5-0.5v-2.7c0-0.3,0.2-0.5,0.5-0.5s0.5,0.2,0.5,0.5v2.7
					C174.5,99.6,174.3,99.9,174,99.9z"/>
			</g>
			<g>
				<path fill="#67717C" d="M174,90.8c-0.3,0-0.5-0.2-0.5-0.5v-2.7c0-0.3,0.2-0.5,0.5-0.5s0.5,0.2,0.5,0.5v2.7
					C174.5,90.6,174.3,90.8,174,90.8z"/>
			</g>
		</g>
		<g>
			<g>
				<path fill="#67717C" d="M170.8,94h-2.7c-0.3,0-0.5-0.2-0.5-0.5s0.2-0.5,0.5-0.5h2.7c0.3,0,0.5,0.2,0.5,0.5S171.1,94,170.8,94z"
					/>
			</g>
			<g>
				<path fill="#67717C" d="M179.9,94h-2.7c-0.3,0-0.5-0.2-0.5-0.5s0.2-0.5,0.5-0.5h2.7c0.3,0,0.5,0.2,0.5,0.5S180.2,94,179.9,94z"
					/>
			</g>
		</g>
		<g>
			<g>
				<path fill="#67717C" d="M169.9,98c-0.1,0-0.3,0-0.4-0.1c-0.2-0.2-0.2-0.5,0-0.7l1.8-1.8c0.2-0.2,0.5-0.2,0.7,0s0.2,0.5,0,0.7
					l-1.8,1.8C170.1,98,170,98,169.9,98z"/>
			</g>
			<g>
				<path fill="#67717C" d="M176.3,91.7c-0.1,0-0.3,0-0.4-0.1c-0.2-0.2-0.2-0.5,0-0.7l1.8-1.8c0.2-0.2,0.5-0.2,0.7,0s0.2,0.5,0,0.7
					l-1.8,1.8C176.5,91.6,176.4,91.7,176.3,91.7z"/>
			</g>
		</g>
		<g>
			<g>
				<path fill="#67717C" d="M171.7,91.7c-0.1,0-0.3,0-0.4-0.1l-1.8-1.8c-0.2-0.2-0.2-0.5,0-0.7s0.5-0.2,0.7,0l1.8,1.8
					c0.2,0.2,0.2,0.5,0,0.7C171.9,91.6,171.8,91.7,171.7,91.7z"/>
			</g>
			<g>
				<path fill="#67717C" d="M178.1,98c-0.1,0-0.3,0-0.4-0.1l-1.8-1.8c-0.2-0.2-0.2-0.5,0-0.7s0.5-0.2,0.7,0l1.8,1.8
					c0.2,0.2,0.2,0.5,0,0.7C178.3,98,178.2,98,178.1,98z"/>
			</g>
		</g>
	</g>
	<g>
		<g>
			<g>
				<path fill="#67717C" d="M118.6,86c-0.3,0-0.5-0.2-0.5-0.5v-2.7c0-0.3,0.2-0.5,0.5-0.5s0.5,0.2,0.5,0.5v2.7
					C119.1,85.8,118.9,86,118.6,86z"/>
			</g>
			<g>
				<path fill="#67717C" d="M118.6,77c-0.3,0-0.5-0.2-0.5-0.5v-2.7c0-0.3,0.2-0.5,0.5-0.5s0.5,0.2,0.5,0.5v2.7
					C119.1,76.7,118.9,77,118.6,77z"/>
			</g>
		</g>
		<g>
			<g>
				<path fill="#67717C" d="M115.5,80.1h-2.7c-0.3,0-0.5-0.2-0.5-0.5s0.2-0.5,0.5-0.5h2.7c0.3,0,0.5,0.2,0.5,0.5
					S115.8,80.1,115.5,80.1z"/>
			</g>
			<g>
				<path fill="#67717C" d="M124.6,80.1h-2.7c-0.3,0-0.5-0.2-0.5-0.5s0.2-0.5,0.5-0.5h2.7c0.3,0,0.5,0.2,0.5,0.5
					S124.8,80.1,124.6,80.1z"/>
			</g>
		</g>
		<g>
			<g>
				<path fill="#67717C" d="M114.5,84.2c-0.1,0-0.3,0-0.4-0.1c-0.2-0.2-0.2-0.5,0-0.7l1.8-1.8c0.2-0.2,0.5-0.2,0.7,0s0.2,0.5,0,0.7
					l-1.8,1.8C114.8,84.1,114.7,84.2,114.5,84.2z"/>
			</g>
			<g>
				<path fill="#67717C" d="M120.9,77.8c-0.1,0-0.3,0-0.4-0.1c-0.2-0.2-0.2-0.5,0-0.7l1.8-1.8c0.2-0.2,0.5-0.2,0.7,0s0.2,0.5,0,0.7
					l-1.8,1.8C121.2,77.7,121.1,77.8,120.9,77.8z"/>
			</g>
		</g>
		<g>
			<g>
				<path fill="#67717C" d="M116.4,77.8c-0.1,0-0.3,0-0.4-0.1l-1.8-1.8c-0.2-0.2-0.2-0.5,0-0.7s0.5-0.2,0.7,0l1.8,1.8
					c0.2,0.2,0.2,0.5,0,0.7C116.6,77.7,116.5,77.8,116.4,77.8z"/>
			</g>
			<g>
				<path fill="#67717C" d="M122.7,84.2c-0.1,0-0.3,0-0.4-0.1l-1.8-1.8c-0.2-0.2-0.2-0.5,0-0.7s0.5-0.2,0.7,0l1.8,1.8
					c0.2,0.2,0.2,0.5,0,0.7C123,84.1,122.9,84.2,122.7,84.2z"/>
			</g>
		</g>
	</g>
	<g enable-background="new    ">
		<path fill="#E84B54" d="M80.3,181.5c-2.1,0-3.8-1.7-3.8-3.8s1.7-3.8,3.8-3.8s3.8,1.7,3.8,3.8S82.3,181.5,80.3,181.5z M80.3,175
			c-1.5,0-2.8,1.2-2.8,2.8c0,1.5,1.2,2.8,2.8,2.8s2.8-1.2,2.8-2.8C83,176.2,81.8,175,80.3,175z"/>
	</g>
	<g enable-background="new    ">
		<path fill="#E84B54" d="M161.3,180.6c-2.1,0-3.8-1.7-3.8-3.8s1.7-3.8,3.8-3.8s3.8,1.7,3.8,3.8S163.3,180.6,161.3,180.6z
			 M161.3,174.1c-1.5,0-2.8,1.2-2.8,2.8c0,1.5,1.2,2.8,2.8,2.8s2.8-1.2,2.8-2.8C164,175.4,162.8,174.1,161.3,174.1z"/>
	</g>
	<g>
		<circle fill="#67717C" cx="167.4" cy="114.8" r="2.4"/>
	</g>
	<g>
		<circle fill="#67717C" cx="189.1" cy="129.5" r="2.4"/>
	</g>
	<g enable-background="new    ">
		<path fill="#E84B54" d="M64.3,127.1c-2.1,0-3.8-1.7-3.8-3.8s1.7-3.8,3.8-3.8c2.1,0,3.8,1.7,3.8,3.8S66.4,127.1,64.3,127.1z
			 M64.3,120.6c-1.5,0-2.8,1.2-2.8,2.8s1.2,2.8,2.8,2.8c1.5,0,2.8-1.2,2.8-2.8S65.9,120.6,64.3,120.6z"/>
	</g>
	<g>
		<g>
			<g>
				<path fill="#67717C" d="M89.1,143.2c-0.1,0-0.3,0-0.4-0.1c-0.2-0.2-0.2-0.5,0-0.7l1.3-1.3c0.2-0.2,0.5-0.2,0.7,0s0.2,0.5,0,0.7
					l-1.3,1.3C89.4,143.1,89.2,143.2,89.1,143.2z"/>
			</g>
			<g>
				<path fill="#67717C" d="M83.9,148.4c-0.1,0-0.3-0.1-0.4-0.2c-0.2-0.2-0.2-0.5,0-0.7l1.4-1.3c0.2-0.2,0.5-0.2,0.7,0
					s0.2,0.5,0,0.7l-1.4,1.3C84.2,148.3,84,148.4,83.9,148.4z"/>
			</g>
		</g>
		<g>
			<g>
				<path fill="#67717C" d="M90.4,148.4c-0.1,0-0.3,0-0.4-0.1l-1.3-1.3c-0.2-0.2-0.2-0.5,0-0.7s0.5-0.2,0.7,0l1.3,1.3
					c0.2,0.2,0.2,0.5,0,0.7C90.7,148.3,90.5,148.4,90.4,148.4z"/>
			</g>
			<g>
				<path fill="#67717C" d="M85.4,143.2c-0.1,0-0.2,0-0.3-0.1l-1.4-1.3c-0.2-0.2-0.2-0.5,0-0.7c0.2-0.2,0.5-0.2,0.7,0l1.4,1.3
					c0.2,0.2,0.2,0.5,0,0.7C85.6,143.1,85.5,143.2,85.4,143.2z"/>
			</g>
		</g>
	</g>
	<g>
		<circle fill="#67717C" cx="110.1" cy="181.5" r="2.4"/>
	</g>
	<g enable-background="new    ">
		<path fill="#E84B54" d="M185.4,47.4c-2.1,0-3.8-1.7-3.8-3.8s1.7-3.8,3.8-3.8s3.8,1.7,3.8,3.8S187.4,47.4,185.4,47.4z M185.4,40.9
			c-1.5,0-2.8,1.2-2.8,2.8s1.2,2.8,2.8,2.8c1.5,0,2.8-1.2,2.8-2.8S186.9,40.9,185.4,40.9z"/>
	</g>
	<g enable-background="new    ">
		<path fill="#E84B54" d="M152.1,89.8l-4.6-6.3c-0.1-0.1-0.2-0.1-0.2,0l-3.1,7.1c0,0.1,0,0.2,0.1,0.2L152,90
			C152.1,90,152.1,89.9,152.1,89.8z"/>
	</g>
	<g>
		<path fill="#67717C" d="M80.4,101.3l-2,5.4c0,0.1,0,0.2,0.1,0.1l5.8-1c0.1,0,0.1-0.1,0.1-0.2l-3.7-4.6
			C80.6,101.2,80.5,101.2,80.4,101.3z"/>
	</g>
	<g>
		<path fill="#67717C" d="M138.3,175.1l-2,5.4c0,0.1,0,0.2,0.1,0.1l5.8-1c0.1,0,0.1-0.1,0.1-0.2l-3.7-4.6
			C138.5,175,138.4,175,138.3,175.1z"/>
	</g>
	<g enable-background="new    ">
		<path fill="#E84B54" d="M101.4,92.2l-2.5-7.4c0-0.1-0.2-0.1-0.2,0l-5.1,5.9c-0.1,0.1,0,0.2,0.1,0.2l7.6,1.4
			C101.3,92.5,101.4,92.4,101.4,92.2z"/>
	</g>
	<g>
		<g>
			<g>
				<g>
					<g>
						<line fill="#E84B54" x1="130" y1="10.8" x2="130" y2="29.2"/>
						<rect x="129.5" y="10.8" fill="#E84B54" width="1" height="18.4"/>
					</g>
					<g>
						<line fill="#E84B54" x1="130" y1="230.8" x2="130" y2="249.2"/>
						<rect x="129.5" y="230.8" fill="#E84B54" width="1" height="18.4"/>
					</g>
				</g>
				<g>
					<g>
						<line fill="#E84B54" x1="249.2" y1="130" x2="230.8" y2="130"/>
						<rect x="230.8" y="129.5" fill="#E84B54" width="18.4" height="1"/>
					</g>
					<g>
						<line fill="#E84B54" x1="29.2" y1="130" x2="10.8" y2="130"/>
						<rect x="10.8" y="129.5" fill="#E84B54" width="18.4" height="1"/>
					</g>
				</g>
			</g>
			<g>
				<g>
					<g>
						<line fill="#E84B54" x1="45.7" y1="45.7" x2="58.7" y2="58.7"/>
						
							<rect x="51.7" y="43" transform="matrix(0.7071 -0.7071 0.7071 0.7071 -21.6295 52.2183)" fill="#E84B54" width="1" height="18.4"/>
					</g>
					<g>
						<line fill="#E84B54" x1="201.3" y1="201.3" x2="214.3" y2="214.3"/>
						
							<rect x="207.3" y="198.6" transform="matrix(0.7071 -0.7071 0.7071 0.7071 -86.066 207.7817)" fill="#E84B54" width="1" height="18.4"/>
					</g>
				</g>
				<g>
					<g>
						<line fill="#E84B54" x1="214.3" y1="45.7" x2="201.3" y2="58.7"/>
						
							<rect x="198.6" y="51.7" transform="matrix(0.7071 -0.7071 0.7071 0.7071 23.934 162.2182)" fill="#E84B54" width="18.4" height="1"/>
					</g>
					<g>
						<line fill="#E84B54" x1="58.7" y1="201.3" x2="45.7" y2="214.3"/>
						
							<rect x="43" y="207.3" transform="matrix(0.7071 -0.7071 0.7071 0.7071 -131.6295 97.7817)" fill="#E84B54" width="18.4" height="1"/>
					</g>
				</g>
			</g>
		</g>
		<g>
			<g>
				<g>
					<g>
						<line fill="#E84B54" x1="85.2" y1="19.5" x2="92.1" y2="36.6"/>
						
							<rect x="88.1" y="18.9" transform="matrix(0.9266 -0.376 0.376 0.9266 -4.0495 35.3862)" fill="#E84B54" width="1" height="18.4"/>
					</g>
					<g>
						<line fill="#E84B54" x1="167.9" y1="223.4" x2="174.8" y2="240.5"/>
						
							<rect x="170.9" y="222.7" transform="matrix(0.9266 -0.376 0.376 0.9266 -74.6244 81.4357)" fill="#E84B54" width="1" height="18.4"/>
					</g>
				</g>
				<g>
					<g>
						<line fill="#E84B54" x1="240.5" y1="85.2" x2="223.4" y2="92.1"/>
						
							<rect x="222.7" y="88.1" transform="matrix(0.927 -0.3751 0.3751 0.927 -16.3168 93.4679)" fill="#E84B54" width="18.4" height="1"/>
					</g>
					<g>
						<line fill="#E84B54" x1="36.6" y1="167.9" x2="19.5" y2="174.8"/>
						
							<rect x="18.9" y="170.9" transform="matrix(0.9265 -0.3763 0.3763 0.9265 -62.4127 23.1546)" fill="#E84B54" width="18.4" height="1"/>
					</g>
				</g>
			</g>
			<g>
				<g>
					<g>
						<line fill="#E84B54" x1="20.2" y1="83.6" x2="37.2" y2="90.8"/>
						
							<rect x="28.2" y="77.9" transform="matrix(0.3894 -0.9211 0.9211 0.3894 -62.7718 79.6413)" fill="#E84B54" width="1" height="18.4"/>
					</g>
					<g>
						<line fill="#E84B54" x1="222.8" y1="169.2" x2="239.8" y2="176.4"/>
						
							<rect x="230.8" y="163.6" transform="matrix(0.3894 -0.9211 0.9211 0.3894 -17.9518 318.59)" fill="#E84B54" width="1" height="18.4"/>
					</g>
				</g>
				<g>
					<g>
						<line fill="#E84B54" x1="176.4" y1="20.2" x2="169.2" y2="37.2"/>
						
							<rect x="163.6" y="28.2" transform="matrix(0.3893 -0.9211 0.9211 0.3893 79.127 176.7145)" fill="#E84B54" width="18.4" height="1"/>
					</g>
					<g>
						<line fill="#E84B54" x1="90.8" y1="222.8" x2="83.6" y2="239.8"/>
						
							<rect x="77.9" y="230.8" transform="matrix(0.3888 -0.9213 0.9213 0.3888 -159.8414 221.6769)" fill="#E84B54" width="18.4" height="1"/>
					</g>
				</g>
			</g>
		</g>
	</g>
</g>
<g id="Layer_2">
</g>
</svg>
