<?xml version="1.0" encoding="utf-8"?>
<!-- Generator: Adobe Illustrator 22.0.1, SVG Export Plug-In . SVG Version: 6.00 Build 0)  -->
<svg version="1.1" id="Layer_1" xmlns="http://www.w3.org/2000/svg" xmlns:xlink="http://www.w3.org/1999/xlink" x="0px" y="0px"
	 viewBox="0 0 260 260" style="enable-background:new 0 0 260 260;" xml:space="preserve">
<style type="text/css">
	.st0{fill:#E84B54;}
	.st1{fill:#DCE1E5;}
</style>
<g id="decorative">
	<g>
		<g id="burst1">
			<path class="st0" d="M198.5,94.9c-0.2,0-0.3-0.1-0.3-0.3v-1.7c0-0.2,0.1-0.3,0.3-0.3c0.2,0,0.3,0.1,0.3,0.3v1.7
				C198.9,94.8,198.8,94.9,198.5,94.9z"/>
			<path class="st0" d="M198.5,89.1c-0.2,0-0.3-0.1-0.3-0.3v-1.7c0-0.2,0.1-0.3,0.3-0.3c0.2,0,0.3,0.1,0.3,0.3v1.7
				C198.9,88.9,198.8,89.1,198.5,89.1z"/>
			<path class="st0" d="M196.4,91.3h-1.7c-0.2,0-0.3-0.1-0.3-0.3c0-0.2,0.1-0.3,0.3-0.3h1.7c0.2,0,0.3,0.1,0.3,0.3
				C196.8,91,196.5,91.3,196.4,91.3z"/>
			<path class="st0" d="M202.2,91.3h-1.7c-0.2,0-0.3-0.1-0.3-0.3c0-0.2,0.1-0.3,0.3-0.3h1.7c0.2,0,0.3,0.1,0.3,0.3
				C202.5,91,202.4,91.3,202.2,91.3z"/>
			<path class="st0" d="M195.9,93.9c-0.1,0-0.2,0-0.2-0.1c-0.1-0.1-0.1-0.3,0-0.4l1.2-1.2c0.1-0.1,0.3-0.1,0.4,0
				c0.1,0.1,0.1,0.3,0,0.4l-1.2,1.2C196,93.9,195.9,93.9,195.9,93.9z"/>
			<path class="st0" d="M200,89.8c-0.1,0-0.2,0-0.2-0.1c-0.1-0.1-0.1-0.3,0-0.4l1.2-1.2c0.1-0.1,0.3-0.1,0.4,0
				c0.1,0.1,0.1,0.3,0,0.4l-1.2,1.2C200.1,89.7,200.1,89.8,200,89.8z"/>
			<path class="st0" d="M197.1,89.8c-0.1,0-0.2,0-0.2-0.1l-1.2-1.2c-0.1-0.1-0.1-0.3,0-0.4s0.3-0.1,0.4,0l1.2,1.2
				c0.1,0.1,0.1,0.3,0,0.4C197.2,89.7,197.2,89.8,197.1,89.8z"/>
			<path class="st0" d="M201.2,93.9c-0.1,0-0.2,0-0.2-0.1l-1.2-1.2c-0.1-0.1-0.1-0.3,0-0.4c0.1-0.1,0.3-0.1,0.4,0l1.2,1.2
				c0.1,0.1,0.1,0.3,0,0.4C201.4,93.9,201.3,93.9,201.2,93.9z"/>
		</g>
		<path class="st0" d="M73.8,121.6c-1.7,0-2.9-1.4-2.9-2.9c0-1.7,1.4-2.9,2.9-2.9l0,0c1.7,0,2.9,1.4,2.9,2.9
			C76.7,120.2,75.4,121.6,73.8,121.6 M73.8,114.5L73.8,114.5c-2.2,0-4,1.8-4,4c0,2.2,1.8,4,4,4c2.2,0,4-1.8,4-4S76,114.5,73.8,114.5
			"/>
		<path class="st0" d="M192.8,133.5c1.5,0,2.6,1.2,2.6,2.6s-1.2,2.6-2.6,2.6s-2.6-1.2-2.6-2.6S191.4,133.5,192.8,133.5z"/>
		<g id="burst2">
			<path class="st0" d="M131.3,196.8l-1.5,1.6c-0.2,0.2-0.2,0.5,0,0.7c0.2,0.2,0.5,0.2,0.7,0l1.5-1.6c0.2-0.2,0.2-0.5,0-0.7
				C131.8,196.5,131.5,196.5,131.3,196.8"/>
			<path class="st0" d="M125.7,202.3l-1.5,1.5c-0.2,0.2-0.2,0.5,0,0.7c0.2,0.2,0.5,0.2,0.7,0l1.5-1.5c0.2-0.2,0.2-0.5,0-0.7
				C126.2,202.1,125.9,202.1,125.7,202.3"/>
			<path class="st0" d="M132,203.7l-1.5-1.5c-0.2-0.2-0.5-0.2-0.7,0c-0.2,0.2-0.2,0.5,0,0.7l1.5,1.5c0.2,0.2,0.5,0.2,0.7,0
				C132.2,204.3,132.2,203.9,132,203.7"/>
			<path class="st0" d="M126.4,198.3l-1.5-1.6c-0.2-0.2-0.5-0.2-0.7,0c-0.2,0.2-0.2,0.5,0,0.7l1.5,1.6c0.2,0.2,0.5,0.2,0.7,0
				C126.6,198.9,126.6,198.5,126.4,198.3"/>
		</g>
		<path class="st0" d="M177.8,59.4c-1.7,0-2.9-1.4-2.9-2.9c0-1.7,1.4-2.9,2.9-2.9l0,0c1.7,0,2.9,1.4,2.9,2.9
			C180.8,58,179.5,59.4,177.8,59.4 M177.8,52.3L177.8,52.3c-2.2,0-4,1.8-4,4s1.8,4,4,4s4-1.8,4-4S180,52.3,177.8,52.3"/>
		<g id="burst-3">
			<path class="st0" d="M16.5,143.4l-1.5,1.5c-0.2,0.2-0.2,0.5,0,0.7c0.2,0.2,0.5,0.2,0.7,0l1.5-1.5c0.2-0.2,0.2-0.5,0-0.7
				C17,143.2,16.7,143.2,16.5,143.4"/>
			<path class="st0" d="M11,148.9l-1.6,1.5c-0.2,0.2-0.2,0.5,0,0.7c0.2,0.2,0.5,0.2,0.7,0l1.6-1.5c0.2-0.2,0.2-0.5,0-0.7
				C11.5,148.6,11.2,148.6,11,148.9"/>
			<path class="st0" d="M17.2,150.3l-1.5-1.5c-0.2-0.2-0.5-0.2-0.7,0c-0.2,0.2-0.2,0.5,0,0.7l1.5,1.5c0.2,0.2,0.5,0.2,0.7,0
				S17.4,150.5,17.2,150.3"/>
			<path class="st0" d="M11.8,144.7l-1.6-1.5c-0.2-0.2-0.5-0.2-0.7,0c-0.2,0.2-0.2,0.5,0,0.7l1.6,1.5c0.2,0.2,0.5,0.2,0.7,0
				C12,145.3,12,145,11.8,144.7"/>
		</g>
		<path class="st0" d="M84.7,55.7c1.5,0,2.6,1.2,2.6,2.6s-1.2,2.6-2.6,2.6s-2.6-1.2-2.6-2.6C82.1,56.9,83.3,55.7,84.7,55.7z"/>
		<path class="st0" d="M246.7,159.3c-1.7,0-2.9-1.4-2.9-2.9c0-1.7,1.4-2.9,2.9-2.9l0,0c1.7,0,2.9,1.4,2.9,2.9
			S248.4,159.3,246.7,159.3 M246.7,152.2L246.7,152.2c-2.2,0-4,1.8-4,4s1.8,4,4,4s4-1.8,4-4S248.9,152.2,246.7,152.2"/>
		<path id="triangle3" class="st0" d="M125.2,236.9L125.2,236.9l-3.5,7.8c0,0.1,0,0.2,0.1,0.2l8.3-0.9c0.1,0,0.2-0.1,0.1-0.2
			l-4.9-6.7C125.3,236.9,125.3,236.9,125.2,236.9"/>
		<path id="triangle2" class="st0" d="M18.7,70.1L16.5,76c0,0.1,0,0.2,0.1,0.1l6.2-1.1c0.1,0,0.1-0.1,0.1-0.2l-4-4.9
			C18.8,70,18.8,70,18.7,70.1z"/>
		<path id="triangle2_1_" class="st0" d="M192.7,15c-0.1,0-0.1,0-0.1,0.1l-5.5,6.4c-0.1,0.1,0,0.2,0.1,0.2l8.2,1.6
			c0,0,0.1-0.1,0.1-0.2l-2.7-8C192.8,15.1,192.8,15,192.7,15"/>
	</g>
</g>
<g>
	<g>
		<g>
			<path class="st1" d="M130,26.6c-1.7,0-3.1-1.4-3.1-3.1V7.8c0-1.7,1.4-3.1,3.1-3.1c1.7,0,3.1,1.4,3.1,3.1v15.7
				C133.1,25.2,131.7,26.6,130,26.6z"/>
		</g>
		<g>
			<path class="st1" d="M130,255.3c-1.7,0-3.1-1.4-3.1-3.1v-15.7c0-1.7,1.4-3.1,3.1-3.1c1.7,0,3.1,1.4,3.1,3.1v15.7
				C133.1,253.9,131.7,255.3,130,255.3z"/>
		</g>
	</g>
	<g>
		<g>
			<path class="st1" d="M252.2,133.1h-15.7c-1.7,0-3.1-1.4-3.1-3.1c0-1.7,1.4-3.1,3.1-3.1h15.7c1.7,0,3.1,1.4,3.1,3.1
				C255.3,131.7,253.9,133.1,252.2,133.1z"/>
		</g>
		<g>
			<path class="st1" d="M23.5,133.1H7.8c-1.7,0-3.1-1.4-3.1-3.1c0-1.7,1.4-3.1,3.1-3.1h15.7c1.7,0,3.1,1.4,3.1,3.1
				C26.6,131.7,25.2,133.1,23.5,133.1z"/>
		</g>
	</g>
	<g>
		<g>
			<path class="st1" d="M54.7,57.8c-0.8,0-1.6-0.3-2.2-0.9L41.4,45.8c-1.2-1.2-1.2-3.2,0-4.4c1.2-1.2,3.2-1.2,4.4,0l11.1,11.1
				c1.2,1.2,1.2,3.2,0,4.4C56.3,57.5,55.5,57.8,54.7,57.8z"/>
		</g>
		<g>
			<path class="st1" d="M216.4,219.5c-0.8,0-1.6-0.3-2.2-0.9l-11.1-11.1c-1.2-1.2-1.2-3.2,0-4.4c1.2-1.2,3.2-1.2,4.4,0l11.1,11.1
				c1.2,1.2,1.2,3.2,0,4.4C218,219.2,217.2,219.5,216.4,219.5z"/>
		</g>
	</g>
	<g>
		<g>
			<path class="st1" d="M205.3,57.8c-0.8,0-1.6-0.3-2.2-0.9c-1.2-1.2-1.2-3.2,0-4.4l11.1-11.1c1.2-1.2,3.2-1.2,4.4,0
				c1.2,1.2,1.2,3.2,0,4.4l-11.1,11.1C206.9,57.5,206.1,57.8,205.3,57.8z"/>
		</g>
		<g>
			<path class="st1" d="M43.6,219.5c-0.8,0-1.6-0.3-2.2-0.9c-1.2-1.2-1.2-3.2,0-4.4l11.1-11.1c1.2-1.2,3.2-1.2,4.4,0
				c1.2,1.2,1.2,3.2,0,4.4l-11.1,11.1C45.2,219.2,44.4,219.5,43.6,219.5z"/>
		</g>
	</g>
	<g>
		<g>
			<path class="st1" d="M93.2,33.2c-1.3,0-2.5-0.8-2.9-2l-5.4-14.7c-0.6-1.6,0.2-3.4,1.9-4c1.6-0.6,3.4,0.2,4,1.9L96.2,29
				c0.6,1.6-0.2,3.4-1.9,4C94,33.1,93.6,33.2,93.2,33.2z"/>
		</g>
		<g>
			<path class="st1" d="M172.2,247.8c-1.3,0-2.5-0.8-2.9-2l-5.4-14.7c-0.6-1.6,0.2-3.4,1.9-4c1.6-0.6,3.4,0.2,4,1.9l5.4,14.7
				c0.6,1.6-0.2,3.4-1.9,4C172.9,247.8,172.5,247.8,172.2,247.8z"/>
		</g>
	</g>
	<g>
		<g>
			<path class="st1" d="M230,96.4c-1.3,0-2.5-0.8-2.9-2c-0.6-1.6,0.2-3.4,1.9-4l14.7-5.4c1.6-0.6,3.4,0.2,4,1.9s-0.2,3.4-1.9,4
				L231,96.2C230.7,96.3,230.3,96.4,230,96.4z"/>
		</g>
		<g>
			<path class="st1" d="M15.3,175.3c-1.3,0-2.5-0.8-2.9-2c-0.6-1.6,0.2-3.4,1.9-4l14.7-5.4c1.6-0.6,3.4,0.2,4,1.9
				c0.6,1.6-0.2,3.4-1.9,4l-14.7,5.4C16,175.2,15.7,175.3,15.3,175.3z"/>
		</g>
	</g>
	<g>
		<g>
			<path class="st1" d="M33.3,88.4c-0.4,0-0.9-0.1-1.3-0.3l-14.3-6.6c-1.6-0.7-2.2-2.6-1.5-4.1c0.7-1.6,2.6-2.2,4.1-1.5l14.3,6.6
				c1.6,0.7,2.2,2.6,1.5,4.1C35.6,87.8,34.5,88.4,33.3,88.4z"/>
		</g>
		<g>
			<path class="st1" d="M240.9,184.4c-0.4,0-0.9-0.1-1.3-0.3l-14.3-6.6c-1.6-0.7-2.2-2.6-1.5-4.1c0.7-1.6,2.6-2.2,4.1-1.5l14.3,6.6
				c1.6,0.7,2.2,2.6,1.5,4.1C243.2,183.7,242.1,184.4,240.9,184.4z"/>
		</g>
	</g>
	<g>
		<g>
			<path class="st1" d="M174.7,36.4c-0.4,0-0.9-0.1-1.3-0.3c-1.6-0.7-2.2-2.6-1.5-4.1l6.6-14.3c0.7-1.6,2.6-2.2,4.1-1.5
				c1.6,0.7,2.2,2.6,1.5,4.1l-6.6,14.3C177,35.8,175.9,36.4,174.7,36.4z"/>
		</g>
		<g>
			<path class="st1" d="M78.7,244.1c-0.4,0-0.9-0.1-1.3-0.3c-1.6-0.7-2.2-2.6-1.5-4.1l6.6-14.3c0.7-1.6,2.6-2.2,4.1-1.5
				c1.6,0.7,2.2,2.6,1.5,4.1l-6.6,14.3C81,243.4,79.9,244.1,78.7,244.1z"/>
		</g>
	</g>
</g>
</svg>
