<?xml version="1.0" encoding="utf-8"?>
<!-- Generator: Adobe Illustrator 22.0.1, SVG Export Plug-In . SVG Version: 6.00 Build 0)  -->
<svg version="1.1" xmlns="http://www.w3.org/2000/svg" xmlns:xlink="http://www.w3.org/1999/xlink" x="0px" y="0px"
	 viewBox="0 0 215.4 220" enable-background="new 0 0 215.4 220" xml:space="preserve">
<g id="static">
	<g id="team">
		<g>
			<path fill="#DCE1E5" d="M71.3,89.7c-8.5,0-15.5,6.9-15.5,15.5v17.6c2.9,2,6.2,3.4,9.8,4.2v-5.8c0,0,3.4,1.2,7,0
				c-1.1,0.3-2.2,0.5-3.3,0.5c-6.1,0-11.2-4.9-11.2-11.2V99.9c0-0.6,0-1.2,0.1-1.7c1.7,0.5,3.6,0.8,5.5,0.8c3.9,0,7.5-1.2,10.5-3.1
				h0.1c1.4,2.2,3.6,3.8,6.1,4.4v10.3c0,5.1-3.3,9.3-7.9,10.7c0.1,0,0.2-0.1,0.4-0.1v6.5c5.1-0.3,9.8-2,13.8-4.8v-17.6
				C86.8,96.6,79.9,89.7,71.3,89.7z"/>
			<path fill="none" stroke="#67717C" stroke-width="0.5" stroke-linecap="round" stroke-miterlimit="10" d="M73,124.3
				c4.3-0.6,8.3-2.3,11.7-4.6v-17.6c0-8.5-6.9-15.5-15.5-15.5c-2.9,0-5.6,0.8-7.9,2.2"/>
			<path fill="none" stroke="#67717C" stroke-width="0.5" stroke-linecap="round" stroke-miterlimit="10" d="M54.3,98.6
				c-0.2,1.1-0.4,2.3-0.4,3.6v17.6c3.4,2.4,7.4,4,11.7,4.6"/>
			<path fill="none" stroke="#67717C" stroke-width="0.5" stroke-linecap="round" stroke-miterlimit="10" d="M54.9,96.5
				c0,0.1,0,0.1-0.1,0.2"/>
			<path fill="none" stroke="#67717C" stroke-width="0.5" stroke-linecap="round" stroke-miterlimit="10" d="M57.8,91.7
				c-0.8,0.9-1.4,1.7-2,2.8"/>
			<g>
				<g>
					<polyline fill="none" stroke="#67717C" stroke-width="0.5" stroke-linecap="round" stroke-miterlimit="10" points="84.1,129.2 
						73,127.7 73,121.2 					"/>
				</g>
				<g>
					<polyline fill="none" stroke="#67717C" stroke-width="0.5" stroke-linecap="round" stroke-miterlimit="10" points="65.6,121.2 
						65.6,127.7 54.6,129.2 					"/>
				</g>
			</g>
			<path fill="none" stroke="#67717C" stroke-width="0.5" stroke-linecap="round" stroke-miterlimit="10" d="M74.4,95.8
				c1.4,2.2,3.6,3.8,6.1,4.4v10.3c0,6.1-4.9,11.2-11.2,11.2c-6.1,0-11.2-4.9-11.2-11.2V99.9c0-0.6,0-1.2,0.1-1.7
				c1.7,0.5,3.6,0.8,5.5,0.8c3.9,0,7.5-1.2,10.5-3.1C74.3,95.8,74.3,95.8,74.4,95.8z"/>
			<g>
				<path fill="none" stroke="#67717C" stroke-width="0.5" stroke-linecap="round" stroke-miterlimit="10" d="M72,113.9
					c-0.6,0.9-1.6,1.4-2.7,1.4s-2-0.5-2.7-1.4"/>
				<g>
					<path display="none" fill="none" stroke="#000000" stroke-width="0.48" stroke-linecap="round" stroke-miterlimit="10" d="
						M71.5,98.1c1-0.8,2.2-1.4,3.6-1.4s2.8,0.5,3.7,1.5"/>
				</g>
				<g>
					<path display="none" fill="none" stroke="#000000" stroke-width="0.48" stroke-linecap="round" stroke-miterlimit="10" d="
						M60.9,98.1c1-0.8,2.2-1.4,3.6-1.4c1.4,0,2.8,0.5,3.7,1.5"/>
				</g>
			</g>
			<path fill="#DCE1E5" d="M65.8,106.3c0,0.6-0.5,1.1-1.1,1.1c-0.6,0-1.1-0.5-1.1-1.1c0-0.6,0.5-1.1,1.1-1.1
				C65.4,105.2,65.8,105.7,65.8,106.3z"/>
			<path fill="#DCE1E5" d="M75.1,106.3c0,0.6-0.5,1.1-1.1,1.1c-0.6,0-1.1-0.5-1.1-1.1c0-0.6,0.5-1.1,1.1-1.1S75.1,105.7,75.1,106.3z
				"/>
			<path fill="none" stroke="#67717C" stroke-width="0.5" stroke-linecap="round" stroke-miterlimit="10" d="M74.3,127.8
				c0,0.3,0.1,0.5,0.1,0.9c0,2.8-2.3,5.1-5.1,5.1s-5.1-2.3-5.1-5.1c0-0.3,0-0.5,0.1-0.9"/>
			
				<line fill="none" stroke="#67717C" stroke-width="0.5" stroke-linecap="round" stroke-miterlimit="10" x1="69.3" y1="132.1" x2="69.3" y2="133.5"/>
			<g>
				<path fill="none" stroke="#67717C" stroke-width="0.5" stroke-linecap="round" stroke-miterlimit="10" d="M80.6,137.1
					c0,0.2-0.2,0.4-0.4,0.4H77c-0.2,0-0.4-0.2-0.4-0.4v-5.7c0-0.2,0.2-0.4,0.4-0.4h3.2c0.2,0,0.4,0.2,0.4,0.4V137.1z"/>
			</g>
			<path fill="none" stroke="#67717C" stroke-width="0.5" stroke-linecap="round" stroke-miterlimit="10" d="M70.3,110.7
				c0,0.5-0.4,1-1,1s-1-0.4-1-1"/>
			
				<line fill="none" stroke="#E84B54" stroke-width="0.5" stroke-linecap="round" stroke-miterlimit="10" x1="78" y1="132.8" x2="78" y2="135.1"/>
		</g>
		<g>
			<g>
				<path fill="#E84B54" d="M147.4,129.8l-3-1.7c-0.2-0.1-0.5,0-0.5,0.3v3.4c0,0.2,0.3,0.4,0.5,0.3l3-1.7
					C147.5,130.1,147.5,129.9,147.4,129.8z"/>
				<path fill="#E84B54" d="M148.5,129.8l3-1.7c0.2-0.1,0.5,0,0.5,0.3v3.4c0,0.2-0.3,0.4-0.5,0.3l-3-1.7
					C148.3,130.1,148.3,129.9,148.5,129.8z"/>
			</g>
			<path fill="#DCE1E5" d="M153.4,86.5c-3.2,0-6.1,1.3-8.3,3.4c-4.6,1-8.1,5.5-8.1,10.9c0,1.7,0.3,3.3,1,4.8V102
				c0-3.8,1.9-7,4.8-8.9c2.7,3.8,7.7,6.3,13.6,6.3c0.9,0,1.7-0.1,2.6-0.2c0.2,0.9,0.3,1.7,0.3,2.7v6.2c3.4-2,5.8-5.8,5.8-10.1
				C165.1,91.7,159.8,86.5,153.4,86.5z"/>
			<path fill="none" stroke="#67717C" stroke-width="0.5" stroke-linecap="round" stroke-miterlimit="10" d="M152.6,84.4
				c-0.3,0-0.6,0-1,0c-0.2,0-0.3,0-0.5,0"/>
			<path fill="none" stroke="#67717C" stroke-width="0.5" stroke-linecap="round" stroke-miterlimit="10" d="M154.9,84.8
				c-0.1,0-0.1,0-0.2,0"/>
			<path fill="none" stroke="#67717C" stroke-width="0.5" stroke-linecap="round" stroke-miterlimit="10" d="M159.3,105
				c0.1-0.1,0.1-0.1,0.2-0.2c2.4-2.2,3.9-5.3,3.9-8.7c0-4.4-2.5-8.3-6.1-10.3"/>
			<path fill="none" stroke="#67717C" stroke-width="0.5" stroke-linecap="round" stroke-miterlimit="10" d="M147.6,85.2
				c-1.5,0.6-2.9,1.5-4.1,2.7c-4.6,1-8.1,5.5-8.1,10.9c0,2.9,1,5.6,2.7,7.5"/>
			<path fill="none" stroke="#67717C" stroke-width="0.5" stroke-linecap="round" stroke-miterlimit="10" d="M138,110.9
				c0,0.3-0.3,0.6-0.6,0.6h-0.5c-0.3,0-0.6-0.3-0.6-0.6v-3.8c0-0.3,0.3-0.6,0.6-0.6h0.5c0.3,0,0.6,0.3,0.6,0.6V110.9z"/>
			<path fill="none" stroke="#67717C" stroke-width="0.5" stroke-linecap="round" stroke-miterlimit="10" d="M156.4,99.5
				c-5.8,0-10.9-2.6-13.6-6.3c-2.9,1.8-4.8,5.2-4.8,8.9v8.4c0,5.8,4.7,10.5,10.5,10.5h0.2c5.8,0,10.5-4.7,10.5-10.5v-8.4
				c0-1-0.1-1.8-0.3-2.7C158.1,99.5,157.3,99.5,156.4,99.5z"/>
			<path fill="#DCE1E5" d="M151.1,111.5c1.5,0.9,2.8,1.9,3.1,3.7l5.9-5.9v2.6c0,5.8-4.7,10.5-10.5,10.5h-0.2
				c-5.8,0-10.5-4.7-10.5-10.5v-2.2l0,0l5.6,5.6c0.3-1.7,1.6-3.1,3.2-3.7C147.8,111.5,149.8,110.9,151.1,111.5z"/>
			<path fill="#FFFFFF" stroke="#67717C" stroke-width="0.5" stroke-linecap="round" stroke-miterlimit="10" d="M161.1,110.9
				c0,0.3-0.3,0.6-0.6,0.6h-0.5c-0.3,0-0.6-0.3-0.6-0.6v-3.8c0-0.3,0.3-0.6,0.6-0.6h0.5c0.3,0,0.6,0.3,0.6,0.6V110.9z"/>
			<path fill="none" stroke="#67717C" stroke-width="0.5" stroke-linecap="round" stroke-miterlimit="10" d="M150.3,110.2
				c1.6,0.5,2.8,1.9,3.1,3.7l5.9-5.9v2.6c0,5.8-4.7,10.5-10.5,10.5h-0.2c-5.8,0-10.5-4.7-10.5-10.5v-2.2l0,0l5.6,5.6
				c0.3-1.7,1.6-3.1,3.2-3.7c0,0,0.3,1.2,1.7,1.2C149.9,111.4,150.3,110.2,150.3,110.2z"/>
			<path fill="none" stroke="#67717C" stroke-width="0.5" stroke-linecap="round" stroke-miterlimit="10" d="M151,113.9
				c-0.6,0.4-1.5,0.8-2.5,0.8c-0.9,0-1.7-0.3-2.5-0.8"/>
			<path fill="#DCE1E5" d="M145.2,104.7c0,0.6-0.5,1.2-1.2,1.2c-0.6,0-1.2-0.5-1.2-1.2c0-0.6,0.5-1.2,1.2-1.2
				C144.7,103.6,145.2,104.1,145.2,104.7z"/>
			<path fill="#DCE1E5" d="M155.2,104.7c0,0.6-0.5,1.2-1.2,1.2c-0.6,0-1.2-0.5-1.2-1.2c0-0.6,0.5-1.2,1.2-1.2
				C154.7,103.6,155.2,104.1,155.2,104.7z"/>
			<path fill="none" stroke="#67717C" stroke-width="0.5" stroke-linecap="round" stroke-miterlimit="10" d="M152.6,120.2v3.8
				c0,2.2-1.7,3.8-3.8,3.8h-0.6c-2.2,0-3.8-1.7-3.8-3.8v-3.8"/>
			<path fill="none" stroke="#000000" stroke-width="1.2" stroke-linecap="round" stroke-miterlimit="10" d="M143.1,122.2"/>
			<path fill="none" stroke="#000000" stroke-width="1.2" stroke-linecap="round" stroke-miterlimit="10" d="M154,122.2"/>
			<path fill="none" stroke="#67717C" stroke-width="0.5" stroke-linecap="round" stroke-miterlimit="10" d="M162.7,128.1
				c-2.3-2.8-5.3-4.8-8.7-5.9"/>
			<path fill="none" stroke="#67717C" stroke-width="0.5" stroke-linecap="round" stroke-miterlimit="10" d="M143.1,122.2"/>
		</g>
		<g>
			<path fill="#DCE1E5" d="M113.7,72.4c-10.1,0-18.3,8.2-18.3,18.3c0,1.5,0.2,3,0.5,4.4v-5.4c0-0.3,0-0.5,0-0.9
				c0-0.2,0.2-0.2,0.2-0.2c1.6,0.3,3.2,0.5,4.9,0.5c5.3,0,10.1-1.9,14-4.9c0.3-0.2,0.3,0.2,0.3,0.2c0.3,4.4,4,8,8.6,8
				c0.1,0,0.3,0,0.4,0c0,0,0.2-0.1,0.2,0.2v7.5c0,2-0.4,4.1-1.3,5.8c5.1-3.2,8.4-8.9,8.4-15.4C132,80.6,123.8,72.4,113.7,72.4z"/>
			<path fill="#DCE1E5" d="M127.1,102.7v1c0,6.6-5.3,11.9-11.8,12.2v-2c0,0,7.3-2.2,9.1-10L127.1,102.7z"/>
			<g>
				
					<line fill="none" stroke="#67717C" stroke-width="0.5" stroke-linecap="round" stroke-miterlimit="10" x1="99.4" y1="121.4" x2="94.4" y2="122.4"/>
				<path fill="none" stroke="#67717C" stroke-width="0.5" stroke-linecap="round" stroke-miterlimit="10" d="M120.7,121.4"/>
			</g>
			<path fill="#E84B54" d="M112.6,126.2c-0.5,0.9-1.5,1.5-2.6,1.5s-2-0.5-2.6-1.4l2.6-2.8L112.6,126.2z"/>
			<g>
				<g>
					<g>
						<path fill="none" stroke="#67717C" stroke-width="0.5" stroke-linecap="round" stroke-miterlimit="10" d="M99.9,120.7
							c-0.3,0.3-0.3,0.8,0,1.1l5.4,5.4c0.3,0.3,0.8,0.3,1.1,0l3.1-3.1c0.3-0.3,0.3-0.8,0-1.1l-5.4-5.4c-0.3-0.3-0.8-0.3-1.1,0
							L99.9,120.7z"/>
					</g>
				</g>
			</g>
			<g>
				<g>
					<g>
						<path fill="none" stroke="#67717C" stroke-width="0.5" stroke-linecap="round" stroke-miterlimit="10" d="M120.1,120.7
							c0.3,0.3,0.3,0.8,0,1.1l-5.4,5.4c-0.3,0.3-0.8,0.3-1.1,0l-3.1-3.1c-0.3-0.3-0.3-0.8,0-1.1l5.4-5.4c0.3-0.3,0.8-0.3,1.1,0
							L120.1,120.7z"/>
					</g>
				</g>
			</g>
			<path fill="none" stroke="#67717C" stroke-width="0.5" stroke-linecap="round" stroke-miterlimit="10" d="M94.7,96.7
				c-0.9,0-1.5,0.6-1.5,1.5v2.5c0,0.9,0.6,1.5,1.5,1.5h0.4c0.3,0,0.6-0.1,0.9-0.3"/>
			<path fill="none" stroke="#67717C" stroke-width="0.5" stroke-linecap="round" stroke-miterlimit="10" d="M126.1,96.7
				c0.9,0,1.5,0.6,1.5,1.5v2.5c0,0.9-0.6,1.5-1.5,1.5h-0.4c-0.3,0-0.6-0.1-0.9-0.3"/>
			<path fill="none" stroke="#67717C" stroke-width="0.5" stroke-linecap="round" stroke-miterlimit="10" d="M95,76.9
				c-1.8,2.8-2.9,6.2-2.9,9.9c0,4.3,1.4,8.2,3.9,11.3"/>
			<path fill="none" stroke="#67717C" stroke-width="0.5" stroke-linecap="round" stroke-miterlimit="10" d="M96.9,74.5
				c-0.1,0.1-0.2,0.2-0.2,0.3"/>
			<path fill="none" stroke="#67717C" stroke-width="0.5" stroke-linecap="round" stroke-miterlimit="10" d="M100.7,71.3
				c-0.6,0.4-1.3,0.9-1.8,1.3"/>
			<path fill="none" stroke="#67717C" stroke-width="0.5" stroke-linecap="round" stroke-miterlimit="10" d="M124.8,98.1
				c2.5-3.1,3.9-7,3.9-11.3c0-10.1-8.2-18.3-18.3-18.3c-2.2,0-4.1,0.3-6,1"/>
			<path fill="none" stroke="#67717C" stroke-width="0.5" stroke-linecap="round" stroke-miterlimit="10" d="M124.8,92.7v7.5
				c0,8-6.5,14.4-14.4,14.4s-14.4-6.5-14.4-14.4V89.7c0-0.3,0-0.5,0-0.9c0-0.2,0.2-0.2,0.2-0.2c1.6,0.3,3.2,0.5,4.9,0.5
				c5.3,0,10.1-1.9,14-4.9c0.3-0.2,0.3,0.2,0.3,0.2c0.3,4.4,4,8,8.6,8c0.1,0,0.3,0,0.4,0C124.7,92.5,124.8,92.5,124.8,92.7z"/>
			<path fill="none" stroke="#67717C" stroke-width="0.5" stroke-linecap="round" stroke-miterlimit="10" d="M108.7,102.9
				c0.3,0.4,0.9,0.6,1.4,0.6c0.5,0,1.1-0.2,1.5-0.6"/>
			<path fill="none" stroke="#67717C" stroke-width="0.5" stroke-linecap="round" stroke-miterlimit="10" d="M105,106.5
				c1,1.8,3,3.1,5.3,3.1s4.3-1.3,5.3-3.1"/>
			<g>
				<path fill="#DCE1E5" d="M114.9,95.6c0,0.8,0.6,1.5,1.5,1.5c0.8,0,1.5-0.6,1.5-1.5c0-0.8-0.6-1.5-1.5-1.5
					C115.5,94.2,114.9,94.8,114.9,95.6z"/>
			</g>
			<g>
				<path fill="#DCE1E5" d="M102.9,95.6c0,0.8,0.6,1.5,1.5,1.5c0.8,0,1.5-0.6,1.5-1.5c0-0.8-0.6-1.5-1.5-1.5
					C103.6,94.2,102.9,94.8,102.9,95.6z"/>
			</g>
			<path fill="#E84B54" d="M109.6,129.9l-2.9,7.5c0,0.1,0,0.2,0,0.3l1.2,12.6c0.1,1.2,1.2,2.2,2.4,2.2l0,0c1.3,0,2.3-1,2.4-2.2
				l1.2-12.6c0-0.1,0-0.2,0-0.3l-2.9-7.5C110.6,129.4,109.8,129.4,109.6,129.9z"/>
			<path fill="none" stroke="#67717C" stroke-width="0.5" stroke-linecap="round" stroke-miterlimit="10" d="M114.9,115.8"/>
			
				<line fill="none" stroke="#67717C" stroke-width="0.5" stroke-linecap="round" stroke-miterlimit="10" x1="104.2" y1="113.2" x2="104.2" y2="117.6"/>
			
				<line fill="none" stroke="#67717C" stroke-width="0.5" stroke-linecap="round" stroke-miterlimit="10" x1="120.3" y1="121.4" x2="127.6" y2="122.9"/>
		</g>
	</g>
</g>
<g id="decorative">
	<g id="Collaboration_Icon">
		<g>
			<g>
				<g>
					<path fill="#DCE1E5" d="M162,149.5c-0.3,0-0.6-0.3-0.6-0.6v-2.7c0-0.3,0.3-0.6,0.6-0.6s0.6,0.3,0.6,0.6v2.7
						C162.6,149.3,162.3,149.5,162,149.5z"/>
				</g>
				<g>
					<path fill="#DCE1E5" d="M162,140.3c-0.3,0-0.6-0.3-0.6-0.6v-2.5c0-0.3,0.3-0.6,0.6-0.6s0.6,0.3,0.6,0.6v2.5
						C162.6,140.1,162.3,140.3,162,140.3z"/>
				</g>
			</g>
			<g>
				<g>
					<path fill="#DCE1E5" d="M158.7,143.6h-2.5c-0.3,0-0.6-0.3-0.6-0.6s0.3-0.6,0.6-0.6h2.5c0.3,0,0.6,0.3,0.6,0.6
						S159.1,143.6,158.7,143.6z"/>
				</g>
				<g>
					<path fill="#DCE1E5" d="M167.8,143.6h-2.5c-0.3,0-0.6-0.3-0.6-0.6s0.3-0.6,0.6-0.6h2.5c0.3,0,0.6,0.3,0.6,0.6
						S168.1,143.6,167.8,143.6z"/>
				</g>
			</g>
			<g>
				<g>
					<path fill="#DCE1E5" d="M157.9,147.7c-0.2,0-0.3-0.1-0.4-0.2c-0.2-0.2-0.2-0.6,0-0.9l1.8-1.8c0.2-0.2,0.6-0.2,0.9,0
						c0.2,0.2,0.2,0.6,0,0.9l-1.8,1.8C158.2,147.6,158,147.7,157.9,147.7z"/>
				</g>
				<g>
					<path fill="#DCE1E5" d="M164.3,141.3c-0.2,0-0.3-0.1-0.4-0.2c-0.2-0.2-0.2-0.6,0-0.9l1.8-1.8c0.2-0.2,0.6-0.2,0.9,0
						c0.2,0.2,0.2,0.6,0,0.9l-1.8,1.8C164.6,141.2,164.5,141.3,164.3,141.3z"/>
				</g>
			</g>
			<g>
				<g>
					<path fill="#DCE1E5" d="M159.7,141.3c-0.2,0-0.3-0.1-0.4-0.2l-1.8-1.8c-0.2-0.2-0.2-0.6,0-0.9s0.6-0.2,0.9,0l1.8,1.8
						c0.2,0.2,0.2,0.6,0,0.9C160,141.2,159.9,141.3,159.7,141.3z"/>
				</g>
				<g>
					<path fill="#DCE1E5" d="M166.1,147.7c-0.2,0-0.3-0.1-0.4-0.2l-1.8-1.8c-0.2-0.2-0.2-0.6,0-0.9s0.6-0.2,0.9,0l1.8,1.8
						c0.2,0.2,0.2,0.6,0,0.9C166.4,147.6,166.3,147.7,166.1,147.7z"/>
				</g>
			</g>
		</g>
		<g opacity="0.1" enable-background="new    ">
			<path fill="#E84B54" d="M52.3,160.2c-2.1,0-3.9-1.7-3.9-3.9c0-2.1,1.7-3.9,3.9-3.9c2.1,0,3.9,1.7,3.9,3.9
				C56.2,158.4,54.5,160.2,52.3,160.2z M52.3,153.6c-1.5,0-2.7,1.2-2.7,2.7s1.2,2.7,2.7,2.7c1.5,0,2.7-1.2,2.7-2.7
				S53.8,153.6,52.3,153.6z"/>
		</g>
		<g>
			<circle fill="#DCE1E5" cx="141.4" cy="96.9" r="2.4"/>
		</g>
		<g>
			<g>
				<g>
					<path fill="#DCE1E5" d="M99.6,40c-0.2,0-0.3-0.1-0.4-0.2c-0.2-0.2-0.2-0.6,0-0.9l1.3-1.3c0.2-0.2,0.6-0.2,0.9,0
						c0.2,0.2,0.2,0.6,0,0.9l-1.3,1.3C99.9,39.9,99.8,40,99.6,40z"/>
				</g>
				<g>
					<path fill="#DCE1E5" d="M94.5,45.2c-0.1,0-0.3-0.1-0.4-0.2c-0.2-0.2-0.3-0.6,0-0.9l1.3-1.5c0.2-0.2,0.6-0.3,0.9,0
						s0.3,0.6,0,0.9L95,45C94.9,45.1,94.7,45.2,94.5,45.2z"/>
				</g>
			</g>
			<g>
				<g>
					<path fill="#DCE1E5" d="M100.9,45.2c-0.2,0-0.3-0.1-0.4-0.2l-1.3-1.5c-0.2-0.2-0.2-0.6,0-0.9c0.2-0.2,0.6-0.2,0.9,0l1.3,1.5
						c0.2,0.2,0.2,0.6,0,0.9C101.2,45.1,101.1,45.2,100.9,45.2z"/>
				</g>
				<g>
					<path fill="#DCE1E5" d="M95.9,40c-0.2,0-0.3-0.1-0.4-0.2l-1.3-1.3c-0.2-0.2-0.2-0.6,0-0.9c0.2-0.2,0.6-0.2,0.9,0l1.3,1.3
						c0.2,0.2,0.2,0.6,0,0.9C96.2,39.9,96,40,95.9,40z"/>
				</g>
			</g>
		</g>
		<g opacity="0.1" enable-background="new    ">
			<path fill="#E84B54" d="M72.9,88.8c-2.1,0-3.9-1.7-3.9-3.9c0-2.1,1.7-3.9,3.9-3.9c2.1,0,3.9,1.7,3.9,3.9
				C76.7,87.1,75,88.8,72.9,88.8z M72.9,82.3c-1.5,0-2.7,1.2-2.7,2.7c0,1.5,1.2,2.7,2.7,2.7c1.5,0,2.7-1.2,2.7-2.7
				C75.5,83.5,74.3,82.3,72.9,82.3z"/>
		</g>
		<g>
			<g>
				<g>
					<path fill="#DCE1E5" d="M201.4,82.8c-0.2,0-0.3-0.1-0.4-0.2c-0.2-0.2-0.2-0.6,0-0.9l1.3-1.3c0.2-0.2,0.6-0.2,0.9,0
						c0.2,0.2,0.2,0.6,0,0.9l-1.3,1.3C201.7,82.7,201.6,82.8,201.4,82.8z"/>
				</g>
				<g>
					<path fill="#DCE1E5" d="M196.3,88c-0.2,0-0.3-0.1-0.4-0.2c-0.2-0.2-0.2-0.6,0-0.9l1.3-1.3c0.2-0.2,0.6-0.2,0.9,0
						c0.2,0.2,0.2,0.6,0,0.9l-1.3,1.3C196.6,87.9,196.5,88,196.3,88z"/>
				</g>
			</g>
			<g>
				<g>
					<path fill="#DCE1E5" d="M202.7,88c-0.2,0-0.3-0.1-0.4-0.2l-1.3-1.3c-0.2-0.2-0.2-0.6,0-0.9c0.2-0.2,0.6-0.2,0.9,0l1.3,1.3
						c0.2,0.2,0.2,0.6,0,0.9C203.1,87.9,202.9,88,202.7,88z"/>
				</g>
				<g>
					<path fill="#DCE1E5" d="M197.7,82.8c-0.2,0-0.3-0.1-0.4-0.2l-1.3-1.3c-0.2-0.2-0.2-0.6,0-0.9c0.2-0.2,0.6-0.2,0.9,0l1.3,1.3
						c0.2,0.2,0.2,0.6,0,0.9C198,82.7,197.8,82.8,197.7,82.8z"/>
				</g>
			</g>
		</g>
		<g>
			<circle fill="#DCE1E5" cx="34.2" cy="70.6" r="2.4"/>
		</g>
		<g opacity="0.1" enable-background="new    ">
			<path fill="#E84B54" d="M194.6,150.1c-2.1,0-3.9-1.7-3.9-3.9c0-2.1,1.7-3.9,3.9-3.9c2.1,0,3.9,1.7,3.9,3.9
				C198.5,148.4,196.8,150.1,194.6,150.1z M194.6,143.6c-1.5,0-2.7,1.2-2.7,2.7s1.2,2.7,2.7,2.7s2.7-1.2,2.7-2.7
				S196.1,143.6,194.6,143.6z"/>
		</g>
		<g opacity="0.1" enable-background="new    ">
			<path fill="#E84B54" d="M130.4,182l-4.6-6.3c-0.1-0.1-0.2-0.1-0.2,0l-3.1,7.1c0,0.1,0,0.2,0.1,0.2l7.7-0.8
				C130.4,182.3,130.4,182.2,130.4,182z"/>
		</g>
		<g>
			<path fill="#DCE1E5" d="M62.5,109.5l-2.1,5.4c0,0.1,0,0.2,0.1,0.1l5.8-1c0.1,0,0.1-0.1,0.1-0.2l-3.7-4.6
				C62.7,109.5,62.6,109.5,62.5,109.5z"/>
		</g>
		<g opacity="0.1" enable-background="new    ">
			<path fill="#E84B54" d="M22.2,132.5l-2.5-7.4c0-0.1-0.2-0.1-0.2,0l-5.1,5.9c-0.1,0.1,0,0.2,0.1,0.2l7.6,1.5
				C22.1,132.7,22.2,132.6,22.2,132.5z"/>
		</g>
		<g>
			<circle fill="#DCE1E5" cx="81.6" cy="179.8" r="2.4"/>
		</g>
		<g opacity="0.1" enable-background="new    ">
			<path fill="#E84B54" d="M138.8,47.1l-2.5-7.4c0-0.1-0.2-0.1-0.2,0l-5.1,5.9c-0.1,0.1,0,0.2,0.1,0.2l7.6,1.5
				C138.8,47.3,138.9,47.2,138.8,47.1z"/>
		</g>
	</g>
</g>
<g id="elements">
	<g id="time_management_2_">
		<circle fill="#DCE1E5" cx="100.2" cy="191.9" r="11"/>
		<path fill="none" stroke="#67717C" stroke-width="0.5" stroke-linecap="round" stroke-miterlimit="10" d="M94.2,179.8
			c1.2-0.4,2.5-0.6,3.8-0.6c6,0,11,4.9,11,11s-4.9,11-11,11c-5.5,0-10-4-10.8-9.1c-0.1-0.5-0.1-1.2-0.1-1.7c0-0.5,0-1.1,0.1-1.6
			c0.1-1,0.4-1.8,0.8-2.7"/>
		<path fill="none" stroke="#67717C" stroke-width="0.5" stroke-linecap="round" stroke-miterlimit="10" d="M91.9,180.8
			c0.1-0.1,0.2-0.1,0.2-0.1"/>
		<path fill="none" stroke="#67717C" stroke-width="0.5" stroke-linecap="round" stroke-miterlimit="10" d="M89.2,183.4
			c0.4-0.5,0.9-1.1,1.4-1.5"/>
		<path fill="none" stroke="#E84B54" stroke-width="0.5" stroke-linecap="round" stroke-miterlimit="10" d="M93,185.3l4.7,4.7
			c0.1,0.1,0.3,0.1,0.4,0l3.4-3.4"/>
	</g>
	<g id="project_2_">
		<path fill="#DCE1E5" d="M39.9,171.2l0.3,4.6c0.1,1,1,1.7,1.9,1.6l15.6-1.2c1-0.1,1.7-1,1.6-1.9L58,157.2c-0.1-1-1-1.7-1.9-1.6
			l-15.6,1.2c-1,0.1-1.7,1-1.6,1.9l0.2,3.3L39.9,171.2z"/>
		
			<line fill="none" stroke="#67717C" stroke-width="0.5" stroke-linecap="round" stroke-miterlimit="10" x1="36.1" y1="164.7" x2="36" y2="162.2"/>
		
			<line fill="none" stroke="#67717C" stroke-width="0.5" stroke-linecap="round" stroke-miterlimit="10" x1="36.3" y1="166.8" x2="36.3" y2="166.5"/>
		<path fill="none" stroke="#67717C" stroke-width="0.5" stroke-linecap="round" stroke-miterlimit="10" d="M35.6,159.3l-0.2-3.3
			c-0.1-1,0.6-1.8,1.6-1.9l15.6-1.2c1-0.1,1.8,0.6,1.9,1.6l1.4,17.1c0.1,1-0.6,1.8-1.6,1.9l-15.6,1.2c-1,0.1-1.8-0.6-1.9-1.6
			l-0.3-4.1"/>
		
			<line fill="none" stroke="#E84B54" stroke-width="0.5" stroke-linecap="round" stroke-miterlimit="10" x1="41.5" y1="160.7" x2="47.5" y2="160.3"/>
		
			<line fill="none" stroke="#67717C" stroke-width="0.5" stroke-linecap="round" stroke-miterlimit="10" x1="42.1" y1="166.6" x2="48" y2="166.2"/>
		
			<line fill="none" stroke="#67717C" stroke-width="0.5" stroke-linecap="round" stroke-miterlimit="10" x1="42.3" y1="169.7" x2="48.2" y2="169.1"/>
	</g>
	<g id="achievment_2_">
		<path fill="#DCE1E5" d="M200.6,135l3.3-8.5l2,0.4c-0.1-0.2-0.3-0.4-0.6-0.4l-12.3-2.7c-0.5-0.1-1.1,0.2-1.1,0.8l-1.5,14.1
			c-0.3,2.7,1.6,5.3,4.4,5.9l0,0c2.8,0.6,5.6-0.9,6.6-3.4l3.7-10.5L200.6,135z"/>
		<path fill="none" stroke="#67717C" stroke-width="0.5" stroke-linecap="round" stroke-miterlimit="10" d="M188.3,137
			c0-0.1,0-0.2,0-0.3"/>
		<path fill="none" stroke="#67717C" stroke-width="0.5" stroke-linecap="round" stroke-miterlimit="10" d="M188.6,133.8l0.2-2
			l0.2-1.7l0.2-1.6l0.1-1l0.1-1.3l0.4-3.9c0.1-0.5,0.5-0.9,1.1-0.8l12.3,2.7c0.5,0.1,0.9,0.6,0.6,1.2l-4.6,13.4
			c-0.9,2.6-3.7,4.1-6.6,3.4l0,0c-1.9-0.4-3.3-1.7-4.1-3.3"/>
		<path fill="none" stroke="#67717C" stroke-width="0.5" stroke-linecap="round" stroke-miterlimit="10" d="M203.9,126.5l2.7,0.6
			c0.6,0.1,1,1,0.4,1.5l-6.5,6.3"/>
		<path fill="none" stroke="#67717C" stroke-width="0.5" stroke-linecap="round" stroke-miterlimit="10" d="M189.3,123.3l-2.7-0.6
			c-0.6-0.1-1.3,0.5-1.1,1.2l1.3,3.4"/>
		
			<line fill="none" stroke="#67717C" stroke-width="0.5" stroke-linecap="round" stroke-miterlimit="10" x1="192.7" y1="142.7" x2="191.9" y2="146.1"/>
		
			<line fill="none" stroke="#67717C" stroke-width="0.5" stroke-linecap="round" stroke-miterlimit="10" x1="189.2" y1="145.9" x2="194.4" y2="147.1"/>
		<polygon fill="#E84B54" points="196.2,126.9 196.5,128.2 197.7,128.7 196.6,129.3 196.5,130.7 195.5,129.8 194.3,130.2 194.8,129 
			194.1,127.9 195.4,127.9 		"/>
	</g>
	<g id="calendar_2_">
		<path fill="#DCE1E5" d="M198.3,57.5l-17.8,3.1c-0.9,0.1-1.5,1-1.3,1.9l3.1,17.8c0.1,0.9,1,1.5,1.9,1.3l14.5-2.6
			c2.7-0.4,4.4-3,4-5.7l-2.6-14.5C200,58,199.2,57.3,198.3,57.5z M195,76.6v-0.3l-0.8-4c-0.1-0.6,0.3-1.3,1-1.4l4-0.8
			C199.2,70.1,200.2,75.6,195,76.6z"/>
		<path fill="none" stroke="#67717C" stroke-width="0.5" stroke-linecap="round" stroke-miterlimit="10" d="M176.9,66.3l-1.1-6
			c-0.2-1,0.4-1.8,1.4-2l17.4-3.1c1-0.2,1.8,0.4,2,1.4l2.5,14.1c0.5,2.8-1.4,5.5-4.3,6l-14,2.5c-1,0.2-1.8-0.4-2-1.4l-0.6-3.9"/>
		
			<line fill="none" stroke="#67717C" stroke-width="0.5" stroke-linecap="round" stroke-miterlimit="10" x1="176.3" y1="62.5" x2="197.2" y2="58.7"/>
		<path fill="none" stroke="#67717C" stroke-width="0.5" stroke-linecap="round" stroke-miterlimit="10" d="M199.3,70.2l-4,0.8
			c-0.6,0.1-1.2,0.8-1,1.4l0.8,4"/>
		<path fill="#E84B54" d="M185.6,67.6l-1.9,0.3c-0.2,0-0.3-0.1-0.4-0.3l-0.3-1.9c0-0.2,0.1-0.3,0.3-0.4l1.9-0.3
			c0.2,0,0.3,0.1,0.4,0.3l0.3,1.9C185.9,67.3,185.8,67.6,185.6,67.6z"/>
		<path fill="#67717C" d="M186.7,73.8l-1.9,0.3c-0.2,0-0.3-0.1-0.4-0.3l-0.3-1.9c0-0.2,0.1-0.3,0.3-0.4l1.9-0.3
			c0.2,0,0.3,0.1,0.4,0.3l0.3,1.9C187,73.7,186.9,73.8,186.7,73.8z"/>
		
			<line fill="none" stroke="#67717C" stroke-width="0.5" stroke-linecap="round" stroke-miterlimit="10" x1="177.5" y1="69.5" x2="177.7" y2="70.3"/>
	</g>
	<g id="Global_2_">
		<circle fill="#DCE1E5" cx="42.8" cy="61.5" r="11.2"/>
		<path fill="none" stroke="#67717C" stroke-width="0.5" stroke-linecap="round" stroke-miterlimit="10" d="M36.6,49.2
			c1.2-0.4,2.5-0.6,3.9-0.6c6.1,0,11.2,4.9,11.2,11.2s-5.1,11.1-11.2,11.1c-5.6,0-10.1-4.1-11-9.4c-0.1-0.5-0.1-1.2-0.1-1.8
			c0-0.5,0-1.1,0.1-1.6c0.1-1,0.4-1.8,0.8-2.7"/>
		<path fill="none" stroke="#67717C" stroke-width="0.5" stroke-linecap="round" stroke-miterlimit="10" d="M34.3,50.3
			c0.1-0.1,0.2-0.1,0.2-0.2"/>
		<path fill="none" stroke="#67717C" stroke-width="0.5" stroke-linecap="round" stroke-miterlimit="10" d="M31.5,52.9
			c0.4-0.5,0.9-1.1,1.4-1.5"/>
		<path fill="none" stroke="#E84B54" stroke-width="0.5" stroke-linecap="round" stroke-miterlimit="10" d="M43.2,52.1
			c1.3,1.7,2.2,4.5,2.2,7.9c0,3.6-1,6.6-2.5,8.2"/>
		<path fill="none" stroke="#E84B54" stroke-width="0.5" stroke-linecap="round" stroke-miterlimit="10" d="M37.2,67
			c-1.1-1.7-1.7-4.3-1.7-7.2c0-3.9,1.2-7.2,3-8.7"/>
	</g>
	<g id="Mail_2_">
		<path fill="#DCE1E5" d="M24.4,124.3l-13.3-14.4c-0.6-0.8-0.6-1.8,0.1-2.5l8.1-7.4c0.8-0.6,1.8-0.6,2.5,0.1l13.3,14.4
			c0.6,0.8,0.6,1.8-0.1,2.5l-8.1,7.4C26.2,125,25.1,125,24.4,124.3z"/>
		
			<line fill="none" stroke="#67717C" stroke-width="0.5" stroke-linecap="round" stroke-miterlimit="10" x1="25.9" y1="101.3" x2="25.5" y2="100.8"/>
		<path fill="none" stroke="#67717C" stroke-width="0.5" stroke-linecap="round" stroke-miterlimit="10" d="M22.9,98.1l-1.3-1.4
			C21,96,19.8,96,19.2,96.6l-5.3,4.8l-2.8,2.6c-0.8,0.6-0.8,1.8-0.1,2.5l13.3,14.4c0.6,0.8,1.8,0.8,2.5,0.1l8.1-7.4
			c0.8-0.6,0.8-1.8,0.1-2.5l-7.2-7.7"/>
		<path fill="none" stroke="#E84B54" stroke-width="0.5" stroke-linecap="round" stroke-miterlimit="10" d="M20.7,101.9l1,7.1
			c0.1,0.5,0.5,1,1,1.1l8.6,1.9"/>
	</g>
	<g id="pie-chart_2_">
		<path fill="#DCE1E5" d="M155.8,48.2l-5.2-0.9c-0.1,0-0.2-0.1-0.2-0.3l0.8-4.4c0-0.1,0.1-0.2,0.3-0.2l5.2,0.9
			c0.1,0,0.2,0.1,0.2,0.3l-0.8,4.4C156.1,48.1,156,48.2,155.8,48.2z"/>
		<path fill="#DCE1E5" d="M136.2,45.1l-5.1-0.9c-0.2,0-0.3-0.2-0.3-0.4l1.5-9.1c0-0.2,0.2-0.3,0.4-0.3l5.1,0.9
			c0.2,0,0.3,0.2,0.3,0.4l-1.5,9.1C136.7,45,136.4,45.1,136.2,45.1z"/>
		<path fill="none" stroke="#67717C" stroke-width="0.5" stroke-linecap="round" stroke-miterlimit="10" d="M133.8,42.5l-5.1-0.9
			c-0.2,0-0.3-0.2-0.3-0.4l1.5-9.1c0-0.2,0.2-0.3,0.4-0.3l5.1,0.9c0.2,0,0.3,0.2,0.3,0.4l-1.5,9.1C134.1,42.4,134,42.5,133.8,42.5z"
			/>
		<path fill="#DCE1E5" d="M149.7,27.7l-2.7-0.4l-2.7,16.5c0,0.2-0.3,0.4-0.5,0.4l-2-0.3l-0.2,1.6c0,0.2,0.1,0.5,0.4,0.5l4.7,0.8
			c0.2,0,0.5-0.1,0.5-0.4l2.9-18.1C150.1,28,150,27.7,149.7,27.7z"/>
		
			<line fill="none" stroke="#67717C" stroke-width="0.5" stroke-linecap="round" stroke-miterlimit="10" x1="140.2" y1="33.2" x2="140.3" y2="32.7"/>
		<path fill="none" stroke="#67717C" stroke-width="0.5" stroke-linecap="round" stroke-miterlimit="10" d="M141,28.6l0.6-3.9
			c0-0.2,0.3-0.4,0.5-0.4l4.7,0.8c0.2,0,0.4,0.3,0.4,0.5l-2.9,18.1c0,0.2-0.3,0.4-0.5,0.4l-4.7-0.8c-0.2,0-0.4-0.3-0.4-0.5l1.2-7.3"
			/>
		<path fill="none" stroke="#67717C" stroke-width="0.5" stroke-linecap="round" stroke-miterlimit="10" d="M154.3,45.8l-5.2-0.9
			c-0.1,0-0.2-0.1-0.2-0.3l0.8-4.4c0-0.1,0.1-0.2,0.3-0.2l5.2,0.9c0.1,0,0.2,0.1,0.2,0.3l-0.8,4.4C154.5,45.7,154.4,45.8,154.3,45.8
			z"/>
		
			<line fill="none" stroke="#E84B54" stroke-width="0.5" stroke-linecap="round" stroke-miterlimit="10" x1="143.8" y1="29.5" x2="142.3" y2="38.9"/>
	</g>
	<g id="progress_2_">
		<path fill="#DCE1E5" d="M100.3,20.7l-18,4.2c-1.7,0.4-2.8,2.2-2.4,3.9l1.9,8l20.6-4.8l0.1,0.5c0.4,1.7-0.6,3.4-2.4,3.9l-17.4,4.1
			c0.4,1.6,2.2,2.6,3.8,2.3l18-4.2c1.7-0.4,2.8-2.2,2.4-3.9l-2.7-11.5C103.7,21.4,102,20.3,100.3,20.7z"/>
		
			<line fill="none" stroke="#67717C" stroke-width="0.5" stroke-linecap="round" stroke-miterlimit="10" x1="76.5" y1="30.2" x2="76.3" y2="29.7"/>
		<path fill="none" stroke="#67717C" stroke-width="0.5" stroke-linecap="round" stroke-miterlimit="10" d="M75.7,26.7
			c-0.4-1.7,0.6-3.4,2.4-3.9l18-4.2c1.7-0.4,3.4,0.6,3.9,2.4l2.7,11.5c0.4,1.7-0.6,3.4-2.4,3.9l-18,4.2c-1.7,0.4-3.4-0.6-3.9-2.4
			l-1.3-5.4"/>
		
			<line fill="none" stroke="#67717C" stroke-width="0.5" stroke-linecap="round" stroke-miterlimit="10" x1="88.8" y1="42.6" x2="95.2" y2="41.1"/>
		<path fill="none" stroke="#67717C" stroke-width="0.5" stroke-linecap="round" stroke-miterlimit="10" d="M102.3,31.6
			c0,0-3.4,0.9-10.9,2.6C84,35.9,78,37.3,78,37.3s6-1.4,13.4-3.1C99,32.5,102.3,31.6,102.3,31.6z"/>
		<path fill="none" stroke="#E84B54" stroke-width="0.5" stroke-linecap="round" stroke-miterlimit="10" d="M84.7,32.5l2.5-4
			c0.1-0.2,0.3-0.2,0.5-0.1l2.7,1.6c0.2,0.1,0.4,0.1,0.5-0.1l2-3.2"/>
	</g>
	<g>
		<g>
			<path fill="none" stroke="#DCE1E5" stroke-width="1.5" stroke-linecap="round" stroke-miterlimit="10" d="M157.9,181.4
				c-1.4,1.9-3.7,4.4-5.6,4.7c-3.2,0.4-6.2-1.8-6.6-5.1c-0.3-3.2,1.8-6.2,5.1-6.6c3.2-0.4,8.6,4.8,8.6,4.8"/>
			<path fill="none" stroke="#DCE1E5" stroke-width="1.5" stroke-linecap="round" stroke-miterlimit="10" d="M159.3,179.2
				c0,0,5.4,5.3,8.6,4.8s5.5-3.3,5.1-6.6c-0.4-3.2-3.3-5.5-6.6-5.1c-1,0.1-1.9,0.8-2.8,1.6"/>
		</g>
		<g>
			<path fill="none" stroke="#67717C" stroke-width="0.5" stroke-linecap="round" stroke-miterlimit="10" d="M155.7,178.8
				c-1.4,1.9-3.7,4.4-5.6,4.7c-3.2,0.4-6.2-1.8-6.6-5.1c-0.3-3.2,1.8-6.2,5.1-6.6c3.2-0.4,8.6,4.8,8.6,4.8"/>
			<path fill="none" stroke="#67717C" stroke-width="0.5" stroke-linecap="round" stroke-miterlimit="10" d="M159,174
				c-0.1,0.1-0.2,0.3-0.3,0.4"/>
			<path fill="none" stroke="#67717C" stroke-width="0.5" stroke-linecap="round" stroke-miterlimit="10" d="M157.2,176.7
				c0,0,5.4,5.3,8.6,4.8c3.2-0.4,5.5-3.3,5.1-6.6c-0.4-3.2-3.3-5.5-6.6-5.1c-1.3,0.2-2.6,1.3-3.9,2.6"/>
		</g>
		<path fill="none" stroke="#E84B54" stroke-width="0.5" stroke-linecap="round" stroke-miterlimit="10" d="M150.8,180.7
			c-1.8,0.2-3.4-0.8-4.2-2.3"/>
	</g>
</g>
</svg>
