<?xml version="1.0" encoding="utf-8"?>
<!-- Generator: Adobe Illustrator 22.0.1, SVG Export Plug-In . SVG Version: 6.00 Build 0)  -->
<svg version="1.1" id="Layer_1" xmlns="http://www.w3.org/2000/svg" xmlns:xlink="http://www.w3.org/1999/xlink" x="0px" y="0px"
	 viewBox="0 0 100 100" enable-background="new 0 0 100 100" xml:space="preserve">
<g>
	<path fill="#DCE1E5" d="M51.2,11.6c22.2,0,40.2,18,40.2,40.2S73.4,92,51.2,92S11,74,11,51.8S29,11.6,51.2,11.6z"/>
	<path fill="#67717C" d="M24.6,15.9c6.6-4.7,14.4-7.4,23-7.4c5,0,10.1,1.2,14.4,2.7l0.2,0.1h0.2v-0.5L62,11.1l0.4,0.2v-0.5L62,11.1
		l0.1-0.1H62v0.1l0.1-0.1H62h0.4L62,10.8l-0.1,0.3h0.4L62,10.8l-0.1,0.1L47,45.8l0.9,0.4L47,45.7l-0.2,0.9c0,0.7,0.4,1.2,0.8,1.4
		c0.4,0.3,0.7,0.4,1.1,0.4h37.5v-0.2L86,48.4h0.2v-0.2L86,48.4l0.2-0.2H86v0.2l0.2-0.2H86h1h-1c-0.4,21.1-17.9,38.1-39.3,38.1H46
		l0,0C25.8,85.9,8.6,68.7,8.2,48.6h-1h1c0-2.8,0-5.5,0.8-8.1c0.2-0.5-0.2-1.1-0.7-1.2c-0.5-0.2-1.1,0.2-1.2,0.7
		c-0.8,3-0.8,5.9-0.8,8.7l0,0l0,0C6.7,70,24.7,87.9,46,88.4l0,0h0.8c22.5,0,40.9-17.8,41.3-40.1l0,0l0,0c0-0.5-0.2-0.9-0.5-1.3
		c-0.3-0.3-0.7-0.5-1.3-0.5H48.7v0.2v-0.2l0,0v0.2v-0.2l0,0l-0.2,0.2h0.3l-0.1-0.2l-0.2,0.2h0.3h-0.2l0.2,0.1v-0.1h-0.2l0.2,0.1l0,0
		l0,0l14.8-34.7l-0.9-0.4l0.7,0.7l0.5-1.1c0-0.4-0.1-0.8-0.4-1.1c-0.2-0.3-0.6-0.6-1.2-0.7v1l0.3-0.9C58.1,8,52.8,6.8,47.5,6.7
		c-9,0-17.2,2.9-24.1,7.8c-0.4,0.3-0.6,0.9-0.2,1.4C23.5,16.1,24.1,16.2,24.6,15.9L24.6,15.9z"/>
	<path fill="#67717C" d="M18.8,20.5h0.3l0.7-0.3l0.3-0.7l-0.3-0.7l-0.7-0.3h-0.3c-0.6,0-1,0.4-1,1C17.8,20,18.3,20.5,18.8,20.5h0.3
		l0.7-0.3l0.3-0.7l-0.3-0.7l-0.7-0.3h-0.3c-0.6,0-1,0.4-1,1C17.8,20,18.3,20.5,18.8,20.5L18.8,20.5z"/>
	<path fill="#67717C" d="M12.9,29.5c0.7-1.5,1.9-3,3.1-4.6c0.3-0.4,0.2-1.1-0.2-1.4c-0.4-0.3-1.1-0.2-1.4,0.2
		c-1.2,1.6-2.4,3.2-3.3,4.9c-0.2,0.5,0,1.1,0.4,1.3C12.1,30.2,12.7,30,12.9,29.5L12.9,29.5z"/>
	<path fill="#E84B54" d="M93,31.8c-1.2-9.2-6.4-16.8-13.6-21.1c-0.4,0-0.8,0-0.8,0L63.9,34.6c-0.4,0.4,0,1.2,0.8,1.2l27.9-3.2
		C93,32.6,93,32.2,93,31.8z"/>
</g>
</svg>
