<?xml version="1.0" encoding="utf-8"?>
<!-- Generator: Adobe Illustrator 22.0.1, SVG Export Plug-In . SVG Version: 6.00 Build 0)  -->
<svg version="1.1" id="Layer_1" xmlns="http://www.w3.org/2000/svg" xmlns:xlink="http://www.w3.org/1999/xlink" x="0px" y="0px"
	 viewBox="0 0 80 80" enable-background="new 0 0 80 80" xml:space="preserve">
<g>
	<path fill="none" stroke="#E84B55" stroke-width="0.5" stroke-linecap="round" stroke-miterlimit="10" d="M7.7,46.8"/>
	<path fill="none" stroke="#E84B55" stroke-width="0.5" stroke-linecap="round" stroke-miterlimit="10" d="M8.6,51.6"/>
	<path fill="none" stroke="#E84B55" stroke-width="0.5" stroke-linecap="round" stroke-miterlimit="10" d="M8.9,52.8"/>
	<g>
		<g>
			<path fill="#DCE1E5" d="M9.7,49.8c-0.5,0-0.9-0.4-1-0.9c-0.1-1.2-0.2-2.4-0.2-3.6c0-10,4.5-19.2,12.2-25.5
				c0.4-0.3,1.1-0.3,1.4,0.2c0.3,0.4,0.3,1.1-0.2,1.4c-7.2,5.9-11.4,14.6-11.4,24c0,1.1,0.1,2.2,0.2,3.4c0.1,0.5-0.3,1-0.9,1.1
				C9.8,49.8,9.7,49.8,9.7,49.8z"/>
		</g>
		<g>
			<path fill="#DCE1E5" d="M10.6,54.6c-0.4,0-0.8-0.3-1-0.7c-0.3-1.2-0.6-2.4-0.8-3.6c-0.1-0.5,0.3-1.1,0.8-1.1
				c0.5-0.1,1.1,0.3,1.1,0.8c0.2,1.1,0.4,2.3,0.7,3.4c0.1,0.5-0.2,1.1-0.7,1.2C10.8,54.6,10.7,54.6,10.6,54.6z"/>
		</g>
		<g>
			<path fill="#DCE1E5" d="M31.8,76.6c-0.1,0-0.2,0-0.3,0c-9.8-3-17.7-10.6-21.1-20.2c-0.2-0.6,0.1-1.2,0.6-1.4s1.1,0.1,1.3,0.6
				c3.2,9.1,10.6,16.2,19.8,19c0.5,0.2,0.8,0.7,0.7,1.3C32.6,76.3,32.2,76.6,31.8,76.6z"/>
		</g>
		<g>
			<path fill="#DCE1E5" d="M51.2,76.3c-0.4,0-0.8-0.3-0.9-0.7c-0.2-0.5,0.1-1.1,0.6-1.3c12.5-4.2,20.9-15.9,20.9-29
				c0-9.3-4.1-17.9-11.3-23.8c-0.4-0.3-0.5-1-0.1-1.4c0.3-0.4,1-0.5,1.4-0.1c7.7,6.2,12.1,15.5,12.1,25.3c0,14-8.9,26.5-22.2,30.9
				C51.4,76.3,51.3,76.3,51.2,76.3z"/>
		</g>
	</g>
	<path fill="none" stroke="#68717D" stroke-width="0.5" stroke-linecap="round" stroke-miterlimit="10" d="M23,20.7"/>
	<path fill="none" stroke="#68717D" stroke-width="0.5" stroke-linecap="round" stroke-miterlimit="10" d="M28.9,67.5"/>
	<path fill="none" stroke="#68717D" stroke-width="0.5" stroke-linecap="round" stroke-miterlimit="10" d="M40.2,17.8"/>
	<g>
		<path fill="none" stroke="#E84B55" stroke-width="0.5" stroke-linecap="round" stroke-miterlimit="10" d="M7.7,46.8
			c-0.1-1.1-0.2-2.3-0.2-3.5c0-10,4.6-18.9,11.9-24.7"/>
		<path fill="none" stroke="#E84B55" stroke-width="0.5" stroke-linecap="round" stroke-miterlimit="10" d="M8.6,51.6
			c-0.3-1.1-0.6-2.3-0.7-3.5"/>
		<path fill="none" stroke="#E84B55" stroke-width="0.5" stroke-linecap="round" stroke-miterlimit="10" d="M29.8,73.6
			c-9.6-3-17.2-10.3-20.5-19.6"/>
		<path fill="none" stroke="#E84B55" stroke-width="0.5" stroke-linecap="round" stroke-miterlimit="10" d="M59,18.8
			c7.1,5.8,11.7,14.6,11.7,24.6c0,13.9-9,25.8-21.5,30"/>
	</g>
	<g>
		<g>
			<path fill="#DCE1E5" d="M41.5,18.9L41.5,18.9c3.1,0,5.7,2.4,5.8,5.5l2.9,46.7l-9.8,8.2L30.8,71l4.9-46.9
				C35.9,21.3,38.5,18.9,41.5,18.9z"/>
			<path fill="none" stroke="#68717D" stroke-width="0.5" stroke-linecap="round" stroke-miterlimit="10" d="M39.5,17.9L39.5,17.9
				c3.1,0,5.7,2.4,5.8,5.5l2.9,46.7l-9.8,8.2L28.8,70l4.9-46.9C33.9,20.3,36.5,17.9,39.5,17.9z"/>
		</g>
	</g>
	<polyline fill="none" stroke="#68717D" stroke-width="0.5" stroke-linecap="round" stroke-miterlimit="10" points="45,18.1 
		48.1,15.6 39.6,10.5 30.9,15.6 34,18.1 	"/>
	<g>
		<g>
			<path fill="#DCE1E5" d="M29.6,2.1l11,7.4l-15.7,9.3c-0.8,0.5-1.8-0.3-1.6-1.2l4.2-14.7C27.7,1.9,28.8,1.5,29.6,2.1z"/>
			<path fill="#DCE1E5" d="M51.4,2.1l-11,7.4l15.7,9.3c0.8,0.5,1.8-0.3,1.6-1.2L53.6,2.8C53.3,1.9,52.2,1.5,51.4,2.1z"/>
		</g>
		<g>
			<path fill="none" stroke="#68717D" stroke-width="0.5" stroke-linecap="round" stroke-miterlimit="10" d="M27.6,1.1l11,7.4
				l-15.7,9.3c-0.8,0.5-1.8-0.3-1.6-1.2l4.2-14.7C25.7,0.9,26.8,0.5,27.6,1.1z"/>
			<path fill="none" stroke="#68717D" stroke-width="0.5" stroke-linecap="round" stroke-miterlimit="10" d="M49.4,1.1l-11,7.4
				l15.7,9.3c0.8,0.5,1.8-0.3,1.6-1.2L51.6,1.8C51.3,0.9,50.2,0.5,49.4,1.1z"/>
		</g>
	</g>
	<path fill="none" stroke="#68717D" stroke-width="0.5" stroke-linecap="round" stroke-miterlimit="10" d="M43.4,48.8
		c0.1,0.2,0.2,0.3,0.4,0.5"/>
	<path fill="none" stroke="#68717D" stroke-width="0.5" stroke-linecap="round" stroke-miterlimit="10" d="M43.4,48.8"/>
	<path fill="none" stroke="#68717D" stroke-width="0.5" stroke-linecap="round" stroke-miterlimit="10" d="M43.7,54.5
		c-0.9,1.3-2.4,2.2-4.1,2.2c-2.7,0-4.9-2.2-4.9-4.9s2.2-4.9,4.9-4.9c1.2,0,2.3,0.4,3.1,1.1"/>
	<path fill="none" stroke="#68717D" stroke-width="0.5" stroke-linecap="round" stroke-miterlimit="10" d="M44.2,53.5
		c-0.1,0.4-0.3,0.7-0.5,1"/>
	<path fill="none" stroke="#68717D" stroke-width="0.5" stroke-linecap="round" stroke-miterlimit="10" d="M44.5,51.8
		c0,0.6-0.1,1.1-0.3,1.7"/>
	<path fill="none" stroke="#68717D" stroke-width="0.5" stroke-linecap="round" stroke-miterlimit="10" d="M43.8,49.3
		c0.2,0.4,0.4,0.8,0.5,1.2"/>
	<circle fill="#E84B55" cx="39.6" cy="51.8" r="3.5"/>
</g>
</svg>
