<?xml version="1.0" encoding="utf-8"?>
<!-- Generator: Adobe Illustrator 22.0.1, SVG Export Plug-In . SVG Version: 6.00 Build 0)  -->
<svg version="1.1" id="Layer_1" xmlns="http://www.w3.org/2000/svg" xmlns:xlink="http://www.w3.org/1999/xlink" x="0px" y="0px"
	 viewBox="0 0 80 80" enable-background="new 0 0 80 80" xml:space="preserve">
<g id="Business-inteligence">
	<path fill="#DCE1E5" d="M67.5,21.9l-0.1,26.6H12.8l0,1.8l0,9.4c0.2,4.2,3.7,7.6,8,7.7l46.1,0.2c4.4,0,8.1-3.6,8.1-8l0.1-29.6
		C75.1,25.6,71.8,22.1,67.5,21.9z"/>
	
		<line fill="none" stroke="#68717D" stroke-width="0.5" stroke-linecap="round" stroke-miterlimit="10" x1="5.3" y1="30" x2="5.3" y2="28.7"/>
	<path fill="none" stroke="#68717D" stroke-width="0.5" stroke-linecap="round" stroke-miterlimit="10" d="M5.3,20.8
		c0-4.4,3.6-8,8.1-8L59.5,13c4.4,0,8,3.6,8,8.1l-0.1,29.6c0,4.4-3.6,8-8.1,8l-46.2-0.2c-4.4,0-8-3.6-8-8.1l0.1-13.9"/>
	<path fill="none" stroke="#68717D" stroke-width="0.5" stroke-linecap="round" stroke-miterlimit="10" d="M67.4,48.7
		c0,0-8.8,0-27.8-0.1c-19-0.1-34.4-0.2-34.4-0.2s15.4,0.1,34.4,0.2C58.6,48.7,67.4,48.7,67.4,48.7z"/>
	<path fill="none" stroke="#E84B55" stroke-width="0.5" stroke-linecap="round" stroke-miterlimit="10" d="M18.8,41.1l10.8-10.8
		c0.9-0.9,2.4-0.9,3.3,0l5.3,5.3c0.9,0.9,2.4,0.9,3.3,0l12.5-12.5"/>
	<path fill="none" stroke="#68717D" stroke-width="0.5" stroke-linecap="round" stroke-miterlimit="10" d="M45.6,66.7L45.6,66.7
		c-3.6-6.2-12.6-6.2-16.2,0l0,0"/>
</g>
</svg>
