<?xml version="1.0" encoding="utf-8"?>
<!-- Generator: Adobe Illustrator 22.0.1, SVG Export Plug-In . SVG Version: 6.00 Build 0)  -->
<svg version="1.1" id="Layer_1" xmlns="http://www.w3.org/2000/svg" xmlns:xlink="http://www.w3.org/1999/xlink" x="0px" y="0px"
	 viewBox="0 0 80 80" enable-background="new 0 0 80 80" xml:space="preserve">
<g id="Extended_x5F_Team">
	<g>
		<path fill="#DCE1E5" d="M57.2,56.9c-2.7-4.8-7.8-8-13.7-8s-11,3.2-13.7,8H57.2z"/>
		<path fill="#DCE1E5" d="M45.9,32.4c0.3,0.8,0.5,1.8,0.5,2.7c0,4-3.2,7.2-7.2,7.2c-1.8,0-3.3-0.7-4.6-1.7c1.1,2.6,3.6,4.5,6.6,4.5
			c4,0,7.2-3.2,7.2-7.2C48.5,35.7,47.5,33.7,45.9,32.4z"/>
		<path fill="none" stroke="#68717D" stroke-width="0.5" stroke-linecap="round" stroke-miterlimit="10" d="M28.3,51.9
			c-0.9,0.9-1.7,2-2.4,3.1"/>
		<path fill="none" stroke="#68717D" stroke-width="0.5" stroke-linecap="round" stroke-miterlimit="10" d="M32.1,49.1
			c-0.2,0.1-0.5,0.3-0.7,0.4"/>
		<path fill="none" stroke="#68717D" stroke-width="0.5" stroke-linecap="round" stroke-miterlimit="10" d="M52.6,55
			c-2.7-4.6-7.6-7.7-13.3-7.7c-1.7,0-3.3,0.3-4.9,0.8"/>
		<path fill="none" stroke="#68717D" stroke-width="0.5" stroke-linecap="round" stroke-miterlimit="10" d="M46.5,35.2
			c0,4-3.2,7.2-7.2,7.2c-3.2,0-5.8-2-6.8-4.9c-0.3-0.7-0.4-1.5-0.4-2.3c0-0.7,0.1-1.4,0.3-2c0.9-3,3.6-5.2,6.9-5.2
			C43.2,28,46.5,31.2,46.5,35.2z"/>
		<g>
			<circle fill="#DCE1E5" cx="60.2" cy="42.3" r="4.1"/>
			
				<circle fill="none" stroke="#68717D" stroke-width="0.5" stroke-linecap="round" stroke-miterlimit="10" cx="58.4" cy="40.6" r="4.1"/>
			<path fill="none" stroke="#68717D" stroke-width="0.5" stroke-linecap="round" stroke-miterlimit="10" d="M56.1,48
				c0.7-0.2,1.5-0.3,2.2-0.3c3.8,0,7.1,2.3,8.5,5.6"/>
		</g>
		<g>
			<circle fill="#DCE1E5" cx="23" cy="42.3" r="4.1"/>
			
				<circle fill="none" stroke="#68717D" stroke-width="0.5" stroke-linecap="round" stroke-miterlimit="10" cx="21.2" cy="40.6" r="4.1"/>
			<path fill="none" stroke="#68717D" stroke-width="0.5" stroke-linecap="round" stroke-miterlimit="10" d="M23.4,48
				c-0.7-0.2-1.5-0.3-2.2-0.3c-3.8,0-7.1,2.3-8.5,5.6"/>
		</g>
	</g>
	<g>
		<g>
			<path fill="none" stroke="#E84B55" stroke-width="0.5" stroke-linecap="round" stroke-miterlimit="10" d="M72,20.3l-1.2-9.5
				c-0.1-0.4-0.5-0.8-0.9-0.9l-9.5-1.2"/>
			<path fill="none" stroke="#E84B55" stroke-width="0.5" stroke-linecap="round" stroke-miterlimit="10" d="M19.1,73.2l-9.5-1.2
				c-0.4-0.1-0.8-0.5-0.9-0.9l-1.2-9.5"/>
		</g>
		<g>
			<path fill="none" stroke="#68717D" stroke-width="0.5" stroke-linecap="round" stroke-miterlimit="10" d="M60.4,73.2l9.5-1.2
				c0.4-0.1,0.8-0.5,0.9-0.9l1.2-9.5"/>
			<path fill="none" stroke="#68717D" stroke-width="0.5" stroke-linecap="round" stroke-miterlimit="10" d="M7.5,20.3l1.2-9.5
				c0.1-0.4,0.5-0.8,0.9-0.9l9.5-1.2"/>
		</g>
	</g>
</g>
</svg>
