<?xml version="1.0" encoding="utf-8"?>
<!-- Generator: Adobe Illustrator 22.0.1, SVG Export Plug-In . SVG Version: 6.00 Build 0)  -->
<svg version="1.1" id="Layer_1" xmlns="http://www.w3.org/2000/svg" xmlns:xlink="http://www.w3.org/1999/xlink" x="0px" y="0px"
	 viewBox="0 0 80 80" enable-background="new 0 0 80 80" xml:space="preserve">
<g id="Machine-Learning">
	<g>
		<path fill="#DCE1E5" d="M73.9,38.2l-1.6-1.6c-0.4-0.4-1-0.6-1.5-0.6h-2.6l0.1-1.9c0-0.7-0.3-1.4-0.8-1.8l-3-3v-0.8
			c0-1-0.5-1.9-1.3-2.5l-8.9-6.4c-0.4-0.3-1-0.5-1.5-0.5h-1.2c-0.6,0-1.2,0.3-1.7,0.7L48.6,21l-0.4-0.4l-1.9-1.9
			c-0.6-0.6-1.4-1-2.3-1h-3c-0.6,0-1.1,0.1-1.7,0.3l-11.4,3.8c-0.7,0.2-1.3,0.6-1.8,1.1l-2.2,2.2h-1.1c-0.5,0-1,0.2-1.4,0.6
			l-3.6,3.6h-0.4c-1.1,0-2.2,0.5-2.8,1.4l-5.1,7c-0.5,0.6-0.7,1.4-0.7,2.2v1.8c0,0.5,0.2,1,0.6,1.4l1.3,1.3c0.4,0.4,1,0.6,1.5,0.6
			h0.3v2.7c0,0.6,0.2,1.1,0.6,1.5l2.4,2.4c0.9,0.9,2.1,1.4,3.4,1.4h3.2h1.4c0,0,1,0,1,0.7s-0.1,2-0.1,2c0,1.3,1.1,2.4,2.4,2.4h12.6
			c1.3,0,2.5-0.5,3.4-1.4l1.6-1.6c0.5-0.5,0.8-1.3,0.8-2v-2.9c0-0.4-0.2-0.8-0.4-1.1l-1.5-1.5c0,0-0.5-1.2,1.1-1l4.3,0.6
			c2.4,0.3,4.1,2.4,4.1,4.8v3.2c0,0.8,0.3,1.6,0.9,2.1l1.7,1.7c0.6,0.6,1.5,1,2.3,1h6c0.7,0,1.3-0.3,1.8-0.7l2-2
			c0.4-0.4,0.8-1,0.7-1.6c-0.6-2.9,0.8-3.2,0.8-3.2h0.8c0.8,0,1.6-0.3,2.2-0.9l1.8-1.8c0.7-0.7,1.1-1.6,1.1-2.6v-6.8
			C74.8,39.7,74.5,38.8,73.9,38.2z M25.2,40.5c-0.6-2.1,0.7-4.2,2.8-4.8s4.2,0.7,4.8,2.8c0.6,2.1-0.7,4.2-2.8,4.8
			C27.9,43.8,25.7,42.6,25.2,40.5z M34.7,53.9c-2.2,0.6-4.5-0.7-5.1-2.9c-0.6-2.2,0.7-4.5,2.9-5.1c2.2-0.6,4.5,0.7,5.1,2.9
			S36.9,53.4,34.7,53.9z M40.1,39.3c-2.2,0.6-4.5-0.7-5.1-2.9c-0.6-2.2,0.7-4.5,2.9-5.1c2.2-0.6,4.5,0.7,5.1,2.9
			C43.6,36.5,42.3,38.7,40.1,39.3z M55.7,38.6c-2.1,0.6-4.2-0.7-4.8-2.8c-0.6-2.1,0.7-4.2,2.8-4.8c2.1-0.6,4.2,0.7,4.8,2.8
			C59.1,35.9,57.8,38.1,55.7,38.6z"/>
	</g>
	<g>
		<g>
			<g>
				<path fill="#68717D" d="M36.8,56.6H24.2c-1.5,0-2.6-1.2-2.6-2.6c0-0.1,0.1-0.2,0.2-0.2s0.2,0.1,0.2,0.2c0,1.2,1,2.1,2.1,2.1
					h12.6c1.2,0,2.4-0.5,3.2-1.3l1.6-1.6c0.5-0.5,0.8-1.1,0.8-1.8v-2.9c0-0.3-0.1-0.7-0.4-0.9l-2.8-2.8c-0.1-0.1-0.1-0.3,0-0.4
					s0.3-0.1,0.4,0l2.8,2.8c0.3,0.3,0.5,0.8,0.5,1.3v2.9c0,0.8-0.3,1.6-0.9,2.2l-1.6,1.6C39.4,56.1,38.1,56.6,36.8,56.6z"/>
			</g>
			<g>
				<path fill="#68717D" d="M31.1,50.2H15.6c-1.3,0-2.6-0.5-3.6-1.5l-2.4-2.4c-0.5-0.5-0.7-1.1-0.7-1.7c0-0.1,0.1-0.2,0.2-0.2
					s0.2,0.1,0.2,0.2c0,0.5,0.2,1,0.6,1.4l2.4,2.4c0.9,0.9,2,1.3,3.2,1.3h15.5c0.1,0,0.2,0.1,0.2,0.2S31.2,50.2,31.1,50.2z"/>
			</g>
			<g>
				<path fill="#68717D" d="M21.2,42.1H8.8c-0.6,0-1.3-0.3-1.7-0.7l-1.3-1.3c-0.4-0.4-0.6-1-0.6-1.6v-1.8c0-0.8,0.3-1.7,0.8-2.3
					l5.1-7c0.7-1,1.8-1.5,3-1.5h1.5c0.5,0,0.9,0.2,1.3,0.5l9.7,9.7c0.1,0.1,0.1,0.3,0,0.4s-0.3,0.1-0.4,0l-9.7-9.7
					c-0.2-0.2-0.6-0.4-0.9-0.4h-1.5c-1,0-2,0.5-2.6,1.3l-5.1,7c-0.4,0.6-0.7,1.3-0.7,2v1.8c0,0.5,0.2,0.9,0.5,1.2l1.3,1.3
					c0.4,0.4,0.9,0.6,1.4,0.6h12.4c0.1,0,0.2,0.1,0.2,0.2S21.4,42.1,21.2,42.1z"/>
			</g>
			<g>
				<path fill="#68717D" d="M30.2,29.9c-0.1,0-0.1,0-0.2-0.1l-7.1-7.1c-0.3-0.3-0.8-0.5-1.2-0.5h-2.3c-0.5,0-0.9,0.2-1.2,0.5
					l-3.6,3.6c-0.1,0.1-0.3,0.1-0.4,0s-0.1-0.3,0-0.4l3.6-3.6c0.4-0.4,1-0.6,1.6-0.6h2.3c0.6,0,1.1,0.2,1.6,0.6l7.1,7.1
					c0.1,0.1,0.1,0.3,0,0.4C30.3,29.9,30.2,29.9,30.2,29.9z"/>
			</g>
			<g>
				<path fill="#68717D" d="M46.8,61.4c-0.1,0-0.2-0.1-0.2-0.2V20.8c0-0.8-0.3-1.6-0.9-2.1l-2.9-2.9c-0.6-0.6-1.3-0.9-2.1-0.9h-3
					c-0.5,0-1.1,0.1-1.6,0.3c-0.1,0-0.3,0-0.3-0.2c0-0.1,0-0.3,0.2-0.3c0.6-0.2,1.2-0.3,1.8-0.3h3c0.9,0,1.8,0.4,2.5,1l2.9,2.9
					c0.7,0.7,1,1.5,1,2.5v40.4C47,61.3,46.9,61.4,46.8,61.4z"/>
			</g>
			<g>
				<path fill="none" stroke="#68717D" stroke-width="0.5" stroke-linecap="round" stroke-miterlimit="10" d="M29.9,16.9"/>
			</g>
			<g>
				<path fill="#68717D" d="M29.3,17.2c-0.1,0-0.2-0.1-0.2-0.2c0-0.1,0-0.3,0.2-0.3l0.1,0c0.1,0,0.3,0,0.3,0.2c0,0.1,0,0.3-0.2,0.3
					L29.3,17.2C29.4,17.2,29.3,17.2,29.3,17.2z"/>
			</g>
			<g>
				<path fill="#68717D" d="M22.8,20.1c-0.1,0-0.1,0-0.2-0.1c-0.1-0.1-0.1-0.3,0-0.4c0.5-0.5,1.2-0.9,1.9-1.2l2-0.7
					c0.1,0,0.3,0,0.3,0.2c0,0.1,0,0.3-0.2,0.3l-2,0.7c-0.6,0.2-1.2,0.6-1.7,1C22.9,20,22.8,20.1,22.8,20.1z"/>
			</g>
			<g>
				<path fill="#68717D" d="M39,33.2c-0.1,0-0.2-0.1-0.2-0.2v-5.7c0-0.8-0.3-1.6-0.9-2.1l-5.8-5.8c-0.1-0.1-0.1-0.3,0-0.4
					s0.3-0.1,0.4,0l5.8,5.8c0.7,0.7,1,1.6,1,2.5v5.7C39.3,33.1,39.2,33.2,39,33.2z"/>
			</g>
			<g>
				<path fill="#68717D" d="M57.6,31.7c-0.1,0-0.1,0-0.2-0.1c-0.1-0.1-0.1-0.3,0-0.4l2.7-2.7c0.5-0.5,0.8-1.1,0.8-1.8v-1.4
					c0-0.9-0.4-1.8-1.2-2.3l-9-6.4c-0.4-0.3-0.9-0.4-1.4-0.4h-1.2c-0.6,0-1.1,0.2-1.5,0.6l-1.3,1.3c-0.1,0.1-0.3,0.1-0.4,0
					c-0.1-0.1-0.1-0.3,0-0.4l1.3-1.3c0.5-0.5,1.2-0.8,1.9-0.8h1.2c0.6,0,1.2,0.2,1.7,0.5l9,6.4c0.9,0.6,1.4,1.6,1.4,2.7v1.4
					c0,0.8-0.3,1.6-0.9,2.2l-2.7,2.7C57.7,31.7,57.7,31.7,57.6,31.7z"/>
			</g>
			<g>
				<path fill="#68717D" d="M59,40.2c-0.1,0-0.1,0-0.2-0.1c-0.1-0.1-0.1-0.3,0-0.4l5.1-5.1c0.5-0.5,0.8-1.1,0.8-1.8v-1.8
					c0-0.6-0.2-1.2-0.7-1.7l-1.1-1.1c-0.1-0.1-0.1-0.3,0-0.4s0.3-0.1,0.4,0l1.1,1.1c0.5,0.5,0.8,1.3,0.8,2v1.8
					c0,0.8-0.3,1.6-0.9,2.2l-5.1,5.1C59.2,40.2,59.1,40.2,59,40.2z"/>
			</g>
			<g>
				<path fill="#68717D" d="M66.5,49.8h-1.9c-0.9,0-1.7-0.4-2.3-1L61.5,48c-0.2-0.2-0.3-0.5-0.3-0.8c0-0.3,0.1-0.6,0.3-0.8l2.2-2.2
					c0.1-0.1,0.3-0.1,0.4,0s0.1,0.3,0,0.4l-2.2,2.2c-0.1,0.1-0.2,0.3-0.2,0.4s0.1,0.3,0.2,0.4l0.8,0.8c0.5,0.5,1.2,0.8,2,0.8h1.9
					c0.7,0,1.5-0.3,2-0.8l1.8-1.8c0.7-0.7,1-1.5,1-2.4v-6.8c0-0.8-0.3-1.6-0.9-2.1l-1.6-1.6c-0.4-0.4-0.8-0.6-1.4-0.6
					c-0.1,0-0.2-0.1-0.2-0.2s0.1-0.2,0.2-0.2c0.7,0,1.3,0.3,1.7,0.7l1.6,1.6c0.7,0.7,1,1.5,1,2.5v6.8c0,1.1-0.4,2.1-1.2,2.8
					l-1.8,1.8C68.2,49.5,67.4,49.8,66.5,49.8z"/>
			</g>
			<g>
				<path fill="#68717D" d="M60.7,57.3h-6.8c-0.6,0-1.1-0.2-1.5-0.6c-0.1-0.1-0.1-0.3,0-0.4s0.3-0.1,0.4,0c0.3,0.3,0.8,0.5,1.2,0.5
					h6.8c0.5,0,0.9-0.2,1.2-0.5l2.2-2.2c0.3-0.3,0.5-0.7,0.5-1.2v-3.3c0-0.1,0.1-0.2,0.2-0.2s0.2,0.1,0.2,0.2v3.3
					c0,0.6-0.2,1.1-0.6,1.5l-2.2,2.2C61.8,57.1,61.3,57.3,60.7,57.3z"/>
			</g>
			<g>
				<path fill="#68717D" d="M39,38c-0.9,0-1.8-0.5-2.2-1.3c-0.1-0.1,0-0.3,0.1-0.3c0.1-0.1,0.3,0,0.3,0.1c0.4,0.6,1.1,1,1.8,1
					c1.2,0,2.1-1,2.1-2.1c0-1.2-1-2.1-2.1-2.1c-0.6,0-1.2,0.3-1.6,0.7c-0.1,0.1-0.2,0.1-0.4,0c-0.1-0.1-0.1-0.2,0-0.4
					c0.5-0.6,1.2-0.9,2-0.9c1.5,0,2.6,1.2,2.6,2.6S40.5,38,39,38z"/>
			</g>
			<g>
				<path fill="#68717D" d="M33.6,52.5c-1.5,0-2.6-1.2-2.6-2.6s1.2-2.6,2.6-2.6c0.8,0,1.5,0.3,2,0.9c0.1,0.1,0.1,0.3,0,0.4
					c-0.1,0.1-0.3,0.1-0.4,0c-0.4-0.5-1-0.8-1.6-0.8c-1.2,0-2.1,1-2.1,2.1s1,2.1,2.1,2.1s2.1-1,2.1-2.1c0-0.1,0.1-0.2,0.2-0.2
					s0.2,0.1,0.2,0.2C36.2,51.3,35,52.5,33.6,52.5z"/>
			</g>
		</g>
		<g>
			<circle fill="#E84B55" cx="29" cy="39.3" r="1.3"/>
		</g>
		<g>
			<circle fill="#E84B55" cx="46.6" cy="64.3" r="1.3"/>
		</g>
		<g>
			<circle fill="#E84B55" cx="54.6" cy="34.6" r="1.3"/>
		</g>
	</g>
</g>
</svg>
