<?xml version="1.0" encoding="utf-8"?>
<!-- Generator: Adobe Illustrator 22.0.1, SVG Export Plug-In . SVG Version: 6.00 Build 0)  -->
<svg version="1.1" id="Layer_1" xmlns="http://www.w3.org/2000/svg" xmlns:xlink="http://www.w3.org/1999/xlink" x="0px" y="0px"
	 viewBox="0 0 80 80" enable-background="new 0 0 80 80" xml:space="preserve">
<g>
	<g>
		<path fill="#DCE1E5" d="M55.1,28.6c0,5.6-4.5,10.1-10.1,10.1c-4.4,0-8.2-2.9-9.6-6.8c-0.4-1-0.5-2.1-0.5-3.3c0-1,0.1-2,0.4-2.9
			c1.2-4.2,5.1-7.2,9.7-7.2C50.5,18.5,55.1,23,55.1,28.6z"/>
	</g>
	<g>
		<g>
			<path fill="#67717C" d="M22.1,44.7c-0.2,0-0.3-0.1-0.4-0.3c0-0.2,0.1-0.4,0.3-0.4l8-1.6c0.2,0,0.4,0.1,0.4,0.3
				c0,0.2-0.1,0.4-0.3,0.4L22.1,44.7C22.2,44.7,22.2,44.7,22.1,44.7z"/>
		</g>
		<g>
			<path fill="#67717C" d="M57,44.4C57,44.4,57,44.4,57,44.4l-6.4-1.3c-0.2,0-0.3-0.2-0.3-0.4c0-0.2,0.2-0.3,0.4-0.3l6.3,1.3
				c0.2,0,0.3,0.2,0.3,0.4C57.3,44.3,57.2,44.4,57,44.4z"/>
		</g>
	</g>
	<g>
		<path fill="#67717C" d="M40.4,49.1c-1.1,0-2.2-0.6-2.8-1.5c-0.1-0.2-0.1-0.4,0.1-0.5c0.2-0.1,0.4-0.1,0.5,0.1
			c0.5,0.7,1.3,1.2,2.2,1.2c0.9,0,1.7-0.5,2.2-1.3c0.1-0.2,0.3-0.2,0.5-0.1c0.2,0.1,0.2,0.3,0.1,0.5C42.6,48.5,41.6,49.1,40.4,49.1z
			"/>
	</g>
	<g>
		<g>
			<g>
				<g>
					<path fill="#67717C" d="M36.4,48.9c-0.3,0-0.6-0.1-0.8-0.3l-5.2-5.2c-0.4-0.4-0.4-1.1,0-1.6h0l3-3c0.2-0.2,0.5-0.3,0.8-0.3
						c0,0,0,0,0,0c0.3,0,0.6,0.1,0.8,0.3l5.2,5.2c0.4,0.4,0.4,1.1,0,1.6l-3,3C37,48.8,36.7,48.9,36.4,48.9z M30.9,42.3
						c-0.1,0.1-0.1,0.4,0,0.5l5.2,5.2c0.1,0.1,0.4,0.1,0.5,0l3-3c0.1-0.1,0.1-0.4,0-0.5l-5.2-5.2c-0.1-0.1-0.2-0.1-0.3-0.1
						c0,0,0,0,0,0c-0.1,0-0.2,0-0.3,0.1L30.9,42.3z"/>
				</g>
			</g>
		</g>
	</g>
	<g>
		<g>
			<g>
				<g>
					<path fill="#67717C" d="M44.4,48.9c-0.3,0-0.6-0.1-0.8-0.3l-3-3c-0.2-0.2-0.3-0.5-0.3-0.8c0-0.3,0.1-0.6,0.3-0.8l5.2-5.2
						c0.4-0.4,1.1-0.4,1.6,0l3,3c0.4,0.4,0.4,1.1,0,1.6l-5.2,5.2C45,48.8,44.7,48.9,44.4,48.9z M46.6,39.2c-0.1,0-0.2,0-0.3,0.1
						l-5.2,5.2c-0.1,0.1-0.1,0.4,0,0.5l3,3c0.1,0.1,0.4,0.1,0.5,0l5.2-5.2c0.1-0.1,0.1-0.4,0-0.5l-3-3
						C46.8,39.2,46.7,39.2,46.6,39.2z"/>
				</g>
			</g>
		</g>
	</g>
	<g>
		<path fill="#E84B54" d="M40.4,49.8l-3.1,4c-0.1,0.1-0.1,0.2-0.1,0.2l1.2,6.8c0,0.1,0.1,0.2,0.3,0.2h3.7c0.1,0,0.3-0.1,0.3-0.2
			l1.2-6.8c0-0.1,0-0.2-0.1-0.2l-3.1-4C40.7,49.6,40.5,49.6,40.4,49.8z"/>
	</g>
	<g>
		<path fill="#67717C" d="M40.7,35.6c-4.5,0-8.5-2.8-9.9-7.1c-0.4-1.1-0.6-2.2-0.6-3.4c0-1,0.1-2,0.4-3c1.3-4.4,5.4-7.5,10.1-7.5
			c5.8,0,10.5,4.7,10.5,10.5S46.4,35.6,40.7,35.6z M40.7,15.4c-4.3,0-8.1,2.9-9.4,7c-0.3,0.9-0.4,1.8-0.4,2.8c0,1.1,0.2,2.2,0.5,3.2
			c1.4,3.9,5.1,6.6,9.2,6.6c5.4,0,9.8-4.4,9.8-9.8S46,15.4,40.7,15.4z"/>
	</g>
</g>
<g>
	<g>
		<g>
			<path fill="#DCE1E5" d="M69.8,27.6c0.4,0.8,0.7,1.8,0.7,2.8c0,3.3-2.7,6-6,6c-0.9,0-1.8-0.2-2.6-0.6c1,1.9,3,3.2,5.3,3.2
				c3.3,0,6-2.7,6-6C73.3,30.6,71.8,28.5,69.8,27.6z"/>
		</g>
		<g>
			<path fill="#67717C" d="M64.5,36.7c-3.5,0-6.4-2.9-6.4-6.4S61,24,64.5,24c3.5,0,6.4,2.9,6.4,6.4S68,36.7,64.5,36.7z M64.5,24.7
				c-3.1,0-5.7,2.5-5.7,5.7s2.5,5.7,5.7,5.7s5.7-2.5,5.7-5.7S67.6,24.7,64.5,24.7z"/>
		</g>
		<g>
			<path fill="#67717C" d="M77,49.5c-0.1,0-0.3-0.1-0.3-0.2c-2.1-4.9-6.8-8-12.1-8c-1.1,0-2.2,0.1-3.2,0.4c-0.2,0.1-0.4-0.1-0.4-0.3
				c0-0.2,0.1-0.4,0.3-0.4c1.1-0.3,2.2-0.4,3.4-0.4c5.6,0,10.6,3.3,12.8,8.5c0.1,0.2,0,0.4-0.2,0.5C77.1,49.5,77,49.5,77,49.5z"/>
		</g>
	</g>
	<g>
		<g>
			<path fill="#DCE1E5" d="M19.1,27.6c0.4,0.8,0.7,1.8,0.7,2.8c0,3.3-2.7,6-6,6c-0.9,0-1.8-0.2-2.6-0.6c1,1.9,3,3.2,5.3,3.2
				c3.3,0,6-2.7,6-6C22.6,30.6,21.1,28.5,19.1,27.6z"/>
		</g>
		<g>
			<path fill="#67717C" d="M13.8,36.7c-3.5,0-6.4-2.9-6.4-6.4s2.9-6.4,6.4-6.4s6.4,2.9,6.4,6.4S17.3,36.7,13.8,36.7z M13.8,24.7
				c-3.1,0-5.7,2.5-5.7,5.7s2.5,5.7,5.7,5.7s5.7-2.5,5.7-5.7S16.9,24.7,13.8,24.7z"/>
		</g>
		<g>
			<path fill="#67717C" d="M3.1,49.5c0,0-0.1,0-0.1,0c-0.2-0.1-0.3-0.3-0.2-0.5c2.2-5.2,7.2-8.5,12.8-8.5c1.1,0,2.3,0.1,3.4,0.4
				c0.2,0,0.3,0.2,0.3,0.4c0,0.2-0.2,0.3-0.4,0.3c-1-0.3-2.1-0.4-3.2-0.4c-5.3,0-10.1,3.2-12.1,8C3.4,49.4,3.3,49.5,3.1,49.5z"/>
		</g>
	</g>
</g>
<g>
	<path fill="#67717C" d="M64.2,43.3l-1.7,2.2c0,0,0,0.1,0,0.1l0.7,3.8c0,0.1,0.1,0.1,0.2,0.1h2.1c0.1,0,0.1-0.1,0.2-0.1l0.7-3.8
		c0,0,0-0.1,0-0.1l-1.7-2.2C64.4,43.3,64.3,43.3,64.2,43.3z"/>
</g>
<g>
	<path fill="#67717C" d="M15,43.3l-1.7,2.2c0,0,0,0.1,0,0.1l0.7,3.8c0,0.1,0.1,0.1,0.2,0.1h2.1c0.1,0,0.1-0.1,0.2-0.1l0.7-3.8
		c0,0,0-0.1,0-0.1l-1.7-2.2C15.2,43.3,15.1,43.3,15,43.3z"/>
</g>
</svg>
