<?xml version="1.0" encoding="utf-8"?>
<!-- Generator: Adobe Illustrator 22.0.1, SVG Export Plug-In . SVG Version: 6.00 Build 0)  -->
<svg version="1.1" id="Layer_1" xmlns="http://www.w3.org/2000/svg" xmlns:xlink="http://www.w3.org/1999/xlink" x="0px" y="0px"
	 viewBox="0 0 80 80" enable-background="new 0 0 80 80" xml:space="preserve">
<g id="Shared_x5F_IP">
	<g>
		<g>
			<path fill="#DCE1E5" d="M44.7,56.3"/>
		</g>
		<g>
			<path fill="#DCE1E5" d="M58.2,52.7c0.7,1.1,0.6,2.5-0.3,3.4l-0.5,0.5c-0.9,0.9-2.1,1-3.2,0.5l-0.7-0.5c1.1,1.1,1.1,2.8,0,3.8
				l-0.3,0.3c-0.9,0.9-2.2,1-3.2,0.5l-0.6-0.5c1.1,1.1,1.1,2.8,0,3.8l-0.2,0.2c-1.1,1.1-2.8,1.1-3.8,0l-2.5-2.5l-0.4,0.2
				c-1.1,1.1-2.8,1.1-3.8,0l-0.2-0.2c-1.1-1.1-1.1-2.8,0-3.8c-1.1,1-2.8,1-3.8,0l-0.2-0.2c-1.1-1.1-1.1-2.8,0-3.8l-0.7,0.5
				c-1,0.5-2.3,0.4-3.2-0.5l-0.2-0.2c-0.8-0.8-1-2-0.6-3l0.5-0.8c-1.1,1.1-2.8,1.1-3.8,0L26.1,50c-1.1-1.1-1.1-2.8,0-3.8l0.3-0.3
				l-3-8.7c-0.2-0.6-0.5-1.1-0.9-1.6l-3.9-3.9L17,29.9c-0.6,0.6-1.7,0.6-2.3,0L13,28.2c-0.6-0.6-0.6-1.7,0-2.3l10.6-10.6
				c0.6-0.6,1.7-0.6,2.3,0l1.7,1.7l2.1,3.6l3.9,3.9c0.4,0.4,1,0.7,1.6,0.8l9.3,2.8l1.5-0.4l6.8-2.1c0.4-0.1,0.8-0.4,1.1-0.7l2.8-2.8
				l2.3-1.8c-0.6-0.6-0.6-1.7,0-2.3l1.7-1.7c0.6-0.6,1.7-0.6,2.3,0L73.6,27c0.6,0.6,0.6,1.7,0,2.3L71.9,31L67.7,33l-3,3
				c-0.4,0.4-0.7,1-0.8,1.6l-2.5,8.9l1.2,1.2c1.1,1.1,1.1,2.8,0,3.8l-0.8,0.8c-0.7,0.7-1.6,0.9-2.4,0.7L58.2,52.7"/>
		</g>
	</g>
	<g>
		<path fill="#FFFFFF" d="M19.7,45.2l-2.1-5.8l-0.9-2.7L16,35.4l-5.9-6.1l10.6-10.6l2.1,1.3l4,4l10.3,3.5l0.2,0.4l-6,6
			c0,0-1.6,1.3-0.3,3.4s3.4,2.2,4.6,0.9c1.2-1.3,3.8-3.6,3.8-3.6s1.6-1.8,3.8,0l12.5,12.6c0,0,1.2,1.8,0.2,3.2
			c-1,1.4-2.4,2.9-4.3,1.8c0,0,0.3,2.4-0.8,3.3s-2.4,1.7-3.5,1c0,0,0.2,1.7-0.4,2.7c-0.5,1-2.1,2-3.8,1.4c0,0,0.3,2.1-0.5,2.9
			c-0.8,0.8-2.1,1.8-3.6,1.1s-3.3-3-3.3-3L19.7,45.2z"/>
	</g>
	<g>
		<g>
			<path fill="#DCE1E5" d="M26.3,46.6l-3.7,3.7c-0.7,0.7-1.8,0.7-2.5,0l-1.6-1.6c-0.7-0.7-0.7-1.8,0-2.5l3.7-3.7
				c0.7-0.7,1.8-0.7,2.5,0l1.6,1.6C27,44.8,27,46,26.3,46.6z"/>
			<path fill="#67717C" d="M21.4,51.1c-0.5,0-1-0.2-1.4-0.6l-1.6-1.6c-0.8-0.8-0.8-2.1,0-2.8l3.7-3.7c0.8-0.8,2.1-0.8,2.8,0l1.6,1.6
				c0.8,0.8,0.8,2.1,0,2.8l-3.7,3.7C22.4,50.9,21.9,51.1,21.4,51.1z M23.4,42.3c-0.4,0-0.8,0.2-1.1,0.4l-3.7,3.7
				c-0.6,0.6-0.6,1.5,0,2.1l1.6,1.6c0.6,0.6,1.5,0.6,2.1,0l3.7-3.7c0.6-0.6,0.6-1.5,0-2.1l-1.6-1.6C24.2,42.5,23.8,42.3,23.4,42.3z
				 M26.3,46.6L26.3,46.6L26.3,46.6z"/>
		</g>
		<g>
			<path fill="#DCE1E5" d="M30.3,50.7l-3.7,3.7c-0.7,0.7-1.8,0.7-2.5,0l-1.6-1.6c-0.7-0.7-0.7-1.8,0-2.5l3.7-3.7
				c0.7-0.7,1.8-0.7,2.5,0l1.6,1.6C31,48.9,31,50,30.3,50.7z"/>
			<path fill="#67717C" d="M25.4,55.1c-0.5,0-1-0.2-1.4-0.6L22.4,53c-0.8-0.8-0.8-2.1,0-2.8l3.7-3.7c0.8-0.8,2.1-0.8,2.8,0l1.6,1.6
				c0.4,0.4,0.6,0.9,0.6,1.4c0,0.5-0.2,1-0.6,1.4l-3.7,3.7C26.5,54.9,26,55.1,25.4,55.1z M27.5,46.4c-0.4,0-0.8,0.1-1.1,0.4
				l-3.7,3.7c-0.6,0.6-0.6,1.5,0,2.1l1.6,1.6c0.6,0.6,1.6,0.6,2.1,0l3.7-3.7c0.3-0.3,0.4-0.7,0.4-1.1c0-0.4-0.2-0.8-0.4-1.1
				l-1.6-1.6C28.3,46.5,27.9,46.4,27.5,46.4z"/>
		</g>
		<g>
			<path fill="#DCE1E5" d="M34.4,54.8l-3.7,3.7c-0.7,0.7-1.8,0.7-2.5,0l-1.6-1.6c-0.7-0.7-0.7-1.8,0-2.5l3.7-3.7
				c0.7-0.7,1.8-0.7,2.5,0l1.6,1.6C35.1,53,35.1,54.1,34.4,54.8z"/>
			<path fill="#67717C" d="M29.5,59.2c-0.5,0-1-0.2-1.4-0.6L26.5,57c-0.8-0.8-0.8-2.1,0-2.8l3.7-3.7c0.8-0.8,2.1-0.8,2.8,0l1.6,1.6
				c0.8,0.8,0.8,2.1,0,2.8l-3.7,3.7C30.5,59,30,59.2,29.5,59.2z M31.6,50.4c-0.4,0-0.8,0.2-1.1,0.4l-3.7,3.7c-0.6,0.6-0.6,1.5,0,2.1
				l1.6,1.6c0.6,0.6,1.5,0.6,2.1,0l3.7-3.7c0.6-0.6,0.6-1.5,0-2.1l-1.6-1.6C32.3,50.6,32,50.4,31.6,50.4z M34.4,54.8L34.4,54.8
				L34.4,54.8z"/>
		</g>
		<g>
			<path fill="#DCE1E5" d="M38.5,58.8l-3.7,3.7c-0.7,0.7-1.8,0.7-2.5,0l-1.6-1.6c-0.7-0.7-0.7-1.8,0-2.5l3.7-3.7
				c0.7-0.7,1.8-0.7,2.5,0l1.6,1.6C39.1,57,39.1,58.1,38.5,58.8z"/>
			<path fill="#67717C" d="M33.6,63.2c-0.5,0-1-0.2-1.4-0.6l-1.6-1.6c-0.8-0.8-0.8-2.1,0-2.8l3.7-3.7c0.8-0.8,2.1-0.8,2.8,0l1.6,1.6
				c0.8,0.8,0.8,2.1,0,2.8L35,62.7C34.6,63.1,34.1,63.2,33.6,63.2z M35.6,54.5c-0.4,0-0.8,0.2-1.1,0.4l-3.7,3.7
				c-0.6,0.6-0.6,1.5,0,2.1l1.6,1.6c0.6,0.6,1.5,0.6,2.1,0l3.7-3.7c0.6-0.6,0.6-1.5,0-2.1l-1.6-1.6C36.4,54.7,36,54.5,35.6,54.5z
				 M38.5,58.8L38.5,58.8L38.5,58.8z"/>
		</g>
		<g>
			<path fill="#67717C" d="M40.4,65.2c-0.8,0-1.5-0.3-2.1-0.9l-2.5-2.5c-0.1-0.1-0.1-0.3,0-0.4s0.3-0.1,0.4,0l2.5,2.5
				c1,1,2.5,1,3.5,0l0.2-0.2c0.5-0.5,0.7-1.1,0.7-1.7s-0.3-1.3-0.7-1.7L40.1,58c-0.1-0.1-0.1-0.3,0-0.4c0.1-0.1,0.3-0.1,0.4,0
				l2.3,2.3c0.6,0.6,0.9,1.3,0.9,2.1s-0.3,1.5-0.9,2.1l-0.2,0.2C41.9,64.9,41.1,65.2,40.4,65.2z"/>
		</g>
		<g>
			<path fill="#67717C" d="M44.5,61.1c-0.8,0-1.5-0.3-2.1-0.9L40.1,58c-0.1-0.1-0.1-0.3,0-0.4s0.3-0.1,0.4,0l2.3,2.3
				c1,1,2.5,1,3.5,0l0.3-0.3c0.5-0.5,0.7-1.1,0.7-1.7s-0.3-1.3-0.7-1.7c-0.1-0.1-0.1-0.3,0-0.4c0.1-0.1,0.3-0.1,0.4,0
				c0.6,0.6,0.9,1.3,0.9,2.1s-0.3,1.5-0.9,2.1l-0.3,0.3C46,60.8,45.2,61.1,44.5,61.1z"/>
		</g>
		<g>
			<path fill="#67717C" d="M48.6,57c-0.8,0-1.5-0.3-2.1-0.9L40,49.6c-0.1-0.1-0.1-0.3,0-0.4s0.3-0.1,0.4,0l6.5,6.5
				c0.5,0.5,1.1,0.7,1.7,0.7s1.3-0.3,1.7-0.7l0.5-0.5c1-1,1-2.5,0-3.5c-0.1-0.1-0.1-0.3,0-0.4s0.3-0.1,0.4,0c1.2,1.2,1.2,3,0,4.2
				l-0.5,0.5C50.1,56.7,49.4,57,48.6,57z"/>
		</g>
		<g>
			<path fill="#67717C" d="M52.9,52.7c-0.8,0-1.5-0.3-2.1-0.9l-9.2-9.2c-0.1-0.1-0.1-0.3,0-0.4s0.3-0.1,0.4,0l9.2,9.2
				c1,1,2.5,1,3.5,0l0.8-0.8c0.5-0.5,0.7-1.1,0.7-1.7s-0.3-1.3-0.7-1.7L43.1,34.8c-1-1-2.5-1-3.5,0L39.4,35c-0.1,0.1-0.3,0.1-0.4,0
				c-0.1-0.1-0.1-0.3,0-0.4l0.2-0.2c1.2-1.2,3-1.2,4.2,0l12.4,12.4c0.6,0.6,0.9,1.3,0.9,2.1s-0.3,1.5-0.9,2.1L55,51.8
				C54.4,52.4,53.7,52.7,52.9,52.7z"/>
		</g>
		<g>
			<path fill="#67717C" d="M37.7,27.7C37.7,27.7,37.6,27.7,37.7,27.7l-9.4-2.8c-0.6-0.1-1.2-0.4-1.7-0.8l-3.9-3.9
				c-0.1-0.1-0.1-0.3,0-0.4s0.3-0.1,0.4,0l3.9,3.9c0.4,0.4,0.9,0.6,1.4,0.7l9.4,2.8c0.1,0,0.2,0.2,0.2,0.3
				C37.9,27.6,37.8,27.7,37.7,27.7z"/>
		</g>
		<g>
			<path fill="#67717C" d="M16.6,36.8c-0.1,0-0.2-0.1-0.2-0.2c-0.2-0.6-0.5-1.1-0.9-1.5l-3.9-3.9c-0.1-0.1-0.1-0.3,0-0.4
				s0.3-0.1,0.4,0l3.9,3.9c0.5,0.5,0.8,1.1,1,1.7C16.9,36.6,16.8,36.8,16.6,36.8C16.6,36.8,16.6,36.8,16.6,36.8z"/>
		</g>
		<g>
			<path fill="#67717C" d="M17.8,40.5c-0.1,0-0.2-0.1-0.2-0.2l-0.3-0.9c0-0.1,0-0.3,0.2-0.3c0.1,0,0.3,0,0.3,0.2l0.3,0.9
				C18.1,40.3,18,40.4,17.8,40.5C17.9,40.5,17.9,40.5,17.8,40.5z"/>
		</g>
		<g>
			<path fill="#67717C" d="M19.5,45.5c-0.1,0-0.2-0.1-0.2-0.2L18.5,43c0-0.1,0-0.3,0.2-0.3c0.1,0,0.3,0,0.3,0.2l0.8,2.3
				C19.8,45.3,19.8,45.4,19.5,45.5C19.6,45.5,19.6,45.5,19.5,45.5z"/>
		</g>
		<g>
			<path fill="#67717C" d="M54.5,46.1C54.5,46.1,54.5,46.1,54.5,46.1c-0.2,0-0.3-0.2-0.2-0.3l2.5-8.9c0.1-0.6,0.4-1.2,0.9-1.7l3-3
				c0.1-0.1,0.3-0.1,0.4,0s0.1,0.3,0,0.4l-3,3c-0.4,0.4-0.7,0.9-0.8,1.4l-2.5,8.9C54.7,46,54.6,46.1,54.5,46.1z"/>
		</g>
		<g>
			<path fill="#67717C" d="M33.9,39.3c-0.8,0-1.5-0.3-2.1-0.9l-0.6-0.6c-0.6-0.6-0.9-1.3-0.9-2.1s0.3-1.5,0.9-2.1l5.7-5.7
				c0.6-0.6,1.4-1,2.3-1.2l6.8-2.1c0.4-0.1,0.7-0.3,1-0.6l2.8-2.8c0.1-0.1,0.3-0.1,0.4,0s0.1,0.3,0,0.4l-2.8,2.8
				c-0.3,0.3-0.8,0.6-1.2,0.7l-6.8,2.1c-0.8,0.1-1.5,0.5-2,1L31.5,34c-0.5,0.5-0.7,1.1-0.7,1.7s0.3,1.3,0.7,1.7l0.6,0.6
				c1,1,2.5,1,3.5,0l3.9-3.9c0.1-0.1,0.3-0.1,0.4,0s0.1,0.3,0,0.4L36,38.4C35.4,39,34.6,39.3,33.9,39.3z"/>
		</g>
		<g>
			<path fill="#FFFFFF" d="M66.7,26.4c0.6,0.6,0.6,1.7,0,2.3l-1.7,1.7c-0.6,0.6-1.7,0.6-2.3,0L52.2,19.7c-0.6-0.6-0.6-1.7,0-2.3
				l1.7-1.7c0.6-0.6,1.7-0.6,2.3,0"/>
			<path fill="#E84B54" d="M63.9,31.1c-0.5,0-1-0.2-1.3-0.5L52,19.9c-0.4-0.4-0.5-0.8-0.5-1.3c0-0.5,0.2-1,0.5-1.3l1.7-1.7
				c0.7-0.7,1.9-0.7,2.6,0c0.1,0.1,0.1,0.3,0,0.4c-0.1,0.1-0.3,0.1-0.4,0c-0.5-0.5-1.4-0.5-1.9,0l-1.7,1.7c-0.3,0.3-0.4,0.6-0.4,1
				c0,0.4,0.1,0.7,0.4,1l10.6,10.6c0.5,0.5,1.4,0.5,1.9,0l1.7-1.7c0.5-0.5,0.5-1.4,0-1.9c-0.1-0.1-0.1-0.3,0-0.4
				c0.1-0.1,0.3-0.1,0.4,0c0.7,0.7,0.7,1.9,0,2.6l-1.7,1.7C64.9,30.9,64.4,31.1,63.9,31.1z"/>
		</g>
		<g>
			<path fill="#E84B54" d="M9,30c-0.5,0-1-0.2-1.3-0.5L6,27.7c-0.1-0.1-0.1-0.3,0-0.4s0.3-0.1,0.4,0L8,29.1c0.5,0.5,1.4,0.5,1.9,0
				l10.6-10.6c0.5-0.5,0.5-1.4,0-1.9l-1.7-1.7c-0.1-0.1-0.1-0.3,0-0.4s0.3-0.1,0.4,0l1.7,1.7c0.7,0.7,0.7,1.9,0,2.6L10.3,29.4
				C9.9,29.8,9.5,30,9,30z"/>
		</g>
	</g>
</g>
</svg>
