<?xml version="1.0" encoding="utf-8"?>
<!-- Generator: Adobe Illustrator 22.0.1, SVG Export Plug-In . SVG Version: 6.00 Build 0)  -->
<svg version="1.1" id="Layer_1" xmlns="http://www.w3.org/2000/svg" xmlns:xlink="http://www.w3.org/1999/xlink" x="0px" y="0px"
	 viewBox="0 0 80 80" enable-background="new 0 0 80 80" xml:space="preserve">
<g>
	<g id="progress_2_">
		<g>
			<path fill="#DCE1E5" d="M70.1,24.1L32.2,24c-3.6,0-6.6,2.9-6.6,6.6l0,16.9L69,47.6l0,1.1c0,3.6-3,6.6-6.6,6.6l-36.8-0.1
				c0.2,3.5,3,6.3,6.6,6.3L70,61.6c3.6,0,6.6-2.9,6.6-6.6l0.1-24.3C76.7,27.1,73.7,24.1,70.1,24.1z"/>
		</g>
		<g>
			<path fill="#67717C" d="M17.9,32L17.9,32c-0.1,0-0.3-0.1-0.2-0.3l0-1.1c0-0.1,0.1-0.2,0.2-0.2h0c0.1,0,0.2,0.1,0.2,0.3l0,1.1
				C18.2,31.9,18.1,32,17.9,32z"/>
		</g>
		<g>
			<path fill="#67717C" d="M62.4,55.4C62.4,55.4,62.4,55.4,62.4,55.4l-37.9-0.1c-1.8,0-3.5-0.7-4.8-2c-1.3-1.3-2-3-2-4.9l0-11.4
				c0-0.1,0.1-0.2,0.2-0.2h0c0.1,0,0.2,0.1,0.2,0.3l0,11.5c0,1.7,0.7,3.3,1.8,4.5c1.2,1.2,2.8,1.9,4.5,1.9l37.9,0.1c0,0,0,0,0,0
				c3.5,0,6.3-2.8,6.4-6.3l0.1-24.3c0-1.7-0.7-3.3-1.8-4.5s-2.8-1.9-4.5-1.9l-37.9-0.1c0,0,0,0,0,0c-3.5,0-6.3,2.8-6.4,6.3
				c0,0.1-0.1,0.2-0.2,0.2h0c-0.1,0-0.2-0.1-0.2-0.3c0-3.8,3.1-6.8,6.9-6.8c0,0,0,0,0,0l37.9,0.1c1.8,0,3.5,0.7,4.8,2s2,3,2,4.9
				l-0.1,24.3C69.2,52.3,66.2,55.4,62.4,55.4z"/>
		</g>
		<g>
			<path fill="#67717C" d="M50.2,62.7C50.2,62.7,50.2,62.7,50.2,62.7l-13.6,0c-0.1,0-0.2-0.1-0.2-0.3c0-0.1,0.1-0.2,0.2-0.2h0
				l13.6,0c0.1,0,0.2,0.1,0.2,0.3C50.5,62.6,50.3,62.7,50.2,62.7z"/>
		</g>
		<g>
			
				<rect x="43.2" y="21.4" transform="matrix(2.675959e-03 -1 1 2.675959e-03 -3.5965 90.2376)" fill="#67717C" width="0.5" height="51.1"/>
		</g>
	</g>
	<g>
		<g>
			<path fill="#DCE1E5" d="M24.8,62.7l-16.1,0c-0.9,0-1.6-0.7-1.6-1.6l0-16.7l0-2.5l0-2l0-4.5c0-0.9,0.7-1.6,1.6-1.6l16.1,0
				c0.9,0,1.6,0.7,1.6,1.6l0,25.8C26.4,61.9,25.7,62.7,24.8,62.7z"/>
		</g>
		<g>
			<path fill="#FFFFFF" d="M3.6,37.2l0-5.8c0-0.9,0.7-1.6,1.6-1.6l16.1,0c0.9,0,1.6,0.7,1.6,1.6l0,19.9l-19.3,0l0-3.2"/>
		</g>
		<g>
			<path fill="#67717C" d="M3.6,41.1c-0.1,0-0.2-0.1-0.2-0.2v-0.1c0-0.1,0.1-0.2,0.2-0.2s0.2,0.1,0.2,0.2v0.1
				C3.9,41,3.8,41.1,3.6,41.1z"/>
		</g>
		<g>
			<path fill="#67717C" d="M21.3,59.1l-16.1,0c-0.5,0-1-0.2-1.3-0.5c-0.4-0.4-0.5-0.8-0.5-1.3l0-13.4c0-0.1,0.1-0.2,0.2-0.2l0,0
				c0.1,0,0.2,0.1,0.2,0.2l0,13.4c0,0.4,0.1,0.7,0.4,1c0.3,0.3,0.6,0.4,1,0.4l16.1,0c0.8,0,1.4-0.6,1.4-1.4l0-25.8
				c0-0.4-0.1-0.7-0.4-1c-0.3-0.3-0.6-0.4-1-0.4l-16.1,0c0,0,0,0,0,0c-0.4,0-0.7,0.1-1,0.4c-0.3,0.3-0.4,0.6-0.4,1l0,5.8
				c0,0.1-0.1,0.2-0.2,0.2l0,0c-0.1,0-0.2-0.1-0.2-0.2l0-5.8c0-0.5,0.2-1,0.5-1.3s0.8-0.5,1.3-0.5c0,0,0,0,0,0l16.1,0
				c0.5,0,1,0.2,1.3,0.5c0.4,0.4,0.5,0.8,0.5,1.3l0,25.8C23.2,58.2,22.4,59.1,21.3,59.1z"/>
		</g>
		<g>
			<circle fill="#67717C" cx="13.3" cy="54" r="1.6"/>
		</g>
	</g>
	<g>
		<path fill="#E84B54" d="M37.9,35.1h-4.8c-0.2,0-0.4-0.2-0.4-0.4v-4.8c0-0.2,0.2-0.4,0.4-0.4h4.8c0.2,0,0.4,0.2,0.4,0.4v4.8
			C38.3,34.9,38.1,35.1,37.9,35.1z"/>
	</g>
	<g>
		<path fill="#67717C" d="M54.9,32.6h-11c-0.1,0-0.2-0.1-0.2-0.2s0.1-0.2,0.2-0.2h11c0.1,0,0.2,0.1,0.2,0.2S55.1,32.6,54.9,32.6z"/>
	</g>
	<g>
		<path fill="#67717C" d="M54.9,39.2H32.8c-0.1,0-0.2-0.1-0.2-0.2s0.1-0.2,0.2-0.2h22.1c0.1,0,0.2,0.1,0.2,0.2S55,39.2,54.9,39.2z"
			/>
	</g>
	<g>
		<path fill="#E84B54" d="M15.7,40.6h-4.8c-0.2,0-0.4-0.2-0.4-0.4v-4.8c0-0.2,0.2-0.4,0.4-0.4h4.8c0.2,0,0.4,0.2,0.4,0.4v4.8
			C16.1,40.5,15.9,40.6,15.7,40.6z"/>
	</g>
	<g>
		<path fill="#67717C" d="M16.6,45H10c-0.1,0-0.2-0.1-0.2-0.2s0.1-0.2,0.2-0.2h6.6c0.1,0,0.2,0.1,0.2,0.2S16.7,45,16.6,45z"/>
	</g>
</g>
</svg>
