<?xml version="1.0" encoding="utf-8"?>
<!-- Generator: Adobe Illustrator 22.0.1, SVG Export Plug-In . SVG Version: 6.00 Build 0)  -->
<svg version="1.1" id="Layer_1" xmlns="http://www.w3.org/2000/svg" xmlns:xlink="http://www.w3.org/1999/xlink" x="0px" y="0px"
	 viewBox="0 0 80 80" enable-background="new 0 0 80 80" xml:space="preserve">
<g id="BlockChain">
	<path fill="#DCE1E5" d="M49.2,27.9l-1.4-1.4c-0.2-0.2-0.2-0.6,0-0.8l6.9-6.9c0.2-0.2,0.6-0.2,0.8,0l6.9,6.9c0.2,0.2,0.2,0.6,0,0.8
		l-6.9,6.9c-0.2,0.2-0.6,0.2-0.8,0L51.3,30"/>
	<path fill="#DCE1E5" d="M63.4,42L62,40.7c-0.2-0.2-0.2-0.6,0-0.8l6.9-6.9c0.2-0.2,0.6-0.2,0.8,0l6.9,6.9c0.2,0.2,0.2,0.6,0,0.8
		l-6.9,6.9c-0.2,0.2-0.6,0.2-0.8,0l-3.4-3.4"/>
	<path fill="#DCE1E5" d="M49.2,56.2l-1.4-1.4c-0.2-0.2-0.2-0.6,0-0.8l6.9-6.9c0.2-0.2,0.6-0.2,0.8,0l6.9,6.9c0.2,0.2,0.2,0.6,0,0.8
		l-6.9,6.9c-0.2,0.2-0.6,0.2-0.8,0l-3.4-3.4"/>
	<path fill="#DCE1E5" d="M36.1,69.3l-1.4-1.4c-0.2-0.2-0.2-0.6,0-0.8l6.9-6.9c0.2-0.2,0.6-0.2,0.8,0l6.9,6.9c0.2,0.2,0.2,0.6,0,0.8
		l-6.9,6.9c-0.2,0.2-0.6,0.2-0.8,0l-3.4-3.4"/>
	<path fill="#DCE1E5" d="M22.5,55.7l-1.4-1.4c-0.2-0.2-0.2-0.6,0-0.8l6.9-6.9c0.2-0.2,0.6-0.2,0.8,0l6.9,6.9c0.2,0.2,0.2,0.6,0,0.8
		l-6.9,6.9c-0.2,0.2-0.6,0.2-0.8,0l-3.4-3.4"/>
	<path fill="#DCE1E5" d="M8.3,41.5L7,40.2c-0.2-0.2-0.2-0.6,0-0.8l6.9-6.9c0.2-0.2,0.6-0.2,0.8,0l6.9,6.9c0.2,0.2,0.2,0.6,0,0.8
		L14.7,47c-0.2,0.2-0.6,0.2-0.8,0l-3.4-3.4"/>
	<path fill="#DCE1E5" d="M21.5,28.4L20.1,27c-0.2-0.2-0.2-0.6,0-0.8l6.9-6.9c0.2-0.2,0.6-0.2,0.8,0l6.9,6.9c0.2,0.2,0.2,0.6,0,0.8
		l-6.9,6.9c-0.2,0.2-0.6,0.2-0.8,0l-3.4-3.4"/>
	<path fill="#DCE1E5" d="M48.6,39.6l-6.9-6.9c-0.2-0.2-0.6-0.2-0.8,0l-1,1l5.8,5.8c0.2,0.2,0.2,0.6,0,0.8l-5.8,5.8l1,1
		c0.2,0.2,0.6,0.2,0.8,0l6.9-6.9C48.8,40.2,48.8,39.8,48.6,39.6z"/>
	<path fill="#DCE1E5" d="M35.6,14.2l-1.4-1.4c-0.2-0.2-0.2-0.6,0-0.8l6.9-6.9c0.2-0.2,0.6-0.2,0.8,0l6.9,6.9c0.2,0.2,0.2,0.6,0,0.8
		l-6.9,6.9c-0.2,0.2-0.6,0.2-0.8,0l-3.4-3.4"/>
	<path fill="none" stroke="#68717D" stroke-width="0.5" stroke-linecap="round" stroke-miterlimit="10" d="M32.5,14.3l-1.4-1.4
		c-0.2-0.2-0.2-0.6,0-0.8L38,5.2c0.2-0.2,0.6-0.2,0.8,0l6.9,6.9c0.2,0.2,0.2,0.6,0,0.8l-6.9,6.9c-0.2,0.2-0.6,0.2-0.8,0l-3.4-3.4"/>
	<path fill="none" stroke="#68717D" stroke-width="0.5" stroke-linecap="round" stroke-miterlimit="10" d="M48.3,22.4l3.4-3.4
		c0.2-0.2,0.6-0.2,0.8,0l6.9,6.9c0.2,0.2,0.2,0.6,0,0.8l-6.9,6.9c-0.2,0.2-0.6,0.2-0.8,0l-6.9-6.9c-0.2-0.2-0.2-0.6,0-0.8l1.5-1.5"
		/>
	<path fill="none" stroke="#68717D" stroke-width="0.5" stroke-linecap="round" stroke-miterlimit="10" d="M62.6,44.4l-4-4
		c-0.2-0.2-0.2-0.6,0-0.8l6.9-6.9c0.2-0.2,0.6-0.2,0.8,0l6.9,6.9c0.2,0.2,0.2,0.6,0,0.8l-6.9,6.9c-0.2,0.2-0.6,0.2-0.8,0"/>
	<path fill="none" stroke="#68717D" stroke-width="0.5" stroke-linecap="round" stroke-miterlimit="10" d="M20.2,23.1l4.1-4.1
		c0.2-0.2,0.6-0.2,0.8,0l6.9,6.9c0.2,0.2,0.2,0.6,0,0.8l-6.9,6.9c-0.2,0.2-0.6,0.2-0.8,0l-6.9-6.9c-0.2-0.2-0.2-0.6,0-0.8"/>
	<path fill="none" stroke="#68717D" stroke-width="0.5" stroke-linecap="round" stroke-miterlimit="10" d="M51.8,46.5
		c0.2-0.2,0.6-0.2,0.8,0l6.9,6.9c0.2,0.2,0.2,0.6,0,0.8L52.6,61c-0.2,0.2-0.6,0.2-0.8,0l-6.9-6.9c-0.2-0.2-0.2-0.6,0-0.8l4.6-4.6"/>
	<path fill="none" stroke="#68717D" stroke-width="0.5" stroke-linecap="round" stroke-miterlimit="10" d="M7.9,44.7l-4.3-4.3
		c-0.2-0.2-0.2-0.6,0-0.8l6.9-6.9c0.2-0.2,0.6-0.2,0.8,0l6.9,6.9c0.2,0.2,0.2,0.6,0,0.8l-6.9,6.9c-0.2,0.2-0.6,0.2-0.8,0"/>
	<path fill="none" stroke="#68717D" stroke-width="0.5" stroke-linecap="round" stroke-miterlimit="10" d="M19.9,50.8l4.3-4.3
		c0.2-0.2,0.6-0.2,0.8,0l6.9,6.9c0.2,0.2,0.2,0.6,0,0.8L25.1,61c-0.2,0.2-0.6,0.2-0.8,0l-6.9-6.9c-0.2-0.2-0.2-0.6,0-0.8"/>
	<path fill="none" stroke="#68717D" stroke-width="0.5" stroke-linecap="round" stroke-miterlimit="10" d="M32.8,69.5l-1.6-1.6
		c-0.2-0.2-0.2-0.6,0-0.8l6.9-6.9c0.2-0.2,0.6-0.2,0.8,0l6.9,6.9c0.2,0.2,0.2,0.6,0,0.8l-6.9,6.9c-0.2,0.2-0.6,0.2-0.8,0l-2.2-2.2"
		/>
	
		<line fill="none" stroke="#68717D" stroke-width="0.5" stroke-linecap="round" stroke-miterlimit="10" x1="38.4" y1="47.4" x2="38.4" y2="60"/>
	
		<line fill="none" stroke="#68717D" stroke-width="0.5" stroke-linecap="round" stroke-miterlimit="10" x1="38.4" y1="28.4" x2="38.4" y2="32.6"/>
	
		<line fill="none" stroke="#68717D" stroke-width="0.5" stroke-linecap="round" stroke-miterlimit="10" x1="38.4" y1="25.6" x2="38.4" y2="26.3"/>
	
		<line fill="none" stroke="#68717D" stroke-width="0.5" stroke-linecap="round" stroke-miterlimit="10" x1="38.4" y1="20" x2="38.4" y2="23.1"/>
	
		<line fill="none" stroke="#68717D" stroke-width="0.5" stroke-linecap="round" stroke-miterlimit="10" x1="31" y1="40" x2="18.4" y2="40"/>
	
		<line fill="none" stroke="#68717D" stroke-width="0.5" stroke-linecap="round" stroke-miterlimit="10" x1="58.5" y1="40" x2="45.9" y2="40"/>
	
		<line fill="none" stroke="#E84B55" stroke-width="0.5" stroke-linecap="round" stroke-miterlimit="10" x1="34.6" y1="36.2" x2="28.5" y2="30.1"/>
	
		<line fill="none" stroke="#E84B55" stroke-width="0.5" stroke-linecap="round" stroke-miterlimit="10" x1="48.3" y1="49.9" x2="42.3" y2="43.8"/>
	
		<line fill="none" stroke="#E84B55" stroke-width="0.5" stroke-linecap="round" stroke-miterlimit="10" x1="42.3" y1="36.2" x2="48.3" y2="30.1"/>
	
		<line fill="none" stroke="#E84B55" stroke-width="0.5" stroke-linecap="round" stroke-miterlimit="10" x1="28.5" y1="49.9" x2="34.6" y2="43.8"/>
	<path fill="none" stroke="#E84B55" stroke-width="0.5" stroke-linecap="round" stroke-miterlimit="10" d="M38,47.2l-6.8-6.8
		c-0.3-0.3-0.3-0.7,0-0.9l6.8-6.8c0.3-0.3,0.7-0.3,0.9,0l6.8,6.8c0.3,0.3,0.3,0.7,0,0.9l-6.8,6.8C38.6,47.5,38.2,47.5,38,47.2z"/>
</g>
</svg>
