<?xml version="1.0" encoding="utf-8"?>
<!-- Generator: Adobe Illustrator 22.0.1, SVG Export Plug-In . SVG Version: 6.00 Build 0)  -->
<svg version="1.1" id="Layer_1" xmlns="http://www.w3.org/2000/svg" xmlns:xlink="http://www.w3.org/1999/xlink" x="0px" y="0px"
	 viewBox="0 0 80 80" enable-background="new 0 0 80 80" xml:space="preserve">
<g>
	<g>
		<path fill="#DCE1E5" d="M50.2,26.2h8.1h3.5V24c0-0.2-0.1-0.3-0.3-0.3H51.4"/>
		<path fill="#DCE1E5" d="M71.8,9.1h-0.1c0,0,0,0.1,0,0.1v11.9c0,1.4-1.2,2.6-2.6,2.6H67c-0.1,0-0.2,0-0.2,0.1l-2.2,2.6v4.3
			c0,0.3,0.4,0.4,0.6,0.2l4.1-4.7h2.6c1.4,0,2.6-1.2,2.6-2.6V11.7C74.4,10.3,73.3,9.1,71.8,9.1z"/>
	</g>
	<g>
		<path fill="#DCE1E5" d="M42.5,18.1c-8.2,0-14.9,6.7-14.9,15c0,1.3,0.2,2.5,0.5,3.6v-4.4c0-0.2,0-0.4,0-0.7c0-0.2,0.2-0.1,0.2-0.1
			c1.3,0.3,2.6,0.4,4,0.4c4.3,0,8.3-1.5,11.5-4.1c0.2-0.2,0.3,0.2,0.3,0.2c0.3,3.6,3.3,6.5,7,6.5c0.1,0,0.3,0,0.4,0
			c0,0,0.2,0,0.2,0.2v6.2c0,1.7-0.4,3.3-1,4.8c4.1-2.7,6.9-7.3,6.9-12.6C57.4,24.9,50.8,18.1,42.5,18.1z"/>
		<path fill="#DCE1E5" d="M53.5,42.9v0.8c0,5.4-4.3,9.8-9.7,10l0-1.7c0,0,5.9-1.7,7.5-8.2L53.5,42.9z"/>
		<g>
			
				<line fill="none" stroke="#67717C" stroke-width="0.5" stroke-linecap="round" stroke-miterlimit="10" x1="30.8" y1="58.3" x2="24" y2="59.6"/>
			
				<line fill="none" stroke="#67717C" stroke-width="0.5" stroke-linecap="round" stroke-miterlimit="10" x1="48.2" y1="58.3" x2="53.6" y2="59.3"/>
		</g>
		<path fill="none" stroke="#67717C" stroke-width="0.5" stroke-linecap="round" stroke-miterlimit="10" d="M37.4,62.2
			c0.4,0.7,1.2,1.1,2.1,1.1c0.9,0,1.7-0.5,2.1-1.2"/>
		<g>
			<g>
				<g>
					<path fill="none" stroke="#67717C" stroke-width="0.5" stroke-linecap="round" stroke-miterlimit="10" d="M31.2,57.6
						c-0.2,0.2-0.2,0.6,0,0.9l4.4,4.4c0.2,0.2,0.6,0.2,0.9,0l2.6-2.6c0.2-0.2,0.2-0.6,0-0.9l-4.4-4.4c-0.2-0.2-0.6-0.2-0.9,0
						L31.2,57.6z"/>
				</g>
			</g>
		</g>
		<g>
			<g>
				<g>
					<path fill="none" stroke="#67717C" stroke-width="0.5" stroke-linecap="round" stroke-miterlimit="10" d="M47.7,57.6
						c0.2,0.2,0.2,0.6,0,0.9l-4.4,4.4c-0.2,0.2-0.6,0.2-0.9,0l-2.6-2.6c-0.2-0.2-0.2-0.6,0-0.9l4.4-4.4c0.2-0.2,0.6-0.2,0.9,0
						L47.7,57.6z"/>
				</g>
			</g>
		</g>
		<path fill="none" stroke="#67717C" stroke-width="0.5" stroke-linecap="round" stroke-miterlimit="10" d="M27,38
			c-0.7,0-1.2,0.5-1.2,1.2v2c0,0.7,0.5,1.2,1.2,1.2h0.4c0.3,0,0.5-0.1,0.7-0.2"/>
		<path fill="none" stroke="#67717C" stroke-width="0.5" stroke-linecap="round" stroke-miterlimit="10" d="M52.6,38
			c0.7,0,1.2,0.5,1.2,1.2v2c0,0.7-0.5,1.2-1.2,1.2h-0.4c-0.3,0-0.5-0.1-0.7-0.2"/>
		<path fill="none" stroke="#67717C" stroke-width="0.5" stroke-linecap="round" stroke-miterlimit="10" d="M27.2,21.9
			c-1.5,2.3-2.4,5.1-2.4,8.1c0,3.5,1.2,6.7,3.2,9.2"/>
		<path fill="none" stroke="#67717C" stroke-width="0.5" stroke-linecap="round" stroke-miterlimit="10" d="M28.8,19.8
			c-0.1,0.1-0.1,0.2-0.2,0.2"/>
		<path fill="none" stroke="#67717C" stroke-width="0.5" stroke-linecap="round" stroke-miterlimit="10" d="M31.9,17.2
			c-0.5,0.3-1,0.7-1.5,1.1"/>
		<path fill="none" stroke="#67717C" stroke-width="0.5" stroke-linecap="round" stroke-miterlimit="10" d="M51.6,39.1
			c2-2.5,3.2-5.7,3.2-9.2c0-8.3-6.7-15-14.9-15c-1.7,0-3.4,0.3-4.9,0.8"/>
		<path fill="none" stroke="#67717C" stroke-width="0.5" stroke-linecap="round" stroke-miterlimit="10" d="M51.6,34.8v6.2
			c0,6.5-5.3,11.8-11.8,11.8c-6.5,0-11.8-5.3-11.8-11.8v-8.6c0-0.2,0-0.4,0-0.7c0-0.2,0.2-0.1,0.2-0.1c1.3,0.3,2.6,0.4,4,0.4
			c4.3,0,8.3-1.5,11.5-4.1c0.2-0.2,0.3,0.2,0.3,0.2c0.3,3.6,3.3,6.5,7,6.5c0.1,0,0.3,0,0.4,0C51.4,34.6,51.6,34.6,51.6,34.8z"/>
		<path fill="none" stroke="#67717C" stroke-width="0.5" stroke-linecap="round" stroke-miterlimit="10" d="M38.5,43.1
			c0.3,0.3,0.7,0.5,1.2,0.5c0.5,0,0.9-0.2,1.2-0.6"/>
		<path fill="none" stroke="#67717C" stroke-width="0.5" stroke-linecap="round" stroke-miterlimit="10" d="M35.3,46
			c0.8,1.5,2.5,2.6,4.3,2.6c1.9,0,3.5-1,4.3-2.6"/>
		<g>
			<path fill="#DCE1E5" d="M43.5,37.1c0,0.7,0.5,1.2,1.2,1.2c0.7,0,1.2-0.5,1.2-1.2c0-0.7-0.5-1.2-1.2-1.2
				C44,35.9,43.5,36.5,43.5,37.1z"/>
		</g>
		<g>
			<path fill="#DCE1E5" d="M33.7,37.1c0,0.7,0.5,1.2,1.2,1.2c0.7,0,1.2-0.5,1.2-1.2c0-0.7-0.5-1.2-1.2-1.2
				C34.2,35.9,33.7,36.5,33.7,37.1z"/>
		</g>
		<path fill="#E84B54" d="M39.5,64.2l-2.7,3.5c0,0-0.1,0.1,0,0.2l1.1,5.8c0,0.1,0.1,0.2,0.2,0.2h3.2c0.1,0,0.2-0.1,0.2-0.2l1.1-5.8
			c0-0.1,0-0.1,0-0.2l-2.7-3.5C39.7,64.1,39.6,64.1,39.5,64.2z"/>
		<path fill="none" stroke="#67717C" stroke-width="0.5" stroke-linecap="round" stroke-miterlimit="10" d="M43.5,53.6"/>
	</g>
	<path fill="none" stroke="#67717C" stroke-width="0.5" stroke-linecap="round" stroke-miterlimit="10" d="M57,23.7h4.4
		c0.2,0,0.3,0.1,0.3,0.3l0,4.7c0,0.3,0.4,0.4,0.6,0.2l4.4-5.1c0.1-0.1,0.2-0.1,0.2-0.1h2.1c1.4,0,2.6-1.2,2.6-2.6V9.2
		c0-1.4-1.2-2.6-2.6-2.6H47.5c-1.4,0-2.6,1.2-2.6,2.6v3.6"/>
	
		<line fill="none" stroke="#E84B54" stroke-width="0.5" stroke-linecap="round" stroke-miterlimit="10" x1="51.7" y1="12.7" x2="66.1" y2="12.7"/>
	
		<line fill="none" stroke="#E84B54" stroke-width="0.5" stroke-linecap="round" stroke-miterlimit="10" x1="59.5" y1="16.6" x2="66.1" y2="16.6"/>
</g>
</svg>
