<?xml version="1.0" encoding="utf-8"?>
<!-- Generator: Adobe Illustrator 22.0.1, SVG Export Plug-In . SVG Version: 6.00 Build 0)  -->
<svg version="1.1" id="Layer_1" xmlns="http://www.w3.org/2000/svg" xmlns:xlink="http://www.w3.org/1999/xlink" x="0px" y="0px"
	 viewBox="0 0 80 80" enable-background="new 0 0 80 80" xml:space="preserve">
<g>
	<g>
		<g>
			<path fill="#DCE1E5" d="M25.1,53.4c0-2.6,2.1-4.6,4.6-4.6l26.5,0.1c2.6,0,4.6,2.1,4.6,4.6l0,14.6c0,2.6-2.1,4.6-4.6,4.6
				l-26.5-0.1c-2.6,0-4.6-2.1-4.6-4.6l0-5.6"/>
		</g>
		<g>
			<g>
				<path fill="#68717D" d="M20.9,55.1L20.9,55.1c-0.3,0-0.5-0.2-0.5-0.5l0-0.8c0-0.3,0.2-0.5,0.5-0.5h0c0.3,0,0.5,0.2,0.5,0.5
					l0,0.8C21.4,54.9,21.2,55.1,20.9,55.1z"/>
			</g>
			<g>
				<path fill="#68717D" d="M52,69.1C52,69.1,52,69.1,52,69.1L25.5,69c-2.8,0-5.1-2.3-5.1-5.1l0-5.6c0-0.3,0.2-0.5,0.5-0.5
					c0,0,0,0,0,0c0.3,0,0.5,0.2,0.5,0.5l0,5.6c0,2.3,1.8,4.1,4.1,4.2L52,68.1c1.1,0,2.1-0.4,2.9-1.2c0.8-0.8,1.2-1.8,1.2-2.9l0-14.6
					c0-1.1-0.4-2.1-1.2-2.9c-0.8-0.8-1.8-1.2-2.9-1.2l-26.5-0.1c0,0,0,0,0,0c-1.1,0-2.1,0.4-2.9,1.2c-0.8,0.8-1.2,1.8-1.2,2.9
					c0,0.3-0.2,0.5-0.5,0.5h0c-0.3,0-0.5-0.2-0.5-0.5c0-1.4,0.5-2.6,1.5-3.6c1-1,2.2-1.5,3.6-1.5c0,0,0,0,0,0l26.5,0.1
					c1.4,0,2.6,0.5,3.6,1.5c1,1,1.5,2.2,1.5,3.6l0,14.6c0,1.4-0.5,2.6-1.5,3.6C54.6,68.6,53.4,69.1,52,69.1z"/>
			</g>
		</g>
		<g>
			<path fill="#68717D" d="M52.4,72.8L52.4,72.8l-26.7,0c-0.3,0-0.5-0.2-0.5-0.5c0-0.3,0.2-0.5,0.5-0.5l0,0l26.7,0
				c0.3,0,0.5,0.2,0.5,0.5C52.9,72.6,52.7,72.8,52.4,72.8z"/>
		</g>
	</g>
	<g>
		<g>
			<g>
				<path fill="#DCE1E5" d="M63.2,14.7c0.7,1.4,1.2,3,1.2,4.6c0,5.4-4.4,9.8-9.8,9.8c-1.2,0-2.4-0.3-3.5-0.7
					c1.7,3.1,4.9,5.2,8.6,5.2c5.4,0,9.8-4.4,9.8-9.8C69.6,19.7,66.9,16.1,63.2,14.7z"/>
			</g>
			<g>
				<path fill="#68717D" d="M69.6,49.2c-0.3,0-0.5-0.2-0.5-0.5c0-8-6.5-14.5-14.5-14.5c-4.4,0-8.6,2-11.4,5.5
					c-0.2,0.2-0.5,0.2-0.7,0.1c-0.2-0.2-0.2-0.5-0.1-0.7c3-3.7,7.4-5.8,12.1-5.8c8.5,0,15.5,6.9,15.5,15.5
					C70,49,69.8,49.2,69.6,49.2z"/>
			</g>
			<g>
				<path fill="#68717D" d="M54.5,29.7c-5.7,0-10.3-4.6-10.3-10.3S48.9,9.1,54.5,9.1s10.3,4.6,10.3,10.3S60.2,29.7,54.5,29.7z
					 M54.5,10c-5.2,0-9.4,4.2-9.4,9.4s4.2,9.4,9.4,9.4s9.4-4.2,9.4-9.4S59.7,10,54.5,10z"/>
			</g>
		</g>
		<g>
			<g>
				<path fill="#DCE1E5" d="M30.9,14.7c0.7,1.4,1.2,3,1.2,4.6c0,5.4-4.4,9.8-9.8,9.8c-1.2,0-2.4-0.3-3.5-0.7
					c1.7,3.1,4.9,5.2,8.6,5.2c5.4,0,9.8-4.4,9.8-9.8C37.3,19.7,34.7,16.1,30.9,14.7z"/>
			</g>
			<g>
				<path fill="#E84B55" d="M10.6,49.2c-0.3,0-0.5-0.2-0.5-0.5c0-8.5,6.9-15.5,15.5-15.5c4.7,0,9.1,2.1,12.1,5.8
					c0.2,0.2,0.1,0.5-0.1,0.7c-0.2,0.2-0.5,0.1-0.7-0.1c-2.8-3.5-6.9-5.5-11.4-5.5c-8,0-14.5,6.5-14.5,14.5
					C11.1,49,10.9,49.2,10.6,49.2z"/>
			</g>
			<g>
				<path fill="#E84B55" d="M22.3,29.7c-5.7,0-10.3-4.6-10.3-10.3S16.6,9.1,22.3,9.1s10.3,4.6,10.3,10.3S28,29.7,22.3,29.7z
					 M22.3,10c-5.2,0-9.4,4.2-9.4,9.4s4.2,9.4,9.4,9.4c5.2,0,9.4-4.2,9.4-9.4S27.5,10,22.3,10z"/>
			</g>
		</g>
	</g>
</g>
</svg>
