<?xml version="1.0" encoding="utf-8"?>
<!-- Generator: Adobe Illustrator 22.0.1, SVG Export Plug-In . SVG Version: 6.00 Build 0)  -->
<svg version="1.1" id="Layer_1" xmlns="http://www.w3.org/2000/svg" xmlns:xlink="http://www.w3.org/1999/xlink" x="0px" y="0px"
	 viewBox="0 0 80 80" enable-background="new 0 0 80 80" xml:space="preserve">
<g id="Extended_x5F_Team">
	<g>
		<g>
			<path fill="#DCE1E5" d="M57,55.6c-2.7-4.6-7.6-7.8-13.4-7.8S33,50.9,30.3,55.6H57z"/>
		</g>
		<g>
			<path fill="#DCE1E5" d="M46,31.7c0.3,0.8,0.5,1.7,0.5,2.7c0,3.9-3.1,7-7,7c-1.7,0-3.3-0.6-4.5-1.7c1,2.6,3.6,4.4,6.5,4.4
				c3.9,0,7-3.1,7-7C48.5,34.9,47.5,33,46,31.7z"/>
		</g>
		<g>
			<path fill="#68717D" d="M26.5,54.2c-0.1,0-0.2,0-0.3-0.1C26,54,26,53.7,26.1,53.5c0.7-1.2,1.5-2.2,2.4-3.2c0.2-0.2,0.5-0.2,0.7,0
				c0.2,0.2,0.2,0.5,0,0.7c-0.9,0.9-1.6,1.9-2.3,3C26.9,54.1,26.7,54.2,26.5,54.2z"/>
		</g>
		<g>
			<path fill="#68717D" d="M31.8,48.9c-0.2,0-0.3-0.1-0.4-0.2c-0.1-0.2-0.1-0.5,0.2-0.7c0.2-0.1,0.5-0.3,0.7-0.4
				c0.2-0.1,0.5,0,0.7,0.2c0.1,0.2,0,0.5-0.2,0.7c-0.2,0.1-0.5,0.3-0.7,0.4C32,48.8,31.9,48.9,31.8,48.9z"/>
		</g>
		<g>
			<path fill="#68717D" d="M52.5,54.2c-0.2,0-0.3-0.1-0.4-0.2c-2.6-4.5-7.4-7.3-12.6-7.3c-1.6,0-3.1,0.2-4.6,0.7
				c-0.3,0.1-0.5-0.1-0.6-0.3c-0.1-0.3,0.1-0.5,0.3-0.6c1.6-0.5,3.2-0.8,4.9-0.8c5.5,0,10.7,3,13.4,7.8c0.1,0.2,0.1,0.5-0.2,0.7
				C52.7,54.2,52.6,54.2,52.5,54.2z"/>
		</g>
		<g>
			<path fill="#68717D" d="M39.5,41.9c-3.2,0-6.1-2-7.1-5.1C32.2,36,32,35.2,32,34.4c0-0.7,0.1-1.4,0.3-2.1c0.9-3.2,3.9-5.4,7.2-5.4
				c4.1,0,7.5,3.4,7.5,7.5C47,38.5,43.7,41.9,39.5,41.9z M39.5,27.9c-2.9,0-5.4,1.9-6.2,4.7c-0.2,0.6-0.3,1.2-0.3,1.8
				c0,0.7,0.1,1.4,0.3,2.1c0.9,2.6,3.4,4.4,6.2,4.4c3.6,0,6.5-2.9,6.5-6.5C46,30.8,43.1,27.9,39.5,27.9z"/>
		</g>
		<g>
			<g>
				<circle fill="#DCE1E5" cx="59.9" cy="41.4" r="4"/>
			</g>
			<g>
				<path fill="#68717D" d="M58.1,44.2c-2.5,0-4.5-2-4.5-4.5c0-2.5,2-4.5,4.5-4.5s4.5,2,4.5,4.5C62.6,42.1,60.6,44.2,58.1,44.2z
					 M58.1,36.1c-1.9,0-3.5,1.6-3.5,3.5s1.6,3.5,3.5,3.5s3.5-1.6,3.5-3.5S60.1,36.1,58.1,36.1z"/>
			</g>
			<g>
				<path fill="#68717D" d="M66.4,52.7c-0.2,0-0.4-0.1-0.5-0.3c-1.3-3.2-4.4-5.2-7.8-5.2c-0.7,0-1.4,0.1-2.1,0.3
					c-0.3,0.1-0.5-0.1-0.6-0.4c-0.1-0.3,0.1-0.5,0.4-0.6c0.7-0.2,1.5-0.3,2.3-0.3c3.8,0,7.3,2.3,8.8,5.8c0.1,0.3,0,0.5-0.3,0.7
					C66.6,52.6,66.5,52.7,66.4,52.7z"/>
			</g>
		</g>
		<g>
			<g>
				<circle fill="#DCE1E5" cx="23.7" cy="41.4" r="4"/>
			</g>
			<g>
				<path fill="#68717D" d="M21.9,44.2c-2.5,0-4.5-2-4.5-4.5c0-2.5,2-4.5,4.5-4.5s4.5,2,4.5,4.5C26.4,42.1,24.4,44.2,21.9,44.2z
					 M21.9,36.1c-1.9,0-3.5,1.6-3.5,3.5s1.6,3.5,3.5,3.5s3.5-1.6,3.5-3.5S23.8,36.1,21.9,36.1z"/>
			</g>
			<g>
				<path fill="#68717D" d="M13.6,52.7c-0.1,0-0.1,0-0.2,0c-0.3-0.1-0.4-0.4-0.3-0.7c1.5-3.5,4.9-5.8,8.8-5.8c0.8,0,1.6,0.1,2.3,0.3
					c0.3,0.1,0.4,0.3,0.4,0.6c-0.1,0.3-0.3,0.4-0.6,0.4c-0.7-0.2-1.4-0.3-2.1-0.3c-3.4,0-6.5,2-7.8,5.2C14,52.5,13.8,52.7,13.6,52.7
					z"/>
			</g>
		</g>
	</g>
	<g>
		<g>
			<g>
				<path fill="#E84B55" d="M71.4,20.4c-0.2,0-0.5-0.2-0.5-0.4l-1.2-9.2c0-0.2-0.2-0.4-0.4-0.4l-9.2-1.2c-0.3,0-0.5-0.3-0.4-0.6
					c0-0.3,0.3-0.5,0.6-0.4l9.2,1.2c0.6,0.1,1.2,0.7,1.3,1.3l1.2,9.2C71.9,20.1,71.8,20.3,71.4,20.4C71.5,20.4,71.4,20.4,71.4,20.4z
					"/>
			</g>
			<g>
				<path fill="#E84B55" d="M19.9,71.9C19.8,71.9,19.8,71.9,19.9,71.9l-9.3-1.2c-0.6-0.1-1.2-0.7-1.3-1.3l-1.2-9.2
					c0-0.3,0.2-0.5,0.4-0.6c0.3,0,0.5,0.2,0.6,0.4l1.2,9.2c0,0.2,0.2,0.4,0.4,0.4l9.2,1.2c0.3,0,0.5,0.3,0.4,0.6
					C20.3,71.7,20.1,71.9,19.9,71.9z"/>
			</g>
		</g>
		<g>
			<g>
				<path fill="#68717D" d="M60.1,71.9c-0.2,0-0.5-0.2-0.5-0.4c0-0.3,0.2-0.5,0.4-0.6l9.2-1.2c0.2,0,0.4-0.2,0.4-0.4l1.2-9.2
					c0-0.3,0.3-0.5,0.6-0.4c0.3,0,0.5,0.3,0.4,0.6l-1.2,9.2c-0.1,0.6-0.7,1.2-1.3,1.3L60.1,71.9C60.2,71.9,60.2,71.9,60.1,71.9z"/>
			</g>
			<g>
				<path fill="#68717D" d="M8.6,20.4C8.6,20.4,8.5,20.4,8.6,20.4c-0.3,0-0.5-0.3-0.5-0.6l1.2-9.2c0.1-0.6,0.7-1.2,1.3-1.3l9.2-1.2
					c0.3,0,0.5,0.2,0.6,0.4c0,0.3-0.2,0.5-0.4,0.6l-9.2,1.2c-0.2,0-0.4,0.2-0.4,0.4l-1.2,9.2C9,20.2,8.8,20.4,8.6,20.4z"/>
			</g>
		</g>
	</g>
</g>
</svg>
