<?xml version="1.0" encoding="utf-8"?>
<!-- Generator: Adobe Illustrator 22.0.1, SVG Export Plug-In . SVG Version: 6.00 Build 0)  -->
<svg version="1.1" id="Layer_1" xmlns="http://www.w3.org/2000/svg" xmlns:xlink="http://www.w3.org/1999/xlink" x="0px" y="0px"
	 viewBox="0 0 80 80" enable-background="new 0 0 80 80" xml:space="preserve">
<g id="Project_x5F_Management">
	<g id="calendar_1_">
		<path fill="#DCE1E5" d="M69.4,22H38c-1.6,0-2.9,1.3-2.9,2.9v31.4c0,1.6,1.3,2.9,2.9,2.9h25.6c4.7,0,8.6-3.8,8.6-8.6V24.9
			C72.3,23.3,71,22,69.4,22z M57.9,53.7v-0.5v-7.1c0-1.2,1-2.2,2.2-2.2h7.1C67.2,43.9,67.2,53.7,57.9,53.7z"/>
		<path fill="none" stroke="#68717D" stroke-width="0.5" stroke-linecap="round" stroke-miterlimit="10" d="M30.1,30.5V19.8
			c0-1.7,1.4-3,3.1-3h30.9c1.7,0,3.1,1.4,3.1,3v25c0,5-4.2,9-9.3,9H42.7"/>
		
			<line fill="none" stroke="#68717D" stroke-width="0.5" stroke-linecap="round" stroke-miterlimit="10" x1="30.1" y1="23.7" x2="67.2" y2="23.7"/>
		<path fill="none" stroke="#68717D" stroke-width="0.5" stroke-linecap="round" stroke-miterlimit="10" d="M67.2,44.2h-7.1
			c-1.2,0-2.2,1-2.2,2.2v7.1"/>
		<path fill="#E84B55" d="M46.9,35h-3.8c-0.2,0-0.4-0.2-0.4-0.4v-3.8c0-0.2,0.2-0.4,0.4-0.4h3.8c0.2,0,0.4,0.2,0.4,0.4v3.8
			C47.3,34.9,47.1,35,46.9,35z"/>
		<path fill="#68717D" d="M59,35h-3.8c-0.2,0-0.4-0.2-0.4-0.4v-3.8c0-0.2,0.2-0.4,0.4-0.4H59c0.2,0,0.4,0.2,0.4,0.4v3.8
			C59.4,34.9,59.2,35,59,35z"/>
	</g>
	<g>
		<path fill="#DCE1E5" d="M35.1,34.6c2.5,2.8,4.1,6.5,4.1,10.5c0,8.6-7,15.6-15.6,15.6c-3,0-5.9-0.9-8.3-2.4
			c2.9,3.1,6.9,5.1,11.5,5.1c8.6,0,15.6-7,15.6-15.6C42.5,42.2,39.5,37.4,35.1,34.6z"/>
		<path fill="none" stroke="#68717D" stroke-width="0.5" stroke-linecap="round" stroke-miterlimit="10" d="M15.1,32
			c0.1-0.1,0.2-0.2,0.4-0.2"/>
		<path fill="none" stroke="#68717D" stroke-width="0.5" stroke-linecap="round" stroke-miterlimit="10" d="M11.1,35.7
			c0.6-0.8,1.2-1.5,1.9-2.1"/>
		<path fill="#FFFFFF" d="M18.2,30.5c1.7-0.6,3.5-0.9,5.4-0.9c8.6,0,15.6,7,15.6,15.6s-7,15.6-15.6,15.6c-7.8,0-14.2-5.7-15.4-13.1
			C8,46.8,8,46,8,45.1c0-0.8,0.1-1.5,0.2-2.3c0.2-1.3,0.6-2.6,1.1-3.8"/>
		<path fill="none" stroke="#E84B55" stroke-width="0.5" stroke-linecap="round" stroke-miterlimit="10" d="M18.2,40.1l5.1,5.1
			c0.2,0.2,0.5,0.2,0.6,0l4.9-4.9"/>
		<path fill="none" stroke="#68717D" stroke-width="0.5" stroke-linecap="round" stroke-miterlimit="10" d="M18.2,30.5
			c1.7-0.6,3.5-0.9,5.4-0.9c8.6,0,15.6,7,15.6,15.6s-7,15.6-15.6,15.6c-7.8,0-14.2-5.7-15.4-13.1C8,46.8,8,46,8,45.1
			c0-0.8,0.1-1.5,0.2-2.3c0.2-1.3,0.6-2.6,1.1-3.8"/>
	</g>
</g>
</svg>
