<?xml version="1.0" encoding="utf-8"?>
<!-- Generator: Adobe Illustrator 22.0.1, SVG Export Plug-In . SVG Version: 6.00 Build 0)  -->
<svg version="1.1" id="Layer_1" xmlns="http://www.w3.org/2000/svg" xmlns:xlink="http://www.w3.org/1999/xlink" x="0px" y="0px"
	 viewBox="0 0 600 600" enable-background="new 0 0 600 600" xml:space="preserve">
<g id="base_x5F_plate_1_">
	<path fill="#DCE1E5" d="M47.3,309.1l0.1,8.9c-0.5,3.9,2.2,8.1,7.8,11.3l230.6,133.2c9.5,5.5,23.8,6.1,32,1.3l229.5-132.5
		c4.5-2.6,5-5.2,5.3-10l0-5.4L47.3,309.1z"/>
	
		<linearGradient id="SVGID_1_" gradientUnits="userSpaceOnUse" x1="386.5917" y1="421.7523" x2="824.3337" y2="421.7523" gradientTransform="matrix(0.866 -0.5 1.5 0.2887 -856.9744 492.7856)">
		<stop  offset="0" style="stop-color:#B1BAC1"/>
		<stop  offset="1" style="stop-color:#828B94"/>
	</linearGradient>
	<path fill="url(#SVGID_1_)" d="M547.2,322L317.7,454.5c-8.2,4.7-22.5,4.1-32-1.3L55.1,320c-9.5-5.5-10.5-13.7-2.3-18.5l229.5-132.5
		c8.2-4.7,22.5-4.1,32,1.3l230.6,133.2C554.4,309,555.4,317.3,547.2,322z"/>
</g>
<g id="animatables">
	<g>
		<g>
			<g>
				<polygon fill="#C6C6C6" points="368.5,195.6 319.9,188.2 332.8,160.1 381.4,167.5 				"/>
			</g>
			<g>
				<polygon fill="#FFFFFF" points="368.5,154.5 319.9,147.1 332.8,119 381.4,126.4 				"/>
			</g>
			<polygon fill="#DCE1E5" points="319.9,147.1 319.9,188.2 368.5,195.6 368.5,154.5 			"/>
			<polygon fill="#A4B1BC" points="381.4,126.4 381.4,167.5 368.5,195.6 368.5,154.5 			"/>
		</g>
		<g>
			<polygon fill="#C6C6C6" points="216.1,204.3 180.6,224.8 145,204.3 180.6,183.8 			"/>
			<polygon fill="#FFFFFF" points="216.1,163.2 180.6,183.8 145,163.2 180.6,142.7 			"/>
			<polygon fill="#A4B1BC" points="216.1,163.2 216.1,204.3 180.6,224.8 180.6,183.8 			"/>
			<polygon fill="#DCE1E5" points="145,163.2 145,204.3 180.6,224.8 180.6,183.8 			"/>
		</g>
	</g>
	<g>
		<g>
			<g>
				<polygon fill="#C6C6C6" points="297,238.1 345.7,245.5 358.5,217.4 309.9,210 				"/>
			</g>
			<g>
				<polygon fill="#FFFFFF" points="297,197 345.7,204.4 358.5,176.3 309.9,168.9 				"/>
			</g>
			<polygon fill="#A4B1BC" points="358.5,176.3 358.5,217.4 345.7,245.5 345.7,204.4 			"/>
			<polygon fill="#DCE1E5" points="297,197 297,238.1 345.7,245.5 345.7,204.4 			"/>
		</g>
		<g>
			<polygon fill="#C6C6C6" points="279.4,240.8 243.8,261.4 208.2,240.8 243.8,220.3 			"/>
			<polygon fill="#FFFFFF" points="279.4,199.7 243.8,220.3 208.2,199.7 243.8,179.2 			"/>
			<polygon fill="#A4B1BC" points="243.8,220.3 243.8,261.4 279.4,240.8 279.4,199.7 			"/>
			<polygon fill="#DCE1E5" points="208.2,199.7 208.2,240.8 243.8,261.4 243.8,220.3 			"/>
		</g>
	</g>
	<g>
		<g>
			<path fill="#829392" d="M291.9,282.2l-7.3-15.7l19.9-11.5l27.2,4.2L339,275l-19.9,11.5L291.9,282.2z"/>
			<path fill="#EF95A2" d="M291.9,257.9l-7.3-15.7l19.9-11.5l27.2,4.2l7.3,15.7l-19.9,11.5L291.9,257.9z"/>
		</g>
		<polygon fill="#EF6C79" points="284.6,242.2 284.6,266.5 291.9,282.2 291.9,257.9 		"/>
		<polygon fill="#E84B54" points="291.9,257.9 291.9,282.2 319.1,286.5 319.1,262.1 		"/>
		<polygon fill="#D12C3D" points="339,250.6 339,275 319.1,286.5 319.1,262.1 		"/>
	</g>
	<g>
		<g>
			<polygon fill="#C6C6C6" points="252.4,335.5 301.1,342.9 313.9,314.8 265.3,307.4 			"/>
			<polygon fill="#FFFFFF" points="252.4,294.4 301.1,301.8 313.9,273.7 265.3,266.3 			"/>
			<polygon fill="#DCE1E5" points="252.4,294.4 252.4,335.5 301.1,342.9 301.1,301.8 			"/>
			<polygon fill="#A4B1BC" points="313.9,273.7 313.9,314.8 301.1,342.9 301.1,301.8 			"/>
		</g>
		<g>
			<polygon fill="#C6C6C6" points="239,271.6 251.9,299.6 203.2,307.1 190.4,279 			"/>
			<polygon fill="#FFFFFF" points="239,230.5 251.9,258.6 203.2,266 190.4,237.9 			"/>
			<polygon fill="#A4B1BC" points="251.9,258.6 251.9,299.6 203.2,307.1 203.2,266 			"/>
			<polygon fill="#DCE1E5" points="190.4,237.9 190.4,279 203.2,307.1 203.2,266 			"/>
		</g>
		<g>
			<g>
				<polygon fill="#C6C6C6" points="407.7,245.8 420.6,273.9 372,281.3 359.1,253.2 				"/>
			</g>
			<g>
				<polygon fill="#FFFFFF" points="407.7,204.7 420.6,232.8 372,240.2 359.1,212.2 				"/>
			</g>
			<polygon fill="#DCE1E5" points="359.1,212.2 359.1,253.2 372,281.3 372,240.2 			"/>
			<polygon fill="#A4B1BC" points="372,240.2 372,281.3 420.6,273.9 420.6,232.8 			"/>
		</g>
		<g>
			<g>
				<polygon fill="#C6C6C6" points="402.8,312.1 367.2,332.6 331.6,312.1 367.2,291.5 				"/>
			</g>
			<g>
				<polygon fill="#FFFFFF" points="402.8,271 367.2,291.5 331.6,271 367.2,250.5 				"/>
			</g>
			<polygon fill="#DCE1E5" points="331.6,271 331.6,312.1 367.2,332.6 367.2,291.5 			"/>
			<polygon fill="#A4B1BC" points="402.8,271 402.8,312.1 367.2,332.6 367.2,291.5 			"/>
		</g>
	</g>
	<g>
		<g>
			<polygon fill="#C6C6C6" points="165.4,312.9 152.6,284.8 103.9,292.2 116.8,320.3 			"/>
			<polygon fill="#FFFFFF" points="165.4,271.8 152.6,243.7 103.9,251.1 116.8,279.2 			"/>
			<polygon fill="#A4B1BC" points="116.8,279.2 116.8,320.3 165.4,312.9 165.4,271.8 			"/>
			<polygon fill="#DCE1E5" points="103.9,251.1 103.9,292.2 116.8,320.3 116.8,279.2 			"/>
		</g>
		<g>
			<g>
				<g>
					<polygon fill="#C6C6C6" points="507,260.7 494.2,232.6 445.5,240 458.4,268.1 					"/>
				</g>
				<g>
					<polygon fill="#FFFFFF" points="507,219.6 494.2,191.5 445.5,199 458.4,227 					"/>
				</g>
			</g>
			<polygon fill="#A4B1BC" points="507,219.6 507,260.7 458.4,268.1 458.4,227 			"/>
			<polygon fill="#DCE1E5" points="445.5,199 445.5,240 458.4,268.1 458.4,227 			"/>
		</g>
		<g>
			<polygon fill="#C6C6C6" points="278.2,392.8 229.6,385.4 242.4,357.3 291.1,364.7 			"/>
			<polygon fill="#FFFFFF" points="278.2,351.7 229.6,344.3 242.4,316.2 291.1,323.7 			"/>
			<polygon fill="#DCE1E5" points="229.6,344.3 229.6,385.4 278.2,392.8 278.2,351.7 			"/>
			<polygon fill="#A4B1BC" points="291.1,323.7 291.1,364.7 278.2,392.8 278.2,351.7 			"/>
		</g>
		<g>
			<g>
				<g>
					<g>
						<polygon fill="#C6C6C6" points="466,348.6 430.4,369.1 394.8,348.6 430.4,328 						"/>
					</g>
				</g>
				<g>
					<g>
						<polygon fill="#FFFFFF" points="466,307.5 430.4,328 394.8,307.5 430.4,287 						"/>
					</g>
				</g>
			</g>
			<polygon fill="#A4B1BC" points="466,307.5 466,348.6 430.4,369.1 430.4,328 			"/>
			<polygon fill="#DCE1E5" points="394.8,307.5 394.8,348.6 430.4,369.1 430.4,328 			"/>
		</g>
	</g>
</g>
</svg>
