<?xml version="1.0" encoding="utf-8"?>
<!-- Generator: Adobe Illustrator 22.0.1, SVG Export Plug-In . SVG Version: 6.00 Build 0)  -->
<svg version="1.1" id="Layer_1" xmlns="http://www.w3.org/2000/svg" xmlns:xlink="http://www.w3.org/1999/xlink" x="0px" y="0px"
	 viewBox="0 0 600 600" enable-background="new 0 0 600 600" xml:space="preserve">
<g>
	<path fill="#DCE1E5" d="M64.8,324.7v8.3c-0.4,3.6,2,7.5,7.2,10.5l214.7,123.9c8.8,5.1,22.1,5.6,29.8,1.2l213.6-123.3
		c4.2-2.4,4.6-4.8,4.9-9.3v-5.1L64.8,324.7z"/>
	
		<linearGradient id="SVGID_1_" gradientUnits="userSpaceOnUse" x1="821.2028" y1="475.8132" x2="1228.7507" y2="475.8132" gradientTransform="matrix(0.866 -0.5 -1.5 -0.2887 126.0898 976.0056)">
		<stop  offset="0" style="stop-color:#B1BAC1"/>
		<stop  offset="1" style="stop-color:#828B94"/>
	</linearGradient>
	<path fill="url(#SVGID_1_)" d="M530.1,335.7L316.5,459c-7.6,4.4-21,3.9-29.8-1.2L72,333.8c-8.8-5.1-9.8-12.8-2.1-17.2l213.6-123.3
		c7.6-4.4,21-3.9,29.8,1.2l214.7,124C536.8,323.5,537.7,331.2,530.1,335.7z"/>
</g>
<g>
	<g>
		<polygon fill="#F4F7F9" points="131.4,301.5 192.7,266.2 254,301.6 192.7,336.9 		"/>
		<polygon fill="#CCD2D6" points="254,301.6 254,336.8 192.7,372.3 192.7,336.9 		"/>
		<g>
			<polygon fill="#DCE1E5" points="131.4,301.5 131.4,336.9 192.7,372.3 192.7,336.9 			"/>
		</g>
		<g>
			<polygon fill="#F78696" points="192.7,356.1 131.4,320.7 131.4,317.8 192.7,353.1 			"/>
			<polygon fill="#E84B54" points="192.7,356.1 254,320.8 254,317.8 192.7,353.1 			"/>
		</g>
		<g>
			<polygon fill="#C2CCD3" points="177.4,310.4 162.1,301.5 192.7,283.9 192.8,301.5 			"/>
		</g>
		<polygon fill="#828B94" points="192.7,283.9 223.2,301.5 208,310.4 192.8,301.5 		"/>
	</g>
	<g>
		<polygon fill="#F4F7F9" points="238.8,363.3 300,328 361.4,363.4 300,398.7 		"/>
		<polygon fill="#CCD2D6" points="361.4,363.4 361.4,398.6 300,434 300,398.7 		"/>
		<g>
			<polygon fill="#DCE1E5" points="238.8,363.3 238.8,398.7 300,434 300,398.7 			"/>
		</g>
		<g>
			<polygon fill="#F78696" points="300,417.9 238.8,382.5 238.8,379.5 300,414.9 			"/>
			<polygon fill="#E84B54" points="300,417.9 361.4,382.6 361.4,379.6 300,414.9 			"/>
		</g>
		<g>
			<polygon fill="#C2CCD3" points="284.7,372.2 269.5,363.3 300,345.6 300.1,363.3 			"/>
		</g>
		<polygon fill="#828B94" points="300,345.6 330.5,363.3 315.3,372.2 300.1,363.3 		"/>
	</g>
	<g>
		<polygon fill="#F4F7F9" points="239.1,240.1 300.3,204.8 361.7,240.2 300.3,275.5 		"/>
		<polygon fill="#CCD2D6" points="361.7,240.2 361.7,275.4 300.3,310.9 300.3,275.5 		"/>
		<g>
			<polygon fill="#DCE1E5" points="239.1,240.1 239.1,275.5 300.3,310.9 300.3,275.5 			"/>
		</g>
		<g>
			<polygon fill="#F78696" points="300.3,294.7 239.1,259.3 239.1,256.4 300.3,291.7 			"/>
			<polygon fill="#E84B54" points="300.3,294.7 361.7,259.4 361.7,256.4 300.3,291.7 			"/>
		</g>
		<g>
			<polygon fill="#C2CCD3" points="285,249 269.8,240.1 300.3,222.5 300.4,240.1 			"/>
		</g>
		<polygon fill="#828B94" points="300.3,222.5 330.8,240.1 315.6,249 300.4,240.1 		"/>
	</g>
	<g>
		<polygon fill="#F4F7F9" points="346,301.5 407.2,266.1 468.6,301.5 407.2,336.8 		"/>
		<polygon fill="#CCD2D6" points="468.6,301.5 468.6,336.8 407.2,372.2 407.2,336.8 		"/>
		<g>
			<polygon fill="#DCE1E5" points="346,301.5 346,336.8 407.2,372.2 407.2,336.8 			"/>
		</g>
		<g>
			<polygon fill="#F78696" points="407.2,356 346,320.7 346,317.7 407.2,353.1 			"/>
			<polygon fill="#E84B54" points="407.2,356 468.6,320.7 468.6,317.8 407.2,353.1 			"/>
		</g>
		<g>
			<polygon fill="#C2CCD3" points="391.9,310.3 376.7,301.4 407.2,283.8 407.3,301.4 			"/>
		</g>
		<polygon fill="#828B94" points="407.2,283.8 437.7,301.4 422.5,310.3 407.3,301.4 		"/>
	</g>
</g>
<g id="top-layer">
	<g>
		<polygon fill="#FFFFFF" points="131.4,264.1 192.7,228.8 254,264.2 192.7,299.5 		"/>
		<polygon fill="#CCD2D6" points="254,264.2 254,299.4 192.7,334.9 192.7,299.5 		"/>
		<g>
			<polygon fill="#DCE1E5" points="131.4,264.1 131.4,299.5 192.7,334.9 192.7,299.5 			"/>
		</g>
	</g>
	<g>
		<polygon fill="#FFFFFF" points="238.8,325.9 300,290.6 361.4,326 300,361.3 		"/>
		<polygon fill="#CCD2D6" points="361.4,326 361.4,361.2 300,396.6 300,361.3 		"/>
		<g>
			<polygon fill="#DCE1E5" points="238.8,325.9 238.8,361.3 300,396.6 300,361.3 			"/>
		</g>
	</g>
	<g>
		<polygon fill="#FFFFFF" points="239.1,202.7 300.3,167.4 361.7,202.8 300.3,238.1 		"/>
		<polygon fill="#CCD2D6" points="361.7,202.8 361.7,238 300.3,273.5 300.3,238.1 		"/>
		<g>
			<polygon fill="#DCE1E5" points="239.1,202.7 239.1,238.1 300.3,273.5 300.3,238.1 			"/>
		</g>
	</g>
	<g>
		<polygon fill="#FFFFFF" points="346,264.1 407.2,228.7 468.6,264.1 407.2,299.4 		"/>
		<polygon fill="#CCD2D6" points="468.6,264.1 468.6,299.4 407.2,334.8 407.2,299.4 		"/>
		<g>
			<polygon fill="#DCE1E5" points="346,264.1 346,299.4 407.2,334.8 407.2,299.4 			"/>
		</g>
	</g>
</g>
</svg>
