<svg xmlns="http://www.w3.org/2000/svg" viewBox="0 0 1300.19 355.26"><title>landing-bg</title><g id="Layer_2" data-name="Layer 2"><g opacity="0.1"><path d="M607.73,191.05a3.24,3.24,0,1,1,3.23-3.23A3.24,3.24,0,0,1,607.73,191.05Zm0-5.47a2.24,2.24,0,1,0,2.23,2.24A2.24,2.24,0,0,0,607.73,185.58Z" transform="translate(0.07 -37.93)" fill="#e84b54"/></g><circle cx="505.11" cy="61.81" r="2" fill="#dce1e5"/><path d="M410,298.56a.5.5,0,0,1-.36-.14.51.51,0,0,1,0-.71l2.61-2.61a.5.5,0,0,1,.7,0,.5.5,0,0,1,0,.71l-2.6,2.61A.49.49,0,0,1,410,298.56Z" transform="translate(0.07 -37.93)" fill="#dce1e5"/><path d="M400.06,308.47a.49.49,0,0,1-.35-.15.5.5,0,0,1,0-.71l2.6-2.6a.5.5,0,0,1,.71,0,.48.48,0,0,1,0,.7l-2.6,2.61A.51.51,0,0,1,400.06,308.47Z" transform="translate(0.07 -37.93)" fill="#dce1e5"/><path d="M412.57,308.47a.49.49,0,0,1-.35-.15l-2.61-2.61a.5.5,0,0,1,0-.7.5.5,0,0,1,.71,0l2.6,2.6a.5.5,0,0,1,0,.71A.47.47,0,0,1,412.57,308.47Z" transform="translate(0.07 -37.93)" fill="#dce1e5"/><path d="M402.67,298.56a.5.5,0,0,1-.36-.14l-2.6-2.61a.5.5,0,0,1,0-.71.51.51,0,0,1,.71,0l2.6,2.61a.5.5,0,0,1,0,.71A.47.47,0,0,1,402.67,298.56Z" transform="translate(0.07 -37.93)" fill="#dce1e5"/><g opacity="0.1"><path d="M38.36,212.19A3.24,3.24,0,1,1,41.6,209,3.23,3.23,0,0,1,38.36,212.19Zm0-5.47A2.24,2.24,0,1,0,40.6,209,2.23,2.23,0,0,0,38.36,206.72Z" transform="translate(0.07 -37.93)" fill="#e84b54"/></g><path d="M125,211a.54.54,0,0,1-.35-.14.5.5,0,0,1,0-.71l1.12-1.12a.5.5,0,0,1,.71,0,.51.51,0,0,1,0,.71l-1.12,1.12A.54.54,0,0,1,125,211Z" transform="translate(0.07 -37.93)" fill="#dce1e5"/><path d="M120.77,215.29a.47.47,0,0,1-.35-.15.5.5,0,0,1,0-.71l1.12-1.12a.5.5,0,0,1,.7,0,.5.5,0,0,1,0,.71l-1.12,1.12A.49.49,0,0,1,120.77,215.29Z" transform="translate(0.07 -37.93)" fill="#dce1e5"/><path d="M126.14,215.29a.5.5,0,0,1-.35-.15L124.67,214a.5.5,0,0,1,0-.71.51.51,0,0,1,.71,0l1.12,1.12a.51.51,0,0,1,0,.71A.51.51,0,0,1,126.14,215.29Z" transform="translate(0.07 -37.93)" fill="#dce1e5"/><path d="M121.89,211a.5.5,0,0,1-.35-.14l-1.12-1.12a.5.5,0,0,1,0-.71.48.48,0,0,1,.7,0l1.12,1.12a.5.5,0,0,1,0,.71A.52.52,0,0,1,121.89,211Z" transform="translate(0.07 -37.93)" fill="#dce1e5"/><circle cx="436.14" cy="173.56" r="2" fill="#dce1e5"/><g opacity="0.1"><path d="M514.38,148.21a3.24,3.24,0,1,1,3.23-3.24A3.24,3.24,0,0,1,514.38,148.21Zm0-5.47a2.24,2.24,0,1,0,2.23,2.23A2.23,2.23,0,0,0,514.38,142.74Z" transform="translate(0.07 -37.93)" fill="#e84b54"/></g><g opacity="0.1"><path d="M752.35,122.38l-3.79-5.16a.14.14,0,0,0-.24,0l-2.57,5.87a.13.13,0,0,0,.14.19l6.37-.71A.14.14,0,0,0,752.35,122.38Z" transform="translate(0.07 -37.93)" fill="#e84b54"/></g><path d="M254,383.16l-1.72,4.54a.11.11,0,0,0,.12.14l4.79-.78a.11.11,0,0,0,.06-.17l-3.07-3.76A.11.11,0,0,0,254,383.16Z" transform="translate(0.07 -37.93)" fill="#dce1e5"/><g opacity="0.1"><path d="M224.83,206.93,221.2,196.5a.14.14,0,0,0-.24,0l-7.22,8.36a.14.14,0,0,0,.08.22l10.85,2.08A.15.15,0,0,0,224.83,206.93Z" transform="translate(0.07 -37.93)" fill="#e84b54"/></g><circle cx="208.72" cy="111.96" r="4.92" fill="#dce1e5"/><g opacity="0.1"><path d="M462.37,83.19l-2.11-6a.14.14,0,0,0-.23,0l-4.19,4.85a.14.14,0,0,0,.07.23l6.3,1.2A.14.14,0,0,0,462.37,83.19Z" transform="translate(0.07 -37.93)" fill="#e84b54"/></g><path d="M49.18,96.9a.5.5,0,0,1-.5-.5V92.83a.5.5,0,0,1,1,0V96.4A.5.5,0,0,1,49.18,96.9Z" transform="translate(0.07 -37.93)" fill="#dce1e5"/><path d="M49.18,84.3a.5.5,0,0,1-.5-.5V80.24a.5.5,0,0,1,1,0V83.8A.5.5,0,0,1,49.18,84.3Z" transform="translate(0.07 -37.93)" fill="#dce1e5"/><path d="M44.67,88.82H41.1a.5.5,0,0,1-.5-.5.5.5,0,0,1,.5-.5h3.57a.5.5,0,0,1,.5.5A.51.51,0,0,1,44.67,88.82Z" transform="translate(0.07 -37.93)" fill="#dce1e5"/><path d="M57.26,88.82H53.69a.51.51,0,0,1-.5-.5.5.5,0,0,1,.5-.5h3.57a.5.5,0,0,1,.5.5A.51.51,0,0,1,57.26,88.82Z" transform="translate(0.07 -37.93)" fill="#dce1e5"/><path d="M43.47,94.53a.51.51,0,0,1-.36-.15.5.5,0,0,1,0-.7l2.52-2.52a.5.5,0,0,1,.71,0,.48.48,0,0,1,0,.7l-2.52,2.52A.49.49,0,0,1,43.47,94.53Z" transform="translate(0.07 -37.93)" fill="#dce1e5"/><path d="M52.37,85.63a.49.49,0,0,1-.35-.15.5.5,0,0,1,0-.71l2.52-2.52a.5.5,0,1,1,.71.71l-2.52,2.52A.51.51,0,0,1,52.37,85.63Z" transform="translate(0.07 -37.93)" fill="#dce1e5"/><path d="M46,85.63a.51.51,0,0,1-.36-.15L43.11,83a.5.5,0,1,1,.71-.71l2.52,2.52a.5.5,0,0,1,0,.71A.49.49,0,0,1,46,85.63Z" transform="translate(0.07 -37.93)" fill="#dce1e5"/><path d="M54.89,94.53a.49.49,0,0,1-.35-.15L52,91.86a.48.48,0,0,1,0-.7.5.5,0,0,1,.71,0l2.52,2.52a.5.5,0,0,1,0,.7A.51.51,0,0,1,54.89,94.53Z" transform="translate(0.07 -37.93)" fill="#dce1e5"/><circle cx="129.68" cy="98.02" r="2" fill="#dce1e5"/><path d="M307,131.43a.51.51,0,0,1-.36-.15.5.5,0,0,1,0-.7l1.12-1.12a.5.5,0,0,1,.71,0,.48.48,0,0,1,0,.7l-1.12,1.12A.5.5,0,0,1,307,131.43Z" transform="translate(0.07 -37.93)" fill="#dce1e5"/><path d="M302.78,135.69a.49.49,0,0,1-.35-.15.5.5,0,0,1,0-.71l1.12-1.12a.5.5,0,0,1,.71.71l-1.12,1.12A.51.51,0,0,1,302.78,135.69Z" transform="translate(0.07 -37.93)" fill="#dce1e5"/><path d="M308.16,135.69a.51.51,0,0,1-.36-.15l-1.12-1.12a.5.5,0,1,1,.71-.71l1.12,1.12a.5.5,0,0,1,0,.71A.5.5,0,0,1,308.16,135.69Z" transform="translate(0.07 -37.93)" fill="#dce1e5"/><path d="M303.9,131.43a.49.49,0,0,1-.35-.15l-1.12-1.12a.48.48,0,0,1,0-.7.5.5,0,0,1,.71,0l1.12,1.12a.5.5,0,0,1,0,.7A.51.51,0,0,1,303.9,131.43Z" transform="translate(0.07 -37.93)" fill="#dce1e5"/><g opacity="0.1"><path d="M119.2,76.68l-3.8-5.17a.14.14,0,0,0-.24,0l-2.57,5.87a.13.13,0,0,0,.14.19l6.37-.7A.14.14,0,0,0,119.2,76.68Z" transform="translate(0.07 -37.93)" fill="#e84b54"/></g><path d="M64.87,169.1l-1.71,4.54a.1.1,0,0,0,.11.14l4.79-.78a.11.11,0,0,0,.07-.17l-3.08-3.76A.11.11,0,0,0,64.87,169.1Z" transform="translate(0.07 -37.93)" fill="#dce1e5"/><g opacity="0.1"><path d="M184.46,112.09,182.35,106a.13.13,0,0,0-.23,0l-4.19,4.85a.14.14,0,0,0,.08.22l6.29,1.21A.14.14,0,0,0,184.46,112.09Z" transform="translate(0.07 -37.93)" fill="#e84b54"/></g><path d="M596.39,40.05a.47.47,0,0,1-.35-.15.48.48,0,0,1,0-.7l1.12-1.12a.49.49,0,0,1,.7.7l-1.12,1.12A.47.47,0,0,1,596.39,40.05Z" transform="translate(0.07 -37.93)" fill="#dce1e5"/><path d="M592.14,44.3a.5.5,0,0,1-.36-.14.51.51,0,0,1,0-.71l1.12-1.12a.5.5,0,0,1,.71.71l-1.12,1.12A.49.49,0,0,1,592.14,44.3Z" transform="translate(0.07 -37.93)" fill="#dce1e5"/><path d="M597.51,44.3a.46.46,0,0,1-.35-.14L596,43a.5.5,0,0,1,0-.71.5.5,0,0,1,.7,0l1.12,1.12a.5.5,0,0,1,0,.71A.46.46,0,0,1,597.51,44.3Z" transform="translate(0.07 -37.93)" fill="#dce1e5"/><path d="M593.26,40.05a.51.51,0,0,1-.36-.15l-1.12-1.12a.5.5,0,0,1,0-.7.5.5,0,0,1,.71,0l1.12,1.12a.5.5,0,0,1-.35.85Z" transform="translate(0.07 -37.93)" fill="#dce1e5"/><path d="M724.86,217.43a.5.5,0,0,1-.5-.5v-3a.5.5,0,0,1,.5-.5.5.5,0,0,1,.5.5v3A.5.5,0,0,1,724.86,217.43Z" transform="translate(0.07 -37.93)" fill="#dce1e5"/><path d="M724.86,206.73a.5.5,0,0,1-.5-.5v-3a.5.5,0,0,1,.5-.5.5.5,0,0,1,.5.5v3A.5.5,0,0,1,724.86,206.73Z" transform="translate(0.07 -37.93)" fill="#dce1e5"/><path d="M721,210.57h-3a.5.5,0,0,1-.5-.5.5.5,0,0,1,.5-.5h3a.5.5,0,0,1,.5.5A.51.51,0,0,1,721,210.57Z" transform="translate(0.07 -37.93)" fill="#dce1e5"/><path d="M731.72,210.57h-3a.51.51,0,0,1-.5-.5.5.5,0,0,1,.5-.5h3a.5.5,0,0,1,.5.5A.5.5,0,0,1,731.72,210.57Z" transform="translate(0.07 -37.93)" fill="#dce1e5"/><path d="M720,215.42a.5.5,0,0,1-.35-.85l2.14-2.14a.5.5,0,0,1,.71,0,.5.5,0,0,1,0,.7l-2.15,2.15A.5.5,0,0,1,720,215.42Z" transform="translate(0.07 -37.93)" fill="#dce1e5"/><path d="M727.57,207.85a.5.5,0,0,1-.35-.85l2.14-2.14a.5.5,0,0,1,.71,0,.5.5,0,0,1,0,.7l-2.15,2.15A.5.5,0,0,1,727.57,207.85Z" transform="translate(0.07 -37.93)" fill="#dce1e5"/><path d="M722.14,207.85a.52.52,0,0,1-.35-.14l-2.14-2.15a.49.49,0,0,1,.7-.7L722.5,207a.51.51,0,0,1,0,.71A.54.54,0,0,1,722.14,207.85Z" transform="translate(0.07 -37.93)" fill="#dce1e5"/><path d="M729.71,215.42a.52.52,0,0,1-.35-.14l-2.14-2.15a.49.49,0,1,1,.7-.7l2.15,2.14a.51.51,0,0,1,0,.71A.54.54,0,0,1,729.71,215.42Z" transform="translate(0.07 -37.93)" fill="#dce1e5"/><path d="M814,292.48a.51.51,0,0,1-.5-.5v-3a.5.5,0,0,1,.5-.5.5.5,0,0,1,.5.5v3A.5.5,0,0,1,814,292.48Z" transform="translate(0.07 -37.93)" fill="#dce1e5"/><path d="M814,281.77a.5.5,0,0,1-.5-.5v-3a.51.51,0,0,1,.5-.5.5.5,0,0,1,.5.5v3A.5.5,0,0,1,814,281.77Z" transform="translate(0.07 -37.93)" fill="#dce1e5"/><path d="M810.2,285.61h-3a.5.5,0,0,1,0-1h3a.5.5,0,0,1,0,1Z" transform="translate(0.07 -37.93)" fill="#dce1e5"/><path d="M820.91,285.61h-3a.5.5,0,0,1,0-1h3a.5.5,0,0,1,0,1Z" transform="translate(0.07 -37.93)" fill="#dce1e5"/><path d="M809.19,290.47a.51.51,0,0,1-.36-.15.51.51,0,0,1,0-.71l2.14-2.14a.5.5,0,1,1,.71.71l-2.14,2.14A.5.5,0,0,1,809.19,290.47Z" transform="translate(0.07 -37.93)" fill="#dce1e5"/><path d="M816.75,282.9a.5.5,0,0,1-.35-.15.51.51,0,0,1,0-.71l2.14-2.14a.5.5,0,0,1,.71.71l-2.14,2.14A.51.51,0,0,1,816.75,282.9Z" transform="translate(0.07 -37.93)" fill="#dce1e5"/><path d="M811.33,282.9a.51.51,0,0,1-.36-.15l-2.14-2.14a.51.51,0,0,1,0-.71.5.5,0,0,1,.71,0l2.14,2.14a.5.5,0,0,1,0,.71A.49.49,0,0,1,811.33,282.9Z" transform="translate(0.07 -37.93)" fill="#dce1e5"/><path d="M818.9,290.47a.51.51,0,0,1-.36-.15l-2.14-2.14a.51.51,0,0,1,0-.71.5.5,0,0,1,.71,0l2.14,2.14a.5.5,0,0,1,0,.71A.49.49,0,0,1,818.9,290.47Z" transform="translate(0.07 -37.93)" fill="#dce1e5"/><path d="M736,40.94l-1.71,4.54a.11.11,0,0,0,.11.14l4.8-.79a.11.11,0,0,0,.06-.17l-3.08-3.75A.11.11,0,0,0,736,40.94Z" transform="translate(0.07 -37.93)" fill="#dce1e5"/><g opacity="0.1"><path d="M494.86,218.27a11,11,0,1,1,11-11A11,11,0,0,1,494.86,218.27Zm0-20.94a10,10,0,1,0,10,10A10,10,0,0,0,494.86,197.33Z" transform="translate(0.07 -37.93)" fill="#e84b54"/></g><g opacity="0.1"><path d="M629.56,285.09a11,11,0,1,1,11-11A11,11,0,0,1,629.56,285.09Zm0-20.94a10,10,0,1,0,10,10A10,10,0,0,0,629.56,264.15Z" transform="translate(0.07 -37.93)" fill="#e84b54"/></g><circle cx="274.11" cy="164.05" r="2" fill="#dce1e5"/><g opacity="0.1"><path d="M616.75,209.09A12.26,12.26,0,1,1,629,196.84,12.27,12.27,0,0,1,616.75,209.09Zm0-23.51A11.26,11.26,0,1,0,628,196.84,11.27,11.27,0,0,0,616.75,185.58Z" transform="translate(0.07 -37.93)" fill="#e84b54"/></g><circle cx="610.62" cy="185.06" r="2" fill="#dce1e5"/><path d="M400.42,176.35a.49.49,0,0,1-.35-.15L399,175.08a.49.49,0,1,1,.7-.7l1.12,1.12a.48.48,0,0,1,0,.7A.47.47,0,0,1,400.42,176.35Z" transform="translate(0.07 -37.93)" fill="#dce1e5"/><path d="M396.17,172.1a.51.51,0,0,1-.36-.15l-1.12-1.12a.5.5,0,1,1,.71-.71l1.12,1.12a.5.5,0,0,1,0,.71A.5.5,0,0,1,396.17,172.1Z" transform="translate(0.07 -37.93)" fill="#dce1e5"/><path d="M399.3,172.1A.49.49,0,0,1,399,172a.5.5,0,0,1,0-.71l1.12-1.12a.5.5,0,0,1,.7,0,.5.5,0,0,1,0,.71L399.65,172A.47.47,0,0,1,399.3,172.1Z" transform="translate(0.07 -37.93)" fill="#dce1e5"/><path d="M395.05,176.35a.51.51,0,0,1-.36-.15.5.5,0,0,1,0-.7l1.12-1.12a.5.5,0,0,1,.71,0,.48.48,0,0,1,0,.7l-1.12,1.12A.5.5,0,0,1,395.05,176.35Z" transform="translate(0.07 -37.93)" fill="#dce1e5"/><g opacity="0.1"><path d="M45.53,174.55a3.24,3.24,0,1,1,3.24-3.24A3.24,3.24,0,0,1,45.53,174.55Zm0-5.47a2.24,2.24,0,1,0,2.24,2.23A2.23,2.23,0,0,0,45.53,169.08Z" transform="translate(0.07 -37.93)" fill="#e84b54"/></g><path d="M126.14,184.76a.5.5,0,0,1-.35-.15l-1.12-1.12a.48.48,0,0,1,0-.7.5.5,0,0,1,.71,0l1.12,1.12a.5.5,0,0,1,0,.7A.51.51,0,0,1,126.14,184.76Z" transform="translate(0.07 -37.93)" fill="#dce1e5"/><path d="M121.89,180.5a.46.46,0,0,1-.35-.14l-1.12-1.12a.5.5,0,0,1,0-.71.5.5,0,0,1,.7,0l1.12,1.12a.5.5,0,0,1,0,.71A.47.47,0,0,1,121.89,180.5Z" transform="translate(0.07 -37.93)" fill="#dce1e5"/><path d="M125,180.5a.5.5,0,0,1-.35-.85l1.12-1.12a.5.5,0,1,1,.71.71l-1.12,1.12A.5.5,0,0,1,125,180.5Z" transform="translate(0.07 -37.93)" fill="#dce1e5"/><path d="M120.77,184.76a.47.47,0,0,1-.35-.15.48.48,0,0,1,0-.7l1.12-1.12a.49.49,0,1,1,.7.7l-1.12,1.12A.49.49,0,0,1,120.77,184.76Z" transform="translate(0.07 -37.93)" fill="#dce1e5"/><circle cx="464.71" cy="136.12" r="2" fill="#dce1e5"/><g opacity="0.1"><path d="M514.38,231.93a3.24,3.24,0,1,1,3.23-3.23A3.24,3.24,0,0,1,514.38,231.93Zm0-5.47a2.24,2.24,0,1,0,2.23,2.24A2.24,2.24,0,0,0,514.38,226.46Z" transform="translate(0.07 -37.93)" fill="#e84b54"/></g><g opacity="0.1"><path d="M752.35,251.29l-3.79,5.16a.14.14,0,0,1-.24,0l-2.57-5.86a.14.14,0,0,1,.14-.2l6.37.71A.14.14,0,0,1,752.35,251.29Z" transform="translate(0.07 -37.93)" fill="#e84b54"/></g><path d="M648.49,235.24l-1.72-4.54a.11.11,0,0,1,.12-.14l4.79.79a.1.1,0,0,1,.06.16l-3.07,3.76A.11.11,0,0,1,648.49,235.24Z" transform="translate(0.07 -37.93)" fill="#dce1e5"/><g opacity="0.1"><path d="M279,59.1l-6.7,19.24a.14.14,0,0,1-.24,0L258.73,63a.14.14,0,0,1,.08-.23l20-3.82A.14.14,0,0,1,279,59.1Z" transform="translate(0.07 -37.93)" fill="#e84b54"/></g><circle cx="205.8" cy="182.93" r="2" fill="#dce1e5"/><g opacity="0.1"><path d="M462.37,220.48l-2.11,6.06a.13.13,0,0,1-.23,0l-4.19-4.85a.14.14,0,0,1,.07-.23l6.3-1.2A.14.14,0,0,1,462.37,220.48Z" transform="translate(0.07 -37.93)" fill="#e84b54"/></g><path d="M65.42,213.77a.51.51,0,0,1-.5-.5v-2.13a.5.5,0,0,1,.5-.5.5.5,0,0,1,.5.5v2.13A.5.5,0,0,1,65.42,213.77Z" transform="translate(0.07 -37.93)" fill="#dce1e5"/><path d="M65.42,221.27a.5.5,0,0,1-.5-.5v-2.12a.5.5,0,0,1,.5-.5.5.5,0,0,1,.5.5v2.12A.5.5,0,0,1,65.42,221.27Z" transform="translate(0.07 -37.93)" fill="#dce1e5"/><path d="M62.73,216.46H60.61a.5.5,0,0,1-.5-.5.5.5,0,0,1,.5-.5h2.12a.5.5,0,0,1,.5.5A.5.5,0,0,1,62.73,216.46Z" transform="translate(0.07 -37.93)" fill="#dce1e5"/><path d="M70.24,216.46H68.11a.51.51,0,0,1-.5-.5.5.5,0,0,1,.5-.5h2.13a.5.5,0,0,1,.5.5A.51.51,0,0,1,70.24,216.46Z" transform="translate(0.07 -37.93)" fill="#dce1e5"/><path d="M63.52,214.55a.5.5,0,0,1-.35-.14l-1.51-1.51a.5.5,0,0,1,0-.7.5.5,0,0,1,.71,0l1.5,1.5a.5.5,0,0,1-.35.85Z" transform="translate(0.07 -37.93)" fill="#dce1e5"/><path d="M68.83,219.86a.54.54,0,0,1-.36-.14L67,218.21a.5.5,0,0,1,0-.7.5.5,0,0,1,.71,0l1.5,1.5a.5.5,0,0,1,0,.71A.52.52,0,0,1,68.83,219.86Z" transform="translate(0.07 -37.93)" fill="#dce1e5"/><path d="M62,219.86a.54.54,0,0,1-.36-.14.51.51,0,0,1,0-.71l1.51-1.5a.49.49,0,0,1,.7.7l-1.5,1.51A.52.52,0,0,1,62,219.86Z" transform="translate(0.07 -37.93)" fill="#dce1e5"/><path d="M67.33,214.55a.54.54,0,0,1-.36-.14.51.51,0,0,1,0-.71l1.5-1.5a.5.5,0,0,1,.71,0,.48.48,0,0,1,0,.7l-1.5,1.51A.54.54,0,0,1,67.33,214.55Z" transform="translate(0.07 -37.93)" fill="#dce1e5"/><circle cx="300.96" cy="307.99" r="2" fill="#dce1e5"/><path d="M308.16,244.36a.51.51,0,0,1-.36-.15l-1.12-1.12a.5.5,0,0,1,0-.7.5.5,0,0,1,.71,0l1.12,1.12a.48.48,0,0,1,0,.7A.5.5,0,0,1,308.16,244.36Z" transform="translate(0.07 -37.93)" fill="#dce1e5"/><path d="M303.9,240.11a.49.49,0,0,1-.35-.15l-1.12-1.12a.5.5,0,0,1,0-.71.51.51,0,0,1,.71,0l1.12,1.12a.51.51,0,0,1,0,.71A.51.51,0,0,1,303.9,240.11Z" transform="translate(0.07 -37.93)" fill="#dce1e5"/><path d="M307,240.11a.51.51,0,0,1-.36-.15.51.51,0,0,1,0-.71l1.12-1.12a.51.51,0,0,1,.71,0,.5.5,0,0,1,0,.71L307.39,240A.5.5,0,0,1,307,240.11Z" transform="translate(0.07 -37.93)" fill="#dce1e5"/><path d="M302.78,244.36a.5.5,0,0,1-.35-.85l1.12-1.12a.5.5,0,0,1,.71,0,.5.5,0,0,1,0,.7l-1.12,1.12A.51.51,0,0,1,302.78,244.36Z" transform="translate(0.07 -37.93)" fill="#dce1e5"/><g opacity="0.1"><path d="M122.32,221.28l-3.8,5.16a.14.14,0,0,1-.24,0l-2.57-5.87a.13.13,0,0,1,.14-.19l6.37.7A.14.14,0,0,1,122.32,221.28Z" transform="translate(0.07 -37.93)" fill="#e84b54"/></g><path d="M80,218.91l-6.36-16.86a.1.1,0,0,1,.11-.14l17.78,2.92a.11.11,0,0,1,.06.17L80.19,218.94A.11.11,0,0,1,80,218.91Z" transform="translate(0.07 -37.93)" fill="#dce1e5"/><g opacity="0.1"><path d="M184.46,261.59l-2.11,6.05a.13.13,0,0,1-.23,0l-4.19-4.85a.14.14,0,0,1,.08-.22l6.29-1.2A.14.14,0,0,1,184.46,261.59Z" transform="translate(0.07 -37.93)" fill="#e84b54"/></g><path d="M950.48,129.43a.5.5,0,0,1-.5-.5v-3.58a.5.5,0,0,1,.5-.5.51.51,0,0,1,.5.5v3.58A.5.5,0,0,1,950.48,129.43Z" transform="translate(0.07 -37.93)" fill="#dce1e5"/><path d="M950.48,142.08a.5.5,0,0,1-.5-.5V138a.5.5,0,0,1,.5-.5.5.5,0,0,1,.5.5v3.58A.51.51,0,0,1,950.48,142.08Z" transform="translate(0.07 -37.93)" fill="#dce1e5"/><path d="M945.94,134h-3.58a.51.51,0,0,1-.5-.5.5.5,0,0,1,.5-.5h3.58a.5.5,0,0,1,.5.5A.5.5,0,0,1,945.94,134Z" transform="translate(0.07 -37.93)" fill="#dce1e5"/><path d="M958.59,134H955a.5.5,0,0,1-.5-.5.5.5,0,0,1,.5-.5h3.58a.5.5,0,0,1,.5.5A.5.5,0,0,1,958.59,134Z" transform="translate(0.07 -37.93)" fill="#dce1e5"/><path d="M947.27,130.76a.47.47,0,0,1-.35-.15l-2.53-2.53a.49.49,0,0,1,.7-.7l2.53,2.53a.48.48,0,0,1,0,.7A.47.47,0,0,1,947.27,130.76Z" transform="translate(0.07 -37.93)" fill="#dce1e5"/><path d="M956.21,139.7a.52.52,0,0,1-.35-.14L953.33,137a.48.48,0,0,1,0-.7.5.5,0,0,1,.71,0l2.53,2.53a.51.51,0,0,1,0,.71A.54.54,0,0,1,956.21,139.7Z" transform="translate(0.07 -37.93)" fill="#dce1e5"/><path d="M944.74,139.7a.5.5,0,0,1-.35-.85l2.53-2.53a.49.49,0,0,1,.7.7l-2.53,2.54A.5.5,0,0,1,944.74,139.7Z" transform="translate(0.07 -37.93)" fill="#dce1e5"/><path d="M953.68,130.76a.5.5,0,0,1-.35-.85l2.53-2.53a.5.5,0,0,1,.71,0,.5.5,0,0,1,0,.7L954,130.61A.51.51,0,0,1,953.68,130.76Z" transform="translate(0.07 -37.93)" fill="#dce1e5"/><path d="M699.87,271.65l-1.71-4.54a.1.1,0,0,1,.11-.14l4.79.79a.11.11,0,0,1,.07.17l-3.08,3.75A.11.11,0,0,1,699.87,271.65Z" transform="translate(0.07 -37.93)" fill="#dce1e5"/><g opacity="0.1"><path d="M550.7,160.64a3.24,3.24,0,1,1,3.24-3.24A3.24,3.24,0,0,1,550.7,160.64Zm0-5.47a2.24,2.24,0,1,0,2.24,2.23A2.24,2.24,0,0,0,550.7,155.17Z" transform="translate(0.07 -37.93)" fill="#e84b54"/></g><circle cx="283.61" cy="133.23" r="2" fill="#dce1e5"/><g opacity="0.1"><path d="M498.38,262.21a3.24,3.24,0,1,1,3.23-3.24A3.24,3.24,0,0,1,498.38,262.21Zm0-5.47a2.24,2.24,0,1,0,2.23,2.23A2.23,2.23,0,0,0,498.38,256.74Z" transform="translate(0.07 -37.93)" fill="#e84b54"/></g><g opacity="0.1"><path d="M749.69,220.05l-3.8-5.16a.14.14,0,0,0-.24,0l-2.57,5.87a.15.15,0,0,0,.14.2l6.37-.71A.14.14,0,0,0,749.69,220.05Z" transform="translate(0.07 -37.93)" fill="#e84b54"/></g><g opacity="0.1"><path d="M446.37,267.19l-2.11-6.05a.14.14,0,0,0-.23-.05l-4.19,4.85a.14.14,0,0,0,.07.23l6.3,1.2A.14.14,0,0,0,446.37,267.19Z" transform="translate(0.07 -37.93)" fill="#e84b54"/></g><path d="M27.76,272.21a.5.5,0,0,1-.5-.5v-2.12a.5.5,0,0,1,1,0v2.12A.5.5,0,0,1,27.76,272.21Z" transform="translate(0.07 -37.93)" fill="#dce1e5"/><path d="M27.76,264.71a.5.5,0,0,1-.5-.5v-2.13a.5.5,0,0,1,1,0v2.13A.5.5,0,0,1,27.76,264.71Z" transform="translate(0.07 -37.93)" fill="#dce1e5"/><path d="M25.07,267.4H22.94a.5.5,0,1,1,0-1h2.13a.5.5,0,0,1,0,1Z" transform="translate(0.07 -37.93)" fill="#dce1e5"/><path d="M32.58,267.4H30.45a.5.5,0,1,1,0-1h2.13a.5.5,0,0,1,0,1Z" transform="translate(0.07 -37.93)" fill="#dce1e5"/><path d="M24.35,270.8a.49.49,0,0,1-.35-.14.51.51,0,0,1,0-.71l1.5-1.5a.5.5,0,0,1,.71.71l-1.5,1.5A.5.5,0,0,1,24.35,270.8Z" transform="translate(0.07 -37.93)" fill="#dce1e5"/><path d="M29.66,265.5a.5.5,0,0,1-.35-.15.5.5,0,0,1,0-.71l1.5-1.5a.5.5,0,0,1,.71.71l-1.5,1.5A.51.51,0,0,1,29.66,265.5Z" transform="translate(0.07 -37.93)" fill="#dce1e5"/><path d="M25.86,265.5a.51.51,0,0,1-.36-.15l-1.5-1.5a.5.5,0,0,1,.71-.71l1.5,1.5a.5.5,0,0,1,0,.71A.5.5,0,0,1,25.86,265.5Z" transform="translate(0.07 -37.93)" fill="#dce1e5"/><path d="M31.17,270.8a.5.5,0,0,1-.36-.14l-1.5-1.5a.5.5,0,0,1,.71-.71l1.5,1.5a.51.51,0,0,1,0,.71A.49.49,0,0,1,31.17,270.8Z" transform="translate(0.07 -37.93)" fill="#dce1e5"/><path d="M291,245.43a.51.51,0,0,1-.36-.15.5.5,0,0,1,0-.7l1.12-1.12a.5.5,0,0,1,.71,0,.48.48,0,0,1,0,.7l-1.12,1.12A.5.5,0,0,1,291,245.43Z" transform="translate(0.07 -37.93)" fill="#dce1e5"/><path d="M286.78,249.68a.47.47,0,0,1-.35-.14.5.5,0,0,1,0-.71l1.12-1.12a.5.5,0,0,1,.71.71l-1.12,1.12A.5.5,0,0,1,286.78,249.68Z" transform="translate(0.07 -37.93)" fill="#dce1e5"/><path d="M292.16,249.68a.5.5,0,0,1-.36-.14l-1.12-1.12a.5.5,0,1,1,.71-.71l1.12,1.12a.5.5,0,0,1-.35.85Z" transform="translate(0.07 -37.93)" fill="#dce1e5"/><path d="M287.9,245.43a.49.49,0,0,1-.35-.15l-1.12-1.12a.48.48,0,0,1,0-.7.5.5,0,0,1,.71,0l1.12,1.12a.5.5,0,0,1,0,.7A.51.51,0,0,1,287.9,245.43Z" transform="translate(0.07 -37.93)" fill="#dce1e5"/><g opacity="0.1"><path d="M103.2,260.68l-3.8-5.17a.14.14,0,0,0-.24,0l-2.57,5.87a.13.13,0,0,0,.14.19l6.37-.7A.14.14,0,0,0,103.2,260.68Z" transform="translate(0.07 -37.93)" fill="#e84b54"/></g><path d="M48.87,283.1l-1.71,4.54a.1.1,0,0,0,.11.14l4.79-.78a.11.11,0,0,0,.07-.17l-3.08-3.76A.11.11,0,0,0,48.87,283.1Z" transform="translate(0.07 -37.93)" fill="#dce1e5"/><g opacity="0.1"><path d="M168.46,226.09,166.35,220a.13.13,0,0,0-.23,0l-4.19,4.85a.14.14,0,0,0,.08.22l6.29,1.21A.14.14,0,0,0,168.46,226.09Z" transform="translate(0.07 -37.93)" fill="#e84b54"/></g><path d="M592.69,212.89a.54.54,0,0,1-.35-.14.51.51,0,0,1,0-.71l1.12-1.12a.5.5,0,0,1,.71,0,.51.51,0,0,1,0,.71l-1.12,1.12A.54.54,0,0,1,592.69,212.89Z" transform="translate(0.07 -37.93)" fill="#dce1e5"/><path d="M588.44,217.15a.47.47,0,0,1-.35-.15.5.5,0,0,1,0-.71l1.12-1.12a.5.5,0,0,1,.7,0,.5.5,0,0,1,0,.71L588.79,217A.47.47,0,0,1,588.44,217.15Z" transform="translate(0.07 -37.93)" fill="#dce1e5"/><path d="M593.81,217.15a.5.5,0,0,1-.35-.15l-1.12-1.12a.5.5,0,1,1,.71-.71l1.12,1.12a.51.51,0,0,1,0,.71A.51.51,0,0,1,593.81,217.15Z" transform="translate(0.07 -37.93)" fill="#dce1e5"/><path d="M589.56,212.89a.5.5,0,0,1-.35-.14l-1.12-1.12a.5.5,0,0,1,0-.71.48.48,0,0,1,.7,0l1.12,1.12a.5.5,0,0,1-.35.85Z" transform="translate(0.07 -37.93)" fill="#dce1e5"/><path d="M720,224.94l-1.71,4.54a.11.11,0,0,0,.11.14l4.8-.79a.11.11,0,0,0,.06-.17l-3.08-3.75A.11.11,0,0,0,720,224.94Z" transform="translate(0.07 -37.93)" fill="#dce1e5"/><g opacity="0.1"><path d="M29.53,288.55a3.24,3.24,0,1,1,3.24-3.24A3.24,3.24,0,0,1,29.53,288.55Zm0-5.47a2.24,2.24,0,1,0,2.24,2.23A2.23,2.23,0,0,0,29.53,283.08Z" transform="translate(0.07 -37.93)" fill="#e84b54"/></g><path d="M575.13,271.73a.5.5,0,0,1-.5-.5v-4a.5.5,0,0,1,.5-.5.5.5,0,0,1,.5.5v4A.51.51,0,0,1,575.13,271.73Z" transform="translate(0.07 -37.93)" fill="#dce1e5"/><path d="M575.13,285.79a.5.5,0,0,1-.5-.5v-4a.5.5,0,0,1,.5-.5.51.51,0,0,1,.5.5v4A.5.5,0,0,1,575.13,285.79Z" transform="translate(0.07 -37.93)" fill="#dce1e5"/><path d="M570.08,276.77h-4a.51.51,0,0,1-.5-.5.5.5,0,0,1,.5-.5h4a.5.5,0,0,1,.5.5A.5.5,0,0,1,570.08,276.77Z" transform="translate(0.07 -37.93)" fill="#dce1e5"/><path d="M584.15,276.77h-4a.5.5,0,0,1-.5-.5.5.5,0,0,1,.5-.5h4a.5.5,0,0,1,.5.5A.5.5,0,0,1,584.15,276.77Z" transform="translate(0.07 -37.93)" fill="#dce1e5"/><path d="M571.56,273.2a.52.52,0,0,1-.35-.14l-2.82-2.82a.5.5,0,0,1,.71-.71l2.81,2.82a.5.5,0,0,1-.35.85Z" transform="translate(0.07 -37.93)" fill="#dce1e5"/><path d="M581.51,283.15a.51.51,0,0,1-.36-.15l-2.81-2.81a.5.5,0,0,1,0-.71.51.51,0,0,1,.71,0l2.81,2.82a.5.5,0,0,1-.35.85Z" transform="translate(0.07 -37.93)" fill="#dce1e5"/><path d="M568.75,283.15a.51.51,0,0,1-.36-.15.5.5,0,0,1,0-.7l2.82-2.82a.5.5,0,0,1,.7,0,.5.5,0,0,1,0,.71L569.1,283A.5.5,0,0,1,568.75,283.15Z" transform="translate(0.07 -37.93)" fill="#dce1e5"/><path d="M578.69,273.2a.52.52,0,0,1-.35-.14.5.5,0,0,1,0-.71l2.81-2.82a.51.51,0,0,1,.71,0,.5.5,0,0,1,0,.71l-2.81,2.82A.54.54,0,0,1,578.69,273.2Z" transform="translate(0.07 -37.93)" fill="#dce1e5"/><g opacity="0.1"><path d="M703.91,213.7a3.24,3.24,0,1,1,3.23-3.24A3.24,3.24,0,0,1,703.91,213.7Zm0-5.47a2.24,2.24,0,1,0,2.23,2.23A2.23,2.23,0,0,0,703.91,208.23Z" transform="translate(0.07 -37.93)" fill="#e84b54"/></g><circle cx="872.04" cy="125.96" r="2" fill="#dce1e5"/><path d="M908.25,203.92a.5.5,0,0,1-.35-.85l2.35-2.36a.5.5,0,0,1,.71.71l-2.36,2.35A.47.47,0,0,1,908.25,203.92Z" transform="translate(0.07 -37.93)" fill="#dce1e5"/><path d="M917.19,195a.5.5,0,0,1-.35-.15.51.51,0,0,1,0-.71l2.35-2.35a.51.51,0,0,1,.71,0,.5.5,0,0,1,0,.71l-2.35,2.35A.51.51,0,0,1,917.19,195Z" transform="translate(0.07 -37.93)" fill="#dce1e5"/><path d="M910.6,195a.5.5,0,0,1-.35-.15l-2.35-2.35a.5.5,0,0,1,0-.71.5.5,0,0,1,.7,0l2.36,2.35a.51.51,0,0,1,0,.71A.51.51,0,0,1,910.6,195Z" transform="translate(0.07 -37.93)" fill="#dce1e5"/><path d="M919.55,203.92a.51.51,0,0,1-.36-.15l-2.35-2.35a.5.5,0,1,1,.71-.71l2.35,2.36a.5.5,0,0,1-.35.85Z" transform="translate(0.07 -37.93)" fill="#dce1e5"/><path d="M677.08,382.77a.52.52,0,0,1-.35-.14.5.5,0,0,1,0-.71l2.35-2.35a.5.5,0,0,1,.71,0,.5.5,0,0,1,0,.7l-2.35,2.36A.54.54,0,0,1,677.08,382.77Z" transform="translate(0.07 -37.93)" fill="#dce1e5"/><path d="M686,373.83a.51.51,0,0,1-.36-.15.5.5,0,0,1,0-.7l2.36-2.36a.5.5,0,0,1,.7,0,.5.5,0,0,1,0,.71l-2.35,2.35A.5.5,0,0,1,686,373.83Z" transform="translate(0.07 -37.93)" fill="#dce1e5"/><path d="M679.44,373.83a.51.51,0,0,1-.36-.15l-2.35-2.35a.5.5,0,0,1,0-.71.51.51,0,0,1,.71,0l2.35,2.36a.5.5,0,0,1-.35.85Z" transform="translate(0.07 -37.93)" fill="#dce1e5"/><path d="M688.38,382.77a.5.5,0,0,1-.35-.14l-2.36-2.36a.5.5,0,0,1,0-.7.5.5,0,0,1,.71,0l2.35,2.35a.5.5,0,0,1,0,.71A.52.52,0,0,1,688.38,382.77Z" transform="translate(0.07 -37.93)" fill="#dce1e5"/><g opacity="0.1"><path d="M1265.3,172.4a3.24,3.24,0,1,1,3.24-3.24A3.24,3.24,0,0,1,1265.3,172.4Zm0-5.47a2.24,2.24,0,1,0,2.24,2.23A2.23,2.23,0,0,0,1265.3,166.93Z" transform="translate(0.07 -37.93)" fill="#e84b54"/></g><path d="M1185.49,209.37a.47.47,0,0,1-.35-.15.5.5,0,0,1,0-.71l1.12-1.11a.49.49,0,1,1,.7.7l-1.12,1.12A.47.47,0,0,1,1185.49,209.37Z" transform="translate(0.07 -37.93)" fill="#dce1e5"/><path d="M1189.74,205.11a.49.49,0,0,1-.35-.14.51.51,0,0,1,0-.71l1.12-1.12a.5.5,0,0,1,.71.71L1190.1,205A.5.5,0,0,1,1189.74,205.11Z" transform="translate(0.07 -37.93)" fill="#dce1e5"/><path d="M1186.61,205.11a.46.46,0,0,1-.35-.14l-1.12-1.12a.5.5,0,0,1,0-.71.5.5,0,0,1,.7,0l1.12,1.12a.5.5,0,0,1,0,.71A.46.46,0,0,1,1186.61,205.11Z" transform="translate(0.07 -37.93)" fill="#dce1e5"/><path d="M1190.86,209.37a.5.5,0,0,1-.35-.15l-1.12-1.12a.5.5,0,0,1,0-.7.5.5,0,0,1,.71,0l1.12,1.11a.51.51,0,0,1,0,.71A.51.51,0,0,1,1190.86,209.37Z" transform="translate(0.07 -37.93)" fill="#dce1e5"/><circle cx="869.25" cy="160.97" r="2" fill="#dce1e5"/><g opacity="0.1"><path d="M797.26,256.54a3.24,3.24,0,1,1,3.23-3.23A3.24,3.24,0,0,1,797.26,256.54Zm0-5.47a2.24,2.24,0,1,0,2.23,2.24A2.24,2.24,0,0,0,797.26,251.07Z" transform="translate(0.07 -37.93)" fill="#e84b54"/></g><g opacity="0.1"><path d="M559.28,205.9l3.79,5.16a.14.14,0,0,0,.24,0l2.58-5.86a.15.15,0,0,0-.15-.2l-6.37.71A.14.14,0,0,0,559.28,205.9Z" transform="translate(0.07 -37.93)" fill="#e84b54"/></g><g opacity="0.1"><path d="M1091.36,212.22l2.11,6.05a.13.13,0,0,0,.23,0l4.19-4.85a.13.13,0,0,0-.08-.22l-6.29-1.2A.14.14,0,0,0,1091.36,212.22Z" transform="translate(0.07 -37.93)" fill="#e84b54"/></g><circle cx="1105.98" cy="207.54" r="2" fill="#dce1e5"/><path d="M1267.87,243.19a.5.5,0,0,1-.5-.5v-2.12a.5.5,0,0,1,.5-.5.5.5,0,0,1,.5.5v2.12A.5.5,0,0,1,1267.87,243.19Z" transform="translate(0.07 -37.93)" fill="#dce1e5"/><path d="M1267.87,250.7a.51.51,0,0,1-.5-.5v-2.13a.51.51,0,0,1,.5-.5.5.5,0,0,1,.5.5v2.13A.5.5,0,0,1,1267.87,250.7Z" transform="translate(0.07 -37.93)" fill="#dce1e5"/><path d="M1272.69,245.88h-2.13a.5.5,0,0,1-.5-.5.51.51,0,0,1,.5-.5h2.13a.51.51,0,0,1,.5.5A.5.5,0,0,1,1272.69,245.88Z" transform="translate(0.07 -37.93)" fill="#dce1e5"/><path d="M1265.18,245.88h-2.12a.5.5,0,0,1-.5-.5.5.5,0,0,1,.5-.5h2.12a.5.5,0,0,1,.5.5A.5.5,0,0,1,1265.18,245.88Z" transform="translate(0.07 -37.93)" fill="#dce1e5"/><path d="M1269.78,244a.51.51,0,0,1-.36-.15.51.51,0,0,1,0-.71l1.5-1.5a.51.51,0,0,1,.71,0,.5.5,0,0,1,0,.71l-1.5,1.5A.5.5,0,0,1,1269.78,244Z" transform="translate(0.07 -37.93)" fill="#dce1e5"/><path d="M1264.47,249.29a.51.51,0,0,1-.36-.15.51.51,0,0,1,0-.71l1.51-1.5a.5.5,0,0,1,.7,0,.5.5,0,0,1,0,.71l-1.5,1.5A.49.49,0,0,1,1264.47,249.29Z" transform="translate(0.07 -37.93)" fill="#dce1e5"/><path d="M1271.28,249.29a.51.51,0,0,1-.36-.15l-1.5-1.5a.5.5,0,0,1,.71-.71l1.5,1.5a.5.5,0,0,1,0,.71A.49.49,0,0,1,1271.28,249.29Z" transform="translate(0.07 -37.93)" fill="#dce1e5"/><path d="M1266,244a.47.47,0,0,1-.35-.15l-1.51-1.5a.5.5,0,0,1,.71-.71l1.5,1.5a.5.5,0,0,1,0,.71A.47.47,0,0,1,1266,244Z" transform="translate(0.07 -37.93)" fill="#dce1e5"/><circle cx="1182.1" cy="224.4" r="2" fill="#dce1e5"/><path d="M1003.48,269a.51.51,0,0,1-.36-.15.5.5,0,0,1,0-.7l1.12-1.12a.5.5,0,0,1,.71,0,.48.48,0,0,1,0,.7l-1.12,1.12A.5.5,0,0,1,1003.48,269Z" transform="translate(0.07 -37.93)" fill="#dce1e5"/><path d="M1007.73,264.72a.49.49,0,0,1-.35-.15.5.5,0,0,1,0-.71l1.12-1.12a.5.5,0,0,1,.7,0,.5.5,0,0,1,0,.71l-1.12,1.12A.47.47,0,0,1,1007.73,264.72Z" transform="translate(0.07 -37.93)" fill="#dce1e5"/><path d="M1004.6,264.72a.51.51,0,0,1-.36-.15l-1.12-1.12a.5.5,0,0,1,.71-.71l1.12,1.12a.5.5,0,0,1,0,.71A.5.5,0,0,1,1004.6,264.72Z" transform="translate(0.07 -37.93)" fill="#dce1e5"/><path d="M1008.85,269a.47.47,0,0,1-.35-.15l-1.12-1.12a.49.49,0,0,1,.7-.7l1.12,1.12a.48.48,0,0,1,0,.7A.47.47,0,0,1,1008.85,269Z" transform="translate(0.07 -37.93)" fill="#dce1e5"/><path d="M1246.76,229.18l1.72-4.54a.11.11,0,0,0-.12-.14l-4.79.79a.1.1,0,0,0-.06.16l3.07,3.76A.11.11,0,0,0,1246.76,229.18Z" transform="translate(0.07 -37.93)" fill="#dce1e5"/><g opacity="0.1"><path d="M1127.17,216.2l2.11,6.05a.13.13,0,0,0,.23,0l4.19-4.85a.13.13,0,0,0-.08-.22l-6.29-1.21A.15.15,0,0,0,1127.17,216.2Z" transform="translate(0.07 -37.93)" fill="#e84b54"/></g><path d="M318.68,277.33a.47.47,0,0,1-.35-.15.48.48,0,0,1,0-.7l1.12-1.12a.49.49,0,0,1,.7.7L319,277.18A.47.47,0,0,1,318.68,277.33Z" transform="translate(0.07 -37.93)" fill="#dce1e5"/><path d="M322.93,273.07a.49.49,0,0,1-.35-.14.51.51,0,0,1,0-.71l1.12-1.12a.5.5,0,0,1,.71.71l-1.12,1.12A.5.5,0,0,1,322.93,273.07Z" transform="translate(0.07 -37.93)" fill="#dce1e5"/><path d="M319.8,273.07a.46.46,0,0,1-.35-.14l-1.12-1.12a.5.5,0,0,1,0-.71.5.5,0,0,1,.7,0l1.12,1.12a.5.5,0,0,1,0,.71A.46.46,0,0,1,319.8,273.07Z" transform="translate(0.07 -37.93)" fill="#dce1e5"/><path d="M324.05,277.33a.5.5,0,0,1-.35-.15l-1.12-1.12a.5.5,0,0,1,0-.7.5.5,0,0,1,.71,0l1.12,1.12a.5.5,0,0,1,0,.7A.51.51,0,0,1,324.05,277.33Z" transform="translate(0.07 -37.93)" fill="#dce1e5"/><path d="M562.78,182.56a.5.5,0,0,1-.5-.5v-2.12a.5.5,0,0,1,.5-.5.5.5,0,0,1,.5.5v2.12A.5.5,0,0,1,562.78,182.56Z" transform="translate(0.07 -37.93)" fill="#dce1e5"/><path d="M562.78,190.07a.5.5,0,0,1-.5-.5v-2.13a.5.5,0,0,1,.5-.5.51.51,0,0,1,.5.5v2.13A.51.51,0,0,1,562.78,190.07Z" transform="translate(0.07 -37.93)" fill="#dce1e5"/><path d="M567.59,185.25h-2.12a.5.5,0,0,1,0-1h2.12a.5.5,0,0,1,0,1Z" transform="translate(0.07 -37.93)" fill="#dce1e5"/><path d="M560.09,185.25H558a.5.5,0,0,1,0-1h2.13a.5.5,0,0,1,0,1Z" transform="translate(0.07 -37.93)" fill="#dce1e5"/><path d="M564.68,183.35a.49.49,0,0,1-.35-.15.5.5,0,0,1,0-.71l1.5-1.5a.5.5,0,0,1,.71.71L565,183.2A.47.47,0,0,1,564.68,183.35Z" transform="translate(0.07 -37.93)" fill="#dce1e5"/><path d="M559.37,188.66a.49.49,0,0,1-.35-.15.5.5,0,0,1,0-.71l1.5-1.5a.5.5,0,0,1,.71.71l-1.5,1.5A.51.51,0,0,1,559.37,188.66Z" transform="translate(0.07 -37.93)" fill="#dce1e5"/><path d="M566.18,188.66a.5.5,0,0,1-.35-.15l-1.5-1.5a.5.5,0,0,1,0-.71.5.5,0,0,1,.7,0l1.51,1.5a.51.51,0,0,1,0,.71A.51.51,0,0,1,566.18,188.66Z" transform="translate(0.07 -37.93)" fill="#dce1e5"/><path d="M560.88,183.35a.51.51,0,0,1-.36-.15l-1.5-1.5a.5.5,0,0,1,0-.71.51.51,0,0,1,.71,0l1.5,1.5a.51.51,0,0,1,0,.71A.5.5,0,0,1,560.88,183.35Z" transform="translate(0.07 -37.93)" fill="#dce1e5"/><path d="M514.76,380.48a.47.47,0,0,1-.35-.15.48.48,0,0,1,0-.7l2.35-2.36a.5.5,0,0,1,.71.71l-2.36,2.35A.47.47,0,0,1,514.76,380.48Z" transform="translate(0.07 -37.93)" fill="#dce1e5"/><path d="M523.7,371.54a.49.49,0,0,1-.35-.15.5.5,0,0,1,0-.71l2.35-2.35a.5.5,0,0,1,.71,0,.51.51,0,0,1,0,.71l-2.35,2.35A.51.51,0,0,1,523.7,371.54Z" transform="translate(0.07 -37.93)" fill="#dce1e5"/><path d="M517.11,371.54a.49.49,0,0,1-.35-.15L514.41,369a.5.5,0,0,1,0-.71.48.48,0,0,1,.7,0l2.36,2.35a.51.51,0,0,1,0,.71A.51.51,0,0,1,517.11,371.54Z" transform="translate(0.07 -37.93)" fill="#dce1e5"/><path d="M526.06,380.48a.51.51,0,0,1-.36-.15L523.35,378a.5.5,0,0,1,0-.71.51.51,0,0,1,.71,0l2.35,2.36a.5.5,0,0,1-.35.85Z" transform="translate(0.07 -37.93)" fill="#dce1e5"/><path d="M359.65,385.69a.51.51,0,0,1-.5-.5v-2.13a.51.51,0,0,1,.5-.5.5.5,0,0,1,.5.5v2.13A.5.5,0,0,1,359.65,385.69Z" transform="translate(0.07 -37.93)" fill="#dce1e5"/><path d="M359.65,393.19a.5.5,0,0,1-.5-.5v-2.12a.5.5,0,0,1,.5-.5.5.5,0,0,1,.5.5v2.12A.5.5,0,0,1,359.65,393.19Z" transform="translate(0.07 -37.93)" fill="#dce1e5"/><path d="M364.47,388.38h-2.13a.51.51,0,0,1-.5-.5.5.5,0,0,1,.5-.5h2.13a.5.5,0,0,1,.5.5A.51.51,0,0,1,364.47,388.38Z" transform="translate(0.07 -37.93)" fill="#dce1e5"/><path d="M357,388.38h-2.12a.5.5,0,0,1-.5-.5.5.5,0,0,1,.5-.5H357a.5.5,0,0,1,.5.5A.5.5,0,0,1,357,388.38Z" transform="translate(0.07 -37.93)" fill="#dce1e5"/><path d="M361.56,386.47a.54.54,0,0,1-.36-.14.51.51,0,0,1,0-.71l1.5-1.5a.5.5,0,0,1,.71.71l-1.5,1.5A.54.54,0,0,1,361.56,386.47Z" transform="translate(0.07 -37.93)" fill="#dce1e5"/><path d="M356.25,391.78a.54.54,0,0,1-.36-.14.51.51,0,0,1,0-.71l1.51-1.5a.49.49,0,1,1,.7.7l-1.5,1.51A.54.54,0,0,1,356.25,391.78Z" transform="translate(0.07 -37.93)" fill="#dce1e5"/><path d="M363.06,391.78a.54.54,0,0,1-.36-.14l-1.5-1.51a.5.5,0,0,1,0-.7.5.5,0,0,1,.71,0l1.5,1.5a.5.5,0,0,1,0,.71A.52.52,0,0,1,363.06,391.78Z" transform="translate(0.07 -37.93)" fill="#dce1e5"/><path d="M357.75,386.47a.5.5,0,0,1-.35-.14l-1.51-1.5a.51.51,0,0,1,0-.71.5.5,0,0,1,.71,0l1.5,1.5a.5.5,0,0,1,0,.71A.52.52,0,0,1,357.75,386.47Z" transform="translate(0.07 -37.93)" fill="#dce1e5"/><g opacity="0.1"><path d="M765,175.56a3.24,3.24,0,1,1,3.23-3.24A3.25,3.25,0,0,1,765,175.56Zm0-5.48a2.24,2.24,0,1,0,2.23,2.24A2.24,2.24,0,0,0,765,170.08Z" transform="translate(0.07 -37.93)" fill="#e84b54"/></g><circle cx="1038.41" cy="155.6" r="7.35" fill="#dce1e5"/><path d="M518.66,192.77a.5.5,0,0,1-.5-.5v-2.13a.5.5,0,0,1,.5-.5.5.5,0,0,1,.5.5v2.13A.51.51,0,0,1,518.66,192.77Z" transform="translate(0.07 -37.93)" fill="#dce1e5"/><path d="M518.66,185.26a.5.5,0,0,1-.5-.5v-2.13a.5.5,0,0,1,.5-.5.51.51,0,0,1,.5.5v2.13A.51.51,0,0,1,518.66,185.26Z" transform="translate(0.07 -37.93)" fill="#dce1e5"/><path d="M523.47,188h-2.12a.5.5,0,0,1,0-1h2.12a.5.5,0,0,1,0,1Z" transform="translate(0.07 -37.93)" fill="#dce1e5"/><path d="M516,188h-2.13a.5.5,0,0,1,0-1H516a.5.5,0,0,1,0,1Z" transform="translate(0.07 -37.93)" fill="#dce1e5"/><path d="M522.06,191.35a.49.49,0,0,1-.35-.14l-1.5-1.5a.5.5,0,0,1,0-.71.48.48,0,0,1,.7,0l1.51,1.5a.51.51,0,0,1,0,.71A.5.5,0,0,1,522.06,191.35Z" transform="translate(0.07 -37.93)" fill="#dce1e5"/><path d="M516.75,186.05a.5.5,0,0,1-.35-.15l-1.5-1.5a.5.5,0,0,1,.71-.71l1.5,1.5a.51.51,0,0,1,0,.71A.51.51,0,0,1,516.75,186.05Z" transform="translate(0.07 -37.93)" fill="#dce1e5"/><path d="M520.56,186.05a.47.47,0,0,1-.35-.15.5.5,0,0,1,0-.71l1.5-1.5a.5.5,0,0,1,.71,0,.51.51,0,0,1,0,.71l-1.51,1.5A.47.47,0,0,1,520.56,186.05Z" transform="translate(0.07 -37.93)" fill="#dce1e5"/><path d="M515.25,191.35a.47.47,0,0,1-.35-.14.5.5,0,0,1,0-.71l1.5-1.5a.5.5,0,0,1,.71,0,.51.51,0,0,1,0,.71l-1.5,1.5A.5.5,0,0,1,515.25,191.35Z" transform="translate(0.07 -37.93)" fill="#dce1e5"/><g opacity="0.1"><path d="M671,175.56a3.24,3.24,0,1,1,3.24-3.24A3.25,3.25,0,0,1,671,175.56Zm0-5.48a2.24,2.24,0,1,0,2.24,2.24A2.25,2.25,0,0,0,671,170.08Z" transform="translate(0.07 -37.93)" fill="#e84b54"/></g><circle cx="794.14" cy="180.07" r="2" fill="#dce1e5"/><path d="M912.33,224.05a.49.49,0,0,1-.35-.15l-1.12-1.12a.48.48,0,0,1,0-.7.5.5,0,0,1,.71,0l1.12,1.12a.5.5,0,0,1,0,.7A.51.51,0,0,1,912.33,224.05Z" transform="translate(0.07 -37.93)" fill="#dce1e5"/><path d="M916.59,228.3a.5.5,0,0,1-.36-.14L915.11,227a.5.5,0,0,1,.71-.71l1.12,1.12a.51.51,0,0,1,0,.71A.49.49,0,0,1,916.59,228.3Z" transform="translate(0.07 -37.93)" fill="#dce1e5"/><path d="M911.21,228.3a.47.47,0,0,1-.35-.14.5.5,0,0,1,0-.71l1.12-1.12a.5.5,0,0,1,.71.71l-1.12,1.12A.5.5,0,0,1,911.21,228.3Z" transform="translate(0.07 -37.93)" fill="#dce1e5"/><path d="M915.47,224.05a.51.51,0,0,1-.36-.15.5.5,0,0,1,0-.7l1.12-1.12a.5.5,0,0,1,.71,0,.5.5,0,0,1,0,.7l-1.12,1.12A.5.5,0,0,1,915.47,224.05Z" transform="translate(0.07 -37.93)" fill="#dce1e5"/><path d="M955.87,307.73a.5.5,0,0,1-.35-.15l-1.12-1.12a.5.5,0,0,1,0-.7.5.5,0,0,1,.71,0l1.12,1.12a.5.5,0,0,1,0,.7A.51.51,0,0,1,955.87,307.73Z" transform="translate(0.07 -37.93)" fill="#dce1e5"/><path d="M960.13,312a.5.5,0,0,1-.36-.14l-1.12-1.12a.5.5,0,0,1,.71-.71l1.12,1.12a.5.5,0,0,1,0,.71A.47.47,0,0,1,960.13,312Z" transform="translate(0.07 -37.93)" fill="#dce1e5"/><path d="M954.75,312a.49.49,0,0,1-.35-.14.51.51,0,0,1,0-.71l1.12-1.12a.5.5,0,0,1,.71.71l-1.12,1.12A.5.5,0,0,1,954.75,312Z" transform="translate(0.07 -37.93)" fill="#dce1e5"/><path d="M959,307.73a.51.51,0,0,1-.36-.15.5.5,0,0,1,0-.7l1.12-1.12a.5.5,0,0,1,.71,0,.48.48,0,0,1,0,.7l-1.12,1.12A.49.49,0,0,1,959,307.73Z" transform="translate(0.07 -37.93)" fill="#dce1e5"/><g opacity="0.1"><path d="M1266.1,230.21a3.24,3.24,0,1,1,3.24-3.24A3.25,3.25,0,0,1,1266.1,230.21Zm0-5.48a2.24,2.24,0,1,0,2.24,2.24A2.25,2.25,0,0,0,1266.1,224.73Z" transform="translate(0.07 -37.93)" fill="#e84b54"/></g><path d="M1186.61,215.64a.5.5,0,0,1-.35-.14l-1.12-1.12a.5.5,0,0,1,0-.71.48.48,0,0,1,.7,0l1.12,1.12a.5.5,0,0,1-.35.85Z" transform="translate(0.07 -37.93)" fill="#dce1e5"/><path d="M1190.86,219.9a.5.5,0,0,1-.35-.15l-1.12-1.12a.5.5,0,1,1,.71-.71l1.12,1.12a.51.51,0,0,1,0,.71A.51.51,0,0,1,1190.86,219.9Z" transform="translate(0.07 -37.93)" fill="#dce1e5"/><path d="M1185.49,219.9a.47.47,0,0,1-.35-.15.5.5,0,0,1,0-.71l1.12-1.12a.5.5,0,0,1,.7,0,.5.5,0,0,1,0,.71l-1.12,1.12A.47.47,0,0,1,1185.49,219.9Z" transform="translate(0.07 -37.93)" fill="#dce1e5"/><path d="M1189.74,215.64a.54.54,0,0,1-.35-.14.51.51,0,0,1,0-.71l1.12-1.12a.5.5,0,0,1,.71,0,.51.51,0,0,1,0,.71l-1.12,1.12A.54.54,0,0,1,1189.74,215.64Z" transform="translate(0.07 -37.93)" fill="#dce1e5"/><circle cx="847.07" cy="186.3" r="2" fill="#dce1e5"/><circle cx="869.25" cy="253.05" r="2" fill="#dce1e5"/><g opacity="0.1"><path d="M797.26,172.82a3.24,3.24,0,1,1,3.23-3.24A3.24,3.24,0,0,1,797.26,172.82Zm0-5.47a2.24,2.24,0,1,0,2.23,2.23A2.23,2.23,0,0,0,797.26,167.35Z" transform="translate(0.07 -37.93)" fill="#e84b54"/></g><g opacity="0.1"><path d="M559.28,147l3.79-5.16a.14.14,0,0,1,.24,0l2.58,5.87a.14.14,0,0,1-.15.19l-6.37-.71A.14.14,0,0,1,559.28,147Z" transform="translate(0.07 -37.93)" fill="#e84b54"/></g><path d="M669.64,105.11,675,119.24a.1.1,0,0,1-.11.14L660,116.94a.11.11,0,0,1-.06-.17l9.57-11.69A.11.11,0,0,1,669.64,105.11Z" transform="translate(0.07 -37.93)" fill="#dce1e5"/><path d="M496.39,300.24l5.33,14.13a.1.1,0,0,1-.11.14l-14.91-2.44a.11.11,0,0,1-.06-.17l9.57-11.69A.11.11,0,0,1,496.39,300.24Z" transform="translate(0.07 -37.93)" fill="#dce1e5"/><g opacity="0.1"><path d="M1091.36,230.67l2.11-6a.13.13,0,0,1,.23,0l4.19,4.85a.13.13,0,0,1-.08.22l-6.29,1.2A.14.14,0,0,1,1091.36,230.67Z" transform="translate(0.07 -37.93)" fill="#e84b54"/></g><circle cx="1105.98" cy="139.49" r="2" fill="#dce1e5"/><g opacity="0.1"><path d="M844.9,111.57l5.39-15.49a.14.14,0,0,1,.24,0l10.71,12.41a.13.13,0,0,1-.08.22l-16.1,3.08A.14.14,0,0,1,844.9,111.57Z" transform="translate(0.07 -37.93)" fill="#e84b54"/></g><path d="M1262.48,110.68a.5.5,0,0,1-.5-.5v-3.56a.51.51,0,0,1,.5-.5.5.5,0,0,1,.5.5v3.56A.5.5,0,0,1,1262.48,110.68Z" transform="translate(0.07 -37.93)" fill="#dce1e5"/><path d="M1262.48,98.11a.5.5,0,0,1-.5-.5V94.06a.5.5,0,0,1,.5-.5.5.5,0,0,1,.5.5v3.55A.5.5,0,0,1,1262.48,98.11Z" transform="translate(0.07 -37.93)" fill="#dce1e5"/><path d="M1270.54,102.62H1267a.5.5,0,0,1-.5-.5.5.5,0,0,1,.5-.5h3.55a.5.5,0,0,1,.5.5A.5.5,0,0,1,1270.54,102.62Z" transform="translate(0.07 -37.93)" fill="#dce1e5"/><path d="M1258,102.62h-3.56a.5.5,0,0,1-.5-.5.5.5,0,0,1,.5-.5H1258a.5.5,0,0,1,.5.5A.51.51,0,0,1,1258,102.62Z" transform="translate(0.07 -37.93)" fill="#dce1e5"/><path d="M1268.18,108.32a.49.49,0,0,1-.35-.15l-2.52-2.51a.51.51,0,0,1,0-.71.5.5,0,0,1,.71,0l2.52,2.51a.51.51,0,0,1,0,.71A.51.51,0,0,1,1268.18,108.32Z" transform="translate(0.07 -37.93)" fill="#dce1e5"/><path d="M1259.3,99.43a.54.54,0,0,1-.36-.14l-2.51-2.52a.5.5,0,0,1,0-.71.5.5,0,0,1,.7,0l2.52,2.52a.5.5,0,0,1,0,.71A.54.54,0,0,1,1259.3,99.43Z" transform="translate(0.07 -37.93)" fill="#dce1e5"/><path d="M1265.67,99.43a.54.54,0,0,1-.36-.14.51.51,0,0,1,0-.71l2.52-2.52a.5.5,0,1,1,.71.71L1266,99.29A.54.54,0,0,1,1265.67,99.43Z" transform="translate(0.07 -37.93)" fill="#dce1e5"/><path d="M1256.78,108.32a.49.49,0,0,1-.35-.15.5.5,0,0,1,0-.71l2.51-2.51a.5.5,0,0,1,.71.71l-2.52,2.51A.47.47,0,0,1,1256.78,108.32Z" transform="translate(0.07 -37.93)" fill="#dce1e5"/><g opacity="0.1"><path d="M1121.11,45.25a3.24,3.24,0,1,1,3.24-3.24A3.24,3.24,0,0,1,1121.11,45.25Zm0-5.47a2.24,2.24,0,1,0,2.24,2.23A2.23,2.23,0,0,0,1121.11,39.78Z" transform="translate(0.07 -37.93)" fill="#e84b54"/></g><circle cx="1186.73" cy="118" r="6.63" fill="#dce1e5"/><path d="M1004.6,156a.51.51,0,0,1-.36-.15l-1.12-1.12a.5.5,0,0,1,0-.7.5.5,0,0,1,.71,0l1.12,1.12a.48.48,0,0,1,0,.7A.5.5,0,0,1,1004.6,156Z" transform="translate(0.07 -37.93)" fill="#dce1e5"/><path d="M1008.85,160.29a.46.46,0,0,1-.35-.14l-1.12-1.12a.5.5,0,0,1,0-.71.5.5,0,0,1,.7,0l1.12,1.12a.5.5,0,0,1,0,.71A.46.46,0,0,1,1008.85,160.29Z" transform="translate(0.07 -37.93)" fill="#dce1e5"/><path d="M1003.48,160.29a.5.5,0,0,1-.36-.14.51.51,0,0,1,0-.71l1.12-1.12a.51.51,0,0,1,.71,0,.5.5,0,0,1,0,.71l-1.12,1.12A.49.49,0,0,1,1003.48,160.29Z" transform="translate(0.07 -37.93)" fill="#dce1e5"/><path d="M1007.73,156a.5.5,0,0,1-.35-.85l1.12-1.12a.49.49,0,0,1,.7.7l-1.12,1.12A.47.47,0,0,1,1007.73,156Z" transform="translate(0.07 -37.93)" fill="#dce1e5"/><g opacity="0.1"><path d="M1192.44,101.29l3.79-5.17a.14.14,0,0,1,.24,0L1199,102a.13.13,0,0,1-.14.19l-6.37-.71A.13.13,0,0,1,1192.44,101.29Z" transform="translate(0.07 -37.93)" fill="#e84b54"/></g><path d="M1199,380.75l1.71,4.55a.1.1,0,0,1-.11.14l-4.79-.79a.11.11,0,0,1-.07-.17l3.08-3.76A.11.11,0,0,1,1199,380.75Z" transform="translate(0.07 -37.93)" fill="#dce1e5"/><g opacity="0.1"><path d="M1127.17,136.7l2.11-6.06a.13.13,0,0,1,.23,0l4.19,4.85a.13.13,0,0,1-.08.22l-6.29,1.21A.14.14,0,0,1,1127.17,136.7Z" transform="translate(0.07 -37.93)" fill="#e84b54"/></g><path d="M715.24,64.66a.49.49,0,0,1-.35-.15l-1.12-1.12a.48.48,0,0,1,0-.7.5.5,0,0,1,.71,0l1.12,1.12a.5.5,0,0,1,0,.7A.51.51,0,0,1,715.24,64.66Z" transform="translate(0.07 -37.93)" fill="#dce1e5"/><path d="M719.5,68.91a.5.5,0,0,1-.36-.14L718,67.65a.5.5,0,0,1,.71-.71l1.12,1.12a.5.5,0,0,1-.35.85Z" transform="translate(0.07 -37.93)" fill="#dce1e5"/><path d="M714.12,68.91a.5.5,0,0,1-.35-.85l1.12-1.12a.5.5,0,0,1,.71.71l-1.12,1.12A.5.5,0,0,1,714.12,68.91Z" transform="translate(0.07 -37.93)" fill="#dce1e5"/><path d="M718.38,64.66a.51.51,0,0,1-.36-.15.5.5,0,0,1,0-.7l1.12-1.12a.5.5,0,0,1,.71,0,.48.48,0,0,1,0,.7l-1.12,1.12A.5.5,0,0,1,718.38,64.66Z" transform="translate(0.07 -37.93)" fill="#dce1e5"/><path d="M354.84,162.72a.5.5,0,0,1-.5-.5V160.1a.5.5,0,0,1,.5-.5.5.5,0,0,1,.5.5v2.12A.5.5,0,0,1,354.84,162.72Z" transform="translate(0.07 -37.93)" fill="#dce1e5"/><path d="M354.84,155.21a.5.5,0,0,1-.5-.5v-2.12a.5.5,0,0,1,.5-.5.5.5,0,0,1,.5.5v2.12A.5.5,0,0,1,354.84,155.21Z" transform="translate(0.07 -37.93)" fill="#dce1e5"/><path d="M359.65,157.9h-2.12a.5.5,0,0,1-.5-.5.5.5,0,0,1,.5-.5h2.12a.5.5,0,0,1,.5.5A.5.5,0,0,1,359.65,157.9Z" transform="translate(0.07 -37.93)" fill="#dce1e5"/><path d="M352.15,157.9H350a.5.5,0,0,1-.5-.5.5.5,0,0,1,.5-.5h2.13a.51.51,0,0,1,.5.5A.5.5,0,0,1,352.15,157.9Z" transform="translate(0.07 -37.93)" fill="#dce1e5"/><path d="M358.24,161.31a.49.49,0,0,1-.35-.15l-1.5-1.5a.5.5,0,0,1,0-.71.5.5,0,0,1,.7,0l1.51,1.51a.5.5,0,0,1,0,.7A.51.51,0,0,1,358.24,161.31Z" transform="translate(0.07 -37.93)" fill="#dce1e5"/><path d="M352.93,156a.54.54,0,0,1-.35-.14l-1.5-1.51a.49.49,0,1,1,.7-.7l1.51,1.5a.51.51,0,0,1,0,.71A.54.54,0,0,1,352.93,156Z" transform="translate(0.07 -37.93)" fill="#dce1e5"/><path d="M356.74,156a.5.5,0,0,1-.35-.85l1.5-1.5a.5.5,0,0,1,.71,0,.5.5,0,0,1,0,.7l-1.51,1.51A.5.5,0,0,1,356.74,156Z" transform="translate(0.07 -37.93)" fill="#dce1e5"/><path d="M351.43,161.31a.47.47,0,0,1-.35-.15.48.48,0,0,1,0-.7l1.5-1.51a.5.5,0,0,1,.71.71l-1.51,1.5A.47.47,0,0,1,351.43,161.31Z" transform="translate(0.07 -37.93)" fill="#dce1e5"/><path d="M575.68,65.55l1.71,4.54a.1.1,0,0,1-.11.14l-4.79-.79a.11.11,0,0,1-.07-.17l3.08-3.75A.1.1,0,0,1,575.68,65.55Z" transform="translate(0.07 -37.93)" fill="#dce1e5"/><g opacity="0.1"><path d="M760.93,244.11a3.24,3.24,0,1,1,3.24-3.23A3.23,3.23,0,0,1,760.93,244.11Zm0-5.47a2.24,2.24,0,1,0,2.24,2.24A2.23,2.23,0,0,0,760.93,238.64Z" transform="translate(0.07 -37.93)" fill="#e84b54"/></g><circle cx="1028.17" cy="189.19" r="2" fill="#dce1e5"/><path d="M672.92,81.72a.5.5,0,0,1-.5-.5V79.09a.5.5,0,0,1,1,0v2.13A.5.5,0,0,1,672.92,81.72Z" transform="translate(0.07 -37.93)" fill="#dce1e5"/><path d="M672.92,89.23a.5.5,0,0,1-.5-.5V86.6a.5.5,0,0,1,1,0v2.13A.5.5,0,0,1,672.92,89.23Z" transform="translate(0.07 -37.93)" fill="#dce1e5"/><path d="M677.74,84.41h-2.13a.5.5,0,0,1,0-1h2.13a.5.5,0,0,1,0,1Z" transform="translate(0.07 -37.93)" fill="#dce1e5"/><path d="M670.23,84.41H668.1a.5.5,0,0,1,0-1h2.13a.5.5,0,0,1,0,1Z" transform="translate(0.07 -37.93)" fill="#dce1e5"/><path d="M674.82,82.51a.5.5,0,0,1-.35-.15.5.5,0,0,1,0-.71l1.5-1.5a.5.5,0,1,1,.71.71l-1.5,1.5A.51.51,0,0,1,674.82,82.51Z" transform="translate(0.07 -37.93)" fill="#dce1e5"/><path d="M669.51,87.82a.5.5,0,0,1-.35-.15.51.51,0,0,1,0-.71l1.5-1.5a.5.5,0,0,1,.71.71l-1.5,1.5A.51.51,0,0,1,669.51,87.82Z" transform="translate(0.07 -37.93)" fill="#dce1e5"/><path d="M676.33,87.82a.51.51,0,0,1-.36-.15l-1.5-1.5a.5.5,0,0,1,.71-.71l1.5,1.5a.51.51,0,0,1,0,.71A.5.5,0,0,1,676.33,87.82Z" transform="translate(0.07 -37.93)" fill="#dce1e5"/><path d="M671,82.51a.51.51,0,0,1-.36-.15l-1.5-1.5a.5.5,0,1,1,.71-.71l1.5,1.5a.5.5,0,0,1,0,.71A.5.5,0,0,1,671,82.51Z" transform="translate(0.07 -37.93)" fill="#dce1e5"/><g opacity="0.1"><path d="M813.26,72.54a3.24,3.24,0,1,1,3.23-3.23A3.24,3.24,0,0,1,813.26,72.54Zm0-5.47a2.24,2.24,0,1,0,2.23,2.24A2.24,2.24,0,0,0,813.26,67.07Z" transform="translate(0.07 -37.93)" fill="#e84b54"/></g><g opacity="0.1"><path d="M575.28,91.9l3.79,5.16a.14.14,0,0,0,.24,0l2.58-5.86a.15.15,0,0,0-.15-.2l-6.37.71A.14.14,0,0,0,575.28,91.9Z" transform="translate(0.07 -37.93)" fill="#e84b54"/></g><path d="M1011.87,128.87l1.72-4.54a.11.11,0,0,0-.12-.14l-4.79.79a.1.1,0,0,0-.06.17l3.07,3.75A.1.1,0,0,0,1011.87,128.87Z" transform="translate(0.07 -37.93)" fill="#dce1e5"/><circle cx="1121.98" cy="23.54" r="2" fill="#dce1e5"/><g opacity="0.1"><path d="M865.27,131.09l2.1,6a.14.14,0,0,0,.24.05l4.19-4.85a.14.14,0,0,0-.08-.23l-6.3-1.2A.13.13,0,0,0,865.27,131.09Z" transform="translate(0.07 -37.93)" fill="#e84b54"/></g><path d="M1283.87,129.19a.5.5,0,0,1-.5-.5v-2.12a.5.5,0,0,1,.5-.5.5.5,0,0,1,.5.5v2.12A.5.5,0,0,1,1283.87,129.19Z" transform="translate(0.07 -37.93)" fill="#dce1e5"/><path d="M1283.87,136.7a.51.51,0,0,1-.5-.5v-2.13a.51.51,0,0,1,.5-.5.5.5,0,0,1,.5.5v2.13A.5.5,0,0,1,1283.87,136.7Z" transform="translate(0.07 -37.93)" fill="#dce1e5"/><path d="M1288.69,131.88h-2.13a.5.5,0,0,1-.5-.5.51.51,0,0,1,.5-.5h2.13a.51.51,0,0,1,.5.5A.5.5,0,0,1,1288.69,131.88Z" transform="translate(0.07 -37.93)" fill="#dce1e5"/><path d="M1281.18,131.88h-2.12a.5.5,0,0,1-.5-.5.5.5,0,0,1,.5-.5h2.12a.5.5,0,0,1,.5.5A.5.5,0,0,1,1281.18,131.88Z" transform="translate(0.07 -37.93)" fill="#dce1e5"/><path d="M1285.78,130a.51.51,0,0,1-.36-.15.5.5,0,0,1,0-.7l1.5-1.51a.51.51,0,0,1,.71,0,.5.5,0,0,1,0,.71l-1.5,1.5A.5.5,0,0,1,1285.78,130Z" transform="translate(0.07 -37.93)" fill="#dce1e5"/><path d="M1280.47,135.29a.51.51,0,0,1-.36-.15.51.51,0,0,1,0-.71l1.51-1.5a.5.5,0,0,1,.7,0,.5.5,0,0,1,0,.71l-1.5,1.5A.49.49,0,0,1,1280.47,135.29Z" transform="translate(0.07 -37.93)" fill="#dce1e5"/><path d="M1287.28,135.29a.51.51,0,0,1-.36-.15l-1.5-1.5a.5.5,0,0,1,.71-.71l1.5,1.5a.5.5,0,0,1,0,.71A.49.49,0,0,1,1287.28,135.29Z" transform="translate(0.07 -37.93)" fill="#dce1e5"/><path d="M1282,130a.47.47,0,0,1-.35-.15l-1.51-1.5a.5.5,0,0,1,.71-.71l1.5,1.51a.48.48,0,0,1,0,.7A.47.47,0,0,1,1282,130Z" transform="translate(0.07 -37.93)" fill="#dce1e5"/><circle cx="1198.1" cy="40.4" r="2" fill="#dce1e5"/><path d="M1019.48,85a.51.51,0,0,1-.36-.15.5.5,0,0,1,0-.7l1.12-1.12a.5.5,0,0,1,.71,0,.48.48,0,0,1,0,.7l-1.12,1.12A.5.5,0,0,1,1019.48,85Z" transform="translate(0.07 -37.93)" fill="#dce1e5"/><path d="M1023.73,80.72a.49.49,0,0,1-.35-.15.5.5,0,0,1,0-.71l1.12-1.12a.5.5,0,0,1,.7,0,.5.5,0,0,1,0,.71l-1.12,1.12A.47.47,0,0,1,1023.73,80.72Z" transform="translate(0.07 -37.93)" fill="#dce1e5"/><path d="M1020.6,80.72a.51.51,0,0,1-.36-.15l-1.12-1.12a.5.5,0,0,1,.71-.71l1.12,1.12a.5.5,0,0,1,0,.71A.5.5,0,0,1,1020.6,80.72Z" transform="translate(0.07 -37.93)" fill="#dce1e5"/><path d="M1024.85,85a.47.47,0,0,1-.35-.15l-1.12-1.12a.49.49,0,0,1,.7-.7l1.12,1.12a.48.48,0,0,1,0,.7A.47.47,0,0,1,1024.85,85Z" transform="translate(0.07 -37.93)" fill="#dce1e5"/><g opacity="0.1"><path d="M1009.27,368.88l12.46,17a.14.14,0,0,0,.24,0l8.45-19.27a.13.13,0,0,0-.14-.19l-20.92,2.31A.14.14,0,0,0,1009.27,368.88Z" transform="translate(0.07 -37.93)" fill="#e84b54"/></g><path d="M1262.76,45.18l1.72-4.54a.11.11,0,0,0-.12-.14l-4.79.79a.1.1,0,0,0-.06.16l3.07,3.76A.11.11,0,0,0,1262.76,45.18Z" transform="translate(0.07 -37.93)" fill="#dce1e5"/><g opacity="0.1"><path d="M1143.17,102.2l2.11,6a.13.13,0,0,0,.23,0l4.19-4.85a.13.13,0,0,0-.08-.22l-6.29-1.21A.15.15,0,0,0,1143.17,102.2Z" transform="translate(0.07 -37.93)" fill="#e84b54"/></g><path d="M704,189.8a.54.54,0,0,1-.36-.14.51.51,0,0,1,0-.71l1.12-1.12a.5.5,0,0,1,.71,0,.51.51,0,0,1,0,.71l-1.12,1.12A.54.54,0,0,1,704,189.8Z" transform="translate(0.07 -37.93)" fill="#dce1e5"/><path d="M708.21,185.55a.47.47,0,0,1-.35-.15.5.5,0,0,1,0-.71l1.12-1.11a.49.49,0,0,1,.7.7l-1.12,1.12A.47.47,0,0,1,708.21,185.55Z" transform="translate(0.07 -37.93)" fill="#dce1e5"/><path d="M705.08,185.55a.51.51,0,0,1-.36-.15l-1.12-1.12a.5.5,0,0,1,0-.7.5.5,0,0,1,.71,0l1.12,1.11a.51.51,0,0,1,0,.71A.5.5,0,0,1,705.08,185.55Z" transform="translate(0.07 -37.93)" fill="#dce1e5"/><path d="M709.33,189.8a.5.5,0,0,1-.35-.14l-1.12-1.12a.5.5,0,0,1,0-.71.48.48,0,0,1,.7,0l1.12,1.12a.5.5,0,0,1-.35.85Z" transform="translate(0.07 -37.93)" fill="#dce1e5"/><path d="M591.68,173.34l1.71-4.54a.1.1,0,0,0-.11-.14l-4.79.79a.11.11,0,0,0-.07.17l3.08,3.75A.1.1,0,0,0,591.68,173.34Z" transform="translate(0.07 -37.93)" fill="#dce1e5"/><path d="M928.33,40.05a.49.49,0,0,1-.35-.15l-1.12-1.12a.48.48,0,0,1,0-.7.5.5,0,0,1,.71,0l1.12,1.12a.5.5,0,0,1,0,.7A.51.51,0,0,1,928.33,40.05Z" transform="translate(0.07 -37.93)" fill="#dce1e5"/><path d="M932.59,44.3a.5.5,0,0,1-.36-.14L931.11,43a.5.5,0,0,1,.71-.71l1.12,1.12a.51.51,0,0,1,0,.71A.49.49,0,0,1,932.59,44.3Z" transform="translate(0.07 -37.93)" fill="#dce1e5"/><path d="M927.21,44.3a.47.47,0,0,1-.35-.14.5.5,0,0,1,0-.71L928,42.33a.5.5,0,0,1,.71.71l-1.12,1.12A.5.5,0,0,1,927.21,44.3Z" transform="translate(0.07 -37.93)" fill="#dce1e5"/><path d="M931.47,40.05a.51.51,0,0,1-.36-.15.5.5,0,0,1,0-.7l1.12-1.12a.5.5,0,0,1,.71,0,.5.5,0,0,1,0,.7l-1.12,1.12A.5.5,0,0,1,931.47,40.05Z" transform="translate(0.07 -37.93)" fill="#dce1e5"/><g opacity="0.1"><path d="M1282.1,46.21a3.24,3.24,0,1,1,3.24-3.24A3.25,3.25,0,0,1,1282.1,46.21Zm0-5.48a2.24,2.24,0,1,0,2.24,2.24A2.25,2.25,0,0,0,1282.1,40.73Z" transform="translate(0.07 -37.93)" fill="#e84b54"/></g><circle cx="863.07" cy="2.3" r="2" fill="#dce1e5"/><path d="M135.15,295.69a.5.5,0,0,1-.5-.5v-4.8a.5.5,0,0,1,.5-.5.51.51,0,0,1,.5.5v4.8A.5.5,0,0,1,135.15,295.69Z" transform="translate(0.07 -37.93)" fill="#dce1e5"/><path d="M135.15,278.73a.5.5,0,0,1-.5-.5v-4.8a.5.5,0,0,1,.5-.5.5.5,0,0,1,.5.5v4.8A.5.5,0,0,1,135.15,278.73Z" transform="translate(0.07 -37.93)" fill="#dce1e5"/><path d="M146,284.81h-4.8a.5.5,0,0,1-.5-.5.5.5,0,0,1,.5-.5H146a.51.51,0,0,1,.5.5A.5.5,0,0,1,146,284.81Z" transform="translate(0.07 -37.93)" fill="#dce1e5"/><path d="M129.07,284.81h-4.8a.5.5,0,0,1-.5-.5.5.5,0,0,1,.5-.5h4.8a.51.51,0,0,1,.5.5A.5.5,0,0,1,129.07,284.81Z" transform="translate(0.07 -37.93)" fill="#dce1e5"/><path d="M142.84,292.51a.47.47,0,0,1-.35-.15l-3.4-3.4a.5.5,0,0,1,0-.7.5.5,0,0,1,.71,0l3.39,3.39a.5.5,0,0,1,0,.71A.47.47,0,0,1,142.84,292.51Z" transform="translate(0.07 -37.93)" fill="#dce1e5"/><path d="M130.85,280.51a.54.54,0,0,1-.36-.14L127.1,277a.5.5,0,0,1,0-.71.51.51,0,0,1,.71,0l3.39,3.4a.5.5,0,0,1,0,.71A.52.52,0,0,1,130.85,280.51Z" transform="translate(0.07 -37.93)" fill="#dce1e5"/><path d="M139.45,280.51a.54.54,0,0,1-.36-.14.51.51,0,0,1,0-.71l3.4-3.4a.5.5,0,0,1,.7,0,.5.5,0,0,1,0,.71l-3.39,3.4A.54.54,0,0,1,139.45,280.51Z" transform="translate(0.07 -37.93)" fill="#dce1e5"/><path d="M127.45,292.51a.49.49,0,0,1-.35-.15.5.5,0,0,1,0-.71l3.39-3.39a.5.5,0,0,1,.71,0,.48.48,0,0,1,0,.7l-3.39,3.4A.51.51,0,0,1,127.45,292.51Z" transform="translate(0.07 -37.93)" fill="#dce1e5"/><g opacity="0.1"><path d="M776.93,60.11a3.24,3.24,0,1,1,3.24-3.23A3.23,3.23,0,0,1,776.93,60.11Zm0-5.47a2.24,2.24,0,1,0,2.24,2.24A2.23,2.23,0,0,0,776.93,54.64Z" transform="translate(0.07 -37.93)" fill="#e84b54"/></g><circle cx="1044.17" cy="5.19" r="2" fill="#dce1e5"/></g><g id="Layer_3" data-name="Layer 3"><g opacity="0.6"><g id="calendar"><path d="M843.86,175.68H819.74a2.2,2.2,0,0,0-2.21,2.2V202a2.21,2.21,0,0,0,2.21,2.2h19.72a6.61,6.61,0,0,0,6.61-6.61V177.88A2.2,2.2,0,0,0,843.86,175.68ZM835,200.07V194.2a1.68,1.68,0,0,1,1.67-1.68h5.46S842.18,200.07,835,200.07Z" transform="translate(0.07 -37.93)" fill="#dbe0e4"/><path d="M835,200.47H816a2.61,2.61,0,0,1-2.62-2.57v-5.25a.25.25,0,1,1,.5,0v5.25A2.1,2.1,0,0,0,816,200h19a6.81,6.81,0,0,0,6.88-6.71V174a2.1,2.1,0,0,0-2.13-2.07H816a2.09,2.09,0,0,0-2.12,2.07v8.24a.25.25,0,0,1-.5,0V174a2.6,2.6,0,0,1,2.62-2.57h23.78a2.6,2.6,0,0,1,2.63,2.57v19.25A7.31,7.31,0,0,1,835,200.47Z" transform="translate(0.07 -37.93)" fill="#67717c"/><path d="M842.14,177.27H813.61a.25.25,0,0,1-.25-.25.25.25,0,0,1,.25-.25h28.53a.25.25,0,0,1,.25.25A.25.25,0,0,1,842.14,177.27Z" transform="translate(0.07 -37.93)" fill="#67717c"/><path d="M835,200.11a.25.25,0,0,1-.25-.25V194.4a1.92,1.92,0,0,1,1.92-1.92h5.46a.25.25,0,0,1,0,.5h-5.46a1.43,1.43,0,0,0-1.42,1.42v5.46A.25.25,0,0,1,835,200.11Z" transform="translate(0.07 -37.93)" fill="#67717c"/><rect x="821.72" y="144.48" width="3.57" height="3.57" rx="0.4" ry="0.4" fill="#e74b55"/><rect x="821.72" y="153.01" width="3.57" height="3.57" rx="0.4" ry="0.4" fill="#67717c"/><path d="M813.61,188.05a.25.25,0,0,1-.25-.25v-1.18a.25.25,0,0,1,.5,0v1.18A.25.25,0,0,1,813.61,188.05Z" transform="translate(0.07 -37.93)" fill="#67717c"/></g><g id="machine-learnin"><path d="M991.37,218.85a1.51,1.51,0,0,0,1.84,1.09l7.73-2a3,3,0,0,0,1.86-1.39l.72-1.22a1.82,1.82,0,0,0,.2-1.35l-.46-1.77a.94.94,0,0,0-.44-.59l-1.13-.67s-.47-.65.5-.75l2.75-.29a3,3,0,0,1,3.26,2.27l.5,1.94a1.88,1.88,0,0,0,.87,1.16l1.3.77a2.15,2.15,0,0,0,1.59.23l3.66-.94a1.62,1.62,0,0,0,1-.74l.9-1.52a1.17,1.17,0,0,0,.15-1.08c-.84-1.69,0-2.06,0-2.06l.48-.13a1.93,1.93,0,0,0,1.19-.88l.81-1.37a2.41,2.41,0,0,0,.25-1.78l-1.07-4.17a2.07,2.07,0,0,0-1-1.27l-1.2-.71a1.38,1.38,0,0,0-1-.15l-1.58.41-.22-1.16a1.69,1.69,0,0,0-.76-1l-2.35-1.39-.13-.51a1.91,1.91,0,0,0-1.17-1.32l-6.49-2.54a1.66,1.66,0,0,0-1-.07l-.74.19a1.5,1.5,0,0,0-.93.7l-.58,1-.31-.19-1.47-.86a2,2,0,0,0-1.56-.23l-1.85.47a3.44,3.44,0,0,0-1,.43l-6.37,4.14a3,3,0,0,0-.92.95l-1,1.7-.68.17a1.25,1.25,0,0,0-.76.57l-1.62,2.74-.26.07a2.19,2.19,0,0,0-1.5,1.31l-2,5.07a2.43,2.43,0,0,0-.09,1.46l.28,1.1a1.28,1.28,0,0,0,.57.76l1,.59a1.35,1.35,0,0,0,1,.14l.18,0,.42,1.65a1.35,1.35,0,0,0,.64.84l1.86,1.11a3,3,0,0,0,2.3.33l2-.51.88-.23s.59-.13.7.28S991.37,218.85,991.37,218.85Z" transform="translate(0.07 -37.93)" fill="#dbe0e4"/><path d="M990.19,218.29a1.77,1.77,0,0,1-.9-.25,1.7,1.7,0,0,1-.81-1.08.25.25,0,0,1,.18-.31.25.25,0,0,1,.3.18,1.24,1.24,0,0,0,.58.78,1.29,1.29,0,0,0,1,.14l7.75-2a2.78,2.78,0,0,0,1.7-1.28l.72-1.22a1.55,1.55,0,0,0,.17-1.17l-.45-1.77a.77.77,0,0,0-.33-.44l-2.13-1.26a.25.25,0,1,1,.25-.43l2.13,1.26a1.24,1.24,0,0,1,.56.75l.45,1.77a2,2,0,0,1-.22,1.54l-.72,1.22a3.26,3.26,0,0,1-2,1.51l-7.74,2A1.72,1.72,0,0,1,990.19,218.29Z" transform="translate(0.07 -37.93)" fill="#67717c"/><path d="M983.56,215.75a3.31,3.31,0,0,1-1.68-.45L980,214.19a1.61,1.61,0,0,1-.75-1,.25.25,0,0,1,.18-.3.24.24,0,0,1,.3.18,1.13,1.13,0,0,0,.52.69l1.87,1.11a2.83,2.83,0,0,0,2.11.3l9.48-2.43a.25.25,0,0,1,.13.49l-9.48,2.42A3.21,3.21,0,0,1,983.56,215.75Z" transform="translate(0.07 -37.93)" fill="#67717c"/><path d="M978.56,211.82a1.69,1.69,0,0,1-.84-.23l-1-.59a1.47,1.47,0,0,1-.69-.91l-.28-1.1a2.54,2.54,0,0,1,.11-1.61l2-5.08a2.5,2.5,0,0,1,1.68-1.47l.93-.24a1.19,1.19,0,0,1,.92.14l8.14,4.82a.25.25,0,0,1,.09.34.26.26,0,0,1-.35.09l-8.13-4.82a.71.71,0,0,0-.55-.08l-.93.24a2,2,0,0,0-1.33,1.17l-2,5.07a2.14,2.14,0,0,0-.08,1.3l.28,1.1a1,1,0,0,0,.45.61l1,.59a1.11,1.11,0,0,0,.85.12.26.26,0,0,1,.31.18.27.27,0,0,1-.18.31A1.83,1.83,0,0,1,978.56,211.82Z" transform="translate(0.07 -37.93)" fill="#67717c"/><path d="M979.9,201.26a.2.2,0,0,1-.13,0,.25.25,0,0,1-.09-.34l1.63-2.74a1.75,1.75,0,0,1,.85-.66,3.12,3.12,0,0,0,1.57-1.73l0-.06a3.17,3.17,0,0,1,1-1l1.14-.75a.26.26,0,0,1,.35.08.24.24,0,0,1-.07.34l-1.15.75a2.63,2.63,0,0,0-.82.84,3.55,3.55,0,0,1-1.81,2,1.44,1.44,0,0,0-.65.47l-1.63,2.75A.27.27,0,0,1,979.9,201.26Z" transform="translate(0.07 -37.93)" fill="#67717c"/><path d="M1005.5,218.93a.26.26,0,0,1-.24-.19l-6.67-26.05a1.78,1.78,0,0,0-.84-1.11l-2.22-1.32a1.84,1.84,0,0,0-1.38-.19l-1.85.47a3.08,3.08,0,0,0-.91.4.25.25,0,0,1-.34-.08.24.24,0,0,1,.07-.34,3.45,3.45,0,0,1,1.06-.46l1.85-.48a2.36,2.36,0,0,1,1.76.25l2.22,1.32a2.28,2.28,0,0,1,1.06,1.42l6.67,26a.25.25,0,0,1-.18.31Z" transform="translate(0.07 -37.93)" fill="#67717c"/><path d="M987.54,193.28a.26.26,0,0,1-.21-.11.26.26,0,0,1,.07-.35l.08,0a.24.24,0,0,1,.34.07.25.25,0,0,1-.07.35l-.07.05A.25.25,0,0,1,987.54,193.28Z" transform="translate(0.07 -37.93)" fill="#67717c"/><path d="M996,201.55a.25.25,0,0,1-.24-.18l-.9-3.52a1.8,1.8,0,0,0-.83-1.11l-4.47-2.65a.25.25,0,1,1,.25-.43l4.47,2.65a2.33,2.33,0,0,1,1.07,1.42l.9,3.51a.26.26,0,0,1-.18.31Z" transform="translate(0.07 -37.93)" fill="#67717c"/><path d="M1006.64,198.62a.33.33,0,0,1-.13,0,.24.24,0,0,1-.08-.34l1.76-3a1.5,1.5,0,0,0,.16-1.17l-.22-.87a1.65,1.65,0,0,0-1-1.14l-6.5-2.55a1.37,1.37,0,0,0-.87,0l-.74.19a1.27,1.27,0,0,0-.78.58l-.57,1a.25.25,0,1,1-.43-.25l.57-1a1.8,1.8,0,0,1,1.08-.81l.75-.19a2,2,0,0,1,1.17.07l6.5,2.55a2.21,2.21,0,0,1,1.32,1.49l.22.86a2.1,2.1,0,0,1-.22,1.55l-1.76,3A.26.26,0,0,1,1006.64,198.62Z" transform="translate(0.07 -37.93)" fill="#67717c"/><path d="M1013.81,207.8a2.19,2.19,0,0,1-1.11-.31l-.62-.37a.8.8,0,0,1-.28-1.1l1-1.73a.24.24,0,0,1,.34-.08.25.25,0,0,1,.09.34l-1,1.73a.29.29,0,0,0,.1.41l.62.37a1.69,1.69,0,0,0,1.28.18l1.15-.29a1.74,1.74,0,0,0,1-.78l.81-1.37a2.15,2.15,0,0,0,.23-1.59l-1.08-4.17a1.78,1.78,0,0,0-.83-1.12l-1.21-.71a1.15,1.15,0,0,0-.85-.13.25.25,0,0,1-.31-.18.25.25,0,0,1,.18-.3,1.63,1.63,0,0,1,1.24.18l1.2.71a2.29,2.29,0,0,1,1.07,1.42l1.07,4.18a2.61,2.61,0,0,1-.28,2l-.82,1.37a2.14,2.14,0,0,1-1.33,1l-1.16.3A2.5,2.5,0,0,1,1013.81,207.8Z" transform="translate(0.07 -37.93)" fill="#67717c"/><path d="M1008.59,214a1.53,1.53,0,0,1-.75-.2l-2.29-1.36a.25.25,0,1,1,.25-.43l2.29,1.36a1,1,0,0,0,.74.1l4.17-1.06a1,1,0,0,0,.59-.45l1-1.73a1,1,0,0,0,.1-.74l-.52-2.05a.25.25,0,0,1,.18-.3.24.24,0,0,1,.3.18l.53,2.05a1.52,1.52,0,0,1-.16,1.12l-1,1.72a1.43,1.43,0,0,1-.9.68L1009,214A1.55,1.55,0,0,1,1008.59,214Z" transform="translate(0.07 -37.93)" fill="#67717c"/><path d="M996.36,204.54a1.75,1.75,0,0,1-1.21-.5.24.24,0,0,1,0-.35.25.25,0,0,1,.35,0,1.25,1.25,0,0,0,1.19.32,1.28,1.28,0,0,0,.78-.58,1.26,1.26,0,1,0-2.22-1.21.25.25,0,0,1-.34.12.26.26,0,0,1-.11-.34,1.76,1.76,0,0,1,3.29.34,1.78,1.78,0,0,1-1.72,2.21Z" transform="translate(0.07 -37.93)" fill="#67717c"/><circle cx="991.81" cy="169.39" r="1.23" fill="#e74b55"/><circle cx="1006.19" cy="182.96" r="1.23" fill="#e74b55"/><circle cx="1005.23" cy="162.4" r="1.23" fill="#e74b55"/></g><path d="M412.64,204.79l-16.19,4.5a1.6,1.6,0,0,1-2-1.1l-4.24-15.27a1.59,1.59,0,0,1,1.11-1.95l32.33-9a1.58,1.58,0,0,1,1.95,1.1l4.24,15.26a1.59,1.59,0,0,1-1.1,2l-2.08.57a.4.4,0,0,0-.28.49l1.67,6a.4.4,0,0,1-.58.45l-7.91-4.47a1.6,1.6,0,0,0-1.21-.15Z" transform="translate(0.07 -37.93)" fill="#dbe0e4"/><path d="M392.27,207.39A1.85,1.85,0,0,1,390.5,206l-4.24-15.26a1.83,1.83,0,0,1,1.28-2.26l4-1.11a.25.25,0,0,1,.31.18.24.24,0,0,1-.17.3l-4,1.11a1.34,1.34,0,0,0-.93,1.65L391,205.91a1.35,1.35,0,0,0,1.65.93l21.94-6.1a1.85,1.85,0,0,1,1.4.17l7.91,4.48a.14.14,0,0,0,.16,0,.13.13,0,0,0,.06-.15l-1.67-6a.66.66,0,0,1,.45-.8l2.08-.57a1.34,1.34,0,0,0,.93-1.65L421.65,181A1.33,1.33,0,0,0,420,180l-17.29,4.8a.25.25,0,1,1-.13-.48l17.28-4.8a1.76,1.76,0,0,1,1.4.17,1.83,1.83,0,0,1,.86,1.1l4.24,15.27a1.84,1.84,0,0,1-1.27,2.26l-2.08.58a.15.15,0,0,0-.11.18l1.67,6a.65.65,0,0,1-.23.69.64.64,0,0,1-.71,0l-7.92-4.47a1.32,1.32,0,0,0-1-.13l-21.95,6.1A1.66,1.66,0,0,1,392.27,207.39Z" transform="translate(0.07 -37.93)" fill="#67717c"/><path d="M399.63,185.67a.25.25,0,0,1-.07-.49l.54-.15a.25.25,0,0,1,.31.17.26.26,0,0,1-.18.31l-.53.15Z" transform="translate(0.07 -37.93)" fill="#67717c"/><path d="M394.75,187a.25.25,0,0,1-.24-.18.25.25,0,0,1,.18-.31l2.67-.74a.24.24,0,0,1,.31.17.25.25,0,0,1-.17.31l-2.68.74Z" transform="translate(0.07 -37.93)" fill="#67717c"/><circle cx="398.98" cy="158.05" r="1.59" fill="#e74b55"/><circle cx="406.62" cy="155.92" r="1.59" fill="#e74b55"/><circle cx="414.27" cy="153.8" r="1.59" fill="#e74b55"/><rect x="919.78" y="185.64" width="24.75" height="24.75" rx="2.2" ry="2.2" transform="translate(133.08 679.2) rotate(-45)" fill="#dbe0e4"/><path d="M918.51,207.13a.22.22,0,0,1-.17-.07l-.26-.25a.26.26,0,0,1,0-.35.25.25,0,0,1,.36,0l.25.25a.25.25,0,0,1-.18.42Z" transform="translate(0.07 -37.93)" fill="#67717c"/><path d="M916.36,205a.24.24,0,0,1-.18-.07l-1.6-1.6a.25.25,0,1,1,.36-.36l1.6,1.6a.27.27,0,0,1,0,.36A.26.26,0,0,1,916.36,205Z" transform="translate(0.07 -37.93)" fill="#67717c"/><path d="M927,214.61a2.74,2.74,0,0,1-1.93-.8L920.3,209a.25.25,0,1,1,.35-.35l4.79,4.79a2.29,2.29,0,0,0,3.14,0l14-14a2.22,2.22,0,0,0,0-3.14l-14-14a2.27,2.27,0,0,0-3.14,0l-14,14a2.23,2.23,0,0,0,0,3.14l1.1,1.1a.25.25,0,1,1-.35.35l-1.1-1.09a2.74,2.74,0,0,1,0-3.86l14-14a2.73,2.73,0,0,1,3.86,0l14,14a2.73,2.73,0,0,1,0,3.86l-14,14A2.74,2.74,0,0,1,927,214.61Z" transform="translate(0.07 -37.93)" fill="#67717c"/><path d="M917.41,189.23a.23.23,0,0,1-.17-.07l-4.31-4.31a.25.25,0,0,1,.35-.35l4.31,4.31a.25.25,0,0,1-.18.42Z" transform="translate(0.07 -37.93)" fill="#67717c"/><path d="M939.92,211.74a.23.23,0,0,1-.17-.07l-4.31-4.31a.25.25,0,0,1,.35-.35l4.31,4.31a.25.25,0,0,1-.18.42Z" transform="translate(0.07 -37.93)" fill="#67717c"/><path d="M932.26,185.88a.27.27,0,0,1-.18-.08.26.26,0,0,1,0-.35l4.31-4.31a.25.25,0,0,1,.36,0,.27.27,0,0,1,0,.36l-4.31,4.3A.25.25,0,0,1,932.26,185.88Z" transform="translate(0.07 -37.93)" fill="#67717c"/><path d="M939.26,192.88a.26.26,0,0,1-.17-.07.25.25,0,0,1,0-.36l4.3-4.31a.27.27,0,0,1,.36,0,.25.25,0,0,1,0,.36l-4.31,4.31A.29.29,0,0,1,939.26,192.88Z" transform="translate(0.07 -37.93)" fill="#67717c"/><circle cx="922.16" cy="160.33" r="1.9" fill="#e74b55"/><circle cx="927.55" cy="154.95" r="1.9" fill="#e74b55"/><circle cx="927.55" cy="165.72" r="1.9" fill="#e74b55"/><circle cx="932.93" cy="160.33" r="1.9" fill="#e74b55"/><circle cx="484.32" cy="172.14" r="14.9" fill="#dbe0e4"/><path d="M481.25,223h-.46A16.43,16.43,0,0,1,465,207.17a15.67,15.67,0,0,1,.25-3.35.24.24,0,0,1,.29-.2.25.25,0,0,1,.2.29,15.76,15.76,0,0,0,15,18.53A15.73,15.73,0,0,0,497,207l-.08-.08h-15a.65.65,0,0,1-.54-.29.66.66,0,0,1-.06-.61l5.86-13.87a.06.06,0,0,0,0-.06,15.23,15.23,0,0,0-5.86-1.16,15.59,15.59,0,0,0-9.3,3,.24.24,0,0,1-.35,0,.25.25,0,0,1,0-.35,16.26,16.26,0,0,1,15.61-2,.58.58,0,0,1,.31.76l-5.86,13.87a.12.12,0,0,0,0,.14.14.14,0,0,0,.12.07h15a.56.56,0,0,1,.42.18.53.53,0,0,1,.16.41A16.23,16.23,0,0,1,481.25,223Z" transform="translate(0.07 -37.93)" fill="#67717c"/><path d="M469.73,195.87a.28.28,0,0,1-.17-.07.25.25,0,0,1,0-.36l.15-.16a.25.25,0,0,1,.36.35l-.16.16A.25.25,0,0,1,469.73,195.87Z" transform="translate(0.07 -37.93)" fill="#67717c"/><path d="M467,199.65l-.11,0a.25.25,0,0,1-.11-.33,17.07,17.07,0,0,1,1.22-2,.25.25,0,0,1,.35-.05.24.24,0,0,1,.06.35,14.13,14.13,0,0,0-1.18,1.94A.26.26,0,0,1,467,199.65Z" transform="translate(0.07 -37.93)" fill="#67717c"/><path d="M499.44,200.5A12,12,0,0,0,494,192a.24.24,0,0,0-.34.08l-5.88,9.53a.31.31,0,0,0,.29.46l11.13-1.26A.24.24,0,0,0,499.44,200.5Z" transform="translate(0.07 -37.93)" fill="#e74b55"/><path d="M471.07,194.38" transform="translate(0.07 -37.93)" fill="none" stroke="#67717c" stroke-linecap="round" stroke-miterlimit="10" stroke-width="0.5"/><g id="cloud"><g id="MobileMe"><path d="M575.67,212.4a7,7,0,0,1-5.82,7.95l-21.23,3.2A7,7,0,0,1,545.47,210,4.41,4.41,0,0,1,549,204.2a4.35,4.35,0,0,1,3,.61c.89-3.27,2.2-6.32,7-7.06,5.89-.88,9.37,3.27,10.1,8.1,0,.2,0,.41.07.61A7,7,0,0,1,575.67,212.4Z" transform="translate(0.07 -37.93)" fill="#dbe0e4"/></g><g id="MobileMe-2" data-name="MobileMe"><path d="M543.89,222.22a7.25,7.25,0,0,1-2.43-14.07,5.23,5.23,0,0,1-.12-.54,4.68,4.68,0,0,1,3.9-5.32,4.61,4.61,0,0,1,2.85.48c.15-.5.28-.93.43-1.33a.24.24,0,0,1,.31-.15.25.25,0,0,1,.16.31c-.17.47-.33,1-.5,1.62l-.09.32-.28-.18a4.14,4.14,0,0,0-6.28,4.17,3.4,3.4,0,0,0,.17.7l.08.24-.25.08a6.74,6.74,0,0,0,3,13.09l5-.75a.26.26,0,0,1,.28.21.25.25,0,0,1-.21.29l-5,.75A7.56,7.56,0,0,1,543.89,222.22Z" transform="translate(0.07 -37.93)" fill="#67717c"/></g><g id="MobileMe-3" data-name="MobileMe"><path d="M566.15,218.94a.25.25,0,0,1-.24-.21.25.25,0,0,1,.21-.29,6.59,6.59,0,0,0,4.38-2.65,6.77,6.77,0,0,0-5-10.75h-.22l0-.22c0-.19,0-.39-.07-.58-.56-3.73-3.06-8-8.28-8h-.28a.25.25,0,0,1-.26-.25.25.25,0,0,1,.24-.25c5.75-.17,8.48,4.43,9.08,8.42,0,.14,0,.27.05.41a7.26,7.26,0,0,1,5.2,11.52,7.12,7.12,0,0,1-4.71,2.86Z" transform="translate(0.07 -37.93)" fill="#67717c"/></g><g id="MobileMe-4" data-name="MobileMe"><path d="M551.42,197.84a.26.26,0,0,1-.2-.11.24.24,0,0,1,0-.34,7.94,7.94,0,0,1,2.65-1.26.25.25,0,0,1,.31.17.26.26,0,0,1-.18.31,7.31,7.31,0,0,0-2.48,1.18A.25.25,0,0,1,551.42,197.84Z" transform="translate(0.07 -37.93)" fill="#67717c"/></g><g id="MobileMe-5" data-name="MobileMe"><path d="M550,199.37a.3.3,0,0,1-.15-.05.25.25,0,0,1-.06-.35l.33-.43a.26.26,0,0,1,.36,0,.25.25,0,0,1,0,.35c-.11.13-.21.27-.31.41A.26.26,0,0,1,550,199.37Z" transform="translate(0.07 -37.93)" fill="#67717c"/></g><path d="M551.41,229.24a.26.26,0,0,1-.25-.21.25.25,0,0,1,.21-.28l1-.16a2.59,2.59,0,0,0,2.17-2.93l-1.3-8.62a.24.24,0,0,1,.21-.28.25.25,0,0,1,.28.21l1.3,8.61a3.1,3.1,0,0,1-2.59,3.51l-1,.15Z" transform="translate(0.07 -37.93)" fill="#e74b55"/><path d="M561.76,224.79a3.1,3.1,0,0,1-3-2.63l-.88-5.81a.26.26,0,0,1,.21-.29.27.27,0,0,1,.29.21l.87,5.82a2.59,2.59,0,0,0,2.94,2.17l1-.15a.25.25,0,1,1,.07.49l-1,.15A3.73,3.73,0,0,1,561.76,224.79Z" transform="translate(0.07 -37.93)" fill="#e74b55"/></g><path d="M743.19,197.69a6.7,6.7,0,0,1-2.84-.53A9.46,9.46,0,1,1,748.19,180c4.65,2.12,7.34,12.82,7.45,13.28a.75.75,0,0,1-1.45.36c-.72-2.9-3.31-10.76-6.62-12.28A8,8,0,1,0,741,195.8c1.88.86,5.48.32,10.13-1.52a.76.76,0,0,1,1,.42.75.75,0,0,1-.43,1A25.15,25.15,0,0,1,743.19,197.69Z" transform="translate(0.07 -37.93)" fill="#dbe0e4"/><path d="M765.55,207.71a9.38,9.38,0,0,1-3.91-.85c-4.65-2.11-7.34-12.82-7.45-13.27a.75.75,0,1,1,1.45-.36c.72,2.9,3.31,10.76,6.62,12.27a8,8,0,1,0,6.6-14.49,7.8,7.8,0,0,0-4.35-.19.75.75,0,0,1-.86-.62.74.74,0,0,1,.61-.86,9.06,9.06,0,0,1,5.22.31,9.45,9.45,0,0,1-3.93,18.06Z" transform="translate(0.07 -37.93)" fill="#dbe0e4"/><path d="M742.53,192.33a6.49,6.49,0,0,1-2.65-.48,9,9,0,0,1,7.43-16.31c4.44,2,7.07,12.5,7.18,12.94a.26.26,0,0,1-.19.31.25.25,0,0,1-.3-.19c0-.1-2.68-10.68-6.9-12.6a8.46,8.46,0,1,0-7,15.39c2.57,1.17,7.14-.17,10.53-1.51a.24.24,0,0,1,.32.14.25.25,0,0,1-.14.33A24.8,24.8,0,0,1,742.53,192.33Z" transform="translate(0.07 -37.93)" fill="#67717c"/><path d="M757.94,187.16a.25.25,0,0,1-.09-.48l.73-.28a.25.25,0,1,1,.18.47c-.25.09-.5.18-.73.28Z" transform="translate(0.07 -37.93)" fill="#67717c"/><path d="M764.89,202.36a9.05,9.05,0,0,1-3.71-.81c-4.44-2-7.07-12.5-7.18-13a.25.25,0,0,1,.19-.3.26.26,0,0,1,.3.18c0,.11,2.68,10.69,6.9,12.61a8.46,8.46,0,0,0,7-15.39c-1.43-.66-3.65-.59-6.6.19a.25.25,0,0,1-.13-.48c3.06-.81,5.4-.87,6.94-.17A9,9,0,0,1,773,197.11a8.88,8.88,0,0,1-5,4.67A8.77,8.77,0,0,1,764.89,202.36Z" transform="translate(0.07 -37.93)" fill="#67717c"/><path d="M743,188.9l-.1,0a6.28,6.28,0,0,1-3.65-6.37.23.23,0,0,1,.27-.22.23.23,0,0,1,.22.27,5.78,5.78,0,0,0,3.37,5.86.25.25,0,0,1,.12.33A.24.24,0,0,1,743,188.9Z" transform="translate(0.07 -37.93)" fill="#e74b55"/><path d="M308,195.09a.27.27,0,0,1-.12,0,.26.26,0,0,1-.09-.35,15.68,15.68,0,0,1,2.49-3.25.25.25,0,1,1,.35.35,16.11,16.11,0,0,0-2.41,3.16A.25.25,0,0,1,308,195.09Z" transform="translate(0.07 -37.93)" fill="#67717c"/><path d="M313.54,189.48a.25.25,0,0,1-.21-.12.24.24,0,0,1,.08-.34c.25-.15.5-.3.76-.43a.25.25,0,0,1,.34.1.25.25,0,0,1-.11.34c-.24.13-.49.27-.73.42A.28.28,0,0,1,313.54,189.48Z" transform="translate(0.07 -37.93)" fill="#67717c"/><path d="M335.19,195.09A.24.24,0,0,1,335,195,15.41,15.41,0,0,0,316.75,188a.26.26,0,0,1-.32-.16.26.26,0,0,1,.16-.32,15.94,15.94,0,0,1,18.82,7.16.26.26,0,0,1-.09.35A.28.28,0,0,1,335.19,195.09Z" transform="translate(0.07 -37.93)" fill="#67717c"/><path d="M327.7,170.54a7.32,7.32,0,0,1-6.09,11.4,7.25,7.25,0,0,1-3.12-.71,7.31,7.31,0,1,0,9.21-10.69Z" transform="translate(0.07 -37.93)" fill="#dce1e5"/><circle cx="343.02" cy="144.01" r="4.19" fill="#dce1e5"/><path d="M341.05,184.56a4.44,4.44,0,1,1,4.44-4.44A4.44,4.44,0,0,1,341.05,184.56Zm0-8.37a3.94,3.94,0,1,0,3.94,3.93A3.94,3.94,0,0,0,341.05,176.19Z" transform="translate(0.07 -37.93)" fill="#67717c"/><path d="M349.73,193.45a.25.25,0,0,1-.23-.15,9.17,9.17,0,0,0-8.45-5.6,9.32,9.32,0,0,0-2.23.27.25.25,0,0,1-.12-.48,9.82,9.82,0,0,1,2.35-.29,9.67,9.67,0,0,1,8.91,5.9.26.26,0,0,1-.13.33Z" transform="translate(0.07 -37.93)" fill="#67717c"/><circle cx="305.15" cy="144.01" r="4.19" fill="#dce1e5"/><path d="M303.16,184.56a4.44,4.44,0,1,1,4.44-4.44A4.44,4.44,0,0,1,303.16,184.56Zm0-8.37a3.94,3.94,0,1,0,3.94,3.93A3.93,3.93,0,0,0,303.16,176.19Z" transform="translate(0.07 -37.93)" fill="#67717c"/><path d="M294.49,193.45l-.1,0a.24.24,0,0,1-.13-.33,9.66,9.66,0,0,1,11.25-5.61.24.24,0,0,1,.18.3.25.25,0,0,1-.3.18,9.19,9.19,0,0,0-10.67,5.33A.26.26,0,0,1,294.49,193.45Z" transform="translate(0.07 -37.93)" fill="#67717c"/><path d="M321.39,190.92l-2,2.56a.27.27,0,0,0-.05.23l.8,4.42a.28.28,0,0,0,.28.23h2.33a.29.29,0,0,0,.28-.23l.8-4.42a.36.36,0,0,0-.05-.23l-2-2.56A.28.28,0,0,0,321.39,190.92Z" transform="translate(0.07 -37.93)" fill="#e84b54"/><path d="M303,190.17l-1.14,1.49a.14.14,0,0,0,0,.13l.46,2.56a.16.16,0,0,0,.17.13h1.34a.17.17,0,0,0,.17-.13l.46-2.56a.14.14,0,0,0,0-.13l-1.14-1.49A.17.17,0,0,0,303,190.17Z" transform="translate(0.07 -37.93)" fill="#e84b54"/><path d="M340.57,190.17l-1.14,1.49a.14.14,0,0,0,0,.13l.46,2.56a.15.15,0,0,0,.16.13h1.35a.15.15,0,0,0,.16-.13l.47-2.56a.14.14,0,0,0,0-.13l-1.14-1.49A.17.17,0,0,0,340.57,190.17Z" transform="translate(0.07 -37.93)" fill="#e84b54"/><path d="M321.61,182.19a7.57,7.57,0,0,1-7.57-7.57,7.4,7.4,0,0,1,.31-2.15,7.58,7.58,0,1,1,7.26,9.72Zm0-14.65a7.08,7.08,0,1,0,7.08,7.08A7.12,7.12,0,0,0,321.61,167.54Z" transform="translate(0.07 -37.93)" fill="#67717c"/><g id="Consulting"><path d="M1082.31,193.36h7V192a.2.2,0,0,0-.2-.2H1083" transform="translate(0.07 -37.93)" fill="#dce1e5"/><path d="M1095.36,183h-.09a.13.13,0,0,1,0,.06v7.18a1.58,1.58,0,0,1-1.58,1.58h-1.25a.23.23,0,0,0-.15.07l-1.34,1.56v2.63a.2.2,0,0,0,.35.13l2.47-2.87h1.58a1.59,1.59,0,0,0,1.59-1.58V184.6A1.59,1.59,0,0,0,1095.36,183Z" transform="translate(0.07 -37.93)" fill="#dce1e5"/><path d="M1077.64,188.49a9.05,9.05,0,0,0-9,9.06,9.4,9.4,0,0,0,.28,2.2v-2.66c0-.14,0-.28,0-.41a.09.09,0,0,1,.12-.09,10.93,10.93,0,0,0,2.44.27,11.1,11.1,0,0,0,6.93-2.45c.14-.11.18.1.18.1a4.24,4.24,0,0,0,4.24,4h.22s.09,0,.09.09v3.74a7.12,7.12,0,0,1-.61,2.89,9.06,9.06,0,0,0-4.87-16.68Z" transform="translate(0.07 -37.93)" fill="#dce1e5"/><path d="M1084.26,203.48v.45a6,6,0,0,1-5.84,6l0-1a7,7,0,0,0,4.51-4.93Z" transform="translate(0.07 -37.93)" fill="#dce1e5"/><path d="M1066.43,213.83a.25.25,0,0,1-.24-.2.25.25,0,0,1,.19-.29l4.1-.83a.24.24,0,0,1,.29.19.25.25,0,0,1-.19.3l-4.1.83Z" transform="translate(0.07 -37.93)" fill="#67717c"/><path d="M1084.32,213.66h0L1081,213a.25.25,0,1,1,.1-.49l3.25.66a.24.24,0,0,1,.19.29A.24.24,0,0,1,1084.32,213.66Z" transform="translate(0.07 -37.93)" fill="#67717c"/><path d="M1075.8,216.08a1.78,1.78,0,0,1-1.48-.81.26.26,0,0,1,.08-.35.25.25,0,0,1,.34.08,1.26,1.26,0,0,0,1.06.58,1.23,1.23,0,0,0,1.07-.61.26.26,0,0,1,.35-.09.25.25,0,0,1,.08.34A1.75,1.75,0,0,1,1075.8,216.08Z" transform="translate(0.07 -37.93)" fill="#67717c"/><path d="M1073.74,216a.62.62,0,0,1-.44-.18l-2.68-2.68a.64.64,0,0,1,0-.89l1.55-1.54a.64.64,0,0,1,.89,0l2.67,2.67a.62.62,0,0,1,0,.89l-1.54,1.55A.66.66,0,0,1,1073.74,216Zm-2.77-3.39a.13.13,0,0,0,0,.18l2.68,2.68a.13.13,0,0,0,.18,0l1.55-1.55a.13.13,0,0,0,0-.18L1072.7,211c-.06-.07-.11-.07-.18,0Z" transform="translate(0.07 -37.93)" fill="#67717c"/><path d="M1077.85,216a.62.62,0,0,1-.44-.18l-1.55-1.55a.64.64,0,0,1,0-.89l2.68-2.67a.63.63,0,0,1,.44-.19h0a.64.64,0,0,1,.45.19l1.55,1.54a.64.64,0,0,1,0,.89l-2.68,2.68A.64.64,0,0,1,1077.85,216Zm1.13-5h0a.16.16,0,0,0-.09,0l-2.67,2.68a.13.13,0,0,0,0,.18l1.54,1.55a.14.14,0,0,0,.19,0l2.67-2.68a.13.13,0,0,0,0-.18l-1.54-1.55A.18.18,0,0,0,1079,211Z" transform="translate(0.07 -37.93)" fill="#67717c"/><path d="M1068.46,203.42h-.22a1,1,0,0,1-1-1v-1.21a1,1,0,0,1,1-1,.25.25,0,0,1,0,.5.49.49,0,0,0-.48.48v1.21a.49.49,0,0,0,.48.48h.22a.47.47,0,0,0,.28-.09.25.25,0,0,1,.35.06.25.25,0,0,1-.06.35A1,1,0,0,1,1068.46,203.42Z" transform="translate(0.07 -37.93)" fill="#67717c"/><path d="M1083.77,203.42h-.23a1,1,0,0,1-.56-.18.25.25,0,0,1-.06-.35.25.25,0,0,1,.35-.06.44.44,0,0,0,.27.09h.23a.49.49,0,0,0,.48-.48v-1.21a.49.49,0,0,0-.48-.48.25.25,0,0,1,0-.5,1,1,0,0,1,1,1v1.21A1,1,0,0,1,1083.77,203.42Z" transform="translate(0.07 -37.93)" fill="#67717c"/><path d="M1068.88,201.44a.25.25,0,0,1-.19-.09,9.23,9.23,0,0,1-2-5.73,9.36,9.36,0,0,1,1.46-5,.26.26,0,0,1,.35-.08.26.26,0,0,1,.07.35,8.83,8.83,0,0,0-1.38,4.75,8.72,8.72,0,0,0,1.86,5.42.24.24,0,0,1,0,.35A.3.3,0,0,1,1068.88,201.44Z" transform="translate(0.07 -37.93)" fill="#67717c"/><path d="M1069.2,189.91a.27.27,0,0,1-.17-.06.26.26,0,0,1,0-.36l.13-.14a.25.25,0,0,1,.35,0,.26.26,0,0,1,0,.36l-.12.13A.25.25,0,0,1,1069.2,189.91Z" transform="translate(0.07 -37.93)" fill="#67717c"/><path d="M1070.28,188.85a.25.25,0,0,1-.19-.09.25.25,0,0,1,0-.35,8.9,8.9,0,0,1,.94-.67.24.24,0,0,1,.34.07.26.26,0,0,1-.07.35,7.19,7.19,0,0,0-.89.64A.24.24,0,0,1,1070.28,188.85Z" transform="translate(0.07 -37.93)" fill="#67717c"/><path d="M1083.12,201.44a.3.3,0,0,1-.15-.05.24.24,0,0,1,0-.35,8.81,8.81,0,0,0-9.82-13.75.24.24,0,0,1-.31-.15.25.25,0,0,1,.15-.32,9.3,9.3,0,0,1,10.37,14.52A.23.23,0,0,1,1083.12,201.44Z" transform="translate(0.07 -37.93)" fill="#67717c"/><path d="M1076,209.66a7.39,7.39,0,0,1-7.37-7.38v-5.19c0-.15,0-.29,0-.42a.33.33,0,0,1,.15-.28.35.35,0,0,1,.31,0,10.87,10.87,0,0,0,9.12-2.14.36.36,0,0,1,.35-.07.43.43,0,0,1,.23.32,4,4,0,0,0,4,3.74h.31l.13.06a.34.34,0,0,1,.13.28v3.74A7.38,7.38,0,0,1,1076,209.66Zm-6.86-12.78a1.41,1.41,0,0,0,0,.21v5.19a6.87,6.87,0,1,0,13.74,0v-3.57h-.07a4.51,4.51,0,0,1-4.46-3.94,11.3,11.3,0,0,1-6.88,2.34A12,12,0,0,1,1069.14,196.88Zm-.17,0h0Zm.18-.15Z" transform="translate(0.07 -37.93)" fill="#67717c"/><path d="M1075.91,204.18a1.21,1.21,0,0,1-.91-.41.24.24,0,0,1,0-.35.25.25,0,0,1,.35,0,.71.71,0,0,0,1.06,0,.25.25,0,0,1,.35,0,.24.24,0,0,1,0,.35A1.15,1.15,0,0,1,1075.91,204.18Z" transform="translate(0.07 -37.93)" fill="#67717c"/><path d="M1075.91,207.15a3.2,3.2,0,0,1-2.83-1.68.24.24,0,0,1,.1-.34.25.25,0,0,1,.33.1,2.73,2.73,0,0,0,4.79,0,.26.26,0,0,1,.34-.1.26.26,0,0,1,.1.34A3.23,3.23,0,0,1,1075.91,207.15Z" transform="translate(0.07 -37.93)" fill="#67717c"/><path d="M1078.22,200a.72.72,0,1,0,.72-.72A.72.72,0,0,0,1078.22,200Z" transform="translate(0.07 -37.93)" fill="#dce1e5"/><path d="M1072.31,200a.72.72,0,1,0,.72-.72A.72.72,0,0,0,1072.31,200Z" transform="translate(0.07 -37.93)" fill="#dce1e5"/><path d="M1075.73,216.44l-1.52,2a.22.22,0,0,0,0,.18l.62,3.41a.22.22,0,0,0,.21.18h1.8a.23.23,0,0,0,.22-.18l.61-3.41a.19.19,0,0,0,0-.18l-1.51-2A.22.22,0,0,0,1075.73,216.44Z" transform="translate(0.07 -37.93)" fill="#e84b54"/><path d="M1078.22,210" transform="translate(0.07 -37.93)" fill="none" stroke="#67717c" stroke-linecap="round" stroke-miterlimit="10" stroke-width="0.5"/><path d="M1089.49,195.32l-.15,0a.45.45,0,0,1-.3-.42v-2.78h-2.63a.25.25,0,0,1,0-.5h2.68a.45.45,0,0,1,.45.45v2.69l2.57-3a.46.46,0,0,1,.34-.16h1.25a1.34,1.34,0,0,0,1.33-1.33v-7.18a1.33,1.33,0,0,0-1.33-1.33h-13a1.33,1.33,0,0,0-1.34,1.33v2.16a.25.25,0,0,1-.25.25.25.25,0,0,1-.25-.25v-2.16a1.84,1.84,0,0,1,1.84-1.83h13a1.83,1.83,0,0,1,1.83,1.83v7.18a1.83,1.83,0,0,1-1.83,1.83h-1.25l-2.62,3.07A.46.46,0,0,1,1089.49,195.32Zm-.4-3.23h0Z" transform="translate(0.07 -37.93)" fill="#67717c"/><path d="M1091.91,185.42h-8.72a.25.25,0,0,1,0-.5h8.72a.25.25,0,0,1,0,.5Z" transform="translate(0.07 -37.93)" fill="#e84b54"/><path d="M1091.91,187.8h-4a.25.25,0,0,1-.25-.25.25.25,0,0,1,.25-.25h4a.25.25,0,0,1,.25.25A.26.26,0,0,1,1091.91,187.8Z" transform="translate(0.07 -37.93)" fill="#e84b54"/></g><g id="Shared_IP"><path d="M228.2,201.84" transform="translate(0.07 -37.93)" fill="#dce1e5"/><path d="M237,199.5a1.77,1.77,0,0,1-.22,2.21l-.31.3a1.75,1.75,0,0,1-2,.32L234,202a1.76,1.76,0,0,1,0,2.48l-.2.2a1.75,1.75,0,0,1-2.08.29l-.4-.29a1.74,1.74,0,0,1,0,2.48l-.15.15a1.76,1.76,0,0,1-2.48,0L227,205.67l-.29.13a1.74,1.74,0,0,1-2.48,0l-.15-.15a1.75,1.75,0,0,1,0-2.47,1.75,1.75,0,0,1-2.47,0l-.15-.15a1.74,1.74,0,0,1,0-2.48l-.44.32a1.75,1.75,0,0,1-2-.32l-.15-.15a1.77,1.77,0,0,1-.36-2l.36-.51a1.74,1.74,0,0,1-2.48,0l-.15-.15a1.76,1.76,0,0,1,0-2.48l.21-.2-1.91-5.61a2.35,2.35,0,0,0-.6-1l-2.53-2.53-1.05-1.18a1,1,0,0,1-1.48,0l-1.08-1.08a1,1,0,0,1,0-1.48l6.84-6.85a1,1,0,0,1,1.48,0l1.09,1.08,1.39,2.32,2.53,2.54a1.76,1.76,0,0,0,1,.5l6,1.83.94-.26,4.41-1.35a1.69,1.69,0,0,0,.73-.43l1.82-1.82,1.46-1.14a1,1,0,0,1,0-1.48l1.08-1.08a1,1,0,0,1,1.48,0l6.85,6.84a1,1,0,0,1,0,1.48l-1.08,1.09-2.74,1.33-1.91,1.91a2,2,0,0,0-.53,1L239,195.46l.74.74a1.76,1.76,0,0,1,0,2.48l-.55.55a1.75,1.75,0,0,1-1.57.48l-.68-.21" transform="translate(0.07 -37.93)" fill="#dce1e5"/><path d="M212.05,194.65l-1.38-3.77-.6-1.76-.39-.76-3.8-4,6.85-6.85,1.39.84,2.59,2.59,6.65,2.28.11.26-3.88,3.86a1.6,1.6,0,0,0-.2,2.21c.87,1.4,2.2,1.4,3,.58s2.46-2.32,2.46-2.32a1.73,1.73,0,0,1,2.48,0l8.11,8.12s.79,1.18.13,2.06-1.56,1.86-2.75,1.2c0,0,.18,1.56-.51,2.13s-1.55,1.09-2.28.65a3.74,3.74,0,0,1-.22,1.75,2.13,2.13,0,0,1-2.45.93s.2,1.35-.32,1.89a2.05,2.05,0,0,1-2.34.71,7.7,7.7,0,0,1-2.13-2Z" transform="translate(0.07 -37.93)" fill="#fff"/><rect x="211" y="193.61" width="5.61" height="3.72" rx="1.75" ry="1.75" transform="translate(-75.52 170.5) rotate(-45)" fill="#dce1e5"/><path d="M213.14,198.28a2,2,0,0,1-1.42-.58l-.15-.15a2,2,0,0,1-.58-1.42,2,2,0,0,1,.58-1.41l1.49-1.49a2,2,0,0,1,2.83,0l.15.15a2,2,0,0,1,0,2.83l-1.49,1.49A2,2,0,0,1,213.14,198.28Zm1.34-5.14a1.53,1.53,0,0,0-1.07.44l-1.48,1.49a1.46,1.46,0,0,0-.44,1.06,1.5,1.5,0,0,0,.44,1.07l.15.14a1.49,1.49,0,0,0,2.12,0l1.49-1.48a1.52,1.52,0,0,0,0-2.13l-.15-.15A1.51,1.51,0,0,0,214.48,193.14Z" transform="translate(0.07 -37.93)" fill="#67717c"/><rect x="213.63" y="196.23" width="5.61" height="3.72" rx="1.75" ry="1.75" transform="translate(-76.61 173.13) rotate(-45)" fill="#dce1e5"/><path d="M215.77,200.91a2,2,0,0,1-1.42-.59l-.15-.14a2,2,0,0,1,0-2.84l1.49-1.48a2,2,0,0,1,2.83,0l.15.15a2,2,0,0,1,0,2.83l-1.49,1.48A2,2,0,0,1,215.77,200.91Zm1.33-5.14a1.51,1.51,0,0,0-1.06.44l-1.49,1.49a1.51,1.51,0,0,0,0,2.12l.15.15a1.5,1.5,0,0,0,2.13,0l1.48-1.49a1.49,1.49,0,0,0,0-2.12l-.14-.15A1.53,1.53,0,0,0,217.1,195.77Z" transform="translate(0.07 -37.93)" fill="#67717c"/><rect x="216.26" y="198.86" width="5.61" height="3.72" rx="1.75" ry="1.75" transform="translate(-77.69 175.76) rotate(-45)" fill="#dce1e5"/><path d="M218.39,203.54A2,2,0,0,1,217,203l-.15-.15a2,2,0,0,1,0-2.83l1.49-1.49a2,2,0,0,1,2.83,0l.15.15a2,2,0,0,1,0,2.83L219.81,203A2,2,0,0,1,218.39,203.54Zm1.34-5.14a1.47,1.47,0,0,0-1.06.44l-1.49,1.49a1.51,1.51,0,0,0,0,2.12l.15.15a1.54,1.54,0,0,0,2.13,0l1.48-1.49a1.49,1.49,0,0,0,0-2.12l-.15-.15A1.45,1.45,0,0,0,219.73,198.4Z" transform="translate(0.07 -37.93)" fill="#67717c"/><rect x="218.88" y="201.49" width="5.61" height="3.72" rx="1.75" ry="1.75" transform="translate(-78.78 178.38) rotate(-45)" fill="#dce1e5"/><path d="M221,206.16a2,2,0,0,1-1.42-.58l-.15-.15a2,2,0,0,1,0-2.83l1.49-1.49a2,2,0,0,1,2.83,0l.15.15a2,2,0,0,1,0,2.83l-1.49,1.49A2,2,0,0,1,221,206.16Zm1.34-5.14a1.53,1.53,0,0,0-1.07.44L219.81,203a1.46,1.46,0,0,0-.44,1.06,1.5,1.5,0,0,0,.44,1.07l.15.15a1.5,1.5,0,0,0,2.12,0l1.49-1.48a1.52,1.52,0,0,0,0-2.13l-.15-.15A1.51,1.51,0,0,0,222.36,201Z" transform="translate(0.07 -37.93)" fill="#67717c"/><path d="M225.43,207.68a2,2,0,0,1-1.41-.59l-1.65-1.64a.25.25,0,0,1,0-.36.26.26,0,0,1,.35,0l1.65,1.65a1.49,1.49,0,0,0,2.12,0l.15-.15a1.49,1.49,0,0,0,0-2.12L225.16,203a.25.25,0,0,1,.35-.35l1.49,1.48a2,2,0,0,1,0,2.84l-.15.14A2,2,0,0,1,225.43,207.68Z" transform="translate(0.07 -37.93)" fill="#67717c"/><path d="M228.06,205.05a2,2,0,0,1-1.41-.59L225.16,203a.25.25,0,0,1,0-.36.26.26,0,0,1,.35,0l1.49,1.49a1.49,1.49,0,0,0,2.12,0l.2-.19a1.5,1.5,0,0,0,0-2.13.25.25,0,0,1,.35-.35,2,2,0,0,1,0,2.83l-.19.19A2,2,0,0,1,228.06,205.05Z" transform="translate(0.07 -37.93)" fill="#67717c"/><path d="M230.74,202.37a2,2,0,0,1-1.41-.59l-4.22-4.21a.26.26,0,0,1,0-.35.25.25,0,0,1,.36,0l4.21,4.21a1.53,1.53,0,0,0,2.12,0l.31-.3a1.52,1.52,0,0,0,0-2.13.25.25,0,0,1,.35-.35,2,2,0,0,1,0,2.83l-.3.3A2,2,0,0,1,230.74,202.37Z" transform="translate(0.07 -37.93)" fill="#67717c"/><path d="M233.52,199.59a2,2,0,0,1-1.41-.59l-5.93-5.92a.25.25,0,0,1,0-.36.24.24,0,0,1,.35,0l5.93,5.93a1.5,1.5,0,0,0,2.13,0l.54-.55a1.49,1.49,0,0,0,0-2.12l-8-8a1.5,1.5,0,0,0-2.13,0l-.15.14a.25.25,0,0,1-.35-.35l.15-.15a2.06,2.06,0,0,1,2.83,0l8,8a2,2,0,0,1,0,2.83l-.54.54A2,2,0,0,1,233.52,199.59Z" transform="translate(0.07 -37.93)" fill="#67717c"/><path d="M223.69,183.46l-.07,0-6-1.82a2,2,0,0,1-1.12-.56l-2.54-2.54a.25.25,0,0,1,0-.36.26.26,0,0,1,.35,0l2.54,2.54a1.45,1.45,0,0,0,.87.43l6.07,1.84a.25.25,0,0,1-.07.49Z" transform="translate(0.07 -37.93)" fill="#67717c"/><path d="M210.05,189.33a.25.25,0,0,1-.24-.18,2.17,2.17,0,0,0-.54-.91l-2.53-2.53a.25.25,0,0,1,0-.36.24.24,0,0,1,.35,0l2.53,2.53a2.62,2.62,0,0,1,.67,1.13.25.25,0,0,1-.17.31Z" transform="translate(0.07 -37.93)" fill="#67717c"/><path d="M210.85,191.69a.25.25,0,0,1-.23-.17l-.19-.56a.23.23,0,0,1,.15-.31.24.24,0,0,1,.32.15l.19.56a.25.25,0,0,1-.16.31Z" transform="translate(0.07 -37.93)" fill="#67717c"/><path d="M212,194.93a.25.25,0,0,1-.24-.16l-.5-1.49a.24.24,0,0,1,.15-.32.25.25,0,0,1,.32.15l.51,1.49a.26.26,0,0,1-.16.32Z" transform="translate(0.07 -37.93)" fill="#67717c"/><path d="M234.56,195.31h-.06a.26.26,0,0,1-.18-.31l1.63-5.75a2.14,2.14,0,0,1,.61-1.12l1.9-1.9a.25.25,0,0,1,.36,0,.26.26,0,0,1,0,.35l-1.91,1.91a1.72,1.72,0,0,0-.47.88l-1.63,5.77A.27.27,0,0,1,234.56,195.31Z" transform="translate(0.07 -37.93)" fill="#67717c"/><path d="M221.22,191a2,2,0,0,1-1.42-.59l-.39-.39a2,2,0,0,1-.59-1.42,2,2,0,0,1,.59-1.41l3.66-3.66a2.69,2.69,0,0,1,1.52-.78l4.38-1.34a1.51,1.51,0,0,0,.62-.37l1.83-1.82a.25.25,0,0,1,.35.35L230,181.34a1.85,1.85,0,0,1-.84.5l-4.41,1.35a2.27,2.27,0,0,0-1.28.64l-3.66,3.66a1.51,1.51,0,0,0,0,2.12l.4.4a1.49,1.49,0,0,0,2.12,0l2.56-2.55a.25.25,0,0,1,.35.35l-2.55,2.55A2,2,0,0,1,221.22,191Z" transform="translate(0.07 -37.93)" fill="#67717c"/><path d="M242.46,182.49a1,1,0,0,1,0,1.48l-1.08,1.09a1.06,1.06,0,0,1-1.48,0l-6.85-6.85a1,1,0,0,1,0-1.48l1.08-1.09a1.06,1.06,0,0,1,1.48,0" transform="translate(0.07 -37.93)" fill="#fff"/><path d="M240.64,185.61a1.29,1.29,0,0,1-.92-.38l-6.85-6.85a1.3,1.3,0,0,1-.38-.91,1.32,1.32,0,0,1,.38-.92l1.08-1.08a1.3,1.3,0,0,1,1.84,0,.26.26,0,0,1,0,.35.25.25,0,0,1-.36,0,.79.79,0,0,0-1.12,0l-1.09,1.08a.81.81,0,0,0,0,1.13l6.85,6.85a.8.8,0,0,0,1.13,0l1.08-1.08a.79.79,0,0,0,0-1.13.24.24,0,0,1,0-.35.25.25,0,0,1,.36,0,1.3,1.3,0,0,1,.38.91,1.32,1.32,0,0,1-.38.92l-1.09,1.08A1.29,1.29,0,0,1,240.64,185.61Z" transform="translate(0.07 -37.93)" fill="#e84b54"/><path d="M205.13,184.91a1.29,1.29,0,0,1-.92-.38l-1.08-1.09a.25.25,0,0,1,.35-.35l1.08,1.08a.8.8,0,0,0,1.13,0l6.85-6.85a.79.79,0,0,0,0-1.12l-1.08-1.08a.25.25,0,0,1,0-.36.24.24,0,0,1,.35,0l1.08,1.08a1.3,1.3,0,0,1,0,1.84L206,184.53A1.29,1.29,0,0,1,205.13,184.91Z" transform="translate(0.07 -37.93)" fill="#e84b54"/></g><g id="UI_front_End" data-name="UI&amp;front End"><g id="progress"><path d="M686.92,186.37l-24.69-.06a4.29,4.29,0,0,0-4.31,4.29l0,11,28.32.07v.72a4.3,4.3,0,0,1-4.32,4.29l-24-.06a4.29,4.29,0,0,0,4.27,4.09l24.69.06a4.29,4.29,0,0,0,4.31-4.29l0-15.81A4.3,4.3,0,0,0,686.92,186.37Z" transform="translate(0.07 -37.93)" fill="#dce1e5"/><path d="M652.94,191.59h0a.25.25,0,0,1-.25-.25v-.7a.25.25,0,0,1,.25-.25h0a.25.25,0,0,1,.25.25v.7A.25.25,0,0,1,652.94,191.59Z" transform="translate(0.07 -37.93)" fill="#67717c"/><path d="M681.9,206.84h0l-24.69-.06a4.56,4.56,0,0,1-4.54-4.57l0-7.46a.25.25,0,0,1,.25-.25h0a.25.25,0,0,1,.25.25l0,7.46a4.05,4.05,0,0,0,4,4.07l24.69.06h0a4.07,4.07,0,0,0,4.06-4l0-15.81a4.06,4.06,0,0,0-4-4.07l-24.7-.06h0a4,4,0,0,0-4,4,.25.25,0,0,1-.25.25h0a.25.25,0,0,1-.25-.25,4.54,4.54,0,0,1,4.55-4.54h0l24.69.06a4.56,4.56,0,0,1,4.54,4.57l0,15.81A4.56,4.56,0,0,1,681.9,206.84Z" transform="translate(0.07 -37.93)" fill="#67717c"/><path d="M674,211.58h0l-8.88,0a.25.25,0,0,1,0-.5h0l8.88,0a.25.25,0,0,1,0,.5Z" transform="translate(0.07 -37.93)" fill="#67717c"/><polygon points="686.28 163.59 652.98 163.5 652.98 163 686.28 163.09 686.28 163.59" fill="#67717c"/></g><path d="M657.43,211.49h-10.5a1,1,0,0,1-1-1V193.64a1,1,0,0,1,1.05-1h10.5a1,1,0,0,1,1,1.05v16.79A1,1,0,0,1,657.43,211.49Z" transform="translate(0.07 -37.93)" fill="#dce1e5"/><path d="M643.62,194.91v-3.78a1,1,0,0,1,1-1h10.5a1,1,0,0,1,1.05,1l0,13H643.6V202" transform="translate(0.07 -37.93)" fill="#fff"/><path d="M643.61,197.52a.25.25,0,0,1-.25-.25v-.08a.25.25,0,0,1,.25-.25.25.25,0,0,1,.25.25v.08A.25.25,0,0,1,643.61,197.52Z" transform="translate(0.07 -37.93)" fill="#67717c"/><path d="M655.16,209.24h-10.5a1.3,1.3,0,0,1-1.3-1.3v-8.76a.25.25,0,0,1,.25-.25h0a.25.25,0,0,1,.25.25v8.76a.8.8,0,0,0,.8.8h10.5a.8.8,0,0,0,.8-.8v-16.8a.82.82,0,0,0-.8-.8h-10.5a.8.8,0,0,0-.8.8v3.78a.25.25,0,0,1-.25.25h0a.25.25,0,0,1-.25-.25v-3.78a1.3,1.3,0,0,1,1.3-1.3h10.5a1.32,1.32,0,0,1,.92.38,1.34,1.34,0,0,1,.38.92v16.8A1.3,1.3,0,0,1,655.16,209.24Z" transform="translate(0.07 -37.93)" fill="#67717c"/><circle cx="649.98" cy="167.91" r="1.05" fill="#67717c"/><rect x="662.67" y="152" width="3.6" height="3.6" rx="0.36" ry="0.36" fill="#e84b54"/><path d="M677.05,192h-7.2a.25.25,0,0,1,0-.5h7.2a.25.25,0,0,1,0,.5Z" transform="translate(0.07 -37.93)" fill="#67717c"/><path d="M677,196.3H662.6a.25.25,0,0,1,0-.5H677a.25.25,0,0,1,0,.5Z" transform="translate(0.07 -37.93)" fill="#67717c"/><rect x="648.18" y="155.6" width="3.6" height="3.6" rx="0.36" ry="0.36" fill="#e84b54"/><path d="M652.07,200.07h-4.32a.25.25,0,0,1-.25-.25.25.25,0,0,1,.25-.25h4.32a.25.25,0,0,1,.25.25A.25.25,0,0,1,652.07,200.07Z" transform="translate(0.07 -37.93)" fill="#67717c"/></g></g><path d="M0,325.67c50.43-15.19,114.45-26.7,187-19.34,89.41,9.07,109.37,38.44,202,44.67,102.61,6.9,98.47-27.75,190-18,110.94,11.82,161.11,67.44,219.33,35.33,28.58-15.75,43.5-44.05,72-40,26.25,3.73,29.3,29.93,55.34,32.67,31.47,3.31,44.08-33.19,80-34,25.83-.58,43.92,17.75,54.66,26,30.8,23.64,94.37,35.93,239.67-19.33" transform="translate(0.07 -37.93)" fill="none" stroke="#e74b55" stroke-miterlimit="10" stroke-width="0.5" stroke-dasharray="1.25 4"/><path d="M0,325.64a592.13,592.13,0,0,1,189.46-16.23c87.72,6.8,106.91,32.74,196.87,38.15C489,353.33,486,326.15,579,335.36c109.87,11.09,158.6,59,218.15,31.28,29-13.51,44-38.31,73-34.92,27.69,3.23,30.88,25,58.31,26.36,34.35,1.69,48.11-27,86.87-29,27.81-1.44,45.54,12.21,59.13,21.1,31.32,20.51,90.6,34.1,225.51-16.48" transform="translate(0.07 -37.93)" fill="none" stroke="#e95962" stroke-miterlimit="10" stroke-width="0.5" stroke-dasharray="1.19 4"/><path d="M0,325.62c51-10.31,117.2-17.14,191.92-13.13,86,4.61,104.44,27.38,191.75,31.64,102.64,5,100.86-15.07,195.33-6.41C687.8,348.07,735,388.3,796,365c29.41-11.27,44.58-32.59,74.06-29.85,29.14,2.72,32.48,20.61,61.28,20,37.25-.72,52.13-20.79,93.74-24,29.79-2.31,47,6.66,63.59,16.21,31.27,18,86.85,32.27,211.36-13.64" transform="translate(0.07 -37.93)" fill="none" stroke="#eb676f" stroke-miterlimit="10" stroke-width="0.5" stroke-dasharray="1.13 4"/><path d="M0,325.59c51.35-7.87,118.55-12.29,194.38-10,84.26,2.52,102,21.82,186.62,25.13,102.67,4,102.08-8.95,198-.61,107.76,9.36,153.43,42.12,215.79,23.18,29.79-9.05,45.13-26.91,75.08-24.77,30.61,2.18,34.08,15,64.26,13.74,40.18-1.69,56.16-14.6,100.61-19.08,31.77-3.17,48.38,1.18,68,11.31,30.89,15.91,83.09,30.44,197.21-10.79" transform="translate(0.07 -37.93)" fill="none" stroke="#ed757c" stroke-miterlimit="10" stroke-width="0.5" stroke-dasharray="1.08 4"/><path d="M0,325.56a1398.92,1398.92,0,0,1,196.85-6.92c82.44,3.07,99.51,16.21,181.48,18.62,102.7,3,103.28-2.66,200.67,5.18,106.69,8.58,150.79,33.61,214.62,19.12,30.15-6.84,45.67-21.23,76.1-19.69,32.07,1.63,35.69,10,67.23,7.44,43.1-3.45,60.19-8.4,107.49-14.1,33.74-4,49.66-4.23,72.51,6.41,30.31,14.11,79.32,28.6,183-7.95" transform="translate(0.07 -37.93)" fill="none" stroke="#ee8289" stroke-miterlimit="10" stroke-width="0.5" stroke-dasharray="1.02 4"/><path d="M0,325.54c52-3,121.21-2.42,199.31-3.82,80.74-1.45,97.06,10.58,176.36,12.1,102.73,2,104.47,3.65,203.33,11,105.63,7.83,148.12,25.07,213.44,15.08,30.5-4.66,46.23-15.59,77.12-14.61,33.54,1.05,37.3,4.87,70.21,1.12,46-5.23,64.21-2.19,114.36-9.12,35.72-4.91,50.89-9.52,77,1.51,29.63,12.53,75.57,26.77,168.9-5.1" transform="translate(0.07 -37.93)" fill="none" stroke="#f09096" stroke-miterlimit="10" stroke-width="0.5" stroke-dasharray="0.96 4"/><path d="M0,325.51c52.27-.54,122.52,2.62,201.77-.72,79-3.32,94.61,4.93,171.23,5.59,102.77.9,105.67,10,206,16.77,104.56,7.08,145.43,16.47,212.26,11,30.84-2.51,46.78-10,78.15-9.54,35,.47,38.9-.23,73.18-5.18,48.93-7.06,68.24,4,121.23-4.15,37.7-5.77,52.06-14.68,81.44-3.39,28.87,11.11,71.8,24.94,154.74-2.25" transform="translate(0.07 -37.93)" fill="none" stroke="#f29ea3" stroke-miterlimit="10" stroke-width="0.5" stroke-dasharray="0.9 4"/><path d="M0,325.49c52.57,1.9,123.85,7.71,204.23,2.38,77.21-5.12,92.17.49,166.1-.92C473.12,325,477.2,343.27,579,349.51c103.49,6.35,142.79,9.67,211.08,7,31.16-1.23,47.35-3.74,79.18-4.46,36.46-.84,40.49-5.36,76.15-11.49,51.84-8.92,72.26,10.2,128.1.82,39.68-6.64,53.18-19.69,85.9-8.28,28.08,9.79,68,23.1,140.59.59" transform="translate(0.07 -37.93)" fill="none" stroke="#f4acb1" stroke-miterlimit="10" stroke-width="0.5" stroke-dasharray="0.85 4"/><path d="M0,325.46c52.88,4.34,125.17,12.89,206.69,5.49,75.45-6.85,89.71-6.49,161-7.44,102.84-1.37,108.05,22.68,211.33,28.36,102.42,5.64,140.06-.9,209.9,2.92,31.53,1.73,47.9,1.27,80.2.62,37.94-.76,42.09-10.49,79.13-17.79,54.74-10.8,76.29,16.4,135,5.79,41.65-7.5,54.25-24.52,90.35-13.18,27.28,8.57,64.29,21.27,126.44,3.44" transform="translate(0.07 -37.93)" fill="none" stroke="#f6babe" stroke-miterlimit="10" stroke-width="0.5" stroke-dasharray="0.79 4"/><path d="M0,325.44c53.19,6.78,126.51,18.13,209.15,8.59,73.7-8.52,87.26-12.24,155.85-13.95,102.88-2.57,109.25,29.05,214,34.15,101.35,4.94,137.4-9.65,208.72-1.13,31.88,3.81,48.45,6.86,81.23,5.69,39.4-1.4,43.67-15.63,82.1-24.1,57.63-12.69,80.31,22.6,141.85,10.77,43.63-8.36,55.29-29.16,94.82-18.08,26.47,7.43,60.53,19.44,112.28,6.29" transform="translate(0.07 -37.93)" fill="none" stroke="#f8c8cb" stroke-miterlimit="10" stroke-width="0.5" stroke-dasharray="0.73 4"/><path d="M0,325.41c53.49,9.22,127.87,23.47,211.62,11.69,72-10.12,84.79-18,150.71-20.46,102.91-3.82,110.44,35.44,216.67,39.95,100.27,4.26,134.75-18.45,207.54-5.18,32.24,5.88,49,12.44,82.25,10.77,40.87-2.06,45.26-20.8,85.08-30.41,60.51-14.61,84.34,28.8,148.72,15.74,45.61-9.23,56.29-33.57,99.28-23,25.69,6.33,56.77,17.6,98.13,9.13" transform="translate(0.07 -37.93)" fill="none" stroke="#f9d5d8" stroke-miterlimit="10" stroke-width="0.5" stroke-dasharray="0.67 4"/><path d="M0,325.38c53.8,11.67,129.25,28.89,214.08,14.8,70.24-11.67,82.34-23.83,145.59-27C462.6,308.08,471.29,355.24,579,359c99.2,3.76,132.13-27.28,206.36-9.23,32.62,7.93,49.55,18,83.28,15.84,42.33-2.72,46.83-26,88.05-36.71,63.38-16.54,88.37,35,155.59,20.71,47.59-10.09,57.28-37.73,103.75-27.87,24.93,5.3,53,15.77,84,12" transform="translate(0.07 -37.93)" fill="none" stroke="#fbe3e5" stroke-miterlimit="10" stroke-width="0.5" stroke-dasharray="0.62 4"/><path d="M0,325.36c54.1,14.1,130.66,34.39,216.54,17.9,68.55-13.17,79.87-29.67,140.46-33.49,103-6.5,112.82,48.38,222,51.54,98.13,3,129.55-36.14,205.18-13.28,33,10,50.1,23.58,84.31,20.92,43.78-3.41,48.37-31.22,91-43,66.22-18.61,92.39,41.2,162.46,25.7,49.57-11,58.25-41.64,108.21-32.77,24.21,4.29,49.25,13.93,69.82,14.82" transform="translate(0.07 -37.93)" fill="none" stroke="#fdf1f2" stroke-miterlimit="10" stroke-width="0.5" stroke-dasharray="0.56 4"/><path d="M0,325.33c54.41,16.55,132.11,40,219,21,66.89-14.61,77.41-35.53,135.33-40,103-7.94,114,54.73,224.67,57.34,97.06,2.29,127-45,204-17.34,33.41,12,50.64,29.15,85.33,26,45.24-4.09,50-36.31,94-49.33,69.11-20.44,96.42,47.4,169.34,30.67,51.54-11.83,59.21-45.24,112.66-37.67,23.54,3.33,45.5,12.1,55.67,17.67" transform="translate(0.07 -37.93)" fill="none" stroke="#fff" stroke-miterlimit="10" stroke-width="0.5" stroke-dasharray="0.5 4"/></g></svg>