<?xml version="1.0" encoding="utf-8"?>
<!-- Generator: Adobe Illustrator 22.0.1, SVG Export Plug-In . SVG Version: 6.00 Build 0)  -->
<svg version="1.1" id="Layer_1" xmlns="http://www.w3.org/2000/svg" xmlns:xlink="http://www.w3.org/1999/xlink" x="0px" y="0px"
	 viewBox="0 0 500 50" style="enable-background:new 0 0 500 50;" xml:space="preserve">
<style type="text/css">
	.st0{fill:none;stroke:#E84B54;stroke-width:5;stroke-linecap:round;stroke-miterlimit:10;enable-background:new    ;}
	.st1{fill:#67717C;}
	.st2{fill:none;stroke:#DCE1E5;stroke-linecap:round;stroke-miterlimit:10;}
	.st3{fill:#DCE1E5;}
</style>
<circle id="red" class="st0" cx="32.9" cy="27" r="9.3"/>
<circle id="black" class="st1" cx="12.4" cy="21.6" r="6.4"/>
<g id="memphis">
	<g>
		<line class="st2" x1="12.8" y1="38.5" x2="12.8" y2="40.6"/>
		<line class="st2" x1="12.8" y1="31" x2="12.8" y2="33.1"/>
	</g>
	<g>
		<line class="st2" x1="10.1" y1="35.8" x2="8" y2="35.8"/>
		<line class="st2" x1="17.6" y1="35.8" x2="15.5" y2="35.8"/>
	</g>
	<g>
		<line class="st2" x1="10.9" y1="37.7" x2="9.4" y2="39.2"/>
		<line class="st2" x1="16.2" y1="32.4" x2="14.7" y2="33.9"/>
	</g>
	<g>
		<line class="st2" x1="10.9" y1="33.9" x2="9.4" y2="32.4"/>
		<line class="st2" x1="16.2" y1="39.2" x2="14.7" y2="37.7"/>
	</g>
</g>
<path id="triangle" class="st3" d="M43.9,11l-1.7,4.5c0,0.1,0,0.2,0.1,0.1l4.8-0.8c0.1,0,0.1-0.1,0.1-0.2l-3.1-3.8
	C44,10.9,44,10.9,43.9,11z"/>
</svg>
