<?xml version="1.0" encoding="utf-8"?>
<!-- Generator: Adobe Illustrator 22.0.1, SVG Export Plug-In . SVG Version: 6.00 Build 0)  -->
<svg version="1.1" id="Layer_1" xmlns="http://www.w3.org/2000/svg" xmlns:xlink="http://www.w3.org/1999/xlink" x="0px" y="0px"
	 viewBox="0 0 200 200" enable-background="new 0 0 200 200" xml:space="preserve">
<g>
	<path fill="#E84B54" d="M102.1,19c0.2,0.5,0.3,1,0.5,1.5c4.2,7.1,8.4,14.2,12.5,21.2c6.1,10.4,12.2,20.7,18.4,31.1
		c5.3,9,10.6,18,16,27c6.9,11.6,13.7,23.3,20.6,34.9c5,8.5,10,16.9,15,25.4c3.8,6.5,7.6,13,11.5,19.5c0.2,0.4,0.4,0.8,0.5,1.3
		c-0.3-0.1-0.6-0.3-0.8-0.4c-2.5-1.6-5-3.3-7.5-4.9c-3.1-2-6.2-4-9.3-5.9c-5.2-3.3-10.7-6.1-16.3-8.6c-6.9-3.1-13.9-5.7-21.2-7.7
		c-6.1-1.7-12.3-3.2-18.6-4.1c-4.6-0.7-9.3-1.4-14-1.7c-5.5-0.4-11-0.3-16.4-0.4c-2.2,0-4.4,0.2-6.9,0.3c0.4-0.5,0.6-0.9,0.9-1.1
		c3-2.9,6.5-5.1,10.3-6.7c4.5-1.9,9.2-3.1,14-3.8c3.9-0.6,7.9-0.9,11.8-0.9c0.4,0,0.9,0,1.5-0.1c-0.2-0.7-0.4-1.2-0.6-1.7
		c-3.7-8.5-7.3-17.1-11-25.6c-3.5-8.2-7.1-16.4-10.6-24.7c-0.4-1-0.6-1.9-0.6-3c0-19.6,0-39.2,0-58.8c0-0.7-0.1-1.4-0.1-2
		C101.8,19,101.9,19,102.1,19z"/>
	<path fill="#67717C" d="M2.9,174.6C32.8,122.9,62.6,71.1,92.4,19.3c0.7,0.4,0.5,1,0.6,1.4c0,3.1,0.1,6.2,0.1,9.3
		c0.1,12.6,0.3,25.2,0.4,37.8c0,4.6,0.1,9.2,0.1,13.8c0,0.6-0.2,1.2-0.4,1.7c-6.2,13.3-12.5,26.6-18.8,39.8
		c-4.1,8.7-8.2,17.4-12.3,26.2c-0.5,1.1-1.2,1.6-2.4,1.8c-16,3.3-31.2,8.8-45.5,16.9c-3.4,1.9-6.6,4.1-9.9,6.1
		c-0.4,0.2-0.7,0.5-1.1,0.7C3.1,174.8,3,174.7,2.9,174.6z"/>
</g>
</svg>
