<svg xmlns="http://www.w3.org/2000/svg" viewBox="0 0 738.21 365.34"><title>mobile-bg</title><g id="Memphis"><line x1="638.2" y1="118.89" x2="638.2" y2="121.02" fill="none" stroke="#dce1e5" stroke-linecap="round" stroke-miterlimit="10"/><line x1="638.2" y1="111.39" x2="638.2" y2="113.51" fill="none" stroke="#dce1e5" stroke-linecap="round" stroke-miterlimit="10"/><line x1="635.5" y1="116.2" x2="633.38" y2="116.2" fill="none" stroke="#dce1e5" stroke-linecap="round" stroke-miterlimit="10"/><line x1="643.01" y1="116.2" x2="640.89" y2="116.2" fill="none" stroke="#dce1e5" stroke-linecap="round" stroke-miterlimit="10"/><line x1="636.29" y1="118.11" x2="634.79" y2="119.61" fill="none" stroke="#dce1e5" stroke-linecap="round" stroke-miterlimit="10"/><line x1="641.6" y1="112.8" x2="640.1" y2="114.3" fill="none" stroke="#dce1e5" stroke-linecap="round" stroke-miterlimit="10"/><line x1="636.29" y1="114.3" x2="634.79" y2="112.8" fill="none" stroke="#dce1e5" stroke-linecap="round" stroke-miterlimit="10"/><line x1="641.6" y1="119.61" x2="640.1" y2="118.11" fill="none" stroke="#dce1e5" stroke-linecap="round" stroke-miterlimit="10"/><circle cx="591.21" cy="173.65" r="2.74" fill="none" stroke="#e84b54" stroke-linecap="round" stroke-miterlimit="10" opacity="0.1"/><circle cx="658.77" cy="166.56" r="2" fill="#dce1e5"/><line x1="383.9" y1="203.65" x2="382.78" y2="204.77" fill="none" stroke="#dce1e5" stroke-linecap="round" stroke-miterlimit="10"/><line x1="379.65" y1="207.91" x2="378.53" y2="209.03" fill="none" stroke="#dce1e5" stroke-linecap="round" stroke-miterlimit="10"/><line x1="383.9" y1="209.03" x2="382.78" y2="207.91" fill="none" stroke="#dce1e5" stroke-linecap="round" stroke-miterlimit="10"/><line x1="379.65" y1="204.77" x2="378.53" y2="203.65" fill="none" stroke="#dce1e5" stroke-linecap="round" stroke-miterlimit="10"/><circle cx="29.01" cy="208.19" r="2.74" fill="none" stroke="#e84b54" stroke-linecap="round" stroke-miterlimit="10" opacity="0.1"/><line x1="109.63" y1="195.24" x2="108.51" y2="196.36" fill="none" stroke="#dce1e5" stroke-linecap="round" stroke-miterlimit="10"/><line x1="105.37" y1="199.5" x2="104.25" y2="200.62" fill="none" stroke="#dce1e5" stroke-linecap="round" stroke-miterlimit="10"/><line x1="109.63" y1="200.62" x2="108.51" y2="199.5" fill="none" stroke="#dce1e5" stroke-linecap="round" stroke-miterlimit="10"/><line x1="105.37" y1="196.36" x2="104.25" y2="195.24" fill="none" stroke="#dce1e5" stroke-linecap="round" stroke-miterlimit="10"/><circle cx="448.12" cy="205.45" r="2" fill="#dce1e5"/><circle cx="497.86" cy="130.81" r="2.74" fill="none" stroke="#e84b54" stroke-linecap="round" stroke-miterlimit="10" opacity="0.1"/><path d="M756.08,137.24l-3.8-5.16a.13.13,0,0,0-.23,0L749.47,138a.15.15,0,0,0,.14.2l6.37-.71A.14.14,0,0,0,756.08,137.24Z" transform="translate(-20.24 -29.03)" fill="#e84b54" opacity="0.1"/><path d="M652.21,83.29l-1.71,4.54a.1.1,0,0,0,.11.14l4.79-.78a.11.11,0,0,0,.07-.17l-3.08-3.76A.11.11,0,0,0,652.21,83.29Z" transform="translate(-20.24 -29.03)" fill="#dce1e5"/><path d="M224,220.92l-2.11-6a.14.14,0,0,0-.24,0l-4.18,4.85a.13.13,0,0,0,.07.22l6.3,1.2A.14.14,0,0,0,224,220.92Z" transform="translate(-20.24 -29.03)" fill="#e84b54" opacity="0.1"/><circle cx="189.21" cy="138.64" r="2" fill="#dce1e5"/><path d="M466.09,98.05,464,92a.13.13,0,0,0-.23,0l-4.19,4.85a.14.14,0,0,0,.08.23l6.29,1.2A.14.14,0,0,0,466.09,98.05Z" transform="translate(-20.24 -29.03)" fill="#e84b54" opacity="0.1"/><line x1="27.24" y1="71.42" x2="27.24" y2="73.55" fill="none" stroke="#dce1e5" stroke-linecap="round" stroke-miterlimit="10"/><line x1="27.24" y1="63.91" x2="27.24" y2="66.04" fill="none" stroke="#dce1e5" stroke-linecap="round" stroke-miterlimit="10"/><line x1="24.55" y1="68.73" x2="22.43" y2="68.73" fill="none" stroke="#dce1e5" stroke-linecap="round" stroke-miterlimit="10"/><line x1="32.06" y1="68.73" x2="29.93" y2="68.73" fill="none" stroke="#dce1e5" stroke-linecap="round" stroke-miterlimit="10"/><line x1="25.34" y1="70.63" x2="23.84" y2="72.14" fill="none" stroke="#dce1e5" stroke-linecap="round" stroke-miterlimit="10"/><line x1="30.65" y1="65.33" x2="29.15" y2="66.83" fill="none" stroke="#dce1e5" stroke-linecap="round" stroke-miterlimit="10"/><line x1="25.34" y1="66.83" x2="23.84" y2="65.33" fill="none" stroke="#dce1e5" stroke-linecap="round" stroke-miterlimit="10"/><line x1="30.65" y1="72.14" x2="29.15" y2="70.63" fill="none" stroke="#dce1e5" stroke-linecap="round" stroke-miterlimit="10"/><circle cx="174" cy="3.24" r="2.74" fill="none" stroke="#e84b54" stroke-linecap="round" stroke-miterlimit="10" opacity="0.1"/><circle cx="113.09" cy="121.78" r="2" fill="#dce1e5"/><line x1="291.64" y1="115.64" x2="290.52" y2="116.76" fill="none" stroke="#dce1e5" stroke-linecap="round" stroke-miterlimit="10"/><line x1="287.38" y1="119.9" x2="286.26" y2="121.02" fill="none" stroke="#dce1e5" stroke-linecap="round" stroke-miterlimit="10"/><line x1="291.64" y1="121.02" x2="290.52" y2="119.9" fill="none" stroke="#dce1e5" stroke-linecap="round" stroke-miterlimit="10"/><line x1="287.38" y1="116.76" x2="286.26" y2="115.64" fill="none" stroke="#dce1e5" stroke-linecap="round" stroke-miterlimit="10"/><path d="M122.92,91.54l-3.79-5.17a.14.14,0,0,0-.24,0l-2.58,5.87a.14.14,0,0,0,.14.19l6.37-.71A.13.13,0,0,0,122.92,91.54Z" transform="translate(-20.24 -29.03)" fill="#e84b54" opacity="0.1"/><path d="M68.59,184l-1.71,4.54a.11.11,0,0,0,.12.14l4.79-.79a.1.1,0,0,0,.06-.16l-3.08-3.76A.11.11,0,0,0,68.59,184Z" transform="translate(-20.24 -29.03)" fill="#dce1e5"/><path d="M188.18,126.94l-2.1-6a.14.14,0,0,0-.24,0l-4.18,4.85a.13.13,0,0,0,.07.22l6.3,1.21A.14.14,0,0,0,188.18,126.94Z" transform="translate(-20.24 -29.03)" fill="#e84b54" opacity="0.1"/><line x1="580.99" y1="24.26" x2="579.87" y2="25.38" fill="none" stroke="#dce1e5" stroke-linecap="round" stroke-miterlimit="10"/><line x1="576.74" y1="28.52" x2="575.62" y2="29.64" fill="none" stroke="#dce1e5" stroke-linecap="round" stroke-miterlimit="10"/><line x1="580.99" y1="29.64" x2="579.87" y2="28.52" fill="none" stroke="#dce1e5" stroke-linecap="round" stroke-miterlimit="10"/><line x1="576.74" y1="25.38" x2="575.62" y2="24.26" fill="none" stroke="#dce1e5" stroke-linecap="round" stroke-miterlimit="10"/><line x1="732.34" y1="222.05" x2="732.34" y2="224.18" fill="none" stroke="#dce1e5" stroke-linecap="round" stroke-miterlimit="10"/><line x1="732.34" y1="214.55" x2="732.34" y2="216.67" fill="none" stroke="#dce1e5" stroke-linecap="round" stroke-miterlimit="10"/><line x1="729.65" y1="219.36" x2="727.52" y2="219.36" fill="none" stroke="#dce1e5" stroke-linecap="round" stroke-miterlimit="10"/><line x1="737.15" y1="219.36" x2="735.03" y2="219.36" fill="none" stroke="#dce1e5" stroke-linecap="round" stroke-miterlimit="10"/><line x1="730.43" y1="221.26" x2="728.93" y2="222.77" fill="none" stroke="#dce1e5" stroke-linecap="round" stroke-miterlimit="10"/><line x1="735.74" y1="215.96" x2="734.24" y2="217.46" fill="none" stroke="#dce1e5" stroke-linecap="round" stroke-miterlimit="10"/><line x1="730.43" y1="217.46" x2="728.93" y2="215.96" fill="none" stroke="#dce1e5" stroke-linecap="round" stroke-miterlimit="10"/><line x1="735.74" y1="222.77" x2="734.24" y2="221.26" fill="none" stroke="#dce1e5" stroke-linecap="round" stroke-miterlimit="10"/><path d="M739.68,55.8,738,60.34a.11.11,0,0,0,.12.14l4.79-.79a.1.1,0,0,0,.06-.17l-3.07-3.75A.1.1,0,0,0,739.68,55.8Z" transform="translate(-20.24 -29.03)" fill="#dce1e5"/><circle cx="534.18" cy="222.1" r="2.74" fill="none" stroke="#e84b54" stroke-linecap="round" stroke-miterlimit="10" opacity="0.1"/><circle cx="267.02" cy="208.34" r="2" fill="#dce1e5"/><line x1="638.2" y1="246.44" x2="638.2" y2="244.32" fill="none" stroke="#dce1e5" stroke-linecap="round" stroke-miterlimit="10"/><line x1="638.2" y1="253.95" x2="638.2" y2="251.82" fill="none" stroke="#dce1e5" stroke-linecap="round" stroke-miterlimit="10"/><line x1="635.5" y1="249.13" x2="633.38" y2="249.13" fill="none" stroke="#dce1e5" stroke-linecap="round" stroke-miterlimit="10"/><line x1="643.01" y1="249.13" x2="640.89" y2="249.13" fill="none" stroke="#dce1e5" stroke-linecap="round" stroke-miterlimit="10"/><line x1="636.29" y1="247.23" x2="634.79" y2="245.73" fill="none" stroke="#dce1e5" stroke-linecap="round" stroke-miterlimit="10"/><line x1="641.6" y1="252.54" x2="640.1" y2="251.04" fill="none" stroke="#dce1e5" stroke-linecap="round" stroke-miterlimit="10"/><line x1="636.29" y1="251.04" x2="634.79" y2="252.54" fill="none" stroke="#dce1e5" stroke-linecap="round" stroke-miterlimit="10"/><line x1="641.6" y1="245.73" x2="640.1" y2="247.23" fill="none" stroke="#dce1e5" stroke-linecap="round" stroke-miterlimit="10"/><circle cx="591.21" cy="191.69" r="2.74" fill="none" stroke="#e84b54" stroke-linecap="round" stroke-miterlimit="10" opacity="0.1"/><circle cx="658.77" cy="198.78" r="2" fill="#dce1e5"/><line x1="383.9" y1="161.68" x2="382.78" y2="160.56" fill="none" stroke="#dce1e5" stroke-linecap="round" stroke-miterlimit="10"/><line x1="379.65" y1="157.43" x2="378.53" y2="156.31" fill="none" stroke="#dce1e5" stroke-linecap="round" stroke-miterlimit="10"/><line x1="383.9" y1="156.31" x2="382.78" y2="157.43" fill="none" stroke="#dce1e5" stroke-linecap="round" stroke-miterlimit="10"/><line x1="379.65" y1="160.56" x2="378.53" y2="161.68" fill="none" stroke="#dce1e5" stroke-linecap="round" stroke-miterlimit="10"/><circle cx="29.01" cy="157.14" r="2.74" fill="none" stroke="#e84b54" stroke-linecap="round" stroke-miterlimit="10" opacity="0.1"/><line x1="109.63" y1="170.09" x2="108.51" y2="168.97" fill="none" stroke="#dce1e5" stroke-linecap="round" stroke-miterlimit="10"/><line x1="105.37" y1="165.84" x2="104.25" y2="164.72" fill="none" stroke="#dce1e5" stroke-linecap="round" stroke-miterlimit="10"/><line x1="109.63" y1="164.72" x2="108.51" y2="165.84" fill="none" stroke="#dce1e5" stroke-linecap="round" stroke-miterlimit="10"/><line x1="105.37" y1="168.97" x2="104.25" y2="170.09" fill="none" stroke="#dce1e5" stroke-linecap="round" stroke-miterlimit="10"/><circle cx="448.12" cy="159.88" r="2" fill="#dce1e5"/><circle cx="497.86" cy="234.53" r="2.74" fill="none" stroke="#e84b54" stroke-linecap="round" stroke-miterlimit="10" opacity="0.1"/><path d="M756.08,286.15l-3.8,5.16a.13.13,0,0,1-.23,0l-2.58-5.87a.14.14,0,0,1,.14-.19l6.37.71A.14.14,0,0,1,756.08,286.15Z" transform="translate(-20.24 -29.03)" fill="#e84b54" opacity="0.1"/><path d="M652.21,340.1l-1.71-4.54a.1.1,0,0,1,.11-.14l4.79.78a.11.11,0,0,1,.07.17l-3.08,3.76A.11.11,0,0,1,652.21,340.1Z" transform="translate(-20.24 -29.03)" fill="#dce1e5"/><path d="M224,202.47l-2.11,6.05a.14.14,0,0,1-.24,0l-4.18-4.85a.13.13,0,0,1,.07-.22l6.3-1.2A.14.14,0,0,1,224,202.47Z" transform="translate(-20.24 -29.03)" fill="#e84b54" opacity="0.1"/><circle cx="189.21" cy="226.7" r="2" fill="#dce1e5"/><path d="M466.09,325.34,464,331.39a.13.13,0,0,1-.23.05l-4.19-4.85a.14.14,0,0,1,.08-.23l6.29-1.2A.14.14,0,0,1,466.09,325.34Z" transform="translate(-20.24 -29.03)" fill="#e84b54" opacity="0.1"/><line x1="27.24" y1="293.91" x2="27.24" y2="291.79" fill="none" stroke="#dce1e5" stroke-linecap="round" stroke-miterlimit="10"/><line x1="27.24" y1="301.42" x2="27.24" y2="299.3" fill="none" stroke="#dce1e5" stroke-linecap="round" stroke-miterlimit="10"/><line x1="24.55" y1="296.6" x2="22.43" y2="296.6" fill="none" stroke="#dce1e5" stroke-linecap="round" stroke-miterlimit="10"/><line x1="32.06" y1="296.6" x2="29.93" y2="296.6" fill="none" stroke="#dce1e5" stroke-linecap="round" stroke-miterlimit="10"/><line x1="25.34" y1="294.7" x2="23.84" y2="293.2" fill="none" stroke="#dce1e5" stroke-linecap="round" stroke-miterlimit="10"/><line x1="30.65" y1="300.01" x2="29.15" y2="298.51" fill="none" stroke="#dce1e5" stroke-linecap="round" stroke-miterlimit="10"/><line x1="25.34" y1="298.51" x2="23.84" y2="300.01" fill="none" stroke="#dce1e5" stroke-linecap="round" stroke-miterlimit="10"/><line x1="30.65" y1="293.2" x2="29.15" y2="294.7" fill="none" stroke="#dce1e5" stroke-linecap="round" stroke-miterlimit="10"/><circle cx="174" cy="362.1" r="2.74" fill="none" stroke="#e84b54" stroke-linecap="round" stroke-miterlimit="10" opacity="0.1"/><circle cx="113.09" cy="243.56" r="2" fill="#dce1e5"/><line x1="291.64" y1="249.69" x2="290.52" y2="248.57" fill="none" stroke="#dce1e5" stroke-linecap="round" stroke-miterlimit="10"/><line x1="287.38" y1="245.44" x2="286.26" y2="244.32" fill="none" stroke="#dce1e5" stroke-linecap="round" stroke-miterlimit="10"/><line x1="291.64" y1="244.32" x2="290.52" y2="245.44" fill="none" stroke="#dce1e5" stroke-linecap="round" stroke-miterlimit="10"/><line x1="287.38" y1="248.57" x2="286.26" y2="249.69" fill="none" stroke="#dce1e5" stroke-linecap="round" stroke-miterlimit="10"/><path d="M122.92,331.85,119.13,337a.14.14,0,0,1-.24,0l-2.58-5.87a.14.14,0,0,1,.14-.19l6.37.71A.13.13,0,0,1,122.92,331.85Z" transform="translate(-20.24 -29.03)" fill="#e84b54" opacity="0.1"/><path d="M68.59,239.43l-1.71-4.54a.11.11,0,0,1,.12-.14l4.79.78a.11.11,0,0,1,.06.17l-3.08,3.76A.11.11,0,0,1,68.59,239.43Z" transform="translate(-20.24 -29.03)" fill="#dce1e5"/><path d="M188.18,296.44l-2.1,6.06a.14.14,0,0,1-.24,0l-4.18-4.85a.13.13,0,0,1,.07-.22l6.3-1.21A.13.13,0,0,1,188.18,296.44Z" transform="translate(-20.24 -29.03)" fill="#e84b54" opacity="0.1"/><line x1="580.99" y1="341.07" x2="579.87" y2="339.95" fill="none" stroke="#dce1e5" stroke-linecap="round" stroke-miterlimit="10"/><line x1="576.74" y1="336.82" x2="575.62" y2="335.7" fill="none" stroke="#dce1e5" stroke-linecap="round" stroke-miterlimit="10"/><line x1="580.99" y1="335.7" x2="579.87" y2="336.82" fill="none" stroke="#dce1e5" stroke-linecap="round" stroke-miterlimit="10"/><line x1="576.74" y1="339.95" x2="575.62" y2="341.07" fill="none" stroke="#dce1e5" stroke-linecap="round" stroke-miterlimit="10"/><line x1="732.34" y1="143.28" x2="732.34" y2="141.16" fill="none" stroke="#dce1e5" stroke-linecap="round" stroke-miterlimit="10"/><line x1="732.34" y1="150.79" x2="732.34" y2="148.66" fill="none" stroke="#dce1e5" stroke-linecap="round" stroke-miterlimit="10"/><line x1="729.65" y1="145.97" x2="727.52" y2="145.97" fill="none" stroke="#dce1e5" stroke-linecap="round" stroke-miterlimit="10"/><line x1="737.15" y1="145.97" x2="735.03" y2="145.97" fill="none" stroke="#dce1e5" stroke-linecap="round" stroke-miterlimit="10"/><line x1="730.43" y1="144.07" x2="728.93" y2="142.57" fill="none" stroke="#dce1e5" stroke-linecap="round" stroke-miterlimit="10"/><line x1="735.74" y1="149.38" x2="734.24" y2="147.88" fill="none" stroke="#dce1e5" stroke-linecap="round" stroke-miterlimit="10"/><line x1="730.43" y1="147.88" x2="728.93" y2="149.38" fill="none" stroke="#dce1e5" stroke-linecap="round" stroke-miterlimit="10"/><line x1="735.74" y1="142.57" x2="734.24" y2="144.07" fill="none" stroke="#dce1e5" stroke-linecap="round" stroke-miterlimit="10"/><path d="M739.68,367.59,738,363.05a.11.11,0,0,1,.12-.14l4.79.79a.1.1,0,0,1,.06.17l-3.07,3.75A.1.1,0,0,1,739.68,367.59Z" transform="translate(-20.24 -29.03)" fill="#dce1e5"/><circle cx="534.18" cy="143.24" r="2.74" fill="none" stroke="#e84b54" stroke-linecap="round" stroke-miterlimit="10" opacity="0.1"/><circle cx="267.02" cy="157" r="2" fill="#dce1e5"/></g><g id="Icons"><g id="briefcase"><rect x="593.42" y="163.12" width="36.5" height="22.81" rx="2.78" ry="2.78" transform="translate(35.4 -163.43) rotate(13.13)" fill="#dce1e5"/><line x1="571.21" y1="134.21" x2="571.72" y2="132.01" fill="none" stroke="#67717c" stroke-linecap="round" stroke-miterlimit="10" stroke-width="0.5"/><line x1="570.62" y1="136.74" x2="570.65" y2="136.6" fill="none" stroke="#67717c" stroke-linecap="round" stroke-miterlimit="10" stroke-width="0.5"/><path d="M592.74,157.71a2.77,2.77,0,0,1,3.33-2.07l30.14,7a2.78,2.78,0,0,1,2.07,3.34l-3.92,16.8a2.77,2.77,0,0,1-3.33,2.07l-30.14-7a2.77,2.77,0,0,1-2.07-3.33l1.36-5.82" transform="translate(-20.24 -29.03)" fill="none" stroke="#67717c" stroke-linecap="round" stroke-miterlimit="10" stroke-width="0.5"/><path d="M608.23,154.25a4.57,4.57,0,0,1,7.77,4.17" transform="translate(-20.24 -29.03)" fill="none" stroke="#67717c" stroke-linecap="round" stroke-miterlimit="10" stroke-width="0.5"/><line x1="579.74" y1="136.01" x2="597.51" y2="140.16" fill="none" stroke="#e84b54" stroke-linecap="round" stroke-miterlimit="10" stroke-width="0.5"/></g><g id="achievment"><path d="M298.73,158l7.9-9.06L309,150.4a1.26,1.26,0,0,0-.56-.84l-14.07-8.94a1.18,1.18,0,0,0-1.71.42L284.43,158a7.34,7.34,0,0,0,2.89,9.31h0a7.33,7.33,0,0,0,9.65-1.33l9.26-11.46Z" transform="translate(-20.24 -29.03)" fill="#dce1e5"/><path d="M282.56,154.81a3.66,3.66,0,0,1,.18-.46" transform="translate(-20.24 -29.03)" fill="none" stroke="#67717c" stroke-linecap="round" stroke-miterlimit="10" stroke-width="0.5"/><path d="M284.36,151l1.18-2.42,1-2.12.94-1.94.57-1.16.78-1.6,2.24-4.6a1.18,1.18,0,0,1,1.71-.43l14.07,8.95a1.17,1.17,0,0,1,.34,1.72L295.4,162.07a7.33,7.33,0,0,1-9.65,1.33h0a7.6,7.6,0,0,1-3.55-5.93" transform="translate(-20.24 -29.03)" fill="none" stroke="#67717c" stroke-linecap="round" stroke-miterlimit="10" stroke-width="0.5"/><path d="M306.63,148.89l3.07,2a1.19,1.19,0,0,1-.14,2.09l-10.83,5" transform="translate(-20.24 -29.03)" fill="none" stroke="#67717c" stroke-linecap="round" stroke-miterlimit="10" stroke-width="0.5"/><path d="M290,138.29l-3.07-1.95a1.19,1.19,0,0,0-1.83,1l0,4.88" transform="translate(-20.24 -29.03)" fill="none" stroke="#67717c" stroke-linecap="round" stroke-miterlimit="10" stroke-width="0.5"/><line x1="265.22" y1="134.82" x2="262.65" y2="138.85" fill="none" stroke="#67717c" stroke-linecap="round" stroke-miterlimit="10" stroke-width="0.5"/><line x1="259.41" y1="137.28" x2="265.46" y2="141.12" fill="none" stroke="#67717c" stroke-linecap="round" stroke-miterlimit="10" stroke-width="0.5"/><polygon points="274.35 120.45 274.13 122.18 275.39 123.28 273.72 123.67 273.03 125.28 272.23 123.8 270.54 123.69 271.71 122.39 271.36 120.71 272.88 121.39 274.35 120.45" fill="#e84b54"/></g><g id="calendar"><path d="M553.29,122.26H531.86a2,2,0,0,0-2,2v21.43a2,2,0,0,0,2,2h17.52a5.87,5.87,0,0,0,5.87-5.87V124.22A2,2,0,0,0,553.29,122.26Zm-7.87,21.67v-5.22a1.49,1.49,0,0,1,1.49-1.48h4.85S551.8,143.93,545.42,143.93Z" transform="translate(-20.24 -29.03)" fill="#dce1e5"/><path d="M526.41,128.1v-7.32a2.1,2.1,0,0,1,2.11-2.07h21.13a2.1,2.1,0,0,1,2.11,2.07v17.1a6.26,6.26,0,0,1-6.34,6.18h-16.9a2.09,2.09,0,0,1-2.11-2.06v-4.66" transform="translate(-20.24 -29.03)" fill="none" stroke="#67717c" stroke-linecap="round" stroke-miterlimit="10" stroke-width="0.5"/><line x1="506.17" y1="94.42" x2="531.52" y2="94.42" fill="none" stroke="#67717c" stroke-linecap="round" stroke-miterlimit="10" stroke-width="0.5"/><path d="M551.76,137.41h-4.85a1.49,1.49,0,0,0-1.49,1.49v4.85" transform="translate(-20.24 -29.03)" fill="none" stroke="#67717c" stroke-linecap="round" stroke-miterlimit="10" stroke-width="0.5"/><rect x="513.31" y="99.21" width="3.17" height="3.17" rx="0.4" ry="0.4" fill="#e84b54"/><rect x="513.31" y="106.8" width="3.17" height="3.17" rx="0.4" ry="0.4" fill="#67717c"/><line x1="506.17" y1="102.95" x2="506.17" y2="104.01" fill="none" stroke="#67717c" stroke-linecap="round" stroke-miterlimit="10" stroke-width="0.5"/></g><g id="progress"><path d="M99.24,140.79l-22.4,11.7A4.41,4.41,0,0,0,75,158.43l5.22,10L105.89,155l.34.65a4.41,4.41,0,0,1-1.86,5.94L82.6,173a4.4,4.4,0,0,0,5.82,1.67l22.39-11.71a4.39,4.39,0,0,0,1.86-5.94l-7.49-14.34A4.4,4.4,0,0,0,99.24,140.79Z" transform="translate(-20.24 -29.03)" fill="#dce1e5"/><line x1="50.59" y1="132.45" x2="50.25" y2="131.82" fill="none" stroke="#67717c" stroke-linecap="round" stroke-miterlimit="10" stroke-width="0.5"/><path d="M68.48,157a4.42,4.42,0,0,1,1.87-5.95l22.39-11.7a4.4,4.4,0,0,1,5.94,1.86l7.5,14.34a4.4,4.4,0,0,1-1.87,5.94L81.92,173.2A4.4,4.4,0,0,1,76,171.33l-3.54-6.76" transform="translate(-20.24 -29.03)" fill="none" stroke="#67717c" stroke-linecap="round" stroke-miterlimit="10" stroke-width="0.5"/><line x1="71.1" y1="144.74" x2="79.16" y2="140.53" fill="none" stroke="#67717c" stroke-linecap="round" stroke-miterlimit="10" stroke-width="0.5"/><path d="M105.69,154.62l-13.49,7L75.49,170.4l16.71-8.73Z" transform="translate(-20.24 -29.03)" fill="none" stroke="#67717c" stroke-linecap="round" stroke-miterlimit="10" stroke-width="0.5"/><path d="M82.45,161.69l1.93-6.16a.57.57,0,0,1,.71-.37l4,1.27a.56.56,0,0,0,.71-.37l1.58-5" transform="translate(-20.24 -29.03)" fill="none" stroke="#e84b54" stroke-linecap="round" stroke-miterlimit="10" stroke-width="0.5"/></g><g id="Donut_Chart" data-name="Donut Chart"><circle cx="698.17" cy="163.09" r="12.87" fill="none" stroke="#dce1e5" stroke-miterlimit="10" stroke-width="1.5"/><path d="M729.18,190.27a12.87,12.87,0,1,1-15.85-13.9" transform="translate(-20.24 -29.03)" fill="none" stroke="#67717c" stroke-linecap="round" stroke-miterlimit="10" stroke-width="0.5"/><path d="M719.34,176.35a12.85,12.85,0,0,1,9,7.88" transform="translate(-20.24 -29.03)" fill="none" stroke="#e84b54" stroke-linecap="round" stroke-miterlimit="10" stroke-width="0.75"/></g><g id="machine-learnin"><path d="M262.91,115.82a1.34,1.34,0,0,0,1.64,1l6.87-1.76a2.7,2.7,0,0,0,1.65-1.23l.64-1.08a1.6,1.6,0,0,0,.17-1.21l-.4-1.57a.86.86,0,0,0-.39-.52l-1-.6s-.42-.57.45-.66l2.44-.26a2.7,2.7,0,0,1,2.9,2l.44,1.72a1.66,1.66,0,0,0,.77,1l1.16.68a1.83,1.83,0,0,0,1.41.2l3.25-.83a1.43,1.43,0,0,0,.87-.65l.8-1.36a1,1,0,0,0,.14-.95c-.75-1.5,0-1.84,0-1.84l.43-.11a1.7,1.7,0,0,0,1.05-.78l.72-1.22a2.08,2.08,0,0,0,.23-1.58l-.95-3.71a1.83,1.83,0,0,0-.84-1.12l-1.07-.63a1.22,1.22,0,0,0-.93-.14L284,99l-.2-1a1.46,1.46,0,0,0-.67-.9L281,95.83l-.11-.45a1.72,1.72,0,0,0-1-1.17L274.07,92a1.39,1.39,0,0,0-.9-.06l-.66.17a1.32,1.32,0,0,0-.82.62l-.51.86-.28-.16-1.3-.78a1.85,1.85,0,0,0-1.4-.2l-1.64.42a2.84,2.84,0,0,0-.87.39L260,96.88a2.63,2.63,0,0,0-.81.85l-.89,1.5-.61.16a1.07,1.07,0,0,0-.67.51l-1.44,2.43-.23.06a2,2,0,0,0-1.34,1.17l-1.8,4.5a2,2,0,0,0-.09,1.29l.25,1a1,1,0,0,0,.51.67l.88.53a1.25,1.25,0,0,0,.93.13l.16,0,.38,1.47a1.24,1.24,0,0,0,.56.75l1.66,1a2.69,2.69,0,0,0,2,.29l1.76-.45.79-.2s.53-.12.62.24S262.91,115.82,262.91,115.82Z" transform="translate(-20.24 -29.03)" fill="#dce1e5"/><path d="M260.56,114.09a1.35,1.35,0,0,0,1.64,1l6.87-1.76a2.71,2.71,0,0,0,1.66-1.24l.64-1.08a1.65,1.65,0,0,0,.17-1.21l-.4-1.57a.89.89,0,0,0-.4-.53l-1.89-1.12" transform="translate(-20.24 -29.03)" fill="none" stroke="#67717c" stroke-linecap="round" stroke-miterlimit="10" stroke-width="0.5"/><path d="M265.06,110.61l-6.66,1.71-1.77.45a2.7,2.7,0,0,1-2-.29l-1.66-1a1.19,1.19,0,0,1-.56-.75" transform="translate(-20.24 -29.03)" fill="none" stroke="#67717c" stroke-linecap="round" stroke-miterlimit="10" stroke-width="0.5"/><path d="M251.83,109.31a1.17,1.17,0,0,1-.93-.13l-.89-.52a1.11,1.11,0,0,1-.5-.68l-.25-1a2.14,2.14,0,0,1,.08-1.3l1.81-4.51a2,2,0,0,1,1.34-1.17l.83-.21a.87.87,0,0,1,.65.09l7.23,4.28" transform="translate(-20.24 -29.03)" fill="none" stroke="#67717c" stroke-linecap="round" stroke-miterlimit="10" stroke-width="0.5"/><path d="M258.17,93.85l-1,.67a2.63,2.63,0,0,0-.82.84A2.88,2.88,0,0,1,254.84,97a1.45,1.45,0,0,0-.68.5L252.72,100" transform="translate(-20.24 -29.03)" fill="none" stroke="#67717c" stroke-linecap="round" stroke-miterlimit="10" stroke-width="0.5"/><path d="M262.81,90.84a2.84,2.84,0,0,1,.87-.39l1.65-.42a1.83,1.83,0,0,1,1.39.2l2,1.17a1.82,1.82,0,0,1,.84,1.13l5.93,23.14" transform="translate(-20.24 -29.03)" fill="none" stroke="#67717c" stroke-linecap="round" stroke-miterlimit="10" stroke-width="0.5"/><line x1="239.26" y1="63.85" x2="239.33" y2="63.81" fill="none" stroke="#67717c" stroke-linecap="round" stroke-miterlimit="10" stroke-width="0.5"/><path d="M261.4,93.63l4,2.36a1.8,1.8,0,0,1,.84,1.12l.8,3.12" transform="translate(-20.24 -29.03)" fill="none" stroke="#67717c" stroke-linecap="round" stroke-miterlimit="10" stroke-width="0.5"/><path d="M268.31,91.17l.51-.86a1.35,1.35,0,0,1,.82-.62l.67-.17a1.46,1.46,0,0,1,.9,0L277,91.84A1.7,1.7,0,0,1,278,93l.19.77A1.54,1.54,0,0,1,278,95l-1.56,2.64" transform="translate(-20.24 -29.03)" fill="none" stroke="#67717c" stroke-linecap="round" stroke-miterlimit="10" stroke-width="0.5"/><path d="M282.51,96.27a1.26,1.26,0,0,1,.93.13l1.07.64a1.83,1.83,0,0,1,.84,1.12l.95,3.72a2.09,2.09,0,0,1-.22,1.58l-.73,1.21a1.67,1.67,0,0,1-1.05.79l-1,.27a1.75,1.75,0,0,1-1.3-.19l-.55-.33a.49.49,0,0,1-.17-.67l.91-1.54" transform="translate(-20.24 -29.03)" fill="none" stroke="#67717c" stroke-linecap="round" stroke-miterlimit="10" stroke-width="0.5"/><path d="M283.41,105.66l.47,1.82a1.14,1.14,0,0,1-.12.83l-.91,1.53a1.09,1.09,0,0,1-.67.5l-3.7,1a1.1,1.1,0,0,1-.83-.12l-2-1.21" transform="translate(-20.24 -29.03)" fill="none" stroke="#67717c" stroke-linecap="round" stroke-miterlimit="10" stroke-width="0.5"/><path d="M266.15,100.94a1.34,1.34,0,1,1,.27,1.57" transform="translate(-20.24 -29.03)" fill="none" stroke="#67717c" stroke-linecap="round" stroke-miterlimit="10" stroke-width="0.5"/><circle cx="242.99" cy="76.56" r="1.09" fill="#e84b54"/><circle cx="255.77" cy="88.61" r="1.09" fill="#e84b54"/><circle cx="254.92" cy="70.35" r="1.09" fill="#e84b54"/></g><path d="M199.07,107.91l-14.39,4a1.41,1.41,0,0,1-1.74-1l-3.76-13.56a1.41,1.41,0,0,1,1-1.74l28.73-8a1.4,1.4,0,0,1,1.73,1l3.77,13.56a1.41,1.41,0,0,1-1,1.74l-1.85.51a.36.36,0,0,0-.25.44l1.48,5.32a.35.35,0,0,1-.51.4l-7-4a1.43,1.43,0,0,0-1.07-.13Z" transform="translate(-20.24 -29.03)" fill="#dce1e5"/><path d="M190.19,90l15.36-4.26a1.41,1.41,0,0,1,1.74,1l3.77,13.56a1.42,1.42,0,0,1-1,1.74l-1.84.51a.35.35,0,0,0-.25.43l1.48,5.32a.36.36,0,0,1-.51.41l-7-4a1.42,1.42,0,0,0-1.07-.13l-5.1,1.42-14.39,4a1.42,1.42,0,0,1-1.74-1l-3.77-13.56a1.41,1.41,0,0,1,1-1.74l3.54-1" transform="translate(-20.24 -29.03)" fill="none" stroke="#67717c" stroke-linecap="round" stroke-miterlimit="10" stroke-width="0.5"/><line x1="167.27" y1="61.67" x2="167.74" y2="61.54" fill="none" stroke="#67717c" stroke-linecap="round" stroke-miterlimit="10" stroke-width="0.5"/><line x1="162.93" y1="62.88" x2="165.31" y2="62.22" fill="none" stroke="#67717c" stroke-linecap="round" stroke-miterlimit="10" stroke-width="0.5"/><circle cx="166.62" cy="71.06" r="1.41" fill="#e84b54"/><circle cx="173.42" cy="69.17" r="1.41" fill="#e84b54"/><circle cx="180.21" cy="67.28" r="1.41" fill="#e84b54"/><rect x="415.58" y="165.84" width="21.99" height="21.99" rx="2.2" ry="2.2" transform="translate(-20.35 324.4) rotate(-45)" fill="#dce1e5"/><line x1="394.21" y1="155.69" x2="393.99" y2="155.47" fill="none" stroke="#67717c" stroke-linecap="round" stroke-miterlimit="10" stroke-width="0.5"/><line x1="392.3" y1="153.78" x2="390.88" y2="152.36" fill="none" stroke="#67717c" stroke-linecap="round" stroke-miterlimit="10" stroke-width="0.5"/><path d="M409,179.25l-1-1a2.2,2.2,0,0,1,0-3.11l12.44-12.44a2.2,2.2,0,0,1,3.11,0L436,175.16a2.2,2.2,0,0,1,0,3.11l-12.44,12.44a2.2,2.2,0,0,1-3.11,0l-4.25-4.25" transform="translate(-20.24 -29.03)" fill="none" stroke="#67717c" stroke-linecap="round" stroke-miterlimit="10" stroke-width="0.5"/><line x1="393.24" y1="139.78" x2="389.41" y2="135.96" fill="none" stroke="#67717c" stroke-linecap="round" stroke-miterlimit="10" stroke-width="0.5"/><line x1="413.24" y1="159.79" x2="409.41" y2="155.96" fill="none" stroke="#67717c" stroke-linecap="round" stroke-miterlimit="10" stroke-width="0.5"/><line x1="406.43" y1="136.8" x2="410.26" y2="132.98" fill="none" stroke="#67717c" stroke-linecap="round" stroke-miterlimit="10" stroke-width="0.5"/><line x1="412.65" y1="143.02" x2="416.48" y2="139.2" fill="none" stroke="#67717c" stroke-linecap="round" stroke-miterlimit="10" stroke-width="0.5"/><circle cx="397.39" cy="148.03" r="1.69" fill="#e84b54"/><circle cx="402.18" cy="143.25" r="1.69" fill="#e84b54"/><circle cx="402.18" cy="152.82" r="1.69" fill="#e84b54"/><circle cx="406.96" cy="148.03" r="1.69" fill="#e84b54"/><path d="M47.09,130.2H44.77a10.76,10.76,0,0,0-1.12-2.71l1.64-1.64a.65.65,0,0,0,0-.93l-2.8-2.8a.67.67,0,0,0-.93,0l-1.64,1.64a10.76,10.76,0,0,0-2.71-1.12v-2.32a.67.67,0,0,0-.66-.66H32.6a.66.66,0,0,0-.66.66v2.32a10.46,10.46,0,0,0-2.71,1.12l-1.64-1.64a.68.68,0,0,0-.94,0l-2.79,2.8a.65.65,0,0,0,0,.93l1.64,1.64a10.76,10.76,0,0,0-1.12,2.71H22.06a.66.66,0,0,0-.66.66v3.95a.65.65,0,0,0,.66.66h2.32a10.46,10.46,0,0,0,1.12,2.71l-1.64,1.65a.65.65,0,0,0,0,.93l2.79,2.79a.66.66,0,0,0,.94,0l1.64-1.64A10.13,10.13,0,0,0,31.94,143v2.33a.65.65,0,0,0,.66.65h3.95a.66.66,0,0,0,.66-.65V143a10.4,10.4,0,0,0,2.71-1.12l1.64,1.64a.65.65,0,0,0,.93,0l2.8-2.79a.65.65,0,0,0,0-.93l-1.64-1.65a10.46,10.46,0,0,0,1.12-2.71h2.32a.65.65,0,0,0,.66-.66v-3.95A.66.66,0,0,0,47.09,130.2Z" transform="translate(-20.24 -29.03)" fill="#dce1e5"/><path d="M22.2,128H21.15a.67.67,0,0,0-.66.66v4a.66.66,0,0,0,.66.66h2.32A10.15,10.15,0,0,0,24.6,136L23,137.59a.68.68,0,0,0,0,.94l2.8,2.79a.65.65,0,0,0,.93,0l1.64-1.64A10.76,10.76,0,0,0,31,140.8v2.32a.66.66,0,0,0,.66.66h4a.65.65,0,0,0,.65-.66V140.8A10.68,10.68,0,0,0,39,139.68l1.64,1.64a.65.65,0,0,0,.93,0l2.79-2.79a.66.66,0,0,0,0-.94L42.74,136a9.81,9.81,0,0,0,1.12-2.71h2.33a.65.65,0,0,0,.65-.66v-4a.66.66,0,0,0-.65-.66H43.86a10.07,10.07,0,0,0-1.12-2.71l1.64-1.64a.65.65,0,0,0,0-.93l-2.79-2.8a.65.65,0,0,0-.93,0L39,121.53a10.68,10.68,0,0,0-2.72-1.12v-2.32a.66.66,0,0,0-.65-.66h-4a.67.67,0,0,0-.66.66v2.32a10.76,10.76,0,0,0-2.71,1.12l-1.64-1.64a.65.65,0,0,0-.93,0l-2.8,2.8a.67.67,0,0,0,0,.93l1.65,1.64" transform="translate(-20.24 -29.03)" fill="none" stroke="#67717c" stroke-linecap="round" stroke-miterlimit="10" stroke-width="0.5"/><circle cx="13.43" cy="101.58" r="6.59" fill="#fff"/><path d="M33.67,137.19a6.59,6.59,0,1,1,5.46-2.9" transform="translate(-20.24 -29.03)" fill="none" stroke="#e84b54" stroke-linecap="round" stroke-miterlimit="10" stroke-width="0.5"/><path d="M475.16,178.13l-5.06-14.29a1.51,1.51,0,0,1,.92-1.93l14.84-5.26,2.22-.78,1.8-.64,4-1.42a1.53,1.53,0,0,1,1.94.92L500.88,169A1.52,1.52,0,0,1,500,171l-22.87,8.09A1.51,1.51,0,0,1,475.16,178.13Z" transform="translate(-20.24 -29.03)" fill="#dce1e5"/><line x1="465.73" y1="124.1" x2="468.5" y2="123.12" fill="none" stroke="#67717c" stroke-linecap="round" stroke-miterlimit="10" stroke-width="0.5"/><line x1="463.65" y1="124.83" x2="463.76" y2="124.79" fill="none" stroke="#67717c" stroke-linecap="round" stroke-miterlimit="10" stroke-width="0.5"/><path d="M491.05,151.33l5.14-1.83a1.52,1.52,0,0,1,1.94.93l5.06,14.29a1.51,1.51,0,0,1-.93,1.93l-22.86,8.1a1.51,1.51,0,0,1-1.93-.93l-5.06-14.28a1.52,1.52,0,0,1,.92-1.94l8.11-2.87" transform="translate(-20.24 -29.03)" fill="none" stroke="#67717c" stroke-linecap="round" stroke-miterlimit="10" stroke-width="0.5"/><circle cx="458.98" cy="136.14" r="1.52" fill="#e84b54"/><circle cx="186.58" cy="126.94" r="13.24" fill="#dce1e5"/><path d="M195.76,141.53a14.2,14.2,0,0,1,13.66-1.74.29.29,0,0,1,.15.38l-5.2,12.32a.36.36,0,0,0,.32.5h13.38a.29.29,0,0,1,.29.29,14.21,14.21,0,0,1-14.6,13.91,14.36,14.36,0,0,1-13.8-13.8,14.15,14.15,0,0,1,.22-2.93" transform="translate(-20.24 -29.03)" fill="none" stroke="#67717c" stroke-linecap="round" stroke-miterlimit="10" stroke-width="0.5"/><path d="M193.93,143.13l.14-.14" transform="translate(-20.24 -29.03)" fill="none" stroke="#67717c" stroke-linecap="round" stroke-miterlimit="10" stroke-width="0.5"/><path d="M191.52,146.49a14.88,14.88,0,0,1,1.07-1.75" transform="translate(-20.24 -29.03)" fill="none" stroke="#67717c" stroke-linecap="round" stroke-miterlimit="10" stroke-width="0.5"/><path d="M220.32,147.47a10.66,10.66,0,0,0-4.81-7.58.22.22,0,0,0-.31.07L210,148.43a.27.27,0,0,0,.26.4l9.89-1.11A.22.22,0,0,0,220.32,147.47Z" transform="translate(-20.24 -29.03)" fill="#e84b54"/><path d="M195.12,142" transform="translate(-20.24 -29.03)" fill="none" stroke="#67717c" stroke-linecap="round" stroke-miterlimit="10" stroke-width="0.5"/><circle cx="60.89" cy="59.98" r="10.72" fill="#dce1e5"/><path d="M68.86,94.4a10.41,10.41,0,0,0,1.42,1.93,10.67,10.67,0,0,0,10.87,3,1.15,1.15,0,0,1,1.17.3l3.57,3.85" transform="translate(-20.24 -29.03)" fill="none" stroke="#67717c" stroke-linecap="round" stroke-miterlimit="10" stroke-width="0.5"/><path d="M67.44,89.45a10.44,10.44,0,0,0,.21,1.76" transform="translate(-20.24 -29.03)" fill="none" stroke="#67717c" stroke-linecap="round" stroke-miterlimit="10" stroke-width="0.5"/><path d="M67.53,87.61a.88.88,0,0,1,0,.17" transform="translate(-20.24 -29.03)" fill="none" stroke="#67717c" stroke-linecap="round" stroke-miterlimit="10" stroke-width="0.5"/><path d="M90.9,98.8l-3.2-3.46A1.12,1.12,0,0,1,87.55,94,10.67,10.67,0,1,0,68,85.56" transform="translate(-20.24 -29.03)" fill="none" stroke="#67717c" stroke-linecap="round" stroke-miterlimit="10" stroke-width="0.5"/><path d="M79.26,95.29l4.63,1.43a.45.45,0,0,0,.57-.53l-1.08-4.72a.39.39,0,0,0-.64-.2l-3.63,3.36A.39.39,0,0,0,79.26,95.29Z" transform="translate(-20.24 -29.03)" fill="#e84b54"/><line x1="64.64" y1="75.44" x2="72.05" y2="68.57" fill="none" stroke="#67717c" stroke-linecap="round" stroke-miterlimit="10" stroke-width="0.5"/><line x1="67.82" y1="75.56" x2="71.94" y2="71.74" fill="none" stroke="#67717c" stroke-linecap="round" stroke-miterlimit="10" stroke-width="0.5"/><g id="video"><circle cx="618.66" cy="82.46" r="13.32" fill="#dce1e5"/><path d="M627.18,101.38a12.93,12.93,0,0,0-2.36,2.55" transform="translate(-20.24 -29.03)" fill="none" stroke="#67717c" stroke-linecap="round" stroke-miterlimit="10" stroke-width="0.5"/><path d="M629.44,99.85l-.53.3" transform="translate(-20.24 -29.03)" fill="none" stroke="#67717c" stroke-linecap="round" stroke-miterlimit="10" stroke-width="0.5"/><path d="M623.42,106.45a14.29,14.29,0,0,0-.8,2.53,13.53,13.53,0,0,0,9.32,15.78l2,6.37a.33.33,0,0,0,.57.09L639,125a13.45,13.45,0,0,0,7-4.18,13.56,13.56,0,0,0-14.23-21.94" transform="translate(-20.24 -29.03)" fill="none" stroke="#67717c" stroke-linecap="round" stroke-miterlimit="10" stroke-width="0.5"/><path d="M639.26,109.6l-7,.49a.32.32,0,0,0-.24.5l3.91,5.79a.32.32,0,0,0,.56,0l3.05-6.28A.32.32,0,0,0,639.26,109.6Z" transform="translate(-20.24 -29.03)" fill="#e84b54"/></g><g id="watch"><rect x="420.24" y="107.58" width="18.85" height="19.95" rx="4.3" ry="4.3" transform="translate(66.26 -195.49) rotate(24.31)" fill="#dce1e5"/><path d="M425.26,125.1l-1.18-.53-4.3-1.95a4.3,4.3,0,0,1-2.15-5.68l4.87-10.77a4.29,4.29,0,0,1,5.69-2.15l9.87,4.46a4.31,4.31,0,0,1,2.15,5.69l-4.87,10.77a4.31,4.31,0,0,1-5.69,2.15" transform="translate(-20.24 -29.03)" fill="none" stroke="#67717c" stroke-linecap="round" stroke-miterlimit="10" stroke-width="0.5"/><path d="M430.11,99.94a3.19,3.19,0,0,1,2.35.12l5.57,2.51A3.24,3.24,0,0,1,439.9,106l-.51,3.44" transform="translate(-20.24 -29.03)" fill="none" stroke="#67717c" stroke-linecap="round" stroke-miterlimit="10" stroke-width="0.5"/><line x1="408.32" y1="72.02" x2="408.45" y2="71.87" fill="none" stroke="#67717c" stroke-linecap="round" stroke-miterlimit="10" stroke-width="0.5"/><line x1="406.16" y1="74.59" x2="407.38" y2="73.14" fill="none" stroke="#67717c" stroke-linecap="round" stroke-miterlimit="10" stroke-width="0.5"/><path d="M418.28,121.49l-.49,3.54a3.22,3.22,0,0,0,1.86,3.38l5.57,2.52a3.24,3.24,0,0,0,3.79-.85l2.17-2.6" transform="translate(-20.24 -29.03)" fill="none" stroke="#67717c" stroke-linecap="round" stroke-miterlimit="10" stroke-width="0.5"/><path d="M439.84,115l.48.22a.73.73,0,0,1,.36,1l-1.08,2.39a.72.72,0,0,1-1,.36l-.48-.22" transform="translate(-20.24 -29.03)" fill="none" stroke="#67717c" stroke-linecap="round" stroke-miterlimit="10" stroke-width="0.5"/><path d="M437,121.23l.48.21a.73.73,0,0,1,.36,1l-1.08,2.39a.72.72,0,0,1-.95.36l-.48-.22" transform="translate(-20.24 -29.03)" fill="none" stroke="#67717c" stroke-linecap="round" stroke-miterlimit="10" stroke-width="0.5"/><path d="M428.15,113.34l-.3.67-.32.7-.89,2a1.28,1.28,0,1,0,.1,1.24h0l1.42-3.13,3.34.49-.9,2a1.29,1.29,0,0,0-.53-.45,1.27,1.27,0,1,0,.58,1.79h0l1.47-3.25.22-.5.4-.88Z" transform="translate(-20.24 -29.03)" fill="#e84b54"/></g><g id="tag"><path d="M145,119.55a10,10,0,0,1-4-4.79" transform="translate(-20.24 -29.03)" fill="none" stroke="#67717c" stroke-linecap="round" stroke-miterlimit="10" stroke-width="0.38"/><path d="M139.48,112.53,137,116.64a1.83,1.83,0,0,0-.11,1.63l8.68,21.85a1.73,1.73,0,0,0,2.19,1l9.1-3.62a1.72,1.72,0,0,0,.87-2.27L149,113.44a1.86,1.86,0,0,0-1.2-1.11l-5.73-.83A2.29,2.29,0,0,0,139.48,112.53Zm4.27,2.59a2.09,2.09,0,1,1-2.74-1.26A2.13,2.13,0,0,1,143.75,115.12Z" transform="translate(-20.24 -29.03)" fill="#dce1e5"/><path d="M141.59,135.67l-6.4-16.09a1.91,1.91,0,0,1,.18-1.72l2.94-4.4a2.8,2.8,0,0,1,2.94-1.17l5.16,1.18a1.85,1.85,0,0,1,1.31,1.13l9.13,22.94a1.86,1.86,0,0,1-1,2.41l-9.08,3.61a1.86,1.86,0,0,1-2.41-1" transform="translate(-20.24 -29.03)" fill="none" stroke="#67717c" stroke-linecap="round" stroke-miterlimit="10" stroke-width="0.5"/><line x1="122.74" y1="110.13" x2="122.17" y2="108.7" fill="none" stroke="#67717c" stroke-linecap="round" stroke-miterlimit="10" stroke-width="0.5"/><line x1="123.48" y1="112.01" x2="123.39" y2="111.78" fill="none" stroke="#67717c" stroke-linecap="round" stroke-miterlimit="10" stroke-width="0.5"/><path d="M142.82,117.68a10.06,10.06,0,0,1,2.26-15.19" transform="translate(-20.24 -29.03)" fill="none" stroke="#67717c" stroke-linecap="round" stroke-miterlimit="10" stroke-width="0.5"/><path d="M143.58,115.54a2.18,2.18,0,0,1-4.05,1.61,2.14,2.14,0,0,1-.06-1.43" transform="translate(-20.24 -29.03)" fill="none" stroke="#67717c" stroke-linecap="round" stroke-miterlimit="10" stroke-width="0.5"/><path d="M147.28,130.73a2.12,2.12,0,1,1,1.19-2.75" transform="translate(-20.24 -29.03)" fill="none" stroke="#e84b54" stroke-linecap="round" stroke-miterlimit="10" stroke-width="0.5"/><path d="M147.25,130.74a2.12,2.12,0,1,1-1.18,2.75" transform="translate(-20.24 -29.03)" fill="none" stroke="#e84b54" stroke-linecap="round" stroke-miterlimit="10" stroke-width="0.5"/><line x1="124.97" y1="96.53" x2="125.44" y2="97.72" fill="none" stroke="#e84b54" stroke-linecap="round" stroke-miterlimit="10" stroke-width="0.5"/><line x1="128.64" y1="105.76" x2="129.11" y2="106.95" fill="none" stroke="#e84b54" stroke-linecap="round" stroke-miterlimit="10" stroke-width="0.5"/></g><g id="mouse"><rect x="671.7" y="137.87" width="18.38" height="25.97" rx="8.37" ry="8.37" transform="translate(350.6 -502.86) rotate(51.11)" fill="#dce1e5"/><path d="M685.7,136.36l-.25-.05" transform="translate(-20.24 -29.03)" fill="none" stroke="#67717c" stroke-linecap="round" stroke-miterlimit="10" stroke-width="0.5"/><path d="M688.55,137.67a5.23,5.23,0,0,0-.63-.41" transform="translate(-20.24 -29.03)" fill="none" stroke="#67717c" stroke-linecap="round" stroke-miterlimit="10" stroke-width="0.5"/><path d="M682.7,136.18a8.27,8.27,0,0,0-4.25,1.8l-7.32,5.9a8.37,8.37,0,0,0-1.26,11.78l1,1.27a8.38,8.38,0,0,0,11.78,1.26l7.32-5.9a8.38,8.38,0,0,0,1.26-11.78l-1-1.27c-.1-.13-.22-.26-.33-.39" transform="translate(-20.24 -29.03)" fill="none" stroke="#67717c" stroke-linecap="round" stroke-miterlimit="10" stroke-width="0.5"/><rect x="684.27" y="141.3" width="2.28" height="5.74" rx="1.14" ry="1.14" transform="translate(347.08 -508.87) rotate(51.11)" fill="#e84b54"/><path d="M690.74,139.87l6.41-5.17a2.72,2.72,0,0,1,3.82.41h0a2.71,2.71,0,0,1-.41,3.81" transform="translate(-20.24 -29.03)" fill="none" stroke="#67717c" stroke-linecap="round" stroke-miterlimit="10" stroke-width="0.5"/><path d="M700.53,138.94l-1.14.92a2.71,2.71,0,0,0-.41,3.81h0a2.71,2.71,0,0,0,3.81.41" transform="translate(-20.24 -29.03)" fill="none" stroke="#67717c" stroke-linecap="round" stroke-miterlimit="10" stroke-width="0.5"/></g><g id="search"><circle cx="726.22" cy="94.31" r="9.82" fill="#dce1e5"/><path d="M736.07,116.88l.32-.39" transform="translate(-20.24 -29.03)" fill="none" stroke="#67717c" stroke-linecap="round" stroke-miterlimit="10" stroke-width="0.5"/><path d="M734.37,120.14a10.09,10.09,0,0,1,.71-1.74" transform="translate(-20.24 -29.03)" fill="none" stroke="#67717c" stroke-linecap="round" stroke-miterlimit="10" stroke-width="0.5"/><path d="M738.59,114.62a9.84,9.84,0,1,1-4.62,7.94" transform="translate(-20.24 -29.03)" fill="none" stroke="#67717c" stroke-linecap="round" stroke-miterlimit="10" stroke-width="0.5"/><rect x="751.82" y="133.31" width="4.33" height="12.11" rx="2.16" ry="2.16" transform="translate(19.91 390.27) rotate(-31.89)" fill="none" stroke="#67717c" stroke-linecap="round" stroke-miterlimit="10" stroke-width="0.5"/><line x1="728.64" y1="102.13" x2="730.46" y2="105.07" fill="none" stroke="#67717c" stroke-miterlimit="10" stroke-width="0.5"/><path d="M747.82,117.05a7.78,7.78,0,0,1,2.85,7.13" transform="translate(-20.24 -29.03)" fill="none" stroke="#e84b54" stroke-linecap="round" stroke-miterlimit="10" stroke-width="0.5"/></g><g id="cloud"><path id="MobileMe" d="M392.46,136.3a6.2,6.2,0,0,1-5.18,7.06l-18.87,2.84a6.22,6.22,0,0,1-2.79-12.07,3.63,3.63,0,0,1-.16-.65,3.93,3.93,0,0,1,3.28-4.48,3.85,3.85,0,0,1,2.63.55c.79-2.9,2-5.62,6.27-6.27,5.23-.79,8.33,2.9,9,7.19a5,5,0,0,1,.06.54A6.21,6.21,0,0,1,392.46,136.3Z" transform="translate(-20.24 -29.03)" fill="#dce1e5"/><path id="MobileMe-2" data-name="MobileMe" d="M369.55,144.06l-4.42.66a6.21,6.21,0,0,1-2.8-12.06,4.54,4.54,0,0,1-.16-.66,3.92,3.92,0,0,1,3.28-4.47,3.87,3.87,0,0,1,2.64.54c.13-.49.28-1,.44-1.45" transform="translate(-20.24 -29.03)" fill="none" stroke="#67717c" stroke-linecap="round" stroke-miterlimit="10" stroke-width="0.5"/><path id="MobileMe-3" data-name="MobileMe" d="M375.49,121.7c4.55-.13,7.24,3.33,7.84,7.3l.06.53a6.22,6.22,0,0,1,.61,12.35" transform="translate(-20.24 -29.03)" fill="none" stroke="#67717c" stroke-linecap="round" stroke-miterlimit="10" stroke-width="0.5"/><path id="MobileMe-4" data-name="MobileMe" d="M370.91,123.13a6.57,6.57,0,0,1,2.27-1.08" transform="translate(-20.24 -29.03)" fill="none" stroke="#67717c" stroke-linecap="round" stroke-miterlimit="10" stroke-width="0.5"/><path id="MobileMe-5" data-name="MobileMe" d="M369.6,124.49l.28-.38" transform="translate(-20.24 -29.03)" fill="none" stroke="#67717c" stroke-linecap="round" stroke-miterlimit="10" stroke-width="0.5"/><path d="M372.75,140.38,373.9,148a2.52,2.52,0,0,1-2.11,2.86l-.89.13" transform="translate(-20.24 -29.03)" fill="none" stroke="#e84b54" stroke-linecap="round" stroke-miterlimit="10" stroke-width="0.5"/><path d="M376.83,139.77l.78,5.16a2.52,2.52,0,0,0,2.86,2.12l.9-.14" transform="translate(-20.24 -29.03)" fill="none" stroke="#e84b54" stroke-linecap="round" stroke-miterlimit="10" stroke-width="0.5"/></g><path d="M349.46,187.78c-2.91,1.15-7.14,2.43-9.53,1.34A7.74,7.74,0,1,1,346.35,175c3.89,1.77,6.25,11.35,6.25,11.35" transform="translate(-20.24 -29.03)" fill="none" stroke="#dce1e5" stroke-linecap="round" stroke-miterlimit="10" stroke-width="1.5"/><path d="M352.6,186.39s2.36,9.58,6.25,11.35a7.74,7.74,0,0,0,6.42-14.08,7.61,7.61,0,0,0-4.25-.23" transform="translate(-20.24 -29.03)" fill="none" stroke="#dce1e5" stroke-linecap="round" stroke-miterlimit="10" stroke-width="1.5"/><path d="M348.86,183.46c-2.91,1.15-7.14,2.43-9.52,1.34a7.74,7.74,0,1,1,6.41-14.08c3.89,1.77,6.26,11.35,6.26,11.35" transform="translate(-20.24 -29.03)" fill="none" stroke="#67717c" stroke-linecap="round" stroke-miterlimit="10" stroke-width="0.5"/><path d="M355.94,180.37l-.65.25" transform="translate(-20.24 -29.03)" fill="none" stroke="#67717c" stroke-linecap="round" stroke-miterlimit="10" stroke-width="0.5"/><path d="M352,182.07s2.36,9.58,6.25,11.35a7.74,7.74,0,1,0,6.41-14.08c-1.52-.7-3.8-.43-6,.16" transform="translate(-20.24 -29.03)" fill="none" stroke="#67717c" stroke-linecap="round" stroke-miterlimit="10" stroke-width="0.5"/><path d="M342,182.16a5.37,5.37,0,0,1-3.12-5.43" transform="translate(-20.24 -29.03)" fill="none" stroke="#e84b54" stroke-linecap="round" stroke-miterlimit="10" stroke-width="0.5"/></g></svg>