<?xml version="1.0" encoding="utf-8"?>
<!-- Generator: Adobe Illustrator 22.0.1, SVG Export Plug-In . SVG Version: 6.00 Build 0)  -->
<svg version="1.1" id="Layer_1" xmlns="http://www.w3.org/2000/svg" xmlns:xlink="http://www.w3.org/1999/xlink" x="0px" y="0px"
	 viewBox="0 0 8.9 13.1" style="enable-background:new 0 0 8.9 13.1;" xml:space="preserve">
<path style="fill:#67717C;" d="M7.5,5.6C7.5,5.6,7.5,5.5,7.5,5.6L7.5,5.3c0,0,0-0.1,0.1-0.1c0,0,0.1,0,0.1,0.1L7.5,5.6
	C7.6,5.5,7.6,5.6,7.5,5.6z"/>
<path style="fill:#67717C;" d="M4.4,11.3c-1.7,0-3.2-1.4-3.2-3.2V4.9c0-1.7,1.4-3.2,3.2-3.2s3.2,1.4,3.2,3.2c0,0,0,0.1-0.1,0.1
	c0,0-0.1,0-0.1-0.1c0-1.7-1.3-3-3-3c-1.7,0-3,1.3-3,3v3.3c0,1.7,1.4,3,3,3c1.7,0,3-1.3,3-3V7.4c0,0,0-0.1,0.1-0.1c0,0,0.1,0,0.1,0.1
	v0.8C7.6,9.9,6.2,11.3,4.4,11.3z"/>
<path style="fill:#67717C;" d="M7.5,6.9C7.5,6.9,7.5,6.8,7.5,6.9L7.5,6c0,0,0-0.1,0.1-0.1c0,0,0.1,0,0.1,0.1L7.5,6.9
	C7.6,6.8,7.6,6.9,7.5,6.9z"/>
<g id="arrow">
	<path style="fill:#E84B54;" d="M4.4,8.3C4.4,8.3,4.4,8.3,4.4,8.3L4.4,4.7c0,0,0-0.1,0.1-0.1c0,0,0.1,0,0.1,0.1L4.4,8.3
		C4.5,8.3,4.5,8.3,4.4,8.3z"/>
	<path style="fill:#E84B54;" d="M4.4,8.5L4.4,8.5L3.2,7.3c0,0,0-0.1,0-0.1c0,0,0.1,0,0.1,0l1.2,1.2C4.5,8.4,4.5,8.5,4.4,8.5L4.4,8.5
		z"/>
	<path style="fill:#E84B54;" d="M4.5,8.5L4.5,8.5C4.4,8.5,4.4,8.4,4.4,8.4l1.2-1.2c0,0,0.1,0,0.1,0c0,0,0,0.1,0,0.1L4.5,8.5L4.5,8.5
		z"/>
</g>
</svg>
