<?xml version="1.0" encoding="utf-8"?>
<!-- Generator: Adobe Illustrator 22.0.1, SVG Export Plug-In . SVG Version: 6.00 Build 0)  -->
<svg version="1.1" id="Layer_1" xmlns="http://www.w3.org/2000/svg" xmlns:xlink="http://www.w3.org/1999/xlink" x="0px" y="0px"
	 viewBox="0 0 60 68" style="enable-background:new 0 0 60 68;" xml:space="preserve">
<g>
	<path style="opacity:0.3;fill:#FFFFFF;" d="M30,67.7L30,67.7c-12.1,0-22-9.9-22-22v-23c0-12.1,9.9-22,22-22h0c12.1,0,22,9.9,22,22
		v23C52,57.8,42.1,67.7,30,67.7z"/>
	<path style="fill:#67717C;" d="M30,68.1C17.6,68.1,7.5,58,7.5,45.6V22.5C7.5,10.1,17.6,0.1,30,0.1s22.5,10.1,22.5,22.4
		c0,0.3-0.2,0.5-0.5,0.5s-0.5-0.2-0.5-0.5c0-11.8-9.6-21.3-21.4-21.3c-11.8,0-21.4,9.6-21.4,21.3v23.1C8.6,57.4,18.2,67,30,67
		c11.8,0,21.4-9.6,21.4-21.3V24.3c0-0.3,0.2-0.5,0.5-0.5s0.5,0.2,0.5,0.5v21.4C52.5,58,42.4,68.1,30,68.1z"/>
</g>
<g>
	<defs>
		<path id="SVGID_1_" d="M30,67.2L30,67.2c-12.4,0-22.5-10.1-22.5-22.5v-22C7.5,10.3,17.6,0.2,30,0.2h0c12.4,0,22.5,10.1,22.5,22.5
			v22C52.5,57.1,42.4,67.2,30,67.2z"/>
	</defs>
	<clipPath id="SVGID_2_">
		<use xlink:href="#SVGID_1_"  style="overflow:visible;"/>
	</clipPath>
	<path style="clip-path:url(#SVGID_2_);fill:#E84B54;" d="M29.9,51.3c-0.4,0-0.7-0.2-0.7-0.4V31.1c0-0.2,0.3-0.4,0.7-0.4
		s0.7,0.2,0.7,0.4v19.8C30.7,51.1,30.3,51.3,29.9,51.3z"/>
	<path style="clip-path:url(#SVGID_2_);fill:#E84B54;" d="M29.8,51.8l-0.5-0.2L21.6,44c-0.3-0.3-0.3-0.8,0-1c0.3-0.3,0.8-0.3,1,0
		l7.7,7.7c0.3,0.3,0.3,0.8,0,1L29.8,51.8z"/>
	<path style="clip-path:url(#SVGID_2_);fill:#E84B54;" d="M30,51.8l-0.5-0.2c-0.3-0.3-0.3-0.8,0-1l7.7-7.7c0.3-0.3,0.8-0.3,1,0
		s0.3,0.8,0,1l-7.7,7.7L30,51.8z"/>

	<animateTransform attributeName="transform"
    type="translate"
    from="0 -50"
    to="0 50"
    begin="0s"
    dur="2s"
    repeatCount="indefinite"
  />
</g>
</svg>
