<?xml version="1.0" encoding="utf-8"?>
<!-- Generator: Adobe Illustrator 22.0.1, SVG Export Plug-In . SVG Version: 6.00 Build 0)  -->
<svg version="1.1" id="Layer_1" xmlns="http://www.w3.org/2000/svg" xmlns:xlink="http://www.w3.org/1999/xlink" x="0px" y="0px"
	 viewBox="0 0 60 100" style="enable-background:new 0 0 60 100;" xml:space="preserve">
<path style="fill:#67717C;" d="M30.4,84.7C18,84.7,7.9,74.6,7.9,62.2V38.9c0-12.4,10.1-22.5,22.5-22.5S53,26.5,53,38.9
	c0,0.3-0.2,0.5-0.5,0.5s-0.5-0.2-0.5-0.5c0-11.8-9.6-21.5-21.5-21.5C18.6,17.5,9,27.1,9,38.9v23.3C9,74,18.6,83.6,30.4,83.6
	c11.8,0,21.5-9.6,21.5-21.5V40.7c0-0.3,0.2-0.5,0.5-0.5s0.5,0.2,0.5,0.5v21.5C53,74.6,42.9,84.7,30.4,84.7z"/>
<g id="arrow">
	<path style="fill:#E84B54;" d="M30.4,63.3c-0.3,0-0.5-0.2-0.5-0.5V37.7c0-0.3,0.2-0.5,0.5-0.5c0.3,0,0.5,0.2,0.5,0.5v25.1
		C31,63.1,30.7,63.3,30.4,63.3z"/>
	<path style="fill:#E84B54;" d="M30.3,64.7l-0.4-0.2L21.4,56c-0.2-0.2-0.2-0.6,0-0.8s0.6-0.2,0.8,0l8.6,8.6c0.2,0.2,0.2,0.6,0,0.8
		L30.3,64.7z"/>
	<path style="fill:#E84B54;" d="M30.5,64.7l-0.4-0.2c-0.2-0.2-0.2-0.6,0-0.8l8.6-8.6c0.2-0.2,0.6-0.2,0.8,0s0.2,0.6,0,0.8l-8.6,8.6
		L30.5,64.7z"/>



			<animateTransform attributeName="transform"
    type="translate"
    from="0 -50"
    to="0 50"
    begin="0s"
    dur="2s"
    repeatCount="indefinite"
  />
</g>
</svg>
