<?xml version="1.0" encoding="utf-8"?>
<!-- Generator: Adobe Illustrator 22.0.1, SVG Export Plug-In . SVG Version: 6.00 Build 0)  -->
<svg version="1.1" xmlns="http://www.w3.org/2000/svg" xmlns:xlink="http://www.w3.org/1999/xlink" x="0px" y="0px"
	 viewBox="0 0 1440 682" enable-background="new 0 0 1440 682" xml:space="preserve">
<g id="Layer_2">
	<g>
		<g>
			<g>
				<g>
					<polygon fill="none" stroke="#B0BBC1" stroke-width="0.2" stroke-miterlimit="10" points="608,377.2 618,535.6 704.2,529.9 
											"/>
				</g>
				<g>
					<polygon fill="none" stroke="#B0BBC1" stroke-width="0.2" stroke-miterlimit="10" points="608,377.2 771,442.9 704.2,529.9 
											"/>
				</g>
			</g>
		</g>
		<g>
			<g>
				<g>
					<polygon fill="none" stroke="#B0BBC1" stroke-width="0.2" stroke-miterlimit="10" points="76.2,138.4 109.9,252 177.5,215.1 
											"/>
				</g>
				<g>
					<polygon fill="none" stroke="#B0BBC1" stroke-width="0.2" stroke-miterlimit="10" points="76.2,138.4 198.9,170.2 177.5,215.1 
											"/>
				</g>
			</g>
		</g>
		<g>
			<g>
				<g>
					<polygon fill="none" stroke="#B0BBC1" stroke-width="0.2" stroke-miterlimit="10" points="1412.1,349.8 1308.4,319.9 
						1332.5,397 					"/>
				</g>
				<g>
					<polygon fill="none" stroke="#B0BBC1" stroke-width="0.2" stroke-miterlimit="10" points="1412.1,349.8 1327.4,428.4 
						1332.5,397 					"/>
				</g>
				<g>
					<polygon fill="none" stroke="#B0BBC1" stroke-width="0.2" stroke-miterlimit="10" points="1308.4,319.9 1327.4,428.4 
						1332.5,397 					"/>
				</g>
			</g>
		</g>
		<g>
			<g>
				<g>
					<polygon fill="none" stroke="#B0BBC1" stroke-width="0.2" stroke-miterlimit="10" points="716.6,521.1 809.4,596.9 
						843.4,558.7 					"/>
				</g>
				<g>
					<polygon fill="none" stroke="#B0BBC1" stroke-width="0.2" stroke-miterlimit="10" points="716.6,521.1 822.7,446.5 
						843.4,558.7 					"/>
				</g>
			</g>
		</g>
		<g>
			<g>
				<g>
					<polygon fill="none" stroke="#B0BBC1" stroke-width="0.2" stroke-miterlimit="10" points="863.2,337.7 860.6,514.1 
						922.9,462.7 					"/>
				</g>
				<g>
					<polygon fill="none" stroke="#B0BBC1" stroke-width="0.2" stroke-miterlimit="10" points="863.2,337.7 1023.5,437.4 
						922.9,462.7 					"/>
				</g>
				<g>
					<polygon fill="none" stroke="#B0BBC1" stroke-width="0.2" stroke-miterlimit="10" points="860.6,514.1 1023.5,437.4 
						922.9,462.7 					"/>
				</g>
			</g>
		</g>
		<g>
			<g>
				<g>
					<polygon fill="none" stroke="#B0BBC1" stroke-width="0.2" stroke-miterlimit="10" points="328.9,20.8 273.1,96.5 314.4,126.8 
											"/>
				</g>
				<g>
					<polygon fill="none" stroke="#B0BBC1" stroke-width="0.2" stroke-miterlimit="10" points="328.9,20.8 377.9,112.8 314.4,126.8 
											"/>
				</g>
			</g>
		</g>
		<g>
			<g>
				<g>
					<polygon fill="none" stroke="#B0BBC1" stroke-width="0.2" stroke-miterlimit="10" points="1141.4,524.9 1038.9,528.1 
						1083.2,590.8 					"/>
				</g>
				<g>
					<polygon fill="none" stroke="#B0BBC1" stroke-width="0.2" stroke-miterlimit="10" points="1141.4,524.9 1087.7,620.6 
						1083.2,590.8 					"/>
				</g>
				<g>
					<polygon fill="none" stroke="#B0BBC1" stroke-width="0.2" stroke-miterlimit="10" points="1038.9,528.1 1087.7,620.6 
						1083.2,590.8 					"/>
				</g>
			</g>
		</g>
		<g>
			<g>
				<g>
					<polygon fill="none" stroke="#B0BBC1" stroke-width="0.2" stroke-miterlimit="10" points="457.4,122 431,213.9 499.3,192.5 
											"/>
				</g>
				<g>
					<polygon fill="none" stroke="#B0BBC1" stroke-width="0.2" stroke-miterlimit="10" points="457.4,122 527.1,197 499.3,192.5 
											"/>
				</g>
				<g>
					<polygon fill="none" stroke="#B0BBC1" stroke-width="0.2" stroke-miterlimit="10" points="431,213.9 527.1,197 499.3,192.5 
											"/>
				</g>
			</g>
		</g>
		<g>
			<g>
				<g>
					<polygon fill="none" stroke="#B0BBC1" stroke-width="0.2" stroke-miterlimit="10" points="948.4,489.3 870.8,650.8 950.2,630 
											"/>
				</g>
				<g>
					<polygon fill="none" stroke="#B0BBC1" stroke-width="0.2" stroke-miterlimit="10" points="948.4,489.3 1053.6,649.6 950.2,630 
											"/>
				</g>
				<g>
					<polygon fill="none" stroke="#B0BBC1" stroke-width="0.2" stroke-miterlimit="10" points="870.8,650.8 1053.6,649.6 950.2,630 
											"/>
				</g>
			</g>
		</g>
		<g>
			<g>
				<g>
					<polygon fill="none" stroke="#B0BBC1" stroke-width="0.2" stroke-miterlimit="10" points="1280.3,468.5 1180.7,445.3 
						1169,487.4 					"/>
				</g>
				<g>
					<polygon fill="none" stroke="#B0BBC1" stroke-width="0.2" stroke-miterlimit="10" points="1280.3,468.5 1227.1,565.6 
						1169,487.4 					"/>
				</g>
			</g>
		</g>
		<g>
			<g>
				<g>
					<polygon fill="none" stroke="#B0BBC1" stroke-width="0.2" stroke-miterlimit="10" points="264.3,90.5 185.1,241.7 292,271.6 
											"/>
				</g>
				<g>
					<polygon fill="none" stroke="#B0BBC1" stroke-width="0.2" stroke-miterlimit="10" points="264.3,90.5 359.2,246.7 292,271.6 
											"/>
				</g>
			</g>
		</g>
		<g>
			<g>
				<g>
					<polygon fill="none" stroke="#B0BBC1" stroke-width="0.2" stroke-miterlimit="10" points="1055.8,360.5 994.1,510.1 
						1064.6,487.3 					"/>
				</g>
				<g>
					<polygon fill="none" stroke="#B0BBC1" stroke-width="0.2" stroke-miterlimit="10" points="1055.8,360.5 1158.9,499.8 
						1064.6,487.3 					"/>
				</g>
				<g>
					<polygon fill="none" stroke="#B0BBC1" stroke-width="0.2" stroke-miterlimit="10" points="994.1,510.1 1158.9,499.8 
						1064.6,487.3 					"/>
				</g>
			</g>
		</g>
		<g>
			<g>
				<g>
					<polygon fill="none" stroke="#B0BBC1" stroke-width="0.2" stroke-miterlimit="10" points="378.6,325.1 486.4,399.4 
						480.4,339.7 					"/>
				</g>
				<g>
					<polygon fill="none" stroke="#B0BBC1" stroke-width="0.2" stroke-miterlimit="10" points="378.6,325.1 506.3,267.3 
						480.4,339.7 					"/>
				</g>
				<g>
					<polygon fill="none" stroke="#B0BBC1" stroke-width="0.2" stroke-miterlimit="10" points="486.4,399.4 506.3,267.3 
						480.4,339.7 					"/>
				</g>
			</g>
		</g>
		<g>
			<g>
				<g>
					<polygon fill="none" stroke="#B0BBC1" stroke-width="0.2" stroke-miterlimit="10" points="880.5,169.7 741.7,225.1 
						802.2,257.1 					"/>
				</g>
				<g>
					<polygon fill="none" stroke="#B0BBC1" stroke-width="0.2" stroke-miterlimit="10" points="880.5,169.7 854.6,327.5 
						802.2,257.1 					"/>
				</g>
				<g>
					<polygon fill="none" stroke="#B0BBC1" stroke-width="0.2" stroke-miterlimit="10" points="741.7,225.1 854.6,327.5 
						802.2,257.1 					"/>
				</g>
			</g>
		</g>
		<g>
			<g>
				<g>
					<polygon fill="none" stroke="#B0BBC1" stroke-width="0.2" stroke-miterlimit="10" points="1275.9,212.8 1134.4,273.2 
						1164.1,347.2 					"/>
				</g>
				<g>
					<polygon fill="none" stroke="#B0BBC1" stroke-width="0.2" stroke-miterlimit="10" points="1275.9,212.8 1288.9,370.9 
						1164.1,347.2 					"/>
				</g>
			</g>
		</g>
		<g>
			<g>
				<g>
					<polygon fill="none" stroke="#B0BBC1" stroke-width="0.2" stroke-miterlimit="10" points="234.3,209.9 353.1,351 367.2,267.8 
											"/>
				</g>
				<g>
					<polygon fill="none" stroke="#B0BBC1" stroke-width="0.2" stroke-miterlimit="10" points="234.3,209.9 429.3,178.9 
						367.2,267.8 					"/>
				</g>
				<g>
					<polygon fill="none" stroke="#B0BBC1" stroke-width="0.2" stroke-miterlimit="10" points="353.1,351 429.3,178.9 367.2,267.8 
											"/>
				</g>
			</g>
		</g>
		<g>
			<g>
				<g>
					<polygon fill="none" stroke="#B0BBC1" stroke-width="0.2" stroke-miterlimit="10" points="40.2,177.1 5.6,344.4 74.2,306.9 
											"/>
				</g>
				<g>
					<polygon fill="none" stroke="#B0BBC1" stroke-width="0.2" stroke-miterlimit="10" points="40.2,177.1 174.5,301.3 74.2,306.9 
											"/>
				</g>
				<g>
					<polygon fill="none" stroke="#B0BBC1" stroke-width="0.2" stroke-miterlimit="10" points="5.6,344.4 174.5,301.3 74.2,306.9 
											"/>
				</g>
			</g>
		</g>
		<g>
			<g>
				<g>
					<polygon fill="none" stroke="#B0BBC1" stroke-width="0.2" stroke-miterlimit="10" points="610.7,214.3 581.3,240.6 592,253.6 
											"/>
				</g>
				<g>
					<polygon fill="none" stroke="#B0BBC1" stroke-width="0.2" stroke-miterlimit="10" points="610.7,214.3 629.5,252.6 592,253.6 
											"/>
				</g>
			</g>
		</g>
		<g>
			<g>
				<g>
					<polygon fill="none" stroke="#B0BBC1" stroke-width="0.2" stroke-miterlimit="10" points="598,332.2 646.4,373.7 646.5,344.5 
											"/>
				</g>
				<g>
					<polygon fill="none" stroke="#B0BBC1" stroke-width="0.2" stroke-miterlimit="10" points="598,332.2 662.7,310.7 646.5,344.5 
											"/>
				</g>
				<g>
					<polygon fill="none" stroke="#B0BBC1" stroke-width="0.2" stroke-miterlimit="10" points="646.4,373.7 662.7,310.7 
						646.5,344.5 					"/>
				</g>
			</g>
		</g>
		<g>
			<g>
				<g>
					<polygon fill="none" stroke="#B0BBC1" stroke-width="0.2" stroke-miterlimit="10" points="564.4,232.9 511.6,250 544.1,275.9 
											"/>
				</g>
				<g>
					<polygon fill="none" stroke="#B0BBC1" stroke-width="0.2" stroke-miterlimit="10" points="564.4,232.9 550.9,290.8 
						544.1,275.9 					"/>
				</g>
				<g>
					<polygon fill="none" stroke="#B0BBC1" stroke-width="0.2" stroke-miterlimit="10" points="511.6,250 550.9,290.8 544.1,275.9 
											"/>
				</g>
			</g>
		</g>
		<g>
			<g>
				<g>
					<polygon fill="none" stroke="#B0BBC1" stroke-width="0.2" stroke-miterlimit="10" points="444.9,211.6 470.6,270.6 
						483.6,244.2 					"/>
				</g>
				<g>
					<polygon fill="none" stroke="#B0BBC1" stroke-width="0.2" stroke-miterlimit="10" points="444.9,211.6 513.2,220.6 
						483.6,244.2 					"/>
				</g>
				<g>
					<polygon fill="none" stroke="#B0BBC1" stroke-width="0.2" stroke-miterlimit="10" points="470.6,270.6 513.2,220.6 
						483.6,244.2 					"/>
				</g>
			</g>
		</g>
		<g>
			<g>
				<g>
					<polygon fill="none" stroke="#B0BBC1" stroke-width="0.2" stroke-miterlimit="10" points="782.6,331.2 683.7,294.9 
						700.3,340.2 					"/>
				</g>
				<g>
					<polygon fill="none" stroke="#B0BBC1" stroke-width="0.2" stroke-miterlimit="10" points="782.6,331.2 694.7,401.8 
						700.3,340.2 					"/>
				</g>
				<g>
					<polygon fill="none" stroke="#B0BBC1" stroke-width="0.2" stroke-miterlimit="10" points="683.7,294.9 694.7,401.8 
						700.3,340.2 					"/>
				</g>
			</g>
		</g>
		<g>
			<g>
				<g>
					<polygon fill="none" stroke="#B0BBC1" stroke-width="0.2" stroke-miterlimit="10" points="1422.8,241.7 1321.5,224.6 
						1352.6,294.9 					"/>
				</g>
				<g>
					<polygon fill="none" stroke="#B0BBC1" stroke-width="0.2" stroke-miterlimit="10" points="1422.8,241.7 1351.1,325.1 
						1352.6,294.9 					"/>
				</g>
				<g>
					<polygon fill="none" stroke="#B0BBC1" stroke-width="0.2" stroke-miterlimit="10" points="1321.5,224.6 1351.1,325.1 
						1352.6,294.9 					"/>
				</g>
			</g>
		</g>
	</g>
</g>
<g id="Layer_3">
	<g>
		<g>
			<g>
				<polygon fill="none" stroke="#B0BBC1" stroke-width="0.2" stroke-miterlimit="10" points="216.4,287.7 162.7,312.5 200.3,335.8 
									"/>
			</g>
			<g>
				<polygon fill="none" stroke="#B0BBC1" stroke-width="0.2" stroke-miterlimit="10" points="216.4,287.7 209.4,350.7 200.3,335.8 
									"/>
			</g>
			<g>
				<polygon fill="none" stroke="#B0BBC1" stroke-width="0.2" stroke-miterlimit="10" points="162.7,312.5 209.4,350.7 200.3,335.8 
									"/>
			</g>
		</g>
	</g>
	<g>
		<g>
			<g>
				<polygon fill="none" stroke="#B0BBC1" stroke-width="0.2" stroke-miterlimit="10" points="291.5,313 254.1,298.1 247.1,313.7 
									"/>
			</g>
			<g>
				<polygon fill="none" stroke="#B0BBC1" stroke-width="0.2" stroke-miterlimit="10" points="291.5,313 265,347.6 247.1,313.7 				
					"/>
			</g>
		</g>
	</g>
	<g>
		<g>
			<g>
				<polygon fill="none" stroke="#B0BBC1" stroke-width="0.2" stroke-miterlimit="10" points="371.8,82.2 385.9,128.3 405.8,123.1 
									"/>
			</g>
			<g>
				<polygon fill="none" stroke="#B0BBC1" stroke-width="0.2" stroke-miterlimit="10" points="371.8,82.2 424,81 405.8,123.1 				
					"/>
			</g>
		</g>
	</g>
	<g>
		<g>
			<g>
				<polygon fill="none" stroke="#B0BBC1" stroke-width="0.2" stroke-miterlimit="10" points="710.1,218.1 663.4,251.5 688.9,257.9 
									"/>
			</g>
			<g>
				<polygon fill="none" stroke="#B0BBC1" stroke-width="0.2" stroke-miterlimit="10" points="710.1,218.1 714.9,279.4 688.9,257.9 
									"/>
			</g>
			<g>
				<polygon fill="none" stroke="#B0BBC1" stroke-width="0.2" stroke-miterlimit="10" points="663.4,251.5 714.9,279.4 688.9,257.9 
									"/>
			</g>
		</g>
	</g>
	<g>
		<g>
			<g>
				<polygon fill="none" stroke="#B0BBC1" stroke-width="0.2" stroke-miterlimit="10" points="225,359.9 240.3,440.5 274.9,435.5 
									"/>
			</g>
			<g>
				<polygon fill="none" stroke="#B0BBC1" stroke-width="0.2" stroke-miterlimit="10" points="225,359.9 313.5,367.6 274.9,435.5 
									"/>
			</g>
		</g>
	</g>
	<g>
		<g>
			<g>
				<polygon fill="none" stroke="#B0BBC1" stroke-width="0.2" stroke-miterlimit="10" points="136,317.6 133.5,370.1 167.4,350 				
					"/>
			</g>
			<g>
				<polygon fill="none" stroke="#B0BBC1" stroke-width="0.2" stroke-miterlimit="10" points="136,317.6 182.8,348.9 167.4,350 				
					"/>
			</g>
			<g>
				<polygon fill="none" stroke="#B0BBC1" stroke-width="0.2" stroke-miterlimit="10" points="133.5,370.1 182.8,348.9 167.4,350 
									"/>
			</g>
		</g>
	</g>
	<g>
		<g>
			<g>
				<polygon fill="none" stroke="#B0BBC1" stroke-width="0.2" stroke-miterlimit="10" points="568.6,324.6 532.3,339.3 537.9,355 
									"/>
			</g>
			<g>
				<polygon fill="none" stroke="#B0BBC1" stroke-width="0.2" stroke-miterlimit="10" points="568.6,324.6 573.2,366.7 537.9,355 
									"/>
			</g>
		</g>
	</g>
	<g>
		<g>
			<g>
				<polygon fill="none" stroke="#B0BBC1" stroke-width="0.2" stroke-miterlimit="10" points="1081.6,390 1110.2,426.3 
					1129.9,410.7 				"/>
			</g>
			<g>
				<polygon fill="none" stroke="#B0BBC1" stroke-width="0.2" stroke-miterlimit="10" points="1081.6,390 1131.5,378.7 
					1129.9,410.7 				"/>
			</g>
		</g>
	</g>
	<g>
		<g>
			<g>
				<polygon fill="none" stroke="#B0BBC1" stroke-width="0.2" stroke-miterlimit="10" points="1314.5,261.7 1272.2,311.4 
					1320.7,317.3 				"/>
			</g>
			<g>
				<polygon fill="none" stroke="#B0BBC1" stroke-width="0.2" stroke-miterlimit="10" points="1314.5,261.7 1336.7,327.9 
					1320.7,317.3 				"/>
			</g>
			<g>
				<polygon fill="none" stroke="#B0BBC1" stroke-width="0.2" stroke-miterlimit="10" points="1272.2,311.4 1336.7,327.9 
					1320.7,317.3 				"/>
			</g>
		</g>
	</g>
	<g>
		<g>
			<g>
				<polygon fill="none" stroke="#B0BBC1" stroke-width="0.2" stroke-miterlimit="10" points="1046.3,300 945.5,319.4 999.1,374.4 
									"/>
			</g>
			<g>
				<polygon fill="none" stroke="#B0BBC1" stroke-width="0.2" stroke-miterlimit="10" points="1046.3,300 1008.4,403.2 999.1,374.4 
									"/>
			</g>
			<g>
				<polygon fill="none" stroke="#B0BBC1" stroke-width="0.2" stroke-miterlimit="10" points="945.5,319.4 1008.4,403.2 
					999.1,374.4 				"/>
			</g>
		</g>
	</g>
	<g>
		<g>
			<g>
				<polygon fill="none" stroke="#B0BBC1" stroke-width="0.2" stroke-miterlimit="10" points="1252.2,375.4 1198.7,352.2 
					1186.1,381.3 				"/>
			</g>
			<g>
				<polygon fill="none" stroke="#B0BBC1" stroke-width="0.2" stroke-miterlimit="10" points="1252.2,375.4 1203.4,417.8 
					1186.1,381.3 				"/>
			</g>
		</g>
	</g>
	<g>
		<g>
			<g>
				<polygon fill="none" stroke="#B0BBC1" stroke-width="0.2" stroke-miterlimit="10" points="809.2,345.3 756.9,398.9 791.1,401.3 
									"/>
			</g>
			<g>
				<polygon fill="none" stroke="#B0BBC1" stroke-width="0.2" stroke-miterlimit="10" points="809.2,345.3 829.5,422.9 791.1,401.3 
									"/>
			</g>
			<g>
				<polygon fill="none" stroke="#B0BBC1" stroke-width="0.2" stroke-miterlimit="10" points="756.9,398.9 829.5,422.9 791.1,401.3 
									"/>
			</g>
		</g>
	</g>
	<g>
		<g>
			<g>
				<polygon fill="none" stroke="#B0BBC1" stroke-width="0.2" stroke-miterlimit="10" points="1251,417 1251.1,478.7 1289.6,453.2 
									"/>
			</g>
			<g>
				<polygon fill="none" stroke="#B0BBC1" stroke-width="0.2" stroke-miterlimit="10" points="1251,417 1307.7,451 1289.6,453.2 
									"/>
			</g>
			<g>
				<polygon fill="none" stroke="#B0BBC1" stroke-width="0.2" stroke-miterlimit="10" points="1251.1,478.7 1307.7,451 
					1289.6,453.2 				"/>
			</g>
		</g>
	</g>
	<g>
		<g>
			<g>
				<polygon fill="none" stroke="#B0BBC1" stroke-width="0.2" stroke-miterlimit="10" points="156.4,122 203.9,167.9 226.6,131.5 
									"/>
			</g>
			<g>
				<polygon fill="none" stroke="#B0BBC1" stroke-width="0.2" stroke-miterlimit="10" points="156.4,122 224.8,103.8 226.6,131.5 
									"/>
			</g>
		</g>
	</g>
</g>
</svg>
