<?xml version="1.0" encoding="utf-8"?>
<!-- Generator: Adobe Illustrator 22.0.1, SVG Export Plug-In . SVG Version: 6.00 Build 0)  -->
<svg version="1.1" id="Layer_1" xmlns="http://www.w3.org/2000/svg" xmlns:xlink="http://www.w3.org/1999/xlink" x="0px" y="0px"
	 viewBox="0 0 1440 1200" enable-background="new 0 0 1440 1200" xml:space="preserve">
<g>
	<g id="Collaboration_Icon">
		<g>
			<g>
				<line fill="none" stroke="#DCE1E5" stroke-linecap="round" stroke-miterlimit="10" x1="254.5" y1="656" x2="254.5" y2="644.5"/>
				<line fill="none" stroke="#DCE1E5" stroke-linecap="round" stroke-miterlimit="10" x1="254.5" y1="695" x2="254.5" y2="684.1"/>
			</g>
			<g>
				<line fill="none" stroke="#DCE1E5" stroke-linecap="round" stroke-miterlimit="10" x1="268.5" y1="670" x2="279.4" y2="670"/>
				<line fill="none" stroke="#DCE1E5" stroke-linecap="round" stroke-miterlimit="10" x1="229.5" y1="670" x2="240.4" y2="670"/>
			</g>
			<g>
				
					<line fill="none" stroke="#DCE1E5" stroke-linecap="round" stroke-miterlimit="10" x1="264.4" y1="660.1" x2="272.2" y2="652.3"/>
				
					<line fill="none" stroke="#DCE1E5" stroke-linecap="round" stroke-miterlimit="10" x1="236.8" y1="687.7" x2="244.6" y2="679.9"/>
			</g>
			<g>
				
					<line fill="none" stroke="#DCE1E5" stroke-linecap="round" stroke-miterlimit="10" x1="264.4" y1="679.9" x2="272.2" y2="687.7"/>
				
					<line fill="none" stroke="#DCE1E5" stroke-linecap="round" stroke-miterlimit="10" x1="236.8" y1="652.3" x2="244.6" y2="660.1"/>
			</g>
		</g>
		
			<circle opacity="0.1" fill="none" stroke="#E84B54" stroke-linecap="round" stroke-miterlimit="10" enable-background="new    " cx="726.7" cy="612.8" r="14.1"/>
		<circle fill="#DCE1E5" cx="343" cy="868.4" r="10.4"/>
		<g>
			<g>
				
					<line fill="none" stroke="#DCE1E5" stroke-linecap="round" stroke-miterlimit="10" x1="517.4" y1="1121.9" x2="523.1" y2="1116.2"/>
				
					<line fill="none" stroke="#DCE1E5" stroke-linecap="round" stroke-miterlimit="10" x1="539.2" y1="1100.1" x2="545" y2="1093.8"/>
			</g>
			<g>
				
					<line fill="none" stroke="#DCE1E5" stroke-linecap="round" stroke-miterlimit="10" x1="517.4" y1="1093.8" x2="523.1" y2="1100.1"/>
				
					<line fill="none" stroke="#DCE1E5" stroke-linecap="round" stroke-miterlimit="10" x1="539.2" y1="1116.2" x2="545" y2="1121.9"/>
			</g>
		</g>
		
			<circle opacity="0.1" fill="none" stroke="#E84B54" stroke-linecap="round" stroke-miterlimit="10" enable-background="new    " cx="638.2" cy="919.9" r="14.1"/>
		<g>
			<g>
				<line fill="none" stroke="#DCE1E5" stroke-linecap="round" stroke-miterlimit="10" x1="79" y1="937.6" x2="84.7" y2="931.9"/>
				
					<line fill="none" stroke="#DCE1E5" stroke-linecap="round" stroke-miterlimit="10" x1="100.9" y1="915.2" x2="106.6" y2="909.5"/>
			</g>
			<g>
				<line fill="none" stroke="#DCE1E5" stroke-linecap="round" stroke-miterlimit="10" x1="79" y1="909.5" x2="84.7" y2="915.2"/>
				
					<line fill="none" stroke="#DCE1E5" stroke-linecap="round" stroke-miterlimit="10" x1="100.9" y1="931.9" x2="106.6" y2="937.6"/>
			</g>
		</g>
		<circle fill="#DCE1E5" cx="804.8" cy="981.9" r="10.4"/>
		
			<circle opacity="0.1" fill="none" stroke="#E84B54" stroke-linecap="round" stroke-miterlimit="10" enable-background="new    " cx="113.9" cy="656" r="14.1"/>
		<path opacity="0.1" fill="#E84B54" enable-background="new    " d="M390.3,501.9l19.8,27.1c0.5,0.5,1,0.5,1,0l13.5-30.7
			c0-0.5,0-1-0.5-1l-33.3,3.6C390.3,500.8,390.3,501.4,390.3,501.9z"/>
		<path opacity="0.1" fill="#E84B54" enable-background="new    " d="M856.3,715.3l10.9,31.8c0,0.5,1,0.5,1,0l21.9-25.5
			c0.5-0.5,0-1-0.5-1l-32.8-6.2C856.8,714.3,856.3,714.8,856.3,715.3z"/>
		<path opacity="0.1" fill="#E84B54" enable-background="new    " d="M354.4,1082.9l10.9,31.8c0,0.5,1,0.5,1,0l21.9-25.5
			c0.5-0.5,0-1-0.5-1l-32.8-6.2C354.4,1081.8,353.9,1082.4,354.4,1082.9z"/>
	</g>
	<g>
		<g>
			
				<line fill="none" stroke="#DCE1E5" stroke-linecap="round" stroke-miterlimit="10" x1="459.9" y1="574.6" x2="459.9" y2="556.3"/>
			
				<line fill="none" stroke="#DCE1E5" stroke-linecap="round" stroke-miterlimit="10" x1="459.9" y1="637.2" x2="459.9" y2="619.6"/>
		</g>
		<g>
			
				<line fill="none" stroke="#DCE1E5" stroke-linecap="round" stroke-miterlimit="10" x1="482.4" y1="597.1" x2="499.9" y2="597.1"/>
			
				<line fill="none" stroke="#DCE1E5" stroke-linecap="round" stroke-miterlimit="10" x1="419.9" y1="597.1" x2="437.4" y2="597.1"/>
		</g>
		<g>
			
				<line fill="none" stroke="#DCE1E5" stroke-linecap="round" stroke-miterlimit="10" x1="475.7" y1="581.3" x2="488.2" y2="568.8"/>
			<line fill="none" stroke="#DCE1E5" stroke-linecap="round" stroke-miterlimit="10" x1="431.5" y1="625.5" x2="444.1" y2="613"/>
		</g>
		<g>
			<line fill="none" stroke="#DCE1E5" stroke-linecap="round" stroke-miterlimit="10" x1="475.7" y1="613" x2="488.2" y2="625.5"/>
			
				<line fill="none" stroke="#DCE1E5" stroke-linecap="round" stroke-miterlimit="10" x1="431.5" y1="568.8" x2="444.1" y2="581.3"/>
		</g>
	</g>
	
		<ellipse transform="matrix(0.9239 -0.3827 0.3827 0.9239 -176.2805 109.7344)" opacity="0.1" fill="none" stroke="#E84B54" stroke-linecap="round" stroke-miterlimit="10" enable-background="new    " cx="187.7" cy="498" rx="22.5" ry="22.5"/>
	<g>
		<g>
			<line fill="none" stroke="#DCE1E5" stroke-linecap="round" stroke-miterlimit="10" x1="807.2" y1="574.1" x2="807.2" y2="565"/>
			
				<line fill="none" stroke="#DCE1E5" stroke-linecap="round" stroke-miterlimit="10" x1="807.2" y1="605.4" x2="807.2" y2="596.7"/>
		</g>
		<g>
			
				<line fill="none" stroke="#DCE1E5" stroke-linecap="round" stroke-miterlimit="10" x1="818.4" y1="585.4" x2="827.2" y2="585.4"/>
			
				<line fill="none" stroke="#DCE1E5" stroke-linecap="round" stroke-miterlimit="10" x1="787.1" y1="585.4" x2="795.9" y2="585.4"/>
		</g>
		<g>
			
				<line fill="none" stroke="#DCE1E5" stroke-linecap="round" stroke-miterlimit="10" x1="815.1" y1="577.5" x2="821.3" y2="571.2"/>
			<line fill="none" stroke="#DCE1E5" stroke-linecap="round" stroke-miterlimit="10" x1="793" y1="599.6" x2="799.2" y2="593.3"/>
		</g>
		<g>
			
				<line fill="none" stroke="#DCE1E5" stroke-linecap="round" stroke-miterlimit="10" x1="815.1" y1="593.3" x2="821.3" y2="599.6"/>
			<line fill="none" stroke="#DCE1E5" stroke-linecap="round" stroke-miterlimit="10" x1="793" y1="571.2" x2="799.2" y2="577.5"/>
		</g>
	</g>
</g>
<g>
	<g id="Collaboration_Icon_1_">
		<g>
			<g>
				
					<line fill="none" stroke="#DCE1E5" stroke-linecap="round" stroke-miterlimit="10" x1="1233.2" y1="445.2" x2="1233.2" y2="454.2"/>
				
					<line fill="none" stroke="#DCE1E5" stroke-linecap="round" stroke-miterlimit="10" x1="1233.2" y1="414.7" x2="1233.2" y2="423.2"/>
			</g>
			<g>
				
					<line fill="none" stroke="#DCE1E5" stroke-linecap="round" stroke-miterlimit="10" x1="1222.2" y1="434.2" x2="1213.7" y2="434.2"/>
				
					<line fill="none" stroke="#DCE1E5" stroke-linecap="round" stroke-miterlimit="10" x1="1252.7" y1="434.2" x2="1244.2" y2="434.2"/>
			</g>
			<g>
				
					<line fill="none" stroke="#DCE1E5" stroke-linecap="round" stroke-miterlimit="10" x1="1225.4" y1="442" x2="1219.3" y2="448.1"/>
				
					<line fill="none" stroke="#DCE1E5" stroke-linecap="round" stroke-miterlimit="10" x1="1247" y1="420.4" x2="1240.9" y2="426.5"/>
			</g>
			<g>
				
					<line fill="none" stroke="#DCE1E5" stroke-linecap="round" stroke-miterlimit="10" x1="1225.4" y1="426.5" x2="1219.3" y2="420.4"/>
				<line fill="none" stroke="#DCE1E5" stroke-linecap="round" stroke-miterlimit="10" x1="1247" y1="448.1" x2="1240.9" y2="442"/>
			</g>
		</g>
		
			<circle opacity="0.1" fill="none" stroke="#E84B54" stroke-linecap="round" stroke-miterlimit="10" enable-background="new    " cx="864.2" cy="479" r="11"/>
		<circle fill="#DCE1E5" cx="1164" cy="279.3" r="8.1"/>
		<g>
			<g>
				
					<line fill="none" stroke="#DCE1E5" stroke-linecap="round" stroke-miterlimit="10" x1="1027.8" y1="81.2" x2="1023.3" y2="85.6"/>
				
					<line fill="none" stroke="#DCE1E5" stroke-linecap="round" stroke-miterlimit="10" x1="1010.7" y1="98.2" x2="1006.2" y2="103.1"/>
			</g>
			<g>
				
					<line fill="none" stroke="#DCE1E5" stroke-linecap="round" stroke-miterlimit="10" x1="1027.8" y1="103.1" x2="1023.3" y2="98.2"/>
				
					<line fill="none" stroke="#DCE1E5" stroke-linecap="round" stroke-miterlimit="10" x1="1010.7" y1="85.6" x2="1006.2" y2="81.2"/>
			</g>
		</g>
		
			<circle opacity="0.1" fill="none" stroke="#E84B54" stroke-linecap="round" stroke-miterlimit="10" enable-background="new    " cx="933.4" cy="239" r="11"/>
		<g>
			<g>
				
					<line fill="none" stroke="#DCE1E5" stroke-linecap="round" stroke-miterlimit="10" x1="1370.3" y1="225.2" x2="1365.8" y2="229.6"/>
				
					<line fill="none" stroke="#DCE1E5" stroke-linecap="round" stroke-miterlimit="10" x1="1353.2" y1="242.6" x2="1348.7" y2="247.1"/>
			</g>
			<g>
				
					<line fill="none" stroke="#DCE1E5" stroke-linecap="round" stroke-miterlimit="10" x1="1370.3" y1="247.1" x2="1365.8" y2="242.6"/>
				
					<line fill="none" stroke="#DCE1E5" stroke-linecap="round" stroke-miterlimit="10" x1="1353.2" y1="229.6" x2="1348.7" y2="225.2"/>
			</g>
		</g>
		<circle fill="#DCE1E5" cx="803.2" cy="190.6" r="8.1"/>
		
			<circle opacity="0.1" fill="none" stroke="#E84B54" stroke-linecap="round" stroke-miterlimit="10" enable-background="new    " cx="1343" cy="445.2" r="11"/>
		<path fill="#DCE1E5" d="M898.4,321.6l-6.9,18.3c0,0.4,0,0.8,0.4,0.4l19.5-3.3c0.4,0,0.4-0.4,0.4-0.8l-12.6-15.5
			C899.2,321.6,898.8,321.6,898.4,321.6z"/>
		<path opacity="0.1" fill="#E84B54" enable-background="new    " d="M763,398.8l-8.5-24.8c0-0.4-0.8-0.4-0.8,0L736.5,394
			c-0.4,0.4,0,0.8,0.4,0.8l25.6,4.9C762.5,399.7,763,399.2,763,398.8z"/>
		<circle fill="#DCE1E5" cx="962.7" cy="557.9" r="8.1"/>
		<path opacity="0.1" fill="#E84B54" enable-background="new    " d="M1155.1,111.7l-8.5-24.8c0-0.4-0.8-0.4-0.8,0l-17.1,19.9
			c-0.4,0.4,0,0.8,0.4,0.8l25.6,4.9C1155.1,112.5,1155.5,112.1,1155.1,111.7z"/>
	</g>
	<g>
		<g>
			
				<line fill="none" stroke="#DCE1E5" stroke-linecap="round" stroke-miterlimit="10" x1="1072.7" y1="508.8" x2="1072.7" y2="523.1"/>
			
				<line fill="none" stroke="#DCE1E5" stroke-linecap="round" stroke-miterlimit="10" x1="1072.7" y1="459.9" x2="1072.7" y2="473.6"/>
		</g>
		<g>
			
				<line fill="none" stroke="#DCE1E5" stroke-linecap="round" stroke-miterlimit="10" x1="1055.1" y1="491.2" x2="1041.4" y2="491.2"/>
			
				<line fill="none" stroke="#DCE1E5" stroke-linecap="round" stroke-miterlimit="10" x1="1103.9" y1="491.2" x2="1090.3" y2="491.2"/>
		</g>
		<g>
			
				<line fill="none" stroke="#DCE1E5" stroke-linecap="round" stroke-miterlimit="10" x1="1060.3" y1="503.6" x2="1050.5" y2="513.3"/>
			<line fill="none" stroke="#DCE1E5" stroke-linecap="round" stroke-miterlimit="10" x1="1094.8" y1="469" x2="1085" y2="478.8"/>
		</g>
		<g>
			
				<line fill="none" stroke="#DCE1E5" stroke-linecap="round" stroke-miterlimit="10" x1="1060.3" y1="478.8" x2="1050.5" y2="469"/>
			
				<line fill="none" stroke="#DCE1E5" stroke-linecap="round" stroke-miterlimit="10" x1="1094.8" y1="513.3" x2="1085" y2="503.6"/>
		</g>
	</g>
	<circle fill="#DCE1E5" cx="1207.8" cy="490.8" r="13"/>
	<path opacity="0.1" fill="#E84B54" enable-background="new    " d="M1150.9,627.1l-13.7-39.7c0-0.7-1.3-0.7-1.3,0l-27.4,31.9
		c-0.7,0.7,0,1.3,0.7,1.3l41,7.8C1150.9,628.4,1151.5,627.8,1150.9,627.1z"/>
	
		<ellipse transform="matrix(0.9239 -0.3827 0.3827 0.9239 -119.7769 535.1664)" opacity="0.1" fill="none" stroke="#E84B54" stroke-linecap="round" stroke-miterlimit="10" enable-background="new    " cx="1285.3" cy="568.7" rx="17.6" ry="17.6"/>
</g>
<g>
	<g>
		<line fill="none" stroke="#DCE1E5" stroke-linecap="round" stroke-miterlimit="10" x1="1127" y1="856.7" x2="1127" y2="838.4"/>
		<line fill="none" stroke="#DCE1E5" stroke-linecap="round" stroke-miterlimit="10" x1="1127" y1="919.2" x2="1127" y2="901.7"/>
	</g>
	<g>
		<line fill="none" stroke="#DCE1E5" stroke-linecap="round" stroke-miterlimit="10" x1="1149.5" y1="879.2" x2="1167" y2="879.2"/>
		<line fill="none" stroke="#DCE1E5" stroke-linecap="round" stroke-miterlimit="10" x1="1087" y1="879.2" x2="1104.5" y2="879.2"/>
	</g>
	<g>
		
			<line fill="none" stroke="#DCE1E5" stroke-linecap="round" stroke-miterlimit="10" x1="1142.9" y1="863.4" x2="1155.4" y2="850.9"/>
		
			<line fill="none" stroke="#DCE1E5" stroke-linecap="round" stroke-miterlimit="10" x1="1098.7" y1="907.6" x2="1111.2" y2="895.1"/>
	</g>
	<g>
		
			<line fill="none" stroke="#DCE1E5" stroke-linecap="round" stroke-miterlimit="10" x1="1142.9" y1="895.1" x2="1155.4" y2="907.6"/>
		
			<line fill="none" stroke="#DCE1E5" stroke-linecap="round" stroke-miterlimit="10" x1="1098.7" y1="850.9" x2="1111.2" y2="863.4"/>
	</g>
</g>
<g>
	<g>
		
			<line fill="none" stroke="#DCE1E5" stroke-linecap="round" stroke-miterlimit="10" x1="1205.6" y1="1070.9" x2="1201.1" y2="1075.3"/>
		
			<line fill="none" stroke="#DCE1E5" stroke-linecap="round" stroke-miterlimit="10" x1="1188.5" y1="1087.9" x2="1184" y2="1092.8"/>
	</g>
	<g>
		
			<line fill="none" stroke="#DCE1E5" stroke-linecap="round" stroke-miterlimit="10" x1="1205.6" y1="1092.8" x2="1201.1" y2="1087.9"/>
		
			<line fill="none" stroke="#DCE1E5" stroke-linecap="round" stroke-miterlimit="10" x1="1188.5" y1="1075.3" x2="1184" y2="1070.9"/>
	</g>
</g>
<ellipse transform="matrix(0.9239 -0.3827 0.3827 0.9239 -293.6176 566.144)" opacity="0.1" fill="none" stroke="#E84B54" stroke-linecap="round" stroke-miterlimit="10" enable-background="new    " cx="1276.3" cy="1021.1" rx="48.6" ry="48.6"/>
<path fill="#DCE1E5" d="M1101.7,993.1l-6.9,18.3c0,0.4,0,0.8,0.4,0.4l19.5-3.3c0.4,0,0.4-0.4,0.4-0.8l-12.6-15.5
	C1102.5,993.1,1102.1,993.1,1101.7,993.1z"/>
<g>
	<g>
		<line fill="none" stroke="#DCE1E5" stroke-linecap="round" stroke-miterlimit="10" x1="253.6" y1="89.8" x2="253.6" y2="71.5"/>
		<line fill="none" stroke="#DCE1E5" stroke-linecap="round" stroke-miterlimit="10" x1="253.6" y1="152.4" x2="253.6" y2="134.9"/>
	</g>
	<g>
		<line fill="none" stroke="#DCE1E5" stroke-linecap="round" stroke-miterlimit="10" x1="276.2" y1="112.3" x2="293.7" y2="112.3"/>
		<line fill="none" stroke="#DCE1E5" stroke-linecap="round" stroke-miterlimit="10" x1="213.6" y1="112.3" x2="231.1" y2="112.3"/>
	</g>
	<g>
		<line fill="none" stroke="#DCE1E5" stroke-linecap="round" stroke-miterlimit="10" x1="269.5" y1="96.5" x2="282" y2="84"/>
		<line fill="none" stroke="#DCE1E5" stroke-linecap="round" stroke-miterlimit="10" x1="225.3" y1="140.7" x2="237.8" y2="128.2"/>
	</g>
	<g>
		<line fill="none" stroke="#DCE1E5" stroke-linecap="round" stroke-miterlimit="10" x1="269.5" y1="128.2" x2="282" y2="140.7"/>
		<line fill="none" stroke="#DCE1E5" stroke-linecap="round" stroke-miterlimit="10" x1="225.3" y1="84" x2="237.8" y2="96.5"/>
	</g>
</g>
<g>
	<g>
		<line fill="none" stroke="#DCE1E5" stroke-linecap="round" stroke-miterlimit="10" x1="332.2" y1="304" x2="327.7" y2="308.5"/>
		<line fill="none" stroke="#DCE1E5" stroke-linecap="round" stroke-miterlimit="10" x1="315.1" y1="321.1" x2="310.6" y2="325.9"/>
	</g>
	<g>
		<line fill="none" stroke="#DCE1E5" stroke-linecap="round" stroke-miterlimit="10" x1="332.2" y1="325.9" x2="327.7" y2="321.1"/>
		<line fill="none" stroke="#DCE1E5" stroke-linecap="round" stroke-miterlimit="10" x1="315.1" y1="308.5" x2="310.6" y2="304"/>
	</g>
</g>
<ellipse transform="matrix(0.9239 -0.3827 0.3827 0.9239 -11.027 213.4351)" opacity="0.1" fill="none" stroke="#E84B54" stroke-linecap="round" stroke-miterlimit="10" enable-background="new    " cx="531" cy="134.4" rx="48.6" ry="48.6"/>
<path fill="#DCE1E5" d="M228.3,226.2l-6.9,18.3c0,0.4,0,0.8,0.4,0.4l19.5-3.3c0.4,0,0.4-0.4,0.4-0.8l-12.6-15.5
	C229.1,226.2,228.7,226.2,228.3,226.2z"/>
</svg>
