<?xml version="1.0" encoding="utf-8"?>
<!-- Generator: Adobe Illustrator 22.0.1, SVG Export Plug-In . SVG Version: 6.00 Build 0)  -->
<svg version="1.1" id="Layer_1" xmlns="http://www.w3.org/2000/svg" xmlns:xlink="http://www.w3.org/1999/xlink" x="0px" y="0px"
	 viewBox="0 0 1440 1620" enable-background="new 0 0 1440 1620" xml:space="preserve">
<g>
	<g>
		<g>
			<g>
				<g>
					<path fill="#DCE1E5" d="M775.3,249.7l-0.4-0.1l-55.5-18.6l0.1-0.2l27.1-43.5l0.2,0.3L775.3,249.7z M720,230.7l54.6,18.3l-28-61
						L720,230.7z"/>
				</g>
			</g>
			<g>
				<g>
					<path fill="#DCE1E5" d="M776.8,249.7l-74.7-8.3l17.6-10.8l0.1,0L776.8,249.7z M703.3,241.1l69.8,7.8L719.7,231L703.3,241.1z"/>
				</g>
			</g>
			<g>
				<g>
					<path fill="#DCE1E5" d="M701.8,242.1l44.6-54.6l0.3,0.2l-26.9,43.2l0,0L701.8,242.1z M744.8,190.1l-41.2,50.3l16-9.8
						L744.8,190.1z"/>
				</g>
			</g>
		</g>
	</g>
	<g>
		<g>
			<g>
				<g>
					<path fill="#DCE1E5" d="M745.8,336.5l-0.9-52.3l18.4,8.3l-0.1,0.2L745.8,336.5z M745.3,284.8l0.8,49.7l16.7-41.8L745.3,284.8z"
						/>
				</g>
			</g>
			<g>
				<g>
					<path fill="#DCE1E5" d="M746.2,335.9L705.9,305l0.3-0.1l39.1-20.7l0,0.3L746.2,335.9z M706.6,305.1l39.1,30l-0.8-50.2
						L706.6,305.1z"/>
				</g>
			</g>
		</g>
	</g>
	<g>
		<g>
			<g>
				<g>
					<path fill="#DCE1E5" d="M496.8,805l-6.5-99.5l0.2,0l182.6-11.5L496.8,805z M490.7,705.8l6.5,98.5l174.4-109.8L490.7,705.8z"/>
				</g>
			</g>
			<g>
				<g>
					<path fill="#DCE1E5" d="M596.9,881.7l-0.2-0.2l-100.1-76.9l0.2-0.2l175.8-110.8l-0.2,0.6L596.9,881.7z M497.3,804.6l99.4,76.4
						l75.1-186.3L497.3,804.6z"/>
				</g>
			</g>
		</g>
	</g>
	<g>
		<g>
			<g>
				<g>
					<path fill="#DCE1E5" d="M858.3,200.4l-42.6-78.1l0.2-0.1l131-38.9l-0.4,0.5L858.3,200.4z M816.3,122.6l42.1,77.1l87.5-115.6
						L816.3,122.6z"/>
				</g>
			</g>
			<g>
				<g>
					<path fill="#DCE1E5" d="M909.9,225L858,200.1l0.1-0.2l88.7-117.1l-0.3,1L909.9,225z M858.6,200l51,24.4l36.3-139.7L858.6,200z"
						/>
				</g>
			</g>
		</g>
	</g>
	<g>
		<g>
			<g>
				<g>
					<path fill="#DCE1E5" d="M963.8,467.1l-0.1-0.3l-6-23l0.2-0.1l53.8-16.5L963.8,467.1z M958.2,444l5.8,22.3l45.9-38.2L958.2,444z
						"/>
				</g>
			</g>
			<g>
				<g>
					<path fill="#DCE1E5" d="M1012.4,487.8l-48.9-21.1l0.2-0.2l47.2-39.3L1012.4,487.8z M964.3,466.6l47.7,20.6l-1.4-59.1
						L964.3,466.6z"/>
				</g>
			</g>
		</g>
	</g>
	<g>
		<g>
			<g>
				<g>
					<path fill="#DCE1E5" d="M703.7,1617.7l-0.2-0.4l-54.3-91.6l0.2-0.1l88.9-27.7l-0.1,0.4L703.7,1617.7z M649.8,1525.9l53.8,90.8
						l34.1-118.2L649.8,1525.9z"/>
				</g>
			</g>
			<g>
				<g>
					<path fill="#DCE1E5" d="M704.8,1618.7l-1.3-1.4l-90.5-97.7l36.6,5.9l0,0.1L704.8,1618.7z M614.1,1520.2l88.5,95.4l-53.2-89.7
						L614.1,1520.2z"/>
				</g>
			</g>
			<g>
				<g>
					<path fill="#DCE1E5" d="M649.5,1525.9L649.5,1525.9l-37.2-6l1.2-0.2l124.5-21.8l0.1,0.4L649.5,1525.9z M614.7,1519.9l34.8,5.6
						l85.5-26.7L614.7,1519.9z"/>
				</g>
			</g>
		</g>
	</g>
	<g>
		<g>
			<g>
				<g>
					<path fill="#DCE1E5" d="M855.5,816.6L809,791.7l0-0.2l7.5-29.7L855.5,816.6z M809.4,791.5l44.8,23.9l-37.5-52.6L809.4,791.5z"
						/>
				</g>
			</g>
			<g>
				<g>
					<path fill="#DCE1E5" d="M784.1,821.7l25.1-30.3l0.1,0.1l46.3,24.7L784.1,821.7z M809.3,791.9L785,821.2l69.2-5.4L809.3,791.9z"
						/>
				</g>
			</g>
			<g>
				<g>
					<path fill="#DCE1E5" d="M784.7,821.6l-0.3-0.2l32.8-60.5l-7.8,30.9L784.7,821.6z M816,763.9l-30.3,55.9l23.3-28.2L816,763.9z"
						/>
				</g>
			</g>
		</g>
	</g>
	<g>
		<g>
			<g>
				<g>
					<path fill="#DCE1E5" d="M464.1,964.7l-44.2-39.3l0.1-0.1l87.6-107.3l-0.3,1L464.1,964.7z M420.4,925.4l43.5,38.6l42.7-144.3
						L420.4,925.4z"/>
				</g>
			</g>
			<g>
				<g>
					<path fill="#DCE1E5" d="M463.7,964.6l0.1-0.3L507,818.4l0.2,0.3L593,940.8l-0.3,0.1L463.7,964.6z M507.1,819.3l-42.9,144.8
						l128.1-23.6L507.1,819.3z"/>
				</g>
			</g>
		</g>
	</g>
	<g>
		<g>
			<g>
				<g>
					<path fill="#DCE1E5" d="M605.2,316.8l-5.9-40.3l0.2,0l93.5-17.7L605.2,316.8z M599.8,276.8l5.7,39.3l85.7-56.5L599.8,276.8z"/>
				</g>
			</g>
			<g>
				<g>
					<path fill="#DCE1E5" d="M683.4,361.1l-0.3-0.2L605,316.5l0.3-0.2l87.1-57.5l0,0.4L683.4,361.1z M605.8,316.4l77.3,44l8.8-100.9
						L605.8,316.4z"/>
				</g>
			</g>
		</g>
	</g>
	<g>
		<g>
			<g>
				<g>
					<path fill="#DCE1E5" d="M574,1055.9l-0.1-0.1L514.7,984l0.4,0l203.3,2.9l-0.8,0.4L574,1055.9z M515.6,984.4l58.6,71.1
						l142.6-68.2L515.6,984.4z"/>
				</g>
			</g>
			<g>
				<g>
					<path fill="#DCE1E5" d="M603,1171.6l-0.1-0.5l-29-115.6l0.1-0.1l144.1-68.9L603,1171.6z M574.3,1055.8l28.8,114.8l113.9-183
						L574.3,1055.8z"/>
				</g>
			</g>
			<g>
				<g>
					<path fill="#DCE1E5" d="M602.9,1171.2l-88.6-188.4l60,72.8l29,115.4L602.9,1171.2z M516,985.5l86.4,183.6l-28.5-113.4
						L516,985.5z"/>
				</g>
			</g>
		</g>
	</g>
	<g>
		<g>
			<g>
				<g>
					<path fill="#DCE1E5" d="M1082.1,374.2l-122.8-16.8l35.1-47.9l0.2,0.1L1082.1,374.2z M960,357l120.6,16.5L994.4,310L960,357z"/>
				</g>
			</g>
			<g>
				<g>
					<path fill="#DCE1E5" d="M975.6,430.4l-0.1-0.3L959.4,357l0.3,0l122.3,16.8l-0.5,0.3L975.6,430.4z M959.9,357.4l16,72.4
						l104.8-55.8L959.9,357.4z"/>
				</g>
			</g>
		</g>
	</g>
	<g>
		<g>
			<g>
				<g>
					<path fill="#DCE1E5" d="M703.4,193.4l-0.1-0.2L680,154l61.1,2.9L703.4,193.4z M680.7,154.4l22.8,38.3l36.7-35.5L680.7,154.4z"
						/>
				</g>
			</g>
			<g>
				<g>
					<path fill="#DCE1E5" d="M704.6,211.4l-1.3-18.4l0.1-0.1l38.6-37.3L704.6,211.4z M703.6,193.1l1.2,17l34.6-51.7L703.6,193.1z"/>
				</g>
			</g>
			<g>
				<g>
					<path fill="#DCE1E5" d="M705,211.9l-24.8-57.7l0.4-0.2l23.1,38.9L705,211.9z M681.8,157l22.7,52.6l-1.2-16.5L681.8,157z"/>
				</g>
			</g>
		</g>
	</g>
	<g>
		<g>
			<g>
				<g>
					<path fill="#DCE1E5" d="M503,1306.9l-0.3-0.3l-75.9-67l0.2-0.1l72.3-51L503,1306.9z M427.4,1239.6l75.1,66.4l-3.7-116.8
						L427.4,1239.6z"/>
				</g>
			</g>
			<g>
				<g>
					<path fill="#DCE1E5" d="M504.3,1307.5l-112.1-62.8l34.9-5.3l0.1,0.1L504.3,1307.5z M393.5,1244.9l107.8,60.4l-74.2-65.5
						L393.5,1244.9z"/>
				</g>
			</g>
			<g>
				<g>
					<path fill="#DCE1E5" d="M391.7,1245.2l1-0.6l106.2-56.1l0.2,0.3l-72,50.8l0,0L391.7,1245.2z M496.4,1190.4L394,1244.4l33-5.1
						L496.4,1190.4z"/>
				</g>
			</g>
		</g>
	</g>
	<g>
		<g>
			<g>
				<g>
					<path fill="#DCE1E5" d="M884.1,569.7l-0.1-0.2l-24.6-78.8l0.4,0.1l106,30.5L884.1,569.7z M860,491.3l24.3,77.8l80.4-47.7
						L860,491.3z"/>
				</g>
			</g>
			<g>
				<g>
					<path fill="#DCE1E5" d="M878.8,601.9l5.3-32.6l0.1,0l82.6-49L878.8,601.9z M884.4,569.6l-5,31.2l84.3-78.3L884.4,569.6z"/>
				</g>
			</g>
			<g>
				<g>
					<path fill="#DCE1E5" d="M879.1,602.5L859.5,491l0.4-0.1l24.5,78.5l0,0L879.1,602.5z M860.4,494L879,600.1l5-30.7L860.4,494z"/>
				</g>
			</g>
		</g>
	</g>
	<g>
		<g>
			<g>
				<g>
					<path fill="#DCE1E5" d="M381.9,1087.1l0-0.2l-23.9-91.5l0.4,0.2l186.2,89.3l-0.9,0L381.9,1087.1z M358.5,996.2l23.7,90.5
						l160.5-2.1L358.5,996.2z"/>
				</g>
			</g>
			<g>
				<g>
					<path fill="#DCE1E5" d="M359.3,1206.1l0.1-0.5l22.5-118.9l0.2,0l162.2-2.1L359.3,1206.1z M382.2,1087.1l-22.3,118.1
						l183.1-120.2L382.2,1087.1z"/>
				</g>
			</g>
			<g>
				<g>
					<path fill="#DCE1E5" d="M359.8,1205.7l-0.4,0L358,994.3l24.3,92.6l0,0L359.8,1205.7z M358.4,997.5l1.4,206.1l22.1-116.7
						L358.4,997.5z"/>
				</g>
			</g>
		</g>
	</g>
	<g>
		<g>
			<g>
				<g>
					<path fill="#DCE1E5" d="M567.5,1466.9l-0.2-1l-21.8-128.1l48.8,13.5l0,0.2L567.5,1466.9z M546,1338.4l21.5,126.5l26.3-113.2
						L546,1338.4z"/>
				</g>
			</g>
			<g>
				<g>
					<path fill="#DCE1E5" d="M567.8,1466.3l-0.4-0.2l-111.8-61.3l0.3-0.2l90-66.8L567.8,1466.3z M456.4,1404.7l110.9,60.8l-21.6-127
						L456.4,1404.7z"/>
				</g>
			</g>
		</g>
	</g>
	<g>
		<g>
			<g>
				<g>
					<path fill="#DCE1E5" d="M793.2,331.7l0.1-0.3l34.3-123l0.2,0.1l174.2,91.3l-0.6,0.1L793.2,331.7z M827.8,209.1l-34.1,122.2
						l206.9-31.6L827.8,209.1z"/>
				</g>
			</g>
			<g>
				<g>
					<path fill="#DCE1E5" d="M821.9,408.9l-28.6-77.6l0.2,0l208.8-31.9L821.9,408.9z M793.8,331.7l28.3,76.7l178.3-108.3
						L793.8,331.7z"/>
				</g>
			</g>
		</g>
	</g>
	<g>
		<g>
			<g>
				<g>
					<path fill="#DCE1E5" d="M545.7,1218.4l-26.3-81.5l0.4,0.2l172.5,71.2L545.7,1218.4z M520.1,1137.7L546,1218l144.6-10
						L520.1,1137.7z"/>
				</g>
			</g>
			<g>
				<g>
					<path fill="#DCE1E5" d="M531.3,1326.9l0.1-0.5l14.3-108.4l0.2,0l146.3-10.1l-0.6,0.4L531.3,1326.9z M546,1218.4L531.8,1326
						l158.9-117.6L546,1218.4z"/>
				</g>
			</g>
			<g>
				<g>
					<path fill="#DCE1E5" d="M531.8,1326.5l-0.4,0l-11.9-190.7l26.6,82.5l0,0L531.8,1326.5z M520,1138.9l11.6,185.5l14-106.1
						L520,1138.9z"/>
				</g>
			</g>
		</g>
	</g>
	<g>
		<g>
			<g>
				<g>
					<path fill="#DCE1E5" d="M733.1,654.4l-35.7-36.1l18.5-6.6L733.1,654.4z M698.1,618.4l33.9,34.3l-16.3-40.5L698.1,618.4z"/>
				</g>
			</g>
			<g>
				<g>
					<path fill="#DCE1E5" d="M684,659.1l0.1-0.3l13.6-40.8l35.3,35.7l-0.4,0L684,659.1z M697.9,618.7l-13.3,39.9l47.6-5.2
						L697.9,618.7z"/>
				</g>
			</g>
		</g>
	</g>
	<g>
		<g>
			<g>
				<g>
					<path fill="#DCE1E5" d="M646.4,554.9l0.2-0.4l85.7-124.5l-0.1,0.8l-16.9,117l-0.2,0L646.4,554.9z M731.8,431.7l-84.5,122.7
						l67.8-6.8L731.8,431.7z"/>
				</g>
			</g>
			<g>
				<g>
					<path fill="#DCE1E5" d="M798.8,577.8l-0.4-0.2L715,547.9l0-0.2L732,430.2l0.3,0.6L798.8,577.8z M715.5,547.6l82.6,29.5
						l-65.9-145.5L715.5,547.6z"/>
				</g>
			</g>
			<g>
				<g>
					<path fill="#DCE1E5" d="M798.4,577.7l-153.2-23l70.1-7l0,0l83.2,29.7L798.4,577.7z M648.4,554.7l148,22.3l-81.2-29L648.4,554.7
						z"/>
				</g>
			</g>
		</g>
	</g>
	<g>
		<g>
			<g>
				<g>
					<path fill="#DCE1E5" d="M910.9,1007.7l-0.6-0.6l-100.4-90.1l0.1-0.1l37-69.7l0.2,0.4L910.9,1007.7z M810.3,917l99.6,89.3
						l-63-158.1L810.3,917z"/>
				</g>
			</g>
			<g>
				<g>
					<path fill="#DCE1E5" d="M911,1007.3l-0.7-0.1l-181.6-29.9l0.4-0.3l81-60.3l0.1,0.1L911,1007.3z M729.7,977.1l180,29.6
						l-99.7-89.4L729.7,977.1z"/>
				</g>
			</g>
			<g>
				<g>
					<path fill="#DCE1E5" d="M729.4,977.4l-0.3-0.3l118.7-130.7l-37.6,70.8L729.4,977.4z M846,849L730.8,975.8l79.2-58.9L846,849z"
						/>
				</g>
			</g>
		</g>
	</g>
	<g>
		<g>
			<g>
				<g>
					<path fill="#DCE1E5" d="M861.4,1461.5l-0.6-0.5l-154.5-128.5l85.4-34.3l0.1,0.2L861.4,1461.5z M707.1,1332.5l153.3,127.6
						l-68.9-161.5L707.1,1332.5z"/>
				</g>
			</g>
			<g>
				<g>
					<path fill="#DCE1E5" d="M679.2,1475.9l0-0.3l27.3-143.6l0.3,0.2L861.4,1461L679.2,1475.9z M706.8,1332.8l-27.1,142.6
						l180.7-14.9L706.8,1332.8z"/>
				</g>
			</g>
		</g>
	</g>
	<g>
		<g>
			<g>
				<g>
					<path fill="#DCE1E5" d="M633.9,1298.2l-18.3-23.1l0.2-0.1l42.3-33.3L633.9,1298.2z M616.2,1275.2l17.6,22.2l23.3-54.4
						L616.2,1275.2z"/>
				</g>
			</g>
			<g>
				<g>
					<path fill="#DCE1E5" d="M670.7,1299.9l-0.3,0l-36.9-1.9l0.1-0.3l24-56L670.7,1299.9z M634.1,1297.6l36.1,1.8l-12.7-56.5
						L634.1,1297.6z"/>
				</g>
			</g>
		</g>
	</g>
	<g>
		<g>
			<g>
				<g>
					<path fill="#DCE1E5" d="M740.8,1517l0-0.3l6.8-56l0.3,0.2l57.4,48.8l-0.5,0.1L740.8,1517z M747.9,1461.6l-6.7,55l63.1-7
						L747.9,1461.6z"/>
				</g>
			</g>
			<g>
				<g>
					<path fill="#DCE1E5" d="M728.3,1535.5l0.3-0.5l12.2-18.4l0.1,0l65.7-7.3L728.3,1535.5z M741.1,1517l-11.8,17.8l73.6-24.7
						L741.1,1517z"/>
				</g>
			</g>
			<g>
				<g>
					<path fill="#DCE1E5" d="M728.3,1536.3l19.2-75.1l0.4,0.1l-6.8,55.7l0,0L728.3,1536.3z M747.2,1464.2l-17.9,69.8l11.5-17.3
						L747.2,1464.2z"/>
				</g>
			</g>
		</g>
	</g>
	<g>
		<g>
			<g>
				<g>
					<path fill="#DCE1E5" d="M798,418l-0.2,0l-96-16.2l0.3-0.3l162.6-137l-0.3,0.8L798,418z M702.7,401.5l95,16l66-151.6
						L702.7,401.5z"/>
				</g>
			</g>
			<g>
				<g>
					<path fill="#DCE1E5" d="M900.1,489.5l-0.4-0.3l-102.1-71.4l0.1-0.1l66.7-153.2l0.1,0.7L900.1,489.5z M798.1,417.7l101.5,71
						l-35.4-222.8L798.1,417.7z"/>
				</g>
			</g>
			<g>
				<g>
					<path fill="#DCE1E5" d="M899.8,489.3l-199-88.1l97.2,16.4l102,71.3L899.8,489.3z M703.8,402.1l194.2,86L797.8,418L703.8,402.1z
						"/>
				</g>
			</g>
		</g>
	</g>
	<g>
		<g>
			<g>
				<g>
					<path fill="#DCE1E5" d="M752.8,81.8l-0.1-0.1L709.5,2.4l0.4,0.1l192.9,39.9l-0.8,0.2L752.8,81.8z M710.3,3L753,81.3l148.1-38.8
						L710.3,3z"/>
				</g>
			</g>
			<g>
				<g>
					<path fill="#DCE1E5" d="M759.2,197.1l0-0.5l-6.5-115.2l0.2,0l149.7-39.2l-0.5,0.5L759.2,197.1z M753.1,81.7l6.5,114.4
						L901.4,42.9L753.1,81.7z"/>
				</g>
			</g>
			<g>
				<g>
					<path fill="#DCE1E5" d="M759.2,196.7L709.3,1.2l43.8,80.3l6.5,115.1L759.2,196.7z M710.5,4.2l48.6,190.3l-6.4-113L710.5,4.2z"
						/>
				</g>
			</g>
		</g>
	</g>
	<g>
		<g>
			<g>
				<g>
					<path fill="#DCE1E5" d="M860,697.9l-46.3-22l15.3-12.6l0.1,0.1L860,697.9z M814.4,675.8l44,20.9L829,663.8L814.4,675.8z"/>
				</g>
			</g>
			<g>
				<g>
					<path fill="#DCE1E5" d="M815,719.2l0-0.3l-1.1-43.4l0.3,0.1l45.5,21.6l-0.4,0.2L815,719.2z M814.3,676.1l1.1,42.5l43.4-21.3
						L814.3,676.1z"/>
				</g>
			</g>
		</g>
	</g>
	<g>
		<g>
			<g>
				<g>
					<path fill="#DCE1E5" d="M709.9,738.6l-0.2,0l-33.9-0.1l48.4-56.6L709.9,738.6z M676.7,738.1l32.9,0.1l13.8-54.8L676.7,738.1z"
						/>
				</g>
			</g>
			<g>
				<g>
					<path fill="#DCE1E5" d="M748.9,757.4l-39.3-18.9l14.3-56.6L748.9,757.4z M710,738.3l38.2,18.3l-24.3-73.2L710,738.3z"/>
				</g>
			</g>
			<g>
				<g>
					<path fill="#DCE1E5" d="M748.5,757.2l-73.8-19.2l35.2,0.2l38.8,18.6L748.5,757.2z M677.9,738.5l68.7,17.8l-36.9-17.7
						L677.9,738.5z"/>
				</g>
			</g>
		</g>
	</g>
	<g>
		<g>
			<g>
				<g>
					<path fill="#DCE1E5" d="M838.2,644.6l-50-23.7l0.2-0.2l30-37.5L838.2,644.6z M788.8,620.7l48.7,23.1L818.2,584L788.8,620.7z"/>
				</g>
			</g>
			<g>
				<g>
					<path fill="#DCE1E5" d="M839.6,644.8l-68.8-16.1l17.6-8.1l0.1,0L839.6,644.8z M772.1,628.6l64,15L788.5,621L772.1,628.6z"/>
				</g>
			</g>
			<g>
				<g>
					<path fill="#DCE1E5" d="M770.5,629.3l47.6-45.9l0.3,0.3L788.6,621l0,0L770.5,629.3z M816.2,585.9L772.5,628l15.9-7.3
						L816.2,585.9z"/>
				</g>
			</g>
		</g>
	</g>
	<g>
		<g>
			<g>
				<g>
					<path fill="#DCE1E5" d="M761.1,1202.3l-0.4-0.2l-85.6-54.3l0.2-0.2l63.4-61.9l0.1,0.4L761.1,1202.3z M675.7,1147.7l84.8,53.8
						l-22.1-114.9L675.7,1147.7z"/>
				</g>
			</g>
			<g>
				<g>
					<path fill="#DCE1E5" d="M762.5,1202.7l-120.7-44.4l0.6-0.2l33.1-10.6l0.1,0L762.5,1202.7z M643,1158.3l116.1,42.7l-83.7-53.1
						L643,1158.3z"/>
				</g>
			</g>
			<g>
				<g>
					<path fill="#DCE1E5" d="M641.3,1158.9l0.9-0.7l96.2-72.2l0.3,0.3l-63.2,61.6l0,0L641.3,1158.9z M736.2,1088.2l-92.8,69.6
						l31.9-10.2L736.2,1088.2z"/>
				</g>
			</g>
		</g>
	</g>
	<g>
		<g>
			<g>
				<g>
					<path fill="#DCE1E5" d="M674.1,1439l-6.9-77l34,14.7l-0.1,0.2L674.1,1439z M667.7,1362.7l6.7,74.8l26.3-60.5L667.7,1362.7z"/>
				</g>
			</g>
			<g>
				<g>
					<path fill="#DCE1E5" d="M674.5,1438.8l-0.4-0.5l-48.8-56.2l0.2-0.1l42.1-20l0,0.3L674.5,1438.8z M626,1382.2l48,55.4l-6.7-75
						L626,1382.2z"/>
				</g>
			</g>
		</g>
	</g>
	<g>
		<g>
			<g>
				<g>
					<path fill="#DCE1E5" d="M709.7,930.1l-65.3-21.1l2.8-39.9L709.7,930.1z M644.8,908.8l63.4,20.5l-60.7-59.1L644.8,908.8z"/>
				</g>
			</g>
			<g>
				<g>
					<path fill="#DCE1E5" d="M619.4,953.3l25.1-44.6l65.1,21L619.4,953.3z M644.7,909.2l-24.5,43.5l88-23L644.7,909.2z"/>
				</g>
			</g>
			<g>
				<g>
					<path fill="#DCE1E5" d="M620,953.1l-0.4-0.2l28-84.9l-2.9,41L620,953.1z M647,871.2l-26.3,79.9l23.7-42.2L647,871.2z"/>
				</g>
			</g>
		</g>
	</g>
	<g>
		<g>
			<g>
				<g>
					<path fill="#DCE1E5" d="M584.9,1481.5l-29.6-44.8l0.4,0l71.3-0.1L584.9,1481.5z M556.1,1437.1l28.9,43.7l41.1-43.8
						L556.1,1437.1z"/>
				</g>
			</g>
			<g>
				<g>
					<path fill="#DCE1E5" d="M587.4,1502.4l-2.6-21.4l0.1-0.1l42.9-45.7l-1,1.6L587.4,1502.4z M585.2,1481.2l2.4,20l37.8-62.9
						L585.2,1481.2z"/>
				</g>
			</g>
			<g>
				<g>
					<path fill="#DCE1E5" d="M587.8,1503l-32.3-66l0.3-0.2l29.3,44.3l0,0L587.8,1503z M557.2,1439.6l29.9,61.1l-2.4-19.5
						L557.2,1439.6z"/>
				</g>
			</g>
		</g>
	</g>
	<g>
		<g>
			<g>
				<g>
					<path fill="#DCE1E5" d="M825,551.6l-30.9-15.1l0.4-0.2l68.5-29.9l-0.5,0.7L825,551.6z M795.1,536.5l29.8,14.6l36.7-43.7
						L795.1,536.5z"/>
				</g>
			</g>
			<g>
				<g>
					<path fill="#DCE1E5" d="M852.1,585.9l-27.4-34.5l37.9-45.1l-0.1,0.7L852.1,585.9z M825.2,551.4l26.6,33.5l10.2-77.3
						L825.2,551.4z"/>
				</g>
			</g>
			<g>
				<g>
					<path fill="#DCE1E5" d="M851.8,585.5l-58.6-49.9l31.9,15.6l27,34L851.8,585.5z M795.9,537.4l54.6,46.5l-25.7-32.3L795.9,537.4z
						"/>
				</g>
			</g>
		</g>
	</g>
	<g>
		<g>
			<g>
				<g>
					<path fill="#DCE1E5" d="M954.4,261.4l-42.3-26.4l0.2-0.2l53.2-54.9L954.4,261.4z M912.8,234.9l41.3,25.8l10.8-79.7L912.8,234.9
						z"/>
				</g>
			</g>
			<g>
				<g>
					<path fill="#DCE1E5" d="M954,261.2l0-0.2l11.1-81.6l21.1,79.7l-0.2,0L954,261.2z M965.3,181.4l-10.8,79.4l31.3-2.1L965.3,181.4
						z"/>
				</g>
			</g>
		</g>
	</g>
	<g>
		<g>
			<g>
				<g>
					<path fill="#DCE1E5" d="M724.9,895.4l-0.1-0.8L714.5,800l0.1-0.1l52.3-19.2l-0.1,0.4L724.9,895.4z M714.9,800.3l10.2,93.4
						l41.2-112.3L714.9,800.3z"/>
				</g>
			</g>
			<g>
				<g>
					<path fill="#DCE1E5" d="M725.3,895.2l-0.4-0.5l-81.3-101.3l71.4,6.5l0,0.2L725.3,895.2z M644.4,793.9l80.3,100l-10.2-93.6
						L644.4,793.9z"/>
				</g>
			</g>
			<g>
				<g>
					<path fill="#DCE1E5" d="M714.8,800.3L714.8,800.3l-70.8-6.5l0-0.4l124.3-12.7L714.8,800.3z M646.1,793.7l68.6,6.3l50.4-18.5
						L646.1,793.7z"/>
				</g>
			</g>
		</g>
	</g>
</g>
</svg>
