<?xml version="1.0" encoding="utf-8"?>
<!-- Generator: Adobe Illustrator 22.0.1, SVG Export Plug-In . SVG Version: 6.00 Build 0)  -->
<svg version="1.1" xmlns="http://www.w3.org/2000/svg" xmlns:xlink="http://www.w3.org/1999/xlink" x="0px" y="0px"
	 viewBox="0 0 215.4 220" enable-background="new 0 0 215.4 220" xml:space="preserve">
<g id="center">
</g>
<g id="decorative">
	<g opacity="0.5">
		<path fill="#DCE1E5" d="M32.9,138.9h-1.3c-0.1-0.5-0.3-1-0.6-1.5l0.9-0.9c0.1-0.1,0.1-0.4,0-0.5l-1.5-1.5c-0.1-0.1-0.4-0.1-0.5,0
			l-0.9,0.9c-0.5-0.3-1-0.5-1.5-0.6v-1.3c0-0.2-0.2-0.4-0.4-0.4H25c-0.2,0-0.4,0.2-0.4,0.4v1.3c-0.5,0.1-1,0.3-1.5,0.6l-0.9-0.9
			c-0.1-0.1-0.4-0.1-0.5,0l-1.5,1.5c-0.1,0.1-0.1,0.4,0,0.5l0.9,0.9c-0.3,0.5-0.5,1-0.6,1.5h-1.3c-0.2,0-0.4,0.2-0.4,0.4v2.2
			c0,0.2,0.2,0.4,0.4,0.4h1.3c0.1,0.5,0.3,1,0.6,1.5l-0.9,0.9c-0.1,0.1-0.1,0.4,0,0.5l1.5,1.5c0.1,0.1,0.4,0.1,0.5,0l0.9-0.9
			c0.5,0.3,1,0.5,1.5,0.6v1.3c0,0.2,0.2,0.4,0.4,0.4h2.2c0.2,0,0.4-0.2,0.4-0.4v-1.3c0.5-0.1,1-0.3,1.5-0.6l0.9,0.9
			c0.1,0.1,0.4,0.1,0.5,0l1.5-1.5c0.1-0.1,0.1-0.4,0-0.5l-0.9-0.9c0.3-0.5,0.5-1,0.6-1.5h1.3c0.2,0,0.4-0.2,0.4-0.4v-2.2
			C33.3,139.1,33.1,138.9,32.9,138.9z"/>
		<path fill="none" stroke="#67717C" stroke-width="0.5" stroke-linecap="round" stroke-miterlimit="10" d="M19.3,137.7h-0.6
			c-0.2,0-0.4,0.2-0.4,0.4v2.2c0,0.2,0.2,0.4,0.4,0.4H20c0.1,0.5,0.3,1,0.6,1.5l-0.9,0.9c-0.1,0.1-0.1,0.4,0,0.5l1.5,1.5
			c0.1,0.1,0.4,0.1,0.5,0l0.9-0.9c0.5,0.3,1,0.5,1.5,0.6v1.3c0,0.2,0.2,0.4,0.4,0.4h2.2c0.2,0,0.4-0.2,0.4-0.4v-1.3
			c0.5-0.1,1-0.3,1.5-0.6l0.9,0.9c0.1,0.1,0.4,0.1,0.5,0l1.5-1.5c0.1-0.1,0.1-0.4,0-0.5l-0.9-0.9c0.3-0.5,0.5-1,0.6-1.5h1.3
			c0.2,0,0.4-0.2,0.4-0.4V138c0-0.2-0.2-0.4-0.4-0.4h-1.3c-0.1-0.5-0.3-1-0.6-1.5l0.9-0.9c0.1-0.1,0.1-0.4,0-0.5l-1.5-1.5
			c-0.1-0.1-0.4-0.1-0.5,0l-0.9,0.9c-0.5-0.3-1-0.5-1.5-0.6v-1.3c0-0.2-0.2-0.4-0.4-0.4h-2.2c-0.2,0-0.4,0.2-0.4,0.4v1.3
			c-0.5,0.1-1,0.3-1.5,0.6l-0.9-0.9c-0.1-0.1-0.4-0.1-0.5,0l-1.5,1.5c-0.1,0.1-0.1,0.4,0,0.5l0.9,0.9"/>
		<circle fill="#FFFFFF" cx="25.6" cy="139.1" r="3.6"/>
		<path fill="none" stroke="#E84B54" stroke-width="0.5" stroke-linecap="round" stroke-miterlimit="10" d="M25.6,142.7
			c-2,0-3.6-1.6-3.6-3.6s1.6-3.6,3.6-3.6s3.6,1.6,3.6,3.6c0,0.7-0.2,1.4-0.6,2"/>
	</g>
	<g id="video_1_" opacity="0.5">
		<circle fill="#DCE1E5" cx="36" cy="96.5" r="7.2"/>
		<path fill="none" stroke="#67717C" stroke-width="0.5" stroke-linecap="round" stroke-miterlimit="10" d="M33.8,88.4
			c-0.6,0.1-1.3,0.2-1.8,0.4"/>
		<path fill="none" stroke="#67717C" stroke-width="0.5" stroke-linecap="round" stroke-miterlimit="10" d="M35.3,88.4
			c-0.1,0-0.2,0-0.3,0"/>
		<path fill="none" stroke="#67717C" stroke-width="0.5" stroke-linecap="round" stroke-miterlimit="10" d="M30.5,89.5
			c-0.4,0.3-0.8,0.6-1.1,0.9c-1.2,1.1-2,2.6-2.2,4.3c-0.3,2.2,0.4,4.2,1.6,5.7l-1,3.5c0,0.1,0.1,0.3,0.2,0.2l3.9-1.5
			c1.3,0.5,2.9,0.7,4.5,0.3c2.9-0.7,5.1-3.2,5.5-6.1c0.5-3.8-1.9-7.1-5.2-8.1"/>
		<path fill="#E84B54" d="M36.7,95.8l-3.3-1.9c-0.1-0.1-0.2,0-0.2,0.1v3.9c0,0.1,0.1,0.2,0.2,0.1l3.3-1.9
			C36.8,96,36.8,95.8,36.7,95.8z"/>
	</g>
	<g id="chatbot_1_" opacity="0.5">
		<path fill="none" stroke="#67717C" stroke-width="0.5" stroke-linecap="round" stroke-miterlimit="10" d="M101.6,186.5
			c0-0.1,0.1-0.1,0.1-0.2"/>
		<path fill="none" stroke="#67717C" stroke-width="0.5" stroke-linecap="round" stroke-miterlimit="10" d="M101.1,188.2
			c0.1-0.2,0.1-0.5,0.2-0.7"/>
		<path fill="#DCE1E5" d="M117.2,196.9l-11.5-2.7l-4.7,3c-0.1,0.1-0.2,0-0.2-0.2l1.8-7.7c0.2-0.7,0.4-1.3,0.7-1.8
			c0.1-0.2,0.2-0.4,0.3-0.6c0.2-0.3,0.3-0.5,0.5-0.7c1.9-2.5,5.2-3.8,8.5-3.1l0,0c4.5,1,7.2,5.5,6.2,9.9l-0.8,3.4
			C117.8,196.8,117.5,197,117.2,196.9z"/>
		<path fill="none" stroke="#67717C" stroke-width="0.5" stroke-linecap="round" stroke-miterlimit="10" d="M102.5,185
			c1.9-2.5,5.2-3.8,8.5-3.1l0,0c4.5,1,7.2,5.5,6.2,9.9l-0.8,3.4c-0.1,0.3-0.4,0.5-0.7,0.4l-11.5-2.7l-4.7,3c-0.1,0.1-0.2,0-0.2-0.2
			l1.5-6.5"/>
		<path fill="none" stroke="#E84B54" stroke-width="0.5" stroke-linecap="round" stroke-miterlimit="10" d="M104.9,188.9
			c1.1,1.1,2.5,1.9,4.1,2.3s3.3,0.3,4.7-0.2"/>
	</g>
	<g id="pie-chart_3_" opacity="0.5">
		<path fill="#DCE1E5" d="M189.6,43.5l-3.7-1.1c-0.1,0-0.1-0.1-0.1-0.2l1-3.1c0-0.1,0.1-0.1,0.2-0.1l3.7,1.1c0.1,0,0.1,0.1,0.1,0.2
			l-1,3.1C189.7,43.5,189.6,43.6,189.6,43.5z"/>
		<path fill="#DCE1E5" d="M175.9,39.3l-3.5-1.1c-0.1,0-0.2-0.2-0.1-0.3l2-6.4c0-0.1,0.2-0.2,0.3-0.1l3.5,1.1c0.1,0,0.2,0.2,0.1,0.3
			l-2,6.4C176.1,39.3,176,39.4,175.9,39.3z"/>
		<path fill="none" stroke="#67717C" stroke-width="0.5" stroke-linecap="round" stroke-miterlimit="10" d="M174.3,37.3l-3.5-1.1
			c-0.1,0-0.2-0.2-0.1-0.3l2-6.4c0-0.1,0.2-0.2,0.3-0.1l3.5,1.1c0.1,0,0.2,0.2,0.1,0.3l-2,6.4C174.6,37.3,174.4,37.3,174.3,37.3z"/>
		<path fill="#DCE1E5" d="M187.2,28.3l-1.9-0.6l-3.5,11.5c-0.1,0.2-0.3,0.3-0.4,0.2l-1.5-0.4l-0.3,1.1c-0.1,0.2,0,0.4,0.2,0.4l3.3,1
			c0.2,0.1,0.4,0,0.4-0.2l3.9-12.6C187.5,28.5,187.4,28.3,187.2,28.3z"/>
		
			<line fill="none" stroke="#67717C" stroke-width="0.5" stroke-linecap="round" stroke-miterlimit="10" x1="179.9" y1="31.3" x2="180" y2="30.9"/>
		<path fill="none" stroke="#67717C" stroke-width="0.5" stroke-linecap="round" stroke-miterlimit="10" d="M180.8,28.1l0.8-2.7
			c0.1-0.2,0.3-0.3,0.4-0.2l3.3,1c0.2,0.1,0.3,0.3,0.2,0.4l-3.9,12.6c-0.1,0.2-0.3,0.3-0.4,0.2l-3.3-1c-0.2-0.1-0.3-0.3-0.2-0.4
			l1.6-5.1"/>
		<path fill="none" stroke="#67717C" stroke-width="0.5" stroke-linecap="round" stroke-miterlimit="10" d="M188.7,41.7l-3.7-1.1
			c-0.1,0-0.1-0.1-0.1-0.2l1-3.1c0-0.1,0.1-0.1,0.2-0.1l3.7,1.1c0.1,0,0.1,0.1,0.1,0.2l-1,3.1C188.8,41.7,188.8,41.7,188.7,41.7z"/>
		
			<line fill="none" stroke="#E84B54" stroke-width="0.5" stroke-linecap="round" stroke-miterlimit="10" x1="182.8" y1="28.9" x2="180.7" y2="35.5"/>
	</g>
	<g id="time_management_3_" opacity="0.5">
		<circle fill="#DCE1E5" cx="104.6" cy="29.6" r="5.6"/>
		<path fill="none" stroke="#67717C" stroke-width="0.5" stroke-linecap="round" stroke-miterlimit="10" d="M101.5,23.3
			c0.6-0.2,1.2-0.3,1.9-0.3c3.1,0,5.6,2.5,5.6,5.6s-2.5,5.6-5.6,5.6c-2.8,0-5.1-2-5.5-4.7c0-0.3-0.1-0.6-0.1-0.9
			c0-0.3,0-0.5,0.1-0.8c0.1-0.5,0.2-0.9,0.4-1.4"/>
		<path fill="none" stroke="#67717C" stroke-width="0.5" stroke-linecap="round" stroke-miterlimit="10" d="M100.4,23.9
			c0,0,0.1-0.1,0.1-0.1"/>
		<path fill="none" stroke="#67717C" stroke-width="0.5" stroke-linecap="round" stroke-miterlimit="10" d="M99,25.2
			c0.2-0.3,0.4-0.5,0.7-0.8"/>
		<path fill="none" stroke="#E84B54" stroke-width="0.5" stroke-linecap="round" stroke-miterlimit="10" d="M100.9,26.2l2.4,2.4
			c0.1,0.1,0.2,0.1,0.2,0l1.8-1.8"/>
	</g>
	<g opacity="0.5">
		<g>
			<path fill="none" stroke="#DCE1E5" stroke-width="1.5" stroke-linecap="round" stroke-miterlimit="10" d="M187.2,132.6
				c-0.9,1.2-2.2,2.7-3.5,2.9c-2,0.3-3.8-1.1-4.1-3.1s1.1-3.8,3.1-4.1s5.3,3,5.3,3"/>
			<path fill="none" stroke="#DCE1E5" stroke-width="1.5" stroke-linecap="round" stroke-miterlimit="10" d="M188.1,131.3
				c0,0,3.3,3.2,5.3,3s3.4-2.1,3.1-4.1s-2.1-3.4-4.1-3.1c-0.6,0.1-1.2,0.5-1.7,1"/>
		</g>
		<g>
			<path fill="none" stroke="#67717C" stroke-width="0.5" stroke-linecap="round" stroke-miterlimit="10" d="M185.9,131
				c-0.9,1.2-2.2,2.7-3.5,2.9c-2,0.3-3.8-1.1-4.1-3.1s1.1-3.8,3.1-4.1s5.3,3,5.3,3"/>
			<path fill="none" stroke="#67717C" stroke-width="0.5" stroke-linecap="round" stroke-miterlimit="10" d="M187.9,128
				c-0.1,0.1-0.1,0.2-0.2,0.3"/>
			<path fill="none" stroke="#67717C" stroke-width="0.5" stroke-linecap="round" stroke-miterlimit="10" d="M186.8,129.7
				c0,0,3.3,3.2,5.3,3s3.4-2.1,3.1-4.1s-2.1-3.4-4.1-3.1c-0.8,0.1-1.6,0.8-2.3,1.6"/>
		</g>
		<path fill="none" stroke="#E84B54" stroke-width="0.5" stroke-linecap="round" stroke-miterlimit="10" d="M182.8,132.2
			c-1.1,0.1-2.1-0.4-2.6-1.4"/>
	</g>
	<g opacity="0.5">
		<path fill="#DCE1E5" d="M37.6,50.9l-7.2-3.6c-0.4-0.2-0.6-0.7-0.4-1.1l3.8-7.4l0.6-1.1l0.5-0.9l1-2c0.2-0.4,0.7-0.6,1.1-0.4
			l7.2,3.6c0.4,0.2,0.6,0.7,0.4,1.1l-5.8,11.4C38.4,51,37.9,51.1,37.6,50.9z"/>
		
			<line fill="none" stroke="#67717C" stroke-width="0.5" stroke-linecap="round" stroke-miterlimit="10" x1="32.6" y1="37.4" x2="33.3" y2="36"/>
		
			<line fill="none" stroke="#67717C" stroke-width="0.5" stroke-linecap="round" stroke-miterlimit="10" x1="32" y1="38.4" x2="32.1" y2="38.4"/>
		<path fill="none" stroke="#67717C" stroke-width="0.5" stroke-linecap="round" stroke-miterlimit="10" d="M33.9,34.9l1.3-2.6
			c0.2-0.4,0.7-0.6,1.1-0.4l7.2,3.6c0.4,0.2,0.6,0.7,0.4,1.1l-5.8,11.4c-0.2,0.4-0.7,0.6-1.1,0.4l-7.2-3.6c-0.4-0.2-0.6-0.7-0.4-1.1
			l2.1-4.1"/>
		<circle fill="#E84B54" cx="34.4" cy="44.5" r="0.8"/>
	</g>
	<g id="BlockChain">
		<path fill="#DCE1E5" d="M116.9,97.9l-1.4-1.4c-0.2-0.2-0.2-0.6,0-0.8l6.9-6.9c0.2-0.2,0.6-0.2,0.8,0l6.9,6.9
			c0.2,0.2,0.2,0.6,0,0.8l-6.9,6.9c-0.2,0.2-0.6,0.2-0.8,0L119,100"/>
		<path fill="#DCE1E5" d="M131.1,112l-1.4-1.4c-0.2-0.2-0.2-0.6,0-0.8l6.9-6.9c0.2-0.2,0.6-0.2,0.8,0l6.9,6.9c0.2,0.2,0.2,0.6,0,0.8
			l-6.9,6.9c-0.2,0.2-0.6,0.2-0.8,0l-3.4-3.4"/>
		<path fill="#DCE1E5" d="M116.9,126.1l-1.4-1.4c-0.2-0.2-0.2-0.6,0-0.8l6.9-6.9c0.2-0.2,0.6-0.2,0.8,0l6.9,6.9
			c0.2,0.2,0.2,0.6,0,0.8l-6.9,6.9c-0.2,0.2-0.6,0.2-0.8,0l-3.4-3.4"/>
		<path fill="#DCE1E5" d="M103.8,139.3l-1.4-1.4c-0.2-0.2-0.2-0.6,0-0.8l6.9-6.9c0.2-0.2,0.6-0.2,0.8,0l6.9,6.9
			c0.2,0.2,0.2,0.6,0,0.8l-6.9,6.9c-0.2,0.2-0.6,0.2-0.8,0l-3.4-3.4"/>
		<path fill="#DCE1E5" d="M90.2,125.6l-1.4-1.4c-0.2-0.2-0.2-0.6,0-0.8l6.9-6.9c0.2-0.2,0.6-0.2,0.8,0l6.9,6.9
			c0.2,0.2,0.2,0.6,0,0.8l-6.9,6.9c-0.2,0.2-0.6,0.2-0.8,0l-3.4-3.4"/>
		<path fill="#DCE1E5" d="M76.1,111.5l-1.4-1.4c-0.2-0.2-0.2-0.6,0-0.8l6.9-6.9c0.2-0.2,0.6-0.2,0.8,0l6.9,6.9
			c0.2,0.2,0.2,0.6,0,0.8l-6.9,6.9c-0.2,0.2-0.6,0.2-0.8,0l-3.4-3.4"/>
		<path fill="#DCE1E5" d="M89.2,98.4L87.8,97c-0.2-0.2-0.2-0.6,0-0.8l6.9-6.9c0.2-0.2,0.6-0.2,0.8,0l6.9,6.9c0.2,0.2,0.2,0.6,0,0.8
			l-6.9,6.9c-0.2,0.2-0.6,0.2-0.8,0l-3.4-3.4"/>
		<path fill="#DCE1E5" d="M116.2,109.6l-6.9-6.9c-0.2-0.2-0.6-0.2-0.8,0l-1,1l5.8,5.8c0.2,0.2,0.2,0.6,0,0.8l-5.8,5.8l1,1
			c0.2,0.2,0.6,0.2,0.8,0l6.9-6.9C116.5,110.2,116.5,109.8,116.2,109.6z"/>
		<path fill="#DCE1E5" d="M103.3,84.3l-1.4-1.4c-0.2-0.2-0.2-0.6,0-0.8l6.9-6.9c0.2-0.2,0.6-0.2,0.8,0l6.9,6.9
			c0.2,0.2,0.2,0.6,0,0.8l-6.9,6.9c-0.2,0.2-0.6,0.2-0.8,0l-3.4-3.4"/>
		<path fill="none" stroke="#67717C" stroke-width="0.5" stroke-linecap="round" stroke-miterlimit="10" d="M100.2,84.3L98.9,83
			c-0.2-0.2-0.2-0.6,0-0.8l6.9-6.9c0.2-0.2,0.6-0.2,0.8,0l6.9,6.9c0.2,0.2,0.2,0.6,0,0.8l-6.9,6.9c-0.2,0.2-0.6,0.2-0.8,0l-3.4-3.4"
			/>
		<path fill="none" stroke="#67717C" stroke-width="0.5" stroke-linecap="round" stroke-miterlimit="10" d="M116,92.4l3.4-3.4
			c0.2-0.2,0.6-0.2,0.8,0l6.9,6.9c0.2,0.2,0.2,0.6,0,0.8l-6.9,6.9c-0.2,0.2-0.6,0.2-0.8,0l-6.9-6.9c-0.2-0.2-0.2-0.6,0-0.8l1.5-1.5"
			/>
		<path fill="none" stroke="#67717C" stroke-width="0.5" stroke-linecap="round" stroke-miterlimit="10" d="M130.3,114.4l-4-4
			c-0.2-0.2-0.2-0.6,0-0.8l6.9-6.9c0.2-0.2,0.6-0.2,0.8,0l6.9,6.9c0.2,0.2,0.2,0.6,0,0.8l-6.9,6.9c-0.2,0.2-0.6,0.2-0.8,0"/>
		<path fill="none" stroke="#67717C" stroke-width="0.5" stroke-linecap="round" stroke-miterlimit="10" d="M87.9,93.1L92,89
			c0.2-0.2,0.6-0.2,0.8,0l6.9,6.9c0.2,0.2,0.2,0.6,0,0.8l-6.9,6.9c-0.2,0.2-0.6,0.2-0.8,0l-6.9-6.9c-0.2-0.2-0.2-0.6,0-0.8"/>
		<path fill="none" stroke="#67717C" stroke-width="0.5" stroke-linecap="round" stroke-miterlimit="10" d="M119.4,116.5
			c0.2-0.2,0.6-0.2,0.8,0l6.9,6.9c0.2,0.2,0.2,0.6,0,0.8l-6.9,6.9c-0.2,0.2-0.6,0.2-0.8,0l-6.9-6.9c-0.2-0.2-0.2-0.6,0-0.8l4.6-4.6"
			/>
		<path fill="none" stroke="#67717C" stroke-width="0.5" stroke-linecap="round" stroke-miterlimit="10" d="M75.7,114.7l-4.2-4.2
			c-0.2-0.2-0.2-0.6,0-0.8l6.9-6.9c0.2-0.2,0.6-0.2,0.8,0l6.9,6.9c0.2,0.2,0.2,0.6,0,0.8l-6.9,6.9c-0.2,0.2-0.6,0.2-0.8,0"/>
		<path fill="none" stroke="#67717C" stroke-width="0.5" stroke-linecap="round" stroke-miterlimit="10" d="M87.7,120.8l4.3-4.3
			c0.2-0.2,0.6-0.2,0.8,0l6.9,6.9c0.2,0.2,0.2,0.6,0,0.8l-6.9,6.9c-0.2,0.2-0.6,0.2-0.8,0l-6.9-6.9c-0.2-0.2-0.2-0.6,0-0.8"/>
		<path fill="none" stroke="#67717C" stroke-width="0.5" stroke-linecap="round" stroke-miterlimit="10" d="M100.5,139.5l-1.6-1.6
			c-0.2-0.2-0.2-0.6,0-0.8l6.9-6.9c0.2-0.2,0.6-0.2,0.8,0l6.9,6.9c0.2,0.2,0.2,0.6,0,0.8l-6.9,6.9c-0.2,0.2-0.6,0.2-0.8,0l-2.2-2.2"
			/>
		
			<line fill="none" stroke="#67717C" stroke-width="0.5" stroke-linecap="round" stroke-miterlimit="10" x1="106.1" y1="117.4" x2="106.1" y2="130"/>
		
			<line fill="none" stroke="#67717C" stroke-width="0.5" stroke-linecap="round" stroke-miterlimit="10" x1="106.1" y1="98.5" x2="106.1" y2="102.6"/>
		
			<line fill="none" stroke="#67717C" stroke-width="0.5" stroke-linecap="round" stroke-miterlimit="10" x1="106.1" y1="95.6" x2="106.1" y2="96.3"/>
		
			<line fill="none" stroke="#67717C" stroke-width="0.5" stroke-linecap="round" stroke-miterlimit="10" x1="106.1" y1="90" x2="106.1" y2="93.1"/>
		
			<line fill="none" stroke="#67717C" stroke-width="0.5" stroke-linecap="round" stroke-miterlimit="10" x1="98.7" y1="110" x2="86.1" y2="110"/>
		
			<line fill="none" stroke="#67717C" stroke-width="0.5" stroke-linecap="round" stroke-miterlimit="10" x1="126.1" y1="110" x2="113.6" y2="110"/>
		
			<line fill="none" stroke="#E84B54" stroke-width="0.5" stroke-linecap="round" stroke-miterlimit="10" x1="102.3" y1="106.2" x2="96.2" y2="100.1"/>
		
			<line fill="none" stroke="#E84B54" stroke-width="0.5" stroke-linecap="round" stroke-miterlimit="10" x1="116" y1="119.9" x2="110" y2="113.8"/>
		
			<line fill="none" stroke="#E84B54" stroke-width="0.5" stroke-linecap="round" stroke-miterlimit="10" x1="110" y1="106.2" x2="116" y2="100.1"/>
		
			<line fill="none" stroke="#E84B54" stroke-width="0.5" stroke-linecap="round" stroke-miterlimit="10" x1="96.2" y1="119.9" x2="102.3" y2="113.8"/>
		<path fill="none" stroke="#E84B54" stroke-width="0.5" stroke-linecap="round" stroke-miterlimit="10" d="M105.8,117.3l-6.9-6.9
			c-0.2-0.2-0.2-0.5,0-0.7l6.9-6.9c0.2-0.2,0.5-0.2,0.7,0l6.9,6.9c0.2,0.2,0.2,0.5,0,0.7l-6.9,6.9
			C106.3,117.5,106,117.5,105.8,117.3z"/>
	</g>
</g>
<g id="elements">
	<g id="User-Experience">
		<path fill="#DCE1E5" d="M158.1,64.9c1.4,1.4,2.6,2.6,4.4,3.5c1.4,0.7,3,1,4.6,0.9c3.2-0.1,6.2-2.1,7.3-5.2
			c1.4-3.7,0.1-7.7-2.7-10.4c-1.4-1.4-2.7-2.9-4.1-4.1c-0.5-0.4-1.1-0.8-1.8-0.6c-0.8,0.2-1.3,1-1.3,1.8c0,0.1-0.1,0.1-0.1,0.1
			c-0.6-0.5-1.4-0.7-2.1-0.3c-0.6,0.3-0.9,1-0.8,1.6c0,0.1-0.1,0.1-0.1,0.1c-0.6-0.4-1.3-0.7-1.9-0.4c-0.7,0.3-1.1,1-1,1.7
			c0,0.1-0.1,0.1-0.2,0.1c-0.7-0.7-1.4-1.5-2.1-2.2c-0.6-0.6-1.4-1.4-2.3-1.2c-0.8,0.2-1.5,1-1.4,1.8c0.1,0.7,0.6,1.3,1.1,1.8
			c1.5,1.6,3.1,3,4.6,4.5c0.6,0.6,1.2,1.2,1.8,1.8c0.5,0.5,1,0.9,1.5,1.4l0,0c0.2,0.2,0.2,0.5,0,0.6l0,0c-0.2,0.2-0.5,0.2-0.6,0l0,0
			l-1.3-1.3c-0.7-0.7-1.8-0.7-2.5,0v0c-0.7,0.7-0.7,1.8,0,2.5l0.9,0.9L158.1,64.9z"/>
		<path fill="none" stroke="#67717C" stroke-width="0.5" stroke-linecap="round" stroke-miterlimit="10" d="M159.2,67.4
			c0.2,0.1,0.5,0.3,0.8,0.4c1.4,0.7,3,1,4.6,0.9c3.2-0.1,6.2-2.1,7.3-5.2c1.4-3.7,0.1-7.7-2.7-10.4c-1.4-1.4-2.7-2.9-4.1-4.1
			c-0.5-0.4-1.1-0.8-1.8-0.6c-0.8,0.2-1.3,1-1.3,1.8c0,0.1-0.1,0.1-0.1,0.1c-0.6-0.5-1.4-0.7-2.1-0.3c-0.6,0.3-0.9,1-0.8,1.6
			c0,0.1-0.1,0.1-0.1,0.1c-0.6-0.4-1.3-0.7-1.9-0.4c-0.7,0.3-1.1,1-1,1.7c0,0.1-0.1,0.1-0.2,0.1c-0.7-0.7-1.4-1.5-2.1-2.2
			c-0.6-0.6-1.4-1.4-2.3-1.2c-0.8,0.2-1.5,1-1.4,1.8c0.1,0.7,0.6,1.3,1.1,1.8c1.5,1.6,3.1,3,4.6,4.5c0.6,0.6,1.2,1.2,1.8,1.8
			c0.5,0.5,1,0.9,1.5,1.4l0,0c0.2,0.2,0.2,0.5,0,0.6l0,0c-0.2,0.2-0.5,0.2-0.6,0l0,0l-1.3-1.3c-0.7-0.7-1.8-0.7-2.5,0h0
			c-0.7,0.7-0.7,1.8,0,2.5l0.9,0.9l0.3,0.3c0.5,0.5,1.1,1.1,1.6,1.6"/>
		<path fill="none" stroke="#67717C" stroke-width="0.5" stroke-linecap="round" stroke-miterlimit="10" d="M157.9,66.5
			c0.1,0.1,0.2,0.2,0.3,0.3"/>
		<path fill="none" stroke="#E84B54" stroke-width="0.5" stroke-linecap="round" stroke-miterlimit="10" d="M148.3,53.3
			c-1.4-1.4-1.4-3.7,0-5.1s3.7-1.4,5.1,0"/>
		<path fill="none" stroke="#E84B54" stroke-width="0.5" stroke-linecap="round" stroke-miterlimit="10" d="M146.7,54.8
			c-2.3-2.3-2.3-5.9,0-8.2c2.3-2.3,5.9-2.3,8.2,0"/>
	</g>
	<g id="Dev-Ops">
		<path fill="#DCE1E5" d="M62.3,173.5c-0.2-0.2-0.2-0.5-0.1-0.7c0,0,0-0.1,0.1-0.1c2-4.1,1.6-9.1-3.3-11.6c-3.8-1.9-6.3-0.7-8.6,1.1
			c-0.3,0.2-0.7,0.1-0.8-0.2c-0.4-0.6-0.9-1.1-1.6-1.5c-2-1-4.5-0.2-5.5,1.8c0,0.1-0.1,0.1-0.1,0.2c-0.1,0.2-0.4,0.4-0.7,0.3
			c-2.8-0.7-5.9,0.7-7.3,3.4c-1.6,3.2-0.3,7.1,2.8,8.7l5.6,2.8c0-0.1,0-0.2,0-0.3l0,0c0.1-0.2,0.2-0.4,0.4-0.5l0.4-0.2
			c0.4-0.2,0.9-0.1,1.1,0.3l0.2,0.3c0.2,0,0.4-0.1,0.7-0.1l0.1-0.4c0.1-0.4,0.6-0.7,1-0.6l0.4,0.1c0.4,0.1,0.7,0.6,0.6,1l-0.1,0.4
			c0.2,0.1,0.4,0.3,0.5,0.4l0.3-0.2c0.4-0.2,0.9-0.1,1.1,0.3l0.2,0.4c0.2,0.4,0.1,0.9-0.3,1.1l-0.3,0.2c0,0.2,0.1,0.4,0.1,0.7
			l0.4,0.1c0.3,0.1,0.5,0.3,0.6,0.6l4.9,2.5c3.2,1.6,7.1,0.3,8.7-2.9C65,178.6,64.4,175.5,62.3,173.5z M49,171.1
			c-0.2,0.4-0.7,0.6-1.1,0.4l-0.3-0.2c-0.2,0.2-0.3,0.3-0.5,0.4l0.1,0.4c0.1,0.4-0.1,0.9-0.5,1l-0.4,0.1c-0.2,0.1-0.4,0.1-0.6,0
			s-0.3-0.3-0.4-0.5l-0.1-0.4c-0.2,0-0.5,0-0.7,0l-0.2,0.3c-0.2,0.4-0.7,0.6-1.1,0.4l-0.4-0.2c-0.4-0.2-0.6-0.7-0.4-1.1l0.2-0.3
			c-0.2-0.2-0.3-0.3-0.4-0.5l-0.4,0.1c-0.2,0.1-0.4,0.1-0.6,0l0,0c-0.2-0.1-0.3-0.3-0.4-0.5l-0.1-0.4c-0.1-0.4,0.1-0.9,0.5-1
			l0.4-0.1c0-0.2,0-0.5,0-0.7l-0.3-0.2c-0.4-0.2-0.6-0.7-0.4-1.1l0.2-0.4c0.2-0.4,0.7-0.6,1.1-0.4l0.3,0.2c0.2-0.2,0.3-0.3,0.5-0.4
			l-0.1-0.4c-0.1-0.4,0.1-0.9,0.5-1l0.4-0.1c0.4-0.1,0.9,0.1,1,0.5l0.1,0.4c0.2,0,0.5,0,0.7,0l0.2-0.3c0.2-0.4,0.7-0.6,1.1-0.4
			l0.4,0.2c0.4,0.2,0.6,0.7,0.4,1.1l-0.2,0.3c0.2,0.2,0.3,0.3,0.4,0.5l0.4-0.1c0.2-0.1,0.4-0.1,0.6,0c0.2,0.1,0.3,0.3,0.4,0.5
			l0.1,0.4c0.1,0.4-0.1,0.9-0.5,1l-0.4,0.1c0,0.2,0,0.5,0,0.7l0.3,0.2c0.4,0.2,0.6,0.7,0.4,1.1L49,171.1z"/>
		<g>
			<path id="XMLID_26_" fill="none" stroke="#67717C" stroke-width="0.5" stroke-linecap="round" stroke-miterlimit="10" d="
				M41.7,182.1c-0.2,0.1-0.3,0.3-0.4,0.5s0,0.4,0.1,0.6l0.2,0.4c0.2,0.4,0.7,0.5,1.1,0.3l0.3-0.2c0.2,0.2,0.3,0.3,0.5,0.4l-0.1,0.4
				c-0.1,0.4,0.1,0.9,0.6,1l0.4,0.1c0.4,0.1,0.9-0.1,1-0.6l0.1-0.4c0.2,0,0.5,0,0.7-0.1l0.2,0.3c0.2,0.4,0.7,0.5,1.1,0.3L48,185
				c0.2-0.1,0.3-0.3,0.4-0.5l0,0c0.1-0.2,0-0.4-0.1-0.6l-0.2-0.3c0.2-0.2,0.3-0.3,0.4-0.5l0.4,0.1c0.4,0.1,0.9-0.1,1-0.6"/>
			<path id="XMLID_24_" fill="none" stroke="#67717C" stroke-width="0.5" stroke-linecap="round" stroke-miterlimit="10" d="
				M49.1,181c0-0.2,0-0.5-0.1-0.7l0.3-0.2c0.4-0.2,0.5-0.7,0.3-1.1l-0.2-0.4c-0.2-0.4-0.7-0.5-1.1-0.3l-0.3,0.2
				c-0.2-0.2-0.3-0.3-0.5-0.4l0.1-0.4c0.1-0.4-0.1-0.9-0.6-1l-0.4-0.1c-0.4-0.1-0.9,0.1-1,0.6l-0.1,0.4c-0.2,0-0.5,0-0.7,0.1
				l-0.2-0.3c-0.2-0.4-0.7-0.5-1.1-0.3l-0.4,0.2c-0.2,0.1-0.3,0.3-0.4,0.5l0,0c-0.1,0.2,0,0.4,0.1,0.6l0.2,0.3
				c-0.2,0.2-0.3,0.3-0.4,0.5l-0.4-0.1c-0.4-0.1-0.9,0.1-1,0.6l-0.1,0.4c-0.1,0.4,0.1,0.9,0.6,1"/>
			
				<circle id="XMLID_23_" fill="none" stroke="#E84B54" stroke-width="0.5" stroke-linecap="round" stroke-miterlimit="10" cx="45.6" cy="181.1" r="1.4"/>
		</g>
		<g>
			<path id="XMLID_22_" fill="none" stroke="#67717C" stroke-width="0.5" stroke-linecap="round" stroke-miterlimit="10" d="
				M45.2,172.8c0.1,0.2,0.2,0.4,0.4,0.5c0.2,0.1,0.4,0.1,0.6,0l0.4-0.1c0.4-0.1,0.7-0.6,0.5-1l-0.1-0.4c0.2-0.1,0.4-0.3,0.5-0.4
				l0.3,0.2c0.4,0.2,0.9,0,1.1-0.4l0.2-0.4c0.2-0.4,0-0.9-0.4-1.1l-0.3-0.2c0-0.2,0.1-0.5,0-0.7l0.4-0.1c0.4-0.1,0.7-0.6,0.5-1
				l-0.1-0.4c-0.1-0.2-0.2-0.4-0.4-0.5l0,0c-0.2-0.1-0.4-0.1-0.6,0l-0.4,0.1c-0.1-0.2-0.3-0.4-0.4-0.5l0.2-0.3
				c0.2-0.4,0-0.9-0.4-1.1"/>
			<path id="XMLID_21_" fill="none" stroke="#67717C" stroke-width="0.5" stroke-linecap="round" stroke-miterlimit="10" d="
				M45.6,165.3c-0.2,0-0.5-0.1-0.7,0l-0.1-0.4c-0.1-0.4-0.6-0.7-1-0.5l-0.4,0.1c-0.4,0.1-0.7,0.6-0.5,1l0.1,0.4
				c-0.2,0.1-0.4,0.3-0.5,0.4l-0.3-0.2c-0.4-0.2-0.9,0-1.1,0.4l-0.2,0.4c-0.2,0.4,0,0.9,0.4,1.1l0.3,0.2c0,0.2-0.1,0.5,0,0.7
				l-0.4,0.1c-0.4,0.1-0.7,0.6-0.5,1l0.1,0.4c0.1,0.2,0.2,0.4,0.4,0.5l0,0c0.2,0.1,0.4,0.1,0.6,0l0.4-0.1c0.1,0.2,0.3,0.4,0.4,0.5
				l-0.2,0.3c-0.2,0.4,0,0.9,0.4,1.1l0.4,0.2c0.4,0.2,0.9,0,1.1-0.4"/>
			
				<circle id="XMLID_20_" fill="none" stroke="#E84B54" stroke-width="0.5" stroke-linecap="round" stroke-miterlimit="10" cx="45" cy="168.8" r="1.4"/>
		</g>
		<g id="XMLID_19_">
			<path id="MobileMe_28_" fill="none" stroke="#67717C" stroke-width="0.5" stroke-linecap="round" stroke-miterlimit="10" d="
				M55.8,157.7c0.3,0.1,0.6,0.2,0.9,0.4c5,2.5,5.4,7.5,3.3,11.6c0,0,0,0.1-0.1,0.1c-0.1,0.2-0.1,0.5,0.1,0.7
				c2.1,1.9,2.8,5.1,1.4,7.7c-1.6,3.2-5.5,4.5-8.7,2.9"/>
			<path id="MobileMe_27_" fill="none" stroke="#67717C" stroke-width="0.5" stroke-linecap="round" stroke-miterlimit="10" d="
				M54.4,157.3c0.1,0,0.1,0,0.2,0"/>
			<path id="MobileMe_26_" fill="none" stroke="#67717C" stroke-width="0.5" stroke-linecap="round" stroke-miterlimit="10" d="
				M51.7,157.3c0.3-0.1,0.5-0.1,0.8-0.1c0,0,0.4,0,0.6,0c0.1,0,0.1,0,0.2,0"/>
			<path id="MobileMe_25_" fill="none" stroke="#67717C" stroke-width="0.5" stroke-linecap="round" stroke-miterlimit="10" d="
				M49.8,158.1c-0.6,0.3-1.2,0.8-1.8,1.2c-0.3,0.2-0.7,0.1-0.8-0.2c-0.4-0.6-0.9-1.1-1.6-1.5c-2-1-4.5-0.2-5.5,1.8
				c0,0.1-0.1,0.1-0.1,0.2c-0.1,0.2-0.4,0.4-0.7,0.3c-2.8-0.7-5.9,0.7-7.3,3.4c-1.6,3.2-0.3,7.1,2.8,8.7l4.8,2.4"/>
		</g>
	</g>
	<g id="Machine-Learning">
		<path fill="#DCE1E5" d="M149.4,182l-1-0.6c-0.3-0.1-0.6-0.2-0.9-0.1l-1.3,0.4l-0.2-0.9c-0.1-0.3-0.3-0.6-0.6-0.8l-1.9-1.1
			l-0.1-0.4c-0.1-0.5-0.5-0.9-1-1.1l-5.4-1.9c-0.3-0.1-0.6-0.1-0.8,0l-0.6,0.2c-0.3,0.1-0.6,0.3-0.7,0.6l-0.4,0.8l-0.3-0.1l-1.2-0.7
			c-0.4-0.2-0.9-0.3-1.3-0.1l-1.5,0.4c-0.3,0.1-0.6,0.2-0.8,0.4l-5.1,3.5c-0.3,0.2-0.5,0.5-0.7,0.8l-0.8,1.4l-0.6,0.2
			c-0.3,0.1-0.5,0.2-0.6,0.5l-1.3,2.3l-0.2,0.1c-0.6,0.2-1,0.6-1.2,1.1l-1.5,4.2c-0.1,0.4-0.2,0.8,0,1.2l0.3,0.9
			c0.1,0.3,0.2,0.5,0.5,0.6l0.8,0.5c0.3,0.1,0.6,0.2,0.9,0.1l0.1,0l0.4,1.3c0.1,0.3,0.3,0.5,0.5,0.7l1.6,0.9
			c0.6,0.3,1.3,0.4,1.9,0.2l1.6-0.5l0.7-0.2c0,0,0.5-0.1,0.6,0.2c0.1,0.3,0.2,1,0.2,1c0.2,0.7,0.9,1,1.5,0.9l6.3-1.8
			c0.6-0.2,1.2-0.6,1.5-1.2l0.6-1c0.2-0.3,0.2-0.7,0.1-1.1l-0.4-1.4c-0.1-0.2-0.2-0.4-0.4-0.5l-0.9-0.5c0,0-0.4-0.5,0.4-0.6l2.2-0.3
			c1.2-0.2,2.4,0.6,2.7,1.8l0.5,1.6c0.1,0.4,0.4,0.7,0.7,0.9l1.1,0.6c0.4,0.2,0.9,0.3,1.3,0.1l3-0.9c0.3-0.1,0.6-0.3,0.8-0.6
			l0.7-1.3c0.1-0.3,0.2-0.6,0.1-0.9c-0.7-1.4,0-1.7,0-1.7l0.4-0.1c0.4-0.1,0.7-0.4,0.9-0.8l0.6-1.1c0.2-0.4,0.3-1,0.2-1.5l-1-3.4
			C150.1,182.6,149.8,182.2,149.4,182z M125.5,190c-0.6-1-0.3-2.2,0.7-2.8c1-0.6,2.2-0.3,2.8,0.7c0.6,1,0.3,2.2-0.7,2.8
			C127.3,191.3,126,191,125.5,190z M132.1,195.4c-1,0.6-2.3,0.3-2.9-0.7c-0.6-1-0.3-2.3,0.7-2.9c1-0.6,2.3-0.3,2.9,0.7
			C133.5,193.5,133.1,194.8,132.1,195.4z M132.7,187.3c-1,0.6-2.3,0.3-2.9-0.7c-0.6-1-0.3-2.3,0.7-2.9c1-0.6,2.3-0.3,2.9,0.7
			C134.1,185.4,133.7,186.7,132.7,187.3z M140.4,184.8c-1,0.6-2.2,0.3-2.8-0.7c-0.6-1-0.3-2.2,0.7-2.8c1-0.6,2.2-0.3,2.8,0.7
			C141.7,182.9,141.4,184.2,140.4,184.8z"/>
		<g>
			<g>
				<path fill="none" stroke="#67717C" stroke-width="0.5" stroke-linecap="round" stroke-miterlimit="10" d="M125.7,197.2
					c0.2,0.7,0.9,1,1.5,0.9l6.3-1.8c0.6-0.2,1.2-0.6,1.5-1.2l0.6-1c0.2-0.3,0.2-0.7,0.1-1.1l-0.4-1.4c-0.1-0.2-0.2-0.4-0.4-0.5
					l-1.8-1"/>
				<path fill="none" stroke="#67717C" stroke-width="0.5" stroke-linecap="round" stroke-miterlimit="10" d="M129.7,193.9l-6.1,1.7
					l-1.6,0.5c-0.6,0.2-1.3,0.1-1.9-0.2l-1.6-0.9c-0.3-0.1-0.5-0.4-0.5-0.7"/>
				<path fill="none" stroke="#67717C" stroke-width="0.5" stroke-linecap="round" stroke-miterlimit="10" d="M123.7,191.3l-6.2,1.8
					c-0.3,0.1-0.6,0-0.9-0.1l-0.8-0.5c-0.2-0.1-0.4-0.3-0.5-0.6l-0.3-0.9c-0.1-0.4-0.1-0.8,0-1.2l1.5-4.2c0.2-0.5,0.6-1,1.2-1.1
					l0.8-0.2c0.2-0.1,0.4,0,0.6,0.1l6.2,3.4"/>
				<path fill="none" stroke="#67717C" stroke-width="0.5" stroke-linecap="round" stroke-miterlimit="10" d="M118.1,184.4l1.3-2.3
					c0.1-0.2,0.3-0.4,0.6-0.5l1.1-0.3c0.3-0.1,0.5,0,0.8,0.1l4.5,2.5"/>
				<path fill="none" stroke="#67717C" stroke-width="0.5" stroke-linecap="round" stroke-miterlimit="10" d="M127.2,175.8
					c0.2-0.2,0.5-0.3,0.8-0.4l1.5-0.4c0.4-0.1,0.9-0.1,1.3,0.1l1.8,1c0.4,0.2,0.7,0.6,0.8,1l5.8,20.1"/>
				<path fill="none" stroke="#67717C" stroke-width="0.5" stroke-linecap="round" stroke-miterlimit="10" d="M124.4,177.7"/>
				
					<line fill="none" stroke="#67717C" stroke-width="0.5" stroke-linecap="round" stroke-miterlimit="10" x1="124.2" y1="177.7" x2="124.2" y2="177.7"/>
				<path fill="none" stroke="#67717C" stroke-width="0.5" stroke-linecap="round" stroke-miterlimit="10" d="M121.3,180.1
					c0.2-0.3,0.4-0.6,0.7-0.8l0.9-0.6"/>
				<path fill="none" stroke="#67717C" stroke-width="0.5" stroke-linecap="round" stroke-miterlimit="10" d="M125.9,178.4l3.7,2.1
					c0.4,0.2,0.7,0.6,0.8,1l0.8,2.9"/>
				<path fill="none" stroke="#67717C" stroke-width="0.5" stroke-linecap="round" stroke-miterlimit="10" d="M132.2,175.9l0.4-0.8
					c0.2-0.3,0.4-0.5,0.7-0.6l0.6-0.2c0.3-0.1,0.6-0.1,0.8,0l5.4,1.9c0.5,0.2,0.8,0.6,1,1.1l0.2,0.7c0.1,0.4,0.1,0.8-0.1,1.1l-1,1.7
					"/>
				<path fill="none" stroke="#67717C" stroke-width="0.5" stroke-linecap="round" stroke-miterlimit="10" d="M142.6,178.5l0.7,0.4
					c0.3,0.2,0.5,0.5,0.6,0.8l0.3,0.9c0.1,0.4,0.1,0.8-0.1,1.1l-1.8,3.3"/>
				<path fill="none" stroke="#67717C" stroke-width="0.5" stroke-linecap="round" stroke-miterlimit="10" d="M145.4,180.3
					c0.3-0.1,0.6,0,0.9,0.1l1,0.6c0.4,0.2,0.7,0.6,0.8,1l1,3.4c0.1,0.5,0.1,1-0.2,1.5l-0.6,1.1c-0.2,0.4-0.5,0.6-0.9,0.8l-0.9,0.3
					c-0.4,0.1-0.8,0.1-1.2-0.1l-0.5-0.3c-0.2-0.1-0.3-0.4-0.2-0.6l0.8-1.4"/>
				<path fill="none" stroke="#67717C" stroke-width="0.5" stroke-linecap="round" stroke-miterlimit="10" d="M146.5,188.9l0.5,1.7
					c0.1,0.3,0,0.5-0.1,0.8l-0.8,1.4c-0.1,0.2-0.3,0.4-0.6,0.5l-3.4,1c-0.3,0.1-0.5,0-0.8-0.1"/>
				<path fill="none" stroke="#67717C" stroke-width="0.5" stroke-linecap="round" stroke-miterlimit="10" d="M130.5,185
					c0.1-0.3,0.4-0.6,0.8-0.7c0.7-0.2,1.3,0.2,1.5,0.8c0.2,0.7-0.2,1.3-0.8,1.5c-0.4,0.1-0.9,0-1.2-0.3"/>
				<path fill="none" stroke="#67717C" stroke-width="0.5" stroke-linecap="round" stroke-miterlimit="10" d="M132.2,193.2
					c0.2,0.7-0.2,1.3-0.8,1.5c-0.7,0.2-1.3-0.2-1.5-0.8c-0.2-0.7,0.2-1.3,0.8-1.5c0.4-0.1,0.7,0,1,0.2"/>
			</g>
			<circle fill="#E84B54" cx="127.2" cy="188.9" r="0.7"/>
			<circle fill="#E84B54" cx="139.5" cy="198.8" r="0.7"/>
			<circle fill="#E84B54" cx="139.3" cy="183" r="0.7"/>
		</g>
	</g>
	<g id="Micro-Services">
		<path fill="#DCE1E5" d="M27.3,105.4l1.2-4.6c0.2-0.6,0-1.2-0.4-1.7l-3.4-3.4c-0.4-0.4-1.1-0.6-1.7-0.4l-4.6,1.2
			c-0.6,0.2-1.1,0.6-1.2,1.2l-1.2,4.6c-0.2,0.6,0,1.2,0.4,1.7l3.4,3.4c0.4,0.4,1.1,0.6,1.7,0.4l4.6-1.2
			C26.7,106.4,27.2,106,27.3,105.4z"/>
		<path fill="#DCE1E5" d="M41.4,109.3l1.2-4.6c0.2-0.6,0-1.2-0.4-1.7l-3.4-3.4c-0.4-0.4-1.1-0.6-1.7-0.4l-4.6,1.2
			c-0.6,0.2-1.1,0.6-1.2,1.2l-1.2,4.6c-0.2,0.6,0,1.2,0.4,1.7l3.4,3.4c0.4,0.4,1.1,0.6,1.7,0.4l4.6-1.2
			C40.8,110.3,41.3,109.9,41.4,109.3z"/>
		<path fill="#DCE1E5" d="M31.6,98.1l5.3-1.4c0.4-0.1,0.7-0.4,0.8-0.8l0.3-1l-4.6,1.2c-0.4,0.1-0.8,0-1.1-0.3l-3.9-3.9
			c-0.3-0.3-0.4-0.7-0.3-1.1l1.2-4.3l-0.8,0.2c-0.4,0.1-0.7,0.4-0.8,0.8l-1.4,5.3c-0.1,0.4,0,0.8,0.3,1.1l3.9,3.9
			C30.9,98.1,31.3,98.2,31.6,98.1z"/>
		<path fill="none" stroke="#67717C" stroke-width="0.5" stroke-linecap="round" stroke-miterlimit="10" d="M39.6,93.5l1.2-4.6
			c0.2-0.6,0-1.2-0.4-1.7L37,83.8c-0.4-0.4-1.1-0.6-1.7-0.4l-4.6,1.2c-0.6,0.2-1.1,0.6-1.2,1.2l-1.2,4.6c-0.2,0.6,0,1.2,0.4,1.7
			l3.4,3.4c0.4,0.4,1.1,0.6,1.7,0.4l4.6-1.2C39,94.6,39.5,94.1,39.6,93.5z"/>
		<path fill="none" stroke="#E84B54" stroke-width="0.5" stroke-linecap="round" stroke-miterlimit="10" d="M30.3,90.4
			c-0.1,0.3,0,0.5,0.2,0.7l2.6,2.6c0.2,0.2,0.5,0.3,0.7,0.2l3.5-1"/>
		<path fill="none" stroke="#67717C" stroke-width="0.5" stroke-linecap="round" stroke-miterlimit="10" d="M22.1,94.3l-1.8,0.5
			c-0.4,0.1-0.7,0.4-0.8,0.8l-1.4,5.3c-0.1,0.4,0,0.8,0.3,1.1l3.9,3.9c0.3,0.3,0.7,0.4,1.1,0.3l5.3-1.4c0.4-0.1,0.7-0.4,0.8-0.8
			l1.4-5.3c0.1-0.4,0-0.8-0.3-1.1l-3.9-3.9c-0.3-0.3-0.7-0.4-1.1-0.3"/>
		
			<line fill="none" stroke="#67717C" stroke-width="0.5" stroke-linecap="round" stroke-miterlimit="10" x1="23.7" y1="93.9" x2="23.5" y2="93.9"/>
		<path fill="none" stroke="#67717C" stroke-width="0.5" stroke-linecap="round" stroke-miterlimit="10" d="M41.8,98.8l-1.4-1.4
			c-0.3-0.3-0.7-0.4-1.1-0.3L34,98.5c-0.4,0.1-0.7,0.4-0.8,0.8l-1.4,5.3c-0.1,0.4,0,0.8,0.3,1.1l3.9,3.9c0.3,0.3,0.7,0.4,1.1,0.3
			l5.3-1.4c0.4-0.1,0.7-0.4,0.8-0.8l1.4-5.3c0.1-0.4,0-0.8-0.3-1.1"/>
		
			<line fill="none" stroke="#67717C" stroke-width="0.5" stroke-linecap="round" stroke-miterlimit="10" x1="42.9" y1="99.9" x2="42.8" y2="99.7"/>
		
			<line fill="none" stroke="#E84B54" stroke-width="0.5" stroke-linecap="round" stroke-miterlimit="10" x1="28.9" y1="98" x2="26.5" y2="95.5"/>
	</g>
	<g id="Business-inteligence">
		<path fill="#DCE1E5" d="M90.3,27.2l2,10.7l-22.1,4.2l0.1,0.7l0.7,3.8c0.4,1.7,2.1,2.8,3.8,2.5l18.6-3.5c1.8-0.3,3-2.1,2.6-3.9
			L94,29.9C93.6,28.2,92,27,90.3,27.2z"/>
		
			<line fill="none" stroke="#67717C" stroke-width="0.5" stroke-linecap="round" stroke-miterlimit="10" x1="65.8" y1="35.3" x2="65.7" y2="34.8"/>
		<path fill="none" stroke="#67717C" stroke-width="0.5" stroke-linecap="round" stroke-miterlimit="10" d="M65.1,31.6
			c-0.3-1.8,0.9-3.5,2.6-3.9l18.6-3.5c1.8-0.3,3.5,0.9,3.9,2.6l2.2,11.9c0.3,1.8-0.9,3.5-2.6,3.9l-18.6,3.5
			c-1.8,0.3-3.5-0.9-3.9-2.6l-1-5.6"/>
		<path fill="none" stroke="#67717C" stroke-width="0.5" stroke-linecap="round" stroke-miterlimit="10" d="M92.3,38.1
			c0,0-3.5,0.7-11.2,2.1s-13.9,2.6-13.9,2.6s6.2-1.2,13.9-2.6S92.3,38.1,92.3,38.1z"/>
		<path fill="none" stroke="#E84B54" stroke-width="0.5" stroke-linecap="round" stroke-miterlimit="10" d="M72.1,38.8l3.5-5.2
			c0.3-0.4,0.9-0.5,1.3-0.3l2.6,1.7c0.4,0.3,1,0.2,1.3-0.3l4.1-6"/>
		<path fill="none" stroke="#67717C" stroke-width="0.5" stroke-linecap="round" stroke-miterlimit="10" d="M84.9,47L84.9,47
			c-1.9-2.2-5.6-1.6-6.6,1.3v0"/>
	</g>
	<g id="Distributed-Computing">
		<path fill="#DCE1E5" d="M203.3,133l-14.3,14.3c-1.1,1.1-2.8,1.1-3.9,0L170.7,133c-1.1-1.1-1.1-2.8,0-3.9l14.3-14.3
			c1.1-1.1,2.8-1.1,3.9,0l14.3,14.3C204.4,130.2,204.4,131.9,203.3,133z"/>
		
			<line fill="none" stroke="#67717C" stroke-width="0.5" stroke-linecap="round" stroke-miterlimit="10" x1="172.8" y1="140.3" x2="172.5" y2="140"/>
		
			<line fill="none" stroke="#67717C" stroke-width="0.5" stroke-linecap="round" stroke-miterlimit="10" x1="170.5" y1="138" x2="168.8" y2="136.4"/>
		<path fill="none" stroke="#67717C" stroke-width="0.5" stroke-linecap="round" stroke-miterlimit="10" d="M166.3,133.9l-1.1-1.1
			c-1-1-1-2.6,0-3.7l14.6-14.6c1-1,2.6-1,3.7,0l14.6,14.6c1,1,1,2.6,0,3.7l-14.6,14.6c-1,1-2.6,1-3.7,0l-5-5"/>
		
			<line fill="none" stroke="#67717C" stroke-width="0.5" stroke-linecap="round" stroke-miterlimit="10" x1="171.6" y1="121.6" x2="167.1" y2="117.1"/>
		
			<line fill="none" stroke="#67717C" stroke-width="0.5" stroke-linecap="round" stroke-miterlimit="10" x1="195.1" y1="145.1" x2="190.6" y2="140.6"/>
		<g>
			
				<line fill="none" stroke="#67717C" stroke-width="0.5" stroke-linecap="round" stroke-miterlimit="10" x1="187.1" y1="118.1" x2="191.6" y2="113.6"/>
			
				<line fill="none" stroke="#67717C" stroke-width="0.5" stroke-linecap="round" stroke-miterlimit="10" x1="194.4" y1="125.4" x2="198.9" y2="120.9"/>
		</g>
		<circle fill="#E84B54" cx="176.5" cy="131.3" r="2"/>
		<circle fill="#E84B54" cx="182.1" cy="125.7" r="2"/>
		<circle fill="#E84B54" cx="182.1" cy="136.9" r="2"/>
		<circle fill="#E84B54" cx="187.7" cy="131.3" r="2"/>
	</g>
	<g opacity="0.5">
		<path fill="#DCE1E5" d="M74.5,81.5l-9.7,4.1c-0.5,0.2-1,0-1.2-0.5l-4.9-11.6c-0.2-0.5,0-1,0.5-1.2l6.2-2.7c2.4-1,5.2,0.1,6.2,2.5
			l3.5,8.2C75.2,80.8,74.9,81.3,74.5,81.5z"/>
		
			<line fill="none" stroke="#67717C" stroke-width="0.5" stroke-linecap="round" stroke-miterlimit="10" x1="57.9" y1="76.8" x2="57.3" y2="75.4"/>
		
			<line fill="none" stroke="#67717C" stroke-width="0.5" stroke-linecap="round" stroke-miterlimit="10" x1="58.5" y1="78.2" x2="58.3" y2="77.9"/>
		<path fill="#FFFFFF" d="M63.2,69.1l1.6,3.8c0.2,0.5,0.8,0.8,1.4,0.5l3.2-1.4C69.4,72.1,67.2,67.4,63.2,69.1z"/>
		<path fill="none" stroke="#67717C" stroke-width="0.5" stroke-linecap="round" stroke-miterlimit="10" d="M56.6,73.9L56.3,73
			c-0.2-0.5,0-1.1,0.5-1.4l5.7-2.4c2.6-1.1,5.7,0.1,6.8,2.7l3.2,7.6c0.2,0.5,0,1.1-0.5,1.4L62.5,85c-0.5,0.2-1.1,0-1.4-0.5l-2.1-5"
			/>
		<path fill="none" stroke="#67717C" stroke-width="0.5" stroke-linecap="round" stroke-miterlimit="10" d="M69.4,72.1l-3.2,1.4
			c-0.5,0.2-1.1,0-1.4-0.5l-1.6-3.8"/>
		<g>
			<g>
				<path fill="none" stroke="#E84B54" stroke-width="0.5" stroke-linecap="round" stroke-miterlimit="10" d="M63.4,78l-0.6,1.6
					c-0.1,0.2,0,0.4,0.2,0.4l1.6,0.7"/>
				<path fill="none" stroke="#E84B54" stroke-width="0.5" stroke-linecap="round" stroke-miterlimit="10" d="M67.1,76.5l1.6,0.7
					c0.2,0.1,0.3,0.3,0.2,0.4l-0.6,1.6"/>
			</g>
			
				<line fill="none" stroke="#67717C" stroke-width="0.5" stroke-linecap="round" stroke-miterlimit="10" x1="65.9" y1="80.6" x2="65.8" y2="76.6"/>
		</g>
	</g>
	<g id="mouse_1_" opacity="0.5">
		<path fill="#DCE1E5" d="M163.4,172.7l-1.3-1.1c-1.7-1.5-1.9-4.1-0.4-5.8l3.8-4.4c1.5-1.7,4.1-1.9,5.8-0.4l1.3,1.1
			c1.7,1.5,1.9,4.1,0.4,5.8l-3.8,4.4C167.7,174,165.1,174.2,163.4,172.7z"/>
		<g>
			<path fill="none" stroke="#67717C" stroke-width="0.5" stroke-linecap="round" stroke-miterlimit="10" d="M168.5,158.5
				c0,0-0.1,0-0.1,0"/>
			<path fill="none" stroke="#67717C" stroke-width="0.5" stroke-linecap="round" stroke-miterlimit="10" d="M170.2,159
				c-0.3-0.1-0.5-0.2-0.8-0.3"/>
			<path fill="none" stroke="#67717C" stroke-width="0.5" stroke-linecap="round" stroke-miterlimit="10" d="M166.9,158.7
				c-0.8,0.2-1.5,0.7-2.1,1.4l-3.4,3.9c-1.6,1.9-1.4,4.8,0.5,6.4l0.7,0.6c1.9,1.6,4.8,1.4,6.4-0.5l3.4-3.9c1.6-1.9,1.4-4.8-0.5-6.4
				l-0.7-0.6c-0.1-0.1-0.1-0.1-0.2-0.2"/>
		</g>
		<path fill="#E84B54" d="M168.1,164L168.1,164c-0.3-0.3-0.3-0.6-0.1-0.9l1.3-1.5c0.2-0.2,0.6-0.3,0.8-0.1l0.1,0.1
			c0.2,0.2,0.3,0.6,0.1,0.8l-1.3,1.5C168.7,164.2,168.4,164.2,168.1,164z"/>
		<g>
			<path fill="none" stroke="#67717C" stroke-width="0.5" stroke-linecap="round" stroke-miterlimit="10" d="M171.6,159.9l2.9-3.4
				c0.5-0.6,1.5-0.7,2.1-0.2l0,0c0.6,0.5,0.7,1.5,0.2,2.1"/>
			<path fill="none" stroke="#67717C" stroke-width="0.5" stroke-linecap="round" stroke-miterlimit="10" d="M176.7,158.5l-0.5,0.6
				c-0.5,0.6-0.5,1.6,0.2,2.1l0,0c0.6,0.5,1.6,0.5,2.1-0.2"/>
		</g>
	</g>
	<g id="search_1_" opacity="0.5">
		<circle fill="#DCE1E5" cx="79.8" cy="199.1" r="5.9"/>
		<path fill="none" stroke="#67717C" stroke-width="0.5" stroke-linecap="round" stroke-miterlimit="10" d="M72.4,199.2
			c0-0.1,0-0.2,0-0.3"/>
		<path fill="none" stroke="#67717C" stroke-width="0.5" stroke-linecap="round" stroke-miterlimit="10" d="M72.7,201.4
			c-0.1-0.4-0.2-0.7-0.2-1.1"/>
		<path fill="none" stroke="#67717C" stroke-width="0.5" stroke-linecap="round" stroke-miterlimit="10" d="M73,197.2
			c1.4-3,4.9-4.2,7.9-2.8s4.2,4.9,2.8,7.9s-4.9,4.2-7.9,2.8c-1.1-0.5-2-1.4-2.6-2.4"/>
		<path fill="none" stroke="#67717C" stroke-width="0.5" stroke-linecap="round" stroke-miterlimit="10" d="M92.3,206.2l-0.1,0.2
			c-0.3,0.6-1,0.8-1.6,0.6l-4.5-2.1c-0.6-0.3-0.8-1-0.6-1.6l0.1-0.2c0.3-0.6,1-0.8,1.6-0.6l4.5,2.1
			C92.3,204.9,92.6,205.6,92.3,206.2z"/>
		<line fill="none" stroke="#67717C" stroke-width="0.5" stroke-miterlimit="10" x1="83.6" y1="202.2" x2="85.5" y2="203.1"/>
		<path fill="none" stroke="#E84B54" stroke-width="0.5" stroke-linecap="round" stroke-miterlimit="10" d="M78.5,195.4
			c0.5,0.1,1,0.2,1.5,0.4c1,0.5,1.8,1.3,2.3,2.3"/>
	</g>
</g>
</svg>
