<?xml version="1.0" encoding="utf-8"?>
<!-- Generator: Adobe Illustrator 22.0.1, SVG Export Plug-In . SVG Version: 6.00 Build 0)  -->
<svg version="1.1" xmlns="http://www.w3.org/2000/svg" xmlns:xlink="http://www.w3.org/1999/xlink" x="0px" y="0px"
	 viewBox="0 0 215.4 220" enable-background="new 0 0 215.4 220" xml:space="preserve">
<g id="static">
	<g>
		<g>
			<circle fill="#DCE1E5" cx="81.5" cy="125.5" r="8.6"/>
		</g>
		<g>
			<circle fill="#DCE1E5" cx="134.5" cy="125.9" r="8.6"/>
		</g>
		<g>
			<circle fill="#DCE1E5" cx="108.9" cy="87.5" r="8.6"/>
		</g>
		<g>
			<path fill="#DCE1E5" d="M108.8,147c-16.9,0-30.7-13.8-30.7-30.7c0-3.1,0.5-6.3,1.4-9.4c0.4-1.3,1.7-2,3-1.6c1.3,0.4,2,1.7,1.6,3
				c-0.8,2.7-1.2,5.4-1.2,8c0,14.3,11.6,25.9,25.9,25.9s25.9-11.6,25.9-25.9s-11.6-25.9-25.9-25.9c-5.2,0-10.2,1.5-14.5,4.4
				c-1.1,0.7-2.6,0.5-3.4-0.7c-0.7-1.1-0.5-2.6,0.7-3.4c5.1-3.4,11-5.3,17.2-5.3c16.9,0,30.7,13.8,30.7,30.7
				C139.5,133.2,125.7,147,108.8,147z"/>
		</g>
		<g>
			<path fill="#67717C" d="M89.3,92.1c-0.1,0-0.2,0-0.2-0.1c-0.1-0.1-0.1-0.3,0.1-0.4c2.6-2,5.4-3.4,8.6-4.4c0.2,0,0.3,0,0.4,0.2
				c0,0.2,0,0.3-0.2,0.4c-3.1,0.9-5.8,2.4-8.4,4.3C89.5,92.1,89.4,92.1,89.3,92.1z"/>
		</g>
		<g>
			<path fill="#67717C" d="M83.2,98.6c-0.1,0-0.1,0-0.2-0.1c-0.1-0.1-0.2-0.3-0.1-0.4c1-1.4,1.8-2.4,2.7-3.3c0.1-0.1,0.3-0.1,0.4,0
				c0.1,0.1,0.1,0.3,0,0.4c-0.9,0.9-1.7,1.8-2.6,3.2C83.3,98.5,83.3,98.6,83.2,98.6z"/>
		</g>
		<g>
			<path fill="#67717C" d="M81.3,101.5c-0.1,0-0.2,0-0.2-0.1c-0.1-0.1-0.1-0.3,0-0.4c0,0,0-0.1,0-0.1c0-0.1,0.1-0.2,0.2-0.4
				c0.1-0.1,0.3-0.1,0.4,0c0.1,0.1,0.1,0.3,0,0.4c0,0,0,0.1,0,0.1c0,0.1-0.1,0.2-0.2,0.4C81.5,101.4,81.4,101.5,81.3,101.5z"/>
		</g>
		<g>
			<path fill="#67717C" d="M78.1,116.1c-0.2,0-0.3-0.1-0.3-0.3v-1.3c0-3.5,0.7-7.1,2-10.4c0.1-0.2,0.2-0.2,0.4-0.2
				c0.2,0.1,0.2,0.2,0.2,0.4c-1.3,3.3-1.9,6.8-1.9,10.2v1.3C78.4,116,78.2,116.1,78.1,116.1z"/>
		</g>
		<g>
			<path fill="#67717C" d="M106.3,142.9c-8.8,0-17-4-22.5-11c-0.1-0.1-0.1-0.3,0.1-0.4c0.1-0.1,0.3-0.1,0.4,0.1
				c5.3,6.8,13.4,10.8,22,10.8c8.6,0,16.6-3.9,22-10.6c0.1-0.1,0.3-0.2,0.4,0c0.1,0.1,0.2,0.3,0,0.4
				C123.2,139,115,142.9,106.3,142.9z"/>
		</g>
		<g>
			<circle fill="#FFFFFF" cx="106.3" cy="86.2" r="8.6"/>
		</g>
		<g>
			<path fill="#67717C" d="M134.7,116.3c-0.2,0-0.3-0.1-0.3-0.3v-1.6c0-9.5-4.8-18.3-12.9-23.6c-0.1-0.1-0.2-0.3-0.1-0.4
				c0.1-0.1,0.3-0.2,0.4-0.1c8.3,5.3,13.2,14.3,13.2,24.1v1.6C135,116.2,134.8,116.3,134.7,116.3z"/>
		</g>
		<g>
			<path fill="#67717C" d="M106.3,95c-4.9,0-8.9-4-8.9-8.9c0-2.7,1.2-5.3,3.4-7c0.1-0.1,0.3-0.1,0.4,0c0.1,0.1,0.1,0.3,0,0.4
				c-2,1.6-3.2,4-3.2,6.5c0,4.6,3.7,8.3,8.3,8.3c4.6,0,8.3-3.7,8.3-8.3s-3.7-8.3-8.3-8.3c-0.2,0-0.3-0.1-0.3-0.3
				c0-0.2,0.1-0.3,0.3-0.3c4.9,0,8.9,4,8.9,8.9S111.2,95,106.3,95z"/>
		</g>
		<g>
			<path fill="#E84B54" d="M103.4,90.8c-0.1,0-0.1,0-0.2-0.1c-1.2-0.9-2.1-2.1-2.3-3.5c-0.3-1.4,0.1-2.9,0.9-4.1
				c0.9-1.2,2.1-2.1,3.5-2.3c1.4-0.3,2.9,0.1,4.1,0.9c1.4,1,2.3,2.6,2.4,4.2c0,0.2-0.1,0.3-0.3,0.3c-0.2,0-0.3-0.1-0.3-0.3
				c-0.1-1.5-0.9-2.8-2.2-3.8c-1.1-0.8-2.4-1.1-3.7-0.8c-1.3,0.2-2.4,1-3.2,2.1c-0.8,1.1-1.1,2.4-0.8,3.7c0.2,1.3,1,2.4,2.1,3.2
				c0.1,0.1,0.2,0.3,0.1,0.4C103.5,90.8,103.4,90.8,103.4,90.8z"/>
		</g>
		<g>
			<circle fill="#FFFFFF" cx="132.9" cy="124.4" r="8.6"/>
		</g>
		<g>
			<path fill="#67717C" d="M132.7,133.4c-4.9,0-8.9-4-8.9-8.9c0-0.2,0.1-0.3,0.3-0.3s0.3,0.1,0.3,0.3c0,4.6,3.7,8.3,8.3,8.3
				c4.6,0,8.3-3.7,8.3-8.3c0-4.6-3.7-8.3-8.3-8.3c-2.4,0-4.5,0.9-6.1,2.6c-0.1,0.1-0.3,0.1-0.4,0c-0.1-0.1-0.1-0.3,0-0.4
				c1.7-1.8,3.9-2.8,6.5-2.8c4.9,0,8.9,4,8.9,8.9C141.6,129.4,137.6,133.4,132.7,133.4z"/>
		</g>
		<g>
			<path fill="#E84B54" d="M132.8,129.5c-0.9,0-1.8-0.2-2.7-0.7c-2.4-1.5-3.1-4.6-1.7-7.1c1.4-2.4,4.5-3.1,7.1-1.7
				c0.1,0.1,0.2,0.3,0.1,0.4c-0.1,0.1-0.3,0.2-0.4,0.1c-2.2-1.3-5-0.6-6.2,1.5c-1.3,2.2-0.7,4.9,1.5,6.2c2.2,1.3,4.9,0.6,6.2-1.5
				c0.1-0.1,0.3-0.2,0.4-0.1c0.1,0.1,0.2,0.3,0.1,0.4C136.1,128.6,134.5,129.5,132.8,129.5z"/>
		</g>
		<g>
			<circle fill="#FFFFFF" cx="79.9" cy="124.4" r="8.6"/>
		</g>
		<g>
			<path fill="#67717C" d="M79.9,133.3c-4.9,0-8.9-4-8.9-8.9c0-4.9,4-8.9,8.9-8.9s8.9,4,8.9,8.9C88.8,129.3,84.8,133.3,79.9,133.3z
				 M79.9,116.1c-4.6,0-8.3,3.7-8.3,8.3c0,4.6,3.7,8.3,8.3,8.3c4.6,0,8.3-3.7,8.3-8.3C88.2,119.8,84.5,116.1,79.9,116.1z"/>
		</g>
		<g>
			<path fill="#E84B54" d="M79.9,129.6c-2.8,0-5.1-2.3-5.1-5.1c0-0.2,0.1-0.3,0.3-0.3c0.2,0,0.3,0.1,0.3,0.3c0,2.5,2,4.5,4.5,4.5
				c2.5,0,4.5-2,4.5-4.5c0-2.5-2-4.5-4.5-4.5c-0.2,0-0.3-0.1-0.3-0.3c0-0.2,0.1-0.3,0.3-0.3c2.8,0,5.1,2.3,5.1,5.1
				C85,127.3,82.7,129.6,79.9,129.6z"/>
		</g>
	</g>
</g>
<g id="decorative">
	<g id="Collaboration_Icon">
		<g>
			<g>
				<g>
					<path fill="#DCE1E5" d="M162,149.5c-0.3,0-0.6-0.3-0.6-0.6v-2.7c0-0.3,0.3-0.6,0.6-0.6s0.6,0.3,0.6,0.6v2.7
						C162.6,149.3,162.3,149.5,162,149.5z"/>
				</g>
				<g>
					<path fill="#DCE1E5" d="M162,140.3c-0.3,0-0.6-0.3-0.6-0.6v-2.5c0-0.3,0.3-0.6,0.6-0.6s0.6,0.3,0.6,0.6v2.5
						C162.6,140.1,162.3,140.3,162,140.3z"/>
				</g>
			</g>
			<g>
				<g>
					<path fill="#DCE1E5" d="M158.7,143.6h-2.5c-0.3,0-0.6-0.3-0.6-0.6s0.3-0.6,0.6-0.6h2.5c0.3,0,0.6,0.3,0.6,0.6
						S159.1,143.6,158.7,143.6z"/>
				</g>
				<g>
					<path fill="#DCE1E5" d="M167.8,143.6h-2.5c-0.3,0-0.6-0.3-0.6-0.6s0.3-0.6,0.6-0.6h2.5c0.3,0,0.6,0.3,0.6,0.6
						S168.1,143.6,167.8,143.6z"/>
				</g>
			</g>
			<g>
				<g>
					<path fill="#DCE1E5" d="M157.9,147.7c-0.2,0-0.3-0.1-0.4-0.2c-0.2-0.2-0.2-0.6,0-0.9l1.8-1.8c0.2-0.2,0.6-0.2,0.9,0
						c0.2,0.2,0.2,0.6,0,0.9l-1.8,1.8C158.2,147.6,158,147.7,157.9,147.7z"/>
				</g>
				<g>
					<path fill="#DCE1E5" d="M164.3,141.3c-0.2,0-0.3-0.1-0.4-0.2c-0.2-0.2-0.2-0.6,0-0.9l1.8-1.8c0.2-0.2,0.6-0.2,0.9,0
						c0.2,0.2,0.2,0.6,0,0.9l-1.8,1.8C164.6,141.2,164.5,141.3,164.3,141.3z"/>
				</g>
			</g>
			<g>
				<g>
					<path fill="#DCE1E5" d="M159.7,141.3c-0.2,0-0.3-0.1-0.4-0.2l-1.8-1.8c-0.2-0.2-0.2-0.6,0-0.9s0.6-0.2,0.9,0l1.8,1.8
						c0.2,0.2,0.2,0.6,0,0.9C160,141.2,159.9,141.3,159.7,141.3z"/>
				</g>
				<g>
					<path fill="#DCE1E5" d="M166.1,147.7c-0.2,0-0.3-0.1-0.4-0.2l-1.8-1.8c-0.2-0.2-0.2-0.6,0-0.9s0.6-0.2,0.9,0l1.8,1.8
						c0.2,0.2,0.2,0.6,0,0.9C166.4,147.6,166.3,147.7,166.1,147.7z"/>
				</g>
			</g>
		</g>
		<g opacity="0.1" enable-background="new    ">
			<path fill="#E84B54" d="M52.3,160.2c-2.1,0-3.9-1.7-3.9-3.9c0-2.1,1.7-3.9,3.9-3.9c2.1,0,3.9,1.7,3.9,3.9
				C56.2,158.4,54.5,160.2,52.3,160.2z M52.3,153.6c-1.5,0-2.7,1.2-2.7,2.7s1.2,2.7,2.7,2.7c1.5,0,2.7-1.2,2.7-2.7
				S53.8,153.6,52.3,153.6z"/>
		</g>
		<g>
			<circle fill="#DCE1E5" cx="141.4" cy="96.9" r="2.4"/>
		</g>
		<g>
			<g>
				<g>
					<path fill="#DCE1E5" d="M99.6,40c-0.2,0-0.3-0.1-0.4-0.2c-0.2-0.2-0.2-0.6,0-0.9l1.3-1.3c0.2-0.2,0.6-0.2,0.9,0
						c0.2,0.2,0.2,0.6,0,0.9l-1.3,1.3C99.9,39.9,99.8,40,99.6,40z"/>
				</g>
				<g>
					<path fill="#DCE1E5" d="M94.5,45.2c-0.1,0-0.3-0.1-0.4-0.2c-0.2-0.2-0.3-0.6,0-0.9l1.3-1.5c0.2-0.2,0.6-0.3,0.9,0
						s0.3,0.6,0,0.9L95,45C94.9,45.1,94.7,45.2,94.5,45.2z"/>
				</g>
			</g>
			<g>
				<g>
					<path fill="#DCE1E5" d="M100.9,45.2c-0.2,0-0.3-0.1-0.4-0.2l-1.3-1.5c-0.2-0.2-0.2-0.6,0-0.9c0.2-0.2,0.6-0.2,0.9,0l1.3,1.5
						c0.2,0.2,0.2,0.6,0,0.9C101.2,45.1,101.1,45.2,100.9,45.2z"/>
				</g>
				<g>
					<path fill="#DCE1E5" d="M95.9,40c-0.2,0-0.3-0.1-0.4-0.2l-1.3-1.3c-0.2-0.2-0.2-0.6,0-0.9c0.2-0.2,0.6-0.2,0.9,0l1.3,1.3
						c0.2,0.2,0.2,0.6,0,0.9C96.2,39.9,96,40,95.9,40z"/>
				</g>
			</g>
		</g>
		<g opacity="0.1" enable-background="new    ">
			<path fill="#E84B54" d="M72.9,88.8c-2.1,0-3.9-1.7-3.9-3.9c0-2.1,1.7-3.9,3.9-3.9c2.1,0,3.9,1.7,3.9,3.9
				C76.7,87.1,75,88.8,72.9,88.8z M72.9,82.3c-1.5,0-2.7,1.2-2.7,2.7c0,1.5,1.2,2.7,2.7,2.7c1.5,0,2.7-1.2,2.7-2.7
				C75.5,83.5,74.3,82.3,72.9,82.3z"/>
		</g>
		<g>
			<g>
				<g>
					<path fill="#DCE1E5" d="M201.4,82.8c-0.2,0-0.3-0.1-0.4-0.2c-0.2-0.2-0.2-0.6,0-0.9l1.3-1.3c0.2-0.2,0.6-0.2,0.9,0
						c0.2,0.2,0.2,0.6,0,0.9l-1.3,1.3C201.7,82.7,201.6,82.8,201.4,82.8z"/>
				</g>
				<g>
					<path fill="#DCE1E5" d="M196.3,88c-0.2,0-0.3-0.1-0.4-0.2c-0.2-0.2-0.2-0.6,0-0.9l1.3-1.3c0.2-0.2,0.6-0.2,0.9,0
						c0.2,0.2,0.2,0.6,0,0.9l-1.3,1.3C196.6,87.9,196.5,88,196.3,88z"/>
				</g>
			</g>
			<g>
				<g>
					<path fill="#DCE1E5" d="M202.7,88c-0.2,0-0.3-0.1-0.4-0.2l-1.3-1.3c-0.2-0.2-0.2-0.6,0-0.9c0.2-0.2,0.6-0.2,0.9,0l1.3,1.3
						c0.2,0.2,0.2,0.6,0,0.9C203.1,87.9,202.9,88,202.7,88z"/>
				</g>
				<g>
					<path fill="#DCE1E5" d="M197.7,82.8c-0.2,0-0.3-0.1-0.4-0.2l-1.3-1.3c-0.2-0.2-0.2-0.6,0-0.9c0.2-0.2,0.6-0.2,0.9,0l1.3,1.3
						c0.2,0.2,0.2,0.6,0,0.9C198,82.7,197.8,82.8,197.7,82.8z"/>
				</g>
			</g>
		</g>
		<g>
			<circle fill="#DCE1E5" cx="34.2" cy="70.6" r="2.4"/>
		</g>
		<g opacity="0.1" enable-background="new    ">
			<path fill="#E84B54" d="M194.6,150.1c-2.1,0-3.9-1.7-3.9-3.9c0-2.1,1.7-3.9,3.9-3.9c2.1,0,3.9,1.7,3.9,3.9
				C198.5,148.4,196.8,150.1,194.6,150.1z M194.6,143.6c-1.5,0-2.7,1.2-2.7,2.7s1.2,2.7,2.7,2.7s2.7-1.2,2.7-2.7
				S196.1,143.6,194.6,143.6z"/>
		</g>
		<g opacity="0.1" enable-background="new    ">
			<path fill="#E84B54" d="M130.4,182l-4.6-6.3c-0.1-0.1-0.2-0.1-0.2,0l-3.1,7.1c0,0.1,0,0.2,0.1,0.2l7.7-0.8
				C130.4,182.3,130.4,182.2,130.4,182z"/>
		</g>
		<g>
			<path fill="#DCE1E5" d="M62.5,109.5l-2.1,5.4c0,0.1,0,0.2,0.1,0.1l5.8-1c0.1,0,0.1-0.1,0.1-0.2l-3.7-4.6
				C62.7,109.5,62.6,109.5,62.5,109.5z"/>
		</g>
		<g opacity="0.1" enable-background="new    ">
			<path fill="#E84B54" d="M22.2,132.5l-2.5-7.4c0-0.1-0.2-0.1-0.2,0l-5.1,5.9c-0.1,0.1,0,0.2,0.1,0.2l7.6,1.5
				C22.1,132.7,22.2,132.6,22.2,132.5z"/>
		</g>
		<g>
			<circle fill="#DCE1E5" cx="81.6" cy="179.8" r="2.4"/>
		</g>
		<g opacity="0.1" enable-background="new    ">
			<path fill="#E84B54" d="M138.8,47.1l-2.5-7.4c0-0.1-0.2-0.1-0.2,0l-5.1,5.9c-0.1,0.1,0,0.2,0.1,0.2l7.6,1.5
				C138.8,47.3,138.9,47.2,138.8,47.1z"/>
		</g>
	</g>
</g>
<g id="elements">
	<g id="machine-learnin">
		<g>
			<path fill="#DCE1E5" d="M177.2,161.7c0.1,0.7,0.7,1.2,1.3,1.1l6.7-0.6c0.7-0.1,1.3-0.4,1.7-1l0.7-1c0.2-0.4,0.4-0.7,0.4-1.1
				l-0.1-1.5c0-0.2-0.1-0.4-0.2-0.5l-0.8-0.7c0,0-0.4-0.6,0.5-0.6l2.3,0.1c1.2,0.1,2.3,1.1,2.4,2.3l0.1,1.7c0,0.4,0.2,0.8,0.6,1.1
				l1,0.8c0.4,0.2,0.8,0.5,1.3,0.4l3.1-0.4c0.4,0,0.7-0.2,0.8-0.5l1-1.1c0.2-0.2,0.4-0.6,0.2-0.8c-0.5-1.5,0.2-1.7,0.2-1.7h0.4
				c0.5,0,0.8-0.2,1.1-0.6l0.8-1c0.4-0.4,0.5-1,0.5-1.5l-0.4-3.6c0-0.5-0.2-0.8-0.6-1.2l-0.8-0.7c-0.2-0.2-0.5-0.2-0.8-0.2l-1.3,0.1
				v-1c0-0.4-0.2-0.7-0.5-1l-1.7-1.5v-0.5c0-0.5-0.4-1-0.8-1.2l-5-2.9c-0.2-0.1-0.5-0.2-0.8-0.1l-0.6,0.1c-0.4,0-0.6,0.2-0.8,0.5
				l-0.6,0.7l-0.2-0.2l-1.1-0.8c-0.4-0.2-0.8-0.5-1.2-0.4l-1.6,0.1c-0.2,0-0.6,0.1-0.8,0.2l-5.8,2.5c-0.4,0.1-0.6,0.4-0.8,0.7
				l-1.1,1.2h-0.6c-0.2,0-0.5,0.1-0.7,0.4l-1.7,2.1h-0.2c-0.6,0-1.1,0.4-1.5,0.8l-2.3,3.9c-0.2,0.4-0.4,0.7-0.2,1.2l0.1,1
				c0,0.2,0.1,0.5,0.4,0.7l0.7,0.6c0.2,0.2,0.5,0.2,0.8,0.2h0.1l0.1,1.5c0,0.4,0.1,0.6,0.4,0.7l1.5,1.1c0.5,0.5,1.2,0.6,1.8,0.6
				l1.7-0.1l0.7-0.1c0,0,0.5,0,0.5,0.4C177.1,161,177.2,161.7,177.2,161.7z"/>
		</g>
		<g>
			<g>
				<path fill="#67717C" d="M176.4,161.2c-0.3,0-0.5-0.1-0.8-0.2c-0.4-0.2-0.6-0.7-0.7-1.1c0-0.2,0.1-0.3,0.2-0.3
					c0.2,0,0.3,0.1,0.3,0.2c0.1,0.3,0.2,0.6,0.4,0.7c0.2,0.1,0.4,0.2,0.5,0.1l6.7-0.6c0.7-0.1,1.2-0.4,1.5-0.8l0.7-1
					c0.2-0.3,0.3-0.6,0.3-0.9l-0.1-1.5c0-0.1,0-0.2-0.2-0.3l-1.6-1.3c-0.1-0.1-0.1-0.3,0-0.4c0.1-0.1,0.3-0.1,0.4,0l1.6,1.3
					c0.1,0.1,0.3,0.3,0.3,0.7l0.1,1.5c0,0.4-0.1,0.9-0.4,1.3l-0.7,1c-0.5,0.8-1.2,1-1.9,1.1l-6.7,0.6
					C176.6,161.2,176.5,161.2,176.4,161.2z"/>
			</g>
			<g>
				<path fill="#67717C" d="M171.4,158.3c-0.6,0-1.2-0.2-1.7-0.7l-1.4-1.2c-0.3-0.3-0.5-0.6-0.5-1c0-0.2,0.1-0.3,0.3-0.3
					s0.3,0.1,0.3,0.3c0,0.2,0.1,0.3,0.3,0.5l1.4,1.2c0.5,0.5,1,0.6,1.6,0.5l1.7-0.1l6.4-0.6c0.2,0,0.3,0.1,0.3,0.3
					c0,0.2-0.1,0.3-0.3,0.3l-6.4,0.6l-1.7,0.1C171.7,158.3,171.6,158.3,171.4,158.3z"/>
			</g>
			<g>
				<path fill="#67717C" d="M167.8,154.4c-0.4,0-0.7-0.2-1-0.3l-0.8-0.6c-0.3-0.2-0.5-0.7-0.5-1l-0.1-0.9c0-0.4,0-1,0.3-1.4l2.3-3.9
					c0.3-0.6,1-1,1.7-1l0.8-0.1c0.3,0,0.6,0,0.9,0.2l6,4.9c0.1,0.1,0.1,0.3,0,0.4c-0.1,0.1-0.3,0.1-0.4,0l-6-5
					c-0.1-0.1-0.3-0.1-0.4-0.1l-0.8,0.1c-0.5,0-1,0.3-1.2,0.7l-2.3,3.9c-0.2,0.3-0.2,0.7-0.2,1.1l0.1,0.9c0,0.2,0.1,0.4,0.2,0.5
					l0.8,0.6c0.2,0.1,0.4,0.2,0.7,0.2c0.2,0,0.3,0.1,0.3,0.3S168,154.4,167.8,154.4z"/>
			</g>
			<g>
				<path fill="#67717C" d="M170,146c-0.1,0-0.1,0-0.2-0.1c-0.1-0.1-0.1-0.3,0-0.4l1.7-2.1c0.2-0.2,0.4-0.3,0.6-0.4
					c0.1,0,0.1,0,0.2-0.1c1-0.3,1.4-1.2,1.4-1.2c0.2-0.4,0.5-0.7,1-0.9l1.1-0.5c0.2-0.1,0.3,0,0.4,0.2c0.1,0.2,0,0.3-0.2,0.4
					l-1.1,0.5c-0.3,0.1-0.5,0.3-0.7,0.6c0,0-0.5,1.1-1.7,1.4c-0.1,0-0.1,0.1-0.2,0.1c-0.1,0-0.3,0.1-0.4,0.2l-1.7,2
					C170.2,145.9,170.1,146,170,146z"/>
			</g>
			<g>
				<path fill="#67717C" d="M188.8,163.6c-0.2,0-0.3-0.1-0.3-0.3l-2.2-22.2c0-0.4-0.2-0.8-0.5-1l-1.7-1.3c-0.2-0.2-0.6-0.3-1-0.3
					l-1.5,0.1c-0.2,0-0.5,0.1-0.7,0.2c-0.1,0.1-0.3,0-0.4-0.1c-0.1-0.1,0-0.3,0.1-0.4c0.3-0.1,0.7-0.3,1-0.3l1.5-0.1c0,0,0,0,0,0
					c0.6,0,1.2,0.2,1.4,0.5l1.7,1.3c0.4,0.3,0.7,0.9,0.7,1.4l2.2,22.2C189.2,163.4,189,163.6,188.8,163.6
					C188.9,163.6,188.9,163.6,188.8,163.6z"/>
			</g>
			<g>
				<path fill="#67717C" d="M177.4,140.3c-0.1,0-0.2,0-0.2-0.1c0,0,0-0.1-0.1-0.1c0,0,0-0.1,0-0.1c0-0.1,0-0.2,0.1-0.2
					c0.1-0.1,0.3-0.1,0.4,0c0,0,0.1,0.1,0.1,0.2c0,0,0,0.1,0,0.1c0,0,0,0.1-0.1,0.1C177.5,140.2,177.4,140.3,177.4,140.3z"/>
			</g>
			<g>
				<path fill="#67717C" d="M183.2,148.3c-0.2,0-0.3-0.1-0.3-0.3l-0.2-3c0-0.4-0.2-0.8-0.5-1l-3.4-2.8c-0.1-0.1-0.1-0.3,0-0.4
					c0.1-0.1,0.3-0.1,0.4,0l3.4,2.8c0.4,0.3,0.7,0.9,0.7,1.4l0.2,3C183.5,148.1,183.3,148.2,183.2,148.3
					C183.2,148.3,183.2,148.3,183.2,148.3z"/>
			</g>
			<g>
				<path fill="#67717C" d="M192.5,146.9c-0.1,0-0.1,0-0.2-0.1c-0.1-0.1-0.1-0.3,0-0.4l1.8-2.2c0.2-0.2,0.3-0.6,0.3-0.9l-0.1-0.7
					c-0.1-0.5-0.4-0.8-0.7-1l-5.1-2.9c-0.2-0.1-0.5-0.1-0.7-0.1l-0.5,0.1c-0.3,0.1-0.5,0.2-0.7,0.4l-0.6,0.7c-0.1,0.1-0.3,0.1-0.4,0
					c-0.1-0.1-0.1-0.3,0-0.4l0.6-0.7c0.3-0.3,0.6-0.4,1-0.6l0.6-0.1c0.3,0,0.7,0,1,0.1l5.1,2.9c0.5,0.2,0.8,0.7,1,1.4l0.1,0.8
					c0,0.5-0.1,1-0.4,1.4l-1.8,2.2C192.6,146.9,192.6,146.9,192.5,146.9z"/>
			</g>
			<g>
				<path fill="#67717C" d="M197.5,155.7c-0.6,0-1-0.1-1.4-0.4l-0.5-0.4c-0.1-0.1-0.3-0.2-0.3-0.5c0-0.2,0-0.4,0.2-0.6l1.1-1.3
					c0.1-0.1,0.3-0.1,0.4,0c0.1,0.1,0.1,0.3,0,0.4l-1.1,1.3c0,0,0,0.1,0,0.1l0.5,0.4c0.3,0.2,0.6,0.3,1,0.3l0.9-0.1
					c0.4-0.1,0.7-0.2,0.9-0.5l0.9-1c0.3-0.3,0.4-0.7,0.4-1.3l-0.4-3.6c0-0.4-0.2-0.8-0.5-1l-0.9-0.7c-0.2-0.1-0.4-0.2-0.6-0.2
					c-0.2,0-0.3-0.1-0.3-0.3c0-0.2,0.1-0.3,0.3-0.3c0.4,0,0.7,0.1,1,0.3l0.9,0.8c0.4,0.3,0.7,0.9,0.7,1.4l0.4,3.6
					c0,0.4-0.1,1.2-0.6,1.7l-0.8,1c-0.3,0.4-0.7,0.6-1.2,0.7L197.5,155.7C197.5,155.7,197.5,155.7,197.5,155.7z"/>
			</g>
			<g>
				<path fill="#67717C" d="M192.2,160.1c-0.3,0-0.6,0-0.9-0.3l-1.7-1.4c-0.1-0.1-0.1-0.3,0-0.4c0.1-0.1,0.3-0.1,0.4,0l1.7,1.5
					c0.2,0.2,0.3,0.2,0.5,0.2l3.5-0.4c0.4,0,0.5-0.1,0.5-0.2l1.1-1.4c0.2-0.2,0.2-0.3,0.2-0.5l-0.1-1.7c0-0.2,0.1-0.3,0.3-0.3
					c0.2,0,0.3,0.1,0.3,0.3l0.1,1.7c0,0.3,0,0.6-0.3,1l-1.1,1.3c-0.1,0.2-0.4,0.5-1,0.5L192.2,160.1
					C192.2,160.1,192.2,160.1,192.2,160.1z"/>
			</g>
			<g>
				<path fill="#67717C" d="M183.5,150.7c-0.4,0-1-0.1-1.3-0.6c-0.1-0.1-0.1-0.3,0.1-0.4c0.1-0.1,0.3-0.1,0.4,0.1
					c0.2,0.2,0.4,0.3,0.8,0.3c0.4,0,0.8-0.6,0.8-1c0-0.2-0.1-0.4-0.3-0.6c-0.1-0.1-0.3-0.2-0.7-0.2c-0.4,0-0.6,0.2-0.8,0.4l-0.4-0.4
					c0.3-0.3,0.6-0.6,1.2-0.6c0.4-0.1,0.8,0.1,1.1,0.3c0.3,0.3,0.5,0.7,0.5,1.1C184.9,149.8,184.3,150.7,183.5,150.7z M182.3,148.4
					L182.3,148.4L182.3,148.4z"/>
			</g>
		</g>
		<g>
			<circle fill="#E84B54" cx="178.9" cy="152.3" r="1"/>
		</g>
		<g>
			<circle fill="#E84B54" cx="189.1" cy="165.2" r="1"/>
		</g>
		<g>
			<circle fill="#E84B54" cx="190.9" cy="148.3" r="1"/>
		</g>
	</g>
	<g>
		<g>
			<path fill="#DCE1E5" d="M162.6,53.9l-8.6-10c-0.5-0.5-0.4-1.3,0.1-1.8l9.6-8.1c0.5-0.5,1.3-0.4,1.8,0.1l17.2,20.2
				c0.5,0.5,0.4,1.3-0.1,1.8l-9.6,8.1c-0.5,0.5-1.3,0.4-1.8-0.1l-1.1-1.3c-0.1-0.1-0.4-0.1-0.5,0l-3.7,3.1c-0.2,0.1-0.5,0-0.5-0.2
				l0.6-7.1c0-0.4-0.1-0.6-0.2-1L162.6,53.9z"/>
		</g>
		<g>
			<path fill="#67717C" d="M165.9,62.7c-0.1,0-0.2,0-0.3-0.1c-0.2-0.1-0.3-0.3-0.3-0.5l0.6-7.2c0-0.2-0.1-0.4-0.2-0.6l-0.1-0.2
				l-3-3.6l-8.6-10c-0.6-0.6-0.4-1.7,0.1-2.2l9.6-8.1c0.6-0.6,1.7-0.4,2.2,0.1l2.2,2.6c0.1,0.1,0.1,0.3,0,0.4
				c-0.1,0.1-0.3,0.1-0.4,0l-2.2-2.5c-0.3-0.3-1-0.5-1.4-0.1l-9.6,8.1c-0.3,0.3-0.5,1-0.1,1.4l8.6,10.1l3.1,3.7l0.1,0.2
				c0.1,0.3,0.2,0.5,0.2,0.9l-0.6,7.2l3.7-3.2c0.2-0.2,0.7-0.2,0.9,0l1.1,1.4c0.2,0.2,0.4,0.3,0.7,0.3c0.3,0,0.5-0.1,0.7-0.2
				l9.6-8.1c0.2-0.2,0.3-0.4,0.3-0.7c0-0.3-0.1-0.5-0.2-0.7l-9.2-10.8c-0.1-0.1-0.1-0.3,0-0.4c0.1-0.1,0.3-0.1,0.4,0l9.2,10.8
				c0.3,0.3,0.4,0.7,0.4,1.1c0,0.4-0.2,0.8-0.5,1.1l-9.6,8.1c-0.3,0.3-0.7,0.4-1.1,0.4c-0.4,0-0.8-0.2-1.1-0.5l-1.1-1.4l-3.8,3.2
				C166.2,62.6,166,62.7,165.9,62.7z"/>
		</g>
		<g>
			<path fill="#67717C" d="M172.4,38.7c-0.1,0-0.2,0-0.3-0.1l-0.2-0.4c-0.1-0.1-0.1-0.3,0.1-0.4c0.1-0.1,0.3-0.1,0.4,0.1l0.2,0.4
				c0.1,0.1,0.1,0.3-0.1,0.4C172.5,38.7,172.5,38.7,172.4,38.7z"/>
		</g>
		<g>
			<path fill="#67717C" d="M170.9,37c-0.1,0-0.2,0-0.2-0.1l-1.5-1.7c-0.1-0.1-0.1-0.3,0-0.4c0.1-0.1,0.3-0.1,0.4,0l1.5,1.7
				c0.1,0.1,0.1,0.3,0,0.4C171.1,37,171,37,170.9,37z"/>
		</g>
		<g>
			<g>
				<circle fill="#E84B54" cx="164.3" cy="41.1" r="1.2"/>
			</g>
			<g>
				<circle fill="#E84B54" cx="168.4" cy="45.9" r="1.2"/>
			</g>
			<g>
				<circle fill="#E84B54" cx="172.5" cy="50.6" r="1.2"/>
			</g>
		</g>
	</g>
	<g>
		<g>
			<path fill="#DCE1E5" d="M199.2,107.1l-23.8-3.3c-0.6-0.1-1-0.6-1-1.2l2.2-16.2c0.1-0.6,0.6-1,1.2-1l23.8,3.3c0.6,0.1,1,0.6,1,1.2
				l-2.2,16.2C200.3,106.7,199.8,107.1,199.2,107.1z"/>
		</g>
		<g>
			<path fill="#67717C" d="M189.9,107.9C189.9,107.9,189.9,107.9,189.9,107.9l-10.8-1.5c-0.2,0-0.3-0.2-0.3-0.3
				c0-0.2,0.2-0.3,0.3-0.3l10.8,1.5c0.2,0,0.3,0.2,0.3,0.3C190.2,107.8,190.1,107.9,189.9,107.9z"/>
		</g>
		<g>
			<g>
				<path fill="#67717C" d="M197.1,104.8l-23.9-3.3c-0.8-0.1-1.2-0.7-1.2-1.5l2.2-16.2c0.2-0.8,0.7-1.2,1.5-1.2l2.9,0.4
					c0.2,0,0.3,0.2,0.3,0.3c0,0.2-0.2,0.3-0.3,0.3l-2.9-0.4c-0.4,0-0.8,0.3-0.9,0.7l-2.2,16.2c0,0.4,0.3,0.8,0.7,0.9l23.8,3.3
					c0.4,0,0.8-0.3,0.9-0.7l2.2-16.2c0-0.4-0.3-0.8-0.7-0.9L188.8,85c-0.2,0-0.3-0.2-0.3-0.3c0-0.2,0.2-0.3,0.3-0.3l10.6,1.5
					c0.8,0.1,1.2,0.7,1.2,1.5l-2.2,16.2C198.4,104.4,197.8,104.8,197.1,104.8z"/>
			</g>
			<g>
				<path fill="#67717C" d="M186.8,84.8C186.8,84.8,186.7,84.8,186.8,84.8l-0.5-0.1c-0.2-0.1-0.2-0.2-0.2-0.4
					c0.1-0.2,0.2-0.2,0.4-0.2l0.4,0.1c0.2,0.1,0.2,0.2,0.2,0.4C187,84.7,186.9,84.8,186.8,84.8z"/>
			</g>
			<g>
				<path fill="#67717C" d="M184.5,84.4C184.5,84.4,184.5,84.4,184.5,84.4l-2.9-0.4c-0.2,0-0.3-0.2-0.3-0.3c0-0.2,0.2-0.3,0.3-0.3
					l2.9,0.4c0.2,0,0.3,0.2,0.3,0.3C184.8,84.3,184.6,84.4,184.5,84.4z"/>
			</g>
		</g>
		<g>
			<path fill="#E84B54" d="M189.7,91.1l-3.9,4.7c0,0.1,0,0.1,0.1,0.2l6.3,0.8c0.1,0,0.1-0.1,0.1-0.1l-2.4-5.6
				C189.8,91,189.7,91,189.7,91.1z"/>
		</g>
		<g>
			<circle fill="#E84B54" cx="182.4" cy="91.1" r="1.7"/>
		</g>
	</g>
	<g>
		<g>
			<path fill="#DCE1E5" d="M118.8,191.4l-11.7,11.7c-0.8,0.8-2.2,0.8-2.9,0l-11.7-11.7c-0.8-0.8-0.8-2.2,0-2.9l11.7-11.7
				c0.8-0.8,2.2-0.8,2.9,0l11.7,11.7C119.7,189.3,119.7,190.6,118.8,191.4z"/>
		</g>
		<g>
			<path fill="#67717C" d="M94.3,197.7c-0.1,0-0.2,0-0.2-0.1l-0.2-0.2c-0.1-0.1-0.1-0.3,0-0.4s0.3-0.1,0.4,0l0.2,0.2
				c0.1,0.1,0.1,0.3,0,0.4C94.4,197.7,94.4,197.7,94.3,197.7z"/>
		</g>
		<g>
			<path fill="#67717C" d="M92.5,195.9c-0.1,0-0.2,0-0.2-0.1l-1.3-1.3c-0.1-0.1-0.1-0.3,0-0.4s0.3-0.1,0.4,0l1.3,1.3
				c0.1,0.1,0.1,0.3,0,0.4C92.6,195.9,92.5,195.9,92.5,195.9z"/>
		</g>
		<g>
			<path fill="#67717C" d="M101.3,203.9C101.2,203.9,101.2,203.9,101.3,203.9c-0.7,0-1.2-0.3-1.6-0.7l-4-4c-0.1-0.1-0.1-0.3,0-0.4
				s0.3-0.1,0.4,0l4,4c0.3,0.3,0.7,0.5,1.1,0.5c0.5,0,1-0.2,1.3-0.5l11.7-11.7c0.3-0.3,0.5-0.7,0.5-1.1c0-0.5-0.2-1-0.5-1.3
				l-11.7-11.7c-0.3-0.3-0.7-0.5-1.1-0.5c-0.5,0-1,0.2-1.3,0.5l-11.7,11.7c-0.3,0.3-0.5,0.7-0.5,1.1c0,0.5,0.2,1,0.5,1.3l1,1
				c0.1,0.1,0.1,0.3,0,0.4c-0.1,0.1-0.3,0.1-0.4,0l-1-1c-0.5-0.5-0.7-1.1-0.7-1.8c0-0.6,0.3-1.2,0.7-1.5l11.7-11.7
				c0.5-0.5,1.1-0.7,1.8-0.7c0.6,0,1.2,0.3,1.5,0.7l11.7,11.7c0.5,0.5,0.7,1.1,0.7,1.8c0,0.6-0.3,1.2-0.7,1.5L103,203.2
				C102.5,203.6,101.9,203.9,101.3,203.9z"/>
		</g>
		<g>
			<path fill="#67717C" d="M93.3,182.7c-0.1,0-0.2,0-0.2-0.1l-3.6-3.6c-0.1-0.1-0.1-0.3,0-0.4c0.1-0.1,0.3-0.1,0.4,0l3.6,3.6
				c0.1,0.1,0.1,0.3,0,0.4C93.5,182.7,93.4,182.7,93.3,182.7z"/>
		</g>
		<g>
			<path fill="#67717C" d="M112.2,201.5c-0.1,0-0.2,0-0.2-0.1l-3.6-3.5c-0.1-0.1-0.1-0.3,0-0.4c0.1-0.1,0.3-0.1,0.4,0l3.6,3.5
				c0.1,0.1,0.1,0.3,0,0.4C112.3,201.4,112.3,201.5,112.2,201.5z"/>
		</g>
		<g>
			<g>
				<path fill="#67717C" d="M105.8,179.8c-0.1,0-0.2,0-0.2-0.1c-0.1-0.1-0.1-0.3,0-0.4l3.6-3.6c0.1-0.1,0.3-0.1,0.4,0
					c0.1,0.1,0.1,0.3,0,0.4l-3.6,3.6C105.9,179.8,105.8,179.8,105.8,179.8z"/>
			</g>
			<g>
				<path fill="#67717C" d="M111.6,185.7c-0.1,0-0.2,0-0.2-0.1c-0.1-0.1-0.1-0.3,0-0.4l3.6-3.6c0.1-0.1,0.3-0.1,0.4,0
					c0.1,0.1,0.1,0.3,0,0.4l-3.6,3.6C111.7,185.7,111.7,185.7,111.6,185.7z"/>
			</g>
		</g>
		<g>
			<circle fill="#E84B54" cx="97.3" cy="190.2" r="1.6"/>
		</g>
		<g>
			<circle fill="#E84B54" cx="101.8" cy="185.7" r="1.6"/>
		</g>
		<g>
			<circle fill="#E84B54" cx="101.8" cy="194.6" r="1.6"/>
		</g>
		<g>
			<circle fill="#E84B54" cx="106.3" cy="190.2" r="1.6"/>
		</g>
	</g>
	<g>
		<g>
			<g>
				<path fill="#DCE1E5" d="M126.9,57.3l-15.7-3.9c-0.8-0.2-1.5-1.1-1.2-1.9l4.6-18.9c0.2-0.8,1.1-1.5,1.9-1.2l9.4,2.4
					c4.4,1.1,7,5.4,5.9,9.8l-3,12.6C128.7,56.9,127.8,57.5,126.9,57.3z"/>
			</g>
		</g>
		<g>
			<g>
				<path fill="#67717C" d="M110.7,36.3C110.7,36.3,110.7,36.3,110.7,36.3c-0.2-0.1-0.3-0.2-0.3-0.4l0.6-2.3c0-0.2,0.2-0.3,0.4-0.2
					c0.2,0,0.3,0.2,0.2,0.4l-0.6,2.3C111,36.2,110.9,36.3,110.7,36.3z"/>
			</g>
		</g>
		<g>
			<g>
				<path fill="#67717C" d="M110.2,38.5C110.2,38.5,110.2,38.5,110.2,38.5c-0.2,0-0.3-0.2-0.3-0.4l0.1-0.5c0-0.2,0.2-0.3,0.4-0.2
					c0.2,0,0.3,0.2,0.2,0.4l-0.1,0.5C110.5,38.4,110.4,38.5,110.2,38.5z"/>
			</g>
		</g>
		<g>
			<g>
				<path fill="#FFFFFF" d="M124.5,31.3l-1.6,6.3c-0.2,0.8,0.4,1.7,1.2,1.9l5.3,1.3C129.5,40.8,131.2,32.8,124.5,31.3z"/>
			</g>
		</g>
		<g>
			<g>
				<path fill="#67717C" d="M125,54.7c-0.2,0-0.3,0-0.5-0.1l-15.7-3.9c-1.1-0.3-1.7-1.3-1.4-2.3l2.1-8.3c0-0.2,0.2-0.3,0.4-0.2
					s0.3,0.2,0.2,0.4l-2.1,8.3c-0.2,0.7,0.4,1.4,1,1.6l15.7,3.9c0.3,0.1,0.7,0,1-0.2c0.3-0.2,0.5-0.5,0.6-0.8l3-12.6
					c0.5-2,0.2-4.1-0.9-5.9c-1.1-1.8-2.8-3-4.8-3.5l-9.4-2.3c-0.7-0.2-1.4,0.4-1.6,1l-0.4,1.4c0,0.2-0.2,0.3-0.4,0.2
					c-0.2,0-0.3-0.2-0.2-0.4l0.4-1.5c0.3-1.1,1.3-1.7,2.3-1.4l9.4,2.3c2.2,0.5,4,1.9,5.2,3.8c1.2,1.9,1.5,4.2,1,6.4l-3,12.6
					c-0.1,0.5-0.5,0.9-0.9,1.2C125.7,54.6,125.4,54.7,125,54.7z"/>
			</g>
		</g>
		<g>
			<g>
				<path fill="#67717C" d="M129.5,41.1C129.4,41.1,129.4,41.1,129.5,41.1l-5.4-1.3c-1.1-0.3-1.7-1.3-1.4-2.3l1.6-6.3
					c0-0.2,0.2-0.3,0.4-0.2c0.2,0,0.3,0.2,0.2,0.4l-1.6,6.3c-0.2,0.7,0.4,1.4,1,1.6l5.3,1.3c0.2,0,0.3,0.2,0.2,0.4
					C129.7,41,129.6,41.1,129.5,41.1z"/>
			</g>
		</g>
		<g>
			<g>
				<g>
					<g>
						<path fill="#E84B54" d="M115.4,47.4c-0.1,0-0.2-0.1-0.3-0.2l-1.3-2.3c-0.2-0.2-0.2-0.4-0.2-0.6c0-0.2,0.2-0.5,0.4-0.6l2.3-1.4
							c0.1-0.1,0.3,0,0.4,0.1c0.1,0.1,0,0.3-0.1,0.4l-2.3,1.5c-0.1,0-0.1,0.1-0.1,0.1c0,0,0,0.1,0,0.1l0,0.1l1.3,2.3
							c0.1,0.1,0,0.3-0.1,0.4C115.5,47.4,115.5,47.4,115.4,47.4z"/>
					</g>
				</g>
				<g>
					<g>
						<path fill="#E84B54" d="M121.6,48.9c-0.1,0-0.2,0-0.3-0.1c-0.1-0.1,0-0.3,0.1-0.4l2.3-1.5c0,0,0.1-0.1,0.1-0.1
							c0-0.1,0-0.2,0-0.2l-1.3-2.3c-0.1-0.1,0-0.3,0.1-0.4c0.1-0.1,0.3,0,0.4,0.1l1.3,2.3c0.1,0.2,0.1,0.4,0.1,0.6
							c0,0.3-0.2,0.5-0.4,0.6l-2.3,1.4C121.7,48.8,121.7,48.9,121.6,48.9z"/>
					</g>
				</g>
			</g>
			<g>
				<g>
					<path fill="#67717C" d="M117.3,48.4c-0.1,0-0.1,0-0.2-0.1c-0.1-0.1-0.2-0.3-0.1-0.4l3.6-5c0.1-0.1,0.3-0.2,0.4-0.1
						c0.1,0.1,0.2,0.3,0.1,0.4l-3.6,5C117.4,48.3,117.4,48.4,117.3,48.4z"/>
				</g>
			</g>
		</g>
	</g>
	<g>
		<g>
			<path fill="#DCE1E5" d="M171.9,186.4h-2.4c-0.2-1-0.6-1.9-1.1-2.8l1.7-1.7c0.2-0.2,0.2-0.7,0-1l-2.8-2.8c-0.2-0.2-0.7-0.2-1,0
				l-1.7,1.7c-0.8-0.5-1.8-0.8-2.8-1.1v-2.4c0-0.4-0.2-0.7-0.7-0.7h-4c-0.4,0-0.7,0.2-0.7,0.7v2.4c-1,0.2-1.9,0.6-2.8,1.1l-1.7-1.7
				c-0.2-0.2-0.7-0.2-1,0l-2.8,2.8c-0.2,0.2-0.2,0.7,0,1l1.7,1.7c-0.5,0.8-0.8,1.8-1.1,2.8h-2.4c-0.4,0-0.7,0.2-0.7,0.7v4
				c0,0.4,0.2,0.7,0.7,0.7h2.4c0.2,1,0.6,1.9,1.1,2.8l-1.7,1.7c-0.2,0.2-0.2,0.7,0,1l2.8,2.8c0.2,0.2,0.7,0.2,1,0l1.7-1.7
				c0.8,0.5,1.8,0.8,2.8,1.1v2.4c0,0.4,0.2,0.7,0.7,0.7h4c0.4,0,0.7-0.2,0.7-0.7v-2.4c1-0.2,1.9-0.6,2.8-1.1l1.7,1.7
				c0.2,0.2,0.7,0.2,1,0l2.8-2.8c0.2-0.2,0.2-0.7,0-1l-1.7-1.7c0.5-0.8,0.8-1.8,1.1-2.8h2.4c0.4,0,0.7-0.2,0.7-0.7v-4
				C172.6,186.8,172.3,186.4,171.9,186.4z"/>
		</g>
		<g>
			<path fill="#67717C" d="M160.3,200.6h-4c-0.7,0-1-0.5-1-1v-2.2c-0.9-0.2-1.7-0.6-2.4-0.9l-1.5,1.5c-0.4,0.4-1,0.4-1.4,0l-2.8-2.8
				c-0.2-0.2-0.3-0.4-0.3-0.7c0-0.3,0.1-0.5,0.3-0.7l1.5-1.5c-0.4-0.7-0.7-1.5-0.9-2.4h-2.2c-0.7,0-1-0.5-1-1v-4c0-0.7,0.5-1,1-1
				h1.1c0.2,0,0.3,0.1,0.3,0.3s-0.1,0.3-0.3,0.3h-1.1c-0.2,0-0.4,0.1-0.4,0.4v4c0,0.2,0.1,0.4,0.4,0.4h2.7l0.1,0.2
				c0.2,1,0.6,1.9,1.1,2.7l0.1,0.2l-1.9,1.9c-0.1,0.1-0.1,0.2-0.1,0.3c0,0.1,0,0.2,0.1,0.3l2.8,2.8c0.1,0.1,0.4,0.1,0.5,0l1.9-1.9
				l0.2,0.1c0.8,0.4,1.7,0.8,2.7,1.1l0.2,0.1v2.7c0,0.2,0.1,0.4,0.4,0.4h4c0.2,0,0.4-0.1,0.4-0.4v-2.7l0.2-0.1
				c1-0.2,1.9-0.6,2.7-1.1l0.2-0.1l1.9,1.9c0.1,0.1,0.4,0.1,0.5,0l2.8-2.8c0.1-0.1,0.1-0.2,0.1-0.3c0-0.1,0-0.2-0.1-0.3l-1.9-1.9
				l0.1-0.2c0.4-0.8,0.8-1.7,1.1-2.7l0.1-0.2h2.7c0.2,0,0.4-0.1,0.4-0.4v-4c0-0.2-0.1-0.4-0.4-0.4h-2.7l-0.1-0.2
				c-0.2-1-0.6-1.9-1.1-2.7l-0.1-0.2l1.9-1.9c0.1-0.1,0.1-0.4,0-0.5l-2.8-2.8c-0.1-0.1-0.4-0.1-0.5,0l-1.9,1.9l-0.2-0.1
				c-0.8-0.4-1.7-0.8-2.7-1.1l-0.2-0.1v-2.7c0-0.2-0.1-0.4-0.4-0.4h-4c-0.2,0-0.4,0.1-0.4,0.4v2.7l-0.2,0.1c-1,0.2-1.9,0.6-2.7,1.1
				l-0.2,0.1l-1.9-1.9c-0.1-0.1-0.4-0.1-0.5,0l-2.8,2.8c-0.1,0.1-0.1,0.4,0,0.5l1.7,1.7c0.1,0.1,0.1,0.3,0,0.4
				c-0.1,0.1-0.3,0.1-0.4,0l-1.7-1.7c-0.4-0.4-0.4-1,0-1.4l2.8-2.8c0.4-0.4,1-0.4,1.4,0l1.5,1.5c0.7-0.4,1.5-0.7,2.4-0.9v-2.2
				c0-0.7,0.5-1,1-1h4c0.7,0,1,0.5,1,1v2.2c0.9,0.2,1.7,0.6,2.4,0.9l1.5-1.5c0.4-0.4,1-0.4,1.4,0l2.8,2.8c0.4,0.4,0.4,1,0,1.4
				l-1.5,1.5c0.4,0.7,0.7,1.5,0.9,2.4h2.2c0.7,0,1,0.5,1,1v4c0,0.7-0.5,1-1,1h-2.2c-0.2,0.9-0.6,1.7-0.9,2.4l1.5,1.5
				c0.2,0.2,0.3,0.4,0.3,0.7c0,0.3-0.1,0.5-0.3,0.7l-2.8,2.8c-0.4,0.4-1,0.4-1.4,0l-1.5-1.5c-0.7,0.4-1.5,0.7-2.4,0.9v2.2
				C161.3,200.3,160.8,200.6,160.3,200.6z"/>
		</g>
		<g>
			<circle fill="#FFFFFF" cx="158.4" cy="186.9" r="6.7"/>
		</g>
		<g>
			<path fill="#E84B54" d="M158.4,193.8c-3.8,0-7-3.1-7-7s3.1-7,7-7c3.8,0,7,3.1,7,7c0,1.4-0.4,2.8-1.1,3.9
				c-0.1,0.1-0.3,0.2-0.4,0.1c-0.1-0.1-0.2-0.3-0.1-0.4c0.7-1,1-2.3,1-3.6c0-3.5-2.8-6.3-6.3-6.3c-3.5,0-6.3,2.8-6.3,6.3
				s2.8,6.3,6.3,6.3c0.2,0,0.3,0.1,0.3,0.3C158.7,193.7,158.5,193.8,158.4,193.8z"/>
		</g>
	</g>
	<g id="cloud_1_">
		<g>
			<g id="MobileMe_19_">
				<g>
					<path fill="#DCE1E5" d="M83.5,29.2c0.7,3.3-1.2,6.4-4.4,7.1l-17.9,4.2c-3.1,0.7-6.4-1.2-7.1-4.5c-0.7-2.9,0.8-5.8,3.5-6.9
						c-0.1-0.2-0.1-0.4-0.2-0.6c-0.5-2.1,0.7-4.1,2.8-4.6c0.8-0.2,1.8-0.1,2.5,0.4c0.5-2.9,1.5-5.6,5.6-6.5c5-1.2,8.2,2.2,9.2,6.2
						c0,0.1,0.1,0.4,0.1,0.5C80.3,24.5,82.8,26.4,83.5,29.2z"/>
				</g>
			</g>
		</g>
		<g>
			<g id="MobileMe_18_">
				<g>
					<path fill="#67717C" d="M56.6,39.8c-1.2,0-2.4-0.3-3.4-1c-1.4-0.9-2.4-2.3-2.7-3.9c-0.7-2.9,0.7-5.9,3.4-7.1c0,0,0,0,0,0
						c0-0.1-0.1-0.2-0.1-0.3c-0.5-2.3,0.8-4.5,3-5c0.8-0.2,1.7-0.2,2.4,0.2l0.3-1.1c0-0.2,0.2-0.3,0.4-0.2c0.2,0,0.3,0.2,0.2,0.4
						l-0.5,1.9l-0.4-0.2c-0.6-0.4-1.5-0.5-2.3-0.3c-1.9,0.4-3,2.3-2.6,4.2c0,0.1,0.1,0.2,0.1,0.3c0,0.1,0.1,0.2,0.1,0.3l0.1,0.3
						l-0.3,0.1c-2.6,1-4,3.9-3.3,6.5c0.3,1.5,1.2,2.7,2.5,3.5c1.3,0.8,2.8,1.1,4.3,0.7l4.2-1c0.2,0,0.3,0.1,0.4,0.2
						c0,0.2-0.1,0.3-0.2,0.4l-4.2,1C57.5,39.8,57,39.8,56.6,39.8z"/>
				</g>
			</g>
			<g id="MobileMe_17_">
				<g>
					<path fill="#67717C" d="M75.9,35.6c-0.1,0-0.3-0.1-0.3-0.2c0-0.2,0.1-0.3,0.2-0.4c3-0.7,4.8-3.7,4.1-6.8
						c-0.6-2.6-3-4.5-5.6-4.4l-0.3,0v-0.3c0,0,0-0.1,0-0.1c0-0.1-0.1-0.2-0.1-0.3c-0.9-3.3-3.4-6.6-7.8-6.2c-0.2,0-0.3-0.1-0.3-0.3
						c0-0.2,0.1-0.3,0.3-0.3c4.8-0.5,7.5,3.1,8.4,6.6l0,0.1c0,0,0,0.1,0,0.1c0,0,0,0,0,0c0,0,0,0,0,0c2.8,0,5.4,2,6,4.8
						C81.3,31.5,79.3,34.8,75.9,35.6C75.9,35.6,75.9,35.6,75.9,35.6z"/>
				</g>
			</g>
			<g id="MobileMe_16_">
				<g>
					<path fill="#67717C" d="M61.8,18.6c-0.1,0-0.2,0-0.2-0.1c-0.1-0.1-0.1-0.3,0-0.4c0.6-0.5,1.3-0.9,2.1-1.3
						c0.2-0.1,0.3,0,0.4,0.2c0.1,0.2,0,0.3-0.2,0.4c-0.8,0.3-1.4,0.7-2,1.2C61.9,18.6,61.8,18.6,61.8,18.6z"/>
				</g>
			</g>
			<g id="MobileMe_15_">
				<g>
					<path fill="#67717C" d="M60.7,20c-0.1,0-0.2,0-0.2-0.1c-0.1-0.1-0.1-0.3,0-0.4c0,0,0-0.1,0.1-0.1c0-0.1,0.1-0.2,0.2-0.3
						c0.1-0.1,0.3-0.1,0.4,0c0.1,0.1,0.1,0.3,0,0.4c0,0,0,0.1-0.1,0.1c0,0.1-0.1,0.2-0.2,0.3C60.8,19.9,60.7,20,60.7,20z"/>
				</g>
			</g>
		</g>
		<g>
			<g>
				<path fill="#E84B54" d="M63.9,45.3c-0.1,0-0.3-0.1-0.3-0.2c0-0.2,0-0.3,0.2-0.4l0.8-0.2c0.6-0.1,1.1-0.4,1.4-0.9
					c0.3-0.5,0.4-1.1,0.2-1.6l-1.7-7.3c0-0.2,0.1-0.3,0.2-0.4c0.2,0,0.3,0.1,0.4,0.2l1.7,7.3c0.2,0.7,0.1,1.5-0.3,2.1
					c-0.4,0.6-1,1-1.7,1.2L63.9,45.3C64,45.3,64,45.3,63.9,45.3z"/>
			</g>
		</g>
		<g>
			<g>
				<path fill="#E84B54" d="M72.4,40.8c-1.3,0-2.3-0.8-2.7-2.1l-1.2-4.8c0-0.2,0.1-0.3,0.2-0.4c0.2,0,0.3,0.1,0.4,0.2l1.2,4.8
					c0.3,1.1,1.4,1.8,2.6,1.6l0.8-0.2c0.2-0.1,0.3,0,0.4,0.2c0,0.2,0,0.3-0.2,0.4L73,40.7C72.8,40.8,72.6,40.8,72.4,40.8z"/>
			</g>
		</g>
	</g>
	<g>
		<g>
			<path fill="#DCE1E5" d="M29.7,151.9l-12.1-6.2c-0.7-0.4-1-1.2-0.6-1.8l6.4-12.6l1-1.9l0.7-1.6l1.7-3.4c0.4-0.7,1.2-1,1.8-0.6
				l12.1,6.2c0.7,0.4,1,1.2,0.6,1.8l-9.8,19.3C31.2,152.1,30.4,152.3,29.7,151.9z"/>
		</g>
		<g>
			<path fill="#67717C" d="M21.4,129.4c0,0-0.1,0-0.1,0c-0.2-0.1-0.2-0.3-0.1-0.4l1.1-2.3c0.1-0.2,0.3-0.2,0.4-0.1
				c0.2,0.1,0.2,0.3,0.1,0.4l-1.1,2.3C21.6,129.3,21.5,129.4,21.4,129.4z"/>
		</g>
		<g>
			<path fill="#67717C" d="M20.4,131.2c-0.1,0-0.2,0-0.2-0.1c-0.1-0.1-0.1-0.3,0-0.4l0.1-0.1c0.1-0.1,0.3-0.1,0.4,0s0.1,0.3,0,0.4
				l-0.1,0.1C20.6,131.2,20.5,131.2,20.4,131.2z"/>
		</g>
		<g>
			<path fill="#67717C" d="M29.2,148.2c-0.3,0-0.5-0.1-0.8-0.2l-12.1-6.2c-0.4-0.2-0.7-0.6-0.9-1c-0.1-0.4-0.1-0.9,0.1-1.2l3.5-6.9
				c0.1-0.1,0.3-0.2,0.4-0.1c0.1,0.1,0.2,0.3,0.1,0.4l-3.5,6.9c-0.1,0.2-0.2,0.5-0.1,0.7c0.1,0.3,0.3,0.5,0.6,0.7l12.1,6.2
				c0.2,0.1,0.5,0.2,0.7,0.1c0.3-0.1,0.5-0.3,0.7-0.6l9.8-19.3c0.1-0.2,0.2-0.5,0.1-0.7c-0.1-0.3-0.3-0.5-0.6-0.7L27.4,120
				c-0.2-0.1-0.5-0.2-0.7-0.1c-0.3,0.1-0.5,0.3-0.7,0.6l-2.2,4.4c-0.1,0.1-0.3,0.2-0.4,0.1c-0.1-0.1-0.2-0.3-0.1-0.4l2.2-4.4
				c0.2-0.4,0.6-0.7,1-0.9c0.4-0.1,0.9-0.1,1.2,0.1l12.1,6.2c0.4,0.2,0.7,0.6,0.9,1c0.1,0.4,0.1,0.9-0.1,1.2l-9.8,19.3
				c-0.2,0.4-0.6,0.7-1,0.9C29.5,148.2,29.4,148.2,29.2,148.2z"/>
		</g>
		<g>
			<circle fill="#E84B54" cx="24.4" cy="141.1" r="1.3"/>
		</g>
	</g>
	<g>
		<g>
			<circle fill="#DCE1E5" cx="54" cy="182.2" r="11.2"/>
		</g>
		<g>
			<path fill="#67717C" d="M51.5,192.1c-0.1,0-0.2,0-0.2,0c-6.4-0.1-11.9-5.6-12-12c0-0.9,0-1.7,0.3-2.6c0-0.2,0.2-0.3,0.4-0.2
				c0.2,0,0.3,0.2,0.2,0.4c-0.2,0.8-0.2,1.6-0.2,2.5c0.1,6.1,5.4,11.3,11.4,11.4c0.1,0,0.1,0,0.2,0c6.5,0,11.8-5.1,11.9-11.5H52.1
				c-0.2,0-0.4-0.1-0.5-0.3c-0.1-0.2-0.1-0.3,0-0.5l4.5-10.5c-1-0.4-2.6-0.8-4.3-0.8c-2.5,0-4.9,0.8-7,2.2c-0.1,0.1-0.3,0.1-0.4-0.1
				c-0.1-0.1-0.1-0.3,0.1-0.4c2.2-1.5,4.7-2.4,7.3-2.4c1.8,0,3.5,0.5,4.5,0.9c0.2,0,0.3,0.1,0.4,0.3c0.1,0.2,0.1,0.4,0,0.5
				l-4.4,10.4l11.3,0c0.3,0,0.5,0.3,0.5,0.5C63.9,186.7,58.3,192.1,51.5,192.1z"/>
		</g>
		<g>
			<path fill="#67717C" d="M43,171.6h-0.7l0.5-0.5c0.2-0.2,0.4-0.1,0.5-0.1l0.2,0.1l-0.1,0.2C43.4,171.5,43.2,171.6,43,171.6z
				 M43.2,171.5L43.2,171.5L43.2,171.5z M43,171c-0.1,0-0.2,0.1-0.2,0.2l0.2,0.1V171z"/>
		</g>
		<g>
			<path fill="#67717C" d="M41,174.5c0,0-0.1,0-0.1,0c-0.1-0.1-0.2-0.3-0.1-0.4c0.3-0.5,0.6-1,1-1.5c0.1-0.1,0.3-0.2,0.4-0.1
				c0.1,0.1,0.2,0.3,0.1,0.4c-0.3,0.5-0.7,0.9-0.9,1.4C41.2,174.4,41.1,174.5,41,174.5z"/>
		</g>
		<g>
			<path fill="#E84B54" d="M65.5,175c-0.4-2.8-1.9-5.1-4.1-6.4c-0.1,0-0.2,0-0.2,0l-4.5,7.3c-0.1,0.1,0,0.4,0.2,0.4l8.5-1
				C65.5,175.2,65.5,175.2,65.5,175z"/>
		</g>
		<g>
			<path fill="none" stroke="#67717C" stroke-width="0.5" stroke-linecap="round" stroke-miterlimit="10" d="M44.1,170.3"/>
		</g>
	</g>
	<g>
		<g>
			<circle fill="#DCE1E5" cx="39.3" cy="76.8" r="11.5"/>
		</g>
		<g>
			<path fill="#67717C" d="M41.6,93.2c-0.1,0-0.2,0-0.3-0.1l-3-4.7c-0.2-0.3-0.7-0.3-1-0.3c-4.4,0.5-8.8-1.6-11.3-5.3
				c-0.1-0.2-0.2-0.4-0.3-0.6c-0.3-0.5-0.6-1.1-0.8-1.7c0-0.2,0-0.3,0.2-0.4c0.2,0,0.3,0,0.4,0.2c0.2,0.6,0.5,1.1,0.7,1.6
				c0.1,0.2,0.2,0.4,0.3,0.6c2.3,3.5,6.5,5.5,10.7,5c0,0,0,0,0,0c0.7,0,1.2,0.2,1.5,0.6l3,4.7c0.1,0.1,0,0.3-0.1,0.4
				C41.7,93.2,41.6,93.2,41.6,93.2z"/>
		</g>
		<g>
			<path fill="#67717C" d="M24.5,76.9c-0.2,0-0.3-0.1-0.3-0.3c0-0.7,0-1.4,0.1-2c0-0.2,0.2-0.3,0.4-0.2c0.2,0,0.3,0.2,0.2,0.4
				c-0.1,0.6-0.1,1.1-0.1,1.9C24.8,76.8,24.7,76.9,24.5,76.9z"/>
		</g>
		<g>
			<path fill="#67717C" d="M25.1,73.2c-0.2,0-0.3-0.1-0.3-0.3v-0.1c0-0.2,0.1-0.3,0.3-0.3c0.2,0,0.3,0.1,0.3,0.3v0.1
				C25.4,73,25.3,73.2,25.1,73.2z"/>
		</g>
		<g>
			<path fill="#67717C" d="M47.7,89.4c-0.1,0-0.2,0-0.3-0.1L44.7,85c-0.3-0.7-0.3-1.2,0.1-1.8c3.2-4.1,3.2-9.8-0.1-13.9
				c-3.2-4-8.9-5.3-13.7-3.1c-2,1-3.7,2.6-4.8,4.6C26.1,71,26,71,25.8,70.9c-0.1-0.1-0.2-0.3-0.1-0.4c1.2-2.1,2.9-3.8,5.1-4.8
				c5-2.4,11-1,14.4,3.2c3.5,4.3,3.5,10.3,0.1,14.6c-0.3,0.4-0.3,0.7-0.1,1.1l2.8,4.2c0.1,0.1,0.1,0.3-0.1,0.4
				C47.8,89.3,47.8,89.4,47.7,89.4z"/>
		</g>
		<g>
			<path fill="#E84B54" d="M36,83.1l4.6,2.4c0.4,0.1,0.7-0.1,0.7-0.5l-0.2-5.2c0-0.4-0.4-0.5-0.6-0.4L36,82.4
				C35.8,82.5,35.8,83,36,83.1z"/>
		</g>
		<g>
			<path fill="#67717C" d="M40.2,94.2c-0.1,0-0.2,0-0.3-0.1c-0.1-0.1,0-0.3,0.1-0.4l9.2-5.8c0.1-0.1,0.3,0,0.4,0.1
				c0.1,0.1,0,0.3-0.1,0.4l-9.2,5.8C40.3,94.2,40.3,94.2,40.2,94.2z"/>
		</g>
		<g>
			<path fill="#67717C" d="M43.6,94.9c-0.1,0-0.2,0-0.3-0.1c-0.1-0.1,0-0.3,0.1-0.4l5.1-3.3c0.1-0.1,0.3,0,0.4,0.1
				c0.1,0.1,0,0.3-0.1,0.4l-5.1,3.3C43.7,94.9,43.7,94.9,43.6,94.9z"/>
		</g>
	</g>
</g>
</svg>
