<?xml version="1.0" encoding="utf-8"?>
<!-- Generator: Adobe Illustrator 22.0.1, SVG Export Plug-In . SVG Version: 6.00 Build 0)  -->
<svg version="1.1" id="analytics3" xmlns="http://www.w3.org/2000/svg" xmlns:xlink="http://www.w3.org/1999/xlink" x="0px" y="0px"
	 viewBox="0 0 600 600" style="enable-background:new 0 0 600 600;" xml:space="preserve">
<style type="text/css">
	.st0{enable-background:new    ;}
	.st1{fill:#C2CCD3;}
	.st2{fill:#F4F7F9;}
	.st3{fill:#DCE1E5;}
	.st4{fill:url(#SVGID_1_);}
	.st5{fill:url(#SVGID_2_);}
	.st6{fill:url(#SVGID_3_);}
	.st7{fill:url(#SVGID_4_);}
	.st8{fill:url(#SVGID_5_);}
	.st9{fill:url(#SVGID_6_);}
	.st10{fill:url(#SVGID_7_);}
	.st11{fill:url(#SVGID_8_);}
	.st12{fill:#FFFFFF;}
</style>
<g id="anim4" class="st0">
	<g>
		<g>
			<polygon class="st1" points="298.1,258.9 353.3,226.9 353.5,211.5 298.3,243.6 			"/>
		</g>
	</g>
	<g>
		<g>
			<polygon class="st2" points="298.3,243.6 353.5,211.5 294,177.2 238.8,209.3 			"/>
		</g>
	</g>
	<g>
		<polygon class="st3" points="238.8,209.3 238.6,224.6 298.1,258.9 298.3,243.6 		"/>
	</g>
</g>
<g id="Layer_1">
</g>
<g class="st0">
	<g>
		<g>
			<polygon class="st1" points="298.1,258.9 353.3,226.9 353.5,211.5 298.3,243.6 			"/>
		</g>
	</g>
	<g>
		<linearGradient id="SVGID_1_" gradientUnits="userSpaceOnUse" x1="238.8491" y1="210.389" x2="353.5289" y2="210.389">
			<stop  offset="0" style="stop-color:#B1BAC1"/>
			<stop  offset="1" style="stop-color:#828B94"/>
		</linearGradient>
		<polygon class="st4" points="298.3,243.6 353.5,211.5 294,177.2 238.8,209.3 		"/>
	</g>
	<g>
		<polygon class="st3" points="238.8,209.3 238.6,224.6 298.1,258.9 298.3,243.6 		"/>
	</g>
</g>
<g class="st0">
	<g>
		<g>
			<polygon class="st1" points="360.4,296 415.5,263.9 415.8,248.6 360.6,280.7 			"/>
		</g>
	</g>
	<g>
		<g>
			<polygon class="st2" points="360.6,280.7 415.8,248.6 356.3,214.3 301.1,246.3 			"/>
		</g>
	</g>
	<g>
		<polygon class="st3" points="301.1,246.3 300.9,261.7 360.4,296 360.6,280.7 		"/>
	</g>
</g>
<g class="st0">
	<g>
		<g>
			<polygon class="st1" points="422.9,333.2 478.1,301.1 478.3,285.8 423.1,317.9 			"/>
		</g>
	</g>
	<g>
		<g>
			<polygon class="st2" points="423.1,317.9 478.3,285.8 418.8,251.5 363.6,283.5 			"/>
		</g>
	</g>
	<g>
		<polygon class="st3" points="363.6,283.5 363.4,298.9 422.9,333.2 423.1,317.9 		"/>
	</g>
</g>
<g class="st0">
	<g>
		<g>
			<polygon class="st1" points="186.5,400 241.7,368 242,352.6 186.8,384.7 			"/>
		</g>
	</g>
	<g>
		<g>
			<polygon class="st2" points="186.8,384.7 242,352.6 182.5,318.3 127.3,350.3 			"/>
		</g>
	</g>
	<g>
		<polygon class="st3" points="127.3,350.3 127.1,365.7 186.5,400 186.8,384.7 		"/>
	</g>
</g>
<g class="st0">
	<g>
		<g>
			<polygon class="st1" points="369.3,439.4 424.5,407.4 424.7,392 369.5,424.1 			"/>
		</g>
	</g>
	<g>
		<g>
			<polygon class="st2" points="369.5,424.1 424.7,392 365.2,357.7 310.1,389.8 			"/>
		</g>
	</g>
	<g>
		<polygon class="st3" points="310.1,389.8 309.8,405.1 369.3,439.4 369.5,424.1 		"/>
	</g>
</g>
<g id="anim3" class="st0">
	<g>
		<g>
			<polygon class="st1" points="422.9,333.2 478.1,301.1 478.3,285.8 423.1,317.9 			"/>
		</g>
	</g>
	<g>
		<linearGradient id="SVGID_2_" gradientUnits="userSpaceOnUse" x1="363.6334" y1="284.6632" x2="478.3132" y2="284.6632">
			<stop  offset="0" style="stop-color:#B1BAC1"/>
			<stop  offset="1" style="stop-color:#828B94"/>
		</linearGradient>
		<polygon class="st5" points="423.1,317.9 478.3,285.8 418.8,251.5 363.6,283.5 		"/>
	</g>
	<g>
		<polygon class="st3" points="363.6,283.5 363.4,298.9 422.9,333.2 423.1,317.9 		"/>
	</g>
</g>
<g class="st0">
	<g>
		<g>
			<polygon class="st1" points="240.1,293.8 295.3,261.7 295.6,246.4 240.4,278.4 			"/>
		</g>
	</g>
	<g>
		<g>
			<polygon class="st2" points="240.4,278.4 295.6,246.4 236.1,212 180.9,244.1 			"/>
		</g>
	</g>
	<g>
		<polygon class="st3" points="180.9,244.1 180.6,259.4 240.1,293.8 240.4,278.4 		"/>
	</g>
</g>
<g class="st0">
	<g>
		<g>
			<polygon class="st1" points="182.2,328.1 237.4,296 237.7,280.7 182.5,312.8 			"/>
		</g>
	</g>
	<g>
		<linearGradient id="SVGID_3_" gradientUnits="userSpaceOnUse" x1="122.9998" y1="279.5451" x2="237.6796" y2="279.5451">
			<stop  offset="0" style="stop-color:#B1BAC1"/>
			<stop  offset="1" style="stop-color:#828B94"/>
		</linearGradient>
		<polygon class="st6" points="182.5,312.8 237.7,280.7 178.2,246.3 123,278.4 		"/>
	</g>
	<g>
		<polygon class="st3" points="123,278.4 122.8,293.7 182.2,328.1 182.5,312.8 		"/>
	</g>
</g>
<g class="st0">
	<g>
		<g>
			<polygon class="st1" points="124.3,362.9 179.5,330.9 179.7,315.5 124.5,347.6 			"/>
		</g>
	</g>
	<g>
		<g>
			<polygon class="st2" points="124.5,347.6 179.7,315.5 120.2,281.2 65,313.3 			"/>
		</g>
	</g>
	<g>
		<polygon class="st3" points="65,313.3 64.8,328.6 124.3,362.9 124.5,347.6 		"/>
	</g>
</g>
<g class="st0">
	<g>
		<g>
			<polygon class="st1" points="302.4,330.9 357.6,298.8 357.8,283.5 302.6,315.5 			"/>
		</g>
	</g>
	<g>
		<linearGradient id="SVGID_4_" gradientUnits="userSpaceOnUse" x1="243.1537" y1="282.321" x2="357.8335" y2="282.321">
			<stop  offset="0" style="stop-color:#B1BAC1"/>
			<stop  offset="1" style="stop-color:#828B94"/>
		</linearGradient>
		<polygon class="st7" points="302.6,315.5 357.8,283.5 298.3,249.1 243.2,281.2 		"/>
	</g>
	<g>
		<polygon class="st3" points="243.2,281.2 242.9,296.5 302.4,330.9 302.6,315.5 		"/>
	</g>
</g>
<g class="st0">
	<g>
		<g>
			<polygon class="st1" points="244.5,365.2 299.7,333.1 299.9,317.8 244.8,349.8 			"/>
		</g>
	</g>
	<g>
		<g>
			<polygon class="st2" points="244.8,349.8 299.9,317.8 240.5,283.4 185.3,315.5 			"/>
		</g>
	</g>
	<g>
		<polygon class="st3" points="185.3,315.5 185,330.8 244.5,365.2 244.8,349.8 		"/>
	</g>
</g>
<g id="anim2" class="st0">
	<g>
		<g>
			<polygon class="st1" points="186.5,400 241.7,368 242,352.6 186.8,384.7 			"/>
		</g>
	</g>
	<g>
		<linearGradient id="SVGID_5_" gradientUnits="userSpaceOnUse" x1="127.3044" y1="351.4772" x2="241.9842" y2="351.4772">
			<stop  offset="0" style="stop-color:#B1BAC1"/>
			<stop  offset="1" style="stop-color:#828B94"/>
		</linearGradient>
		<polygon class="st8" points="186.8,384.7 242,352.6 182.5,318.3 127.3,350.3 		"/>
	</g>
	<g>
		<polygon class="st3" points="127.3,350.3 127.1,365.7 186.5,400 186.8,384.7 		"/>
	</g>
</g>
<g class="st0">
	<g>
		<g>
			<polygon class="st1" points="364.7,368 419.9,335.9 420.1,320.6 364.9,352.6 			"/>
		</g>
	</g>
	<g>
		<g>
			<polygon class="st2" points="364.9,352.6 420.1,320.6 360.6,286.2 305.4,318.3 			"/>
		</g>
	</g>
	<g>
		<polygon class="st3" points="305.4,318.3 305.2,333.6 364.7,368 364.9,352.6 		"/>
	</g>
</g>
<g class="st0">
	<g>
		<g>
			<polygon class="st1" points="307,402.4 362.2,370.3 362.5,355 307.3,387 			"/>
		</g>
	</g>
	<g>
		<linearGradient id="SVGID_6_" gradientUnits="userSpaceOnUse" x1="247.7841" y1="353.8194" x2="362.4639" y2="353.8194">
			<stop  offset="0" style="stop-color:#B1BAC1"/>
			<stop  offset="1" style="stop-color:#828B94"/>
		</linearGradient>
		<polygon class="st9" points="307.3,387 362.5,355 303,320.6 247.8,352.7 		"/>
	</g>
	<g>
		<polygon class="st3" points="247.8,352.7 247.5,368 307,402.4 307.3,387 		"/>
	</g>
</g>
<g class="st0">
	<g>
		<g>
			<polygon class="st1" points="249.1,437.2 304.3,405.1 304.5,389.8 249.3,421.9 			"/>
		</g>
	</g>
	<g>
		<g>
			<polygon class="st2" points="249.3,421.9 304.5,389.8 245,355.5 189.8,387.5 			"/>
		</g>
	</g>
	<g>
		<polygon class="st3" points="189.8,387.5 189.6,402.9 249.1,437.2 249.3,421.9 		"/>
	</g>
</g>
<g class="st0">
	<g>
		<g>
			<polygon class="st1" points="485.1,370.3 540.3,338.2 540.6,322.9 485.4,355 			"/>
		</g>
	</g>
	<g>
		<g>
			<polygon class="st2" points="485.4,355 540.6,322.9 481.1,288.5 425.9,320.6 			"/>
		</g>
	</g>
	<g>
		<polygon class="st3" points="425.9,320.6 425.7,335.9 485.1,370.3 485.4,355 		"/>
	</g>
</g>
<g class="st0">
	<g>
		<g>
			<polygon class="st1" points="427.2,405.1 482.4,373.1 482.6,357.7 427.4,389.8 			"/>
		</g>
	</g>
	<g>
		<linearGradient id="SVGID_7_" gradientUnits="userSpaceOnUse" x1="367.938" y1="356.5953" x2="482.6178" y2="356.5953">
			<stop  offset="0" style="stop-color:#B1BAC1"/>
			<stop  offset="1" style="stop-color:#828B94"/>
		</linearGradient>
		<polygon class="st10" points="427.4,389.8 482.6,357.7 423.1,323.4 367.9,355.5 		"/>
	</g>
	<g>
		<polygon class="st3" points="367.9,355.5 367.7,370.8 427.2,405.1 427.4,389.8 		"/>
	</g>
</g>
<g id="anim1" class="st0">
	<g>
		<g>
			<polygon class="st1" points="369.3,439.4 424.5,407.4 424.7,392 369.5,424.1 			"/>
		</g>
	</g>
	<g>
		<g>
			<polygon class="st2" points="369.5,424.1 424.7,392 365.2,357.7 310.1,389.8 			"/>
		</g>
	</g>
	<g>
		<polygon class="st3" points="310.1,389.8 309.8,405.1 369.3,439.4 369.5,424.1 		"/>
	</g>
</g>
<g class="st0">
	<g>
		<g>
			<polygon class="st1" points="311.3,474.3 366.5,442.2 366.8,426.9 311.6,459 			"/>
		</g>
	</g>
	<g>
		<linearGradient id="SVGID_8_" gradientUnits="userSpaceOnUse" x1="252.0887" y1="425.7515" x2="366.7685" y2="425.7515">
			<stop  offset="0" style="stop-color:#B1BAC1"/>
			<stop  offset="1" style="stop-color:#828B94"/>
		</linearGradient>
		<polygon class="st11" points="311.6,459 366.8,426.9 307.3,392.5 252.1,424.6 		"/>
	</g>
	<g>
		<polygon class="st3" points="252.1,424.6 251.8,439.9 311.3,474.3 311.6,459 		"/>
	</g>
</g>
<g class="st0">
	<g>
		<g>
			<polygon class="st1" points="311.5,356.2 366.6,324.2 366.9,250.5 311.7,282.6 			"/>
		</g>
	</g>
	<g>
		<g>
			<polygon class="st12" points="311.7,282.6 366.9,250.5 307.4,216.2 252.2,248.3 			"/>
		</g>
	</g>
	<g>
		<polygon class="st3" points="252.2,248.3 252,321.9 311.5,356.2 311.7,282.6 		"/>
	</g>
</g>
</svg>
