<?xml version="1.0" encoding="utf-8"?>
<!-- Generator: Adobe Illustrator 22.0.1, SVG Export Plug-In . SVG Version: 6.00 Build 0)  -->
<svg version="1.1" xmlns="http://www.w3.org/2000/svg" xmlns:xlink="http://www.w3.org/1999/xlink" x="0px" y="0px"
	 viewBox="0 0 260 260" style="enable-background:new 0 0 260 260;" xml:space="preserve">
<style type="text/css">
	.st0{fill:#DCE1E5;}
	.st1{fill:#67717C;}
	.st2{fill:#FFFFFF;}
	.st3{fill:#E84B54;}
	.st4{fill:#FDEDEE;}
</style>
<g id="user">
	<g>
		<circle class="st0" cx="137.5" cy="111.8" r="37.8"/>
		<path class="st1" d="M126.2,71.4c2.7-0.6,5.7-1,8.6-1c10.3,0,19.7,4.2,26.4,10.9c6.7,6.8,10.9,16.1,10.9,26.3
			c0,10.3-4.2,19.7-10.9,26.4c-6.8,6.7-16.1,10.9-26.3,10.9c-10.3,0-19.7-4.2-26.4-10.9c-6.7-6.8-10.9-16.1-10.9-26.3
			c0-8.6,3-16.6,7.9-22.9l0,0l0,0c1.6-2.1,3.4-3.9,5.4-5.7c0.1-0.1,0.1-0.2,0-0.4c-0.1-0.1-0.2-0.1-0.4,0c-2,1.7-3.9,3.6-5.5,5.7
			l0.2,0.2l-0.2-0.2c-5,6.4-8,14.5-8,23.2c0,10.4,4.2,19.9,11,26.7c6.8,6.8,16.3,11.1,26.7,11.1c10.4,0,19.9-4.2,26.7-11
			c6.8-6.8,11.1-16.3,11.1-26.7c0-10.4-4.2-19.9-11-26.7c-6.8-6.8-16.3-11.1-26.7-11.1c-3,0-6,0.4-8.7,1c-0.1,0-0.2,0.2-0.2,0.3
			C125.9,71.3,126.1,71.4,126.2,71.4L126.2,71.4z"/>
		<path class="st1" d="M122.7,72.4c0.1,0,0.2-0.1,0.3-0.1l0.1,0l0,0l0,0l0,0l0,0l0,0l0,0c0.1,0,0.2-0.1,0.2-0.2
			c0-0.1-0.1-0.2-0.2-0.2c-0.1,0-0.2,0.1-0.3,0.1l-0.1,0l0,0l0,0v0l0,0l0,0v0c-0.1,0-0.2,0.1-0.2,0.2
			C122.4,72.3,122.5,72.4,122.7,72.4L122.7,72.4z"/>
		<path class="st1" d="M117.3,74.7c1.1-0.6,2.2-1.1,3.4-1.6c0.1-0.1,0.2-0.2,0.1-0.3c-0.1-0.1-0.2-0.2-0.3-0.1
			c-1.2,0.5-2.4,1-3.5,1.6c-0.1,0.1-0.2,0.2-0.1,0.3C117.1,74.7,117.2,74.8,117.3,74.7L117.3,74.7z"/>
		<path class="st1" d="M114.6,76.2c0.4-0.2,0.7-0.5,1.1-0.6c0.1,0,0.2-0.2,0.2-0.3c0-0.1-0.2-0.2-0.3-0.2c-0.4,0.1-0.8,0.4-1.2,0.6
			c-0.1,0.1-0.1,0.2-0.1,0.3C114.4,76.2,114.5,76.2,114.6,76.2L114.6,76.2z"/>
		<path class="st2" d="M159.3,130.9c0,1.5-1.2,2.7-2.7,2.7s-2.7-1.2-2.7-2.7v-6.3c0-1.5,1.2-2.7,2.7-2.7s2.7,1.2,2.7,2.7V130.9z"/>
		<path class="st1" d="M159.3,130.9h-0.2c0,0.7-0.3,1.3-0.7,1.7c-0.5,0.5-1.1,0.7-1.7,0.7c-0.7,0-1.3-0.3-1.7-0.7
			c-0.5-0.5-0.7-1.1-0.7-1.7v-6.3c0-0.7,0.3-1.3,0.7-1.7c0.5-0.5,1.1-0.7,1.7-0.7c0.7,0,1.3,0.3,1.7,0.7c0.5,0.5,0.7,1.1,0.7,1.7
			v6.3H159.3h0.2v-6.3c0-1.6-1.3-3-3-3c-1.6,0-3,1.3-3,3v6.3c0,1.6,1.3,3,3,3c1.6,0,3-1.3,3-3H159.3z"/>
		<path class="st2" d="M160.3,130.9c2.2,0,4,1.8,4,4c0,2.2-1.8,4-4,4c-2.2,0-4-1.8-4-4C156.4,132.7,158.1,130.9,160.3,130.9z"/>
		<path class="st1" d="M160.3,138.6c-1,0-2-0.4-2.6-1.1c-0.7-0.7-1.1-1.6-1.1-2.6c0-1,0.4-2,1.1-2.6c0.7-0.7,1.6-1.1,2.6-1.1
			c1,0,2,0.4,2.6,1.1c0.7,0.7,1.1,1.6,1.1,2.6c0,0.8-0.2,1.5-0.7,2.1c-0.1,0.1-0.1,0.3,0,0.4c0.1,0.1,0.3,0.1,0.4,0
			c0.5-0.7,0.8-1.5,0.8-2.4c0-2.2-1.8-4.2-4.2-4.2c-2.2,0-4.2,1.8-4.2,4.2c0,2.2,1.8,4.2,4.2,4.2c0.1,0,0.2-0.1,0.2-0.2
			C160.6,138.7,160.5,138.6,160.3,138.6L160.3,138.6z"/>
		<path class="st2" d="M115,157.7h10.7c0.7,0,1.2-0.5,1.2-1.2v-16.3h14.6v16.3c0,0.7,0.5,1.2,1.2,1.2h10.7c4.7,0,8.7,3.8,8.7,8.7"/>
		<path class="st1" d="M115,158h10.7c0.4,0,0.8-0.1,1.1-0.4c0.3-0.3,0.4-0.6,0.4-1.1v-16.1h14.1l0,16.1c0,0.4,0.1,0.8,0.4,1.1
			c0.3,0.3,0.6,0.4,1.1,0.4h10.7c2.3,0,4.4,0.9,5.9,2.5c1.5,1.5,2.5,3.6,2.5,6c0,0.1,0.1,0.2,0.2,0.2c0.1,0,0.2-0.1,0.2-0.2
			c0-5-4.1-8.9-8.9-8.9h-10.7c-0.3,0-0.6-0.1-0.7-0.3c-0.2-0.2-0.3-0.4-0.3-0.7v-16.6h-15.1v16.6c0,0.3-0.1,0.6-0.3,0.7
			c-0.2,0.2-0.4,0.3-0.7,0.3H115c-0.1,0-0.2,0.1-0.2,0.2C114.7,157.8,114.9,158,115,158L115,158z"/>
		<path class="st1" d="M133.4,168.6v2.5c0,0.1,0.1,0.2,0.2,0.2s0.2-0.1,0.2-0.2v-2.5c0-0.1-0.1-0.2-0.2-0.2S133.4,168.5,133.4,168.6
			"/>
		<path class="st3" d="M162.6,167.6v6.6c0,0.1-0.1,0.2-0.2,0.2h-41.6c-0.4,0-0.4-0.5,0-0.6l39-8.8
			C161.1,164.9,162.6,166,162.6,167.6z"/>
		<path class="st2" d="M110,130.9c0,1.5,1.2,2.7,2.7,2.7c1.5,0,2.7-1.2,2.7-2.7v-6.3c0-1.5-1.2-2.7-2.7-2.7c-1.5,0-2.7,1.2-2.7,2.7
			V130.9z"/>
		<path class="st1" d="M110,130.9h-0.2c0,1.6,1.3,3,3,3c1.6,0,3-1.3,3-3v-6.3c0-1.6-1.3-3-3-3c-1.6,0-3,1.3-3,3v6.3H110h0.2v-6.3
			c0-0.7,0.3-1.3,0.7-1.7c0.5-0.5,1.1-0.7,1.7-0.7c0.7,0,1.3,0.3,1.7,0.7c0.5,0.5,0.7,1.1,0.7,1.7v6.3c0,0.7-0.3,1.3-0.7,1.7
			c-0.5,0.5-1.1,0.7-1.7,0.7c-0.7,0-1.3-0.3-1.7-0.7c-0.5-0.5-0.7-1.1-0.7-1.7H110z"/>
		<path class="st2" d="M109.1,130.9c2.2,0,4,1.8,4,4c0,2.2-1.8,4-4,4s-4-1.8-4-4C105.1,132.7,106.9,130.9,109.1,130.9z"/>
		<path class="st1" d="M106,131.9c-0.7,0.7-1.1,1.5-1.2,2.4l0.2,0l-0.2,0c0,0.2-0.1,0.5-0.1,0.7c0,2.1,1.5,3.8,3.6,4.1
			c0.2,0,0.5,0.1,0.7,0.1c2.1,0,3.8-1.5,4.1-3.6c0-0.2,0.1-0.5,0.1-0.7c0-2.1-1.5-3.8-3.6-4.1c-0.1,0-0.3,0.1-0.3,0.2
			c0,0.1,0.1,0.3,0.2,0.3c1.9,0.3,3.2,1.8,3.2,3.7c0,0.2,0,0.4-0.1,0.6c-0.3,1.9-1.8,3.2-3.7,3.2c-0.2,0-0.4,0-0.6-0.1
			c-1.9-0.3-3.2-1.8-3.2-3.7c0-0.2,0-0.4,0.1-0.6l0,0l0,0c0.1-0.8,0.5-1.5,1-2.1c0.1-0.1,0.1-0.3,0-0.4
			C106.3,131.8,106.1,131.8,106,131.9L106,131.9z"/>
		<path class="st2" d="M115.4,98.3c3.7,6.9,10.9,11.9,19.4,11.9c8.4,0,15.7-4.7,19.3-11.6c0,0,0.2-0.6,0.5-0.1c1.2,2.7,2,5.8,2,9
			v20.8c0,12-9.8,21.8-21.8,21.8c-12,0-21.8-9.8-21.8-21.8v-20.9c0-3.2,0.7-6.3,2-9.2C114.9,98.1,115.1,97.8,115.4,98.3z"/>
		<path class="st1" d="M115.4,98.3l-0.2,0.1c3.8,7,11,12,19.7,12c8.5,0,15.9-4.8,19.5-11.8l0,0l0,0l0,0l0.1-0.1l0,0l-0.1-0.1l0,0.1
			l0.1,0l-0.1-0.1l0,0.1v-0.1l-0.1,0.1l0.1,0v-0.1l-0.1,0.1l0,0.1l0.2-0.1l-0.2,0.1c1.2,2.7,2,5.8,2,8.9v20.8
			c0,5.9-2.4,11.3-6.3,15.2c-3.9,3.9-9.3,6.3-15.2,6.3c-5.9,0-11.3-2.4-15.2-6.3c-3.9-3.9-6.3-9.3-6.3-15.2v-20.9
			c0-3.2,0.7-6.2,2-9.1l0.2-0.3H115v0.2l0.2-0.2l-0.2-0.1v0.2l0.2-0.2l-0.2,0.2l0.2,0l-0.1-0.2l-0.2,0.2l0.2,0h-0.2l0.1,0.1l0-0.1
			h-0.2l0.1,0.1l-0.1-0.1l0,0.1l0.1,0l-0.1-0.1l0,0.1v-0.1l0,0.1l0,0v-0.1l0,0.1l0,0l0,0l0,0l0,0l0,0l0.1,0.1l0,0l0,0L115.4,98.3
			l0.2-0.1c-0.1-0.1-0.1-0.2-0.2-0.3c-0.1-0.1-0.2-0.1-0.3-0.1c-0.1,0-0.2,0-0.3,0.1c-0.1,0.1-0.1,0.1-0.1,0.3l0.1,0.2l0.2,0.1v-0.2
			l-0.2-0.1c-1.3,2.9-2,6-2,9.3v20.9c0,12.2,9.9,22,22,22c12.2,0,22-9.9,22-22v-20.8c0-3.3-0.8-6.4-2-9.1l0,0l0,0l-0.2-0.2
			c-0.1-0.1-0.2-0.1-0.3-0.1c-0.1,0-0.2,0.1-0.3,0.1c-0.2,0.2-0.2,0.3-0.2,0.4l0.2,0.1l-0.2-0.1c-3.5,6.9-10.8,11.5-19.1,11.5
			c-8.4,0-15.5-4.9-19.2-11.8L115.4,98.3l0.2-0.1L115.4,98.3z"/>
		<path class="st0" d="M127.9,123.8c0,1-0.9,1.9-1.9,1.9c-1,0-1.9-0.9-1.9-1.9s0.9-1.9,1.9-1.9C127,121.8,127.9,122.7,127.9,123.8z"
			/>
		<path class="st0" d="M145.3,123.8c0,1-0.9,1.9-1.9,1.9c-1,0-1.9-0.9-1.9-1.9s0.9-1.9,1.9-1.9C144.6,121.8,145.3,122.7,145.3,123.8
			z"/>
		<path class="st1" d="M138.8,137.3c-0.7,1.3-2.1,2.1-3.6,2.1c-1.5,0-2.9-0.8-3.6-2.1c-0.1-0.1-0.2-0.2-0.3-0.1
			c-0.1,0.1-0.2,0.2-0.1,0.3c0.8,1.4,2.4,2.4,4.1,2.4c1.7,0,3.3-0.9,4.1-2.4c0.1-0.1,0-0.3-0.1-0.3
			C139,137.1,138.9,137.1,138.8,137.3L138.8,137.3z"/>
		<path class="st1" d="M137.3,131.3c0,0.5-0.2,1.1-0.6,1.5c-0.4,0.4-0.9,0.6-1.5,0.6c-0.5,0-1.1-0.2-1.5-0.6
			c-0.4-0.4-0.6-0.9-0.6-1.5c0-0.1-0.1-0.2-0.2-0.2s-0.2,0.1-0.2,0.2c0,1.4,1.2,2.6,2.6,2.6c1.4,0,2.6-1.2,2.6-2.6
			c0-0.1-0.1-0.2-0.2-0.2S137.3,131.2,137.3,131.3L137.3,131.3z"/>
		<path class="st0" d="M116,185.7L99.4,190c-1.4,0.4-2.7-0.5-3-1.7l-8.7-33.6c-0.4-1.4,0.5-2.7,1.7-3l16.6-4.3
			c1.4-0.4,2.7,0.5,3,1.7l8.7,33.6C118.1,184,117.2,185.3,116,185.7z"/>
		<path class="st1" d="M90.7,174.4l-5.4-21.2l0,0c-0.1-0.2-0.1-0.4-0.1-0.6c0-1,0.7-1.9,1.6-2.1l0,0l16.6-4.3l0,0
			c0.2-0.1,0.4-0.1,0.6-0.1c1,0,1.9,0.7,2.1,1.6l0,0l8.7,33.6l0,0c0.1,0.2,0.1,0.4,0.1,0.6c0,1-0.7,1.9-1.6,2.1l0,0l-16.6,4.3l0,0
			c-0.2,0.1-0.4,0.1-0.6,0.1c-1,0-1.9-0.7-2.1-1.6l0,0l-0.4-1.6c0-0.1-0.2-0.2-0.3-0.2c-0.1,0-0.2,0.2-0.2,0.3l0.4,1.6l0.2-0.1
			l-0.2,0c0.2,1.2,1.3,2,2.6,2c0.2,0,0.5,0,0.7-0.1l-0.1-0.2l0.1,0.2l16.6-4.3l-0.1-0.2l0,0.2c1.2-0.2,2-1.3,2-2.6
			c0-0.2,0-0.5-0.1-0.7l-0.2,0.1l0.2-0.1l-8.7-33.6l-0.2,0.1l0.2,0c-0.2-1.2-1.3-2-2.6-2c-0.2,0-0.5,0-0.7,0.1l0.1,0.2l-0.1-0.2
			L86.7,150l0.1,0.2l0-0.2c-1.2,0.2-2,1.3-2,2.6c0,0.2,0,0.5,0.1,0.7l0.2-0.1l-0.2,0.1l5.4,21.2c0,0.1,0.2,0.2,0.3,0.2
			C90.7,174.6,90.7,174.5,90.7,174.4L90.7,174.4z"/>
		<path class="st2" d="M97.2,170.5c4.8-1.2,9-1.2,9.3,0c0.3,1.3-3.3,3.3-8.2,4.5c-4.8,1.2-9,1.2-9.3,0
			C88.7,173.8,92.4,171.8,97.2,170.5z"/>
		<path class="st1" d="M97.2,170.5l0.1,0.2c2.4-0.6,4.6-0.9,6.3-0.9c0.8,0,1.5,0.1,2,0.2c0.2,0.1,0.4,0.2,0.5,0.3
			c0.1,0.1,0.2,0.2,0.2,0.3l0,0.1c0,0.2-0.2,0.5-0.5,0.9c-1.1,1.1-4,2.4-7.5,3.3c-2.4,0.6-4.6,0.9-6.3,0.9c-0.8,0-1.5-0.1-2-0.2
			c-0.2-0.1-0.4-0.2-0.5-0.3c-0.1-0.1-0.2-0.2-0.2-0.3l0-0.1c0-0.2,0.2-0.5,0.5-0.9c1.1-1.1,4-2.4,7.5-3.3L97.2,170.5l-0.1-0.2
			c-2.3,0.6-4.4,1.4-5.9,2.2c-0.7,0.4-1.3,0.8-1.8,1.2c-0.4,0.4-0.7,0.8-0.7,1.2l0,0.2c0.1,0.2,0.2,0.4,0.4,0.6
			c0.6,0.4,1.6,0.6,2.9,0.6c1.7,0,4-0.3,6.4-0.9c2.3-0.6,4.4-1.4,5.9-2.2c0.7-0.4,1.3-0.8,1.8-1.2c0.4-0.4,0.7-0.8,0.7-1.2l0-0.2
			c-0.1-0.2-0.2-0.4-0.4-0.6c-0.6-0.4-1.6-0.6-2.9-0.6c-1.7,0-4,0.3-6.4,0.9L97.2,170.5z"/>
		<path class="st2" d="M98.4,175.7c4.7-1.2,8.8-1.2,9.1,0.1c0.3,1.3-3.2,3.3-7.9,4.5c-4.7,1.2-8.8,1.2-9.1-0.1
			C90.2,178.9,93.7,176.9,98.4,175.7z"/>
		<path class="st1" d="M98.4,175.7l0.1,0.2c2.3-0.6,4.4-0.9,6-0.9c0.8,0,1.5,0.1,2,0.2c0.2,0.1,0.4,0.2,0.6,0.3
			c0.1,0.1,0.2,0.2,0.2,0.3l0,0.1c0,0.2-0.2,0.5-0.5,0.9c-1.1,1.1-3.9,2.3-7.2,3.2c-2.3,0.6-4.4,0.9-6,0.9c-0.8,0-1.5-0.1-2-0.2
			c-0.2-0.1-0.4-0.2-0.6-0.3c-0.1-0.1-0.2-0.2-0.2-0.3l0-0.1c0-0.2,0.2-0.5,0.5-0.9c1.1-1.1,3.9-2.3,7.2-3.2L98.4,175.7l-0.1-0.2
			c-2.3,0.6-4.3,1.4-5.7,2.1c-0.7,0.4-1.3,0.8-1.7,1.2c-0.4,0.4-0.7,0.8-0.7,1.2l0,0.2c0.1,0.2,0.2,0.4,0.4,0.6
			c0.6,0.4,1.6,0.6,2.9,0.6c1.7,0,3.8-0.3,6.1-0.9c2.3-0.6,4.3-1.4,5.7-2.1c0.7-0.4,1.3-0.8,1.7-1.2c0.4-0.4,0.7-0.8,0.7-1.2l0-0.2
			c-0.1-0.2-0.2-0.4-0.4-0.6c-0.6-0.4-1.6-0.6-2.9-0.6c-1.7,0-3.8,0.3-6.1,0.9L98.4,175.7z"/>
		<path class="st2" d="M98.8,180.8c3.7-1,6.9-0.9,7.2,0.1c0.3,1-2.5,2.6-6.3,3.5c-3.7,1-6.9,0.9-7.2-0.1
			C92.3,183.3,95.1,181.7,98.8,180.8z"/>
		<path class="st1" d="M98.8,180.8l0.1,0.2c1.8-0.5,3.5-0.7,4.7-0.7c0.7,0,1.2,0.1,1.6,0.2c0.2,0.1,0.3,0.1,0.4,0.2
			c0.1,0.1,0.1,0.1,0.1,0.2l0,0.1c0,0.1-0.1,0.4-0.4,0.6c-0.9,0.8-3,1.8-5.7,2.5c-1.8,0.5-3.5,0.7-4.7,0.7c-0.7,0-1.2-0.1-1.6-0.2
			c-0.2-0.1-0.3-0.1-0.4-0.2c-0.1-0.1-0.1-0.1-0.1-0.2l0-0.1c0-0.1,0.1-0.4,0.4-0.6c0.9-0.8,3-1.8,5.7-2.5L98.8,180.8l-0.1-0.2
			c-1.8,0.5-3.4,1.1-4.5,1.7c-0.6,0.3-1,0.6-1.4,0.9c-0.3,0.3-0.6,0.6-0.6,1l0,0.2c0,0.2,0.2,0.4,0.3,0.5c0.5,0.4,1.3,0.5,2.3,0.5
			c1.3,0,3-0.2,4.9-0.7c1.8-0.5,3.4-1.1,4.5-1.7c0.6-0.3,1-0.6,1.4-0.9c0.3-0.3,0.6-0.6,0.6-1l0-0.2c0-0.2-0.2-0.4-0.3-0.5
			c-0.5-0.4-1.3-0.5-2.3-0.5c-1.3,0-3,0.2-4.9,0.7L98.8,180.8z"/>
		<path class="st2" d="M88.6,164.9c1.4,0,2.5,2,2.6,4.6c0.1,2.6-1,4.7-2.3,4.8s-2.5-2-2.6-4.6C86.2,167.1,87.2,164.9,88.6,164.9z"/>
		<path class="st1" d="M88.6,164.9l0,0.2l0,0c0.5,0,1.1,0.4,1.5,1.2c0.4,0.8,0.7,1.9,0.8,3.2l0,0.3c0,1.2-0.2,2.3-0.6,3.1
			c-0.4,0.8-0.9,1.2-1.5,1.2l0,0c-0.5,0-1.1-0.4-1.5-1.2c-0.4-0.8-0.7-1.9-0.8-3.2l0-0.3c0-1.2,0.3-2.3,0.6-3.1
			c0.4-0.8,0.9-1.2,1.4-1.2L88.6,164.9l0-0.2c-0.8,0-1.4,0.6-1.9,1.5c-0.4,0.9-0.7,2-0.7,3.3c0,0.1,0,0.2,0,0.3
			c0,1.3,0.4,2.5,0.8,3.4c0.5,0.9,1.2,1.5,2,1.5l0,0c0.8,0,1.4-0.6,1.9-1.5c0.4-0.9,0.7-2,0.7-3.3c0-0.1,0-0.2,0-0.3
			c0-1.3-0.4-2.5-0.8-3.4c-0.5-0.9-1.2-1.5-2-1.5l0,0L88.6,164.9z"/>
		<path class="st1" d="M102.6,149.5c0.4,0,0.8,0.2,1.1,0.5c0.3,0.3,0.5,0.7,0.5,1.1c0,0.4-0.2,0.8-0.5,1.1c-0.3,0.3-0.7,0.5-1.1,0.5
			c-0.4,0-0.8-0.2-1.1-0.5c-0.3-0.3-0.5-0.7-0.5-1.1c0-0.3,0-0.4,0.1-0.6c0.1-0.1,0-0.3-0.1-0.3c-0.1-0.1-0.3,0-0.3,0.1
			c-0.2,0.3-0.1,0.6-0.2,0.9c0,1.1,1,2.1,2.1,2.1c1.1,0,2.1-1,2.1-2.1c0-1.1-1-2.1-2.1-2.1c-0.1,0-0.2,0.1-0.2,0.2
			C102.4,149.4,102.5,149.5,102.6,149.5L102.6,149.5z"/>
	</g>
</g>
<g id="decorative">
	<g>
		<g id="burst1">
			<path class="st0" d="M195.1,96.7c-0.2,0-0.3-0.1-0.3-0.3v-1.6c0-0.2,0.1-0.3,0.3-0.3s0.3,0.1,0.3,0.3v1.6
				C195.4,96.6,195.3,96.7,195.1,96.7z"/>
			<path class="st0" d="M195.1,91.2c-0.2,0-0.3-0.1-0.3-0.3v-1.6c0-0.2,0.1-0.3,0.3-0.3s0.3,0.1,0.3,0.3v1.6
				C195.4,91,195.3,91.2,195.1,91.2z"/>
			<path class="st0" d="M193.1,93.2h-1.6c-0.2,0-0.3-0.1-0.3-0.3c0-0.2,0.1-0.3,0.3-0.3h1.6c0.2,0,0.3,0.1,0.3,0.3
				C193.4,93,193.2,93.2,193.1,93.2z"/>
			<path class="st0" d="M198.6,93.2h-1.6c-0.2,0-0.3-0.1-0.3-0.3c0-0.2,0.1-0.3,0.3-0.3h1.6c0.2,0,0.3,0.1,0.3,0.3
				C198.9,93,198.8,93.2,198.6,93.2z"/>
			<path class="st0" d="M192.6,95.7c-0.1,0-0.2,0-0.2-0.1c-0.1-0.1-0.1-0.3,0-0.4l1.1-1.1c0.1-0.1,0.3-0.1,0.4,0
				c0.1,0.1,0.1,0.3,0,0.4l-1.1,1.1C192.7,95.7,192.6,95.7,192.6,95.7z"/>
			<path class="st0" d="M196.5,91.8c-0.1,0-0.2,0-0.2-0.1c-0.1-0.1-0.1-0.3,0-0.4l1.1-1.1c0.1-0.1,0.3-0.1,0.4,0
				c0.1,0.1,0.1,0.3,0,0.4l-1.1,1.1C196.6,91.7,196.6,91.8,196.5,91.8z"/>
			<path class="st0" d="M193.7,91.8c-0.1,0-0.2,0-0.2-0.1l-1.1-1.1c-0.1-0.1-0.1-0.3,0-0.4c0.1-0.1,0.3-0.1,0.4,0l1.1,1.1
				c0.1,0.1,0.1,0.3,0,0.4C193.8,91.7,193.8,91.8,193.7,91.8z"/>
			<path class="st0" d="M197.6,95.7c-0.1,0-0.2,0-0.2-0.1l-1.1-1.1c-0.1-0.1-0.1-0.3,0-0.4c0.1-0.1,0.3-0.1,0.4,0l1.1,1.1
				c0.1,0.1,0.1,0.3,0,0.4C197.8,95.7,197.7,95.7,197.6,95.7z"/>
		</g>
		<path class="st4" d="M76.6,122c-1.6,0-2.8-1.3-2.8-2.8c0-1.6,1.3-2.8,2.8-2.8l0,0c1.6,0,2.8,1.3,2.8,2.8
			C79.4,120.7,78.1,122,76.6,122 M76.6,115.3L76.6,115.3c-2.1,0-3.8,1.7-3.8,3.8c0,2.1,1.7,3.8,3.8,3.8c2.1,0,3.8-1.7,3.8-3.8
			C80.4,117,78.7,115.3,76.6,115.3"/>
		<path class="st0" d="M189.6,133.3c1.4,0,2.5,1.1,2.5,2.5s-1.1,2.5-2.5,2.5c-1.4,0-2.5-1.1-2.5-2.5S188.3,133.3,189.6,133.3z"/>
		<g id="burst2">
			<path class="st0" d="M131.2,193.4l-1.4,1.5c-0.2,0.2-0.2,0.5,0,0.7s0.5,0.2,0.7,0l1.4-1.5c0.2-0.2,0.2-0.5,0-0.7
				S131.4,193.2,131.2,193.4"/>
			<path class="st0" d="M125.9,198.7l-1.4,1.4c-0.2,0.2-0.2,0.5,0,0.7s0.5,0.2,0.7,0l1.4-1.4c0.2-0.2,0.2-0.5,0-0.7
				S126.1,198.5,125.9,198.7"/>
			<path class="st0" d="M131.9,200l-1.4-1.4c-0.2-0.2-0.5-0.2-0.7,0c-0.2,0.2-0.2,0.5,0,0.7l1.4,1.4c0.2,0.2,0.5,0.2,0.7,0
				C132.1,200.6,132.1,200.2,131.9,200"/>
			<path class="st0" d="M126.6,194.9l-1.4-1.5c-0.2-0.2-0.5-0.2-0.7,0c-0.2,0.2-0.2,0.5,0,0.7l1.4,1.5c0.2,0.2,0.5,0.2,0.7,0
				C126.8,195.4,126.8,195.1,126.6,194.9"/>
		</g>
		<path class="st4" d="M175.4,62.9c-1.6,0-2.8-1.3-2.8-2.8c0-1.6,1.3-2.8,2.8-2.8l0,0c1.6,0,2.8,1.3,2.8,2.8
			C178.2,61.6,177,62.9,175.4,62.9 M175.4,56.2L175.4,56.2c-2.1,0-3.8,1.7-3.8,3.8c0,2.1,1.7,3.8,3.8,3.8c2.1,0,3.8-1.7,3.8-3.8
			C179.2,57.9,177.5,56.2,175.4,56.2"/>
		<g id="burst-3">
			<path class="st0" d="M22.2,142.7l-1.4,1.4c-0.2,0.2-0.2,0.5,0,0.7c0.2,0.2,0.5,0.2,0.7,0l1.4-1.4c0.2-0.2,0.2-0.5,0-0.7
				C22.7,142.5,22.4,142.5,22.2,142.7"/>
			<path class="st0" d="M17,147.9l-1.5,1.4c-0.2,0.2-0.2,0.5,0,0.7c0.2,0.2,0.5,0.2,0.7,0l1.5-1.4c0.2-0.2,0.2-0.5,0-0.7
				S17.2,147.7,17,147.9"/>
			<path class="st0" d="M22.9,149.3l-1.4-1.4c-0.2-0.2-0.5-0.2-0.7,0c-0.2,0.2-0.2,0.5,0,0.7l1.4,1.4c0.2,0.2,0.5,0.2,0.7,0
				C23.1,149.8,23.1,149.5,22.9,149.3"/>
			<path class="st0" d="M17.7,144l-1.5-1.4c-0.2-0.2-0.5-0.2-0.7,0c-0.2,0.2-0.2,0.5,0,0.7l1.5,1.4c0.2,0.2,0.5,0.2,0.7,0
				S17.9,144.2,17.7,144"/>
		</g>
		<path class="st0" d="M87,59.4c1.4,0,2.5,1.1,2.5,2.5c0,1.4-1.1,2.5-2.5,2.5s-2.5-1.1-2.5-2.5C84.5,60.6,85.6,59.4,87,59.4z"/>
		<path class="st4" d="M240.8,157.8c-1.6,0-2.8-1.3-2.8-2.8c0-1.6,1.3-2.8,2.8-2.8l0,0c1.6,0,2.8,1.3,2.8,2.8
			C243.6,156.5,242.4,157.8,240.8,157.8 M240.8,151.1L240.8,151.1c-2.1,0-3.8,1.7-3.8,3.8c0,2.1,1.7,3.8,3.8,3.8
			c2.1,0,3.8-1.7,3.8-3.8C244.6,152.8,242.9,151.1,240.8,151.1"/>
		<path id="triangle3" class="st4" d="M125.4,231.5C125.4,231.5,125.4,231.5,125.4,231.5l-3.3,7.4c0,0.1,0,0.2,0.1,0.2l7.9-0.9
			c0.1,0,0.2-0.1,0.1-0.2l-4.7-6.4C125.5,231.5,125.5,231.5,125.4,231.5"/>
		<path id="triangle2" class="st0" d="M24.3,73.1l-2.1,5.6c0,0.1,0,0.2,0.1,0.1l5.9-1c0.1,0,0.1-0.1,0.1-0.2l-3.8-4.7
			C24.4,73,24.4,73,24.3,73.1z"/>
		<path id="triangle2_1_" class="st4" d="M189.5,20.8c-0.1,0-0.1,0-0.1,0.1l-5.2,6.1c-0.1,0.1,0,0.2,0.1,0.2l7.8,1.5
			c0,0,0.1-0.1,0.1-0.2l-2.6-7.6C189.6,20.9,189.6,20.8,189.5,20.8"/>
	</g>
</g>
<g id="elements">
	<g id="play_1_">
		<path class="st1" d="M208.2,59c-1,0.1-2.1,0.4-3,0.8c-0.1,0.1-0.2,0.2-0.1,0.3c0.1,0.1,0.2,0.2,0.3,0.1c0.8-0.4,1.9-0.6,2.9-0.7
			c0.1,0,0.2-0.1,0.2-0.3C208.5,59.1,208.4,59,208.2,59L208.2,59z"/>
		<path class="st1" d="M210.6,59c-0.1,0-0.4,0-0.5,0c-0.1,0-0.2,0.1-0.2,0.2c0,0.1,0.1,0.2,0.2,0.2c0.1,0,0.4,0,0.5,0
			c0.1,0,0.2-0.1,0.2-0.2C210.9,59.1,210.7,59,210.6,59L210.6,59z"/>
		<g>
			<path class="st0" d="M211.8,60.8c6.5,0,11.8,5.3,11.8,11.8c0,6.5-5.3,11.8-11.8,11.8c-6.5,0-11.8-5.3-11.8-11.8
				C200.1,66,205.3,60.8,211.8,60.8z"/>
			<g id="play">
				<path class="st1" d="M202.8,60.9c-0.6,0.4-1.3,0.9-1.9,1.5c-1.9,1.9-3.3,4.4-3.7,7.2l0,0c-0.1,0.6-0.1,1.1-0.1,1.7
					c0,2.9,1.1,5.7,2.8,7.7l0.2-0.2l-0.2-0.1l-1.6,5.7l0.2,0.1l-0.2-0.1l-0.1,0.2c0,0.2,0.1,0.3,0.3,0.4c0.1,0.1,0.3,0.1,0.4,0.1h0
					l6.4-2.4l-0.1-0.2l-0.1,0.2c1.4,0.5,2.8,0.8,4.3,0.8c1,0,2.1-0.1,3.2-0.4l-0.1-0.2l0.1,0.2c4.8-1.3,8.5-5.3,9.1-10.1l0,0
					c0.1-0.6,0.1-1.2,0.1-1.8c0-5.6-3.7-10.3-8.8-11.8c-0.1,0-0.3,0-0.3,0.2c0,0.1,0,0.3,0.2,0.3c4.9,1.4,8.5,5.9,8.5,11.3
					c0,0.6,0,1.1-0.1,1.7l0,0c-0.6,4.6-4.1,8.5-8.7,9.7l0,0l0,0c-1,0.3-2,0.4-3,0.4c-1.4,0-2.8-0.3-4.1-0.8l-0.1,0l-6.4,2.4l0.1,0.2
					v-0.2l-0.2,0l0,0l0,0l0,0l0,0l0,0l0,0l-0.1,0h0.1l0,0l-0.1,0h0.1h0l0,0l0,0h0l0,0l0,0l0,0l1.7-5.8l-0.1-0.1
					c-1.6-1.9-2.7-4.6-2.7-7.4c0-0.5,0-1.1,0.1-1.6l0,0l0,0c0.4-2.7,1.7-5.1,3.5-6.9c0.6-0.6,1.2-1.1,1.8-1.4
					c0.1-0.1,0.2-0.2,0.1-0.3C203.1,60.9,202.9,60.9,202.8,60.9L202.8,60.9z"/>
				<path class="st3" d="M213.1,71.3l-5.3-3.1c-0.2-0.1-0.4,0-0.4,0.2v6.2c0,0.2,0.2,0.4,0.4,0.2l5.3-3.1
					C213.2,71.8,213.2,71.4,213.1,71.3z"/>
			</g>
		</g>
	</g>
	<g id="cart">
		<path class="st0" d="M196.7,180l22.9-3.7c0.7-0.1,1.4,0.5,1.4,1.2l-0.9,6.9c-0.1,1-0.9,1.9-1.9,2.2l-17.2,5.2
			c-0.6,0.1-1.2-0.1-1.5-0.7l-4-9.7C195.5,180.9,196,180.2,196.7,180z"/>
		<path class="st1" d="M190.3,175.3l0.2,0c0.5,0,0.9,0.3,1.1,0.7l0,0l6.3,15.1l0,0c0.7,1.6,2.3,2.7,4,2.7c0.3,0,0.5,0,0.8-0.1l0-0.2
			l0,0.2l15.5-2.6c0.1,0,0.2-0.2,0.2-0.3c0-0.1-0.2-0.2-0.3-0.2l-15.5,2.6l0,0c-0.2,0-0.4,0.1-0.7,0.1c-1.5,0-2.9-1-3.5-2.4l0,0
			l-6.3-15.1l-0.2,0.1l0.2-0.1c-0.2-0.6-0.8-1.1-1.6-1c-0.1,0-0.2,0-0.3,0c-0.1,0-0.2,0.2-0.2,0.3
			C190.1,175.3,190.2,175.3,190.3,175.3L190.3,175.3z"/>
		<path class="st1" d="M208.3,176.9l9.5-1.6l0.1,0c0.3,0,0.5,0.1,0.6,0.3c0.2,0.2,0.3,0.4,0.3,0.7h0.2l-0.2,0l-0.9,6.9
			c-0.1,0.9-0.8,1.7-1.7,2l0.1,0.2l-0.1-0.2l-14.9,4.6c-0.1,0-0.2,0.2-0.2,0.3c0,0.1,0.2,0.2,0.3,0.2l14.9-4.6l0,0
			c1.1-0.4,1.9-1.3,2-2.4l0.9-7v0c0-0.8-0.6-1.5-1.4-1.5l-0.2,0l-9.5,1.6c-0.1,0-0.2,0.2-0.2,0.3C208,176.9,208.2,177,208.3,176.9
			L208.3,176.9z"/>
		<path class="st1" d="M203.8,177.7l2.2-0.4c0.1,0,0.2-0.2,0.2-0.3c0-0.1-0.2-0.2-0.3-0.2l-2.2,0.4c-0.1,0-0.2,0.2-0.2,0.3
			C203.6,177.6,203.7,177.7,203.8,177.7"/>
		<path class="st1" d="M201.8,178l0.2-0.1c0.1-0.1,0.2-0.2,0.1-0.3c-0.1-0.1-0.2-0.2-0.3-0.1l-0.2,0.1c-0.1,0.1-0.2,0.2-0.1,0.3
			C201.5,178,201.7,178.1,201.8,178"/>
		<path class="st1" d="M193.4,179.4l5.6-1c0.1,0,0.2-0.2,0.2-0.3s-0.2-0.2-0.3-0.2l-5.6,1c-0.1,0-0.2,0.2-0.2,0.3
			S193.3,179.4,193.4,179.4"/>
		<path class="st1" d="M217.3,198.7c-0.4,0.2-0.7,0.5-1.2,0.6l0.1,0.2l0-0.2c-0.1,0-0.3,0-0.4,0c-1.1,0-1.9-0.7-2-1.8
			c0-0.1,0-0.2,0-0.3c0-0.6,0.2-1.1,0.5-1.5c0.3-0.4,0.7-0.6,1.3-0.7c0.1,0,0.2,0,0.3,0c0.6,0,1.1,0.2,1.5,0.5
			c0.4,0.3,0.6,0.7,0.7,1.3l0,0l0,0l0,0.2c0,0.2-0.1,0.4-0.2,0.7c0,0.1,0,0.3,0.2,0.3c0.1,0,0.3,0,0.3-0.2c0.1-0.3,0.2-0.5,0.2-0.9
			c0-0.1,0-0.3-0.1-0.4l-0.2,0.1l0.2,0c-0.1-0.7-0.4-1.3-0.9-1.6c-0.5-0.4-1.1-0.6-1.8-0.6c-0.1,0-0.2,0-0.3,0
			c-0.7,0.1-1.3,0.4-1.6,0.9c-0.4,0.5-0.6,1.1-0.6,1.8c0,0.1,0,0.2,0,0.3c0.1,1.3,1.2,2.3,2.5,2.3c0.2,0,0.3,0,0.5,0l0,0l0,0
			c0.5-0.1,0.9-0.4,1.3-0.7c0.1-0.1,0.1-0.2,0.1-0.3C217.6,198.6,217.4,198.6,217.3,198.7L217.3,198.7z"/>
		<path class="st1" d="M203.8,196.9c0.1,0,0.3,0,0.4,0c1.1,0,1.9,0.7,2,1.8c0,0.1,0,0.2,0,0.3c0,0.6-0.2,1.1-0.5,1.5
			c-0.3,0.4-0.7,0.6-1.3,0.7c-0.1,0-0.2,0-0.3,0c-0.6,0-1.1-0.2-1.5-0.5c-0.4-0.3-0.6-0.7-0.7-1.3l0,0l0,0c0-0.1,0-0.3,0-0.4
			c0-0.6,0.2-1.1,0.7-1.5c0.1-0.1,0.1-0.2,0-0.4c-0.1-0.1-0.2-0.1-0.4,0c-0.6,0.5-0.9,1.1-0.9,1.9c0,0.1,0,0.3,0,0.5l0.2,0l-0.2,0
			c0.1,0.7,0.4,1.3,0.9,1.6c0.5,0.4,1.1,0.6,1.8,0.6c0.1,0,0.2,0,0.3,0c0.7-0.1,1.3-0.4,1.6-0.9c0.4-0.5,0.6-1.1,0.6-1.8
			c0-0.1,0-0.2,0-0.3c-0.1-1.3-1.2-2.3-2.5-2.3c-0.2,0-0.3,0-0.5,0c-0.1,0-0.2,0.2-0.2,0.3C203.6,196.8,203.7,196.9,203.8,196.9
			L203.8,196.9z"/>
		<path class="st3" d="M200,182.9l4.1-0.7c0.1,0,0.2-0.2,0.2-0.3c0-0.1-0.2-0.2-0.3-0.2l-4.1,0.7c-0.1,0-0.2,0.2-0.2,0.3
			C199.7,182.8,199.9,182.9,200,182.9"/>
		<path class="st3" d="M200.5,185.5l8.4-1.5c0.1,0,0.2-0.2,0.2-0.3c0-0.1-0.2-0.2-0.3-0.2l-8.4,1.5c-0.1,0-0.2,0.2-0.2,0.3
			C200.2,185.4,200.4,185.5,200.5,185.5"/>
	</g>
	<g id="watch">
		<path class="st0" d="M224.4,145.5l-9.4-5.2c-2.2-1.2-3-4-1.7-6.2l5.8-10.4c1.2-2.2,4-3,6.2-1.7l9.4,5.2c2.2,1.2,3,4,1.7,6.2
			l-5.8,10.4C229.3,145.9,226.5,146.7,224.4,145.5z"/>
		<path class="st1" d="M219.5,140.9l-1.2-0.6l-4.3-2.5l0,0c-1.4-0.8-2.2-2.2-2.2-3.7c0-0.7,0.2-1.5,0.6-2.1l6.1-10.9
			c0.8-1.4,2.2-2.2,3.7-2.2c0.7,0,1.5,0.2,2.1,0.6l10,5.6c1.4,0.8,2.2,2.2,2.2,3.7c0,0.7-0.2,1.5-0.6,2.1l-6.1,10.9
			c-0.8,1.4-2.2,2.2-3.7,2.2c-0.7,0-1.5-0.2-2.1-0.6c-0.1-0.1-0.3,0-0.3,0.1c-0.1,0.1,0,0.3,0.1,0.3c0.8,0.4,1.6,0.6,2.4,0.6
			c1.7,0,3.3-0.9,4.1-2.5l6.1-10.9c0.4-0.8,0.6-1.6,0.6-2.4c0-1.7-0.9-3.3-2.5-4.1l-10-5.6c-0.8-0.4-1.6-0.6-2.4-0.6
			c-1.7,0-3.3,0.9-4.1,2.5l-6.1,10.9c-0.4,0.8-0.6,1.6-0.6,2.4c0,1.7,0.9,3.3,2.5,4.1l0.1-0.2l-0.1,0.2l4.3,2.5l1.2,0.6
			c0.1,0.1,0.3,0,0.3-0.1C219.7,141.1,219.6,141,219.5,140.9L219.5,140.9z"/>
		<path class="st1" d="M226.8,115.4c0.3-0.1,0.5-0.1,0.8-0.1c0.5,0,1,0.1,1.5,0.5l0,0l5.6,3.1l0,0c1,0.6,1.6,1.6,1.6,2.6
			c0,0.3,0,0.5-0.1,0.8l-0.9,3.6c0,0.1,0.1,0.3,0.2,0.3c0.1,0,0.3-0.1,0.3-0.2l0.9-3.6l0,0c0.1-0.3,0.1-0.6,0.1-0.9
			c0-1.3-0.7-2.4-1.8-3.1l0,0l-5.6-3.1l-0.1,0.2l0.1-0.2c-0.5-0.4-1.1-0.5-1.8-0.5c-0.3,0-0.6,0-0.9,0.1c-0.1,0-0.2,0.2-0.2,0.3
			C226.5,115.3,226.6,115.4,226.8,115.4L226.8,115.4z"/>
		<path class="st1" d="M225.1,116.5l0.2-0.1c0.1-0.1,0.2-0.2,0.1-0.3c-0.1-0.1-0.2-0.2-0.3-0.1l-0.2,0.1c-0.1,0.1-0.2,0.2-0.1,0.3
			C224.8,116.5,225,116.5,225.1,116.5"/>
		<path class="st1" d="M222.7,118.9l1.5-1.4c0.1-0.1,0.1-0.3,0-0.4c-0.1-0.1-0.3-0.1-0.4,0l-1.5,1.4c-0.1,0.1-0.1,0.3,0,0.4
			C222.4,119,222.6,119,222.7,118.9"/>
		<path class="st1" d="M212.2,136.8l-0.9,3.7l0.2,0.1l-0.2-0.1c-0.1,0.3-0.1,0.6-0.1,0.8c0,1.3,0.7,2.5,1.8,3.2l0,0l5.6,3.1l0,0
			c0.6,0.3,1.2,0.5,1.8,0.5c1,0,1.9-0.4,2.6-1.1l2.5-2.5c0.1-0.1,0.1-0.3,0-0.4c-0.1-0.1-0.3-0.1-0.4,0l-2.5,2.5
			c-0.6,0.6-1.5,1-2.3,1c-0.5,0-1-0.1-1.5-0.4l0,0l-5.6-3.1l-0.1,0.2l0.1-0.2c-0.9-0.6-1.6-1.6-1.6-2.7c0-0.2,0-0.5,0.1-0.7l0,0
			l0.9-3.7c0-0.1-0.1-0.3-0.2-0.3C212.4,136.5,212.3,136.6,212.2,136.8L212.2,136.8z"/>
		<path class="st1" d="M235.5,132.1l0.5,0.2l0.1-0.2l-0.1,0.2c0.2,0.1,0.3,0.3,0.3,0.4c0,0.1,0,0.2-0.1,0.3l0,0l-1.4,2.5l0.2,0.1
			l-0.2-0.1c-0.1,0.2-0.3,0.3-0.4,0.3c-0.1,0-0.2,0-0.3-0.1l0,0l-0.5-0.3c-0.1-0.1-0.3,0-0.3,0.1c-0.1,0.1,0,0.3,0.1,0.3l0.5,0.2
			l0.1-0.2l-0.1,0.2c0.2,0.1,0.3,0.2,0.5,0.2c0.3,0,0.6-0.2,0.8-0.5l0,0l1.4-2.5l-0.2-0.1l0.2,0.1c0.1-0.2,0.2-0.3,0.2-0.5
			c0-0.3-0.2-0.6-0.5-0.8l0,0l-0.5-0.3c-0.1-0.1-0.3,0-0.3,0.1C235.3,131.9,235.4,132,235.5,132.1L235.5,132.1z"/>
		<path class="st1" d="M232,138.4l0.5,0.2l0.1-0.2l-0.1,0.2c0.2,0.1,0.3,0.3,0.3,0.4c0,0.1,0,0.2-0.1,0.3l0,0l-1.4,2.5l0.2,0.1
			l-0.2-0.1c-0.1,0.2-0.3,0.3-0.4,0.3c-0.1,0-0.2,0-0.3-0.1l0,0l-0.5-0.3c-0.1-0.1-0.3,0-0.3,0.1c-0.1,0.1,0,0.3,0.1,0.3l0.5,0.2
			l0.1-0.2l-0.1,0.2c0.2,0.1,0.3,0.2,0.5,0.2c0.3,0,0.6-0.2,0.8-0.5l0,0l1.4-2.5l-0.2-0.1l0.2,0.1c0.1-0.2,0.2-0.3,0.2-0.5
			c0-0.3-0.2-0.6-0.5-0.8l0,0l-0.5-0.3c-0.1-0.1-0.3,0-0.3,0.1C231.9,138.2,231.9,138.3,232,138.4L232,138.4z"/>
		<path class="st3" d="M223.5,129.1l-0.4,0.6l-0.4,0.7l-1.1,2c-0.1-0.2-0.2-0.4-0.5-0.5c-0.6-0.4-1.5-0.1-1.9,0.5
			c-0.4,0.6-0.1,1.5,0.5,1.9c0.6,0.4,1.5,0.1,1.9-0.5l1.7-3.2l3.5,0.7l-1.1,2c-0.1-0.2-0.2-0.4-0.5-0.5c-0.6-0.4-1.5-0.1-1.9,0.5
			c-0.4,0.6-0.1,1.5,0.5,1.9c0.6,0.4,1.4,0.1,1.7-0.4l1.9-3.2l0.2-0.5l0.5-0.9L223.5,129.1z"/>
	</g>
	<g>
		<path class="st1" d="M32.6,127.1c-2.1-0.1-4-0.8-5.7-2.2l-0.3,0l0,0.3c1.8,1.4,3.8,2.1,5.9,2.3c0.1,0,0.2-0.1,0.2-0.2
			C32.8,127.2,32.7,127.1,32.6,127.1L32.6,127.1z"/>
		<path class="st0" d="M24.5,123.8l-0.2,4.8c0,0.5,0.2,1.1,0.7,1.5L43.2,145c0.7,0.6,1.9,0.6,2.5-0.1l6.2-7.6
			c0.6-0.7,0.4-1.7-0.4-2.4l-18.2-14.9c-0.5-0.4-1-0.5-1.6-0.4l-5.4,2.1C25.2,121.8,24.5,122.7,24.5,123.8z M29.4,124.1
			c1,0.7,1.1,2.1,0.4,3c-0.7,0.9-2.1,1-3,0.2c-1-0.7-1.1-2.1-0.4-3C27.2,123.3,28.5,123.2,29.4,124.1z"/>
		<path class="st1" d="M37.6,142.8l-13.4-11l0,0c-0.3-0.3-0.6-0.7-0.6-1.1c0-0.1,0-0.2,0-0.3l0,0l0.5-5.3l-0.2,0l0.2,0
			c0.1-1,0.8-1.9,1.8-2.3l-0.1-0.2l0.1,0.2l5.1-1.5l-0.1-0.2l0,0.2c0.1,0,0.3,0,0.4,0c0.4,0,0.8,0.1,1.1,0.4l0.1-0.2l-0.2,0.2
			l19.1,15.6l0,0c0.4,0.3,0.6,0.8,0.6,1.3c0,0.4-0.1,0.7-0.3,1l0,0l-6.2,7.6l0,0c-0.3,0.4-0.8,0.6-1.3,0.6c-0.4,0-0.7-0.1-1-0.3
			c-0.1-0.1-0.3-0.1-0.4,0c-0.1,0.1-0.1,0.3,0,0.4c0.4,0.3,0.8,0.5,1.3,0.5c0.6,0,1.2-0.2,1.6-0.7l0,0l6.2-7.6l0,0
			c0.3-0.4,0.5-0.8,0.5-1.3c0-0.6-0.2-1.2-0.7-1.6l0,0l-19.1-15.6l0,0c-0.4-0.3-0.9-0.5-1.4-0.5c-0.2,0-0.3,0-0.5,0.1l0,0l-5.1,1.5
			l0,0c-1.2,0.4-2,1.5-2.2,2.7l0,0l-0.5,5.3l0.2,0l-0.2,0c0,0.1,0,0.2,0,0.4c0,0.6,0.3,1.1,0.8,1.5l0.2-0.2l-0.2,0.2l13.4,11
			c0.1,0.1,0.3,0.1,0.4,0C37.7,143.1,37.7,142.9,37.6,142.8L37.6,142.8z"/>
		<path class="st1" d="M40.6,145.2l-1.2-0.9c-0.1-0.1-0.3-0.1-0.3,0.1c-0.1,0.1-0.1,0.3,0.1,0.3l1.2,0.9c0.1,0.1,0.3,0.1,0.3-0.1
			C40.7,145.4,40.7,145.2,40.6,145.2"/>
		<path class="st1" d="M42.1,146.5l-0.1-0.1c-0.1-0.1-0.3-0.1-0.4,0c-0.1,0.1-0.1,0.3,0,0.4l0.1,0.1c0.1,0.1,0.3,0.1,0.4,0
			C42.2,146.8,42.2,146.6,42.1,146.5"/>
		<path class="st1" d="M30,126.4c-1.1-0.4-2-1-2.9-1.7l0,0l0,0c-2.4-1.9-3.6-4.7-3.6-7.6c0-1.7,0.4-3.4,1.3-4.9
			c0.1-0.1,0-0.3-0.1-0.3c-0.1-0.1-0.3,0-0.3,0.1c-0.9,1.6-1.3,3.4-1.3,5.1c0,3,1.3,5.9,3.7,7.9l0.2-0.2l-0.2,0.2
			c0.9,0.8,1.9,1.4,3.1,1.8c0.1,0,0.3,0,0.3-0.2C30.2,126.6,30.1,126.5,30,126.4L30,126.4z"/>
		<path class="st1" d="M29.4,124.6c0.5,0.4,0.7,0.9,0.7,1.4c0,0.4-0.2,0.9-0.5,1.3l0,0l0,0c-0.4,0.5-0.9,0.7-1.4,0.7
			c-0.4,0-0.9-0.2-1.3-0.5l-0.2,0.2l0.2-0.2c-0.4-0.4-0.6-0.7-0.7-1.1c0-0.1-0.2-0.2-0.3-0.2c-0.1,0-0.2,0.2-0.2,0.3
			c0.1,0.5,0.4,1,0.8,1.4l0,0l0,0c0.5,0.4,1.1,0.6,1.6,0.6c0.7,0,1.4-0.3,1.8-0.9l-0.2-0.2l0.2,0.2c0.4-0.5,0.6-1.1,0.6-1.6
			c0-0.7-0.3-1.4-0.9-1.8c-0.1-0.1-0.3-0.1-0.4,0C29.3,124.4,29.3,124.5,29.4,124.6L29.4,124.6z"/>
		<path class="st3" d="M39.9,135.8c-0.4,0.4-0.9,0.6-1.4,0.6c-0.4,0-0.8-0.1-1.2-0.4c-0.4-0.4-0.6-0.9-0.6-1.4
			c0-0.4,0.1-0.8,0.4-1.2c0.4-0.4,0.9-0.6,1.4-0.6c0.4,0,0.8,0.1,1.2,0.4c0.1,0.1,0.3,0.1,0.4,0c0.1-0.1,0.1-0.3,0-0.4
			c-0.4-0.4-1-0.5-1.5-0.5c-0.7,0-1.4,0.3-1.8,0.8c-0.4,0.4-0.5,1-0.5,1.5c0,0.7,0.3,1.4,0.8,1.8c0.4,0.4,1,0.5,1.5,0.5
			c0.7,0,1.4-0.3,1.8-0.8c0.1-0.1,0.1-0.3,0-0.4C40.1,135.7,40,135.7,39.9,135.8L39.9,135.8z"/>
		<path class="st3" d="M40.3,136.1c0.4-0.4,0.9-0.6,1.4-0.6c0.4,0,0.8,0.1,1.2,0.4c0.4,0.4,0.6,0.9,0.6,1.4c0,0.4-0.1,0.8-0.4,1.2
			c-0.4,0.4-0.9,0.6-1.4,0.6c-0.4,0-0.8-0.1-1.2-0.4c-0.1-0.1-0.3-0.1-0.4,0c-0.1,0.1-0.1,0.3,0,0.4c0.4,0.4,1,0.5,1.5,0.5
			c0.7,0,1.4-0.3,1.8-0.8c0.4-0.4,0.5-1,0.5-1.5c0-0.7-0.3-1.4-0.8-1.8c-0.4-0.4-1-0.5-1.5-0.5c-0.7,0-1.4,0.3-1.8,0.8
			c-0.1,0.1-0.1,0.3,0,0.4C40,136.2,40.2,136.2,40.3,136.1L40.3,136.1z"/>
		<path class="st3" d="M35.6,132.7l1,0.7c0.1,0.1,0.3,0.1,0.3-0.1c0.1-0.1,0.1-0.3-0.1-0.3l-1-0.7c-0.1-0.1-0.3-0.1-0.3,0.1
			C35.4,132.4,35.5,132.6,35.6,132.7"/>
		<path class="st3" d="M43.2,138.9l1,0.9c0.1,0.1,0.3,0.1,0.4,0c0.1-0.1,0.1-0.3,0-0.4l-1-0.9c-0.1-0.1-0.3-0.1-0.4,0
			C43.1,138.6,43.1,138.8,43.2,138.9"/>
	</g>
	<g>
		<path class="st0" d="M90.1,56.2l-1.1-1c-3.3-2.8-3.7-7.8-0.9-11.1l5.7-6.6c2.8-3.3,7.8-3.7,11.1-0.9l1.1,1
			c3.3,2.8,3.7,7.8,0.9,11.1l-5.7,6.6C98.3,58.7,93.3,59,90.1,56.2z"/>
		<path class="st1" d="M99.5,31.9c-0.1,0-0.1,0-0.2,0c-0.1,0-0.2,0.1-0.2,0.3c0,0.1,0.1,0.2,0.2,0.2c0.1,0,0.1,0,0.2,0
			c0.1,0,0.2-0.1,0.2-0.2C99.8,32,99.7,31.9,99.5,31.9L99.5,31.9z"/>
		<path class="st1" d="M102.5,32.5c-0.5-0.3-0.9-0.4-1.4-0.5c-0.1,0-0.3,0-0.3,0.2c0,0.1,0,0.3,0.2,0.3c0.5,0.1,0.8,0.2,1.3,0.5
			c0.1,0.1,0.3,0,0.3-0.1C102.6,32.8,102.6,32.6,102.5,32.5L102.5,32.5z"/>
		<path class="st1" d="M96.6,32.2c-1.4,0.4-2.7,1.3-3.7,2.4l0,0l-5.8,6.7l0,0c-1.3,1.6-2,3.4-2,5.3c0,2.3,1,4.6,2.9,6.2l0.2-0.2
			L88,52.8l1.1,1l0,0c1.6,1.3,3.4,2,5.3,2c2.3,0,4.6-1,6.2-2.9l-0.2-0.2l0.2,0.2l5.8-6.7l0,0c1.3-1.6,2-3.4,2-5.3
			c0-2.3-1-4.6-2.9-6.2l0,0l-1.1-0.9l-0.2,0.2l0.2-0.2l-0.2-0.2c-0.1-0.1-0.2-0.1-0.3-0.1c-0.1,0-0.2,0.1-0.2,0.2
			c0,0.1,0.1,0.2,0.2,0.2v0l0,0l0,0v0l0,0l0,0l0.2,0.2l0,0l1.1,0.9l0.2-0.2l-0.2,0.2c1.8,1.5,2.7,3.6,2.7,5.8c0,1.8-0.6,3.5-1.9,5
			l0.2,0.2l-0.2-0.2l-5.8,6.7l0,0c-1.5,1.8-3.6,2.7-5.8,2.7c-1.8,0-3.5-0.6-5-1.9l-0.2,0.2l0.2-0.2l-1.1-1l0,0
			c-1.8-1.5-2.7-3.6-2.7-5.8c0-1.8,0.6-3.5,1.9-5l-0.2-0.2l0.2,0.2l5.8-6.7l-0.2-0.2l0.2,0.2c1-1.1,2.2-1.9,3.5-2.3
			c0.1,0,0.2-0.2,0.2-0.3C96.9,32.2,96.7,32.1,96.6,32.2L96.6,32.2z"/>
		<path class="st3" d="M98.8,41.4L98.8,41.4c-0.5-0.4-0.5-1.1-0.1-1.5l2.1-2.5c0.4-0.5,1.1-0.5,1.5-0.1c0.5,0.4,0.5,1.1,0.1,1.5
			l-2.1,2.5C99.9,41.8,99.3,41.8,98.8,41.4z"/>
		<path class="st1" d="M104.9,34.7l5.1-5.9l0,0c0.4-0.5,1.1-0.8,1.7-0.8c0.5,0,1.1,0.2,1.5,0.6l0,0l0,0c0.5,0.4,0.8,1.1,0.8,1.7
			c0,0.5-0.2,1.1-0.6,1.5c-0.1,0.1-0.1,0.3,0,0.4c0.1,0.1,0.3,0.1,0.4,0c0.5-0.5,0.7-1.2,0.7-1.8c0-0.8-0.3-1.6-1-2.1l-0.2,0.2
			l0.2-0.2c-0.5-0.5-1.2-0.7-1.8-0.7c-0.8,0-1.6,0.3-2.1,1l0.2,0.2l-0.2-0.2l-5.1,5.9c-0.1,0.1-0.1,0.3,0,0.4
			C104.7,34.8,104.8,34.8,104.9,34.7L104.9,34.7z"/>
		<path class="st1" d="M113.6,31.9l-0.9,1l0,0c-0.4,0.6-0.7,1.2-0.7,1.9c0,0.8,0.3,1.5,1,2c0.6,0.4,1.2,0.7,1.9,0.7
			c0.8,0,1.5-0.3,2-1c0.1-0.1,0.1-0.3,0-0.4c-0.1-0.1-0.3-0.1-0.4,0c-0.4,0.5-1,0.8-1.6,0.8c-0.6,0-1.1-0.2-1.6-0.6
			c-0.5-0.4-0.8-1-0.8-1.6c0-0.6,0.2-1.1,0.6-1.6l-0.2-0.2l0.2,0.2l0.9-1c0.1-0.1,0.1-0.3,0-0.4C113.8,31.8,113.7,31.8,113.6,31.9
			L113.6,31.9z"/>
	</g>
	<g>
		<path class="st0" d="M50.1,183.4l-6.8,19.7c-0.1,0.4-0.6,0.4-0.7,0l-4.2-8.3c0-0.1-0.1-0.1-0.1-0.1l-8.3-4.2
			c-0.4-0.1-0.2-0.6,0-0.7l19.7-6.8C50,182.8,50.2,183,50.1,183.4z"/>
		<path class="st1" d="M48.2,194.8l-3.1,9l0,0L45,204l-0.1-0.1l0,0l-4.2-8.3l-0.2,0.1h0.2c0-0.2-0.1-0.3-0.2-0.3c-0.1,0-0.2,0-0.2,0
			v0.2l0.1-0.2l-8.3-4.2l0,0L32,191l0.1-0.2l-0.1-0.2l0.1,0.2l19.7-6.8l-0.1-0.2l0.1,0.2l0.1,0l0.1,0l0,0.1l0,0l0,0l-1.1,3.2
			c0,0.1,0,0.3,0.2,0.3c0.1,0,0.3,0,0.3-0.2l1.1-3.2l-0.2-0.1l0.2,0.1l0.1-0.3c0-0.3-0.3-0.6-0.6-0.6l-0.2,0l0,0l-19.7,6.8l0,0
			c-0.2,0.1-0.4,0.4-0.4,0.6c0,0.2,0.1,0.5,0.4,0.6l0.1-0.2l-0.1,0.2l8.4,4.2h0.1v-0.1l-0.1,0.1l0.1,0v-0.1l-0.1,0.1l0.1-0.1l-0.1,0
			l0.1,0.1l0.1-0.1l-0.1,0v0.1l4.2,8.4l0.2-0.1l-0.2,0.1c0.1,0.3,0.4,0.5,0.6,0.4c0.3,0,0.5-0.2,0.6-0.5l0,0l3.1-9
			c0-0.1,0-0.3-0.2-0.3C48.4,194.6,48.3,194.7,48.2,194.8L48.2,194.8z"/>
		<path class="st1" d="M49.5,191l-0.7,2.2c0,0.1,0,0.3,0.2,0.3c0.1,0,0.3,0,0.3-0.2l0.7-2.2c0-0.1,0-0.3-0.2-0.3
			C49.7,190.8,49.5,190.8,49.5,191"/>
		<path class="st1" d="M50,189.5l-0.1,0.4c0,0.1,0,0.3,0.2,0.3c0.1,0,0.3,0,0.3-0.2l0.1-0.4c0-0.1,0-0.3-0.2-0.3
			C50.2,189.3,50,189.4,50,189.5"/>
		<path class="st1" d="M40,195.5l-3.3,3.3c-0.1,0.1-0.1,0.3,0,0.4c0.1,0.1,0.3,0.1,0.4,0l3.3-3.3c0.1-0.1,0.1-0.3,0-0.4
			C40.3,195.4,40.1,195.4,40,195.5"/>
		<g id="click">
			<path class="st3" d="M56.3,175.3l-1.7,3.5c-0.1,0.1,0,0.3,0.1,0.3c0.1,0.1,0.3,0,0.3-0.1l1.7-3.5c0.1-0.1,0-0.3-0.1-0.3
				C56.5,175.2,56.4,175.2,56.3,175.3"/>
			<path class="st3" d="M57.2,186.3l3.5,1.7c0.1,0.1,0.3,0,0.3-0.1c0.1-0.1,0-0.3-0.1-0.3l-3.5-1.7c-0.1-0.1-0.3,0-0.3,0.1
				C57,186.1,57,186.3,57.2,186.3"/>
			<path class="st3" d="M49.2,175l1.2,3.6c0,0.1,0.2,0.2,0.3,0.2c0.1,0,0.2-0.2,0.2-0.3l-1.2-3.6c0-0.1-0.2-0.2-0.3-0.2
				C49.3,174.8,49.2,174.9,49.2,175"/>
			<path class="st3" d="M57.6,182.3l3.7-1.2c0.1,0,0.2-0.2,0.2-0.3c0-0.1-0.2-0.2-0.3-0.2l-3.7,1.2c-0.1,0-0.2,0.2-0.2,0.3
				C57.3,182.2,57.5,182.3,57.6,182.3"/>
		</g>
	</g>
	<g>
		<path class="st0" d="M66.1,89.7l-14.7,2c-0.1,0-0.2-0.1-0.2-0.1l-4.2-17c0-0.1,0.1-0.2,0.1-0.2l18.5-2.5c0,0,0.1,0,0.1,0.1
			L66.1,89.7C66.2,89.5,66.2,89.7,66.1,89.7z"/>
		<path class="st1" d="M64.6,88.6l0-0.2l-14.7,2l0,0.2v-0.2v0l0,0l0,0v0l0,0l0,0l0,0l0,0l0,0l0,0l0,0l0,0l0,0l-0.2,0.2l0.2-0.1
			l-4.2-17l-0.2,0.1h0.2h0l0,0l0,0h0l0,0l0,0l0,0l0,0l0,0l0,0l0,0l0,0l0,0l-0.2-0.2l0,0.2L64,71l0-0.2V71v-0.1l0,0.1l0,0v-0.1l0,0.1
			l0.1-0.1l-0.1,0l0.1,0.1l0.1-0.1l-0.1,0v0l0.6,17.5l0.2,0h-0.2l0,0l0,0.1l0.1,0l-0.1-0.1l0,0l0.1,0l-0.1-0.1L64.6,88.6v-0.2
			l-0.1,0L64.6,88.6v-0.2h0l0,0L64.6,88.6v0.2c0.1,0,0.2-0.1,0.3-0.1c0.1-0.1,0.1-0.2,0.1-0.2l0-0.1v0l-0.6-17.5l-0.2,0h0.2
			c0-0.2-0.1-0.3-0.2-0.3c-0.1,0-0.2,0-0.2,0h0L45.4,73l-0.1,0.1l-0.1,0.1c0,0.1-0.1,0.2-0.1,0.3v0l4.2,17.1l0,0l0.1,0.1
			c0.1,0,0.2,0.1,0.3,0.1h0l14.8-2L64.6,88.6v0.2V88.6z"/>
		<path class="st1" d="M46.5,73.1l-1.7-6.5l18.3-2.4l0.2,6.7c0,0.1,0.1,0.2,0.3,0.2c0.1,0,0.2-0.1,0.2-0.3l-0.3-7.2l-19.4,2.5
			l1.8,7.1c0,0.1,0.2,0.2,0.3,0.2C46.5,73.4,46.5,73.2,46.5,73.1L46.5,73.1z"/>
		<path class="st1" d="M63.8,88.9l0.1,2.6l0.2,0H64h0l0,0l0,0h0l0,0l0,0l0,0l0,0l0,0l0,0l0,0l0,0l0,0l0,0l0,0l0,0l0,0l0,0h0
			l-12.5,1.7l0,0.2v-0.2l-0.1,0l0,0l0,0l0,0l0,0l0,0l-0.1,0.1h0.1l-0.1-0.1l-0.1,0.1h0.1v0l-0.6-2.8c0-0.1-0.2-0.2-0.3-0.2
			c-0.1,0-0.2,0.2-0.2,0.3l0.6,2.7l0.2-0.1H51c0,0,0,0.1,0.1,0.2c0.1,0.1,0.2,0.1,0.4,0.1h0L64,92l0-0.2V92c0.2,0,0.4-0.1,0.4-0.3
			c0.1-0.1,0.1-0.2,0.1-0.2v0l-0.1-2.6c0-0.1-0.1-0.2-0.3-0.2C63.9,88.6,63.8,88.8,63.8,88.9L63.8,88.9z"/>
		<path class="st2" d="M54.8,63.9l8.8-1.2c0.4,0,0.6,0.2,0.7,0.5l0.2,1.4c0,0.4-0.2,0.6-0.5,0.7l-19.7,2.6c-0.4,0-0.6-0.2-0.7-0.5
			L43.4,66c0-0.4,0.2-0.6,0.5-0.7l3.2-0.4"/>
		<path class="st1" d="M54.8,64.1l8.8-1.2l0-0.2v0.2c0.2,0,0.4,0.2,0.5,0.4l0.2-0.1l-0.2,0l0.2,1.4l0.2,0h-0.2
			c0,0.2-0.2,0.4-0.4,0.5l0.1,0.2l0-0.2l-19.7,2.6l0,0.2v-0.2c-0.2,0-0.4-0.2-0.5-0.4l-0.2,0.1l0.2,0l-0.2-1.4l-0.2,0h0.2
			c0-0.2,0.2-0.4,0.4-0.5l-0.1-0.2l0,0.2l3.2-0.4c0.1,0,0.2-0.1,0.2-0.3c0-0.1-0.1-0.2-0.3-0.2L43.8,65l0,0c-0.3,0.1-0.6,0.5-0.6,1
			v0l0.3,1.4l0,0c0.1,0.3,0.5,0.6,1,0.6h0l19.8-2.6l0,0c0.3-0.1,0.6-0.5,0.6-1v0L64.6,63l0,0c-0.1-0.3-0.5-0.6-1-0.6h0l-8.8,1.2
			c-0.1,0-0.2,0.1-0.2,0.3C54.6,64,54.7,64.1,54.8,64.1L54.8,64.1z"/>
		<path class="st1" d="M51.2,64.6l2.1-0.2c0.1,0,0.2-0.1,0.2-0.3c0-0.1-0.1-0.2-0.3-0.2l-2.1,0.2c-0.1,0-0.2,0.1-0.2,0.3
			C51,64.5,51.1,64.6,51.2,64.6"/>
		<path class="st1" d="M49.4,64.9h0.4c0.1,0,0.2-0.1,0.2-0.2c0-0.1-0.1-0.2-0.2-0.2h-0.4c-0.1,0-0.2,0.1-0.2,0.2
			C49.1,64.7,49.2,64.9,49.4,64.9"/>
		<path class="st0" d="M57.5,60.7c0-0.4-0.1-0.7-0.1-1c0-0.9,0.2-1.5,0.4-2.1c0.2-0.6,0.4-1.3,0.4-2.2c0-0.4,0-0.8-0.1-1.3l-0.2,0
			l0.2,0c-0.2-1.7-0.7-2.5-1.2-3.2c-0.5-0.7-1-1.4-1.1-3c0-0.1-0.1-0.2-0.3-0.2c-0.1,0-0.2,0.1-0.2,0.3c0.2,1.7,0.7,2.5,1.2,3.2
			c0.5,0.7,1,1.4,1.1,3l0,0l0,0c0.1,0.5,0.1,0.8,0.1,1.2c0,0.9-0.2,1.4-0.4,2.1c-0.2,0.6-0.4,1.3-0.4,2.3c0,0.3,0,0.6,0.1,1
			c0,0.1,0.1,0.2,0.3,0.2C57.4,61,57.5,60.9,57.5,60.7L57.5,60.7z"/>
		<path class="st3" d="M49.6,76.5l2,9.2c0,0.1,0.2,0.2,0.3,0.2c0.1,0,0.2-0.2,0.2-0.3l-2-9.2c0-0.1-0.2-0.2-0.3-0.2
			C49.7,76.3,49.6,76.4,49.6,76.5"/>
	</g>
	<g>
		<path id="search-shadow" class="st0" d="M151.4,21.1c5.7,0,10.3,4.6,10.3,10.3c0,5.7-4.6,10.3-10.3,10.3
			c-5.7,0-10.3-4.6-10.3-10.3C141.1,25.7,145.7,21.1,151.4,21.1z"/>
		<path class="st1" d="M140.8,24.8c0.1-0.1,0.2-0.2,0.4-0.4c0.1-0.1,0.1-0.3,0-0.4c-0.1-0.1-0.3-0.1-0.4,0c-0.1,0.1-0.2,0.2-0.4,0.4
			c-0.1,0.1-0.1,0.3,0,0.4C140.6,24.9,140.7,24.9,140.8,24.8L140.8,24.8z"/>
		<path class="st1" d="M139,28.2c0.2-0.6,0.5-1.2,0.7-1.9c0.1-0.1,0-0.3-0.1-0.3c-0.1-0.1-0.3,0-0.3,0.1c-0.2,0.6-0.5,1.2-0.7,1.9
			c-0.1,0.1,0,0.3,0.1,0.3C138.8,28.4,139,28.3,139,28.2L139,28.2z"/>
		<path class="st1" d="M143.4,22.5c1.6-1,3.5-1.5,5.3-1.5c3.4,0,6.6,1.7,8.5,4.8c1,1.6,1.5,3.5,1.5,5.3c0,3.4-1.7,6.6-4.8,8.5
			c-1.6,1-3.5,1.5-5.3,1.5c-3.4,0-6.6-1.7-8.5-4.8l-0.2,0.1l0.2-0.1c-1-1.6-1.5-3.4-1.5-5.1c0-0.2,0-0.4,0-0.6
			c0-0.1-0.1-0.3-0.2-0.3c-0.1,0-0.3,0.1-0.3,0.2c0,0.2,0,0.4,0,0.6c0,1.8,0.5,3.6,1.5,5.4l0,0l0,0c2,3.2,5.4,5,8.9,5
			c1.9,0,3.8-0.5,5.5-1.6c3.2-2,5-5.4,5-8.9c0-1.9-0.5-3.8-1.6-5.5c-2-3.2-5.4-5-8.9-5c-1.9,0-3.8,0.5-5.5,1.6
			c-0.1,0.1-0.2,0.2-0.1,0.3C143.1,22.5,143.2,22.5,143.4,22.5L143.4,22.5z"/>
		<path class="st1" d="M162.7,53.5l-0.1-0.2c-0.4,0.2-0.8,0.3-1.1,0.3c-0.7,0-1.3-0.3-1.6-0.9l0,0l-4.3-6.9l-0.2,0.1l0.2-0.1
			c-0.2-0.4-0.3-0.8-0.3-1.1c0-0.7,0.3-1.3,0.9-1.6c0.4-0.2,0.8-0.3,1.1-0.3c0.7,0,1.3,0.3,1.6,0.9l0,0l4.3,6.9l0.2-0.1l-0.2,0.1
			c0.2,0.4,0.3,0.8,0.3,1.1c0,0.7-0.3,1.3-0.9,1.6L162.7,53.5l0.1,0.2c0.8-0.4,1.2-1.2,1.2-2.1c0-0.5-0.1-0.9-0.4-1.4l0,0l-4.3-6.9
			l-0.2,0.1l0.2-0.1c-0.4-0.8-1.2-1.2-2.1-1.2c-0.5,0-0.9,0.1-1.4,0.4c-0.8,0.4-1.2,1.2-1.2,2.1c0,0.5,0.1,0.9,0.4,1.4l0,0l4.3,6.9
			l0.2-0.1l-0.2,0.1c0.4,0.8,1.2,1.2,2.1,1.2c0.5,0,0.9-0.1,1.4-0.4L162.7,53.5z"/>
		<polyline class="st1" points="153.8,39.7 155.7,42.7 156.1,42.4 154.2,39.5 		"/>
		<path class="st3" d="M152.7,24.9c0.7,0.6,1.3,1.2,1.8,2c0.8,1.4,1.2,2.8,1.2,4.2c0,0.4,0,0.7-0.1,1.1c0,0.1,0.1,0.3,0.2,0.3
			c0.1,0,0.3-0.1,0.3-0.2c0.1-0.4,0.1-0.8,0.1-1.1c0-1.5-0.4-3-1.2-4.5c-0.5-0.9-1.2-1.5-1.9-2.2c-0.1-0.1-0.3-0.1-0.4,0
			C152.6,24.7,152.6,24.8,152.7,24.9L152.7,24.9z"/>
	</g>
	<g>
		<path class="st0" d="M178.9,226.7c0,3.3-2.7,6.1-6.1,6.1H154c-3.3,0-6.1-2.7-6.1-6.1c0-3.1,2.2-5.6,5.1-6.1c0-0.2,0-0.5,0-0.6
			c0-2.1,1.7-3.8,3.8-3.8c1,0,1.9,0.4,2.5,0.9c1.2-2.7,2.7-5.2,7.1-5.2c5.2,0,7.7,4.1,7.7,8.3c0,0.1,0,0.4,0,0.5
			C176.9,221.3,178.9,223.8,178.9,226.7z"/>
		<path class="st1" d="M155.5,230.7H151c-1.6,0-3.1-0.7-4.1-1.7c-1.1-1.1-1.7-2.5-1.7-4.1c0-3,2.1-5.3,4.9-5.8l0.2,0v-0.2
			c0-0.2,0-0.5,0-0.6c0-1,0.4-1.9,1.1-2.5c0.7-0.7,1.5-1.1,2.5-1.1c0.9,0,1.7,0.3,2.3,0.8l0.2,0.2l0.1-0.3c0.3-0.5,0.4-0.9,0.6-1.4
			c0.1-0.1,0-0.3-0.1-0.3c-0.1-0.1-0.3,0-0.3,0.1c-0.3,0.5-0.4,0.9-0.6,1.4l0.2,0.1l0.2-0.2c-0.7-0.5-1.6-0.9-2.6-0.9
			c-2.2,0-4.1,1.8-4.1,4.1c0,0.1,0,0.4,0,0.6h0.2l0-0.2c-3,0.5-5.3,3.1-5.3,6.3c0,3.5,2.8,6.3,6.3,6.3h4.5c0.1,0,0.2-0.1,0.2-0.2
			C155.7,230.8,155.6,230.7,155.5,230.7L155.5,230.7z"/>
		<path class="st1" d="M164.5,210.3c2.2,0.2,3.7,1.3,4.8,2.7c1,1.5,1.6,3.4,1.6,5.3c0,0.1,0,0.4,0,0.5v0.2l0.2,0
			c2.6,0.6,4.6,3,4.6,5.7c0,1.6-0.7,3.1-1.7,4.1c-1.1,1.1-2.5,1.7-4.1,1.7c-0.1,0-0.2,0.1-0.2,0.2c0,0.1,0.1,0.2,0.2,0.2
			c3.5,0,6.3-2.8,6.3-6.3c0-3-2.2-5.5-5-6.2l-0.1,0.2h0.2c0-0.1,0-0.4,0-0.5c0-2-0.5-4-1.7-5.6c-1.1-1.6-2.8-2.7-5.1-3
			c-0.1,0-0.3,0.1-0.3,0.2C164.3,210.1,164.4,210.2,164.5,210.3L164.5,210.3z"/>
		<path class="st1" d="M160.1,211c0.6-0.3,1.4-0.6,2.3-0.7c0.1,0,0.2-0.1,0.2-0.3c0-0.1-0.1-0.2-0.3-0.2c-0.9,0.1-1.8,0.4-2.4,0.8
			c-0.1,0.1-0.2,0.2-0.1,0.3C159.8,211,160,211,160.1,211L160.1,211z"/>
		<path class="st1" d="M158.6,212c0.1-0.1,0.2-0.2,0.4-0.4c0.1-0.1,0.1-0.3,0-0.4c-0.1-0.1-0.3-0.1-0.4,0c-0.1,0.1-0.2,0.2-0.4,0.4
			c-0.1,0.1-0.1,0.3,0,0.4C158.4,212.1,158.5,212.1,158.6,212L158.6,212z"/>
		<path class="st3" d="M159,227.8v7.7c0,1.2-1,2.2-2.2,2.2h-0.9c-0.1,0-0.2,0.1-0.2,0.2c0,0.1,0.1,0.2,0.2,0.2h0.9
			c1.5,0,2.7-1.2,2.7-2.7v-7.7c0-0.1-0.1-0.2-0.2-0.2C159.1,227.6,159,227.7,159,227.8L159,227.8z"/>
		<path class="st3" d="M162.9,227.8v5.2c0,1.5,1.2,2.7,2.7,2.7h0.9c0.1,0,0.2-0.1,0.2-0.2c0-0.1-0.1-0.2-0.2-0.2h-0.9
			c-1.2,0-2.2-1-2.2-2.2v-5.2c0-0.1-0.1-0.2-0.2-0.2C163,227.6,162.9,227.7,162.9,227.8L162.9,227.8z"/>
	</g>
	<g>
		<path class="st1" d="M79.7,224.4c0-0.1,0-0.1,0.1-0.2c0.1-0.1,0.1-0.3,0-0.4c-0.1-0.1-0.3-0.1-0.4,0c-0.2,0.2-0.2,0.4-0.2,0.5
			c0,0.1,0.1,0.2,0.2,0.2C79.6,224.6,79.7,224.5,79.7,224.4L79.7,224.4z"/>
		<path class="st1" d="M79.5,226.7c0-0.4,0-0.7,0-1.1c0-0.1-0.1-0.2-0.2-0.2c-0.1,0-0.2,0.1-0.2,0.2c0,0.4,0,0.7,0,1.1
			c0,0.1,0.1,0.2,0.2,0.2C79.3,227,79.5,226.9,79.5,226.7L79.5,226.7z"/>
		<path class="st0" d="M104.5,233.8H87.6l-5.6,5.7c-0.1,0.1-0.4,0-0.4-0.1V228c0-1,0.1-1.9,0.4-2.7c0.1-0.2,0.1-0.6,0.2-0.9
			c0.1-0.4,0.2-0.7,0.5-1.1c1.9-4.1,5.9-6.9,10.8-6.9c6.6,0,11.9,5.3,11.9,11.9v5C105.3,233.4,105,233.8,104.5,233.8z"/>
		<path class="st1" d="M80.4,222c1.8-4,5.8-6.8,10.5-6.8c3.2,0,6.1,1.3,8.2,3.4c2.1,2.1,3.4,5,3.4,8.2v5c0,0.4-0.3,0.6-0.6,0.6H85
			l-5.6,5.8l0.2,0.2l-0.2-0.2l0,0v-0.1l0,0l0,0v-0.1l0,0l0,0l0,0l0,0l0,0l0,0l-0.1,0.1h0.1l0-0.1l-0.1,0.1h0.1v-9.5
			c0-0.1-0.1-0.2-0.2-0.2c-0.1,0-0.2,0.1-0.2,0.2l0,9.5c0,0.2,0.1,0.3,0.2,0.3c0.1,0.1,0.2,0.1,0.3,0.1c0.1,0,0.2,0,0.3-0.1l0,0
			l5.5-5.6H102c0.3,0,0.6-0.1,0.8-0.3c0.2-0.2,0.3-0.5,0.3-0.8v-5c0-6.7-5.4-12.1-12.1-12.1c-4.9,0-9.1,2.9-11,7.1
			c-0.1,0.1,0,0.3,0.1,0.3C80.2,222.2,80.4,222.1,80.4,222L80.4,222z"/>
		<path class="st3" d="M84.6,226.7c1.9,1.3,4.2,1.9,6.6,1.9c2.4,0,4.7-0.8,6.6-1.9c0.1-0.1,0.2-0.2,0.1-0.3s-0.2-0.2-0.3-0.1
			c-1.8,1.1-4,1.8-6.3,1.8c-2.3,0-4.5-0.6-6.3-1.8c-0.1-0.1-0.3,0-0.3,0.1C84.5,226.5,84.5,226.6,84.6,226.7L84.6,226.7z"/>
	</g>
</g>
</svg>
