<?xml version="1.0" encoding="iso-8859-1"?>
<!-- Generator: Adobe Illustrator 18.0.0, SVG Export Plug-In . SVG Version: 6.00 Build 0)  -->
<!DOCTYPE svg PUBLIC "-//W3C//DTD SVG 1.1//EN" "http://www.w3.org/Graphics/SVG/1.1/DTD/svg11.dtd">
<svg version="1.1" id="Capa_1" xmlns="http://www.w3.org/2000/svg" xmlns:xlink="http://www.w3.org/1999/xlink" x="0px" y="0px"
	 viewBox="0 0 478.277 478.277" style="enable-background:new 0 0 478.277 478.277;" xml:space="preserve">
<g>
	<path style="fill:#020202;" d="M86.646,65.42c0-1.382,1.123-2.505,2.507-2.505h318.112c1.382,0,2.515,1.123,2.515,2.505v215.894
		c0,1.384-1.133,2.507-2.515,2.507H243.967v31.648h163.298c18.841,0,34.163-15.322,34.163-34.155V65.42
		c0-18.833-15.322-34.153-34.163-34.153H89.153c-18.833,0-34.162,15.32-34.162,34.153v69.291h31.655V65.42z"/>
	<path style="fill:#020202;" d="M465.862,328.417H243.967v44.957h201.782c17.961,0,32.528-14.567,32.528-32.536
		C478.277,333.98,472.722,328.417,465.862,328.417z"/>
	<path style="fill:#020202;" d="M180.671,261.758v133.474H31.647V203.42c0-2.985,2.428-5.413,5.414-5.413h81.531
		c4.455-11.313,10.253-21.953,17.301-31.648H37.062C16.617,166.359,0,182.977,0,203.42v206.528
		c0,20.436,16.617,37.061,37.062,37.061h138.195c20.437,0,37.062-16.625,37.062-37.061V228.257
		C198.773,235.924,187.836,247.545,180.671,261.758z M106.155,407.15c7.103,0,12.854,5.759,12.854,12.863
		c0,7.095-5.752,12.854-12.854,12.854c-7.103,0-12.862-5.759-12.862-12.854C93.293,412.91,99.053,407.15,106.155,407.15z"/>
	<path style="fill:#020202;" d="M246.057,217.391c1.115,0,2.222-0.433,3.048-1.258l51.329-51.337c1.682-1.673,1.682-4.407,0-6.089
		l-51.329-51.329c-0.826-0.825-1.933-1.258-3.048-1.258c-0.558,0-1.117,0.103-1.651,0.322c-1.603,0.669-2.655,2.231-2.655,3.984
		v29.063c-56.978,5.296-101.599,53.199-101.599,111.561c0,1.02,0.016,2.034,0.039,3.032c0.063,2.027,1.525,3.725,3.512,4.093
		c0.251,0.048,0.512,0.071,0.754,0.071c1.712,0,3.301-1.036,3.968-2.671c15.407-37.854,50.975-65.087,93.325-69.047v26.557
		c0,1.744,1.053,3.315,2.655,3.982C244.94,217.288,245.499,217.391,246.057,217.391z"/>
</g>
<g>
</g>
<g>
</g>
<g>
</g>
<g>
</g>
<g>
</g>
<g>
</g>
<g>
</g>
<g>
</g>
<g>
</g>
<g>
</g>
<g>
</g>
<g>
</g>
<g>
</g>
<g>
</g>
<g>
</g>
</svg>
