<svg 
 xmlns="http://www.w3.org/2000/svg"
 xmlns:xlink="http://www.w3.org/1999/xlink"
 width="24px" height="24px">


<path fill-rule="evenodd"  fill="rgb(45, 111, 183)"
 d="M12.000,24.000 C5.373,24.000 0.000,18.627 0.000,12.000 C0.000,5.373 5.373,0.000 12.000,0.000 C18.627,0.000 24.000,5.373 24.000,12.000 C24.000,18.627 18.627,24.000 12.000,24.000 ZM18.306,11.227 L16.601,11.117 C16.506,10.796 16.378,10.488 16.222,10.199 L17.349,8.916 L15.569,7.136 L14.286,8.263 C13.997,8.106 13.689,7.979 13.368,7.884 L13.257,6.179 L10.741,6.179 L10.631,7.884 C10.310,7.979 10.002,8.107 9.713,8.263 L8.430,7.136 L6.651,8.916 L7.777,10.199 C7.621,10.488 7.493,10.796 7.398,11.117 L5.693,11.227 L5.693,13.744 L7.398,13.853 C7.493,14.175 7.621,14.483 7.777,14.772 L6.651,16.055 L8.430,17.835 L9.713,16.708 C10.002,16.864 10.310,16.992 10.631,17.087 L10.741,18.791 L13.258,18.792 L13.368,17.087 C13.689,16.992 13.997,16.864 14.286,16.708 L15.569,17.835 L17.349,16.056 L16.222,14.772 C16.378,14.483 16.506,14.175 16.601,13.853 L18.306,13.744 L18.306,11.227 ZM12.000,14.741 C10.754,14.741 9.744,13.732 9.744,12.486 C9.744,11.240 10.754,10.230 12.000,10.230 C13.246,10.230 14.255,11.240 14.255,12.486 C14.255,13.732 13.246,14.741 12.000,14.741 Z"/>
</svg>


