<?xml version="1.0" encoding="utf-8"?>
<!-- Generator: Adobe Illustrator 22.0.1, SVG Export Plug-In . SVG Version: 6.00 Build 0)  -->
<svg version="1.1" id="analytics_svg" xmlns="http://www.w3.org/2000/svg" xmlns:xlink="http://www.w3.org/1999/xlink" x="0px" y="0px"
	 viewBox="0 0 600 600" enable-background="new 0 0 600 600" xml:space="preserve">
<g>
	<path fill="#DCE1E5" d="M560.9,255.5l-176.5-102c-8-4.6-22-4-31.2,1.3L38.7,336.3c-0.8,0.5-1.6,0.9-2.2,1.5l-5.4-3.2v13.1l0.2,0.3
		c0.4,1.6,1.4,3.2,2.9,4.6l0,0h0.1c0.6,0.5,1.4,1.1,2.3,1.6l22.2,12.8l0,0l0,0l157,90.6c8,4.6,22,4,31.2-1.3L555.9,278l0,0l5.5-3.2
		c1.7-1,3.2-2.1,4.3-3.3l0,0l0,0c1.8-1.8,2.9-3.8,3.2-5.9l0.1-0.2v-13.3L560.9,255.5z"/>
	
		<linearGradient id="SVGID_1_" gradientUnits="userSpaceOnUse" x1="31.124" y1="305.6039" x2="568.7931" y2="305.6039" gradientTransform="matrix(1 0 0 -1 0 600)">
		<stop  offset="0" style="stop-color:#B1BAC1"/>
		<stop  offset="1" style="stop-color:#828B94"/>
	</linearGradient>
	<path fill="url(#SVGID_1_)" d="M215.7,446.5L36.5,343.1c-8-4.6-7-12.7,2.2-18l314.4-181.5c9.2-5.3,23.2-5.9,31.2-1.3l179.2,103.4
		c8,4.6,7,12.7-2.2,18L246.9,445.2C237.7,450.5,223.7,451.1,215.7,446.5z"/>
</g>
<g>
	<polygon fill="#F4F7F9" points="446.4,272.3 413.9,253.5 446.2,234.8 478.7,253.6 	"/>
	<polygon fill="#DCE1E5" points="446.3,315.7 413.8,297 413.8,253.5 446.3,272.4 	"/>
	<polygon fill="#C2CCD3" points="446.2,315.7 478.7,297 478.7,253.5 446.2,272.4 	"/>
</g>
<g>
	<polygon fill="#F4F7F9" points="414.1,291 381.5,272.2 413.8,253.5 446.3,272.4 	"/>
	<polygon fill="#DCE1E5" points="414.1,334.5 381.5,315.6 381.5,272.3 414.1,291 	"/>
	<polygon fill="#B72332" points="413.8,334.5 446.3,315.6 446.3,272.3 413.8,291 	"/>
</g>
<g>
	<polygon fill="#F4F7F9" points="153.9,290.8 121.4,272 153.8,253.3 186.3,272.1 	"/>
	<polygon fill="#DCE1E5" points="153.9,334.3 121.4,315.5 121.4,272.1 153.9,290.8 	"/>
	<polygon fill="#C2CCD3" points="153.8,334.3 186.3,315.5 186.3,272.1 153.8,290.8 	"/>
</g>
<g id="anim4">
	<polygon fill="#F4F7F9" points="153.9,290.8 121.4,272 153.8,253.3 186.3,272.1 	"/>
	<polygon fill="#DCE1E5" points="153.9,334.3 121.4,315.5 121.4,272.1 153.9,290.8 	"/>
	<polygon fill="#C2CCD3" points="153.8,334.3 186.3,315.5 186.3,272.1 153.8,290.8 	"/>
</g>
<g>
	<polygon fill="#F4F7F9" points="219,291.2 186.4,272.4 218.8,253.7 251.3,272.6 	"/>
	<polygon fill="#DCE1E5" points="219,334.7 186.4,315.9 186.4,272.5 219,291.3 	"/>
	<polygon fill="#C2CCD3" points="218.8,334.7 251.3,315.9 251.3,272.5 218.8,291.3 	"/>
</g>
<g id="anim3">
	<polygon fill="#F4F7F9" points="219,286.9 186.4,268.2 218.8,249.5 251.3,268.3 	"/>
	<polygon fill="#DCE1E5" points="219,330.4 186.4,311.6 186.4,268.2 219,287 	"/>
	<polygon fill="#C2CCD3" points="218.8,330.4 251.3,311.6 251.3,268.2 218.8,287 	"/>
</g>
<g>
	<polygon fill="#F4F7F9" points="283.9,291.2 251.3,272.4 283.7,253.7 316.3,272.6 	"/>
	<polygon fill="#DCE1E5" points="283.9,334.7 251.3,315.9 251.3,272.5 283.9,291.3 	"/>
	<polygon fill="#C2CCD3" points="283.7,334.7 316.3,315.9 316.3,272.5 283.7,291.3 	"/>
</g>
<g>
	<polygon fill="#F4F7F9" points="283.9,250.3 251.3,231.6 283.7,212.9 316.3,231.7 	"/>
	<polygon fill="#DCE1E5" points="283.9,293.8 251.3,275 251.3,231.6 283.9,250.4 	"/>
	<polygon fill="#C2CCD3" points="283.7,293.8 316.3,275 316.3,231.6 283.7,250.4 	"/>
</g>
<g>
	<polygon fill="#F4F7F9" points="283.9,213.3 251.3,194.4 283.7,175.8 316.3,194.5 	"/>
	<polygon fill="#DCE1E5" points="283.9,256.7 251.3,237.9 251.3,194.5 283.9,213.3 	"/>
	<polygon fill="#C2CCD3" points="283.7,256.7 316.3,237.9 316.3,194.5 283.7,213.3 	"/>
</g>
<g id="anim5">
	<polygon fill="#F4F7F9" points="283.9,176.7 251.3,158 283.7,139.2 316.3,158 	"/>
	<polygon fill="#DCE1E5" points="283.9,220.1 251.3,201.4 251.3,158 283.9,176.8 	"/>
	<polygon fill="#C2CCD3" points="283.7,220.1 316.3,201.4 316.3,158 283.7,176.8 	"/>
</g>
<g>
	<polygon fill="#F4F7F9" points="348.8,291.2 316.3,272.4 348.7,253.7 381.2,272.6 	"/>
	<polygon fill="#DCE1E5" points="348.8,334.7 316.3,315.9 316.3,272.5 348.8,291.3 	"/>
	<polygon fill="#C2CCD3" points="348.7,334.7 381.2,315.9 381.2,272.5 348.7,291.3 	"/>
</g>
<g>
	<polygon fill="#F4F7F9" points="348.8,253.7 316.3,235 348.7,216.2 381.2,235.1 	"/>
	<polygon fill="#DCE1E5" points="348.8,297.2 316.3,278.4 316.3,235 348.8,253.8 	"/>
	<polygon fill="#C2CCD3" points="348.7,297.2 381.2,278.4 381.2,235 348.7,253.8 	"/>
</g>
<g>
	<polygon fill="#F4F7F9" points="348.8,226.5 316.3,207.8 348.7,189 381.2,207.9 	"/>
	<polygon fill="#DCE1E5" points="348.8,270 316.3,251.2 316.3,207.8 348.8,226.6 	"/>
	<polygon fill="#C2CCD3" points="348.7,270 381.2,251.2 381.2,207.8 348.7,226.6 	"/>
</g>
<g id="anim2">
	<polygon fill="#F4F7F9" points="348.8,226.5 316.3,207.8 348.7,189 381.2,207.9 	"/>
	<polygon fill="#DCE1E5" points="348.8,270 316.3,251.2 316.3,207.8 348.8,226.6 	"/>
	<polygon fill="#C2CCD3" points="348.7,270 381.2,251.2 381.2,207.8 348.7,226.6 	"/>
</g>
<g>
	<polygon fill="#E84B54" points="414,248.6 381.4,229.8 413.7,211.1 446.3,229.9 	"/>
	<polygon fill="#D12C3D" points="413.9,292 381.3,273.3 381.3,229.8 413.9,248.7 	"/>
	<polygon fill="#B72332" points="413.7,292 446.3,273.3 446.3,229.8 413.7,248.7 	"/>
</g>
<g id="anim1">
	<polygon fill="#E84B54" points="414,211.1 381.4,192.3 413.7,173.6 446.3,192.4 	"/>
	<polygon fill="#D12C3D" points="413.9,254.5 381.3,235.8 381.3,192.3 413.9,211.2 	"/>
	<polygon fill="#B72332" points="413.7,254.5 446.3,235.8 446.3,192.3 413.7,211.2 	"/>
</g>
<g>
	<polygon fill="#F4F7F9" points="381.3,310 348.8,291.1 381.1,272.5 413.7,291.3 	"/>
	<polygon fill="#DCE1E5" points="381.3,353.4 348.8,334.6 348.8,291.2 381.3,310.1 	"/>
	<polygon fill="#C2CCD3" points="381.1,353.4 413.7,334.6 413.7,291.2 381.1,310.1 	"/>
</g>
<g>
	<polygon fill="#F4F7F9" points="348.7,328.7 316.1,309.9 348.5,291.2 381,310.1 	"/>
	<polygon fill="#DCE1E5" points="348.7,372.2 316.1,353.3 316.1,310 348.7,328.7 	"/>
	<polygon fill="#C2CCD3" points="348.5,372.2 381,353.3 381,310 348.5,328.7 	"/>
</g>
<g id="anim6">
	<polygon fill="#F4F7F9" points="348.7,328.7 316.1,309.9 348.5,291.2 381,310.1 	"/>
	<polygon fill="#DCE1E5" points="348.7,372.2 316.1,353.3 316.1,310 348.7,328.7 	"/>
	<polygon fill="#C2CCD3" points="348.5,372.2 381,353.3 381,310 348.5,328.7 	"/>
</g>
</svg>
