<?xml version="1.0" encoding="utf-8"?>
<!-- Generator: Adobe Illustrator 22.0.1, SVG Export Plug-In . SVG Version: 6.00 Build 0)  -->
<svg version="1.1" id="Layer_1" xmlns="http://www.w3.org/2000/svg" xmlns:xlink="http://www.w3.org/1999/xlink" x="0px" y="0px"
	 viewBox="0 0 600 600" enable-background="new 0 0 600 600" xml:space="preserve">
<g>
	<g enable-background="new    ">
		<g>
			<polygon fill="#F8F9FC" points="246.2,169.3 246.2,175.5 241.4,178.3 241.4,172.1 			"/>
		</g>
		<g>
			<polygon fill="#CCD2D6" points="241.4,172.1 241.4,178.3 180.1,143.1 180.1,136.9 			"/>
		</g>
		<g>
			<polygon fill="#F4F7F9" points="246.2,169.3 241.4,172.1 180.1,136.9 185,134.1 			"/>
		</g>
	</g>
	<g enable-background="new    ">
		<g>
			<polygon fill="#F8F9FC" points="190.3,202 190.3,208.1 185.4,211 185.4,204.8 			"/>
		</g>
		<g>
			<polygon fill="#CCD2D6" points="185.4,204.8 185.4,211 162.8,198 162.8,191.8 			"/>
		</g>
		<g>
			<polygon fill="#CCD2D6" points="162.8,191.8 162.8,198 134.5,214.5 134.5,208.3 			"/>
		</g>
		<g>
			<polygon fill="#CCD2D6" points="134.5,208.3 134.5,214.5 95.9,192.3 95.9,186.1 			"/>
		</g>
		<g>
			<polygon fill="#F4F7F9" points="190.3,202 185.4,204.8 162.8,191.8 134.5,208.3 95.9,186.1 100.7,183.3 134.5,202.7 162.8,186.2 
							"/>
		</g>
	</g>
	<g enable-background="new    ">
		<g>
			<polygon fill="#F8F9FC" points="135.1,234.2 135.1,240.4 130.2,243.2 130.2,237 			"/>
		</g>
		<g>
			<polygon fill="#CCD2D6" points="130.2,237 130.2,243.2 69,208 69,201.8 			"/>
		</g>
		<g>
			<polygon fill="#F4F7F9" points="135.1,234.2 130.2,237 69,201.8 73.9,199 			"/>
		</g>
	</g>
	<g enable-background="new    ">
		<g>
			<polygon fill="#CCD2D6" points="74.8,237.5 74.8,243.7 41.1,224.3 41.1,218.1 			"/>
		</g>
		<g>
			<polygon fill="#CCD2D6" points="84.6,237.5 84.6,243.7 56.2,260.2 56.3,254 			"/>
		</g>
		<g>
			<polygon fill="#CCD2D6" points="74,269.8 74,276 46.5,260.2 46.5,254 			"/>
		</g>
		<g>
			<polygon fill="#F8F9FC" points="78.9,267 78.8,273.2 74,276 74,269.8 			"/>
		</g>
		<g>
			<polygon fill="#F4F7F9" points="84.6,237.5 56.3,254 78.9,267 74,269.8 46.5,254 74.8,237.5 41.1,218.1 45.9,215.3 			"/>
		</g>
	</g>
</g>
<g>
	<g enable-background="new    ">
		<g>
			<polygon fill="#CCD2D6" points="339.9,160.7 339.9,166.9 319.9,178.6 319.9,172.4 			"/>
		</g>
		<g>
			<polygon fill="#9CB5CC" points="319.9,172.4 319.9,178.6 315,175.7 315,169.6 			"/>
		</g>
		<g>
			<polygon fill="#CCD2D6" points="368.5,177.1 368.5,183.3 339.9,166.9 339.9,160.7 			"/>
		</g>
		<g>
			<polygon fill="#CCD2D6" points="402.9,157 402.9,163.2 368.5,183.3 368.5,177.1 			"/>
		</g>
		<g>
			<polygon fill="#F4F7F9" points="402.9,157 368.5,177.1 339.9,160.7 319.9,172.4 315,169.6 339.9,155.1 368.4,171.5 398,154.2 			
				"/>
		</g>
	</g>
	<g enable-background="new    ">
		<g>
			<polygon fill="#CCD2D6" points="429.7,172.5 429.7,178.7 375.3,210.4 375.3,204.2 			"/>
		</g>
		<g>
			<polygon fill="#9CB5CC" points="375.3,204.2 375.3,210.4 370.4,207.6 370.4,201.4 			"/>
		</g>
		<g>
			<polygon fill="#F4F7F9" points="429.7,172.5 375.3,204.2 370.4,201.4 424.8,169.7 			"/>
		</g>
	</g>
	<g enable-background="new    ">
		<g>
			<polygon fill="#CCD2D6" points="457.1,188.2 457.1,194.4 423.9,213.8 423.9,207.6 			"/>
		</g>
		<g>
			<polygon fill="#CCD2D6" points="444.1,224.8 444.1,231 414.2,213.8 414.2,207.7 			"/>
		</g>
		<g>
			<polygon fill="#9CB5CC" points="432.6,237.2 432.6,243.4 427.7,240.5 427.7,234.4 			"/>
		</g>
		<g>
			<polygon fill="#CCD2D6" points="453.8,224.8 453.8,231 432.6,243.4 432.6,237.2 			"/>
		</g>
		<g>
			<polygon fill="#F4F7F9" points="457.1,188.2 423.9,207.6 453.8,224.8 432.6,237.2 427.7,234.4 444.1,224.8 414.2,207.7 
				452.3,185.4 			"/>
		</g>
	</g>
	<g enable-background="new    ">
		<g>
			<polygon fill="#CCD2D6" points="541.8,236.9 541.8,243.1 487.4,274.9 487.4,268.7 			"/>
		</g>
		<g>
			<polygon fill="#9CB5CC" points="487.4,268.7 487.4,274.9 482.5,272 482.5,265.9 			"/>
		</g>
		<g>
			<polygon fill="#F4F7F9" points="541.8,236.9 487.4,268.7 482.5,265.9 536.9,234.1 			"/>
		</g>
	</g>
</g>
<g>
	<g>
		<g>
			<polygon fill="#B1BAC1" points="339,178.3 339,203 329,208.8 329,184.2 			"/>
		</g>
	</g>
	<g>
		<polygon fill="#012234" points="329,184.2 329,208.8 296.2,190 296.2,165.3 		"/>
	</g>
	<g>
		<g>
			<polygon fill="#C2CCD3" points="339,178.3 329,184.2 296.2,165.3 306.2,159.5 			"/>
		</g>
	</g>
	<g>
		<g>
			<polygon fill="#C2CCD3" points="395,210.5 385,216.3 352.3,197.5 362.3,191.7 			"/>
		</g>
	</g>
	<g>
		<polygon fill="#012234" points="385,216.3 385,241 352.3,222.2 352.3,197.5 		"/>
	</g>
	<g>
		<g>
			<polygon fill="#B1BAC1" points="395,210.5 395,235.2 385,241 385,216.3 			"/>
		</g>
	</g>
	<g>
		<g>
			<polygon fill="#B1BAC1" points="451.1,242.7 451.1,267.4 441.1,273.3 441.1,248.6 			"/>
		</g>
	</g>
	<g>
		<g>
			<polygon fill="#C2CCD3" points="451.1,242.7 441.1,248.6 408.3,229.7 418.3,223.9 			"/>
		</g>
	</g>
	<g>
		<polygon fill="#012234" points="441.1,248.6 441.1,273.3 408.3,254.4 408.3,229.7 		"/>
	</g>
	<g>
		<polygon fill="#012234" points="497.1,280.8 497.1,305.5 464.4,286.6 464.4,262 		"/>
	</g>
	<g>
		<g>
			<polygon fill="#B1BAC1" points="507.1,275 507.1,299.7 497.1,305.5 497.1,280.8 			"/>
		</g>
	</g>
	<g>
		<g>
			<polygon fill="#C2CCD3" points="507.1,275 497.1,280.8 464.4,262 474.4,256.1 			"/>
		</g>
	</g>
</g>
<g>
	<g enable-background="new    ">
		<g>
			<polygon fill="#025A82" points="204.2,197.8 204.2,222.5 171.7,241.5 171.7,216.8 			"/>
		</g>
		<g>
			<g>
				<polygon fill="#B1BAC1" points="171.7,216.8 171.7,241.5 161.6,235.7 161.6,211 				"/>
			</g>
		</g>
		<g>
			<g>
				<polygon fill="#C2CCD3" points="204.2,197.8 171.7,216.8 161.6,211 194.2,192 				"/>
			</g>
		</g>
	</g>
	<g enable-background="new    ">
		<g>
			<polygon fill="#025A82" points="148.7,230.2 148.6,254.9 116.1,273.9 116.1,249.2 			"/>
		</g>
		<g>
			<g>
				<polygon fill="#B1BAC1" points="116.1,249.2 116.1,273.9 106,268.1 106.1,243.4 				"/>
			</g>
		</g>
		<g>
			<g>
				<polygon fill="#C2CCD3" points="148.7,230.2 116.1,249.2 106.1,243.4 138.6,224.4 				"/>
			</g>
		</g>
	</g>
	<g enable-background="new    ">
		<g>
			<polygon fill="#025A82" points="93.1,262.6 93.1,287.3 60.5,306.3 60.6,281.6 			"/>
		</g>
		<g>
			<g>
				<polygon fill="#B1BAC1" points="60.6,281.6 60.5,306.3 50.5,300.5 50.5,275.8 				"/>
			</g>
		</g>
		<g>
			<g>
				<polygon fill="#C2CCD3" points="93.1,262.6 60.6,281.6 50.5,275.8 83,256.9 				"/>
			</g>
		</g>
	</g>
	<g>
		<g>
			<polygon fill="#C2CCD3" points="259.7,165.4 227.3,184.3 217.2,178.6 249.7,159.6 			"/>
		</g>
	</g>
	<g>
		<g>
			<polygon fill="#B1BAC1" points="227.3,184.3 227.2,209 217.2,203.2 217.2,178.6 			"/>
		</g>
	</g>
	<g>
		<polygon fill="#025A82" points="259.7,165.4 259.7,190.1 227.2,209 227.3,184.3 		"/>
	</g>
</g>
<g>
	<polygon fill="#DCE1E5" points="280,424.8 280,458.5 298.1,447.9 330.6,428.9 353.7,415.5 386.2,396.5 409.2,383.1 441.8,364.1 
		464.8,350.6 497.3,331.7 515.5,321.1 515.5,287.4 	"/>
	<g>
		<polygon fill="#C2CCD3" points="42.4,288.2 42.4,321.9 60.7,332.5 93.5,351.3 116.8,364.7 149.5,383.5 162.8,391.2 205.6,415.7 
			228.9,429.1 261.6,448 280,458.5 280,424.8 		"/>
	</g>
	<g>
		<polygon fill="#F4F7F9" points="515.5,287.4 497.3,298 464.8,316.9 441.8,330.4 409.2,349.4 386.2,362.8 353.7,381.8 330.6,395.2 
			298.1,414.2 280,424.8 261.6,414.3 228.9,395.4 205.6,382 172.8,363.2 149.5,349.8 116.8,331 93.5,317.6 60.7,298.8 42.4,288.2 
			60.6,277.7 93.1,258.7 116.1,245.2 148.7,226.2 171.7,212.8 204.2,193.8 227.3,180.4 259.7,161.4 277.9,150.8 296.2,161.3 
			329,180.2 352.3,193.5 385,212.4 408.3,225.8 441.1,244.6 464.4,258 497.1,276.8 		"/>
	</g>
</g>
<g>
	<g enable-background="new    ">
		<g>
			<g>
				<polygon fill="#959FA5" points="466.9,281.1 466.9,287.2 279.7,396.5 279.8,390.3 				"/>
			</g>
		</g>
		<g>
			<g>
				<polygon fill="#C2CCD3" points="279.8,390.3 279.7,396.5 90.9,287.9 90.9,281.7 				"/>
			</g>
		</g>
		<g>
			
				<linearGradient id="SVGID_1_" gradientUnits="userSpaceOnUse" x1="90.9" y1="318.6" x2="466.9" y2="318.6" gradientTransform="matrix(1 0 0 -1 0 600)">
				<stop  offset="0" style="stop-color:#828B94"/>
				<stop  offset="1" style="stop-color:#B1BAC1"/>
			</linearGradient>
			<polygon fill="url(#SVGID_1_)" points="466.9,281.1 279.8,390.3 90.9,281.7 278.1,172.5 			"/>
		</g>
	</g>
</g>
<g enable-background="new    ">
	<g>
		<polygon fill="#F8F9FC" points="302.2,207.7 302.2,213.9 279.3,227.2 279.3,221.1 		"/>
	</g>
	<g>
		<polygon fill="#CCD2D6" points="279.3,221.1 279.3,227.2 256.2,213.9 256.2,207.8 		"/>
	</g>
	<g>
		<polygon fill="#F4F7F9" points="302.2,207.7 279.3,221.1 256.2,207.8 279.1,194.4 		"/>
	</g>
</g>
<g enable-background="new    ">
	<g>
		<polygon fill="#F8F9FC" points="365.7,244.2 365.7,250.3 342.8,263.7 342.8,257.5 		"/>
	</g>
	<g>
		<polygon fill="#CCD2D6" points="342.8,257.5 342.8,263.7 319.6,250.4 319.6,244.2 		"/>
	</g>
	<g>
		<polygon fill="#F4F7F9" points="365.7,244.2 342.8,257.5 319.6,244.2 342.6,230.9 		"/>
	</g>
</g>
<g enable-background="new    ">
	<g>
		<polygon fill="#F8F9FC" points="429.2,280.6 429.1,286.8 406.2,300.2 406.2,294 		"/>
	</g>
	<g>
		<polygon fill="#CCD2D6" points="406.2,294 406.2,300.2 383.1,286.9 383.1,280.7 		"/>
	</g>
	<g>
		<polygon fill="#F4F7F9" points="429.2,280.6 406.2,294 383.1,280.7 406,267.3 		"/>
	</g>
</g>
<g enable-background="new    ">
	<g>
		<polygon fill="#F8F9FC" points="302.1,244.5 302.1,250.7 279.1,264.1 279.1,257.9 		"/>
	</g>
	<g>
		<polygon fill="#CCD2D6" points="279.1,257.9 279.1,264.1 256.1,250.8 256.1,244.6 		"/>
	</g>
	<g>
		<polygon fill="#F4F7F9" points="302.1,244.5 279.1,257.9 256.1,244.6 279,231.2 		"/>
	</g>
</g>
<g enable-background="new    ">
	<g>
		<polygon fill="#F8F9FC" points="365.6,281 365.6,287.2 342.6,300.6 342.7,294.4 		"/>
	</g>
	<g>
		<polygon fill="#CCD2D6" points="342.7,294.4 342.6,300.6 319.5,287.3 319.5,281.1 		"/>
	</g>
	<g>
		<polygon fill="#F4F7F9" points="365.6,281 342.7,294.4 319.5,281.1 342.5,267.7 		"/>
	</g>
</g>
<g enable-background="new    ">
	<g>
		<polygon fill="#F8F9FC" points="238.5,244.9 238.5,251.1 215.5,264.5 215.5,258.3 		"/>
	</g>
	<g>
		<polygon fill="#CCD2D6" points="215.5,258.3 215.5,264.5 192.4,251.2 192.4,245 		"/>
	</g>
	<g>
		<polygon fill="#F4F7F9" points="238.5,244.9 215.5,258.3 192.4,245 215.3,231.6 		"/>
	</g>
</g>
<g enable-background="new    ">
	<g>
		<polygon fill="#F8F9FC" points="365.4,317.9 365.4,324 342.4,337.4 342.4,331.2 		"/>
	</g>
	<g>
		<polygon fill="#CCD2D6" points="342.4,331.2 342.4,337.4 319.3,324.1 319.3,317.9 		"/>
	</g>
	<g>
		<polygon fill="#F4F7F9" points="365.4,317.9 342.4,331.2 319.3,317.9 342.2,304.6 		"/>
	</g>
</g>
<g enable-background="new    ">
	<g>
		<polygon fill="#F8F9FC" points="238.3,281.7 238.3,287.9 215.4,301.3 215.4,295.1 		"/>
	</g>
	<g>
		<polygon fill="#CCD2D6" points="215.4,295.1 215.4,301.3 192.3,288 192.3,281.8 		"/>
	</g>
	<g>
		<polygon fill="#F4F7F9" points="238.3,281.7 215.4,295.1 192.3,281.8 215.2,268.5 		"/>
	</g>
</g>
<g enable-background="new    ">
	<g>
		<polygon fill="#F8F9FC" points="301.8,318.2 301.8,324.4 278.9,337.8 278.9,331.6 		"/>
	</g>
	<g>
		<polygon fill="#CCD2D6" points="278.9,331.6 278.9,337.8 255.7,324.5 255.7,318.3 		"/>
	</g>
	<g>
		<polygon fill="#F4F7F9" points="301.8,318.2 278.9,331.6 255.7,318.3 278.7,304.9 		"/>
	</g>
</g>
<g enable-background="new    ">
	<g>
		<polygon fill="#F8F9FC" points="174.7,282.1 174.7,288.3 151.8,301.7 151.8,295.5 		"/>
	</g>
	<g>
		<polygon fill="#CCD2D6" points="151.8,295.5 151.8,301.7 128.7,288.4 128.7,282.2 		"/>
	</g>
	<g>
		<polygon fill="#F4F7F9" points="174.7,282.1 151.8,295.5 128.7,282.2 151.6,268.8 		"/>
	</g>
</g>
<g enable-background="new    ">
	<g>
		<polygon fill="#F8F9FC" points="238.2,318.6 238.2,324.7 215.3,338.1 215.3,332 		"/>
	</g>
	<g>
		<polygon fill="#CCD2D6" points="215.3,332 215.3,338.1 192.1,324.8 192.1,318.7 		"/>
	</g>
	<g>
		<polygon fill="#F4F7F9" points="238.2,318.6 215.3,332 192.1,318.7 215.1,305.3 		"/>
	</g>
</g>
<g enable-background="new    ">
	<g>
		<polygon fill="#F8F9FC" points="301.7,355.1 301.7,361.2 278.7,374.6 278.7,368.4 		"/>
	</g>
	<g>
		<polygon fill="#CCD2D6" points="278.7,368.4 278.7,374.6 255.6,361.3 255.6,355.1 		"/>
	</g>
	<g>
		<polygon fill="#F4F7F9" points="301.7,355.1 278.7,368.4 255.6,355.1 278.5,341.8 		"/>
	</g>
</g>
<g>
	<g enable-background="new    ">
		<g>
			<g>
				<polygon fill="#B1BAC1" points="93.5,321.6 93.5,346.3 83.5,352.1 83.6,327.4 				"/>
			</g>
		</g>
		<g>
			<g>
				<polygon fill="#C2CCD3" points="83.6,327.4 83.5,352.1 50.7,333.3 50.7,308.6 				"/>
			</g>
		</g>
		<g>
			<polygon fill="#DCE1E5" points="93.5,321.6 83.6,327.4 50.7,308.6 60.7,302.7 			"/>
		</g>
	</g>
	<g enable-background="new    ">
		<g>
			<g>
				<polygon fill="#B1BAC1" points="149.5,353.8 149.5,378.5 139.5,384.3 139.6,359.6 				"/>
			</g>
		</g>
		<g>
			<g>
				<polygon fill="#C2CCD3" points="139.6,359.6 139.5,384.3 106.8,365.5 106.8,340.8 				"/>
			</g>
		</g>
		<g>
			<polygon fill="#DCE1E5" points="149.5,353.8 139.6,359.6 106.8,340.8 116.8,335 			"/>
		</g>
	</g>
	<g enable-background="new    ">
		<g>
			<g>
				<polygon fill="#B1BAC1" points="261.6,418.2 261.6,442.9 251.6,448.8 251.7,424.1 				"/>
			</g>
		</g>
		<g>
			<g>
				<polygon fill="#C2CCD3" points="251.7,424.1 251.6,448.8 218.9,429.9 218.9,405.2 				"/>
			</g>
		</g>
		<g>
			<polygon fill="#DCE1E5" points="261.6,418.2 251.7,424.1 218.9,405.2 228.9,399.4 			"/>
		</g>
	</g>
	<g enable-background="new    ">
		<g>
			<g>
				<polygon fill="#B1BAC1" points="205,385.5 205,410.1 195,416 195,391.3 				"/>
			</g>
		</g>
		<g>
			<g>
				<polygon fill="#C2CCD3" points="195,391.3 195,416 162.3,397.1 162.3,372.4 				"/>
			</g>
		</g>
		<g>
			<polygon fill="#DCE1E5" points="205,385.5 195,391.3 162.3,372.4 172.3,366.6 			"/>
		</g>
	</g>
	<g enable-background="new    ">
		<g>
			<g>
				<polygon fill="#B1BAC1" points="507.4,307.7 507.3,332.4 474.9,351.4 474.9,326.7 				"/>
			</g>
		</g>
		<g>
			<g>
				<polygon fill="#C2CCD3" points="474.9,326.7 474.9,351.4 464.8,345.6 464.8,320.9 				"/>
			</g>
		</g>
		<g>
			<polygon fill="#DCE1E5" points="507.4,307.7 474.9,326.7 464.8,320.9 497.3,302 			"/>
		</g>
	</g>
	<g enable-background="new    ">
		<g>
			<g>
				<polygon fill="#B1BAC1" points="451.9,340.1 451.8,364.8 419.3,383.8 419.3,359.1 				"/>
			</g>
		</g>
		<g>
			<g>
				<polygon fill="#C2CCD3" points="419.3,359.1 419.3,383.8 409.2,378 409.3,353.3 				"/>
			</g>
		</g>
		<g>
			<polygon fill="#DCE1E5" points="451.9,340.1 419.3,359.1 409.3,353.3 441.8,334.4 			"/>
		</g>
	</g>
	<g enable-background="new    ">
		<g>
			<g>
				<polygon fill="#B1BAC1" points="396.3,372.6 396.3,397.3 363.7,416.2 363.8,391.6 				"/>
			</g>
		</g>
		<g>
			<g>
				<polygon fill="#C2CCD3" points="363.8,391.6 363.7,416.2 353.7,410.5 353.7,385.8 				"/>
			</g>
		</g>
		<g>
			<polygon fill="#DCE1E5" points="396.3,372.6 363.8,391.6 353.7,385.8 386.2,366.8 			"/>
		</g>
	</g>
	<g enable-background="new    ">
		<g>
			<g>
				<polygon fill="#B1BAC1" points="340.7,405 340.7,429.7 308.2,448.7 308.2,424 				"/>
			</g>
		</g>
		<g>
			<g>
				<polygon fill="#C2CCD3" points="308.2,424 308.2,448.7 298.1,442.9 298.1,418.2 				"/>
			</g>
		</g>
		<g>
			<polygon fill="#DCE1E5" points="340.7,405 308.2,424 298.1,418.2 330.7,399.2 			"/>
		</g>
	</g>
</g>
<g>
	<g enable-background="new    ">
		<g>
			<g enable-background="new    ">
				<path fill="#CCD2D6" d="M181.9,395.3v6.2c-12.7,7.4-26.6,15.5-32.2,18.7V414C155.3,410.8,169.2,402.7,181.9,395.3L181.9,395.3z"
					/>
			</g>
		</g>
		<g>
			<polygon fill="#F8F9FC" points="175.1,428.6 175.1,434.8 170.3,437.6 170.3,431.5 			"/>
		</g>
		<g>
			<polygon fill="#CCD2D6" points="170.3,431.5 170.3,437.6 139.9,420.2 139.9,414 			"/>
		</g>
		<g>
			<path fill="#F4F7F9" d="M181.9,395.3c-12.7,7.4-26.6,15.5-32.2,18.7l25.5,14.6l-4.8,2.8L139.9,414l2.4-1.4
				c0.3-0.2,18.6-10.7,34.6-20.1L181.9,395.3z"/>
		</g>
	</g>
	<g enable-background="new    ">
		<g>
			<polygon fill="#F8F9FC" points="238.3,427.7 238.3,433.9 224.2,442.1 224.2,435.9 			"/>
		</g>
		<g>
			<polygon fill="#CCD2D6" points="232.1,446.1 232.1,452.3 214.4,442.1 214.4,436 			"/>
		</g>
		<g>
			<polygon fill="#CCD2D6" points="218.4,459.7 218.4,465.9 213.5,463.1 213.5,456.9 			"/>
		</g>
		<g>
			<polygon fill="#CCD2D6" points="241.8,446.1 241.8,452.2 218.4,465.9 218.4,459.7 			"/>
		</g>
		<g>
			<polygon fill="#F4F7F9" points="238.3,427.7 224.2,435.9 241.8,446.1 218.4,459.7 213.5,456.9 232.1,446.1 214.4,436 
				233.4,424.9 			"/>
		</g>
	</g>
	<g enable-background="new    ">
		<g>
			<polygon fill="#CCD2D6" points="69.2,330.5 69.2,336.7 32.2,358.3 32.2,352.1 			"/>
		</g>
		<g>
			<polygon fill="#CCD2D6" points="32.2,352.1 32.2,358.3 27.3,355.5 27.3,349.3 			"/>
		</g>
		<g>
			<polygon fill="#F4F7F9" points="69.2,330.5 32.2,352.1 27.3,349.3 64.3,327.7 			"/>
		</g>
	</g>
	<g enable-background="new    ">
		<g>
			<g enable-background="new    ">
				<path fill="#CCD2D6" d="M123.3,361.6v6.2c-16.1,9.4-34.2,20.1-34.5,20.2v-6.2C89.1,381.6,107.2,371,123.3,361.6L123.3,361.6z"/>
			</g>
		</g>
		<g>
			<polygon fill="#F8F9FC" points="88.8,381.8 88.8,388 86.4,389.4 86.4,383.3 			"/>
		</g>
		<g>
			<polygon fill="#CCD2D6" points="86.4,383.3 86.4,389.4 68.8,379.3 68.8,373.1 			"/>
		</g>
		<g>
			<path fill="#F4F7F9" d="M123.3,361.6c-16.1,9.4-34.2,20.1-34.5,20.2l-2.4,1.5l-17.6-10.1l4.8-2.8l12.7,7.3
				c5.6-3.2,19.4-11.4,32.1-18.8L123.3,361.6z"/>
		</g>
	</g>
</g>
<g>
	<g enable-background="new    ">
		<g>
			<polygon fill="#CCD2D6" points="540.4,323.3 540.4,329.4 510.8,346.7 510.8,340.5 			"/>
		</g>
		<g>
			<polygon fill="#CCD2D6" points="510.8,340.5 510.8,346.7 490.8,335.2 490.8,329 			"/>
		</g>
		<g>
			<polygon fill="#CCD2D6" points="573.9,342.5 573.9,348.7 540.4,329.4 540.4,323.3 			"/>
		</g>
		<g>
			<polygon fill="#F8F9FC" points="578.8,339.7 578.8,345.9 573.9,348.7 573.9,342.5 			"/>
		</g>
		<g>
			<polygon fill="#F4F7F9" points="578.8,339.7 573.9,342.5 540.4,323.3 510.8,340.5 490.8,329 495.6,326.2 510.7,334.9 
				540.4,317.6 			"/>
		</g>
	</g>
	<g enable-background="new    ">
		<g>
			<polygon fill="#F8F9FC" points="492.3,390.1 492.3,396.3 487.4,399.1 487.4,393 			"/>
		</g>
		<g>
			<polygon fill="#CCD2D6" points="487.4,393 487.4,399.1 433.9,368.4 433.9,362.2 			"/>
		</g>
		<g>
			<polygon fill="#F4F7F9" points="492.3,390.1 487.4,393 433.9,362.2 438.8,359.4 			"/>
		</g>
	</g>
	<g enable-background="new    ">
		<g>
			<g enable-background="new    ">
				<path fill="#CCD2D6" d="M428.8,421.5v6.2c-6.3-3.6-23.3-13.2-37.1-21.2c-4.4-2.5-8.4-4.8-11.7-6.8v-6.2
					c3.3,1.9,7.3,4.2,11.7,6.8C405.5,408.3,422.5,417.9,428.8,421.5L428.8,421.5z"/>
			</g>
		</g>
		<g>
			<polygon fill="#CCD2D6" points="408.4,439.1 408.4,445.3 403.5,442.5 403.5,436.3 			"/>
		</g>
		<g>
			<polygon fill="#CCD2D6" points="438.6,421.5 438.5,427.7 408.4,445.3 408.4,439.1 			"/>
		</g>
		<g>
			<path fill="#F4F7F9" d="M438.6,421.5l-30.1,17.6l-4.9-2.8l25.3-14.8c-6.3-3.6-23.3-13.2-37.1-21.2c-4.4-2.5-8.4-4.8-11.7-6.8
				l4.8-2.8c3.2,1.9,7.2,4.2,11.5,6.6c17.1,9.8,39.4,22.5,39.7,22.7L438.6,421.5z"/>
		</g>
	</g>
	<g enable-background="new    ">
		<g>
			<polygon fill="#CCD2D6" points="382.3,454.3 382.3,460.5 377.5,463.3 377.5,457.2 			"/>
		</g>
		<g>
			<polygon fill="#CCD2D6" points="377.5,457.2 377.5,463.3 323.9,432.6 323.9,426.4 			"/>
		</g>
		<g>
			<polygon fill="#F4F7F9" points="382.3,454.3 377.5,457.2 323.9,426.4 328.8,423.6 			"/>
		</g>
	</g>
</g>
<g enable-background="new    ">
	<g>
		<polygon fill="#F78696" points="301.7,283.2 301.7,289.3 278.7,302.7 278.7,296.5 		"/>
	</g>
	<g>
		<polygon fill="#C12B3A" points="278.7,296.5 278.7,302.7 255.6,289.4 255.6,283.2 		"/>
	</g>
	<g>
		<polygon fill="#E84B54" points="301.7,283.2 278.7,296.5 255.6,283.2 278.5,269.9 		"/>
	</g>
</g>
<g id="anim1" enable-background="new    ">
	<g>
		<polygon fill="#F78696" points="301.7,219.2 301.7,265.3 278.7,278.7 278.7,232.5 		"/>
	</g>
	<g>
		<polygon fill="#C12B3A" points="278.7,232.5 278.7,278.7 255.6,265.4 255.6,219.2 		"/>
	</g>
	<g>
		<polygon fill="#E84B54" points="301.7,219.2 278.7,232.5 255.6,219.2 278.5,205.9 		"/>
	</g>
</g>
</svg>
