<?xml version="1.0" encoding="utf-8"?>
<!-- Generator: Adobe Illustrator 22.0.1, SVG Export Plug-In . SVG Version: 6.00 Build 0)  -->
<svg version="1.1" id="Layer_1" xmlns="http://www.w3.org/2000/svg" xmlns:xlink="http://www.w3.org/1999/xlink" x="0px" y="0px"
	 viewBox="0 0 600 600" enable-background="new 0 0 600 600" xml:space="preserve">
<g>
	<g>
		<polygon fill="#DCE1E5" points="260.3,194.5 330,235 400.2,194.5 		"/>
	</g>
</g>
<g>
	<linearGradient id="SVGID_1_" gradientUnits="userSpaceOnUse" x1="17.5992" y1="337.7386" x2="582.3748" y2="337.7386">
		<stop  offset="0" style="stop-color:#b1bac1"/>
		<stop  offset="1" style="stop-color:#67717C"/>
	</linearGradient>
	<polygon fill="url(#SVGID_1_)" points="260.3,194.5 330,235 400.2,194.5 582.4,300.4 269.5,481 17.6,334.6 	"/>
</g>
<g>
	<polygon fill="#C2CCD3" points="269.5,481 582.4,300.4 582.4,310 269.5,490.6 17.6,344.3 17.6,334.6 	"/>
</g>
<g>
	<polygon fill="#DCE1E5" points="269.5,491.1 582.4,310.5 582.4,320.1 269.5,500.7 17.6,354.4 17.6,344.7 	"/>
</g>
<g>
	<polygon fill="#C2CCD3" points="269.5,500.7 582.4,320.1 582.4,329.7 269.5,510.3 17.6,364 17.6,354.3 	"/>
</g>
<g enable-background="new    ">
	<g>
		<g>
			<polygon fill="#C2CCD3" points="131.3,344.5 166.8,323.9 167.2,191.9 131.7,212.5 			"/>
		</g>
	</g>
	<g>
		<g>
			<polygon fill="#F4F7F9" points="131.7,212.5 167.2,191.9 128.9,169.8 93.5,190.4 			"/>
		</g>
	</g>
	<g>
		<polygon fill="#DCE1E5" points="93.5,190.4 93.1,322.5 131.3,344.5 131.7,212.5 		"/>
	</g>
</g>
<g id="anim4" enable-background="new    ">
	<g>
		<g>
			<polygon fill="#C2CCD3" points=" 			">
				<animate 
					attributeName="points"
					values="131.3,344.5 166.8,323.9 167.2,191.9 131.7,212.5;
							131.3,274.5 166.8,253.9 167.2,121.9 131.7,142.5;
							131.3,344.5 166.8,323.9 167.2,191.9 131.7,212.5"
					dur="3s"
					begin="0" 
					repeatCount="indefinite"
					id="anim-a-1" />
			</polygon>
		</g>
	</g>
	<g>
		<g>
			<polygon fill="#F4F7F9" points=" 			">
				<animate 
					attributeName="points"
					values="131.7,212.5 167.2,191.9 128.9,169.8 93.5,190.4;
							131.7,142.5 167.2,121.9 128.9,99.8 93.5,120.4;
							131.7,212.5 167.2,191.9 128.9,169.8 93.5,190.4"
					dur="3s"
					begin="0" 
					repeatCount="indefinite"
					id="anim-a-2" />

			</polygon>
		</g>
	</g>
	<g>
		<polygon fill="#DCE1E5" points=" 		">
				<animate 
					attributeName="points"
					values="93.5,190.4 93.1,322.5 131.3,344.5 131.7,212.5;
							93.5,120.4 93.1,252.5 131.3,274.5 131.7,142.5;
							93.5,190.4 93.1,322.5 131.3,344.5 131.7,212.5"
					dur="3s"
					begin="0" 
					repeatCount="indefinite"
					id="anim-a-3" />

		</polygon>
	</g>
</g>
<g enable-background="new    ">
	<g>
		<g>
			<polygon fill="#C2CCD3" points="179.9,372.6 215.4,351.9 215.6,271.4 180.1,292 			"/>
		</g>
	</g>
	<g>
		<g>
			<polygon fill="#F4F7F9" points="180.1,292 215.6,271.4 177.3,249.3 141.9,269.9 			"/>
		</g>
	</g>
	<g>
		<polygon fill="#DCE1E5" points="141.9,269.9 141.6,350.5 179.9,372.6 180.1,292 		"/>
	</g>
</g>
<g enable-background="new    ">
	<g>
		<g>
			<polygon fill="#C2CCD3" points="228.4,400.6 263.9,380 264.2,277.9 228.7,298.5 			"/>
		</g>
	</g>
	<g>
		<g>
			<polygon fill="#F4F7F9" points="228.7,298.5 264.2,277.9 225.9,255.8 190.4,276.4 			"/>
		</g>
	</g>
	<g>
		<polygon fill="#DCE1E5" points="190.4,276.4 190.2,378.5 228.4,400.6 228.7,298.5 		"/>
	</g>
</g>
<g enable-background="new    ">
	<g>
		<g>
			<polygon fill="#C2CCD3" points="277,428.1 312.5,407.4 312.6,351.2 277.1,371.8 			"/>
		</g>
	</g>
	<g>
		<g>
			<polygon fill="#F4F7F9" points="277.1,371.8 312.6,351.2 274.4,329.1 238.9,349.7 			"/>
		</g>
	</g>
	<g>
		<polygon fill="#DCE1E5" points="238.9,349.7 238.7,406 277,428.1 277.1,371.8 		"/>
	</g>
</g>
<g id="anim3" enable-background="new    ">
	<g>
		<g>
			<polygon fill="#C2CCD3" points="">
				
				<animate 
					attributeName="points"
					values="228.6,355.6 264.1,334.9 264.3,278.7 228.8,299.3;
							228.6,335.6 264.1,314.9 264.3,258.7 228.8,279.3;
							228.6,355.6 264.1,334.9 264.3,278.7 228.8,299.3"
					dur="3s"
					begin="0" 
					repeatCount="indefinite"
					id="anim-b-1" />

			</polygon>
		</g>
	</g>
	<g>
		<g>
			<polygon fill="#F4F7F9" points="			">
				<animate 
					attributeName="points"
					values="228.8,299.3 264.3,278.7 226,256.6 190.5,277.2;
							228.8,279.3 264.3,258.7 226,236.6 190.5,257.2;
							228.8,299.3 264.3,278.7 226,256.6 190.5,277.2"
					dur="3s"
					begin="0" 
					repeatCount="indefinite"
					id="anim-b-2" />
			</polygon>
		</g>
	</g>
	<g>
		<polygon fill="#DCE1E5" points="190.5,277.2 190.4,333.5 228.6,355.6 228.8,299.3 		">

			<animate 
					attributeName="points"
					values="190.5,277.2 190.4,333.5 228.6,355.6 228.8,299.3;
							190.5,257.2 190.4,313.5 228.6,335.6 228.8,279.3;
							190.5,277.2 190.4,333.5 228.6,355.6 228.8,299.3"
					dur="3s"
					begin="0" 
					repeatCount="indefinite"
					id="anim-b-3" />

		</polygon>
	</g>
</g>
<g id="XMLID_9_">
	<path id="XMLID_415_" fill="none" d="M398.1,291.7c-0.1-0.4-0.2-0.8-0.3-1.1C397.9,290.9,398,291.3,398.1,291.7z"/>
	<path id="XMLID_414_" fill="none" d="M473.4,286.3c0,0.4,0.1,0.8,0.1,1.2C473.4,287.1,473.4,286.7,473.4,286.3z"/>
	<path id="XMLID_413_" fill="none" d="M473.1,290.5c-0.1,0.4-0.2,0.8-0.3,1.1C473,291.3,473.1,290.9,473.1,290.5z"/>
	<path id="XMLID_412_" fill="none" d="M473.4,289.1c0,0.4-0.1,0.8-0.2,1.2C473.3,289.9,473.3,289.5,473.4,289.1z"/>
	<path id="XMLID_411_" fill="none" d="M473.4,287.6c0,0.4,0,0.9-0.1,1.3C473.4,288.5,473.4,288.1,473.4,287.6z"/>
	<path id="XMLID_410_" fill="none" d="M472.8,291.8c-0.1,0.4-0.3,0.9-0.5,1.3C472.5,292.7,472.7,292.3,472.8,291.8z"/>
	<path id="XMLID_409_" fill="none" d="M398.3,283.3c0.1-0.4,0.3-0.7,0.4-1.1C398.6,282.6,398.5,282.9,398.3,283.3z"/>
	<path id="XMLID_408_" fill="none" d="M397.7,286.1c0-0.4,0.1-0.7,0.2-1.1C397.8,285.3,397.7,285.7,397.7,286.1z"/>
	<path id="XMLID_407_" fill="none" d="M397.8,290.3c-0.1-0.4-0.1-0.8-0.2-1.2C397.6,289.5,397.7,289.9,397.8,290.3z"/>
	<path id="XMLID_406_" fill="none" d="M397.5,287.5c0-0.4,0-0.8,0.1-1.2C397.6,286.7,397.6,287.1,397.5,287.5z"/>
	<path id="XMLID_405_" fill="none" d="M397.6,289c0-0.4-0.1-0.9-0.1-1.3C397.5,288.1,397.5,288.5,397.6,289z"/>
	<path id="XMLID_404_" fill="none" d="M397.9,284.8c0.1-0.4,0.2-0.9,0.4-1.3C398.1,283.9,398,284.3,397.9,284.8z"/>
	<path id="XMLID_403_" fill="none" d="M467.2,275.6c0.4,0.4,0.8,0.7,1.2,1.1C468,276.3,467.6,276,467.2,275.6z"/>
	<path id="XMLID_402_" fill="none" d="M465.9,274.5c0.4,0.3,0.8,0.6,1.2,1C466.7,275.2,466.3,274.9,465.9,274.5z"/>
	<path id="XMLID_401_" fill="none" d="M468.7,277c0.3,0.3,0.5,0.6,0.8,0.9C469.2,277.6,469,277.3,468.7,277z"/>
	<path id="XMLID_400_" fill="none" d="M462.4,272.2c0.5,0.3,1.1,0.6,1.6,1C463.5,272.8,463,272.5,462.4,272.2z"/>
	<path id="XMLID_399_" fill="none" d="M464.4,273.5c0.4,0.2,0.7,0.5,1.1,0.8C465.2,274,464.8,273.7,464.4,273.5z"/>
	<path id="XMLID_398_" fill="none" d="M473.1,285c0.1,0.4,0.1,0.7,0.2,1.1C473.3,285.7,473.2,285.3,473.1,285z"/>
	<path id="XMLID_397_" fill="none" d="M472.2,282.2c0.2,0.4,0.3,0.7,0.4,1.1C472.5,282.9,472.4,282.6,472.2,282.2z"/>
	<path id="XMLID_396_" fill="none" d="M472.7,283.5c0.1,0.4,0.3,0.9,0.4,1.3C473,284.3,472.9,283.9,472.7,283.5z"/>
	<path id="XMLID_395_" fill="none" d="M470.6,279.4c0.3,0.4,0.5,0.8,0.8,1.2C471.2,280.2,470.9,279.8,470.6,279.4z"/>
	<path id="XMLID_394_" fill="none" d="M471.6,280.9c0.2,0.3,0.4,0.7,0.5,1C471.9,281.6,471.8,281.2,471.6,280.9z"/>
	<path id="XMLID_393_" fill="none" d="M469.7,278.2c0.3,0.3,0.5,0.7,0.8,1C470.3,278.9,470,278.6,469.7,278.2z"/>
	<path id="XMLID_392_" fill="none" d="M408.4,272.4c-0.4,0.3-0.9,0.5-1.3,0.8C407.5,272.9,407.9,272.6,408.4,272.4L408.4,272.4z"/>
	<path id="XMLID_391_" fill="none" d="M402.6,276.7c0.4-0.4,0.8-0.7,1.2-1.1C403.4,276,403,276.3,402.6,276.7z"/>
	<path id="XMLID_390_" fill="none" d="M462.4,282.9v10.2V282.9c-14.7-8.6-38.9-8.6-53.7,0c-0.1,0.1-0.2,0.1-0.3,0.2v10v-10
		c-4.9,2.9-8.1,6.4-9.7,10c-0.2-0.4-0.4-0.9-0.5-1.3c1.4,4.2,4.8,8.3,10.5,11.6c14.9,8.6,39,8.6,53.7,0c5-2.9,8.3-6.5,9.9-10.2
		C470.7,289.4,467.4,285.8,462.4,282.9z"/>
	<path id="XMLID_389_" fill="none" d="M401.6,277.9c0.3-0.3,0.5-0.6,0.8-0.9C402.1,277.3,401.8,277.6,401.6,277.9z"/>
	<path id="XMLID_388_" fill="none" d="M400.5,279.3c0.3-0.4,0.5-0.7,0.8-1C401,278.6,400.7,278.9,400.5,279.3z"/>
	<path id="XMLID_387_" fill="none" d="M399.6,280.6c0.2-0.4,0.5-0.8,0.8-1.2C400.1,279.8,399.8,280.2,399.6,280.6z"/>
	<path id="XMLID_386_" fill="none" d="M403.9,275.5c0.4-0.3,0.8-0.7,1.2-1C404.7,274.9,404.3,275.2,403.9,275.5z"/>
	<path id="XMLID_385_" fill="none" d="M405.6,274.2c0.3-0.3,0.7-0.5,1.1-0.8C406.3,273.7,405.9,274,405.6,274.2z"/>
	<path id="XMLID_384_" fill="none" d="M398.9,281.9c0.2-0.3,0.3-0.7,0.5-1C399.2,281.2,399.1,281.6,398.9,281.9z"/>
	<path id="XMLID_383_" fill="none" d="M408.7,272.2c-0.1,0.1-0.2,0.1-0.3,0.2v0C408.5,272.3,408.6,272.2,408.7,272.2z"/>
	<g>
		<path fill="#CCD2D6" d="M490.9,270.7v64.1c-0.1,0-0.1,0.1-0.2,0.1c-30.3,17.7-80.2,17.7-110.9,0v-64.4c4.4-2.6,9.3-4.8,14.4-6.6
			l14.1,8.2v0.2c-0.4,0.3-0.9,0.5-1.3,0.8c-0.2,0.1-0.3,0.2-0.5,0.3c-0.4,0.3-0.7,0.5-1.1,0.8c-0.1,0.1-0.3,0.2-0.4,0.3
			c-0.4,0.3-0.8,0.6-1.2,1c0,0-0.1,0.1-0.1,0.1c-0.4,0.4-0.8,0.7-1.2,1.1c-0.1,0.1-0.2,0.2-0.3,0.3c-0.3,0.3-0.5,0.6-0.8,0.9
			c-0.1,0.1-0.2,0.2-0.3,0.3c-0.3,0.3-0.5,0.7-0.8,1c0,0-0.1,0.1-0.1,0.1c-0.3,0.4-0.5,0.8-0.8,1.2c0,0.1-0.1,0.2-0.1,0.3
			c-0.2,0.3-0.4,0.7-0.5,1c0,0.1-0.1,0.2-0.1,0.3c-0.2,0.4-0.3,0.7-0.4,1.1c0,0,0,0.1-0.1,0.1c-0.1,0.4-0.3,0.9-0.4,1.3
			c0,0.1,0,0.1,0,0.2c-0.1,0.4-0.1,0.7-0.2,1.1c0,0.1,0,0.2,0,0.3c0,0.4-0.1,0.8-0.1,1.2v0.1c0,0.4,0,0.9,0.1,1.3c0,0,0,0.1,0,0.1
			c0,0.4,0.1,0.8,0.2,1.2c0,0.1,0,0.2,0.1,0.3c0.1,0.4,0.2,0.8,0.3,1.1c0,0,0,0.1,0,0.1c0.1,0.3,0.2,0.5,0.3,0.8
			c0,0.1,0.1,0.2,0.1,0.3c0,0.1,0.1,0.2,0.1,0.3v0c0,0,0,0.1,0.1,0.1c0.3,0.6,0.6,1.2,0.9,1.8c0.1,0.2,0.2,0.3,0.3,0.5
			c0.8,1.3,1.8,2.5,3.1,3.7c0.2,0.2,0.4,0.4,0.7,0.6c0.4,0.3,0.7,0.6,1.1,0.9c0.3,0.2,0.6,0.5,0.9,0.7c0.3,0.2,0.5,0.4,0.8,0.6
			c0.7,0.5,1.4,0.9,2.1,1.3c14.9,8.6,39,8.6,53.7,0h0c2.5-1.5,4.6-3.1,6.2-4.8c1.6-1.7,2.9-3.5,3.7-5.4c0.2-0.4,0.3-0.9,0.5-1.3
			c0,0,0-0.1,0-0.1c0.1-0.4,0.2-0.8,0.3-1.1c0-0.1,0-0.2,0.1-0.3c0.1-0.4,0.1-0.8,0.2-1.2c0,0,0-0.1,0-0.1c0-0.4,0.1-0.9,0.1-1.3
			v-0.1c0-0.4,0-0.8-0.1-1.1c0-0.1,0-0.2,0-0.3c-0.1-0.4-0.1-0.7-0.2-1.1c0-0.1,0-0.1,0-0.2c-0.1-0.4-0.2-0.9-0.4-1.3
			c0,0,0-0.1-0.1-0.1c-0.1-0.4-0.3-0.8-0.4-1.1c0-0.1-0.1-0.2-0.1-0.3c-0.2-0.3-0.3-0.7-0.5-1c-0.1-0.1-0.1-0.2-0.1-0.3
			c-0.2-0.4-0.5-0.8-0.8-1.2c0,0-0.1-0.1-0.1-0.1c-0.2-0.4-0.5-0.7-0.8-1c-0.1-0.1-0.2-0.2-0.3-0.3c-0.3-0.3-0.5-0.6-0.8-0.9
			c-0.1-0.1-0.2-0.2-0.3-0.3c-0.4-0.4-0.8-0.7-1.2-1.1c0,0-0.1-0.1-0.1-0.1c-0.4-0.3-0.8-0.6-1.2-1c-0.1-0.1-0.3-0.2-0.4-0.3
			c-0.3-0.3-0.7-0.5-1.1-0.8c-0.1-0.1-0.3-0.2-0.4-0.3c-0.5-0.3-1-0.7-1.6-1v-0.3l13.8-7.9c5.2,1.8,10.1,4,14.5,6.7
			C490.8,270.6,490.9,270.7,490.9,270.7z"/>
	</g>
	<g id="XMLID_380_">
		<path fill="#CCD2D6" d="M361.1,287.8h-4.3v16.6l0.1,0c0.7,11.1,8.3,22.1,22.9,30.6v-64.4C371.1,275.6,364.9,281.5,361.1,287.8z"/>
	</g>
	<g id="XMLID_379_">
		<path fill="#CCD2D6" d="M509.2,287.8c-3.7-6.2-9.8-12.1-18.2-17.1v64.1c14.3-8.4,21.8-19.4,22.5-30.5l0.1,0v-16.6H509.2z"/>
	</g>
	<g id="XMLID_378_">
		<path fill="#C2CCD3" d="M472.3,293.2L472.3,293.2c0.2-0.4,0.3-0.9,0.5-1.3c0,0,0-0.1,0-0.1c0.1-0.4,0.2-0.8,0.3-1.1
			c0-0.1,0-0.2,0.1-0.3c0.1-0.4,0.1-0.8,0.2-1.2c0,0,0-0.1,0-0.1c0-0.4,0.1-0.9,0.1-1.3c0,0,0-0.1,0-0.1c0-0.4,0-0.8-0.1-1.2
			c0-0.1,0-0.2,0-0.3c0-0.4-0.1-0.7-0.2-1.1c0-0.1,0-0.1,0-0.2c-0.1-0.4-0.2-0.9-0.4-1.3c0,0,0-0.1-0.1-0.1
			c-0.1-0.4-0.3-0.7-0.4-1.1c0-0.1-0.1-0.2-0.1-0.3c-0.2-0.3-0.3-0.7-0.5-1c-0.1-0.1-0.1-0.2-0.1-0.3c-0.2-0.4-0.5-0.8-0.8-1.2
			c0,0-0.1-0.1-0.1-0.1c-0.2-0.4-0.5-0.7-0.8-1c-0.1-0.1-0.2-0.2-0.3-0.3c-0.2-0.3-0.5-0.6-0.8-0.9c-0.1-0.1-0.2-0.2-0.3-0.3
			c-0.4-0.4-0.8-0.7-1.2-1.1c0,0-0.1-0.1-0.1-0.1c-0.4-0.3-0.8-0.7-1.2-1c-0.1-0.1-0.3-0.2-0.4-0.3c-0.3-0.3-0.7-0.5-1.1-0.8
			c-0.1-0.1-0.3-0.2-0.4-0.3c-0.5-0.3-1-0.7-1.6-1v10.7C467.4,285.8,470.7,289.4,472.3,293.2z"/>
	</g>
	<g id="XMLID_376_">
		<path fill="#C2CCD3" d="M408.4,283.1v-10.7c-0.4,0.3-0.9,0.5-1.3,0.8c-0.2,0.1-0.3,0.2-0.5,0.3c-0.4,0.2-0.7,0.5-1.1,0.8
			c-0.1,0.1-0.3,0.2-0.4,0.3c-0.4,0.3-0.8,0.6-1.2,1c0,0-0.1,0.1-0.1,0.1c-0.4,0.4-0.8,0.7-1.2,1.1c-0.1,0.1-0.2,0.2-0.3,0.3
			c-0.3,0.3-0.5,0.6-0.8,0.9c-0.1,0.1-0.2,0.2-0.3,0.3c-0.3,0.3-0.6,0.7-0.8,1c0,0-0.1,0.1-0.1,0.1c-0.3,0.4-0.5,0.8-0.8,1.2
			c-0.1,0.1-0.1,0.2-0.1,0.3c-0.2,0.3-0.4,0.7-0.5,1c-0.1,0.1-0.1,0.2-0.2,0.3c-0.2,0.4-0.3,0.7-0.4,1.1c0,0,0,0.1-0.1,0.1
			c-0.1,0.4-0.3,0.9-0.4,1.3c0,0.1,0,0.1,0,0.2c-0.1,0.4-0.1,0.7-0.2,1.1c0,0.1,0,0.2,0,0.3c0,0.4-0.1,0.8-0.1,1.2c0,0,0,0.1,0,0.1
			c0,0.4,0,0.9,0.1,1.3c0,0,0,0.1,0,0.1c0,0.4,0.1,0.8,0.2,1.2c0,0.1,0,0.2,0.1,0.3c0.1,0.4,0.2,0.8,0.3,1.1c0,0,0,0.1,0,0.1
			c0.1,0.4,0.3,0.9,0.5,1.3C400.2,289.5,403.5,286,408.4,283.1z"/>
	</g>
	<path id="XMLID_375_" fill="#BEC13D" d="M472.1,281.9c0.1,0.1,0.1,0.2,0.1,0.3C472.2,282.1,472.1,282,472.1,281.9z"/>
	<path id="XMLID_374_" fill="#BEC13D" d="M464,273.2c0.2,0.1,0.3,0.2,0.4,0.3C464.3,273.4,464.1,273.3,464,273.2z"/>
	<path id="XMLID_373_" fill="#BEC13D" d="M472.7,283.3c0,0,0,0.1,0.1,0.1C472.7,283.4,472.7,283.4,472.7,283.3z"/>
	<path id="XMLID_372_" fill="#BEC13D" d="M471.4,280.6c0.1,0.1,0.1,0.2,0.1,0.3C471.5,280.8,471.5,280.7,471.4,280.6z"/>
	<path id="XMLID_371_" fill="#BEC13D" d="M469.5,277.9c0.1,0.1,0.2,0.2,0.3,0.3C469.7,278.1,469.6,278,469.5,277.9z"/>
	<path id="XMLID_370_" fill="#BEC13D" d="M470.5,279.3c0,0,0.1,0.1,0.1,0.1C470.6,279.4,470.6,279.3,470.5,279.3z"/>
	<path id="XMLID_369_" fill="#BEC13D" d="M468.4,276.7c0.1,0.1,0.2,0.2,0.3,0.3C468.6,276.9,468.5,276.8,468.4,276.7z"/>
	<path id="XMLID_360_" fill="#BEC13D" d="M467.1,275.5c0,0,0.1,0.1,0.1,0.1C467.2,275.6,467.1,275.6,467.1,275.5z"/>
	<path id="XMLID_348_" fill="#BEC13D" d="M465.5,274.2c0.1,0.1,0.3,0.2,0.4,0.3C465.8,274.4,465.6,274.3,465.5,274.2z"/>
	<path id="XMLID_347_" fill="#BEC13D" d="M406.6,273.5c0.1-0.1,0.3-0.2,0.5-0.3C406.9,273.3,406.8,273.4,406.6,273.5z"/>
	<path id="XMLID_346_" fill="#BEC13D" d="M397.8,290.5c0-0.1,0-0.2-0.1-0.3C397.8,290.4,397.8,290.4,397.8,290.5z"/>
	<path id="XMLID_345_" fill="#BEC13D" d="M473.1,284.8c0,0.1,0,0.1,0,0.2C473.1,284.9,473.1,284.8,473.1,284.8z"/>
	<path id="XMLID_344_" fill="#BEC13D" d="M397.5,287.6c0,0,0-0.1,0-0.1C397.5,287.5,397.5,287.6,397.5,287.6z"/>
	<path id="XMLID_343_" fill="#BEC13D" d="M397.6,289.1C397.6,289,397.6,289,397.6,289.1C397.6,289,397.6,289,397.6,289.1z"/>
	<path id="XMLID_342_" fill="#BEC13D" d="M401.3,278.2c0.1-0.1,0.2-0.2,0.3-0.3C401.5,278,401.4,278.1,401.3,278.2z"/>
	<path id="XMLID_339_" fill="#BEC13D" d="M398.8,282.2c0-0.1,0.1-0.2,0.2-0.3C398.9,282,398.8,282.1,398.8,282.2z"/>
	<path id="XMLID_310_" fill="#BEC13D" d="M397.9,284.9c0-0.1,0-0.1,0-0.2C397.9,284.8,397.9,284.9,397.9,284.9z"/>
	<path id="XMLID_309_" fill="#BEC13D" d="M399.4,280.9c0.1-0.1,0.1-0.2,0.1-0.3C399.5,280.7,399.5,280.8,399.4,280.9z"/>
	<path id="XMLID_308_" fill="#BEC13D" d="M398.3,283.5c0,0,0-0.1,0.1-0.1C398.3,283.4,398.3,283.4,398.3,283.5z"/>
	<path id="XMLID_307_" fill="#BEC13D" d="M398.2,291.8c0,0,0-0.1,0-0.1C398.1,291.7,398.2,291.8,398.2,291.8z"/>
	<path id="XMLID_306_" fill="#BEC13D" d="M397.6,286.3c0-0.1,0-0.2,0-0.3C397.6,286.2,397.6,286.2,397.6,286.3z"/>
	<path id="XMLID_305_" fill="#BEC13D" d="M400.4,279.4c0,0,0.1-0.1,0.1-0.1C400.4,279.3,400.4,279.4,400.4,279.4z"/>
	<path id="XMLID_304_" fill="#BEC13D" d="M405.1,274.5c0.1-0.1,0.3-0.2,0.4-0.3C405.4,274.3,405.3,274.4,405.1,274.5z"/>
	<path id="XMLID_303_" fill="#BEC13D" d="M473.4,289C473.4,289,473.4,289,473.4,289C473.4,289,473.4,289,473.4,289z"/>
	<path id="XMLID_302_" fill="#BEC13D" d="M473.4,287.5c0,0,0,0.1,0,0.1C473.4,287.6,473.4,287.5,473.4,287.5z"/>
	<polygon id="XMLID_301_" fill="#BEC13D" points="472.3,293.2 472.3,293.2 472.3,293.2 	"/>
	<path id="XMLID_300_" fill="#BEC13D" d="M473.3,286.1c0,0.1,0,0.2,0,0.3C473.3,286.3,473.3,286.2,473.3,286.1z"/>
	<path id="XMLID_299_" fill="#BEC13D" d="M402.3,277c0.1-0.1,0.2-0.2,0.3-0.3C402.5,276.8,402.4,276.9,402.3,277z"/>
	<path id="XMLID_298_" fill="#BEC13D" d="M472.9,291.7c0,0,0,0.1,0,0.1C472.8,291.8,472.8,291.7,472.9,291.7z"/>
	<path id="XMLID_297_" fill="#BEC13D" d="M403.8,275.6c0,0,0.1-0.1,0.1-0.1C403.9,275.5,403.9,275.6,403.8,275.6z"/>
	<path id="XMLID_50_" fill="#BEC13D" d="M473.2,290.3c0,0.1,0,0.2-0.1,0.3C473.2,290.4,473.2,290.4,473.2,290.3z"/>
	<g>
		<path fill="#DCE1E5" d="M490.9,319.8l-28.5-16.5h0l-0.2-0.1c5.1-3,8.4-6.7,9.9-10.6c2.8-7.1-0.5-14.8-9.7-20.3
			c-0.1-0.1-0.2-0.2-0.4-0.2c0,0-0.1,0-0.1-0.1l0.5-0.3l13.8-7.9l14.5-8.4c0,0,0,0,0.1,0C521,273.3,521,302.1,490.9,319.8z"/>
	</g>
	<g id="XMLID_45_">
		<path fill="#DCE1E5" d="M462.2,303.3c-0.1,0-0.1,0.1-0.2,0.1c-14.7,8.6-38.9,8.6-53.7,0c-0.1,0-0.2-0.1-0.2-0.1l-28.6,16.5
			c0.1,0.1,0.2,0.1,0.3,0.2c30.7,17.7,80.6,17.7,110.9,0c0.1,0,0.1-0.1,0.2-0.1L462.2,303.3z"/>
	</g>
	<g>
		<path fill="#DCE1E5" d="M408.1,303.2l-28.3,16.3l-0.4,0.2c-30.3-17.7-30.2-46.5,0.3-64.1l14.5,8.4l14.1,8.2c0,0,0,0,0,0
			C393.5,280.7,393.5,294.6,408.1,303.2z"/>
	</g>
</g>
<g id="anim1">
	<g>
		<path id="XMLID_377_" fill="#E84B54" d="">
			<animate 
					attributeName="d"
					values="M408.9,266.5c-0.1,0.1-0.2,0.1-0.3,0.2v10.7c0.1-0.1,0.2-0.1,0.3-0.2
			c14.9-8.6,39-8.6,53.7,0v-10.7C447.9,257.9,423.7,257.9,408.9,266.5z;
							M408.9,236.5c-0.1,0.1-0.2,0.1-0.3,0.2v10.7c0.1-0.1,0.2-0.1,0.3-0.2
			c14.9-8.6,39-8.6,53.7,0v-10.7C447.9,227.9,423.7,227.9,408.9,236.5z;
							M408.9,266.5c-0.1,0.1-0.2,0.1-0.3,0.2v10.7c0.1-0.1,0.2-0.1,0.3-0.2
			c14.9-8.6,39-8.6,53.7,0v-10.7C447.9,257.9,423.7,257.9,408.9,266.5z"
					dur="3s"
					begin="0" 
					repeatCount="indefinite"
					id="anim-c-1" />
		</path>
		<g id="XMLID_12_">
			<path fill="#FFFFFF" d="">
				<animate 
					attributeName="d"
					values="M462.1,266.5l28.7-16.6c-30.3-17.7-80.2-17.7-110.9,0c0,0,0,0-0.1,0l28.6,16.5
				C423.4,258,447.4,257.9,462.1,266.5z;
							M462.1,236.5l28.7-16.6c-30.3-17.7-80.2-17.7-110.9,0c0,0,0,0-0.1,0l28.6,16.5
				C423.4,228,447.4,227.9,462.1,236.5z;
							M462.1,266.5l28.7-16.6c-30.3-17.7-80.2-17.7-110.9,0c0,0,0,0-0.1,0l28.6,16.5
				C423.4,258,447.4,257.9,462.1,266.5z"
					dur="3s"
					begin="0" 
					repeatCount="indefinite"
					id="anim-c-2" />


			</path>
		</g>
	</g>
	<g>
		<polygon fill="#DCE1E5" points=" 		">
			<animate 
					attributeName="points"
					values="380,249.9 408.5,266.5 408.5,277.4 380,260.1;
							380,219.9 408.5,236.5 408.5,247.4 380,230.1;
							380,249.9 408.5,266.5 408.5,277.4 380,260.1"
					dur="3s"
					begin="0" 
					repeatCount="indefinite"
					id="anim-c-3" />

		</polygon>
	</g>
	<g>
		<polygon fill="#CCD2D6" points=" 		">
			<animate 
					attributeName="points"
					values="490.8,249.9 462.1,266.5 462.6,277.2 490.8,260.1;
							490.8,219.9 462.1,236.5 462.6,247.2 490.8,230.1;
							490.8,249.9 462.1,266.5 462.6,277.2 490.8,260.1"
					dur="3s"
					begin="0" 
					repeatCount="indefinite"
					id="anim-c-4" />
		</polygon>
	</g>
</g>
<g id="anim2" enable-background="new    ">
	<g>
		<g>
			<polygon fill="#C2CCD3" points=" 			">

				<animate 
					attributeName="points"
					values="277,428.1 312.5,407.4 312.7,351.2 277.2,371.8;
							277,408.1 312.5,387.4 312.7,331.2 277.2,351.8;
							277,428.1 312.5,407.4 312.7,351.2 277.2,371.8"
					dur="3s"
					begin="0" 
					repeatCount="indefinite"
					id="anim-d-1" />
			</polygon>
		</g>
	</g>
	<g>
		<g>
			<polygon fill="#F4F7F9" points="			">
				<animate 
					attributeName="points"
					values="277.2,371.8 312.7,351.2 274.4,329.1 238.9,349.7;
							277.2,351.8 312.7,331.2 274.4,309.1 238.9,329.7;
							277.2,371.8 312.7,351.2 274.4,329.1 238.9,349.7"
					dur="3s"
					begin="0" 
					repeatCount="indefinite"
					id="anim-d-2" />
			</polygon>
		</g>
	</g>
	<g>
		<polygon fill="#DCE1E5" points=" 		">
			<animate 
					attributeName="points"
					values="238.9,349.7 238.8,406 277,428.1 277.2,371.8;
							238.9,329.7 238.8,386 277,408.1 277.2,351.8;
							238.9,349.7 238.8,406 277,428.1 277.2,371.8"
					dur="3s"
					begin="0" 
					repeatCount="indefinite"
					id="anim-d-2" />

		</polygon>
	</g>
</g>
<g id="anim5">
	<g enable-background="new    ">
		<g>
			<polygon fill="#F78696" points=" 			">
					<animate 
					attributeName="points"
					values="177.2,222.7 189.7,216.9 155.4,141.8 143,147.5;
							177.2,152.7 189.7,146.9 155.4,71.8 143,77.5;
							177.2,222.7 189.7,216.9 155.4,141.8 143,147.5"
					dur="3s"
					begin="500ms" 
					repeatCount="indefinite"
					id="anim-e-1" />


			</polygon>
		</g>
		<g>
			<polygon fill="#F78696" points="156.3,141.6 168.7,135.9 127,91 114.5,96.7 			">
				<animate 
					attributeName="points"
					values="156.3,141.6 168.7,135.9 127,91 114.5,96.7;
							156.3,71.6 168.7,65.9 127,21 114.5,26.7;
							156.3,141.6 168.7,135.9 127,91 114.5,96.7"
					dur="3s"
					begin="500ms" 
					repeatCount="indefinite"
					id="anim-e-2" />
			</polygon>
		</g>
		<g>
			<polygon fill="#F78696" points=" 			">
				<animate 
					attributeName="points"
					values="233.3,234.5 245.7,228.8 189.7,216.9 177.2,222.7;
							233.3,164.5 245.7,158.8 189.7,146.9 177.2,152.7;
							233.3,234.5 245.7,228.8 189.7,216.9 177.2,222.7"
					dur="3s"
					begin="500ms" 
					repeatCount="indefinite"
					id="anim-e-3" />
			</polygon>
		</g>
		<g>
			<polygon fill="#F78696" points=" 			">

				<animate 
					attributeName="points"
					values="298.2,376.2 310.6,370.5 245.7,228.8 233.3,234.5;
							298.2,306.2 310.6,300.5 245.7,158.8 233.3,164.5;
							298.2,376.2 310.6,370.5 245.7,228.8 233.3,234.5"
					dur="3s"
					begin="500ms" 
					repeatCount="indefinite"
					id="anim-e-4" />
			</polygon>
		</g>
		<g>
			<polygon fill="#E84B54" points="156.3,141.6 114.5,96.7 120.8,157.4 134.1,151.5 173,236.7 229,248.6 289.3,380.2 298.2,376.2 
				233.3,234.5 177.2,222.7 143,147.5 			">

				<animate 
					attributeName="points"
					values="156.3,141.6 114.5,96.7 120.8,157.4 134.1,151.5 173,236.7 229,248.6 289.3,380.2 298.2,376.2 
				233.3,234.5 177.2,222.7 143,147.5;
							156.3,71.6 114.5,26.7 120.8,87.4 134.1,81.5 173,166.7 229,178.6 289.3,310.2 298.2,306.2 
				233.3,164.5 177.2,152.7 143,77.5;
							156.3,141.6 114.5,96.7 120.8,157.4 134.1,151.5 173,236.7 229,248.6 289.3,380.2 298.2,376.2 
				233.3,234.5 177.2,222.7 143,147.5"
					dur="3s"
					begin="500ms" 
					repeatCount="indefinite"
					id="anim-e-5" />
			</polygon>
		</g>
	</g>
</g>
</svg>
