<?xml version="1.0" encoding="utf-8"?>
<!-- Generator: Adobe Illustrator 22.0.1, SVG Export Plug-In . SVG Version: 6.00 Build 0)  -->
<svg version="1.1" id="Layer_1" xmlns="http://www.w3.org/2000/svg" xmlns:xlink="http://www.w3.org/1999/xlink" x="0px" y="0px"
	 viewBox="0 0 600 600" enable-background="new 0 0 600 600" xml:space="preserve">
<g id="base_x5F_plate">
	<path fill="#DCE1E5" d="M106.4,374l0,17.5c-0.4,3,1.7,6.2,6,8.7l176.7,102c7.3,4.2,18.2,4.6,24.5,1l175.8-101.5c3.5-2,3.8-4,4-7.7
		l0-14.9L106.4,374z"/>
	
		<linearGradient id="SVGID_1_" gradientUnits="userSpaceOnUse" x1="782.4639" y1="167.3874" x2="1117.7784" y2="167.3874" gradientTransform="matrix(0.866 -0.5 1.5 0.2887 -773.9102 802.7856)">
		<stop  offset="0" style="stop-color:#B1BAC1"/>
		<stop  offset="1" style="stop-color:#828B94"/>
	</linearGradient>
	<path fill="url(#SVGID_1_)" d="M489.4,383.9L313.6,485.4c-6.3,3.6-17.3,3.2-24.5-1l-176.7-102c-7.3-4.2-8-10.5-1.8-14.1
		l175.8-101.5c6.3-3.6,17.3-3.2,24.5,1l176.7,102C494.9,373.9,495.6,380.3,489.4,383.9z"/>
</g>
<g id="cloud">
	<g>
		<g enable-background="new    ">
			<g>
				<path fill="#FFFFFF" d="M146.3,253c3.3-1.9,7.4-2.5,12-1.5c2.8,0.6,5.8,1.8,9,3.6c3,1.7,5.9,3.9,8.6,6.4l-11.1,6.4
					c-2.7-2.5-5.6-4.7-8.6-6.4c-3.1-1.8-6.1-3-9-3.6c-4.6-1-8.7-0.4-12,1.5L146.3,253z"/>
				<path fill="#FFFFFF" d="M185.5,245.2c3.8-2.2,8.6-2.9,13.9-1.8c3.3,0.7,6.8,2.1,10.4,4.1c6,3.5,11.6,8.5,16.5,14.5
					c9,11,15.5,25.2,17.1,38.3c2.7,0.6,5.6,1.8,8.6,3.5c5.2,3,10.1,7.3,14.3,12.5c9.1,11,15.2,25.7,15.1,38.4
					c0,9.3-3.3,15.8-8.6,18.9l-11.1,6.4c5.3-3.1,8.6-9.6,8.6-18.9c0-12.8-6.1-27.4-15.1-38.4c-4.2-5.1-9.1-9.5-14.3-12.5
					c-3-1.7-5.9-2.9-8.6-3.5c-1.6-13.2-8.1-27.3-17.1-38.3c-4.9-6-10.5-11-16.5-14.5c-3.6-2.1-7.1-3.5-10.4-4.1
					c-5.3-1.1-10.1-0.5-13.9,1.8L185.5,245.2z"/>
			</g>
			<g>
				<path fill="#DCE1E5" d="M198.7,254c-17.1-9.9-31.3-3.6-33.8,13.9c-2.7-2.5-5.6-4.7-8.6-6.4c-16.3-9.4-29.5-1.9-29.6,16.9
					c-0.1,18.7,13.1,41.5,29.4,50.9l84.7,48.9c16.3,9.4,29.5,1.9,29.6-16.9c0.1-18.7-13.1-41.5-29.4-50.9c-3-1.7-5.9-2.9-8.6-3.5
					C229.9,286.5,215.8,263.9,198.7,254z"/>
			</g>
		</g>
	</g>
	<g>
		<g enable-background="new    ">
			<g>
				<path fill="#FFFFFF" d="M120.6,287.4c2.2-1.3,4.9-1.7,8-1c1.9,0.4,3.9,1.2,5.9,2.4c2,1.1,3.9,2.6,5.7,4.3l-7.3,4.3
					c-1.8-1.7-3.7-3.1-5.7-4.3c-2.1-1.2-4.1-2-5.9-2.4c-3-0.6-5.8-0.3-8,1L120.6,287.4z"/>
				<path fill="#FFFFFF" d="M146.5,282.3c2.5-1.5,5.7-1.9,9.2-1.2c2.2,0.5,4.5,1.4,6.9,2.7c4,2.3,7.7,5.7,11,9.6
					c6,7.3,10.3,16.6,11.3,25.3c1.8,0.4,3.7,1.2,5.7,2.3c3.4,2,6.7,4.9,9.5,8.3c6,7.3,10,17,10,25.5c0,6.2-2.2,10.5-5.7,12.5
					l-7.3,4.3c3.5-2,5.7-6.4,5.7-12.5c0-8.5-4-18.2-10-25.5c-2.8-3.4-6-6.3-9.5-8.3c-2-1.1-3.9-1.9-5.7-2.3
					c-1-8.7-5.3-18.1-11.3-25.3c-3.2-4-7-7.3-11-9.6c-2.4-1.4-4.7-2.3-6.9-2.7c-3.5-0.7-6.7-0.3-9.2,1.2L146.5,282.3z"/>
			</g>
			<g>
				<path fill="#DCE1E5" d="M155.3,288.1c-11.3-6.5-20.7-2.4-22.4,9.2c-1.8-1.7-3.7-3.1-5.7-4.3c-10.8-6.2-19.6-1.2-19.6,11.2
					c0,12.4,8.7,27.5,19.5,33.7l56.1,32.4c10.8,6.2,19.6,1.2,19.6-11.2c0-12.4-8.7-27.5-19.5-33.7c-2-1.1-3.9-1.9-5.7-2.3
					C175.9,309.7,166.6,294.7,155.3,288.1z"/>
			</g>
		</g>
	</g>
</g>
<g id="torso">
	<g>
		<polygon fill="#FFFFFF" points="350.4,373.5 328.3,360.7 361.7,341.5 383.8,354.2 		"/>
		<polygon fill="#A4B1BC" points="350.4,384.4 350.4,373.5 383.8,354.2 383.8,365.2 		"/>
		<polygon fill="#DCE1E5" points="350.4,384.4 328.3,371.7 328.3,360.7 350.4,373.5 		"/>
	</g>
	<g>
		<polygon fill="#DCE1E5" points="359.9,367 341.4,356.4 341.4,286.2 359.9,296.9 		"/>
		<polygon fill="#C2CCD3" points="378.3,356.4 359.9,367 359.9,296.9 378.3,286.2 		"/>
	</g>
	<polygon fill="#DCE1E5" points="374,351.4 302.6,310.1 302.6,213.1 374,254.3 	"/>
	<g>
		<polygon fill="#FFFFFF" points="392.8,398 370.7,385.2 404.1,365.9 426.1,378.7 		"/>
		<polygon fill="#A4B1BC" points="392.8,408.9 392.8,398 426.2,378.7 426.2,389.6 		"/>
		<polygon fill="#DCE1E5" points="392.8,408.9 370.7,396.2 370.7,385.2 392.8,398 		"/>
	</g>
	<polygon fill="#E84B54" points="445.4,213.1 374,254.3 302.6,213.1 374,171.9 	"/>
	<g>
		<polygon fill="#DCE1E5" points="400.5,390.9 382,380.2 382,310 400.5,320.7 		"/>
		<polygon fill="#C2CCD3" points="419,380.2 400.5,390.9 400.5,320.7 419,310 		"/>
	</g>
	<polygon fill="#C2CCD3" points="445.4,310.1 374,351.4 374,254.3 445.4,213.1 	"/>
	<path fill="#A4B1BC" d="M422.3,324l-2.1,1.2c-7.6,4.4-13.8-0.3-13.8-10.4v-48c0-10.2,6.2-22,13.8-26.4l2.1-1.2
		c7.6-4.4,13.8,0.3,13.8,10.4v48C436.1,307.8,429.9,319.6,422.3,324z"/>
	<path fill="#DCE1E5" d="M427.2,326.5l-2.1,1.2c-7.6,4.4-13.8-0.3-13.8-10.4v-48c0-10.2,6.2-22,13.8-26.4l2.1-1.2
		c7.6-4.4,13.8,0.3,13.8,10.4v48C441,310.3,434.8,322.1,427.2,326.5z"/>
</g>
<g id="head">
	<polygon fill="#FFFFFF" points="374,118.7 311,155.1 374,191.4 437,155.1 	"/>
	<polygon fill="#DCE1E5" points="311,155.1 311,213.2 374,249.6 374,191.4 	"/>
	<polygon fill="#C2CCD3" points="437,155.1 437,213.2 374,249.6 374,191.4 	"/>
	<g>
		<ellipse transform="matrix(0.866 -0.5 0.5 0.866 -50.1001 192.1017)" fill="#A4B1BC" cx="333.4" cy="189.5" rx="6" ry="10.4"/>
		<ellipse transform="matrix(0.866 -0.5 0.5 0.866 -50.6033 190.9236)" fill="#F4F7F9" cx="331" cy="189.9" rx="6" ry="10.4"/>
	</g>
	<g>
		<ellipse transform="matrix(0.866 -0.5 0.5 0.866 -53.6553 205.4337)" fill="#A4B1BC" cx="356.5" cy="202.8" rx="6" ry="10.4"/>
		<ellipse transform="matrix(0.866 -0.5 0.5 0.866 -54.1585 204.2556)" fill="#F4F7F9" cx="354.1" cy="203.2" rx="6" ry="10.4"/>
	</g>
	<g>
		<polygon fill="#FFFFFF" points="422.8,181.2 394.8,197.3 392.2,195.8 420.2,179.7 		"/>
		<polygon fill="#A4B1BC" points="394.8,221.1 392.2,219.6 392.2,195.9 394.8,197.4 		"/>
		<polygon fill="#C2CCD3" points="422.8,204.9 394.8,221.1 394.8,197.4 422.8,181.2 		"/>
	</g>
</g>
<g id="bubble-cloud">
	<path fill="#E84B54" d="M181.6,183.5c13.4,2.4,31.7-9.8,43.5-30.3c13.5-23.4,13.5-48.8,0-56.6s-35.5,4.9-49,28.3
		c-11.8,20.5-13.3,42.4-4.5,52.8l-3.4,18l8.2,5.4L181.6,183.5z"/>
	<path fill="#D12C3D" d="M233.6,158.7c13.5-23.4,13.5-48.8,0-56.6s-35.5,4.9-49,28.3c-11.8,20.5-13.3,42.4-4.5,52.8l-3.7,17.9
		l13.7-12.1C203.6,191.4,221.8,179.2,233.6,158.7z"/>
</g>
<g id="bubble-bot">
	<path fill="#FFFFFF" d="M251,97.8c-15.1-4.9-36.8,10.8-48.6,35s-9.1,47.8,6,52.7c13.2,4.3,31.4-7.1,43.7-26.2l14-5.8l-5.3-12.1
		C267.8,120.6,264.1,102,251,97.8z"/>
	<path fill="#C2CCD3" d="M261.8,101.5c-15.1-4.9-36.8,10.8-48.6,35s-9.1,47.8,6,52.7c13.2,4.3,31.4-7.1,43.7-26.2l14-5.8l-5.3-12.1
		C278.7,124.3,275,105.7,261.8,101.5z"/>
</g>
</svg>
