<?xml version="1.0" encoding="utf-8"?>
<!-- Generator: Adobe Illustrator 22.0.1, SVG Export Plug-In . SVG Version: 6.00 Build 0)  -->
<svg version="1.1" id="Layer_1" xmlns="http://www.w3.org/2000/svg" xmlns:xlink="http://www.w3.org/1999/xlink" x="0px" y="0px"
	 viewBox="0 0 100 100" enable-background="new 0 0 100 100" xml:space="preserve">
<g>
	<path fill="#DCE1E5" d="M87.1,54.4L56.8,84.7c-2.2,2.2-5.6,2.2-7.5,0L18.9,54.4c-2.2-2.2-2.2-5.6,0-7.5l30.3-30.3
		c2.2-2.2,5.6-2.2,7.5,0L87,46.9C89.3,48.8,89.3,52.2,87.1,54.4z"/>
	<path fill="#67717C" d="M29.9,69.1l-0.6-0.6c-0.3-0.3-0.8-0.3-1.1,0c-0.3,0.3-0.3,0.8,0,1.1l0.6,0.6c0.3,0.3,0.8,0.3,1.1,0
		C30.2,69.9,30.2,69.4,29.9,69.1"/>
	<path fill="#67717C" d="M25.2,64.5L21.8,61c-0.3-0.3-0.8-0.3-1.1,0c-0.3,0.3-0.3,0.8,0,1.1l3.4,3.4c0.3,0.3,0.8,0.3,1.1,0
		C25.5,65.3,25.5,64.8,25.2,64.5"/>
	<path fill="#67717C" d="M16.7,55.7l-2.5-2.5c-0.9-0.9-1.4-2.2-1.4-3.3c0-1.2,0.5-2.3,1.4-3l0,0l30.3-30.3c0.9-0.9,2.2-1.4,3.3-1.4
		c1.2,0,2.3,0.5,3,1.4l0,0l30.3,30.3c0.9,0.9,1.4,2.2,1.4,3.3c0,1.2-0.5,2.3-1.4,3l0,0L51,83.5c-0.9,0.9-2.2,1.4-3.3,1.4
		c-1.2,0-2.3-0.5-3-1.4l0,0L34.3,73.2c-0.3-0.3-0.8-0.3-1.1,0s-0.3,0.8,0,1.1l10.3,10.3l0.6-0.6l-0.6,0.5c1.1,1.3,2.7,1.9,4.2,1.9
		c1.6,0,3.2-0.6,4.4-1.9l30.3-30.3l-0.6-0.6l0.5,0.6c1.3-1.1,1.9-2.7,1.9-4.2c0-1.6-0.6-3.2-1.9-4.4L52.1,15.4L51.5,16l0.6-0.5
		c-1.1-1.3-2.7-1.9-4.2-1.9c-1.6,0-3.2,0.6-4.4,1.9L13.1,45.7l0.6,0.6l-0.5-0.6c-1.3,1.1-1.9,2.7-1.9,4.2c0,1.6,0.6,3.2,1.9,4.4
		l2.5,2.5c0.3,0.3,0.8,0.3,1.1,0C17.1,56.5,17.1,56,16.7,55.7L16.7,55.7z"/>
	<path fill="#67717C" d="M27.7,30.4L18.3,21c-0.3-0.3-0.8-0.3-1.1,0c-0.3,0.3-0.3,0.8,0,1.1l9.4,9.4c0.3,0.3,0.8,0.3,1.1,0
		S28,30.7,27.7,30.4"/>
	<path fill="#67717C" d="M76.4,79.1L67,69.7c-0.3-0.3-0.8-0.3-1.1,0c-0.3,0.3-0.3,0.8,0,1.1l9.4,9.4c0.3,0.3,0.8,0.3,1.1,0
		C76.8,79.9,76.8,79.4,76.4,79.1"/>
	<path fill="#67717C" d="M59.6,24.3l9.4-9.4c0.3-0.3,0.3-0.8,0-1.1s-0.8-0.3-1.1,0l-9.4,9.4c-0.3,0.3-0.3,0.8,0,1.1
		S59.3,24.6,59.6,24.3"/>
	<path fill="#67717C" d="M74.9,39.3l9.4-9.4c0.3-0.3,0.3-0.8,0-1.1c-0.3-0.3-0.8-0.3-1.1,0l-9.4,9.4c-0.3,0.3-0.3,0.8,0,1.1
		C74.1,39.6,74.6,39.6,74.9,39.3"/>
	<path fill="#E84B54" d="M37.1,46.9c2.2,0,4.1,1.8,4.1,4.1c0,2.2-1.8,4.1-4.1,4.1c-2.2,0-4.1-1.8-4.1-4.1
		C33.1,48.7,34.9,46.9,37.1,46.9z"/>
	<path fill="#E84B54" d="M48.7,35.3c2.2,0,4.1,1.8,4.1,4.1c0,2.2-1.8,4.1-4.1,4.1c-2.2,0-4.1-1.8-4.1-4.1
		C44.6,37.1,46.5,35.3,48.7,35.3z"/>
	<path fill="#E84B54" d="M48.7,58.8c2.2,0,4.1,1.8,4.1,4.1c0,2.2-1.8,4.1-4.1,4.1c-2.2,0-4.1-1.8-4.1-4.1
		C44.6,60.6,46.5,58.8,48.7,58.8z"/>
	<path fill="#E84B54" d="M60.6,46.9c2.2,0,4.1,1.8,4.1,4.1c0,2.2-1.8,4.1-4.1,4.1c-2.2,0-4.1-1.8-4.1-4.1S58.3,46.9,60.6,46.9z"/>
</g>
</svg>
