<?xml version="1.0" encoding="utf-8"?>
<!-- Generator: Adobe Illustrator 22.0.1, SVG Export Plug-In . SVG Version: 6.00 Build 0)  -->
<svg version="1.1" id="Layer_1" xmlns="http://www.w3.org/2000/svg" xmlns:xlink="http://www.w3.org/1999/xlink" x="0px" y="0px"
	 viewBox="0 0 80 80" enable-background="new 0 0 80 80" xml:space="preserve">
<g id="Distributed-Computing">
	<path fill="#DCE1E5" d="M74.3,43.6L48.2,69.8c-1.8,1.8-4.7,1.8-6.5,0L15.5,43.6c-1.8-1.8-1.8-4.7,0-6.5l26.2-26.2
		c1.8-1.8,4.7-1.8,6.5,0l26.2,26.2C76.2,38.9,76.2,41.8,74.3,43.6z"/>
	
		<line fill="none" stroke="#68717D" stroke-width="0.5" stroke-linecap="round" stroke-miterlimit="10" x1="19.5" y1="56.9" x2="19" y2="56.4"/>
	
		<line fill="none" stroke="#68717D" stroke-width="0.5" stroke-linecap="round" stroke-miterlimit="10" x1="15.4" y1="52.9" x2="12.4" y2="49.9"/>
	<path fill="none" stroke="#68717D" stroke-width="0.5" stroke-linecap="round" stroke-miterlimit="10" d="M7.9,45.4l-2-2
		c-1.8-1.8-1.8-4.7,0-6.5l26.2-26.2c1.8-1.8,4.7-1.8,6.5,0l26.2,26.2c1.8,1.8,1.8,4.7,0,6.5L38.6,69.5c-1.8,1.8-4.7,1.8-6.5,0
		l-8.9-8.9"/>
	
		<line fill="none" stroke="#68717D" stroke-width="0.5" stroke-linecap="round" stroke-miterlimit="10" x1="17.4" y1="23.5" x2="9.4" y2="15.4"/>
	
		<line fill="none" stroke="#68717D" stroke-width="0.5" stroke-linecap="round" stroke-miterlimit="10" x1="59.4" y1="65.5" x2="51.4" y2="57.5"/>
	<g>
		
			<line fill="none" stroke="#68717D" stroke-width="0.5" stroke-linecap="round" stroke-miterlimit="10" x1="45.1" y1="17.2" x2="53.2" y2="9.1"/>
		
			<line fill="none" stroke="#68717D" stroke-width="0.5" stroke-linecap="round" stroke-miterlimit="10" x1="58.2" y1="30.3" x2="66.2" y2="22.2"/>
	</g>
	<circle fill="#E84B55" cx="26.1" cy="40.8" r="3.6"/>
	<circle fill="#E84B55" cx="36.2" cy="30.7" r="3.6"/>
	<circle fill="#E84B55" cx="36.2" cy="50.9" r="3.6"/>
	<circle fill="#E84B55" cx="46.2" cy="40.8" r="3.6"/>
</g>
</svg>
