<?xml version="1.0" encoding="utf-8"?>
<!-- Generator: Adobe Illustrator 22.0.1, SVG Export Plug-In . SVG Version: 6.00 Build 0)  -->
<svg version="1.1" id="Layer_1" xmlns="http://www.w3.org/2000/svg" xmlns:xlink="http://www.w3.org/1999/xlink" x="0px" y="0px"
	 viewBox="0 0 80 80" enable-background="new 0 0 80 80" xml:space="preserve">
<g id="Micro-Services">
	<g>
		<path fill="#DCE1E5" d="M32.7,59.5L36.1,47c0.3-1,0-2-0.7-2.8l-9.1-9.1c-0.7-0.7-1.8-1-2.8-0.7l-12.5,3.3c-1,0.3-1.8,1-2,2
			L5.6,52.2c-0.3,1,0,2,0.7,2.8l9.1,9.1c0.7,0.7,1.8,1,2.8,0.7l12.5-3.3C31.7,61.3,32.5,60.5,32.7,59.5z"/>
	</g>
	<g>
		<path fill="#DCE1E5" d="M66.5,68.8l3.3-12.5c0.3-1,0-2-0.7-2.8L60,44.5c-0.7-0.7-1.8-1-2.8-0.7l-12.5,3.3c-1,0.3-1.8,1-2,2
			l-3.3,12.5c-0.3,1,0,2,0.7,2.8l9.1,9.1c0.7,0.7,1.8,1,2.8,0.7l12.5-3.3C65.5,70.6,66.2,69.8,66.5,68.8z"/>
	</g>
	<g>
		<path fill="#DCE1E5" d="M43.3,41.3L56,37.9c0.9-0.2,1.6-1,1.9-1.9l0.7-2.4l-11,2.9c-0.9,0.2-1.9,0-2.5-0.7l-9.3-9.3
			C35,25.9,34.8,24.9,35,24l2.8-10.3L36,14.2c-0.9,0.2-1.6,1-1.9,1.9l-3.4,12.8c-0.2,0.9,0,1.9,0.7,2.5l9.3,9.3
			C41.4,41.3,42.3,41.6,43.3,41.3z"/>
	</g>
	<g>
		<path fill="#68717D" d="M47,36.9c-0.8,0-1.6-0.3-2.2-0.9l-9.1-9.1c-0.8-0.8-1.1-1.9-0.8-3l3.3-12.5c0.3-1.1,1.1-1.9,2.2-2.2
			l12.5-3.3c1.1-0.3,2.2,0,3,0.8l9.1,9.1c0.8,0.8,1.1,1.9,0.8,3l-3.3,12.5c-0.3,1.1-1.1,1.9-2.2,2.2l-12.5,3.3
			C47.5,36.8,47.2,36.9,47,36.9z M53.6,6.2c-0.2,0-0.5,0-0.7,0.1L40.5,9.6c-0.9,0.2-1.6,0.9-1.8,1.8L35.3,24c-0.2,0.9,0,1.9,0.7,2.5
			l9.1,9.1c0.7,0.7,1.6,0.9,2.5,0.7l12.5-3.3c0.9-0.2,1.6-0.9,1.8-1.8v0l3.3-12.5c0.2-0.9,0-1.9-0.7-2.5l-9.1-9.1
			C55,6.5,54.3,6.2,53.6,6.2z"/>
	</g>
	<g>
		<path fill="#E84B55" d="M48,31.8c-0.5,0-1-0.2-1.4-0.6L40.4,25c-0.5-0.5-0.7-1.2-0.5-1.9c0-0.1,0.2-0.2,0.3-0.2
			c0.1,0,0.2,0.2,0.2,0.3c-0.1,0.5,0,1.1,0.4,1.4l6.2,6.2c0.4,0.4,0.9,0.5,1.4,0.4l8.5-2.3c0.1,0,0.3,0,0.3,0.2c0,0.1,0,0.3-0.2,0.3
			l-8.5,2.3C48.4,31.7,48.2,31.8,48,31.8z"/>
	</g>
	<g>
		<path fill="#68717D" d="M22.7,61c-0.8,0-1.5-0.3-2-0.8l-9.3-9.3c-0.7-0.7-1-1.8-0.7-2.8L14,35.3c0.3-1,1-1.8,2-2l4.4-1.2
			c0.1,0,0.3,0,0.3,0.2c0,0.1,0,0.3-0.2,0.3l-4.4,1.2c-0.8,0.2-1.5,0.9-1.7,1.7L11,48.2c-0.2,0.8,0,1.7,0.6,2.3l9.3,9.3
			c0.6,0.6,1.5,0.8,2.3,0.6L36,57c0.8-0.2,1.5-0.9,1.7-1.7l3.4-12.8c0.2-0.8,0-1.7-0.6-2.3L31.2,31c-0.6-0.6-1.5-0.8-2.3-0.6
			c-0.1,0-0.3,0-0.3-0.2c0-0.1,0-0.3,0.2-0.3c1-0.3,2.1,0,2.8,0.7l9.3,9.3c0.7,0.7,1,1.8,0.7,2.8l-3.4,12.8c-0.3,1-1,1.8-2,2
			l-12.8,3.4C23.2,61,22.9,61,22.7,61z"/>
	</g>
	<g>
		<path fill="#68717D" d="M23.8,31.7c-0.1,0-0.2-0.1-0.2-0.2c0-0.1,0-0.3,0.2-0.3l0.4-0.1c0.1,0,0.3,0,0.3,0.2c0,0.1,0,0.3-0.2,0.3
			L23.8,31.7C23.8,31.7,23.8,31.7,23.8,31.7z"/>
	</g>
	<g>
		<path fill="#68717D" d="M55.5,69.8c-0.8,0-1.5-0.3-2-0.8l-9.3-9.3c-0.7-0.7-1-1.8-0.7-2.8l3.4-12.8c0.3-1,1-1.8,2-2l12.8-3.4
			c1-0.3,2.1,0,2.8,0.7l3.5,3.5c0.1,0.1,0.1,0.3,0,0.4s-0.3,0.1-0.4,0L64,39.8c-0.6-0.6-1.5-0.8-2.3-0.6l-12.8,3.4
			c-0.8,0.2-1.5,0.9-1.7,1.7L43.8,57c-0.2,0.8,0,1.7,0.6,2.3l9.3,9.3c0.6,0.6,1.5,0.8,2.3,0.6l12.8-3.4c0.8-0.2,1.5-0.9,1.7-1.7
			l3.4-12.8c0.2-0.8,0-1.7-0.6-2.3c-0.1-0.1-0.1-0.3,0-0.4s0.3-0.1,0.4,0c0.7,0.7,1,1.8,0.7,2.8L71,64.3c-0.3,1-1,1.8-2,2l-12.8,3.4
			C56,69.8,55.7,69.8,55.5,69.8z"/>
	</g>
	<g>
		<path fill="#68717D" d="M70.3,45.9c-0.1,0-0.1,0-0.2-0.1l-0.4-0.4c-0.1-0.1-0.1-0.3,0-0.4s0.3-0.1,0.4,0l0.4,0.4
			c0.1,0.1,0.1,0.3,0,0.4C70.4,45.9,70.3,45.9,70.3,45.9z"/>
	</g>
	<g>
		<path fill="#E84B55" d="M36.8,41.4c-0.1,0-0.1,0-0.2-0.1l-5.8-5.8c-0.1-0.1-0.1-0.3,0-0.4s0.3-0.1,0.4,0l5.8,5.8
			c0.1,0.1,0.1,0.3,0,0.4C36.9,41.4,36.8,41.4,36.8,41.4z"/>
	</g>
</g>
</svg>
