<svg id="Layer_1" data-name="Layer 1" xmlns="http://www.w3.org/2000/svg" viewBox="0 0 77.92 70.5"><title>icon-star</title><g id="case_studies"><path d="M45.15,25a1.2,1.2,0,0,0,.89.65l7.76,1.13L47.12,13.22a1.18,1.18,0,0,0-2.11,0L42.18,19Z" transform="translate(-1.04 -4.75)" fill="#dce1e5"/><path d="M78.6,37.63a1.18,1.18,0,0,0-.65-2l-13.65-2L52.41,45.23a1.18,1.18,0,0,0-.34,1l3.54,20.6a1.19,1.19,0,0,1-1.72,1.25l-18.5-9.73a1.19,1.19,0,0,0-1.1,0l-7,3.66-2,11.82A1.18,1.18,0,0,0,27,75.11l18.51-9.72a1.11,1.11,0,0,1,1.09,0l18.5,9.72a1.18,1.18,0,0,0,1.72-1.24l-3.54-20.6a1.19,1.19,0,0,1,.34-1.05Z" transform="translate(-1.04 -4.75)" fill="#dce1e5"/><path d="M15.24,69.16a2,2,0,0,1-1.22-.4,2.06,2.06,0,0,1-.83-2l3.53-20.6a.33.33,0,0,0-.08-.25l-15-14.58a2.09,2.09,0,0,1,1.16-3.56l20.68-3a.27.27,0,0,0,.21-.15l1.72-3.49a.93.93,0,0,1,1.22-.41.91.91,0,0,1,.41,1.22l-1.72,3.49a2.11,2.11,0,0,1-1.57,1.14l-20.69,3a.26.26,0,0,0-.22.19.27.27,0,0,0,.07.28l15,14.59a2.1,2.1,0,0,1,.6,1.84L15,67a.23.23,0,0,0,.1.26.25.25,0,0,0,.29,0l18.5-9.73a2.08,2.08,0,0,1,1.94,0l18.51,9.73a.23.23,0,0,0,.28,0,.25.25,0,0,0,.11-.26L51.18,46.42a2.07,2.07,0,0,1,.6-1.84L66.75,30a.27.27,0,0,0,.07-.28.26.26,0,0,0-.22-.19l-20.69-3a2.06,2.06,0,0,1-1.57-1.15L35.09,6.63a.26.26,0,0,0-.49,0l-2.28,4.62a.9.9,0,0,1-1.21.41.92.92,0,0,1-.42-1.22L33,5.83a2.16,2.16,0,0,1,3.74,0L46,24.57a.28.28,0,0,0,.2.15l20.69,3A2.09,2.09,0,0,1,68,31.29l-15,14.58a.27.27,0,0,0-.08.25l3.53,20.6a2.06,2.06,0,0,1-.83,2,2.09,2.09,0,0,1-2.2.16L35,59.19a.28.28,0,0,0-.25,0L16.21,68.92A2.08,2.08,0,0,1,15.24,69.16Z" transform="translate(-1.04 -4.75)" fill="#68717d"/><path d="M28.82,17.19a.93.93,0,0,1-.4-.09A.91.91,0,0,1,28,15.88l.15-.3a.91.91,0,1,1,1.62.81l-.15.3A.89.89,0,0,1,28.82,17.19Z" transform="translate(-1.04 -4.75)" fill="#68717d"/><path d="M45.39,56.84a1.54,1.54,0,0,1-.72-.18l-9.83-5.17L25,56.66a.9.9,0,0,1-1.23-.38.92.92,0,0,1,.38-1.23l10-5.23a1.51,1.51,0,0,1,1.43,0l9.47,5L43.22,44.25a.91.91,0,0,1,.74-1A.89.89,0,0,1,45,44L46.91,55a1.53,1.53,0,0,1-.62,1.51A1.5,1.5,0,0,1,45.39,56.84Zm-.27-1.5h0Z" transform="translate(-1.04 -4.75)" fill="#e84b55"/></g></svg>