<?xml version="1.0" encoding="utf-8"?>
<!-- Generator: Adobe Illustrator 22.0.1, SVG Export Plug-In . SVG Version: 6.00 Build 0)  -->
<svg version="1.1" id="Layer_1" xmlns="http://www.w3.org/2000/svg" xmlns:xlink="http://www.w3.org/1999/xlink" x="0px" y="0px"
	 viewBox="0 0 80 80" enable-background="new 0 0 80 80" xml:space="preserve">
<g id="Dev-Ops">
	<path fill="#DCE1E5" d="M67.2,32.3c-0.5-0.1-0.8-0.6-0.8-1.1c0-0.1,0-0.2,0-0.2c0-9.2-5.3-17.9-16.5-17.9c-8.6,0-12,4.6-14.5,9.9
		c-0.3,0.6-1.1,0.8-1.7,0.5c-1.2-0.8-2.7-1.2-4.3-1.2c-4.6,0-8.3,3.7-8.3,8.3c0,0.2,0,0.3,0,0.5c0,0.5-0.4,1-0.9,1.2
		c-5.7,1.4-10,6.6-10,12.8c0,7.3,5.8,13.1,13,13.1h12.6c-0.1-0.2-0.2-0.4-0.2-0.6l0,0c-0.1-0.4,0-0.9,0.2-1.3l0.5-0.7
		c0.5-0.8,1.5-1,2.3-0.5l0.7,0.4c0.3-0.3,0.7-0.5,1.1-0.8L40.4,54c-0.2-0.9,0.4-1.8,1.3-2l0.8-0.2c0.9-0.2,1.8,0.4,2,1.3l0.2,0.8
		c0.5,0,0.9,0.1,1.3,0.3l0.4-0.7c0.5-0.8,1.5-1,2.3-0.5l0.7,0.5c0.8,0.5,1,1.5,0.5,2.3l-0.4,0.7c0.3,0.3,0.5,0.7,0.8,1.1l0.8-0.2
		c0.6-0.1,1.2,0.1,1.6,0.6h11.1c7.2,0,13-5.9,13-13.1C76.7,38.9,72.7,33.9,67.2,32.3z M41.1,39.9c0,0.9-0.7,1.7-1.7,1.7h-0.8
		c-0.1,0.4-0.3,0.9-0.5,1.3l0.6,0.6c0.7,0.7,0.7,1.7,0,2.4l-0.6,0.6c-0.3,0.3-0.7,0.5-1.2,0.5c-0.4,0-0.9-0.2-1.2-0.5l-0.6-0.6
		c-0.4,0.2-0.8,0.4-1.3,0.5v0.8c0,0.9-0.7,1.7-1.7,1.7h-0.8c-0.9,0-1.7-0.7-1.7-1.7v-0.8c-0.4-0.1-0.9-0.3-1.3-0.5l-0.6,0.6
		c-0.3,0.3-0.7,0.5-1.2,0.5h0c-0.4,0-0.9-0.2-1.2-0.5L25,45.8c-0.7-0.7-0.7-1.7,0-2.4l0.6-0.6c-0.2-0.4-0.4-0.8-0.5-1.3h-0.8
		c-0.9,0-1.7-0.7-1.7-1.7v-0.8c0-0.9,0.7-1.7,1.7-1.7H25c0.1-0.4,0.3-0.9,0.5-1.3L25,35.6c-0.7-0.7-0.7-1.7,0-2.4l0.6-0.6
		c0.7-0.7,1.7-0.7,2.4,0l0.6,0.6c0.4-0.2,0.8-0.4,1.3-0.5v-0.8c0-0.9,0.7-1.7,1.7-1.7h0.8c0.9,0,1.7,0.7,1.7,1.7v0.8
		c0.4,0.1,0.9,0.3,1.3,0.5l0.6-0.6c0.3-0.3,0.7-0.5,1.2-0.5c0.4,0,0.9,0.2,1.2,0.5l0.6,0.6c0.7,0.7,0.7,1.7,0,2.4l-0.6,0.6
		c0.2,0.4,0.4,0.8,0.5,1.3h0.8c0.9,0,1.7,0.7,1.7,1.7V39.9z"/>
	<g>
		<path id="XMLID_17_" fill="none" stroke="#68717D" stroke-width="0.5" stroke-linecap="round" stroke-miterlimit="10" d="M38,66.3
			c-0.2,0.4-0.3,0.8-0.2,1.3c0.1,0.4,0.3,0.8,0.7,1.1l0.7,0.5c0.8,0.5,1.8,0.3,2.3-0.5l0.4-0.7c0.4,0.1,0.9,0.2,1.3,0.3l0.2,0.8
			c0.2,0.9,1.1,1.5,2,1.3l0.8-0.2c0.9-0.2,1.5-1.1,1.3-2l-0.2-0.8c0.4-0.2,0.8-0.5,1.1-0.8l0.7,0.4c0.8,0.5,1.8,0.3,2.3-0.5l0.5-0.7
			c0.2-0.4,0.3-0.8,0.2-1.3l0,0c-0.1-0.4-0.3-0.8-0.7-1.1l-0.7-0.4c0.1-0.4,0.2-0.9,0.3-1.3l0.8-0.2c0.9-0.2,1.5-1.1,1.3-2"/>
		<path id="XMLID_16_" fill="none" stroke="#68717D" stroke-width="0.5" stroke-linecap="round" stroke-miterlimit="10" d="
			M50.2,57.7c-0.2-0.4-0.5-0.8-0.8-1.1l0.4-0.7c0.5-0.8,0.3-1.8-0.5-2.3l-0.7-0.5c-0.8-0.5-1.8-0.3-2.3,0.5L46,54.3
			c-0.4-0.1-0.9-0.2-1.3-0.3l-0.2-0.8c-0.2-0.9-1.1-1.5-2-1.3l-0.8,0.2c-0.9,0.2-1.5,1.1-1.3,2l0.2,0.8c-0.4,0.2-0.8,0.5-1.1,0.8
			l-0.7-0.4c-0.8-0.5-1.8-0.3-2.3,0.5L36,56.3c-0.2,0.4-0.3,0.8-0.2,1.3l0,0c0.1,0.4,0.3,0.8,0.7,1.1l0.7,0.4
			c-0.1,0.4-0.2,0.9-0.3,1.3L36,60.5c-0.9,0.2-1.5,1.1-1.3,2l0.2,0.8c0.2,0.9,1.1,1.5,2,1.3"/>
		
			<circle id="XMLID_15_" fill="none" stroke="#E84B55" stroke-width="0.5" stroke-linecap="round" stroke-miterlimit="10" cx="43.9" cy="61.1" r="2.9"/>
	</g>
	<g>
		<path id="XMLID_33_" fill="none" stroke="#68717D" stroke-width="0.5" stroke-linecap="round" stroke-miterlimit="10" d="
			M35.7,46.4c0.3,0.3,0.7,0.5,1.2,0.5c0.4,0,0.9-0.2,1.2-0.5l0.6-0.6c0.7-0.7,0.7-1.7,0-2.4l-0.6-0.6c0.2-0.4,0.4-0.8,0.5-1.3h0.8
			c0.9,0,1.7-0.7,1.7-1.7v-0.8c0-0.9-0.7-1.7-1.7-1.7h-0.8c-0.1-0.4-0.3-0.9-0.5-1.3l0.6-0.6c0.7-0.7,0.7-1.7,0-2.4l-0.6-0.6
			c-0.3-0.3-0.7-0.5-1.2-0.5l0,0c-0.4,0-0.9,0.2-1.2,0.5l-0.6,0.6c-0.4-0.2-0.8-0.4-1.3-0.5v-0.8c0-0.9-0.7-1.7-1.7-1.7"/>
		<path id="XMLID_34_" fill="none" stroke="#68717D" stroke-width="0.5" stroke-linecap="round" stroke-miterlimit="10" d="
			M29.7,32.7c-0.4,0.1-0.9,0.3-1.3,0.5l-0.6-0.6c-0.7-0.7-1.7-0.7-2.4,0L25,33.2c-0.7,0.7-0.7,1.7,0,2.4l0.6,0.6
			c-0.2,0.4-0.4,0.8-0.5,1.3h-0.8c-0.9,0-1.7,0.7-1.7,1.7v0.8c0,0.9,0.7,1.7,1.7,1.7H25c0.1,0.4,0.3,0.9,0.5,1.3L25,43.4
			c-0.7,0.7-0.7,1.7,0,2.4l0.6,0.6c0.3,0.3,0.7,0.5,1.2,0.5h0c0.4,0,0.9-0.2,1.2-0.5l0.6-0.6c0.4,0.2,0.8,0.4,1.3,0.5v0.8
			c0,0.9,0.7,1.7,1.7,1.7h0.8c0.9,0,1.7-0.7,1.7-1.7"/>
		
			<circle id="XMLID_1_" fill="none" stroke="#E84B55" stroke-width="0.5" stroke-linecap="round" stroke-miterlimit="10" cx="31.8" cy="39.5" r="2.9"/>
	</g>
	<g id="XMLID_31_">
		<path id="MobileMe_1_" fill="none" stroke="#68717D" stroke-width="0.5" stroke-linecap="round" stroke-miterlimit="10" d="
			M41.2,9.7c0.6-0.1,1.2-0.1,1.9-0.1c11.2,0,16.5,8.7,16.5,17.9c0,0.1,0,0.2,0,0.2c0,0.5,0.3,1,0.8,1.1c5.5,1.5,9.5,6.6,9.5,12.7
			c0,7.3-5.8,13.1-13,13.1"/>
		<path id="MobileMe_6_" fill="none" stroke="#68717D" stroke-width="0.5" stroke-linecap="round" stroke-miterlimit="10" d="
			M38.2,10.3c0.1,0,0.3-0.1,0.4-0.1"/>
		<path id="MobileMe_7_" fill="none" stroke="#68717D" stroke-width="0.5" stroke-linecap="round" stroke-miterlimit="10" d="
			M33.5,12.7c0.4-0.3,0.9-0.7,1.3-1c0,0,0.7-0.4,1.1-0.6c0.1-0.1,0.2-0.1,0.3-0.2"/>
		<path id="MobileMe_2_" fill="none" stroke="#68717D" stroke-width="0.5" stroke-linecap="round" stroke-miterlimit="10" d="
			M30.7,15.8c-0.8,1.2-1.5,2.4-2.1,3.8c-0.3,0.6-1.1,0.8-1.7,0.5c-1.2-0.8-2.7-1.2-4.3-1.2c-4.6,0-8.3,3.7-8.3,8.3
			c0,0.2,0,0.3,0,0.5c0,0.5-0.4,1-0.9,1.2c-5.7,1.4-10,6.6-10,12.8c0,7.3,5.8,13.1,13,13.1h10.8"/>
	</g>
</g>
</svg>
