<?xml version="1.0" encoding="utf-8"?>
<!-- Generator: Adobe Illustrator 22.0.1, SVG Export Plug-In . SVG Version: 6.00 Build 0)  -->
<svg version="1.1" id="Layer_1" xmlns="http://www.w3.org/2000/svg" xmlns:xlink="http://www.w3.org/1999/xlink" x="0px" y="0px"
	 viewBox="0 0 600 600" enable-background="new 0 0 600 600" xml:space="preserve">
<g id="base">
	<path fill="#DCE1E5" d="M64.8,343.7v8.3c-0.4,3.6,2,7.5,7.2,10.5l214.7,123.9c8.8,5.1,22.1,5.6,29.8,1.2l213.6-123.3
		c4.2-2.4,4.6-4.8,4.9-9.3v-5.1L64.8,343.7z"/>
	
		<linearGradient id="SVGID_1_" gradientUnits="userSpaceOnUse" x1="794.9203" y1="461.7152" x2="1202.4683" y2="461.7152" gradientTransform="matrix(0.866 -0.5 -1.5 -0.2887 127.7238 977.7943)">
		<stop  offset="0" style="stop-color:#B1BAC1"/>
		<stop  offset="1" style="stop-color:#828B94"/>
	</linearGradient>
	<path fill="url(#SVGID_1_)" d="M530.1,354.7L316.5,478c-7.6,4.4-21,3.9-29.8-1.2L72,352.8c-8.8-5.1-9.8-12.8-2.1-17.2l213.6-123.3
		c7.6-4.4,21-3.9,29.8,1.2l214.7,124C536.8,342.5,537.7,350.2,530.1,354.7z"/>
</g>
<g id="donut6">
	<path fill="#DCE1E5" d="M399.6,306.1c-5.2-5.9-12.2-11.5-20.8-16.5c-43.8-25.3-114.6-25.4-158.1-0.3c-8.3,4.8-14.9,10.1-20,15.8
		h-12.5v28.8h0c-0.4,16.9,10.6,33.8,33,46.7c43.8,25.3,114.6,25.4,158.1,0.3c22-12.7,32.8-29.4,32.5-46h0v-28.8H399.6z M337.4,356.7
		c-20.5,11.9-53.9,11.8-74.6-0.1c-20.7-11.9-20.8-31.2-0.2-43.1c20.5-11.8,53.9-11.8,74.6,0.1C357.8,325.5,357.9,344.8,337.4,356.7z
		"/>
	<path fill="#FFFFFF" d="M378.8,259.6c-43.8-25.3-114.6-25.4-158.1-0.3s-43.3,66,0.5,91.3s114.6,25.4,158.1,0.3
		C422.8,325.7,422.6,284.8,378.8,259.6z M337.4,326.7c-20.5,11.9-53.9,11.8-74.6-0.1s-20.8-31.2-0.2-43.1
		c20.5-11.9,53.9-11.8,74.6,0.1S357.9,314.8,337.4,326.7z"/>
</g>
<g id="donut5">
	<path fill="#DCE1E5" d="M399.6,306.1c-5.2-5.9-12.2-11.5-20.8-16.5c-43.8-25.3-114.6-25.4-158.1-0.3c-8.3,4.8-14.9,10.1-20,15.8
		h-12.5v28.8h0c-0.4,16.9,10.6,33.8,33,46.7c43.8,25.3,114.6,25.4,158.1,0.3c22-12.7,32.8-29.4,32.5-46h0v-28.8H399.6z M337.4,356.7
		c-20.5,11.9-53.9,11.8-74.6-0.1c-20.7-11.9-20.8-31.2-0.2-43.1c20.5-11.8,53.9-11.8,74.6,0.1C357.8,325.5,357.9,344.8,337.4,356.7z
		"/>
	<path fill="#FFFFFF" d="M378.8,259.6c-43.8-25.3-114.6-25.4-158.1-0.3s-43.3,66,0.5,91.3s114.6,25.4,158.1,0.3
		C422.8,325.7,422.6,284.8,378.8,259.6z M337.4,326.7c-20.5,11.9-53.9,11.8-74.6-0.1s-20.8-31.2-0.2-43.1
		c20.5-11.9,53.9-11.8,74.6,0.1S357.9,314.8,337.4,326.7z"/>
</g>
<g id="donut4">
	<path fill="#DCE1E5" d="M399.6,306.1c-5.2-5.9-12.2-11.5-20.8-16.5c-43.8-25.3-114.6-25.4-158.1-0.3c-8.3,4.8-14.9,10.1-20,15.8
		h-12.5v28.8h0c-0.4,16.9,10.6,33.8,33,46.7c43.8,25.3,114.6,25.4,158.1,0.3c22-12.7,32.8-29.4,32.5-46h0v-28.8H399.6z M337.4,356.7
		c-20.5,11.9-53.9,11.8-74.6-0.1c-20.7-11.9-20.8-31.2-0.2-43.1c20.5-11.8,53.9-11.8,74.6,0.1C357.8,325.5,357.9,344.8,337.4,356.7z
		"/>
	<path fill="#FFFFFF" d="M378.8,259.6c-43.8-25.3-114.6-25.4-158.1-0.3s-43.3,66,0.5,91.3s114.6,25.4,158.1,0.3
		C422.8,325.7,422.6,284.8,378.8,259.6z M337.4,326.7c-20.5,11.9-53.9,11.8-74.6-0.1s-20.8-31.2-0.2-43.1
		c20.5-11.9,53.9-11.8,74.6,0.1S357.9,314.8,337.4,326.7z"/>
</g>
<g id="donut3">
	<path fill="#DCE1E5" d="M399.6,306.1c-5.2-5.9-12.2-11.5-20.8-16.5c-43.8-25.3-114.6-25.4-158.1-0.3c-8.3,4.8-14.9,10.1-20,15.8
		h-12.5v28.8h0c-0.4,16.9,10.6,33.8,33,46.7c43.8,25.3,114.6,25.4,158.1,0.3c22-12.7,32.8-29.4,32.5-46h0v-28.8H399.6z M337.4,356.7
		c-20.5,11.9-53.9,11.8-74.6-0.1c-20.7-11.9-20.8-31.2-0.2-43.1c20.5-11.8,53.9-11.8,74.6,0.1C357.8,325.5,357.9,344.8,337.4,356.7z
		"/>
	<path fill="#FFFFFF" d="M378.8,259.6c-43.8-25.3-114.6-25.4-158.1-0.3s-43.3,66,0.5,91.3s114.6,25.4,158.1,0.3
		C422.8,325.7,422.6,284.8,378.8,259.6z M337.4,326.7c-20.5,11.9-53.9,11.8-74.6-0.1s-20.8-31.2-0.2-43.1
		c20.5-11.9,53.9-11.8,74.6,0.1S357.9,314.8,337.4,326.7z"/>
</g>
<g id="donut2">
	<path fill="#DCE1E5" d="M399.6,306.1c-5.2-5.9-12.2-11.5-20.8-16.5c-43.8-25.3-114.6-25.4-158.1-0.3c-8.3,4.8-14.9,10.1-20,15.8
		h-12.5v28.8h0c-0.4,16.9,10.6,33.8,33,46.7c43.8,25.3,114.6,25.4,158.1,0.3c22-12.7,32.8-29.4,32.5-46h0v-28.8H399.6z M337.4,356.7
		c-20.5,11.9-53.9,11.8-74.6-0.1c-20.7-11.9-20.8-31.2-0.2-43.1c20.5-11.8,53.9-11.8,74.6,0.1C357.8,325.5,357.9,344.8,337.4,356.7z
		"/>
	<path fill="#FFFFFF" d="M378.8,259.6c-43.8-25.3-114.6-25.4-158.1-0.3s-43.3,66,0.5,91.3s114.6,25.4,158.1,0.3
		C422.8,325.7,422.6,284.8,378.8,259.6z M337.4,326.7c-20.5,11.9-53.9,11.8-74.6-0.1s-20.8-31.2-0.2-43.1
		c20.5-11.9,53.9-11.8,74.6,0.1S357.9,314.8,337.4,326.7z"/>
</g>
<g id="donut1">
	<path fill="#DCE1E5" d="M399.6,306.1c-5.2-5.9-12.2-11.5-20.8-16.5c-43.8-25.3-114.6-25.4-158.1-0.3c-8.3,4.8-14.9,10.1-20,15.8
		h-12.5v28.8h0c-0.4,16.9,10.6,33.8,33,46.7c43.8,25.3,114.6,25.4,158.1,0.3c22-12.7,32.8-29.4,32.5-46h0v-28.8H399.6z M337.4,356.7
		c-20.5,11.9-53.9,11.8-74.6-0.1c-20.7-11.9-20.8-31.2-0.2-43.1c20.5-11.8,53.9-11.8,74.6,0.1C357.8,325.5,357.9,344.8,337.4,356.7z
		"/>
	<path fill="#FFFFFF" d="M378.8,259.6c-43.8-25.3-114.6-25.4-158.1-0.3s-43.3,66,0.5,91.3s114.6,25.4,158.1,0.3
		C422.8,325.7,422.6,284.8,378.8,259.6z M337.4,326.7c-20.5,11.9-53.9,11.8-74.6-0.1s-20.8-31.2-0.2-43.1
		c20.5-11.9,53.9-11.8,74.6,0.1S357.9,314.8,337.4,326.7z"/>
	<path fill="#E84B54" d="M358,271.6c-32.2-18.6-84.3-18.7-116.4-0.2s-31.9,48.6,0.4,67.2s84.3,18.7,116.4,0.2
		C390.4,320.3,390.2,290.2,358,271.6z M353.9,336.2c-29.6,17.1-77.7,17-107.5-0.2c-29.8-17.2-29.9-45-0.3-62.1
		c29.6-17.1,77.7-17,107.5,0.2C383.3,291.3,383.5,319.1,353.9,336.2z"/>
</g>
</svg>
