<svg id="Layer_1" data-name="Layer 1" xmlns="http://www.w3.org/2000/svg" viewBox="0 0 535.32 83.4"><title>logo</title><path d="M51.09,27.89a4.44,4.44,0,0,0,.27.75l6.46,10.94q4.73,8,9.46,16L75.5,69.52q5.3,9,10.6,18Q90,94,93.83,100.58l5.9,10a1.61,1.61,0,0,1,.24.67,3.23,3.23,0,0,1-.41-.22l-3.87-2.51c-1.59-1-3.17-2.06-4.77-3.06a70.29,70.29,0,0,0-8.41-4.44,79.6,79.6,0,0,0-10.92-4A71,71,0,0,0,62,95c-2.4-.34-4.79-.72-7.2-.87-2.81-.18-5.64-.16-8.46-.19-1.13,0-2.27.09-3.56.15a4.62,4.62,0,0,1,.45-.59A16.52,16.52,0,0,1,48.53,90a29.5,29.5,0,0,1,7.19-2,40.14,40.14,0,0,1,6.1-.48c.22,0,.45,0,.77,0-.12-.33-.2-.62-.31-.88q-2.84-6.6-5.68-13.19-2.73-6.34-5.46-12.7a3.81,3.81,0,0,1-.3-1.54q0-15.13,0-30.29c0-.35,0-.7-.05-1.05Z" transform="translate(0 -27.89)" class="red"/><path d="M0,108Q23,68,46.08,28c.39.22.29.5.29.73,0,1.59,0,3.18,0,4.77q.12,9.74.22,19.46,0,3.55,0,7.11a2.21,2.21,0,0,1-.2.87L36.79,81.5c-2.12,4.49-4.25,9-6.35,13.47a1.52,1.52,0,0,1-1.21,1,78.17,78.17,0,0,0-23.42,8.72c-1.73,1-3.39,2.08-5.09,3.13l-.56.37Z" transform="translate(0 -27.89)" class="dark"/><path d="M124,55.42c8.8,0,16.93,3.73,21.89,10.27l-10.94,8.24a13.51,13.51,0,0,0-11-5.19c-7.67,0-14.78,5.42-14.78,14A14.54,14.54,0,0,0,124,97.18a13.59,13.59,0,0,0,11-5.31L146,100c-5,6.54-13.09,10.38-22,10.38-15.12,0-28.44-11.06-28.44-27.65S108.87,55.42,124,55.42Z" transform="translate(0 -27.89)" class="red"/><path d="M176.46,55.42c8.81,0,16.93,3.73,21.9,10.27l-11,8.24a13.5,13.5,0,0,0-10.95-5.19c-7.67,0-14.78,5.42-14.78,14a14.54,14.54,0,0,0,14.78,14.45,13.57,13.57,0,0,0,10.95-5.31L198.47,100c-5,6.54-13.09,10.38-22,10.38-15.12,0-28.43-11.06-28.43-27.65S161.34,55.42,176.46,55.42Z" transform="translate(0 -27.89)" class="red"/><path d="M211.56,27.89a8.3,8.3,0,1,1,0,16.59c-4.85,0-8.92-3.61-8.92-8.35S206.71,27.89,211.56,27.89Zm6.77,81.36H204.68V56.55h13.65Z" transform="translate(0 -27.89)" class="red"/><path d="M225.21,82.73c0-16.59,12.42-27.31,27.42-27.31s27.43,10.72,27.43,27.31-12.53,27.54-27.43,27.54S225.21,99.32,225.21,82.73Zm41.19,0c0-8.35-6.2-13.76-13.77-13.76s-13.76,5.41-13.76,13.76c0,8.58,6.2,14.11,13.76,14.11S266.4,91.31,266.4,82.73Z" transform="translate(0 -27.89)" class="red"/><path d="M300.71,109.25H286.94V56.55h13.77v7.79c2.93-5.64,9.59-8.92,15.68-8.92,12.3,0,19.64,7.79,19.64,22.69v31.14H322.26V80.59c0-7.67-4.06-11.74-10-11.74-6.21,0-11.51,3.16-11.51,12.3Z" transform="translate(0 -27.89)" class="red"/><rect x="345.51" width="13.77" height="81.36" class="dark"/><path d="M409.38,102.48c-3.39,5.42-11.17,7.79-16.36,7.79-13.88,0-26.86-10.61-26.86-27.42s13-27.43,26.86-27.43c4.74,0,12.52,1.81,16.36,7.68V56.55h13.77v52.7H409.38Zm-14.44-5.42c7.44,0,14.44-5.19,14.44-14.21s-7.22-14.22-14.44-14.22c-7.57,0-14.56,5.64-14.56,14.22S387.37,97.06,394.94,97.06Z" transform="translate(0 -27.89)" class="dark"/><path d="M433.3,109.25V27.89h13.77V63.55c2.82-5.3,9.48-8.13,16.48-8.13,13.88,0,25.84,10.72,25.84,27.54s-12.08,27.42-25.84,27.42c-6.89,0-13.66-2.93-16.48-8.24v7.11Zm28-12.07c7.67,0,13.88-5.76,13.88-14.45S469,68.51,461.29,68.51a13.75,13.75,0,0,0-14,14.22C447.3,91.54,453.84,97.18,461.29,97.18Z" transform="translate(0 -27.89)" class="dark"/><path d="M494.13,71.11c0-8.46,8.91-15.69,19.41-15.69,9.93,0,20.08,4.52,20.53,16.59H521c-.22-4-4.06-5.41-7.1-5.41-3.39,0-6.66,1.24-6.66,5.19,0,2.14,2.48,3.61,5.53,4.4l8.8,2.14c12.19,3.16,13.77,11.63,13.77,15.8,0,10.72-10.61,16.25-21.56,16.25-10.38,0-21-6.32-21.21-17.72h12.86c.34,3.73,4.63,6.89,9.71,6.66C519,99.21,522,97.06,522,94c.11-2.71-1.92-4.06-5.76-5L509,87.25C495.37,83.52,494.13,77.32,494.13,71.11Z" transform="translate(0 -27.89)" class="dark"/></svg>