<?xml version="1.0" encoding="utf-8"?>
<!-- Generator: Adobe Illustrator 22.0.1, SVG Export Plug-In . SVG Version: 6.00 Build 0)  -->
<svg version="1.1" id="bot" xmlns="http://www.w3.org/2000/svg" xmlns:xlink="http://www.w3.org/1999/xlink" x="0px" y="0px"
	 viewBox="0 0 600 600" enable-background="new 0 0 600 600" xml:space="preserve">
<g id="base_x5F_plate">
	<path fill="#DCE1E5" d="M106.4,361.8l0,17.5c-0.4,3,1.7,6.2,6,8.7l176.7,102c7.3,4.2,18.2,4.6,24.5,1l175.8-101.5
		c3.5-2,3.8-4,4-7.7l0-14.9L106.4,361.8z"/>
	
		<linearGradient id="SVGID_1_" gradientUnits="userSpaceOnUse" x1="961.5599" y1="171.0472" x2="1296.8745" y2="171.0472" gradientTransform="matrix(0.866 -0.5 1.5 0.2887 -934.5016 879.1117)">
		<stop  offset="0" style="stop-color:#B1BAC1"/>
		<stop  offset="1" style="stop-color:#828B94"/>
	</linearGradient>
	<path fill="url(#SVGID_1_)" d="M489.4,371.7L313.6,473.2c-6.3,3.6-17.3,3.2-24.5-1l-176.7-102c-7.3-4.2-8-10.5-1.8-14.1
		l175.8-101.5c6.3-3.6,17.3-3.2,24.5,1l176.7,102C494.9,361.8,495.6,368.1,489.4,371.7z"/>
</g>
<g id="big-cloud">
	<g enable-background="new    ">
		<g>
			<path fill="#FFFFFF" d="M146.3,240.8c3.3-1.9,7.4-2.5,12-1.5c2.8,0.6,5.8,1.8,9,3.6c3,1.7,5.9,3.9,8.6,6.4l-11.1,6.4
				c-2.7-2.5-5.6-4.7-8.6-6.4c-3.1-1.8-6.1-3-9-3.6c-4.6-1-8.7-0.4-12,1.5L146.3,240.8z"/>
			<path fill="#FFFFFF" d="M185.5,233.1c3.8-2.2,8.6-2.9,13.9-1.8c3.3,0.7,6.8,2.1,10.4,4.1c6,3.5,11.6,8.5,16.5,14.5
				c9,11,15.5,25.2,17.1,38.3c2.7,0.6,5.6,1.8,8.6,3.5c5.2,3,10.1,7.3,14.3,12.5c9.1,11,15.2,25.7,15.1,38.4
				c0,9.3-3.3,15.8-8.6,18.9l-11.1,6.4c5.3-3.1,8.6-9.6,8.6-18.9c0-12.8-6.1-27.4-15.1-38.4c-4.2-5.1-9.1-9.5-14.3-12.5
				c-3-1.7-5.9-2.9-8.6-3.5c-1.6-13.2-8.1-27.3-17.1-38.3c-4.9-6-10.5-11-16.5-14.5c-3.6-2.1-7.1-3.5-10.4-4.1
				c-5.3-1.1-10.1-0.5-13.9,1.8L185.5,233.1z"/>
		</g>
		<g>
			<path fill="#DCE1E5" d="M198.7,241.9c-17.1-9.9-31.3-3.6-33.8,13.9c-2.7-2.5-5.6-4.7-8.6-6.4c-16.3-9.4-29.5-1.9-29.6,16.9
				c-0.1,18.7,13.1,41.5,29.4,50.9l84.7,48.9c16.3,9.4,29.5,1.9,29.6-16.9c0.1-18.7-13.1-41.5-29.4-50.9c-3-1.7-5.9-2.9-8.6-3.5
				C229.9,274.4,215.8,251.7,198.7,241.9z"/>
		</g>
	</g>
</g>
<g id="small-cloud">
	<g enable-background="new    ">
		<g>
			<path fill="#FFFFFF" d="M120.6,275.2c2.2-1.3,4.9-1.7,8-1c1.9,0.4,3.9,1.2,5.9,2.4c2,1.1,3.9,2.6,5.7,4.3l-7.3,4.3
				c-1.8-1.7-3.7-3.1-5.7-4.3c-2.1-1.2-4.1-2-5.9-2.4c-3-0.6-5.8-0.3-8,1L120.6,275.2z"/>
			<path fill="#FFFFFF" d="M146.5,270.1c2.5-1.5,5.7-1.9,9.2-1.2c2.2,0.5,4.5,1.4,6.9,2.7c4,2.3,7.7,5.7,11,9.6
				c6,7.3,10.3,16.6,11.3,25.3c1.8,0.4,3.7,1.2,5.7,2.3c3.4,2,6.7,4.9,9.5,8.3c6,7.3,10,17,10,25.5c0,6.2-2.2,10.5-5.7,12.5
				l-7.3,4.3c3.5-2,5.7-6.4,5.7-12.5c0-8.5-4-18.2-10-25.5c-2.8-3.4-6-6.3-9.5-8.3c-2-1.1-3.9-1.9-5.7-2.3
				c-1-8.7-5.3-18.1-11.3-25.3c-3.2-4-7-7.3-11-9.6c-2.4-1.4-4.7-2.3-6.9-2.7c-3.5-0.7-6.7-0.3-9.2,1.2L146.5,270.1z"/>
		</g>
		<g>
			<path fill="#DCE1E5" d="M155.3,276c-11.3-6.5-20.7-2.4-22.4,9.2c-1.8-1.7-3.7-3.1-5.7-4.3c-10.8-6.2-19.6-1.2-19.6,11.2
				c0,12.4,8.7,27.5,19.5,33.7l56.1,32.4c10.8,6.2,19.6,1.2,19.6-11.2c0-12.4-8.7-27.5-19.5-33.7c-2-1.1-3.9-1.9-5.7-2.3
				C175.9,297.5,166.6,282.5,155.3,276z"/>
		</g>
	</g>
</g>
<g id="torso">
	<g>
		<polygon fill="#FFFFFF" points="350.4,361.3 328.3,348.6 361.7,329.3 383.8,342 		"/>
		<polygon fill="#A4B1BC" points="350.4,372.3 350.4,361.3 383.8,342 383.8,353 		"/>
		<polygon fill="#DCE1E5" points="350.4,372.3 328.3,359.5 328.3,348.6 350.4,361.3 		"/>
	</g>
	<g>
		<polygon fill="#DCE1E5" points="359.9,354.9 341.4,344.2 341.4,274 359.9,284.7 		"/>
		<polygon fill="#C2CCD3" points="378.3,344.2 359.9,354.9 359.9,284.7 378.3,274 		"/>
	</g>
	<polygon fill="#DCE1E5" points="374,339.2 302.6,298 302.6,201 374,242.2 	"/>
	<g>
		<polygon fill="#FFFFFF" points="392.8,385.8 370.7,373 404.1,353.8 426.1,366.5 		"/>
		<polygon fill="#A4B1BC" points="392.8,396.8 392.8,385.8 426.2,366.5 426.2,377.5 		"/>
		<polygon fill="#DCE1E5" points="392.8,396.8 370.7,384 370.7,373 392.8,385.8 		"/>
	</g>
	<polygon fill="#E84B54" points="445.4,201 374,242.2 302.6,201 374,159.7 	"/>
	<g>
		<polygon fill="#DCE1E5" points="400.5,378.7 382,368 382,297.9 400.5,308.5 		"/>
		<polygon fill="#C2CCD3" points="419,368 400.5,378.7 400.5,308.5 419,297.9 		"/>
	</g>
	<polygon fill="#C2CCD3" points="445.4,298 374,339.2 374,242.2 445.4,201 	"/>
	<path fill="#A4B1BC" d="M422.3,311.9l-2.1,1.2c-7.6,4.4-13.8-0.3-13.8-10.4v-48c0-10.2,6.2-22,13.8-26.4l2.1-1.2
		c7.6-4.4,13.8,0.3,13.8,10.4v48C436.1,295.7,429.9,307.5,422.3,311.9z"/>
	<path fill="#DCE1E5" d="M427.2,314.3l-2.1,1.2c-7.6,4.4-13.8-0.3-13.8-10.4v-48c0-10.2,6.2-22,13.8-26.4l2.1-1.2
		c7.6-4.4,13.8,0.3,13.8,10.4v48C441,298.1,434.8,309.9,427.2,314.3z"/>
</g>
<g id="head">
	<polygon fill="#FFFFFF" points="374,106.5 311,142.9 374,179.3 437,142.9 	"/>
	<polygon fill="#DCE1E5" points="311,142.9 311,201.1 374,237.5 374,179.3 	"/>
	<polygon fill="#C2CCD3" points="437,142.9 437,201.1 374,237.5 374,179.3 	"/>
	<g>
		<ellipse transform="matrix(0.866 -0.5 0.5 0.866 -44.0173 190.4718)" fill="#A4B1BC" cx="333.4" cy="177.4" rx="6" ry="10.4"/>
		<ellipse transform="matrix(0.866 -0.5 0.5 0.866 -44.5205 189.2937)" fill="#F4F7F9" cx="331" cy="177.7" rx="6" ry="10.4"/>
	</g>
	<g>
		<ellipse transform="matrix(0.866 -0.5 0.5 0.866 -47.5725 203.8038)" fill="#A4B1BC" cx="356.5" cy="190.7" rx="6" ry="10.4"/>
		<ellipse transform="matrix(0.866 -0.5 0.5 0.866 -48.0757 202.6257)" fill="#F4F7F9" cx="354.1" cy="191" rx="6" ry="10.4"/>
	</g>
	<g>
		<polygon fill="#FFFFFF" points="422.8,169 394.8,185.2 392.2,183.7 420.2,167.5 		"/>
		<polygon fill="#A4B1BC" points="394.8,208.9 392.2,207.4 392.2,183.8 394.8,185.2 		"/>
		<polygon fill="#C2CCD3" points="422.8,192.7 394.8,208.9 394.8,185.2 422.8,169.1 		"/>
	</g>
</g>
<g id="cloud-bubble">
	<path fill="#E84B54" d="M223.3,118.1C223.3,118.1,223.3,118.1,223.3,118.1c-0.1,0-0.1,0-0.1-0.1c0,0,0,0-0.1,0c0,0,0,0,0,0
		c0,0,0,0-0.1,0c0,0,0,0-0.1,0c0,0,0,0,0,0c0,0,0,0-0.1,0c0,0,0,0-0.1,0c0,0,0,0-0.1,0c0,0,0,0,0,0c0,0,0,0-0.1,0c0,0,0,0-0.1,0
		c0,0,0,0,0,0c0,0,0,0-0.1,0c0,0,0,0-0.1,0c0,0,0,0,0,0c0,0,0,0-0.1,0c0,0,0,0-0.1,0c0,0,0,0,0,0c0,0,0,0-0.1,0c0,0,0,0-0.1,0
		c0,0,0,0,0,0c0,0,0,0-0.1,0c0,0,0,0-0.1,0c0,0,0,0-0.1,0c0,0,0,0,0,0c0,0,0,0-0.1,0c0,0,0,0-0.1,0c0,0,0,0,0,0c0,0,0,0-0.1,0
		c0,0,0,0-0.1,0c0,0,0,0-0.1,0c0,0,0,0-0.1,0c0,0,0,0-0.1,0c0,0,0,0,0,0c0,0,0,0-0.1,0c0,0,0,0-0.1,0c0,0,0,0,0,0c0,0,0,0-0.1,0
		c0,0,0,0-0.1,0c0,0,0,0-0.1,0c0,0,0,0,0,0c0,0,0,0-0.1,0c0,0,0,0,0,0c0,0,0,0-0.1,0c0,0,0,0-0.1,0c0,0,0,0-0.1,0c0,0,0,0,0,0
		c0,0,0,0-0.1,0c0,0,0,0-0.1,0c0,0,0,0,0,0c0,0,0,0-0.1,0c0,0,0,0-0.1,0c0,0,0,0-0.1,0c0,0,0,0,0,0c0,0,0,0-0.1,0c0,0,0,0-0.1,0
		c0,0,0,0-0.1,0c0,0,0,0-0.1,0c0,0,0,0,0,0c0,0,0,0-0.1,0c0,0,0,0-0.1,0c0,0,0,0-0.1,0c0,0,0,0-0.1,0c0,0,0,0-0.1,0c0,0,0,0,0,0
		c0,0,0,0-0.1,0c0,0,0,0-0.1,0c0,0,0,0-0.1,0c0,0,0,0-0.1,0c0,0,0,0-0.1,0c0,0,0,0-0.1,0c0,0,0,0,0,0c0,0,0,0-0.1,0c0,0,0,0-0.1,0
		c0,0,0,0-0.1,0c0,0,0,0-0.1,0c0,0,0,0-0.1,0c0,0,0,0,0,0c0,0,0,0-0.1,0c0,0,0,0-0.1,0c0,0,0,0-0.1,0c0,0,0,0,0,0c0,0,0,0-0.1,0
		c0,0,0,0-0.1,0c0,0,0,0,0,0c0,0,0,0-0.1,0c0,0,0,0-0.1,0c0,0,0,0,0,0c0,0,0,0-0.1,0c0,0,0,0-0.1,0c0,0,0,0,0,0c0,0,0,0-0.1,0
		c0,0,0,0-0.1,0c0,0,0,0-0.1,0c0,0,0,0-0.1,0c0,0,0,0-0.1,0c0,0,0,0,0,0c0,0,0,0-0.1,0c0,0,0,0-0.1,0c0,0,0,0-0.1,0c0,0,0,0,0,0
		c0,0,0,0-0.1,0c0,0,0,0-0.1,0c0,0,0,0,0,0c0,0,0,0-0.1,0c0,0,0,0-0.1,0c0,0,0,0-0.1,0c0,0,0,0,0,0c0,0,0,0-0.1,0c0,0,0,0,0,0
		c0,0,0,0-0.1,0c0,0,0,0-0.1,0c0,0,0,0,0,0c0,0,0,0-0.1,0c0,0,0,0-0.1,0c0,0,0,0-0.1,0c0,0,0,0,0,0c0,0,0,0-0.1,0c0,0,0,0-0.1,0
		c0,0,0,0-0.1,0c0,0,0,0,0,0c0,0,0,0-0.1,0c0,0,0,0-0.1,0c0,0,0,0,0,0c0,0,0,0-0.1,0c0,0,0,0-0.1,0c0,0,0,0-0.1,0c0,0,0,0,0,0
		c0,0,0,0-0.1,0c0,0,0,0-0.1,0c0,0,0,0-0.1,0c0,0,0,0-0.1,0c0,0,0,0,0,0c0,0,0,0-0.1,0c0,0,0,0-0.1,0c0,0,0,0,0,0c0,0,0,0-0.1,0
		c0,0,0,0-0.1,0c0,0,0,0-0.1,0c0,0,0,0,0,0c0,0,0,0-0.1,0c0,0,0,0-0.1,0c0,0,0,0-0.1,0c0,0,0,0-0.1,0c0,0,0,0,0,0c0,0,0,0-0.1,0
		c0,0,0,0,0,0c0,0,0,0-0.1,0c0,0,0,0-0.1,0c0,0,0,0-0.1,0c0,0,0,0-0.1,0c0,0,0,0-0.1,0c0,0,0,0-0.1,0c0,0,0,0-0.1,0c0,0,0,0-0.1,0
		c0,0,0,0,0,0c0,0,0,0-0.1,0c0,0,0,0-0.1,0c0,0,0,0-0.1,0c0,0,0,0,0,0c0,0,0,0-0.1,0c0,0,0,0-0.1,0c0,0,0,0-0.1,0c0,0,0,0-0.1,0
		c0,0,0,0,0,0c0,0,0,0-0.1,0c0,0,0,0-0.1,0c0,0,0,0,0,0c0,0,0,0-0.1,0c0,0,0,0-0.1,0c0,0,0,0-0.1,0c0,0,0,0-0.1,0c0,0,0,0-0.1,0
		c0,0,0,0,0,0c0,0,0,0-0.1,0c0,0,0,0,0,0c0,0,0,0-0.1,0c0,0,0,0-0.1,0c0,0,0,0-0.1,0c0,0,0,0-0.1,0c0,0,0,0-0.1,0c0,0,0,0-0.1,0
		c0,0,0,0-0.1,0c0,0,0,0,0,0c0,0,0,0-0.1,0c0,0,0,0-0.1,0c0,0,0,0,0,0c0,0,0,0-0.1,0c0,0,0,0-0.1,0c0,0,0,0-0.1,0c0,0,0,0-0.1,0
		c0,0,0,0,0,0c0,0,0,0,0,0c0,0,0,0-0.1,0c0,0,0,0-0.1,0c0,0,0,0,0,0c0,0,0,0-0.1,0c0,0,0,0-0.1,0c0,0,0,0-0.1,0c0,0,0,0,0,0
		c0,0,0,0-0.1,0c0,0,0,0,0,0c0,0,0,0-0.1,0c0,0,0,0,0,0c0,0,0,0,0,0c0,0,0,0-0.1,0c0,0,0,0,0,0c0,0,0,0-0.1,0c0,0,0,0-0.1,0
		c0,0,0,0-0.1,0c0,0,0,0-0.1,0c0,0,0,0-0.1,0c0,0,0,0-0.1,0c0,0,0,0-0.1,0c0,0,0,0-0.1,0c0,0,0,0,0,0c0,0,0,0-0.1,0c0,0,0,0-0.1,0
		c0,0,0,0,0,0c0,0,0,0-0.1,0c0,0,0,0-0.1,0c0,0,0,0-0.1,0c0,0,0,0-0.1,0c0,0,0,0-0.1,0c0,0,0,0-0.1,0c0,0,0,0-0.1,0c0,0,0,0-0.1,0
		c0,0,0,0,0,0c0,0,0,0-0.1,0c0,0,0,0-0.1,0c0,0,0,0-0.1,0c0,0,0,0,0,0c0,0,0,0-0.1,0c0,0,0,0,0,0c0,0,0,0-0.1,0c0,0,0,0-0.1,0
		c0,0,0,0-0.1,0c0,0,0,0-0.1,0c0,0,0,0,0,0c0,0,0,0-0.1,0c0,0,0,0,0,0c0,0,0,0-0.1,0c0,0,0,0-0.1,0c0,0,0,0,0,0c0,0,0,0-0.1,0
		c0,0,0,0-0.1,0c0,0,0,0,0,0c0,0,0,0-0.1,0c-5.7-3.3-13.5-2.8-22.2,2.2c-17.4,10-31.4,34.4-31.4,54.4c0,8.6,2.6,15,6.9,18.7
		l-6.9,17.6l0.1-0.1l-0.1,0.2l0.1-0.1l-0.1,0.2l0.1-0.1l-0.1,0.2l0.1-0.1l-0.1,0.2l0.1-0.1l-0.1,0.2l0.1-0.1l-0.1,0.2l0.1-0.1
		l-0.1,0.2l0.1-0.1l-0.1,0.2l0.1-0.1l-0.1,0.2l0.1-0.1l-0.1,0.2l0.1-0.1l-0.1,0.2l0.1-0.1l-0.1,0.2l0.1-0.1l-0.1,0.2l0.1-0.1
		l-0.1,0.2l0.1-0.1l-0.1,0.2l0.1-0.1l-0.1,0.2l0.1-0.1l-0.1,0.2l0.1-0.1l-0.1,0.2l0.1-0.1l-0.1,0.2l0.1-0.1l-0.1,0.2l0.1-0.1
		l-0.1,0.2l0.1-0.1l-0.1,0.2l0.1-0.1l-0.1,0.2l0.1-0.1l-0.1,0.2l0.1-0.1l-0.1,0.2l0.1-0.1l-0.1,0.2l0.1-0.1l-0.1,0.2l0.1-0.1
		l-0.1,0.2l0.1-0.1l-0.1,0.2l0.1-0.1l-0.1,0.2l0.1-0.1l-0.1,0.2l0.1-0.1l-0.1,0.2l0.1-0.1l-0.1,0.2l0.1-0.1l-0.1,0.2l0.1-0.1
		l-0.1,0.2l0.1-0.1l-0.1,0.2l0.1-0.1l-0.1,0.2l0.1-0.1l-0.1,0.2l0.1-0.1l-0.1,0.2l0.1-0.1l-0.1,0.2l0.1-0.1l-0.1,0.2l0.1-0.1
		l-0.1,0.2l0.1-0.1l-0.1,0.2l0.1-0.1l-0.1,0.2l0.1-0.1l-0.1,0.2l0.1-0.1l-0.1,0.2l0.1-0.1l-0.1,0.2l0.1-0.1l-0.1,0.2l0.1-0.1
		l-0.1,0.2l0.1-0.1l-0.1,0.2l0.1-0.1l-0.1,0.2l0.1-0.1l-0.1,0.2l0.1-0.1l-0.1,0.2l0.1-0.1l-0.1,0.2l0.1-0.1l-0.1,0.2l0.1-0.1
		l-0.1,0.2l0.1-0.1l-0.1,0.2l0.1-0.1l-0.1,0.2l0.1-0.1l-0.1,0.2l0.1-0.1l-0.1,0.2l0.1-0.1l-0.1,0.2l0.1-0.1l-0.1,0.2l0.1-0.1
		l-0.1,0.2l0.1-0.1l-0.1,0.2l0.1-0.1l-0.1,0.2l0.1-0.1l-0.1,0.2l0.1-0.1l-0.1,0.2l0.1-0.1l-0.1,0.2l0.1-0.1l-0.1,0.2l0.1-0.1
		l-0.1,0.2l0.1-0.1l-0.1,0.2l0.1-0.1l-0.1,0.2l0.1-0.1l-0.1,0.2l0.1-0.1l-0.1,0.2l0.1-0.1l-0.1,0.2l0.1-0.1l-0.1,0.2l0.1-0.1
		l-0.1,0.2l0.1-0.1l-0.1,0.2l0.1-0.1l-0.1,0.2l0.1-0.1l-0.1,0.2l0.1-0.1l-0.1,0.2l0.1-0.1l-0.1,0.2l0.1-0.1l-0.1,0.2l0.1-0.1
		l-0.1,0.2l0.1-0.1L161,206l0.1-0.1l-0.1,0.2l0.1-0.1l-0.1,0.2l0.1-0.1l-0.1,0.2l0.1-0.1l-0.1,0.2l0.1-0.1l-0.1,0.2l0.1-0.1
		l-0.1,0.2l0.1-0.1l-0.1,0.2l0.1-0.1l-0.1,0.2l0.1-0.1l-0.1,0.2l0.1-0.1l-0.1,0.2l0.1-0.1l-0.1,0.2l0.1-0.1l-0.1,0.2l0.1-0.1
		l-0.1,0.2l0.1-0.1l-0.1,0.2l0.1-0.1l-0.1,0.2l0.1-0.1l-0.1,0.2l0.1-0.1l-0.1,0.2l0.1-0.1l-0.1,0.2l0.1-0.1l-0.1,0.2l0.1-0.1
		l-0.1,0.2l0.1-0.1l-0.1,0.2l0.1-0.1l-0.1,0.2l0.1-0.1l-0.1,0.2l0.1-0.1l-0.1,0.2l0.1-0.1l-0.1,0.2l0.1-0.1l-0.1,0.2l0.1-0.1
		l-0.1,0.2l0.1-0.1l-0.1,0.2l0.1-0.1l-0.1,0.2l0.1-0.1l-0.1,0.2l0.1-0.1l-0.1,0.2l0.1-0.1l-0.1,0.2l0.1-0.1l-0.1,0.2l0.1-0.1
		l-0.1,0.2l0.1-0.1l-0.1,0.2l0.1-0.1l-0.1,0.2l0.1-0.1l-0.1,0.2l0.1-0.1l-0.1,0.2l0.1-0.1l-0.1,0.2l0.1-0.1l-0.1,0.2l0.1-0.1
		l-0.1,0.2l0.1-0.1l-0.1,0.2l0.1-0.1l-0.1,0.2l0.1-0.1l-0.1,0.2l0.1-0.1l-0.1,0.2l0.1-0.1l-0.1,0.2l0.1-0.1l-0.1,0.2l0.1-0.1
		l-0.1,0.2l0.1-0.1l-0.1,0.2l0.1-0.1l-0.1,0.2l0.1-0.1l-0.1,0.2l0.1-0.1l-0.1,0.2l0.1-0.1l-0.1,0.2l0.1-0.1l-0.1,0.2l0.1-0.1
		l-0.1,0.2l0.1-0.1l-0.1,0.2l0.1-0.1l-0.1,0.2l0.1-0.1l-0.1,0.2l0.1-0.1l-0.1,0.2l0.1-0.1l-0.1,0.2l0.1-0.1l-0.1,0.2l0.1-0.1
		l-0.1,0.2l0.1-0.1l-0.1,0.2l0.1-0.1l-0.1,0.2l0.1-0.1l-0.1,0.2l0.1-0.1l-0.1,0.2l0.1-0.1l-0.1,0.2l0.1-0.1l-0.1,0.2l0.1-0.1
		l-0.1,0.2l0.1-0.1l-0.1,0.2l0.1-0.1l-0.1,0.2l0.1-0.1l-0.1,0.2l0.1-0.1l-0.1,0.2l0.1-0.1l-0.1,0.2l0.1-0.1l-0.1,0.2l0.1-0.1
		l-0.1,0.2l0.1-0.1l-0.1,0.2l0.1-0.1l-0.1,0.2l0.1-0.1l-0.1,0.2l0.1-0.1l-0.1,0.2l0.1-0.1l-0.1,0.2l0.1-0.1l-0.1,0.2l0.1-0.1
		l-0.1,0.2l0.1-0.1l-0.1,0.2l0.1-0.1l-0.1,0.2l0.1-0.1l-0.1,0.2l0.1-0.1l-0.1,0.2l0.1-0.1l-0.1,0.2l0.1-0.1l-0.1,0.2l0.1-0.1
		l-0.1,0.2l0.1-0.1l-0.1,0.2l0.1-0.1l-0.1,0.2l0.1-0.1l-0.1,0.2l0.1-0.1l-0.1,0.2l0.1-0.1l-0.1,0.2l0.1-0.1l-0.1,0.2l0.1-0.1
		l-0.1,0.2l0.1-0.1l-0.1,0.2l0.1-0.1l-0.1,0.2l0.1-0.1l-0.1,0.2l0.1-0.1l-0.1,0.2l0.1-0.1l-0.1,0.2l0.1-0.1l-0.1,0.2l0.1-0.1
		l-0.1,0.2l0.1-0.1l-0.1,0.2l0.1-0.1l-0.1,0.2l0.1-0.1l-0.1,0.2l0.1-0.1l-0.1,0.2l0.1-0.1l-0.1,0.2l0.1-0.1l-0.1,0.2l0.1-0.1
		l-0.1,0.2l0.1-0.1l-0.1,0.2l0.1-0.1l-0.1,0.2l0.1-0.1l-0.1,0.2l0.1-0.1l-0.1,0.2l0.1-0.1l-0.1,0.2l0.1-0.1l-0.1,0.2l0.1-0.1
		l-0.1,0.2l0.1-0.1l-0.1,0.2l0.1-0.1l-0.1,0.2l0.1-0.1l-0.1,0.2l0.1-0.1l-0.1,0.2l0.1-0.1l-0.1,0.2l0.1-0.1l-0.1,0.2l0.1-0.1
		l-0.1,0.2l0.1-0.1l-0.1,0.2l0.1-0.1l-0.1,0.2l0.1-0.1l-0.1,0.2l0.1-0.1l-0.1,0.2l0.1-0.1l-0.1,0.2l0.1-0.1l-0.1,0.2l0.1-0.1
		l-0.1,0.2l0.1-0.1L168,210l0.1-0.1L168,210l0.1-0.1l-0.1,0.2l0.1-0.1l-0.1,0.2l0.1-0.1l-0.1,0.2l0.1-0.1l-0.1,0.2l0.1-0.1l-0.1,0.2
		l0.1-0.1l-0.1,0.2l0.1-0.1l-0.1,0.2l0.1-0.1l-0.1,0.2l0.1-0.1l-0.1,0.2l0.1-0.1l-0.1,0.2l0.1-0.1l-0.1,0.2l0.1-0.1l-0.1,0.2
		l0.1-0.1l-0.1,0.2l0.1-0.1l-0.1,0.2l0.1-0.1l-0.1,0.2l0.1-0.1l-0.1,0.2l0.1-0.1l-0.1,0.2l0.1-0.1l-0.1,0.2l0.1-0.1l-0.1,0.2
		l0.1-0.1l-0.1,0.2l0.1-0.1l-0.1,0.2l0.1-0.1l-0.1,0.2l0.1-0.1l-0.1,0.2l0.1-0.1l-0.1,0.2l0.1-0.1l-0.1,0.2l0.1-0.1l-0.1,0.2
		l0.1-0.1l-0.1,0.2l0.1-0.1l-0.1,0.2l0.1-0.1l-0.1,0.2l0.1-0.1l-0.1,0.2l0.1-0.1l-0.1,0.2l0.1-0.1l-0.1,0.2l13-14.4
		c5.2,1.3,11.5,0.2,18.4-3.8c17.4-10,31.4-34.4,31.4-54.4C232.5,128.4,229,121.3,223.3,118.1z"/>
	<path fill="#D12C3D" d="M176.6,193.4c-4.3-3.7-6.9-10.1-6.9-18.7c0-20,14.1-44.4,31.4-54.4c17.4-10,31.4-1.9,31.4,18.1
		c0,20-14.1,44.4-31.4,54.4c-6.9,4-13.2,5.1-18.4,3.8l-13,14.4L176.6,193.4z"/>
</g>
<g id="bot-bubble">
	<path fill="#FFFFFF" d="M277.2,145.4c0-10-3.5-17.1-9.2-20.4c0,0,0,0-0.1,0c0,0,0,0-0.1,0c0,0,0,0-0.1,0c0,0,0,0-0.1,0
		c0,0,0,0-0.1,0c0,0,0,0-0.1,0c0,0,0,0-0.1,0c0,0,0,0-0.1,0c0,0,0,0-0.1,0c0,0,0,0,0,0c0,0,0,0-0.1,0c0,0,0,0-0.1,0c0,0,0,0,0,0
		c0,0,0,0-0.1,0c0,0,0,0-0.1,0c0,0,0,0-0.1,0c0,0,0,0,0,0c0,0,0,0-0.1,0c0,0,0,0-0.1,0c0,0,0,0,0,0c0,0,0,0-0.1,0c0,0,0,0-0.1,0
		c0,0,0,0,0,0c0,0,0,0-0.1,0c0,0,0,0-0.1,0c0,0,0,0-0.1,0c0,0,0,0,0,0c0,0,0,0-0.1,0c0,0,0,0-0.1,0c0,0,0,0-0.1,0c0,0,0,0-0.1,0
		c0,0,0,0-0.1,0c0,0,0,0,0,0c0,0,0,0-0.1,0c0,0,0,0,0,0c0,0,0,0-0.1,0c0,0,0,0,0,0c0,0,0,0-0.1,0c0,0,0,0,0,0c0,0,0,0-0.1,0
		c0,0,0,0-0.1,0c0,0,0,0,0,0c0,0,0,0-0.1,0c0,0,0,0-0.1,0c0,0,0,0-0.1,0c0,0,0,0-0.1,0c0,0,0,0-0.1,0c0,0,0,0-0.1,0c0,0,0,0,0,0
		c0,0,0,0-0.1,0c0,0,0,0-0.1,0c0,0,0,0-0.1,0c0,0,0,0-0.1,0c0,0,0,0-0.1,0c0,0,0,0-0.1,0c0,0,0,0-0.1,0c0,0,0,0-0.1,0c0,0,0,0-0.1,0
		c0,0,0,0-0.1,0c0,0,0,0-0.1,0c0,0,0,0,0,0c0,0,0,0-0.1,0c0,0,0,0-0.1,0c0,0,0,0-0.1,0c0,0,0,0,0,0c0,0,0,0-0.1,0c0,0,0,0-0.1,0
		c0,0,0,0,0,0c0,0,0,0-0.1,0c0,0,0,0-0.1,0c0,0,0,0-0.1,0c0,0,0,0-0.1,0c0,0,0,0,0,0c0,0,0,0-0.1,0c0,0,0,0-0.1,0c0,0,0,0-0.1,0
		c0,0,0,0-0.1,0c0,0,0,0,0,0c0,0,0,0-0.1,0c0,0,0,0,0,0c0,0,0,0-0.1,0c0,0,0,0-0.1,0c0,0,0,0,0,0c0,0,0,0-0.1,0c0,0,0,0-0.1,0
		c0,0,0,0-0.1,0c0,0,0,0,0,0c0,0,0,0-0.1,0c0,0,0,0-0.1,0c0,0,0,0,0,0c0,0,0,0-0.1,0c0,0,0,0-0.1,0c0,0,0,0,0,0c0,0,0,0-0.1,0
		c0,0,0,0-0.1,0c0,0,0,0-0.1,0c0,0,0,0-0.1,0c0,0,0,0-0.1,0c0,0,0,0-0.1,0c0,0,0,0,0,0c0,0,0,0-0.1,0c0,0,0,0-0.1,0c0,0,0,0,0,0
		c0,0,0,0-0.1,0c0,0,0,0,0,0c0,0,0,0-0.1,0c0,0,0,0,0,0c0,0,0,0-0.1,0c0,0,0,0-0.1,0c0,0,0,0,0,0c0,0,0,0-0.1,0c0,0,0,0-0.1,0
		c0,0,0,0-0.1,0c0,0,0,0-0.1,0c0,0,0,0,0,0c0,0,0,0-0.1,0c0,0,0,0,0,0c0,0,0,0-0.1,0c0,0,0,0,0,0c0,0,0,0-0.1,0c0,0,0,0-0.1,0
		c0,0,0,0,0,0c0,0,0,0-0.1,0c0,0,0,0-0.1,0c0,0,0,0-0.1,0c0,0,0,0,0,0c0,0,0,0-0.1,0c0,0,0,0-0.1,0c0,0,0,0-0.1,0c0,0,0,0,0,0
		c0,0,0,0-0.1,0c0,0,0,0-0.1,0c0,0,0,0-0.1,0c0,0,0,0-0.1,0c0,0,0,0,0,0c0,0,0,0-0.1,0c0,0,0,0-0.1,0s0,0,0,0c0,0,0,0-0.1,0
		c0,0,0,0-0.1,0c0,0,0,0,0,0c0,0,0,0,0,0c0,0,0,0-0.1,0c0,0,0,0-0.1,0c0,0,0,0,0,0c0,0,0,0-0.1,0c0,0,0,0,0,0c0,0,0,0-0.1,0
		c0,0,0,0-0.1,0c0,0,0,0,0,0c0,0,0,0-0.1,0c0,0,0,0-0.1,0c0,0,0,0-0.1,0c0,0,0,0,0,0c0,0,0,0-0.1,0c0,0,0,0,0,0c0,0,0,0-0.1,0
		c0,0,0,0-0.1,0c0,0,0,0-0.1,0c0,0,0,0-0.1,0c0,0,0,0-0.1,0c0,0,0,0-0.1,0c0,0,0,0,0,0c0,0,0,0-0.1,0c0,0,0,0-0.1,0c0,0,0,0-0.1,0
		c0,0,0,0,0,0c0,0,0,0-0.1,0c0,0,0,0-0.1,0c0,0,0,0-0.1,0c0,0,0,0-0.1,0c0,0,0,0-0.1,0c0,0,0,0-0.1,0c0,0,0,0,0,0c0,0,0,0,0,0
		c0,0,0,0-0.1,0c0,0,0,0-0.1,0c0,0,0,0-0.1,0c0,0,0,0-0.1,0c0,0,0,0-0.1,0c0,0,0,0-0.1,0c0,0,0,0-0.1,0c0,0,0,0-0.1,0c0,0,0,0-0.1,0
		c0,0,0,0-0.1,0c0,0,0,0,0,0c0,0,0,0-0.1,0c0,0,0,0-0.1,0c0,0,0,0,0,0c0,0,0,0-0.1,0c0,0,0,0,0,0c0,0,0,0-0.1,0c0,0,0,0-0.1,0
		c0,0,0,0-0.1,0c0,0,0,0-0.1,0c0,0,0,0-0.1,0c0,0,0,0-0.1,0c0,0,0,0-0.1,0c0,0,0,0-0.1,0c0,0,0,0-0.1,0c0,0,0,0-0.1,0c0,0,0,0,0,0
		c0,0,0,0-0.1,0c0,0,0,0,0,0c0,0,0,0-0.1,0c0,0,0,0,0,0c0,0,0,0-0.1,0c0,0,0,0-0.1,0c0,0,0,0-0.1,0c0,0,0,0-0.1,0c0,0,0,0-0.1,0
		c0,0,0,0-0.1,0c0,0,0,0-0.1,0c0,0,0,0,0,0c0,0,0,0-0.1,0c0,0,0,0-0.1,0c0,0,0,0-0.1,0c0,0,0,0,0,0c0,0,0,0-0.1,0c0,0,0,0-0.1,0
		c0,0,0,0-0.1,0c0,0,0,0-0.1,0c0,0,0,0,0,0c0,0,0,0-0.1,0c0,0,0,0,0,0c0,0,0,0-0.1,0c0,0,0,0-0.1,0c0,0,0,0-0.1,0c0,0,0,0-0.1,0
		c0,0,0,0,0,0c0,0,0,0-0.1,0c0,0,0,0,0,0c0,0,0,0-0.1,0c0,0,0,0,0,0c0,0,0,0-0.1,0c0,0,0,0,0,0c0,0,0,0-0.1,0c0,0,0,0-0.1,0
		c0,0,0,0-0.1,0c0,0,0,0,0,0c0,0,0,0-0.1,0c0,0,0,0-0.1,0c0,0,0,0-0.1,0c0,0,0,0-0.1,0c0,0,0,0-0.1,0c0,0,0,0-0.1,0c0,0,0,0-0.1,0
		c0,0,0,0-0.1,0c0,0,0,0-0.1,0c0,0,0,0,0,0c-5.7-3.3-13.6-2.8-22.2,2.2c-17.4,10-31.4,34.4-31.4,54.4c0,10,3.5,17.1,9.2,20.4
		c0,0,0,0,0.1,0c0,0,0,0,0,0c0,0,0,0,0.1,0c0,0,0,0,0.1,0c0,0,0,0,0.1,0c0,0,0,0,0.1,0c0,0,0,0,0,0c0,0,0,0,0.1,0s0,0,0.1,0
		c0,0,0,0,0.1,0c0,0,0,0,0.1,0c0,0,0,0,0.1,0c0,0,0,0,0.1,0c0,0,0,0,0.1,0c0,0,0,0,0,0c0,0,0,0,0.1,0c0,0,0,0,0,0c0,0,0,0,0.1,0
		c0,0,0,0,0.1,0c0,0,0,0,0.1,0c0,0,0,0,0.1,0c0,0,0,0,0.1,0c0,0,0,0,0,0c0,0,0,0,0.1,0c0,0,0,0,0.1,0c0,0,0,0,0.1,0s0,0,0.1,0
		c0,0,0,0,0.1,0c0,0,0,0,0.1,0c0,0,0,0,0.1,0c0,0,0,0,0,0c0,0,0,0,0.1,0c0,0,0,0,0.1,0c0,0,0,0,0.1,0c0,0,0,0,0.1,0c0,0,0,0,0,0
		c0,0,0,0,0.1,0c0,0,0,0,0.1,0c0,0,0,0,0,0c0,0,0,0,0.1,0c0,0,0,0,0.1,0c0,0,0,0,0.1,0c0,0,0,0,0,0c0,0,0,0,0.1,0c0,0,0,0,0,0
		c0,0,0,0,0.1,0c0,0,0,0,0.1,0c0,0,0,0,0.1,0c0,0,0,0,0.1,0c0,0,0,0,0.1,0c0,0,0,0,0,0c0,0,0,0,0.1,0c0,0,0,0,0,0c0,0,0,0,0.1,0
		c0,0,0,0,0.1,0c0,0,0,0,0.1,0c0,0,0,0,0.1,0c0,0,0,0,0.1,0c0,0,0,0,0,0c0,0,0,0,0.1,0c0,0,0,0,0.1,0c0,0,0,0,0,0c0,0,0,0,0.1,0
		c0,0,0,0,0,0c0,0,0,0,0.1,0c0,0,0,0,0.1,0c0,0,0,0,0.1,0c0,0,0,0,0,0c0,0,0,0,0.1,0c0,0,0,0,0.1,0c0,0,0,0,0.1,0c0,0,0,0,0.1,0
		c0,0,0,0,0.1,0c0,0,0,0,0.1,0c0,0,0,0,0,0c0,0,0,0,0.1,0c0,0,0,0,0.1,0c0,0,0,0,0.1,0c0,0,0,0,0.1,0c0,0,0,0,0,0c0,0,0,0,0.1,0
		c0,0,0,0,0.1,0c0,0,0,0,0.1,0c0,0,0,0,0.1,0c0,0,0,0,0.1,0c0,0,0,0,0.1,0c0,0,0,0,0,0c0,0,0,0,0.1,0c0,0,0,0,0.1,0c0,0,0,0,0.1,0
		c0,0,0,0,0.1,0c0,0,0,0,0.1,0c0,0,0,0,0.1,0c0,0,0,0,0.1,0c0,0,0,0,0,0c0,0,0,0,0.1,0c0,0,0,0,0.1,0c0,0,0,0,0.1,0c0,0,0,0,0.1,0
		c0,0,0,0,0.1,0c0,0,0,0,0.1,0c0,0,0,0,0.1,0c0,0,0,0,0,0c0,0,0,0,0.1,0c0,0,0,0,0,0c0,0,0,0,0.1,0c0,0,0,0,0,0c0,0,0,0,0.1,0
		c0,0,0,0,0.1,0c0,0,0,0,0.1,0c0,0,0,0,0.1,0c0,0,0,0,0,0c0,0,0,0,0.1,0c0,0,0,0,0.1,0c0,0,0,0,0,0c0,0,0,0,0.1,0c0,0,0,0,0.1,0
		c0,0,0,0,0,0c0,0,0,0,0.1,0c0,0,0,0,0,0c0,0,0,0,0.1,0c0,0,0,0,0.1,0c0,0,0,0,0,0c0,0,0,0,0.1,0c0,0,0,0,0,0c0,0,0,0,0.1,0
		c0,0,0,0,0.1,0c0,0,0,0,0.1,0c0,0,0,0,0.1,0c0,0,0,0,0.1,0c0,0,0,0,0.1,0c0,0,0,0,0,0c0,0,0,0,0.1,0c0,0,0,0,0.1,0c0,0,0,0,0.1,0
		c0,0,0,0,0.1,0c0,0,0,0,0.1,0c0,0,0,0,0,0c0,0,0,0,0.1,0c0,0,0,0,0,0c0,0,0,0,0.1,0c0,0,0,0,0.1,0s0,0,0.1,0c0,0,0,0,0,0
		c0,0,0,0,0.1,0c0,0,0,0,0.1,0c0,0,0,0,0.1,0c0,0,0,0,0.1,0c0,0,0,0,0.1,0c0,0,0,0,0,0c0,0,0,0,0.1,0c0,0,0,0,0.1,0c0,0,0,0,0.1,0
		c0,0,0,0,0.1,0c0,0,0,0,0.1,0c0,0,0,0,0.1,0c0,0,0,0,0,0c0,0,0,0,0.1,0c0,0,0,0,0.1,0c0,0,0,0,0.1,0c0,0,0,0,0.1,0c0,0,0,0,0.1,0
		c0,0,0,0,0.1,0c0,0,0,0,0,0c0,0,0,0,0.1,0c0,0,0,0,0.1,0c0,0,0,0,0.1,0c0,0,0,0,0.1,0c0,0,0,0,0,0c0,0,0,0,0,0c0,0,0,0,0.1,0
		c0,0,0,0,0,0c0,0,0,0,0.1,0c0,0,0,0,0.1,0c0,0,0,0,0.1,0c0,0,0,0,0,0c0,0,0,0,0.1,0c0,0,0,0,0,0c0,0,0,0,0.1,0c0,0,0,0,0.1,0
		c0,0,0,0,0.1,0c0,0,0,0,0,0c0,0,0,0,0.1,0c0,0,0,0,0.1,0c0,0,0,0,0.1,0c0,0,0,0,0.1,0c0,0,0,0,0.1,0c0,0,0,0,0.1,0c0,0,0,0,0,0
		c0,0,0,0,0.1,0c0,0,0,0,0.1,0c0,0,0,0,0.1,0c0,0,0,0,0.1,0c0,0,0,0,0.1,0c0,0,0,0,0,0c0,0,0,0,0.1,0c0,0,0,0,0.1,0c0,0,0,0,0,0
		c0,0,0,0,0.1,0c0,0,0,0,0.1,0c0,0,0,0,0,0c0,0,0,0,0.1,0c0,0,0,0,0.1,0c0,0,0,0,0,0c0,0,0,0,0.1,0c0,0,0,0,0.1,0c0,0,0,0,0,0
		c0,0,0,0,0.1,0c0,0,0,0,0.1,0c0,0,0,0,0,0c0,0,0,0,0.1,0c0,0,0,0,0.1,0c0,0,0,0,0.1,0c0,0,0,0,0,0c0,0,0,0,0.1,0c0,0,0,0,0.1,0
		c0,0,0,0,0.1,0c0,0,0,0,0.1,0c0,0,0,0,0.1,0c0,0,0,0,0,0c0,0,0,0,0.1,0c0,0,0,0,0.1,0c0,0,0,0,0,0c0,0,0,0,0.1,0c0,0,0,0,0.1,0
		c0,0,0,0,0.1,0c0,0,0,0,0,0c0,0,0,0,0.1,0c0,0,0,0,0.1,0c0,0,0,0,0,0c0,0,0,0,0.1,0c0,0,0,0,0,0c0,0,0,0,0.1,0c0,0,0,0,0.1,0
		c0,0,0,0,0,0c0,0,0,0,0.1,0c0,0,0,0,0.1,0c0,0,0,0,0.1,0c0,0,0,0,0,0c0,0,0,0,0.1,0c0,0,0,0,0.1,0c0,0,0,0,0.1,0c0,0,0,0,0.1,0
		c0,0,0,0,0.1,0c0,0,0,0,0.1,0c0,0,0,0,0.1,0c0,0,0,0,0,0c0,0,0,0,0.1,0c0,0,0,0,0.1,0c0,0,0,0,0,0c5.7,3.3,13.6,2.8,22.2-2.2
		c6.9-4,13.2-10.2,18.4-17.5l13-0.7l-6.9-9.6C274.6,163.4,277.2,154,277.2,145.4z"/>
	<path fill="#C2CCD3" d="M270.2,172.1c4.3-8.7,6.9-18.1,6.9-26.7c0-20-14.1-28.2-31.4-18.1c-17.4,10-31.4,34.4-31.4,54.4
		c0,20,14.1,28.2,31.4,18.1c6.9-4,13.2-10.2,18.4-17.5l13-0.7L270.2,172.1z"/>
</g>
</svg>
