<?xml version="1.0" encoding="utf-8"?>
<!-- Generator: Adobe Illustrator 22.0.1, SVG Export Plug-In . SVG Version: 6.00 Build 0)  -->
<svg version="1.1" id="Layer_1" xmlns="http://www.w3.org/2000/svg" xmlns:xlink="http://www.w3.org/1999/xlink" x="0px" y="0px"
	 viewBox="0 0 80 80" enable-background="new 0 0 80 80" xml:space="preserve">
<g>
	<path fill="#DCE1E5" d="M68.1,62.7c-0.2,0-0.4,0-0.5-0.1c-0.5-0.3-0.6-0.9-0.3-1.4c3-4.8,4.5-10.4,4.5-16c0-0.6,0.4-1,1-1
		s1,0.4,1,1c0,6.1-1.7,12-4.8,17.1C68.7,62.6,68.4,62.7,68.1,62.7z"/>
	<path fill="#DCE1E5" d="M53.2,75.4c-0.4,0-0.8-0.2-0.9-0.6c-0.2-0.5,0-1.1,0.5-1.3c3.8-1.6,7.2-3.9,10.1-6.8c0.4-0.4,1-0.4,1.4,0
		s0.4,1,0,1.4c-3.1,3.1-6.7,5.6-10.7,7.2C53.5,75.4,53.4,75.4,53.2,75.4z"/>
	<path fill="#DCE1E5" d="M66.4,65.2c-0.2,0-0.4-0.1-0.6-0.2c-0.4-0.3-0.5-1-0.2-1.4c0.4-0.5,0.8-1,1.1-1.6c0.3-0.5,0.9-0.6,1.4-0.3
		s0.6,0.9,0.3,1.4c-0.4,0.6-0.8,1.1-1.2,1.7C67,65.1,66.7,65.2,66.4,65.2z"/>
	<path fill="#DCE1E5" d="M72.7,45.1c-0.5,0-1-0.4-1-1c0-0.8-0.1-1.6-0.2-2.4c-0.1-0.5,0.3-1,0.9-1.1s1,0.3,1.1,0.9
		c0.1,0.8,0.1,1.7,0.2,2.5C73.7,44.7,73.3,45.1,72.7,45.1L72.7,45.1z"/>
	<path fill="#DCE1E5" d="M72.4,41.3c-0.5,0-0.9-0.4-1-0.8c-1.7-11-9.2-20.2-19.6-24c-0.5-0.2-0.8-0.8-0.6-1.3s0.8-0.8,1.3-0.6
		c11.1,4.1,19.1,13.9,20.9,25.6c0.1,0.5-0.3,1.1-0.8,1.1H72.4z"/>
	<path fill="#DCE1E5" d="M30.1,75.8c-0.1,0-0.2,0-0.3-0.1C17,71,8.5,58.7,8.5,45.2c0-13.6,8.5-25.8,21.2-30.6
		c0.5-0.2,1.1,0.1,1.3,0.6s-0.1,1.1-0.6,1.3c-11.9,4.4-19.9,15.9-19.9,28.7c0,12.7,8,24.2,19.9,28.7c0.5,0.2,0.8,0.8,0.6,1.3
		C30.9,75.6,30.5,75.8,30.1,75.8z"/>
	<path fill="#DCE1E5" d="M51.7,68.7c0,6-4.8,10.8-10.8,10.8s-10.8-4.8-10.8-10.8s4.8-10.8,10.8-10.8S51.7,62.8,51.7,68.7z"/>
	<path fill="#DCE1E5" d="M41.7,31.8c0,1-0.8,1.8-1.8,1.8s-1.8-0.8-1.8-1.8s0.8-1.8,1.8-1.8S41.7,30.8,41.7,31.8z"/>
	<path fill="#DCE1E5" d="M54.2,41.5l-3.5-6.1c-0.5-0.9-0.8-1.9-0.8-2.9V14c0-0.5-0.2-1.1-0.5-1.5L41.5,2V1.7l-0.1,0.2l-0.1-0.1v0.3
		l-8,10.5c-0.3,0.4-0.5,0.9-0.5,1.5v18.4c0,1-0.3,2.1-0.8,2.9l-3.5,6.1c-0.5,0.9-0.8,1.9-0.8,2.9v3.9h13H42h13v-3.9
		C55,43.4,54.8,42.4,54.2,41.5z"/>
	<line fill="none" x1="32.7" y1="57.3" x2="32.7" y2="47.3"/>
	<line fill="none" x1="48.2" y1="57.3" x2="48.2" y2="47.3"/>
	<path fill="#68717D" d="M38.2,0.6L30,11.2c-0.4,0.5-0.5,1-0.5,1.6v18c0,1-0.3,1.9-0.8,2.8l-3.5,6c-0.5,0.9-0.8,2-0.8,3v4.1H33
		c0.1,0,0.2-0.1,0.2-0.2c0-0.1-0.1-0.2-0.2-0.2h-8v-3.6c0-1,0.3-1.9,0.8-2.8l3.5-6c0.5-0.9,0.8-2,0.8-3v-18c0-0.5,0.2-0.9,0.4-1.3
		l8.2-10.7c0.1-0.1,0.1-0.3,0-0.4C38.5,0.5,38.4,0.5,38.2,0.6L38.2,0.6z"/>
	<path fill="#68717D" d="M31,56.3v-9.8c0-0.1-0.1-0.2-0.2-0.2s-0.2,0.1-0.2,0.2v9.8c0,0.1,0.1,0.2,0.2,0.2S31,56.4,31,56.3"/>
	<path fill="#68717D" d="M46.9,24.7v6.2c0,1.1,0.3,2.1,0.8,3l3.5,6c0.5,0.8,0.8,1.8,0.8,2.8v3.6h-8.1c-0.1,0-0.2,0.1-0.2,0.2
		c0,0.1,0.1,0.2,0.2,0.2h8.6v-4.1c0-1.1-0.3-2.1-0.8-3l-3.5-6c-0.5-0.8-0.8-1.8-0.8-2.8v-6.1c0-0.1-0.1-0.2-0.2-0.2
		C47,24.5,46.9,24.6,46.9,24.7L46.9,24.7z"/>
	<path fill="#68717D" d="M46.9,22.3v1.3c0,0.1,0.1,0.2,0.2,0.2c0.1,0,0.2-0.1,0.2-0.2v-1.3c0-0.1-0.1-0.2-0.2-0.2
		C47,22.1,46.9,22.2,46.9,22.3"/>
	<path fill="#68717D" d="M46.9,18.7v2.4c0,0.1,0.1,0.2,0.2,0.2c0.1,0,0.2-0.1,0.2-0.2v-2.4c0-0.1-0.1-0.2-0.2-0.2
		S46.9,18.6,46.9,18.7"/>
	<path fill="#68717D" d="M38.2,0.9l8.2,10.6c0.3,0.4,0.4,0.8,0.4,1.3V18c0,0.1,0.1,0.2,0.2,0.2c0.1,0,0.2-0.1,0.2-0.2v-5.2
		c0-0.6-0.2-1.1-0.5-1.6l-8-10.6c-0.1-0.1-0.2-0.1-0.4,0C38.2,0.6,38.2,0.8,38.2,0.9L38.2,0.9z"/>
	<path fill="#68717D" d="M46.5,56.3v-9.8c0-0.1-0.1-0.2-0.2-0.2c-0.1,0-0.2,0.1-0.2,0.2v9.8c0,0.1,0.1,0.2,0.2,0.2
		S46.5,56.4,46.5,56.3"/>
	<path fill="#68717D" d="M19.5,66.6c1.2-4.1,4.9-7,9.4-7c0.6,0,1.1,0,1.6,0.1c0.1,0,0.3-0.1,0.3-0.2c0-0.1-0.1-0.3-0.2-0.3
		c-0.6-0.1-1.1-0.1-1.7-0.1c-4.7,0-8.6,3.1-9.8,7.4c0,0.1,0,0.3,0.2,0.3C19.3,66.8,19.5,66.7,19.5,66.6L19.5,66.6z"/>
	<path fill="#68717D" d="M58.8,66.4C57.5,62.1,53.5,59,49,59c-0.6,0-1.2,0-1.7,0.1c-0.1,0-0.2,0.2-0.2,0.3s0.2,0.2,0.3,0.2
		c0.5-0.1,1.1-0.1,1.6-0.1c4.4,0,8.2,3,9.4,7c0,0.1,0.2,0.2,0.3,0.2C58.7,66.7,58.8,66.5,58.8,66.4L58.8,66.4z"/>
	<path fill="#68717D" d="M39,56.3V39c0-0.1-0.1-0.2-0.2-0.2c-0.1,0-0.2,0.1-0.2,0.2v17.2c0,0.1,0.1,0.2,0.2,0.2
		C39,56.5,39,56.4,39,56.3"/>
	<path fill="#68717D" d="M42,20.8c0,1.8-1.5,3.2-3.2,3.2c-1.8,0-3.2-1.5-3.3-3.2c0-1.8,1.5-3.2,3.3-3.3c0.4,0,0.9,0.1,1.3,0.3
		c0.1,0.1,0.3,0,0.3-0.1c0.1-0.1,0-0.3-0.1-0.3c-0.4-0.2-0.9-0.3-1.5-0.3c-2.1,0-3.7,1.7-3.8,3.8c0,2.1,1.7,3.7,3.8,3.7
		s3.7-1.7,3.7-3.7c0-0.1-0.1-0.2-0.2-0.2C42.2,20.6,42,20.7,42,20.8L42,20.8z"/>
	<path fill="#68717D" d="M41.2,18.7c0.2,0.2,0.4,0.5,0.5,0.8c0.1,0.1,0.2,0.2,0.3,0.1s0.2-0.2,0.1-0.3c-0.2-0.3-0.4-0.7-0.6-0.9
		c-0.1-0.1-0.2-0.1-0.4,0C41.2,18.4,41.2,18.6,41.2,18.7L41.2,18.7z"/>
	<path fill="#68717D" d="M40,30.8c0,0.7-0.6,1.2-1.2,1.2c-0.7,0-1.2-0.6-1.3-1.2c0-0.7,0.6-1.2,1.3-1.3c0.3,0,0.5,0.1,0.8,0.3
		c0.1,0.1,0.3,0.1,0.4,0c0.1-0.1,0.1-0.3,0-0.4c-0.2-0.2-0.7-0.4-1-0.4c-1,0-1.7,0.8-1.8,1.8c0,1,0.8,1.7,1.8,1.7s1.7-0.8,1.7-1.7
		c0-0.1-0.1-0.2-0.2-0.2C40.2,30.6,40,30.7,40,30.8L40,30.8z"/>
	<path fill="#68717D" d="M39.5,29.8c0.2,0.1,0.3,0.3,0.4,0.5c0.1,0.1,0.2,0.2,0.3,0.1s0.2-0.2,0.1-0.3c-0.1-0.3-0.3-0.5-0.5-0.7
		c-0.1-0.1-0.3-0.1-0.4,0C39.5,29.6,39.5,29.7,39.5,29.8L39.5,29.8z"/>
	<path fill="#E84B55" d="M41.5,20.8c0,1.5-1.2,2.6-2.6,2.6c-1.4,0-2.6-1.2-2.6-2.6s1.2-2.6,2.6-2.6S41.5,19.4,41.5,20.8z"/>
	<path fill="#E84B55" d="M70.5,43.2c0,6-1.7,11.7-4.6,16.4c-0.1,0.1,0,0.3,0.1,0.3c0.1,0.1,0.3,0,0.3-0.1c3-4.9,4.7-10.6,4.7-16.7
		c0-0.1-0.1-0.2-0.2-0.2C70.6,42.9,70.5,43,70.5,43.2L70.5,43.2z"/>
	<path fill="#E84B55" d="M61.5,65.2c-2.9,3-6.4,5.3-10.3,6.9c-0.1,0.1-0.2,0.2-0.1,0.3c0.1,0.1,0.2,0.2,0.3,0.1
		c4-1.6,7.5-4.1,10.5-7.1c0.1-0.1,0.1-0.3,0-0.4C61.7,65.1,61.5,65.1,61.5,65.2L61.5,65.2z"/>
	<path fill="#E84B55" d="M65.3,60.4c-0.4,0.5-0.7,1.1-1.1,1.6c-0.1,0.1-0.1,0.3,0,0.4c0.1,0.1,0.3,0.1,0.4,0
		c0.4-0.5,0.8-1.1,1.2-1.6c0.1-0.1,0-0.3-0.1-0.3C65.5,60.3,65.4,60.3,65.3,60.4L65.3,60.4z"/>
	<path fill="#E84B55" d="M70.3,39.7c0.1,0.8,0.1,1.6,0.2,2.4c0,0.1,0.1,0.2,0.3,0.2c0.1,0,0.2-0.1,0.2-0.3c0-0.8-0.1-1.6-0.2-2.5
		c0-0.1-0.1-0.2-0.3-0.2C70.4,39.5,70.3,39.6,70.3,39.7L70.3,39.7z"/>
	<path fill="#E84B55" d="M50,13.8c10.5,3.9,18.3,13.3,20.1,24.6c0,0.1,0.1,0.2,0.3,0.2c0.1,0,0.2-0.1,0.2-0.3
		c-1.8-11.5-9.7-21-20.4-25c-0.1,0-0.3,0-0.3,0.1C49.9,13.6,49.9,13.7,50,13.8L50,13.8z"/>
	<path fill="#E84B55" d="M28.2,72.6c-12-4.5-20.5-16-20.5-29.4c0-13.5,8.5-25,20.4-29.4c0.1,0,0.2-0.2,0.1-0.3
		c0-0.1-0.2-0.2-0.3-0.1c-12,4.4-20.6,16.1-20.6,29.8S15.9,68.6,28,73.1c0.1,0,0.3,0,0.3-0.1C28.4,72.8,28.3,72.6,28.2,72.6
		L28.2,72.6z"/>
	<path fill="#68717D" d="M49.7,67.7h-0.2c0,2.9-1.2,5.6-3.1,7.5c-1.9,1.9-4.5,3.1-7.5,3.1c-2.9,0-5.6-1.2-7.5-3.1s-3.1-4.5-3.1-7.5
		c0-2.9,1.2-5.6,3.1-7.5c1.9-1.9,4.5-3.1,7.5-3.1c2.9,0,5.6,1.2,7.5,3.1c1.9,1.9,3.1,4.5,3.1,7.5H49.7h0.2c0-6.1-4.9-11.1-11.1-11.1
		c-6.1,0-11.1,4.9-11.1,11.1c0,6.1,4.9,11.1,11.1,11.1c6.1,0,11.1-4.9,11.1-11.1H49.7z"/>
</g>
</svg>
