<?xml version="1.0" encoding="utf-8"?>
<!-- Generator: Adobe Illustrator 22.0.1, SVG Export Plug-In . SVG Version: 6.00 Build 0)  -->
<svg version="1.1" xmlns="http://www.w3.org/2000/svg" xmlns:xlink="http://www.w3.org/1999/xlink" x="0px" y="0px"
	 viewBox="0 0 260 260" style="enable-background:new 0 0 260 260;" xml:space="preserve">
<style type="text/css">
	.st0{fill:#DCE1E5;}
	.st1{fill:#67717C;}
	.st2{fill:#FFFFFF;}
	.st3{fill:#E84B54;}
	.st4{fill:#FDEDEE;}
</style>
<g id="Layer_1">
	<circle class="st0" cx="138.2" cy="111.3" r="37.8"/>
	<path class="st1" d="M126.9,70.9c2.7-0.6,5.7-1,8.6-1c10.3,0,19.7,4.2,26.4,10.9c6.7,6.8,10.9,16.1,10.9,26.3
		c0,10.3-4.2,19.7-10.9,26.4c-6.8,6.7-16.1,10.9-26.3,10.9c-10.3,0-19.7-4.2-26.4-10.9c-6.7-6.8-10.9-16.1-10.9-26.3
		c0-8.6,3-16.6,7.9-22.9l0,0l0,0c1.6-2.1,3.4-3.9,5.4-5.7c0.1-0.1,0.1-0.2,0-0.4c-0.1-0.1-0.2-0.1-0.4,0c-2,1.7-3.9,3.6-5.5,5.7
		l0.2,0.2l-0.2-0.2c-5,6.4-8,14.5-8,23.2c0,10.4,4.2,19.9,11,26.7c6.8,6.8,16.3,11.1,26.7,11.1c10.4,0,19.9-4.2,26.7-11
		c6.8-6.8,11.1-16.3,11.1-26.7c0-10.4-4.2-19.9-11-26.7c-6.8-6.8-16.3-11.1-26.7-11.1c-3,0-6,0.4-8.7,1c-0.1,0-0.2,0.2-0.2,0.3
		C126.6,70.9,126.8,70.9,126.9,70.9L126.9,70.9z"/>
	<path class="st1" d="M123.4,71.9c0.1,0,0.2-0.1,0.3-0.1l0.1,0l0,0l0,0l0,0l0,0l0,0l0,0c0.1,0,0.2-0.1,0.2-0.2
		c0-0.1-0.1-0.2-0.2-0.2c-0.1,0-0.2,0.1-0.3,0.1l-0.1,0l0,0l0,0v0l0,0l0,0v0c-0.1,0-0.2,0.1-0.2,0.2
		C123.1,71.8,123.2,71.9,123.4,71.9L123.4,71.9z"/>
	<path class="st1" d="M118.1,74.2c1.1-0.6,2.2-1.1,3.4-1.6c0.1-0.1,0.2-0.2,0.1-0.3c-0.1-0.1-0.2-0.2-0.3-0.1
		c-1.2,0.5-2.4,1-3.5,1.6c-0.1,0.1-0.2,0.2-0.1,0.3C117.8,74.3,117.9,74.3,118.1,74.2L118.1,74.2z"/>
	<path class="st1" d="M115.3,75.7c0.4-0.2,0.7-0.5,1.1-0.6c0.1,0,0.2-0.2,0.2-0.3c0-0.1-0.2-0.2-0.3-0.2c-0.4,0.1-0.8,0.4-1.2,0.6
		c-0.1,0.1-0.1,0.2-0.1,0.3C115.1,75.8,115.2,75.8,115.3,75.7L115.3,75.7z"/>
	<path class="st2" d="M160,130.5c0,1.5-1.2,2.7-2.7,2.7s-2.7-1.2-2.7-2.7v-6.3c0-1.5,1.2-2.7,2.7-2.7s2.7,1.2,2.7,2.7V130.5z"/>
	<path class="st1" d="M160,130.5h-0.2c0,0.7-0.3,1.3-0.7,1.7c-0.5,0.5-1.1,0.7-1.7,0.7c-0.7,0-1.3-0.3-1.7-0.7
		c-0.5-0.5-0.7-1.1-0.7-1.7v-6.3c0-0.7,0.3-1.3,0.7-1.7c0.5-0.5,1.1-0.7,1.7-0.7c0.7,0,1.3,0.3,1.7,0.7c0.5,0.5,0.7,1.1,0.7,1.7v6.3
		H160h0.2v-6.3c0-1.6-1.3-3-3-3c-1.6,0-3,1.3-3,3v6.3c0,1.6,1.3,3,3,3c1.6,0,3-1.3,3-3H160z"/>
	<path class="st2" d="M161,130.5c2.2,0,4,1.8,4,4c0,2.2-1.8,4-4,4c-2.2,0-4-1.8-4-4C157.1,132.3,158.8,130.5,161,130.5z"/>
	<path class="st1" d="M161,138.2c-1,0-2-0.4-2.6-1.1c-0.7-0.7-1.1-1.6-1.1-2.6c0-1,0.4-2,1.1-2.6c0.7-0.7,1.6-1.1,2.6-1.1
		c1,0,2,0.4,2.6,1.1c0.7,0.7,1.1,1.6,1.1,2.6c0,0.8-0.2,1.5-0.7,2.1c-0.1,0.1-0.1,0.3,0,0.4c0.1,0.1,0.3,0.1,0.4,0
		c0.5-0.7,0.8-1.5,0.8-2.4c0-2.2-1.8-4.2-4.2-4.2c-2.2,0-4.2,1.8-4.2,4.2c0,2.2,1.8,4.2,4.2,4.2c0.1,0,0.2-0.1,0.2-0.2
		S161.2,138.2,161,138.2L161,138.2z"/>
	<path class="st2" d="M115.7,157.2h10.7c0.7,0,1.2-0.5,1.2-1.2v-16.3h14.6V156c0,0.7,0.5,1.2,1.2,1.2h10.7c4.7,0,8.7,3.8,8.7,8.7"/>
	<path class="st1" d="M115.7,157.5h10.7c0.4,0,0.8-0.1,1.1-0.4c0.3-0.3,0.4-0.6,0.4-1.1v-16.1H142l0,16.1c0,0.4,0.1,0.8,0.4,1.1
		c0.3,0.3,0.6,0.4,1.1,0.4h10.7c2.3,0,4.4,0.9,5.9,2.5c1.5,1.5,2.5,3.6,2.5,6c0,0.1,0.1,0.2,0.2,0.2c0.1,0,0.2-0.1,0.2-0.2
		c0-5-4.1-8.9-8.9-8.9h-10.7c-0.3,0-0.6-0.1-0.7-0.3c-0.2-0.2-0.3-0.4-0.3-0.7v-16.6h-15.1V156c0,0.3-0.1,0.6-0.3,0.7
		c-0.2,0.2-0.4,0.3-0.7,0.3h-10.7c-0.1,0-0.2,0.1-0.2,0.2C115.5,157.4,115.6,157.5,115.7,157.5L115.7,157.5z"/>
	<path class="st1" d="M134.2,168.1v2.5c0,0.1,0.1,0.2,0.2,0.2c0.1,0,0.2-0.1,0.2-0.2v-2.5c0-0.1-0.1-0.2-0.2-0.2
		C134.3,167.9,134.2,168,134.2,168.1"/>
	<path class="st3" d="M163.3,167.2v6.6c0,0.1-0.1,0.2-0.2,0.2h-41.6c-0.4,0-0.4-0.5,0-0.6l39-8.8
		C161.8,164.4,163.3,165.5,163.3,167.2z"/>
	<path class="st2" d="M110.7,130.5c0,1.5,1.2,2.7,2.7,2.7c1.5,0,2.7-1.2,2.7-2.7v-6.3c0-1.5-1.2-2.7-2.7-2.7c-1.5,0-2.7,1.2-2.7,2.7
		V130.5z"/>
	<path class="st1" d="M110.7,130.5h-0.2c0,1.6,1.3,3,3,3c1.6,0,3-1.3,3-3v-6.3c0-1.6-1.3-3-3-3c-1.6,0-3,1.3-3,3v6.3H110.7h0.2v-6.3
		c0-0.7,0.3-1.3,0.7-1.7c0.5-0.5,1.1-0.7,1.7-0.7c0.7,0,1.3,0.3,1.7,0.7c0.5,0.5,0.7,1.1,0.7,1.7v6.3c0,0.7-0.3,1.3-0.7,1.7
		c-0.5,0.5-1.1,0.7-1.7,0.7c-0.7,0-1.3-0.3-1.7-0.7c-0.5-0.5-0.7-1.1-0.7-1.7H110.7z"/>
	<path class="st2" d="M109.8,130.5c2.2,0,4,1.8,4,4c0,2.2-1.8,4-4,4s-4-1.8-4-4C105.8,132.3,107.6,130.5,109.8,130.5z"/>
	<path class="st1" d="M106.7,131.4c-0.7,0.7-1.1,1.5-1.2,2.4l0.2,0l-0.2,0c0,0.2-0.1,0.5-0.1,0.7c0,2.1,1.5,3.8,3.6,4.1
		c0.2,0,0.5,0.1,0.7,0.1c2.1,0,3.8-1.5,4.1-3.6c0-0.2,0.1-0.5,0.1-0.7c0-2.1-1.5-3.8-3.6-4.1c-0.1,0-0.3,0.1-0.3,0.2
		c0,0.1,0.1,0.3,0.2,0.3c1.9,0.3,3.2,1.8,3.2,3.7c0,0.2,0,0.4-0.1,0.6c-0.3,1.9-1.8,3.2-3.7,3.2c-0.2,0-0.4,0-0.6-0.1
		c-1.9-0.3-3.2-1.8-3.2-3.7c0-0.2,0-0.4,0.1-0.6l0,0l0,0c0.1-0.8,0.5-1.5,1-2.1c0.1-0.1,0.1-0.3,0-0.4
		C107,131.3,106.8,131.3,106.7,131.4L106.7,131.4z"/>
	<path class="st2" d="M116.1,97.8c3.7,6.9,10.9,11.9,19.4,11.9c8.4,0,15.7-4.7,19.3-11.6c0,0,0.2-0.6,0.5-0.1c1.2,2.7,2,5.8,2,9
		v20.8c0,12-9.8,21.8-21.8,21.8c-12,0-21.8-9.8-21.8-21.8v-20.9c0-3.2,0.7-6.3,2-9.2C115.6,97.7,115.8,97.3,116.1,97.8z"/>
	<path class="st1" d="M116.1,97.8l-0.2,0.1c3.8,7,11,12,19.7,12c8.5,0,15.9-4.8,19.5-11.8l0,0l0,0l0,0l0.1-0.1l0,0l-0.1-0.1l0,0.1
		l0.1,0l-0.1-0.1l0,0.1v-0.1l-0.1,0.1l0.1,0v-0.1l-0.1,0.1l0,0.1l0.2-0.1l-0.2,0.1c1.2,2.7,2,5.8,2,8.9v20.8
		c0,5.9-2.4,11.3-6.3,15.2c-3.9,3.9-9.3,6.3-15.2,6.3c-5.9,0-11.3-2.4-15.2-6.3c-3.9-3.9-6.3-9.3-6.3-15.2v-20.9
		c0-3.2,0.7-6.2,2-9.1l0.2-0.3h-0.4v0.2l0.2-0.2l-0.2-0.1v0.2l0.2-0.2l-0.2,0.2l0.2,0l-0.1-0.2l-0.2,0.2l0.2,0h-0.2l0.1,0.1l0-0.1
		h-0.2l0.1,0.1l-0.1-0.1l0,0.1l0.1,0l-0.1-0.1l0,0.1v-0.1l0,0.1l0,0v-0.1l0,0.1l0,0l0,0l0,0l0,0l0,0l0.1,0.1l0,0l0,0L116.1,97.8
		l0.2-0.1c-0.1-0.1-0.1-0.2-0.2-0.3c-0.1-0.1-0.2-0.1-0.3-0.1c-0.1,0-0.2,0-0.3,0.1c-0.1,0.1-0.1,0.1-0.1,0.3l0.1,0.2l0.2,0.1v-0.2
		l-0.2-0.1c-1.3,2.9-2,6-2,9.3v20.9c0,12.2,9.9,22,22,22c12.2,0,22-9.9,22-22V107c0-3.3-0.8-6.4-2-9.1l0,0l0,0l-0.2-0.2
		c-0.1-0.1-0.2-0.1-0.3-0.1c-0.1,0-0.2,0.1-0.3,0.1c-0.2,0.2-0.2,0.3-0.2,0.4l0.2,0.1l-0.2-0.1c-3.5,6.9-10.8,11.5-19.1,11.5
		c-8.4,0-15.5-4.9-19.2-11.8L116.1,97.8l0.2-0.1L116.1,97.8z"/>
	<path class="st0" d="M128.6,123.3c0,1-0.9,1.9-1.9,1.9c-1,0-1.9-0.9-1.9-1.9s0.9-1.9,1.9-1.9C127.7,121.3,128.6,122.2,128.6,123.3z
		"/>
	<path class="st0" d="M146,123.3c0,1-0.9,1.9-1.9,1.9c-1,0-1.9-0.9-1.9-1.9s0.9-1.9,1.9-1.9C145.3,121.3,146,122.2,146,123.3z"/>
	<path class="st1" d="M139.5,136.8c-0.7,1.3-2.1,2.1-3.6,2.1c-1.5,0-2.9-0.8-3.6-2.1c-0.1-0.1-0.2-0.2-0.3-0.1
		c-0.1,0.1-0.2,0.2-0.1,0.3c0.8,1.4,2.4,2.4,4.1,2.4c1.7,0,3.3-0.9,4.1-2.4c0.1-0.1,0-0.3-0.1-0.3S139.6,136.7,139.5,136.8
		L139.5,136.8z"/>
	<path class="st1" d="M138,130.9c0,0.5-0.2,1.1-0.6,1.5c-0.4,0.4-0.9,0.6-1.5,0.6c-0.5,0-1.1-0.2-1.5-0.6c-0.4-0.4-0.6-0.9-0.6-1.5
		c0-0.1-0.1-0.2-0.2-0.2s-0.2,0.1-0.2,0.2c0,1.4,1.2,2.6,2.6,2.6c1.4,0,2.6-1.2,2.6-2.6c0-0.1-0.1-0.2-0.2-0.2S138,130.7,138,130.9
		L138,130.9z"/>
	<path class="st0" d="M116.7,185.2l-16.6,4.3c-1.4,0.4-2.7-0.5-3-1.7l-8.7-33.6c-0.4-1.4,0.5-2.7,1.7-3l16.6-4.3
		c1.4-0.4,2.7,0.5,3,1.7l8.7,33.6C118.8,183.5,117.9,184.9,116.7,185.2z"/>
	<path class="st1" d="M91.4,173.9L86,152.7l0,0c-0.1-0.2-0.1-0.4-0.1-0.6c0-1,0.7-1.9,1.6-2.1l0,0l16.6-4.3l0,0
		c0.2-0.1,0.4-0.1,0.6-0.1c1,0,1.9,0.7,2.1,1.6l0,0l8.7,33.6l0,0c0.1,0.2,0.1,0.4,0.1,0.6c0,1-0.7,1.9-1.6,2.1l0,0l-16.6,4.3l0,0
		c-0.2,0.1-0.4,0.1-0.6,0.1c-1,0-1.9-0.7-2.1-1.6l0,0l-0.4-1.6c0-0.1-0.2-0.2-0.3-0.2c-0.1,0-0.2,0.2-0.2,0.3l0.4,1.6l0.2-0.1
		l-0.2,0c0.2,1.2,1.3,2,2.6,2c0.2,0,0.5,0,0.7-0.1l-0.1-0.2l0.1,0.2L114,184l-0.1-0.2l0,0.2c1.2-0.2,2-1.3,2-2.6
		c0-0.2,0-0.5-0.1-0.7l-0.2,0.1l0.2-0.1l-8.7-33.6l-0.2,0.1l0.2,0c-0.2-1.2-1.3-2-2.6-2c-0.2,0-0.5,0-0.7,0.1l0.1,0.2l-0.1-0.2
		l-16.6,4.3l0.1,0.2l0-0.2c-1.2,0.2-2,1.3-2,2.6c0,0.2,0,0.5,0.1,0.7l0.2-0.1l-0.2,0.1l5.4,21.2c0,0.1,0.2,0.2,0.3,0.2
		C91.4,174.2,91.5,174,91.4,173.9L91.4,173.9z"/>
	<path class="st2" d="M97.9,170.1c4.8-1.2,9-1.2,9.3,0c0.3,1.3-3.3,3.3-8.2,4.5c-4.8,1.2-9,1.2-9.3,0
		C89.4,173.4,93.1,171.3,97.9,170.1z"/>
	<path class="st1" d="M97.9,170.1l0.1,0.2c2.4-0.6,4.6-0.9,6.3-0.9c0.8,0,1.5,0.1,2,0.2c0.2,0.1,0.4,0.2,0.5,0.3
		c0.1,0.1,0.2,0.2,0.2,0.3l0,0.1c0,0.2-0.2,0.5-0.5,0.9c-1.1,1.1-4,2.4-7.5,3.3c-2.4,0.6-4.6,0.9-6.3,0.9c-0.8,0-1.5-0.1-2-0.2
		c-0.2-0.1-0.4-0.2-0.5-0.3c-0.1-0.1-0.2-0.2-0.2-0.3l0-0.1c0-0.2,0.2-0.5,0.5-0.9c1.1-1.1,4-2.4,7.5-3.3L97.9,170.1l-0.1-0.2
		c-2.3,0.6-4.4,1.4-5.9,2.2c-0.7,0.4-1.3,0.8-1.8,1.2c-0.4,0.4-0.7,0.8-0.7,1.2l0,0.2c0.1,0.2,0.2,0.4,0.4,0.6
		c0.6,0.4,1.6,0.6,2.9,0.6c1.7,0,4-0.3,6.4-0.9c2.3-0.6,4.4-1.4,5.9-2.2c0.7-0.4,1.3-0.8,1.8-1.2c0.4-0.4,0.7-0.8,0.7-1.2l0-0.2
		c-0.1-0.2-0.2-0.4-0.4-0.6c-0.6-0.4-1.6-0.6-2.9-0.6c-1.7,0-4,0.3-6.4,0.9L97.9,170.1z"/>
	<path class="st2" d="M99.1,175.3c4.7-1.2,8.8-1.2,9.1,0.1c0.3,1.3-3.2,3.3-7.9,4.5c-4.7,1.2-8.8,1.2-9.1-0.1
		C90.9,178.5,94.4,176.5,99.1,175.3z"/>
	<path class="st1" d="M99.1,175.3l0.1,0.2c2.3-0.6,4.4-0.9,6-0.9c0.8,0,1.5,0.1,2,0.2c0.2,0.1,0.4,0.2,0.6,0.3
		c0.1,0.1,0.2,0.2,0.2,0.3l0,0.1c0,0.2-0.2,0.5-0.5,0.9c-1.1,1.1-3.9,2.3-7.2,3.2c-2.3,0.6-4.4,0.9-6,0.9c-0.8,0-1.5-0.1-2-0.2
		c-0.2-0.1-0.4-0.2-0.6-0.3c-0.1-0.1-0.2-0.2-0.2-0.3l0-0.1c0-0.2,0.2-0.5,0.5-0.9c1.1-1.1,3.9-2.3,7.2-3.2L99.1,175.3l-0.1-0.2
		c-2.3,0.6-4.3,1.4-5.7,2.1c-0.7,0.4-1.3,0.8-1.7,1.2c-0.4,0.4-0.7,0.8-0.7,1.2l0,0.2c0.1,0.2,0.2,0.4,0.4,0.6
		c0.6,0.4,1.6,0.6,2.9,0.6c1.7,0,3.8-0.3,6.1-0.9c2.3-0.6,4.3-1.4,5.7-2.1c0.7-0.4,1.3-0.8,1.7-1.2c0.4-0.4,0.7-0.8,0.7-1.2l0-0.2
		c-0.1-0.2-0.2-0.4-0.4-0.6c-0.6-0.4-1.6-0.6-2.9-0.6c-1.7,0-3.8,0.3-6.1,0.9L99.1,175.3z"/>
	<path class="st2" d="M99.5,180.3c3.7-1,6.9-0.9,7.2,0.1c0.3,1-2.5,2.6-6.3,3.5c-3.7,1-6.9,0.9-7.2-0.1
		C93,182.9,95.8,181.3,99.5,180.3z"/>
	<path class="st1" d="M99.5,180.3l0.1,0.2c1.8-0.5,3.5-0.7,4.7-0.7c0.7,0,1.2,0.1,1.6,0.2c0.2,0.1,0.3,0.1,0.4,0.2
		c0.1,0.1,0.1,0.1,0.1,0.2l0,0.1c0,0.1-0.1,0.4-0.4,0.6c-0.9,0.8-3,1.8-5.7,2.5c-1.8,0.5-3.5,0.7-4.7,0.7c-0.7,0-1.2-0.1-1.6-0.2
		c-0.2-0.1-0.3-0.1-0.4-0.2c-0.1-0.1-0.1-0.1-0.1-0.2l0-0.1c0-0.1,0.1-0.4,0.4-0.6c0.9-0.8,3-1.8,5.7-2.5L99.5,180.3l-0.1-0.2
		c-1.8,0.5-3.4,1.1-4.5,1.7c-0.6,0.3-1,0.6-1.4,0.9c-0.3,0.3-0.6,0.6-0.6,1l0,0.2c0,0.2,0.2,0.4,0.3,0.5c0.5,0.4,1.3,0.5,2.3,0.5
		c1.3,0,3-0.2,4.9-0.7c1.8-0.5,3.4-1.1,4.5-1.7c0.6-0.3,1-0.6,1.4-0.9c0.3-0.3,0.6-0.6,0.6-1l0-0.2c0-0.2-0.2-0.4-0.3-0.5
		c-0.5-0.4-1.3-0.5-2.3-0.5c-1.3,0-3,0.2-4.9,0.7L99.5,180.3z"/>
	<path class="st2" d="M89.3,164.4c1.4,0,2.5,2,2.6,4.6c0.1,2.6-1,4.7-2.3,4.8s-2.5-2-2.6-4.6C86.9,166.6,87.9,164.5,89.3,164.4z"/>
	<path class="st1" d="M89.3,164.4l0,0.2l0,0c0.5,0,1.1,0.4,1.5,1.2c0.4,0.8,0.7,1.9,0.8,3.2l0,0.3c0,1.2-0.2,2.3-0.6,3.1
		c-0.4,0.8-0.9,1.2-1.5,1.2l0,0c-0.5,0-1.1-0.4-1.5-1.2c-0.4-0.8-0.7-1.9-0.8-3.2l0-0.3c0-1.2,0.3-2.3,0.6-3.1
		c0.4-0.8,0.9-1.2,1.4-1.2L89.3,164.4l0-0.2c-0.8,0-1.4,0.6-1.9,1.5c-0.4,0.9-0.7,2-0.7,3.3c0,0.1,0,0.2,0,0.3
		c0,1.3,0.4,2.5,0.8,3.4c0.5,0.9,1.2,1.5,2,1.5l0,0c0.8,0,1.4-0.6,1.9-1.5c0.4-0.9,0.7-2,0.7-3.3c0-0.1,0-0.2,0-0.3
		c0-1.3-0.4-2.5-0.8-3.4c-0.5-0.9-1.2-1.5-2-1.5l0,0L89.3,164.4z"/>
	<path class="st1" d="M103.3,149.1c0.4,0,0.8,0.2,1.1,0.5c0.3,0.3,0.5,0.7,0.5,1.1c0,0.4-0.2,0.8-0.5,1.1c-0.3,0.3-0.7,0.5-1.1,0.5
		c-0.4,0-0.8-0.2-1.1-0.5c-0.3-0.3-0.5-0.7-0.5-1.1c0-0.3,0-0.4,0.1-0.6c0.1-0.1,0-0.3-0.1-0.3c-0.1-0.1-0.3,0-0.3,0.1
		c-0.2,0.3-0.1,0.6-0.2,0.9c0,1.1,1,2.1,2.1,2.1c1.1,0,2.1-1,2.1-2.1c0-1.1-1-2.1-2.1-2.1c-0.1,0-0.2,0.1-0.2,0.2
		C103.1,149,103.2,149.1,103.3,149.1L103.3,149.1z"/>
	<g>
		<g>
			<path class="st1" d="M208.9,58.5c-1,0.1-2.1,0.4-3,0.8c-0.1,0.1-0.2,0.2-0.1,0.3c0.1,0.1,0.2,0.2,0.3,0.1
				c0.8-0.4,1.9-0.6,2.9-0.7c0.1,0,0.2-0.1,0.2-0.3C209.2,58.6,209.1,58.5,208.9,58.5L208.9,58.5z"/>
			<path class="st1" d="M211.3,58.5c-0.1,0-0.4,0-0.5,0c-0.1,0-0.2,0.1-0.2,0.2c0,0.1,0.1,0.2,0.2,0.2c0.1,0,0.4,0,0.5,0
				c0.1,0,0.2-0.1,0.2-0.2C211.6,58.6,211.5,58.5,211.3,58.5L211.3,58.5z"/>
			<g>
				<path class="st0" d="M212.6,60.3c6.5,0,11.8,5.3,11.8,11.8c0,6.5-5.3,11.8-11.8,11.8c-6.5,0-11.8-5.3-11.8-11.8
					C200.8,65.5,206.1,60.3,212.6,60.3z"/>
				<g id="play">
					<path class="st1" d="M203.5,60.4c-0.6,0.4-1.3,0.9-1.9,1.5c-1.9,1.9-3.3,4.4-3.7,7.2l0,0c-0.1,0.6-0.1,1.1-0.1,1.7
						c0,2.9,1.1,5.7,2.8,7.7l0.2-0.2l-0.2-0.1l-1.6,5.7l0.2,0.1l-0.2-0.1l-0.1,0.2c0,0.2,0.1,0.3,0.3,0.4c0.1,0.1,0.3,0.1,0.4,0.1h0
						l6.4-2.4l-0.1-0.2l-0.1,0.2c1.4,0.5,2.8,0.8,4.3,0.8c1,0,2.1-0.1,3.2-0.4l-0.1-0.2l0.1,0.2c4.8-1.3,8.5-5.3,9.1-10.1l0,0
						c0.1-0.6,0.1-1.2,0.1-1.8c0-5.6-3.7-10.3-8.8-11.8c-0.1,0-0.3,0-0.3,0.2c0,0.1,0,0.3,0.2,0.3c4.9,1.4,8.5,5.9,8.5,11.3
						c0,0.6,0,1.1-0.1,1.7l0,0c-0.6,4.6-4.1,8.5-8.7,9.7l0,0l0,0c-1,0.3-2,0.4-3,0.4c-1.4,0-2.8-0.3-4.1-0.8l-0.1,0l-6.4,2.4
						l0.1,0.2v-0.2l-0.2,0l0,0l0,0l0,0l0,0l0,0l0,0l-0.1,0h0.1l0,0l-0.1,0h0.1h0l0,0l0,0h0l0,0l0,0l0,0l1.7-5.8l-0.1-0.1
						c-1.6-1.9-2.7-4.6-2.7-7.4c0-0.5,0-1.1,0.1-1.6l0,0l0,0c0.4-2.7,1.7-5.1,3.5-6.9c0.6-0.6,1.2-1.1,1.8-1.4
						c0.1-0.1,0.2-0.2,0.1-0.3C203.8,60.4,203.6,60.4,203.5,60.4L203.5,60.4z"/>
					<path class="st3" d="M213.8,70.8l-5.3-3.1c-0.2-0.1-0.4,0-0.4,0.2v6.2c0,0.2,0.2,0.4,0.4,0.2l5.3-3.1
						C213.9,71.3,213.9,70.9,213.8,70.8z"/>
				</g>
			</g>
		</g>
		<g>
			<path class="st0" d="M197.4,179.5l22.9-3.7c0.7-0.1,1.4,0.5,1.4,1.2l-0.9,6.9c-0.1,1-0.9,1.9-1.9,2.2l-17.2,5.2
				c-0.6,0.1-1.2-0.1-1.5-0.7l-4-9.7C196.2,180.4,196.7,179.7,197.4,179.5z"/>
			<path class="st1" d="M191,174.8l0.2,0c0.5,0,0.9,0.3,1.1,0.7l0,0l6.3,15.1l0,0c0.7,1.6,2.3,2.7,4,2.7c0.3,0,0.5,0,0.8-0.1l0-0.2
				l0,0.2l15.5-2.6c0.1,0,0.2-0.2,0.2-0.3s-0.2-0.2-0.3-0.2l-15.5,2.6l0,0c-0.2,0-0.4,0.1-0.7,0.1c-1.5,0-2.9-1-3.5-2.4l0,0
				l-6.3-15.1l-0.2,0.1l0.2-0.1c-0.2-0.6-0.8-1.1-1.6-1c-0.1,0-0.2,0-0.3,0c-0.1,0-0.2,0.2-0.2,0.3S190.9,174.9,191,174.8L191,174.8
				z"/>
			<path class="st1" d="M209,176.4l9.5-1.6l0.1,0c0.3,0,0.5,0.1,0.6,0.3c0.2,0.2,0.3,0.4,0.3,0.7h0.2l-0.2,0l-0.9,6.9
				c-0.1,0.9-0.8,1.7-1.7,2l0.1,0.2l-0.1-0.2l-14.9,4.6c-0.1,0-0.2,0.2-0.2,0.3c0,0.1,0.2,0.2,0.3,0.2l14.9-4.6l0,0
				c1.1-0.4,1.9-1.3,2-2.4l0.9-7v0c0-0.8-0.6-1.5-1.4-1.5l-0.2,0l-9.5,1.6c-0.1,0-0.2,0.2-0.2,0.3S208.9,176.5,209,176.4L209,176.4z
				"/>
			<path class="st1" d="M204.5,177.2l2.2-0.4c0.1,0,0.2-0.2,0.2-0.3s-0.2-0.2-0.3-0.2l-2.2,0.4c-0.1,0-0.2,0.2-0.2,0.3
				C204.3,177.1,204.4,177.2,204.5,177.2"/>
			<path class="st1" d="M202.5,177.5l0.2-0.1c0.1-0.1,0.2-0.2,0.1-0.3c-0.1-0.1-0.2-0.2-0.3-0.1l-0.2,0.1c-0.1,0.1-0.2,0.2-0.1,0.3
				C202.2,177.5,202.4,177.6,202.5,177.5"/>
			<path class="st1" d="M194.1,178.9l5.6-1c0.1,0,0.2-0.2,0.2-0.3c0-0.1-0.2-0.2-0.3-0.2l-5.6,1c-0.1,0-0.2,0.2-0.2,0.3
				S194,178.9,194.1,178.9"/>
			<path class="st1" d="M218,198.2c-0.4,0.2-0.7,0.5-1.2,0.6l0.1,0.2l0-0.2c-0.1,0-0.3,0-0.4,0c-1.1,0-1.9-0.7-2-1.8
				c0-0.1,0-0.2,0-0.3c0-0.6,0.2-1.1,0.5-1.5c0.3-0.4,0.7-0.6,1.3-0.7c0.1,0,0.2,0,0.3,0c0.6,0,1.1,0.2,1.5,0.5
				c0.4,0.3,0.6,0.7,0.7,1.3l0,0l0,0l0,0.2c0,0.2-0.1,0.4-0.2,0.7c0,0.1,0,0.3,0.2,0.3c0.1,0,0.3,0,0.3-0.2c0.1-0.3,0.2-0.5,0.2-0.9
				c0-0.1,0-0.3-0.1-0.4l-0.2,0.1l0.2,0c-0.1-0.7-0.4-1.3-0.9-1.6c-0.5-0.4-1.1-0.6-1.8-0.6c-0.1,0-0.2,0-0.3,0
				c-0.7,0.1-1.3,0.4-1.6,0.9c-0.4,0.5-0.6,1.1-0.6,1.8c0,0.1,0,0.2,0,0.3c0.1,1.3,1.2,2.3,2.5,2.3c0.2,0,0.3,0,0.5,0l0,0l0,0
				c0.5-0.1,0.9-0.4,1.3-0.7c0.1-0.1,0.1-0.2,0.1-0.3S218.1,198.1,218,198.2L218,198.2z"/>
			<path class="st1" d="M204.5,196.4c0.1,0,0.3,0,0.4,0c1.1,0,1.9,0.7,2,1.8c0,0.1,0,0.2,0,0.3c0,0.6-0.2,1.1-0.5,1.5
				c-0.3,0.4-0.7,0.6-1.3,0.7c-0.1,0-0.2,0-0.3,0c-0.6,0-1.1-0.2-1.5-0.5c-0.4-0.3-0.6-0.7-0.7-1.3l0,0l0,0c0-0.1,0-0.3,0-0.4
				c0-0.6,0.2-1.1,0.7-1.5c0.1-0.1,0.1-0.2,0-0.4c-0.1-0.1-0.2-0.1-0.4,0c-0.6,0.5-0.9,1.1-0.9,1.9c0,0.1,0,0.3,0,0.5l0.2,0l-0.2,0
				c0.1,0.7,0.4,1.3,0.9,1.6c0.5,0.4,1.1,0.6,1.8,0.6c0.1,0,0.2,0,0.3,0c0.7-0.1,1.3-0.4,1.6-0.9c0.4-0.5,0.6-1.1,0.6-1.8
				c0-0.1,0-0.2,0-0.3c-0.1-1.3-1.2-2.3-2.5-2.3c-0.2,0-0.3,0-0.5,0c-0.1,0-0.2,0.2-0.2,0.3C204.3,196.3,204.4,196.4,204.5,196.4
				L204.5,196.4z"/>
			<path class="st3" d="M200.7,182.4l4.1-0.7c0.1,0,0.2-0.2,0.2-0.3c0-0.1-0.2-0.2-0.3-0.2l-4.1,0.7c-0.1,0-0.2,0.2-0.2,0.3
				S200.6,182.4,200.7,182.4"/>
			<path class="st3" d="M201.2,185l8.4-1.5c0.1,0,0.2-0.2,0.2-0.3c0-0.1-0.2-0.2-0.3-0.2l-8.4,1.5c-0.1,0-0.2,0.2-0.2,0.3
				C200.9,184.9,201.1,185,201.2,185"/>
		</g>
		<g>
			<path class="st0" d="M225.1,145l-9.4-5.2c-2.2-1.2-3-4-1.7-6.2l5.8-10.4c1.2-2.2,4-3,6.2-1.7l9.4,5.2c2.2,1.2,3,4,1.7,6.2
				l-5.8,10.4C230,145.4,227.2,146.2,225.1,145z"/>
			<path class="st1" d="M220.2,140.4l-1.2-0.6l-4.3-2.5l0,0c-1.4-0.8-2.2-2.2-2.2-3.7c0-0.7,0.2-1.5,0.6-2.1l6.1-10.9
				c0.8-1.4,2.2-2.2,3.7-2.2c0.7,0,1.5,0.2,2.1,0.6l10,5.6c1.4,0.8,2.2,2.2,2.2,3.7c0,0.7-0.2,1.5-0.6,2.1l-6.1,10.9
				c-0.8,1.4-2.2,2.2-3.7,2.2c-0.7,0-1.5-0.2-2.1-0.6c-0.1-0.1-0.3,0-0.3,0.1s0,0.3,0.1,0.3c0.8,0.4,1.6,0.6,2.4,0.6
				c1.7,0,3.3-0.9,4.1-2.5l6.1-10.9c0.4-0.8,0.6-1.6,0.6-2.4c0-1.7-0.9-3.3-2.5-4.1l-10-5.6c-0.8-0.4-1.6-0.6-2.4-0.6
				c-1.7,0-3.3,0.9-4.1,2.5l-6.1,10.9c-0.4,0.8-0.6,1.6-0.6,2.4c0,1.7,0.9,3.3,2.5,4.1l0.1-0.2l-0.1,0.2l4.3,2.5l1.2,0.6
				c0.1,0.1,0.3,0,0.3-0.1S220.3,140.5,220.2,140.4L220.2,140.4z"/>
			<path class="st1" d="M227.5,114.9c0.3-0.1,0.5-0.1,0.8-0.1c0.5,0,1,0.1,1.5,0.5l0,0l5.6,3.1l0,0c1,0.6,1.6,1.6,1.6,2.6
				c0,0.3,0,0.5-0.1,0.8l-0.9,3.6c0,0.1,0.1,0.3,0.2,0.3c0.1,0,0.3-0.1,0.3-0.2l0.9-3.6l0,0c0.1-0.3,0.1-0.6,0.1-0.9
				c0-1.3-0.7-2.4-1.8-3.1l0,0l-5.6-3.1l-0.1,0.2l0.1-0.2c-0.5-0.4-1.1-0.5-1.8-0.5c-0.3,0-0.6,0-0.9,0.1c-0.1,0-0.2,0.2-0.2,0.3
				C227.2,114.8,227.4,114.9,227.5,114.9L227.5,114.9z"/>
			<path class="st1" d="M225.8,116l0.2-0.1c0.1-0.1,0.2-0.2,0.1-0.3c-0.1-0.1-0.2-0.2-0.3-0.1l-0.2,0.1c-0.1,0.1-0.2,0.2-0.1,0.3
				C225.5,116,225.7,116,225.8,116"/>
			<path class="st1" d="M223.4,118.4l1.5-1.4c0.1-0.1,0.1-0.3,0-0.4c-0.1-0.1-0.3-0.1-0.4,0l-1.5,1.4c-0.1,0.1-0.1,0.3,0,0.4
				C223.1,118.5,223.3,118.5,223.4,118.4"/>
			<path class="st1" d="M212.9,136.3l-0.9,3.7l0.2,0.1l-0.2-0.1c-0.1,0.3-0.1,0.6-0.1,0.8c0,1.3,0.7,2.5,1.8,3.2l0,0l5.6,3.1l0,0
				c0.6,0.3,1.2,0.5,1.8,0.5c1,0,1.9-0.4,2.6-1.1l2.5-2.5c0.1-0.1,0.1-0.3,0-0.4s-0.3-0.1-0.4,0l-2.5,2.5c-0.6,0.6-1.5,1-2.3,1
				c-0.5,0-1-0.1-1.5-0.4l0,0l-5.6-3.1l-0.1,0.2l0.1-0.2c-0.9-0.6-1.6-1.6-1.6-2.7c0-0.2,0-0.5,0.1-0.7l0,0l0.9-3.7
				c0-0.1-0.1-0.3-0.2-0.3C213.1,136,213,136.1,212.9,136.3L212.9,136.3z"/>
			<path class="st1" d="M236.2,131.6l0.5,0.2l0.1-0.2l-0.1,0.2c0.2,0.1,0.3,0.3,0.3,0.4c0,0.1,0,0.2-0.1,0.3l0,0l-1.4,2.5l0.2,0.1
				l-0.2-0.1c-0.1,0.2-0.3,0.3-0.4,0.3c-0.1,0-0.2,0-0.3-0.1l0,0l-0.5-0.3c-0.1-0.1-0.3,0-0.3,0.1s0,0.3,0.1,0.3l0.5,0.2l0.1-0.2
				l-0.1,0.2c0.2,0.1,0.3,0.2,0.5,0.2c0.3,0,0.6-0.2,0.8-0.5l0,0l1.4-2.5l-0.2-0.1l0.2,0.1c0.1-0.2,0.2-0.3,0.2-0.5
				c0-0.3-0.2-0.6-0.5-0.8l0,0l-0.5-0.3c-0.1-0.1-0.3,0-0.3,0.1S236.1,131.5,236.2,131.6L236.2,131.6z"/>
			<path class="st1" d="M232.8,137.9l0.5,0.2l0.1-0.2l-0.1,0.2c0.2,0.1,0.3,0.3,0.3,0.4c0,0.1,0,0.2-0.1,0.3l0,0l-1.4,2.5l0.2,0.1
				l-0.2-0.1c-0.1,0.2-0.3,0.3-0.4,0.3c-0.1,0-0.2,0-0.3-0.1l0,0l-0.5-0.3c-0.1-0.1-0.3,0-0.3,0.1s0,0.3,0.1,0.3l0.5,0.2l0.1-0.2
				l-0.1,0.2c0.2,0.1,0.3,0.2,0.5,0.2c0.3,0,0.6-0.2,0.8-0.5l0,0l1.4-2.5l-0.2-0.1l0.2,0.1c0.1-0.2,0.2-0.3,0.2-0.5
				c0-0.3-0.2-0.6-0.5-0.8l0,0l-0.5-0.3c-0.1-0.1-0.3,0-0.3,0.1C232.6,137.7,232.6,137.8,232.8,137.9L232.8,137.9z"/>
			<path class="st3" d="M224.2,128.6l-0.4,0.6l-0.4,0.7l-1.1,2c-0.1-0.2-0.2-0.4-0.5-0.5c-0.6-0.4-1.5-0.1-1.9,0.5
				c-0.4,0.6-0.1,1.5,0.5,1.9c0.6,0.4,1.5,0.1,1.9-0.5l1.7-3.2l3.5,0.7l-1.1,2c-0.1-0.2-0.2-0.4-0.5-0.5c-0.6-0.4-1.5-0.1-1.9,0.5
				c-0.4,0.6-0.1,1.5,0.5,1.9c0.6,0.4,1.4,0.1,1.7-0.4l1.9-3.2l0.2-0.5l0.5-0.9L224.2,128.6z"/>
		</g>
		<g>
			<path class="st1" d="M33.4,126.6c-2.1-0.1-4-0.8-5.7-2.2l-0.3,0l0,0.3c1.8,1.4,3.8,2.1,5.9,2.3c0.1,0,0.2-0.1,0.2-0.2
				C33.5,126.7,33.5,126.6,33.4,126.6L33.4,126.6z"/>
			<path class="st0" d="M25.2,123.3l-0.2,4.8c0,0.5,0.2,1.1,0.7,1.5l18.2,14.9c0.7,0.6,1.9,0.6,2.5-0.1l6.2-7.6
				c0.6-0.7,0.4-1.7-0.4-2.4L34,119.6c-0.5-0.4-1-0.5-1.6-0.4l-5.4,2.1C25.9,121.3,25.2,122.2,25.2,123.3z M30.1,123.6
				c1,0.7,1.1,2.1,0.4,3c-0.7,0.9-2.1,1-3,0.2c-1-0.7-1.1-2.1-0.4-3C27.9,122.8,29.3,122.7,30.1,123.6z"/>
			<path class="st1" d="M38.3,142.3l-13.4-11l0,0c-0.3-0.3-0.6-0.7-0.6-1.1c0-0.1,0-0.2,0-0.3l0,0l0.5-5.3l-0.2,0l0.2,0
				c0.1-1,0.8-1.9,1.8-2.3l-0.1-0.2l0.1,0.2l5.1-1.5l-0.1-0.2l0,0.2c0.1,0,0.3,0,0.4,0c0.4,0,0.8,0.1,1.1,0.4l0.1-0.2l-0.2,0.2
				l19.1,15.6l0,0c0.4,0.3,0.6,0.8,0.6,1.3c0,0.4-0.1,0.7-0.3,1l0,0l-6.2,7.6l0,0c-0.3,0.4-0.8,0.6-1.3,0.6c-0.4,0-0.7-0.1-1-0.3
				c-0.1-0.1-0.3-0.1-0.4,0c-0.1,0.1-0.1,0.3,0,0.4c0.4,0.3,0.8,0.5,1.3,0.5c0.6,0,1.2-0.2,1.6-0.7l0,0l6.2-7.6l0,0
				c0.3-0.4,0.5-0.8,0.5-1.3c0-0.6-0.2-1.2-0.7-1.6l0,0l-19.1-15.6l0,0c-0.4-0.3-0.9-0.5-1.4-0.5c-0.2,0-0.3,0-0.5,0.1l0,0l-5.1,1.5
				l0,0c-1.2,0.4-2,1.5-2.2,2.7l0,0l-0.5,5.3l0.2,0l-0.2,0c0,0.1,0,0.2,0,0.4c0,0.6,0.3,1.1,0.8,1.5l0.2-0.2l-0.2,0.2l13.4,11
				c0.1,0.1,0.3,0.1,0.4,0C38.5,142.6,38.4,142.4,38.3,142.3L38.3,142.3z"/>
			<path class="st1" d="M41.3,144.7l-1.2-0.9c-0.1-0.1-0.3-0.1-0.3,0.1c-0.1,0.1-0.1,0.3,0.1,0.3l1.2,0.9c0.1,0.1,0.3,0.1,0.3-0.1
				S41.4,144.7,41.3,144.7"/>
			<path class="st1" d="M42.8,146l-0.1-0.1c-0.1-0.1-0.3-0.1-0.4,0c-0.1,0.1-0.1,0.3,0,0.4l0.1,0.1c0.1,0.1,0.3,0.1,0.4,0
				C42.9,146.3,42.9,146.1,42.8,146"/>
			<path class="st1" d="M30.7,125.9c-1.1-0.4-2-1-2.9-1.7l0,0l0,0c-2.4-1.9-3.6-4.7-3.6-7.6c0-1.7,0.4-3.4,1.3-4.9
				c0.1-0.1,0-0.3-0.1-0.3c-0.1-0.1-0.3,0-0.3,0.1c-0.9,1.6-1.3,3.4-1.3,5.1c0,3,1.3,5.9,3.7,7.9l0.2-0.2l-0.2,0.2
				c0.9,0.8,1.9,1.4,3.1,1.8c0.1,0,0.3,0,0.3-0.2C30.9,126.1,30.8,126,30.7,125.9L30.7,125.9z"/>
			<path class="st1" d="M30.1,124.1c0.5,0.4,0.7,0.9,0.7,1.4c0,0.4-0.2,0.9-0.5,1.3l0,0l0,0c-0.4,0.5-0.9,0.7-1.4,0.7
				c-0.4,0-0.9-0.2-1.3-0.5l-0.2,0.2l0.2-0.2c-0.4-0.4-0.6-0.7-0.7-1.1c0-0.1-0.2-0.2-0.3-0.2c-0.1,0-0.2,0.2-0.2,0.3
				c0.1,0.5,0.4,1,0.8,1.4l0,0l0,0c0.5,0.4,1.1,0.6,1.6,0.6c0.7,0,1.4-0.3,1.8-0.9l-0.2-0.2l0.2,0.2c0.4-0.5,0.6-1.1,0.6-1.6
				c0-0.7-0.3-1.4-0.9-1.8c-0.1-0.1-0.3-0.1-0.4,0C30,123.9,30,124,30.1,124.1L30.1,124.1z"/>
			<path class="st3" d="M40.6,135.3c-0.4,0.4-0.9,0.6-1.4,0.6c-0.4,0-0.8-0.1-1.2-0.4c-0.4-0.4-0.6-0.9-0.6-1.4
				c0-0.4,0.1-0.8,0.4-1.2c0.4-0.4,0.9-0.6,1.4-0.6c0.4,0,0.8,0.1,1.2,0.4c0.1,0.1,0.3,0.1,0.4,0c0.1-0.1,0.1-0.3,0-0.4
				c-0.4-0.4-1-0.5-1.5-0.5c-0.7,0-1.4,0.3-1.8,0.8c-0.4,0.4-0.5,1-0.5,1.5c0,0.7,0.3,1.4,0.8,1.8c0.4,0.4,1,0.5,1.5,0.5
				c0.7,0,1.4-0.3,1.8-0.8c0.1-0.1,0.1-0.3,0-0.4C40.8,135.2,40.7,135.2,40.6,135.3L40.6,135.3z"/>
			<path class="st3" d="M41,135.6c0.4-0.4,0.9-0.6,1.4-0.6c0.4,0,0.8,0.1,1.2,0.4c0.4,0.4,0.6,0.9,0.6,1.4c0,0.4-0.1,0.8-0.4,1.2
				c-0.4,0.4-0.9,0.6-1.4,0.6c-0.4,0-0.8-0.1-1.2-0.4c-0.1-0.1-0.3-0.1-0.4,0s-0.1,0.3,0,0.4c0.4,0.4,1,0.5,1.5,0.5
				c0.7,0,1.4-0.3,1.8-0.8c0.4-0.4,0.5-1,0.5-1.5c0-0.7-0.3-1.4-0.8-1.8c-0.4-0.4-1-0.5-1.5-0.5c-0.7,0-1.4,0.3-1.8,0.8
				c-0.1,0.1-0.1,0.3,0,0.4C40.7,135.7,40.9,135.7,41,135.6L41,135.6z"/>
			<path class="st3" d="M36.3,132.2l1,0.7c0.1,0.1,0.3,0.1,0.3-0.1c0.1-0.1,0.1-0.3-0.1-0.3l-1-0.7c-0.1-0.1-0.3-0.1-0.3,0.1
				C36.2,131.9,36.2,132.1,36.3,132.2"/>
			<path class="st3" d="M44,138.4l1,0.9c0.1,0.1,0.3,0.1,0.4,0s0.1-0.3,0-0.4l-1-0.9c-0.1-0.1-0.3-0.1-0.4,0
				C43.8,138.1,43.8,138.3,44,138.4"/>
		</g>
		<g>
			<path class="st0" d="M90.8,55.7l-1.1-1c-3.3-2.8-3.7-7.8-0.9-11.1l5.7-6.6c2.8-3.3,7.8-3.7,11.1-0.9l1.1,1
				c3.3,2.8,3.7,7.8,0.9,11.1l-5.7,6.6C99,58.2,94,58.5,90.8,55.7z"/>
			<path class="st1" d="M100.2,31.4c-0.1,0-0.1,0-0.2,0c-0.1,0-0.2,0.1-0.2,0.2c0,0.1,0.1,0.2,0.2,0.2c0.1,0,0.1,0,0.2,0
				c0.1,0,0.2-0.1,0.2-0.2C100.5,31.5,100.4,31.4,100.2,31.4L100.2,31.4z"/>
			<path class="st1" d="M103.2,32.1c-0.5-0.3-0.9-0.4-1.4-0.5c-0.1,0-0.3,0-0.3,0.2c0,0.1,0,0.3,0.2,0.3c0.5,0.1,0.8,0.2,1.3,0.5
				c0.1,0.1,0.3,0,0.3-0.1C103.4,32.3,103.3,32.1,103.2,32.1L103.2,32.1z"/>
			<path class="st1" d="M97.3,31.7c-1.4,0.4-2.7,1.3-3.7,2.4l0,0l-5.8,6.7l0,0c-1.3,1.6-2,3.4-2,5.3c0,2.3,1,4.6,2.9,6.2l0.2-0.2
				l-0.2,0.2l1.1,1l0,0c1.6,1.3,3.4,2,5.3,2c2.3,0,4.6-1,6.2-2.9l-0.2-0.2l0.2,0.2l5.8-6.7l0,0c1.3-1.6,2-3.4,2-5.3
				c0-2.3-1-4.6-2.9-6.2l0,0l-1.1-0.9l-0.2,0.2l0.2-0.2l-0.2-0.2c-0.1-0.1-0.2-0.1-0.3-0.1c-0.1,0-0.2,0.1-0.2,0.2
				c0,0.1,0.1,0.2,0.2,0.2v0l0,0l0,0v0l0,0l0,0l0.2,0.2l0,0l1.1,0.9l0.2-0.2l-0.2,0.2c1.8,1.5,2.7,3.6,2.7,5.8c0,1.8-0.6,3.5-1.9,5
				l0.2,0.2l-0.2-0.2l-5.8,6.7l0,0c-1.5,1.8-3.6,2.7-5.8,2.7c-1.8,0-3.5-0.6-5-1.9l-0.2,0.2l0.2-0.2l-1.1-1l0,0
				c-1.8-1.5-2.7-3.6-2.7-5.8c0-1.8,0.6-3.5,1.9-5L88,41l0.2,0.2l5.8-6.7l-0.2-0.2l0.2,0.2c1-1.1,2.2-1.9,3.5-2.3
				c0.1,0,0.2-0.2,0.2-0.3C97.6,31.7,97.4,31.6,97.3,31.7L97.3,31.7z"/>
			<path class="st3" d="M99.5,41L99.5,41c-0.5-0.4-0.5-1.1-0.1-1.5l2.1-2.5c0.4-0.5,1.1-0.5,1.5-0.1c0.5,0.4,0.5,1.1,0.1,1.5
				l-2.1,2.5C100.6,41.3,100,41.3,99.5,41z"/>
			<path class="st1" d="M105.6,34.2l5.1-5.9l0,0c0.4-0.5,1.1-0.8,1.7-0.8c0.5,0,1.1,0.2,1.5,0.6l0,0l0,0c0.5,0.4,0.8,1.1,0.8,1.7
				c0,0.5-0.2,1.1-0.6,1.5c-0.1,0.1-0.1,0.3,0,0.4c0.1,0.1,0.3,0.1,0.4,0c0.5-0.5,0.7-1.2,0.7-1.8c0-0.8-0.3-1.6-1-2.1l-0.2,0.2
				l0.2-0.2c-0.5-0.5-1.2-0.7-1.8-0.7c-0.8,0-1.6,0.3-2.1,1l0.2,0.2l-0.2-0.2l-5.1,5.9c-0.1,0.1-0.1,0.3,0,0.4
				C105.4,34.3,105.5,34.3,105.6,34.2L105.6,34.2z"/>
			<path class="st1" d="M114.3,31.4l-0.9,1l0,0c-0.4,0.6-0.7,1.2-0.7,1.9c0,0.8,0.3,1.5,1,2c0.6,0.4,1.2,0.7,1.9,0.7
				c0.8,0,1.5-0.3,2-1c0.1-0.1,0.1-0.3,0-0.4c-0.1-0.1-0.3-0.1-0.4,0c-0.4,0.5-1,0.8-1.6,0.8c-0.6,0-1.1-0.2-1.6-0.6
				c-0.5-0.4-0.8-1-0.8-1.6c0-0.6,0.2-1.1,0.6-1.6l-0.2-0.2l0.2,0.2l0.9-1c0.1-0.1,0.1-0.3,0-0.4C114.5,31.3,114.4,31.3,114.3,31.4
				L114.3,31.4z"/>
		</g>
		<g>
			<path class="st0" d="M50.8,182.9L44,202.6c-0.1,0.4-0.6,0.4-0.7,0l-4.2-8.3c0-0.1-0.1-0.1-0.1-0.1l-8.3-4.2
				c-0.4-0.1-0.2-0.6,0-0.7l19.7-6.8C50.7,182.3,50.9,182.5,50.8,182.9z"/>
			<path class="st1" d="M49,194.3l-3.1,9l0,0l-0.1,0.1l-0.1-0.1l0,0l-4.2-8.3l-0.2,0.1h0.2c0-0.2-0.1-0.3-0.2-0.3
				c-0.1,0-0.2,0-0.2,0v0.2l0.1-0.2l-8.3-4.2l0,0l-0.1-0.1l0.1-0.2l-0.1-0.2l0.1,0.2l19.7-6.8l-0.1-0.2l0.1,0.2l0.1,0l0.1,0l0,0.1
				l0,0l0,0l-1.1,3.2c0,0.1,0,0.3,0.2,0.3c0.1,0,0.3,0,0.3-0.2l1.1-3.2l-0.2-0.1l0.2,0.1l0.1-0.3c0-0.3-0.3-0.6-0.6-0.6l-0.2,0l0,0
				l-19.7,6.8l0,0c-0.2,0.1-0.4,0.4-0.4,0.6c0,0.2,0.1,0.5,0.4,0.6l0.1-0.2l-0.1,0.2l8.4,4.2H41v-0.1l-0.1,0.1l0.1,0v-0.1l-0.1,0.1
				l0.1-0.1h-0.1l0.1,0.1l0.1-0.1h-0.1v0.1l4.2,8.4l0.2-0.1l-0.2,0.1c0.1,0.3,0.4,0.5,0.6,0.5c0.3,0,0.5-0.2,0.6-0.5l0,0l3.1-9
				c0-0.1,0-0.3-0.2-0.3C49.1,194.1,49,194.2,49,194.3L49,194.3z"/>
			<path class="st1" d="M50.2,190.5l-0.7,2.2c0,0.1,0,0.3,0.2,0.3s0.3,0,0.3-0.2l0.7-2.2c0-0.1,0-0.3-0.2-0.3
				C50.4,190.3,50.2,190.4,50.2,190.5"/>
			<path class="st1" d="M50.7,189l-0.1,0.4c0,0.1,0,0.3,0.2,0.3s0.3,0,0.3-0.2l0.1-0.4c0-0.1,0-0.3-0.2-0.3
				C50.9,188.8,50.7,188.9,50.7,189"/>
			<path class="st1" d="M40.7,195l-3.3,3.3c-0.1,0.1-0.1,0.3,0,0.4c0.1,0.1,0.3,0.1,0.4,0l3.3-3.3c0.1-0.1,0.1-0.3,0-0.4
				C41,194.9,40.8,194.9,40.7,195"/>
			<g id="click">
				<path class="st3" d="M57,174.8l-1.7,3.5c-0.1,0.1,0,0.3,0.1,0.3c0.1,0.1,0.3,0,0.3-0.1l1.7-3.5c0.1-0.1,0-0.3-0.1-0.3
					C57.2,174.7,57.1,174.7,57,174.8"/>
				<path class="st3" d="M57.9,185.8l3.5,1.7c0.1,0.1,0.3,0,0.3-0.1c0.1-0.1,0-0.3-0.1-0.3l-3.5-1.7c-0.1-0.1-0.3,0-0.3,0.1
					C57.7,185.6,57.8,185.8,57.9,185.8"/>
				<path class="st3" d="M49.9,174.5l1.2,3.6c0,0.1,0.2,0.2,0.3,0.2c0.1,0,0.2-0.2,0.2-0.3l-1.2-3.6c0-0.1-0.2-0.2-0.3-0.2
					C50,174.3,49.9,174.4,49.9,174.5"/>
				<path class="st3" d="M58.3,181.8l3.7-1.2c0.1,0,0.2-0.2,0.2-0.3S62,180,61.9,180l-3.7,1.2c-0.1,0-0.2,0.2-0.2,0.3
					C58,181.7,58.2,181.8,58.3,181.8"/>
			</g>
		</g>
		<g>
			<path class="st0" d="M66.8,89.3l-14.7,2c-0.1,0-0.2-0.1-0.2-0.1l-4.2-17c0-0.1,0.1-0.2,0.1-0.2l18.5-2.5c0,0,0.1,0,0.1,0.1
				L66.8,89.3C66.9,89,66.9,89.3,66.8,89.3z"/>
			<path class="st1" d="M65.3,88.1l0-0.2l-14.7,2l0,0.2v-0.2v0l0,0l0,0v0l0,0l0,0l0,0l0,0l0,0l0,0l0,0l0,0l0,0L50.3,90l0.2-0.1
				l-4.2-17L46.1,73h0.2h0l0,0l0,0h0l0,0l0,0l0,0l0,0l0,0l0,0l0,0l0,0l0,0l-0.2-0.2l0,0.2l18.5-2.5l0-0.2v0.2v-0.1l0,0.1l0,0v-0.1
				l0,0.1l0.1-0.1l-0.1,0l0.1,0.1l0.1-0.1l-0.1,0v0l0.6,17.5l0.2,0h-0.2l0,0l0,0.1l0.1,0l-0.1-0.1l0,0l0.1,0l-0.1-0.1L65.3,88.1
				v-0.2l-0.1,0L65.3,88.1v-0.2h0l0,0L65.3,88.1v0.2c0.1,0,0.2-0.1,0.3-0.1c0.1-0.1,0.1-0.2,0.1-0.2l0-0.1v0L65,70.4l-0.2,0H65
				c0-0.2-0.1-0.3-0.2-0.3c-0.1,0-0.2,0-0.2,0h0l-18.6,2.5L46,72.6L46,72.7c0,0.1-0.1,0.2-0.1,0.3v0l4.2,17.1l0,0l0.1,0.1
				c0.1,0,0.2,0.1,0.3,0.1h0l14.8-2L65.3,88.1v0.2V88.1z"/>
			<path class="st1" d="M47.2,72.6l-1.7-6.5l18.3-2.4l0.2,6.7c0,0.1,0.1,0.2,0.3,0.2c0.1,0,0.2-0.1,0.2-0.3l-0.3-7.2l-19.4,2.5
				l1.8,7.1c0,0.1,0.2,0.2,0.3,0.2C47.2,72.9,47.2,72.7,47.2,72.6L47.2,72.6z"/>
			<path class="st1" d="M64.5,88.4l0.1,2.6l0.2,0h-0.2h0l0,0l0,0h0l0,0l0,0l0,0l0,0l0,0l0,0l0,0l0,0l0,0l0,0l0,0l0,0l0,0l0,0h0
				l-12.5,1.7l0,0.2v-0.2l-0.1,0l0,0l0,0l0,0l0,0l0,0L52,92.8h0.1l-0.1-0.1L52,92.8h0.1v0l-0.6-2.8c0-0.1-0.2-0.2-0.3-0.2
				c-0.1,0-0.2,0.2-0.2,0.3l0.6,2.7l0.2-0.1h-0.2c0,0,0,0.1,0.1,0.2c0.1,0.1,0.2,0.1,0.4,0.1h0l12.5-1.7l0-0.2v0.2
				c0.2,0,0.4-0.1,0.4-0.3c0.1-0.1,0.1-0.2,0.1-0.2v0L65,88.4c0-0.1-0.1-0.2-0.3-0.2C64.6,88.1,64.5,88.3,64.5,88.4L64.5,88.4z"/>
			<path class="st2" d="M55.5,63.4l8.8-1.2c0.4,0,0.6,0.2,0.7,0.5l0.2,1.4c0,0.4-0.2,0.6-0.5,0.7l-19.7,2.6c-0.4,0-0.6-0.2-0.7-0.5
				l-0.2-1.4c0-0.4,0.2-0.6,0.5-0.7l3.2-0.4"/>
			<path class="st1" d="M55.5,63.6l8.8-1.2l0-0.2v0.2c0.2,0,0.4,0.2,0.5,0.4l0.2-0.1l-0.2,0L65,64l0.2,0H65c0,0.2-0.2,0.4-0.4,0.5
				l0.1,0.2l0-0.2l-19.7,2.6l0,0.2v-0.2c-0.2,0-0.4-0.2-0.5-0.4l-0.2,0.1l0.2,0l-0.2-1.4l-0.2,0h0.2c0-0.2,0.2-0.4,0.4-0.5l-0.1-0.2
				l0,0.2l3.2-0.4c0.1,0,0.2-0.1,0.2-0.3c0-0.1-0.1-0.2-0.3-0.2l-3.3,0.4l0,0c-0.3,0.1-0.6,0.5-0.6,1v0l0.3,1.4l0,0
				c0.1,0.3,0.5,0.6,1,0.6h0L64.9,65l0,0c0.3-0.1,0.6-0.5,0.6-1v0l-0.3-1.4l0,0c-0.1-0.3-0.5-0.6-1-0.6h0l-8.8,1.2
				c-0.1,0-0.2,0.1-0.2,0.3C55.3,63.5,55.4,63.6,55.5,63.6L55.5,63.6z"/>
			<path class="st1" d="M51.9,64.1l2.1-0.2c0.1,0,0.2-0.1,0.2-0.3c0-0.1-0.1-0.2-0.3-0.2l-2.1,0.2c-0.1,0-0.2,0.1-0.2,0.3
				C51.7,64,51.8,64.1,51.9,64.1"/>
			<path class="st1" d="M50.1,64.4h0.4c0.1,0,0.2-0.1,0.2-0.2c0-0.1-0.1-0.2-0.2-0.2h-0.4c-0.1,0-0.2,0.1-0.2,0.2
				C49.8,64.2,49.9,64.4,50.1,64.4"/>
			<path class="st0" d="M58.2,60.2c0-0.4-0.1-0.7-0.1-1c0-0.9,0.2-1.5,0.4-2.1c0.2-0.6,0.4-1.3,0.4-2.2c0-0.4,0-0.8-0.1-1.3l-0.2,0
				l0.2,0c-0.2-1.7-0.7-2.5-1.2-3.2c-0.5-0.7-1-1.4-1.1-3c0-0.1-0.1-0.2-0.3-0.2c-0.1,0-0.2,0.1-0.2,0.3c0.2,1.7,0.7,2.5,1.2,3.2
				c0.5,0.7,1,1.4,1.1,3l0,0l0,0c0.1,0.5,0.1,0.8,0.1,1.2c0,0.9-0.2,1.4-0.4,2.1c-0.2,0.6-0.4,1.3-0.4,2.3c0,0.3,0,0.6,0.1,1
				c0,0.1,0.1,0.2,0.3,0.2C58.2,60.5,58.3,60.4,58.2,60.2L58.2,60.2z"/>
			<path class="st3" d="M50.3,76.1l2,9.2c0,0.1,0.2,0.2,0.3,0.2c0.1,0,0.2-0.2,0.2-0.3l-2-9.2c0-0.1-0.2-0.2-0.3-0.2
				C50.4,75.8,50.3,75.9,50.3,76.1"/>
		</g>
		<g>
			<path id="search-shadow" class="st0" d="M152.1,20.6c5.7,0,10.3,4.6,10.3,10.3c0,5.7-4.6,10.3-10.3,10.3
				c-5.7,0-10.3-4.6-10.3-10.3C141.8,25.2,146.4,20.6,152.1,20.6z"/>
			<path class="st1" d="M141.5,24.3c0.1-0.1,0.2-0.2,0.4-0.4c0.1-0.1,0.1-0.3,0-0.4c-0.1-0.1-0.3-0.1-0.4,0
				c-0.1,0.1-0.2,0.2-0.4,0.4c-0.1,0.1-0.1,0.3,0,0.4C141.3,24.4,141.4,24.4,141.5,24.3L141.5,24.3z"/>
			<path class="st1" d="M139.7,27.7c0.2-0.6,0.5-1.2,0.7-1.9c0.1-0.1,0-0.3-0.1-0.3c-0.1-0.1-0.3,0-0.3,0.1
				c-0.2,0.6-0.5,1.2-0.7,1.9c-0.1,0.1,0,0.3,0.1,0.3C139.5,27.9,139.7,27.8,139.7,27.7L139.7,27.7z"/>
			<path class="st1" d="M144.1,22c1.6-1,3.5-1.5,5.3-1.5c3.4,0,6.6,1.7,8.5,4.8c1,1.6,1.5,3.5,1.5,5.3c0,3.4-1.7,6.6-4.8,8.5
				c-1.6,1-3.5,1.5-5.3,1.5c-3.4,0-6.6-1.7-8.5-4.8l-0.2,0.1l0.2-0.1c-1-1.6-1.5-3.4-1.5-5.1c0-0.2,0-0.4,0-0.6
				c0-0.1-0.1-0.3-0.2-0.3c-0.1,0-0.3,0.1-0.3,0.2c0,0.2,0,0.4,0,0.6c0,1.8,0.5,3.6,1.5,5.4l0,0l0,0c2,3.2,5.4,5,8.9,5
				c1.9,0,3.8-0.5,5.5-1.6c3.2-2,5-5.4,5-8.9c0-1.9-0.5-3.8-1.6-5.5c-2-3.2-5.4-5-8.9-5c-1.9,0-3.8,0.5-5.5,1.6
				c-0.1,0.1-0.2,0.2-0.1,0.3C143.8,22,144,22,144.1,22L144.1,22z"/>
			<path class="st1" d="M163.4,53l-0.1-0.2c-0.4,0.2-0.8,0.3-1.1,0.3c-0.7,0-1.3-0.3-1.6-0.9l0,0l-4.3-6.9l-0.2,0.1l0.2-0.1
				c-0.2-0.4-0.3-0.8-0.3-1.1c0-0.7,0.3-1.3,0.9-1.6c0.4-0.2,0.8-0.3,1.1-0.3c0.7,0,1.3,0.3,1.6,0.9l0,0l4.3,6.9l0.2-0.1l-0.2,0.1
				c0.2,0.4,0.3,0.8,0.3,1.1c0,0.7-0.3,1.3-0.9,1.6L163.4,53l0.1,0.2c0.8-0.4,1.2-1.2,1.2-2.1c0-0.5-0.1-0.9-0.4-1.4l0,0l-4.3-6.9
				l-0.2,0.1l0.2-0.1c-0.4-0.8-1.2-1.2-2.1-1.2c-0.5,0-0.9,0.1-1.4,0.4c-0.8,0.4-1.2,1.2-1.2,2.1c0,0.5,0.1,0.9,0.4,1.4l0,0l4.3,6.9
				l0.2-0.1l-0.2,0.1c0.4,0.8,1.2,1.2,2.1,1.2c0.5,0,0.9-0.1,1.4-0.4L163.4,53z"/>
			<polyline class="st1" points="154.5,39.2 156.4,42.2 156.8,41.9 154.9,39 			"/>
			<path class="st3" d="M153.4,24.4c0.7,0.6,1.3,1.2,1.8,2c0.8,1.4,1.2,2.8,1.2,4.2c0,0.4,0,0.7-0.1,1.1c0,0.1,0.1,0.3,0.2,0.3
				c0.1,0,0.3-0.1,0.3-0.2c0.1-0.4,0.1-0.8,0.1-1.1c0-1.5-0.4-3-1.2-4.5c-0.5-0.9-1.2-1.5-1.9-2.2c-0.1-0.1-0.3-0.1-0.4,0
				C153.3,24.2,153.3,24.3,153.4,24.4L153.4,24.4z"/>
		</g>
		<g>
			<path class="st0" d="M179.6,226.2c0,3.3-2.7,6.1-6.1,6.1h-18.8c-3.3,0-6.1-2.7-6.1-6.1c0-3.1,2.2-5.6,5.1-6.1c0-0.2,0-0.5,0-0.6
				c0-2.1,1.7-3.8,3.8-3.8c1,0,1.9,0.4,2.5,0.9c1.2-2.7,2.7-5.2,7.1-5.2c5.2,0,7.7,4.1,7.7,8.3c0,0.1,0,0.4,0,0.5
				C177.6,220.8,179.6,223.3,179.6,226.2z"/>
			<path class="st1" d="M156.2,230.2h-4.5c-1.6,0-3.1-0.7-4.1-1.7c-1.1-1.1-1.7-2.5-1.7-4.1c0-3,2.1-5.3,4.9-5.8l0.2,0v-0.2
				c0-0.2,0-0.5,0-0.6c0-1,0.4-1.9,1.1-2.5c0.7-0.7,1.5-1.1,2.5-1.1c0.9,0,1.7,0.3,2.3,0.8l0.2,0.2l0.1-0.3c0.3-0.5,0.4-0.9,0.6-1.4
				c0.1-0.1,0-0.3-0.1-0.3c-0.1-0.1-0.3,0-0.3,0.1c-0.3,0.5-0.4,0.9-0.6,1.4l0.2,0.1l0.2-0.2c-0.7-0.5-1.6-0.9-2.6-0.9
				c-2.2,0-4.1,1.8-4.1,4.1c0,0.1,0,0.4,0,0.6h0.2l0-0.2c-3,0.5-5.3,3.1-5.3,6.3c0,3.5,2.8,6.3,6.3,6.3h4.5c0.1,0,0.2-0.1,0.2-0.2
				C156.5,230.3,156.3,230.2,156.2,230.2L156.2,230.2z"/>
			<path class="st1" d="M165.2,209.8c2.2,0.2,3.7,1.3,4.8,2.7c1,1.5,1.6,3.4,1.6,5.3c0,0.1,0,0.4,0,0.5v0.2l0.2,0
				c2.6,0.6,4.6,3,4.6,5.7c0,1.6-0.7,3.1-1.7,4.1c-1.1,1.1-2.5,1.7-4.1,1.7c-0.1,0-0.2,0.1-0.2,0.2s0.1,0.2,0.2,0.2
				c3.5,0,6.3-2.8,6.3-6.3c0-3-2.2-5.5-5-6.2l-0.1,0.2h0.2c0-0.1,0-0.4,0-0.5c0-2-0.5-4-1.7-5.6c-1.1-1.6-2.8-2.7-5.1-3
				c-0.1,0-0.3,0.1-0.3,0.2C165,209.6,165.1,209.7,165.2,209.8L165.2,209.8z"/>
			<path class="st1" d="M160.8,210.5c0.6-0.3,1.4-0.6,2.3-0.7c0.1,0,0.2-0.1,0.2-0.3c0-0.1-0.1-0.2-0.3-0.2
				c-0.9,0.1-1.8,0.4-2.4,0.8c-0.1,0.1-0.2,0.2-0.1,0.3S160.7,210.5,160.8,210.5L160.8,210.5z"/>
			<path class="st1" d="M159.4,211.5c0.1-0.1,0.2-0.2,0.4-0.4c0.1-0.1,0.1-0.3,0-0.4c-0.1-0.1-0.3-0.1-0.4,0
				c-0.1,0.1-0.2,0.2-0.4,0.4c-0.1,0.1-0.1,0.3,0,0.4S159.3,211.6,159.4,211.5L159.4,211.5z"/>
			<path class="st3" d="M159.7,227.3v7.7c0,1.2-1,2.2-2.2,2.2h-0.9c-0.1,0-0.2,0.1-0.2,0.2s0.1,0.2,0.2,0.2h0.9
				c1.5,0,2.7-1.2,2.7-2.7v-7.7c0-0.1-0.1-0.2-0.2-0.2C159.8,227.1,159.7,227.2,159.7,227.3L159.7,227.3z"/>
			<path class="st3" d="M163.6,227.3v5.2c0,1.5,1.2,2.7,2.7,2.7h0.9c0.1,0,0.2-0.1,0.2-0.2s-0.1-0.2-0.2-0.2h-0.9
				c-1.2,0-2.2-1-2.2-2.2v-5.2c0-0.1-0.1-0.2-0.2-0.2C163.7,227.1,163.6,227.2,163.6,227.3L163.6,227.3z"/>
		</g>
		<g>
			<path class="st1" d="M80.4,223.9c0-0.1,0-0.1,0.1-0.2c0.1-0.1,0.1-0.3,0-0.4c-0.1-0.1-0.3-0.1-0.4,0c-0.2,0.2-0.2,0.4-0.2,0.5
				c0,0.1,0.1,0.2,0.2,0.2C80.3,224.1,80.4,224,80.4,223.9L80.4,223.9z"/>
			<path class="st1" d="M80.2,226.2c0-0.4,0-0.7,0-1.1c0-0.1-0.1-0.2-0.2-0.2c-0.1,0-0.2,0.1-0.2,0.2c0,0.4,0,0.7,0,1.1
				c0,0.1,0.1,0.2,0.2,0.2C80,226.5,80.2,226.4,80.2,226.2L80.2,226.2z"/>
			<path class="st0" d="M105.2,233.3H88.3l-5.6,5.7c-0.1,0.1-0.4,0-0.4-0.1v-11.4c0-1,0.1-1.9,0.4-2.7c0.1-0.2,0.1-0.6,0.2-0.9
				c0.1-0.4,0.2-0.7,0.5-1.1c1.9-4.1,5.9-6.9,10.8-6.9c6.6,0,11.9,5.3,11.9,11.9v5C106,232.9,105.7,233.3,105.2,233.3z"/>
			<path class="st1" d="M81.1,221.5c1.8-4,5.8-6.8,10.5-6.8c3.2,0,6.1,1.3,8.2,3.4c2.1,2.1,3.4,5,3.4,8.2v5c0,0.4-0.3,0.6-0.6,0.6
				H85.7l-5.6,5.8l0.2,0.2l-0.2-0.2l0,0v-0.1l0,0l0,0v-0.1l0,0l0,0l0,0l0,0l0,0l0,0l-0.1,0.1h0.1l0-0.1l-0.1,0.1h0.1v-9.5
				c0-0.1-0.1-0.2-0.2-0.2c-0.1,0-0.2,0.1-0.2,0.2l0,9.5c0,0.2,0.1,0.3,0.2,0.3c0.1,0.1,0.2,0.1,0.3,0.1c0.1,0,0.2,0,0.3-0.1l0,0
				l5.5-5.6h16.7c0.3,0,0.6-0.1,0.8-0.3c0.2-0.2,0.3-0.5,0.3-0.8v-5c0-6.7-5.4-12.1-12.1-12.1c-4.9,0-9.1,2.9-11,7.1
				c-0.1,0.1,0,0.3,0.1,0.3C80.9,221.7,81.1,221.6,81.1,221.5L81.1,221.5z"/>
			<path class="st3" d="M85.3,226.2c1.9,1.3,4.2,1.9,6.6,1.9c2.4,0,4.7-0.8,6.6-1.9c0.1-0.1,0.2-0.2,0.1-0.3
				c-0.1-0.1-0.2-0.2-0.3-0.1c-1.8,1.1-4,1.8-6.3,1.8c-2.3,0-4.5-0.6-6.3-1.8c-0.1-0.1-0.3,0-0.3,0.1
				C85.2,226,85.2,226.1,85.3,226.2L85.3,226.2z"/>
		</g>
	</g>
</g>
<g id="Layer_2">
	<g>
		<g id="burst1">
			<path class="st0" d="M195.1,96.7c-0.2,0-0.3-0.1-0.3-0.3v-1.6c0-0.2,0.1-0.3,0.3-0.3s0.3,0.1,0.3,0.3v1.6
				C195.4,96.6,195.3,96.7,195.1,96.7z"/>
			<path class="st0" d="M195.1,91.2c-0.2,0-0.3-0.1-0.3-0.3v-1.6c0-0.2,0.1-0.3,0.3-0.3s0.3,0.1,0.3,0.3v1.6
				C195.4,91,195.3,91.2,195.1,91.2z"/>
			<path class="st0" d="M193.1,93.2h-1.6c-0.2,0-0.3-0.1-0.3-0.3c0-0.2,0.1-0.3,0.3-0.3h1.6c0.2,0,0.3,0.1,0.3,0.3
				C193.4,93,193.2,93.2,193.1,93.2z"/>
			<path class="st0" d="M198.6,93.2h-1.6c-0.2,0-0.3-0.1-0.3-0.3c0-0.2,0.1-0.3,0.3-0.3h1.6c0.2,0,0.3,0.1,0.3,0.3
				C198.9,93,198.8,93.2,198.6,93.2z"/>
			<path class="st0" d="M192.6,95.7c-0.1,0-0.2,0-0.2-0.1c-0.1-0.1-0.1-0.3,0-0.4l1.1-1.1c0.1-0.1,0.3-0.1,0.4,0
				c0.1,0.1,0.1,0.3,0,0.4l-1.1,1.1C192.7,95.7,192.6,95.7,192.6,95.7z"/>
			<path class="st0" d="M196.5,91.8c-0.1,0-0.2,0-0.2-0.1c-0.1-0.1-0.1-0.3,0-0.4l1.1-1.1c0.1-0.1,0.3-0.1,0.4,0
				c0.1,0.1,0.1,0.3,0,0.4l-1.1,1.1C196.6,91.7,196.6,91.8,196.5,91.8z"/>
			<path class="st0" d="M193.7,91.8c-0.1,0-0.2,0-0.2-0.1l-1.1-1.1c-0.1-0.1-0.1-0.3,0-0.4c0.1-0.1,0.3-0.1,0.4,0l1.1,1.1
				c0.1,0.1,0.1,0.3,0,0.4C193.8,91.7,193.8,91.8,193.7,91.8z"/>
			<path class="st0" d="M197.6,95.7c-0.1,0-0.2,0-0.2-0.1l-1.1-1.1c-0.1-0.1-0.1-0.3,0-0.4c0.1-0.1,0.3-0.1,0.4,0l1.1,1.1
				c0.1,0.1,0.1,0.3,0,0.4C197.8,95.7,197.7,95.7,197.6,95.7z"/>
		</g>
		<path class="st4" d="M76.6,122c-1.6,0-2.8-1.3-2.8-2.8c0-1.6,1.3-2.8,2.8-2.8l0,0c1.6,0,2.8,1.3,2.8,2.8
			C79.4,120.7,78.1,122,76.6,122 M76.6,115.3L76.6,115.3c-2.1,0-3.8,1.7-3.8,3.8c0,2.1,1.7,3.8,3.8,3.8c2.1,0,3.8-1.7,3.8-3.8
			C80.4,117,78.7,115.3,76.6,115.3"/>
		<path class="st0" d="M189.6,133.3c1.4,0,2.5,1.1,2.5,2.5s-1.1,2.5-2.5,2.5c-1.4,0-2.5-1.1-2.5-2.5S188.3,133.3,189.6,133.3z"/>
		<g id="burst2">
			<path class="st0" d="M131.2,193.4l-1.4,1.5c-0.2,0.2-0.2,0.5,0,0.7s0.5,0.2,0.7,0l1.4-1.5c0.2-0.2,0.2-0.5,0-0.7
				S131.4,193.2,131.2,193.4"/>
			<path class="st0" d="M125.9,198.7l-1.4,1.4c-0.2,0.2-0.2,0.5,0,0.7s0.5,0.2,0.7,0l1.4-1.4c0.2-0.2,0.2-0.5,0-0.7
				S126.1,198.5,125.9,198.7"/>
			<path class="st0" d="M131.9,200l-1.4-1.4c-0.2-0.2-0.5-0.2-0.7,0c-0.2,0.2-0.2,0.5,0,0.7l1.4,1.4c0.2,0.2,0.5,0.2,0.7,0
				C132.1,200.6,132.1,200.2,131.9,200"/>
			<path class="st0" d="M126.6,194.9l-1.4-1.5c-0.2-0.2-0.5-0.2-0.7,0c-0.2,0.2-0.2,0.5,0,0.7l1.4,1.5c0.2,0.2,0.5,0.2,0.7,0
				C126.8,195.4,126.8,195.1,126.6,194.9"/>
		</g>
		<path class="st4" d="M175.4,62.9c-1.6,0-2.8-1.3-2.8-2.8c0-1.6,1.3-2.8,2.8-2.8l0,0c1.6,0,2.8,1.3,2.8,2.8
			C178.2,61.6,177,62.9,175.4,62.9 M175.4,56.2L175.4,56.2c-2.1,0-3.8,1.7-3.8,3.8c0,2.1,1.7,3.8,3.8,3.8c2.1,0,3.8-1.7,3.8-3.8
			C179.2,57.9,177.5,56.2,175.4,56.2"/>
		<g id="burst-3">
			<path class="st0" d="M22.2,142.7l-1.4,1.4c-0.2,0.2-0.2,0.5,0,0.7c0.2,0.2,0.5,0.2,0.7,0l1.4-1.4c0.2-0.2,0.2-0.5,0-0.7
				C22.7,142.5,22.4,142.5,22.2,142.7"/>
			<path class="st0" d="M17,147.9l-1.5,1.4c-0.2,0.2-0.2,0.5,0,0.7c0.2,0.2,0.5,0.2,0.7,0l1.5-1.4c0.2-0.2,0.2-0.5,0-0.7
				S17.2,147.7,17,147.9"/>
			<path class="st0" d="M22.9,149.3l-1.4-1.4c-0.2-0.2-0.5-0.2-0.7,0c-0.2,0.2-0.2,0.5,0,0.7l1.4,1.4c0.2,0.2,0.5,0.2,0.7,0
				C23.1,149.8,23.1,149.5,22.9,149.3"/>
			<path class="st0" d="M17.7,144l-1.5-1.4c-0.2-0.2-0.5-0.2-0.7,0c-0.2,0.2-0.2,0.5,0,0.7l1.5,1.4c0.2,0.2,0.5,0.2,0.7,0
				S17.9,144.2,17.7,144"/>
		</g>
		<path class="st0" d="M87,59.4c1.4,0,2.5,1.1,2.5,2.5c0,1.4-1.1,2.5-2.5,2.5s-2.5-1.1-2.5-2.5C84.5,60.6,85.6,59.4,87,59.4z"/>
		<path class="st4" d="M240.8,157.8c-1.6,0-2.8-1.3-2.8-2.8c0-1.6,1.3-2.8,2.8-2.8l0,0c1.6,0,2.8,1.3,2.8,2.8
			C243.6,156.5,242.4,157.8,240.8,157.8 M240.8,151.1L240.8,151.1c-2.1,0-3.8,1.7-3.8,3.8c0,2.1,1.7,3.8,3.8,3.8
			c2.1,0,3.8-1.7,3.8-3.8C244.6,152.8,242.9,151.1,240.8,151.1"/>
		<path id="triangle3" class="st4" d="M125.4,231.5C125.4,231.5,125.4,231.5,125.4,231.5l-3.3,7.4c0,0.1,0,0.2,0.1,0.2l7.9-0.9
			c0.1,0,0.2-0.1,0.1-0.2l-4.7-6.4C125.5,231.5,125.5,231.5,125.4,231.5"/>
		<path id="triangle2" class="st0" d="M24.3,73.1l-2.1,5.6c0,0.1,0,0.2,0.1,0.1l5.9-1c0.1,0,0.1-0.1,0.1-0.2l-3.8-4.7
			C24.4,73,24.4,73,24.3,73.1z"/>
		<path id="triangle2_1_" class="st4" d="M189.5,20.8c-0.1,0-0.1,0-0.1,0.1l-5.2,6.1c-0.1,0.1,0,0.2,0.1,0.2l7.8,1.5
			c0,0,0.1-0.1,0.1-0.2l-2.6-7.6C189.6,20.9,189.6,20.8,189.5,20.8"/>
	</g>
</g>
</svg>
