<svg id="Layer_1" data-name="Layer 1" xmlns="http://www.w3.org/2000/svg" xmlns:xlink="http://www.w3.org/1999/xlink" viewBox="0 0 1920.67 390.81"><defs><linearGradient id="linear-gradient" x1="-0.66" y1="154.51" x2="1919.74" y2="154.51" gradientUnits="userSpaceOnUse"><stop offset="0" stop-color="#d4f8ff"/><stop offset="0.05" stop-color="#d5eff8"/><stop offset="0.14" stop-color="#d7d5e6"/><stop offset="0.24" stop-color="#daabc8"/><stop offset="0.37" stop-color="#df729f"/><stop offset="0.51" stop-color="#e5296a"/><stop offset="0.57" stop-color="#e80a54"/><stop offset="0.99" stop-color="#e84b54"/></linearGradient><linearGradient id="linear-gradient-2" x1="-0.67" y1="159.32" x2="1919.7" y2="159.32" gradientUnits="userSpaceOnUse"><stop offset="0" stop-color="#cbf0ff"/><stop offset="0.05" stop-color="#cbe7f8"/><stop offset="0.14" stop-color="#cdcde6"/><stop offset="0.25" stop-color="#cea4c8"/><stop offset="0.38" stop-color="#d16a9f"/><stop offset="0.53" stop-color="#d4216a"/><stop offset="0.57" stop-color="#d50c5b"/><stop offset="0.99" stop-color="#d54754"/></linearGradient><linearGradient id="linear-gradient-3" x1="-0.68" y1="164.22" x2="1919.66" y2="164.22" gradientUnits="userSpaceOnUse"><stop offset="0" stop-color="#c2e8ff"/><stop offset="0.05" stop-color="#c2dff8"/><stop offset="0.14" stop-color="#c2c5e6"/><stop offset="0.26" stop-color="#c29cc8"/><stop offset="0.4" stop-color="#c1629e"/><stop offset="0.55" stop-color="#c11969"/><stop offset="0.57" stop-color="#c10f62"/><stop offset="0.99" stop-color="#c14454"/></linearGradient><linearGradient id="linear-gradient-4" x1="-0.69" y1="169.02" x2="1919.6" y2="169.02" gradientUnits="userSpaceOnUse"><stop offset="0" stop-color="#b9e0ff"/><stop offset="0.06" stop-color="#b8d7f8"/><stop offset="0.15" stop-color="#b7bde6"/><stop offset="0.27" stop-color="#b594c8"/><stop offset="0.41" stop-color="#b25a9f"/><stop offset="0.57" stop-color="#ae116a"/><stop offset="0.99" stop-color="#ae4054"/></linearGradient><linearGradient id="linear-gradient-5" x1="-0.7" y1="165.91" x2="1919.54" y2="165.91" gradientUnits="userSpaceOnUse"><stop offset="0" stop-color="#b1d8ff"/><stop offset="0.06" stop-color="#b0cff8"/><stop offset="0.16" stop-color="#adb5e6"/><stop offset="0.28" stop-color="#a88cc8"/><stop offset="0.43" stop-color="#a2539e"/><stop offset="0.57" stop-color="#9b1471"/><stop offset="0.99" stop-color="#9b3c54"/></linearGradient><linearGradient id="linear-gradient-6" x1="-0.71" y1="161.27" x2="1919.53" y2="161.27" gradientUnits="userSpaceOnUse"><stop offset="0" stop-color="#a8d0ff"/><stop offset="0.06" stop-color="#a6c7f8"/><stop offset="0.16" stop-color="#a2ade6"/><stop offset="0.29" stop-color="#9a84c8"/><stop offset="0.44" stop-color="#904b9e"/><stop offset="0.57" stop-color="#871678"/><stop offset="0.99" stop-color="#873954"/></linearGradient><linearGradient id="linear-gradient-7" x1="-0.72" y1="156.67" x2="1919.6" y2="156.67" gradientUnits="userSpaceOnUse"><stop offset="0" stop-color="#9fc8ff"/><stop offset="0.06" stop-color="#9dbff8"/><stop offset="0.17" stop-color="#96a5e5"/><stop offset="0.31" stop-color="#8c7cc7"/><stop offset="0.46" stop-color="#7e439e"/><stop offset="0.57" stop-color="#74197f"/><stop offset="0.99" stop-color="#743555"/></linearGradient><linearGradient id="linear-gradient-8" x1="-0.73" y1="161.05" x2="1919.67" y2="161.05" gradientUnits="userSpaceOnUse"><stop offset="0" stop-color="#96c1ff"/><stop offset="0.07" stop-color="#93b8f8"/><stop offset="0.18" stop-color="#8b9ee6"/><stop offset="0.32" stop-color="#7e75c7"/><stop offset="0.48" stop-color="#6b3c9e"/><stop offset="0.57" stop-color="#611b86"/><stop offset="0.99" stop-color="#613155"/></linearGradient><linearGradient id="linear-gradient-9" x1="-0.74" y1="165.95" x2="1919.74" y2="165.95" gradientUnits="userSpaceOnUse"><stop offset="0" stop-color="#8db9ff"/><stop offset="0.07" stop-color="#89b0f8"/><stop offset="0.19" stop-color="#7f96e6"/><stop offset="0.33" stop-color="#6e6dc7"/><stop offset="0.5" stop-color="#56349e"/><stop offset="0.57" stop-color="#4d1d8d"/><stop offset="0.99" stop-color="#4d2e55"/></linearGradient><linearGradient id="linear-gradient-10" x1="-0.74" y1="170.85" x2="1919.8" y2="170.85" gradientUnits="userSpaceOnUse"><stop offset="0" stop-color="#85b1ff"/><stop offset="0.07" stop-color="#80a8f8"/><stop offset="0.2" stop-color="#738ee5"/><stop offset="0.35" stop-color="#5e65c7"/><stop offset="0.53" stop-color="#402c9d"/><stop offset="0.57" stop-color="#3a2094"/><stop offset="0.99" stop-color="#3a2a55"/></linearGradient><linearGradient id="linear-gradient-11" x1="-0.75" y1="175.75" x2="1919.84" y2="175.75" gradientUnits="userSpaceOnUse"><stop offset="0" stop-color="#7ca9ff"/><stop offset="0.08" stop-color="#76a0f8"/><stop offset="0.21" stop-color="#6686e5"/><stop offset="0.37" stop-color="#4c5dc7"/><stop offset="0.56" stop-color="#28249d"/><stop offset="0.57" stop-color="#27229c"/><stop offset="0.99" stop-color="#272655"/></linearGradient><linearGradient id="linear-gradient-12" x1="-0.76" y1="180.65" x2="1919.88" y2="180.65" gradientUnits="userSpaceOnUse"><stop offset="0" stop-color="#73a1ff"/><stop offset="0.08" stop-color="#6c98f8"/><stop offset="0.22" stop-color="#587ee5"/><stop offset="0.39" stop-color="#3855c7"/><stop offset="0.57" stop-color="#1325a3"/><stop offset="0.99" stop-color="#132355"/></linearGradient><linearGradient id="linear-gradient-13" x1="-0.76" y1="185.55" x2="1919.91" y2="185.55" gradientUnits="userSpaceOnUse"><stop offset="0" stop-color="#6a99ff"/><stop offset="0.09" stop-color="#6190f8"/><stop offset="0.23" stop-color="#4a76e5"/><stop offset="0.42" stop-color="#234dc6"/><stop offset="0.57" stop-color="#0027aa"/><stop offset="0.99" stop-color="#001f55"/></linearGradient></defs><title>waves</title><path d="M-.5,147.62c344.66,114.54,543.16,78.06,662,20,62.58-30.58,175.07-102.33,308-75,84,17.25,81.63,54.62,168,66,120.59,15.88,174.06-50.52,300-24,51,10.75,58.88,25.15,103,40,76.3,25.67,195.29,30.5,379-69" transform="translate(0.76 -29.19)" fill="none" stroke-miterlimit="10" stroke-dasharray="2 8" stroke="url(#linear-gradient)"/><path d="M-.5,137.78C287,241.15,474.61,234.89,598.94,197.57a631.07,631.07,0,0,0,72.15-27.09c66.77-29.7,184.14-96.29,314.33-66.95,51.64,11.65,70.59,31.31,101.56,45.88,16.49,7.79,35.79,14.1,64.85,17.16,57.32,6,99.25-7.16,142.23-16,27.19-5.45,52.93-9.68,83.55-11.45,21.59-1.33,43.4-2,69.47,3.21,27.24,5.46,41.06,13.36,56.84,20.7a287.36,287.36,0,0,0,44.5,17.28c9.64,2.82,20,5.39,31.39,7.69,18.53,3.7,37,6.93,59.21,7.5,23.92.64,48.07-2.36,76.36-7.14,37.36-6.31,78.48-15.25,124.29-31.36q37.56-13.2,79.83-31.76" transform="translate(0.76 -29.19)" fill="none" stroke-miterlimit="10" stroke-dasharray="2 8" stroke="url(#linear-gradient-2)"/><path d="M-.5,128c291,112.34,481.6,108.43,607.4,71.63,25-7.32,49.81-16.54,73.79-26.23,70.95-28.84,193.17-90.35,320.64-58.9,48.58,12,68.42,31.58,100.52,45.16,17,7.25,36.3,12.74,64.3,14.91,56.11,4.35,97.22-10.5,140.31-16.9,27.44-4.09,51.94-5.67,82.14-7.87,21.89-1.6,42.31-4.42,68.07.37,26.54,5,39.21,13.82,55.67,21a257.14,257.14,0,0,0,44,14.95c9.41,2.37,19.63,4.52,31,6.66,19,3.56,35.8,7.41,58.18,8.09,24.43.78,46.91-3.4,75.06-7.94,37.18-6,77.26-11.69,121.72-24.15,24.14-6.76,50-14.89,77.21-23.78" transform="translate(0.76 -29.19)" fill="none" stroke-miterlimit="10" stroke-dasharray="2 8" stroke="url(#linear-gradient-3)"/><path d="M-.5,118.12C294,239.44,487.51,237.6,614.86,201.58c24.41-6.91,49.91-15.94,75.42-25.36,75.14-28,202.19-84.49,327-50.85,45.52,12.27,66.24,31.86,99.46,44.44,17.54,6.71,36.82,11.37,63.77,12.66,54.91,2.64,95.21-13.73,138.38-17.85,27.71-2.65,50.94-1.72,80.73-4.29,22.18-1.91,41.22-6.93,66.66-2.46,25.87,4.54,37.35,14.3,54.51,21.3,13.55,5.53,25.2,8.87,43.51,12.63,9.18,1.89,19.21,3.63,30.57,5.62,19.42,3.39,34.67,7.89,57.17,8.68,24.92.92,45.73-4.45,73.75-8.75,37-5.68,76-8.14,119.15-16.93,23.23-4.73,48.38-10.34,74.59-15.8" transform="translate(0.76 -29.19)" fill="none" stroke-miterlimit="10" stroke-dasharray="2 8" stroke="url(#linear-gradient-4)"/><path d="M-.5,108.28c298,130.31,494.4,130.5,623.32,95.3,23.81-6.5,50-15.34,77.06-24.5,79.32-27.1,211.19-78.72,333.29-42.8,42.47,12.5,64.06,32.14,98.41,43.73,18.06,6.17,37.33,10,63.22,10.42,53.72.9,93.21-17,136.47-18.81,28-1.2,49.93,2.22,79.31-.7,22.47-2.23,40.12-9.41,65.25-5.3s35.49,14.8,53.34,21.6c13.91,5.3,25.27,7.53,43,10.31,9,1.4,18.8,2.74,30.17,4.58,19.87,3.21,33.53,8.38,56.15,9.27,25.42,1.06,44.56-5.49,72.45-9.55,36.8-5.37,74.73-4.63,116.57-9.72,22.29-2.72,46.72-5.79,72-7.83" transform="translate(0.76 -29.19)" fill="none" stroke-miterlimit="10" stroke-dasharray="2 8" stroke="url(#linear-gradient-5)"/><path d="M-.5,98.45C301,237.74,500.27,239.93,630.78,205.59c23.2-6.11,50.11-14.75,78.69-23.64,83.51-26.23,220.21-73.09,339.61-34.75,39.43,12.66,61.91,32.34,97.36,43,18.61,5.6,37.86,8.58,62.69,8.17,52.53-.87,91.2-20.17,134.54-19.76,28.23.26,48.93,6.15,77.9,2.89,22.76-2.57,39-11.87,63.85-8.14,24.48,3.68,33.61,15.29,52.17,21.9,14.26,5.08,25.34,6.18,42.52,8,8.73.91,18.39,1.84,29.77,3.54,20.31,3,32.39,8.86,55.13,9.86,25.91,1.2,43.39-6.54,71.14-10.36,36.62-5.05,73.42-1.14,114-2.5,21.35-.72,45-1.24,69.35.15" transform="translate(0.76 -29.19)" fill="none" stroke-miterlimit="10" stroke-dasharray="2 8" stroke="url(#linear-gradient-6)"/><path d="M-.5,88.62c305,148.26,507.14,152.4,639.24,119,22.58-5.71,50.22-14.15,80.32-22.77,87.7-25.37,229.24-67.61,345.94-26.7,36.4,12.76,59.71,32.69,96.31,42.29,19.12,5.1,38.39,7.16,62.14,5.92,51.36-2.67,89.2-23.35,132.63-20.71,28.49,1.73,47.92,10.07,76.48,6.48,23-2.91,37.93-14.34,62.44-11,23.79,3.25,31.75,15.8,51,22.2,14.62,4.86,25.42,4.83,42,5.66,8.51.43,18,.94,29.37,2.5,20.76,2.85,31.24,9.36,54.11,10.46,26.41,1.33,42.21-7.58,69.83-11.17,36.43-4.73,72.09,2.3,111.43,4.72,20.39,1.25,43.39,3.31,66.73,8.13" transform="translate(0.76 -29.19)" fill="none" stroke-miterlimit="10" stroke-dasharray="2 8" stroke="url(#linear-gradient-7)"/><path d="M-.5,78.78C308,236,513,242.07,646.7,209.6c22-5.34,50.32-13.56,82-21.92C820.55,163.19,967,125.39,1080.92,169c33.38,12.79,57.53,33,95.25,41.58,19.65,4.56,38.92,5.71,61.61,3.67,50.18-4.51,87.2-26.52,130.7-21.66,28.76,3.21,46.91,14,75.07,10.06,23.34-3.24,36.83-16.78,61-13.81,23.1,2.83,29.88,16.31,49.84,22.5,15,4.64,25.49,3.72,41.54,3.34a192,192,0,0,1,29,1.46c21.22,2.66,30.11,9.84,53.1,11.05,26.91,1.47,41-8.62,68.53-12,36.24-4.42,70.74,5.67,108.85,11.92,19.43,3.19,41.72,7.87,64.11,16.11" transform="translate(0.76 -29.19)" fill="none" stroke-miterlimit="10" stroke-dasharray="2 8" stroke="url(#linear-gradient-8)"/><path d="M-.5,69c312,166.23,519.83,174.12,655.16,142.65,21.35-5,50.42-13,83.59-21,96.08-23.62,247.46-57.21,358.58-10.6,30.4,12.75,55.36,33.25,94.21,40.86,20.17,4,39.44,4.25,61.06,1.42,49-6.4,85.2-29.68,128.78-22.61,29,4.7,45.91,17.88,73.66,13.65,23.63-3.6,35.73-19.23,59.63-16.65,22.4,2.42,28,16.82,48.67,22.8,15.31,4.43,25.56,2.1,41,1a150.08,150.08,0,0,1,28.55.42c21.67,2.46,29,10.32,52.08,11.64,27.4,1.61,39.87-9.67,67.22-12.78,36-4.1,69.42,9,106.29,19.14,18.47,5.09,40,12.42,61.48,24.09" transform="translate(0.76 -29.19)" fill="none" stroke-miterlimit="10" stroke-dasharray="2 8" stroke="url(#linear-gradient-9)"/><path d="M-.5,59.12C315,234.33,525.66,244,662.62,213.6c20.73-4.6,50.52-12.36,85.23-20.18,100.26-22.76,256.73-52.39,364.9-2.55,27.44,12.64,53.17,33.52,93.15,40.14,20.7,3.49,40,2.77,60.53-.82,47.81-8.35,83.18-32.83,126.86-23.57,29.29,6.2,44.89,21.77,72.24,17.24,23.92-4,34.63-21.68,58.22-19.49,21.7,2,26.13,17.34,47.5,23.1,15.66,4.22,25.63.72,40.55-1.3a114.44,114.44,0,0,1,28.15-.62c22.12,2.26,27.83,10.81,51,12.23,27.91,1.75,38.71-10.71,65.92-13.58,35.87-3.8,68.13,12.22,103.72,26.35,17.53,7,38.39,17,58.86,32.07" transform="translate(0.76 -29.19)" fill="none" stroke-miterlimit="10" stroke-dasharray="2 8" stroke="url(#linear-gradient-10)"/><path d="M-.5,49.28c319,184.19,532.48,195.6,671.08,166.33,20.11-4.25,50.63-11.78,86.86-19.33,104.45-21.88,266.2-47.89,371.23,5.5,24.53,12.47,51,33.81,92.1,39.44,21.23,2.94,40.47,1.25,60-3.08,46.59-10.35,81.16-36,124.93-24.52,29.54,7.71,43.89,25.65,70.83,20.82,24.21-4.33,33.53-24.1,56.81-22.32,21,1.6,24.26,17.86,46.34,23.4,16,4,25.7-.67,40-3.62a91,91,0,0,1,27.75-1.66c22.57,2,26.68,11.29,50,12.82,28.4,1.88,37.53-11.75,64.61-14.39,35.68-3.48,66.9,15.41,101.15,33.57a254.35,254.35,0,0,1,56.24,40" transform="translate(0.76 -29.19)" fill="none" stroke-miterlimit="10" stroke-dasharray="2 8" stroke="url(#linear-gradient-11)"/><path d="M-.5,39.45C322,232.62,538.28,245.68,678.54,217.61c19.49-3.9,50.73-11.18,88.49-18.46,108.64-21,276-43.82,377.55,13.55,21.67,12.24,48.82,34.08,91.05,38.72,21.76,2.4,41-.28,59.45-5.33,45.36-12.4,79.11-39,123-25.47,29.77,9.28,42.86,29.47,69.41,24.41,24.48-4.76,32.43-26.5,55.41-25.16,20.31,1.24,22.37,18.41,45.16,23.7,16.35,3.83,25.77-2.07,39.57-5.95a74.51,74.51,0,0,1,27.33-2.69c23,1.8,25.55,11.78,49,13.41,28.9,2,36.36-12.8,63.31-15.2,35.49-3.16,65.72,18.58,98.57,40.79a262.8,262.8,0,0,1,53.62,48" transform="translate(0.76 -29.19)" fill="none" stroke-miterlimit="10" stroke-dasharray="2 8" stroke="url(#linear-gradient-12)"/><path d="M-.5,29.62c326,202.15,545.08,216.78,687,190,73.06-13.79,342.21-79.42,474,4,18.87,11.94,46.64,34.36,90,38,78.57,6.59,118.59-56,180-34,30,10.75,41.85,33.39,68,28,24.77-5.11,31.33-29,54-28,19.62.82,20.51,18.92,44,24,25.72,5.56,33.46-14.24,66-12,23.48,1.61,24.41,12.26,48,14,29.39,2.16,35.19-13.84,62-16,35.31-2.85,64.63,21.72,96,48a283.84,283.84,0,0,1,51,56" transform="translate(0.76 -29.19)" fill="none" stroke-miterlimit="10" stroke-dasharray="2 8" stroke="url(#linear-gradient-13)"/><path d="M-.5,29.62c326,202.15,545.08,216.78,687,190,73.06-13.79,342.21-79.42,474,4,18.87,11.94,46.64,34.36,90,38,78.57,6.59,118.59-56,180-34,30,10.75,41.85,33.39,68,28,24.77-5.11,31.33-29,54-28,19.62.82,20.51,18.92,44,24,25.72,5.56,33.46-14.24,66-12,23.48,1.61,24.41,12.26,48,14,29.39,2.16,35.19-13.84,62-16,35.31-2.85,64.63,21.72,96,48a283.84,283.84,0,0,1,51,56" transform="translate(0.76 -29.19)" fill="none" stroke="#e84b54" stroke-miterlimit="10" stroke-dasharray="2 8"/><path d="M-.45,42.88c295.9,171,501.85,198.31,641.37,183.82,12.53-1.31,24.53-3.06,36.07-4.84,50.44-7.78,186.65-36.58,310.36-32.31,58.56,2,113.7,11.95,155.75,36.33,19,11,46.67,31.13,88.87,35.9,9.94,1.12,18.15,2.16,27.44,1.83,15.72-.56,30.13-5.24,42.47-9.77,44.26-16.43,79.27-35,126.4-18.83,16.42,5.71,28.5,14.15,40.4,20.15,11.23,5.67,21.61,9.18,35,6.3,26.39-5.69,34.59-29.09,60.15-27.63,18.93,1.08,20.14,18.09,42.74,23,24.84,5.41,32.63-13.2,63.9-10.92,22.59,1.66,23.8,11.88,46.46,13.67,28.28,2.24,34.18-12.72,60-14.56,34.18-2.3,62.63,21.39,92.94,46.7a276.57,276.57,0,0,1,49.61,54" transform="translate(0.76 -29.19)" fill="none" stroke="#e8545c" stroke-miterlimit="10" stroke-dasharray="2 8"/><path d="M-.39,56.14c292.7,156.61,495.5,183.54,632.45,172,12.29-1.06,24.06-2.63,35.42-4,51.32-6.16,183.7-30.53,305.1-27.71,57.52,1.3,111.37,9.75,153.11,31.74,19.18,10.1,46.72,28.13,87.76,33.8,10.86,1.51,18.76,3.72,29.25,3.9,17.39.31,33.45-5.5,46.1-10.28C1336,237.71,1374,225,1426.06,242.4c17.48,5.86,31,14.16,44.61,19.78,12.75,5.27,24.17,8.26,38.27,5.12,28-6.27,37.85-29.24,66.3-27.26,18.25,1.27,19.77,17.26,41.48,22,24,5.24,31.8-12.17,61.8-9.84,21.69,1.7,23.18,11.5,44.93,13.33,27.16,2.32,33.17-11.69,58-13.11,33-1.9,60.63,21,89.89,45.38a270,270,0,0,1,48.21,52" transform="translate(0.76 -29.19)" fill="none" stroke="#e95c64" stroke-miterlimit="10" stroke-dasharray="2 8"/><path d="M-.34,69.41C289.16,211.59,488.81,238.16,623.2,229.47c12-.8,23.6-2.17,34.76-3.13,52.25-4.5,180.76-24.49,299.85-23.11,56.48.6,109.08,7.54,150.48,27.16,19.35,9.18,46.75,25.29,86.63,31.7,11.8,1.9,19.37,5.25,31.06,6,19.06,1.16,36.76-5.79,49.75-10.79,50.15-19.34,91-26.06,148.11-7.46,18.53,6,33.52,14.18,48.82,19.41,14.26,4.87,26.73,7.33,41.5,3.94,29.64-6.86,41.1-29.42,72.45-26.9,17.57,1.41,19.4,16.42,40.21,21,23.09,5.08,31-11.14,59.71-8.76,20.8,1.74,22.57,11.11,43.39,13,26,2.4,32.16-10.61,55.93-11.67,31.93-1.41,58.63,20.72,86.83,44.08a263.32,263.32,0,0,1,46.82,50.05" transform="translate(0.76 -29.19)" fill="none" stroke="#e9656c" stroke-miterlimit="10" stroke-dasharray="2 8"/><path d="M-.29,82.67C286,210.42,482.52,236.65,614.35,230.86c11.8-.55,23.13-1.71,34.1-2.28,53.2-2.79,177.82-18.45,294.59-18.52,55.45-.09,106.84,5.3,147.85,22.59,19.55,8.24,46.77,22.59,85.5,29.6,12.74,2.3,20,6.79,32.87,8,20.73,2,40.08-6.08,53.39-11.31,53.08-20.85,96.9-21.51,159-1.78,19.57,6.22,36,14.21,53,19,15.77,4.49,29.28,6.4,44.73,2.76,31.26-7.44,44.34-29.6,78.59-26.53,16.89,1.52,19,15.59,39,20,22.21,4.92,30.16-10.11,57.61-7.69,19.9,1.78,22,10.73,41.86,12.67,24.93,2.47,31.15-9.54,53.9-10.23,30.81-.93,56.58,20.44,83.77,42.77A258,258,0,0,1,1919.5,358" transform="translate(0.76 -29.19)" fill="none" stroke="#e96d74" stroke-miterlimit="10" stroke-dasharray="2 8"/><path d="M-.24,95.93c283.12,113.32,476.47,139.2,605.73,136.31,11.55-.29,22.7-2.11,33.45-1.42,54.08,3.45,174.87-12.41,289.33-13.92,54.41-.79,104.64,3,145.21,18,19.77,7.3,46.79,20,84.39,27.5,13.67,2.73,20.59,8.31,34.67,10.09,22.4,2.83,43.39-6.37,57-11.82,56-22.36,102.77-17,169.83,3.9,20.62,6.42,38.53,14.24,57.24,18.68,17.28,4.1,31.84,5.47,48,1.57,32.89-8,47.59-29.81,84.74-26.16,16.21,1.59,18.68,14.76,37.7,19,21.33,4.77,29.33-9.07,55.51-6.6,19,1.82,21.34,10.35,40.32,12.33,23.82,2.55,30.15-8.46,51.87-8.78,29.7-.45,54.58,20.11,80.73,41.46a252.49,252.49,0,0,1,44,46.08" transform="translate(0.76 -29.19)" fill="none" stroke="#ea767d" stroke-miterlimit="10" stroke-dasharray="2 8"/><path d="M-.18,109.2c279.92,98.89,470.11,124.42,596.82,124.42,11.3,0,22.28-1.69,32.79-.57,54.88,5.87,171.92-6.35,284.07-9.31,53.37-1.49,102.48.71,142.58,13.43,20,6.34,46.79,17.47,83.26,25.39,14.61,3.18,21.2,9.84,36.49,12.16,24.07,3.65,46.69-6.67,60.67-12.33,58.92-23.88,108.62-12.39,180.69,9.59,21.65,6.6,41,14.27,61.44,18.3,18.79,3.72,34.4,4.55,51.19.4,34.51-8.61,50.83-30,90.89-25.8,15.54,1.64,18.31,13.93,36.44,18,20.45,4.61,28.5-8,53.41-5.52,18.11,1.86,20.73,10,38.79,12,22.7,2.63,29.15-7.89,49.84-7.34,28.57.76,52.57,19.79,77.67,40.15a247.23,247.23,0,0,1,42.64,44.11" transform="translate(0.76 -29.19)" fill="none" stroke="#ea7e85" stroke-miterlimit="10" stroke-dasharray="2 8"/><path d="M-.13,122.46C276.59,206.92,463.64,232.1,587.78,235c11.06.22,21.88-1.23,32.14.28,55.67,8.22,169-.31,278.81-4.72,52.33-2.18,100.35-1.64,139.94,8.85,20.26,5.37,46.79,15,82.15,23.3,15.54,3.64,21.81,11.36,38.29,14.22,25.74,4.47,50-7,64.31-12.84,61.84-25.42,114.48-7.82,191.55,15.27,22.69,6.8,43.52,14.31,65.65,17.94,20.29,3.33,37,3.61,54.42-.79,36.13-9.19,54.08-30.28,97-25.43,14.86,1.68,17.94,13.1,35.17,17,19.58,4.44,27.68-7,51.32-4.45,17.22,1.91,20.12,9.58,37.25,11.66,21.59,2.7,28.14-6.28,47.82-5.89,27.47.53,50.57,19.46,74.61,38.84a241.82,241.82,0,0,1,41.25,42.12" transform="translate(0.76 -29.19)" fill="none" stroke="#ea878d" stroke-miterlimit="10" stroke-dasharray="2 8"/><path d="M-.08,135.72c273.53,70,457.43,94.87,579,100.67,10.82.48,21.33.33,31.49,1.14,57.24,4.59,166,5.73,273.55-.12,51.3-2.89,98.25-4.06,137.31,4.27,20.53,4.38,46.77,12.65,81,21.2,16.48,4.12,22.42,12.88,40.1,16.29,27.42,5.28,53.31-7.27,67.95-13.36,64.76-26.95,120.33-3.24,202.41,20.95,23.73,7,46,14.35,69.86,17.58,21.8,3,39.51,2.68,57.65-2,37.76-9.77,57.32-30.56,103.19-25.06,14.18,1.7,17.57,12.27,33.91,16,18.7,4.28,26.85-6,49.22-3.37,16.32,1.95,19.51,9.16,35.72,11.33,20.48,2.73,27.14-5.19,45.79-4.46,26.36,1,48.56,19.14,71.56,37.54a237.32,237.32,0,0,1,39.85,40.14" transform="translate(0.76 -29.19)" fill="none" stroke="#eb9095" stroke-miterlimit="10" stroke-dasharray="2 8"/><path d="M0,149c270.34,55.59,451.07,80.33,570.1,88.79,10.56.75,20.88.87,30.82,2,58.28,6.59,163.09,11.78,268.3,4.48,50.26-3.59,96.17-6.52,134.68-.31,20.8,3.36,46.73,10.3,79.89,19.1,17.41,4.62,23,14.39,41.91,18.35,29.1,6.1,56.62-7.57,71.6-13.87,67.67-28.5,126.18,1.35,213.26,26.64,24.77,7.19,48.53,14.38,74.07,17.2,23.31,2.58,42.07,1.75,60.88-3.15,39.38-10.36,60.57-30.87,109.34-24.7,13.51,1.71,17.2,11.44,32.65,15,17.82,4.13,26-4.93,47.12-2.28,15.43,2,18.89,8.77,34.18,11,19.37,2.81,26.14-4.09,43.77-3,25.25,1.54,46.56,18.81,68.5,36.23a232.59,232.59,0,0,1,38.46,38.15" transform="translate(0.76 -29.19)" fill="none" stroke="#eb989d" stroke-miterlimit="10" stroke-dasharray="2 8"/><path d="M0,162.25c267.14,41.17,444.7,65.56,561.18,76.91,10.32,1,20.44,1.43,30.17,2.85,59.3,8.67,160.15,17.82,263,9.07,49.22-4.28,94.11-9,132-4.88,21.09,2.31,46.7,8,78.78,17,18.32,5.14,23.65,15.91,43.72,20.41,30.77,6.91,59.92-7.87,75.23-14.38,70.58-30.05,132,5.94,224.12,32.32,25.81,7.4,51,14.42,78.28,16.84,24.82,2.2,44.63.82,64.11-4.34,41-10.94,63.83-31.21,115.48-24.33,12.84,1.71,16.84,10.6,31.4,14,16.94,4,25.2-3.9,45-1.21,14.53,2,18.28,8.39,32.65,10.66,18.25,2.88,25.14-3,41.74-1.57,24.14,2.06,44.56,18.48,65.45,34.93a229,229,0,0,1,37.06,36.17" transform="translate(0.76 -29.19)" fill="none" stroke="#eba1a5" stroke-miterlimit="10" stroke-dasharray="2 8"/><path d="M.08,175.51c264,26.74,438.35,50.78,552.27,65,10.08,1.27,20,2,29.52,3.71,60.31,10.82,157.2,23.86,257.78,13.67,48.18-5,92.06-11.61,129.41-9.46,21.38,1.22,46.64,5.72,77.65,14.89,19.23,5.7,24.26,17.43,45.53,22.49,32.45,7.71,63.23-8.18,78.87-14.9,73.49-31.61,137.88,10.53,235,38,26.85,7.6,53.53,14.47,82.49,16.47,26.33,1.83,47.18-.1,67.34-5.51,42.63-11.53,67.09-31.59,121.63-24,12.17,1.7,16.47,9.77,30.13,13,16.07,3.81,24.38-2.91,42.93-.13,13.64,2.05,17.67,8,31.11,10.32,17.14,3,24.15-1.87,39.72-.12,23,2.58,42.56,18.14,62.39,33.61a226.58,226.58,0,0,1,35.67,34.2" transform="translate(0.76 -29.19)" fill="none" stroke="#eba9ad" stroke-miterlimit="10" stroke-dasharray="2 8"/><path d="M.13,188.78c260.75,12.3,432,36,543.37,53.15,9.83,1.51,19.53,2.58,28.86,4.56,61.29,13.05,154.26,29.91,252.53,18.27,47.14-5.68,90.17-10.45,126.77-14,21.56-2.12,46.58,3.47,76.52,12.8,20.14,6.27,24.88,18.94,47.34,24.55,34.13,8.52,66.54-8.48,82.52-15.41,76.39-33.17,143.73,15.13,245.83,43.69,27.89,7.8,56,14.56,86.7,16.1,27.83,1.5,49.74-1,70.57-6.7,44.25-12.11,70.35-32,127.78-23.6,11.5,1.69,16.11,8.94,28.87,12,15.19,3.65,23.55-1.87,40.82,1,12.76,2.08,17.07,7.62,29.59,10,16,3,23.15-.75,37.69,1.31,21.93,3.12,40.56,17.81,59.33,32.31a225.21,225.21,0,0,1,34.28,32.21" transform="translate(0.76 -29.19)" fill="none" stroke="#ecb2b5" stroke-miterlimit="10" stroke-dasharray="2 8"/><path d="M.18,202c257.56-2.12,425.66,21.2,534.46,41.27,9.58,1.77,19.07,3.17,28.21,5.42,62.25,15.36,151.31,36,247.27,22.87,46.1-6.38,88.25-13.47,124.13-18.63,21.76-3.13,46.51,1.25,75.41,10.7,21,6.88,25.49,20.45,49.14,26.61,35.81,9.33,69.85-8.78,86.16-15.92,79.3-34.73,149.52,19.95,256.69,49.37,28.92,8.06,58.54,14.6,90.91,15.73,29.34,1.12,52.3-2,73.8-7.88,45.88-12.69,73.63-32.5,133.93-23.23,10.83,1.67,15.74,8.11,27.61,11,14.31,3.49,22.73-.84,38.72,2,11.86,2.13,16.45,7.24,28.05,9.66,14.92,3.11,22.15.38,35.67,2.76,20.82,3.66,38.56,17.46,56.28,31A224.65,224.65,0,0,1,1919.5,395" transform="translate(0.76 -29.19)" fill="none" stroke="#ecbbbd" stroke-miterlimit="10" stroke-dasharray="2 8"/><path d="M.24,215.3c254.36-16.55,419.35,6.19,525.54,29.4,9.35,2,18.61,3.76,27.56,6.27,63.17,17.75,148.36,42,242,27.46,45.06-7.08,85.83-19.65,121.5-23.2a170,170,0,0,1,74.28,8.6c21.9,7.51,26.11,22,51,28.67,37.48,10.14,73.15-9.08,89.79-16.43,82.2-36.3,155.38,24.53,267.55,55.05,30,8.26,61,14.64,95.12,15.37,30.85.74,54.85-2.89,77-9.06,47.5-13.28,76.92-33.06,140.08-22.87,10.16,1.64,15.37,7.28,26.35,10,13.43,3.33,21.9.19,36.62,3.11,11,2.17,15.84,6.85,26.52,9.32,13.8,3.19,21.15,1.53,33.63,4.21,19.72,4.22,36.58,17.12,53.23,29.69a227.67,227.67,0,0,1,31.49,28.24" transform="translate(0.76 -29.19)" fill="none" stroke="#ecc3c5" stroke-miterlimit="10" stroke-dasharray="2 8"/><path d="M.29,228.56c251.17-31,413-8.58,516.64,17.52,9.09,2.26,18.14,4.37,26.89,7.13,64.06,20.21,145.43,48,236.76,32.06,44-7.78,83.72-22.43,118.87-27.78,22.48-3.43,46.31-3.16,73.16,6.5,22.76,8.18,26.73,23.42,52.76,30.74,39.19,10.86,76.44-9.42,93.44-17,85-38,161.22,29.11,278.4,60.74,31,8.45,63.55,14.67,99.33,15,32.36.35,57.41-3.83,80.26-10.25,49.12-13.86,80.22-33.68,146.23-22.49,9.49,1.61,15,6.44,25.08,9,12.56,3.17,21.08,1.22,34.53,4.19,10.07,2.21,15.23,6.47,25,9,12.69,3.27,20.15,2.69,31.61,5.65,18.61,4.81,34.59,16.78,50.17,28.39a233.36,233.36,0,0,1,30.1,26.26" transform="translate(0.76 -29.19)" fill="none" stroke="#edccce" stroke-miterlimit="10" stroke-dasharray="2 8"/><path d="M.34,241.83c248-45.42,406.66-23.37,507.73,5.64,8.85,2.51,17.67,5,26.24,8,64.88,22.75,142.48,54.08,231.5,36.66,43-8.48,81.57-25.24,116.23-32.36,22.72-4.67,46.21-5.34,72,4.39,23.61,8.9,27.35,24.94,54.57,32.81,40.86,11.68,79.75-9.72,97.08-17.46,87.94-39.58,167.08,33.69,289.26,66.42,32,8.65,66,14.71,103.54,14.63,33.87,0,60-4.75,83.49-11.43,50.75-14.44,83.55-34.41,152.37-22.12,8.84,1.57,14.64,5.61,23.83,7.94,11.68,3,20.25,2.27,32.43,5.27,9.18,2.27,14.62,6.1,23.45,8.66,11.57,3.35,19.14,3.85,29.58,7.09,17.49,5.42,32.6,16.42,47.12,27.07a246,246,0,0,1,28.7,24.28" transform="translate(0.76 -29.19)" fill="none" stroke="#edd4d6" stroke-miterlimit="10" stroke-dasharray="2 8"/><path d="M.39,255.09c244.78-59.84,400.32-38.15,498.82-6.24,8.61,2.77,17.19,5.59,25.59,8.84,65.65,25.37,139.53,60.12,226.24,41.25,42-9.17,79.38-28.06,113.6-36.94,22.92-5.94,46.08-7.51,70.91,2.3,24.43,9.65,28,26.46,56.38,34.87,42.54,12.51,83.06-10,100.72-18,90.85-41.13,172.94,38.27,300.12,72.1,33.09,8.85,68.56,14.75,107.75,14.27A316.64,316.64,0,0,0,1587.24,355c52.37-15,86.9-35.26,158.52-21.76,8.17,1.54,14.27,4.77,22.57,6.94,10.8,2.85,19.42,3.31,30.33,6.35,8.28,2.31,14,5.72,21.91,8.32,10.45,3.44,18.13,5,27.56,8.53,16.36,6.06,30.62,16.07,44.06,25.77a267.07,267.07,0,0,1,27.31,22.3" transform="translate(0.76 -29.19)" fill="none" stroke="#edddde" stroke-miterlimit="10" stroke-dasharray="2 8"/><path d="M.45,268.35c241.58-74.27,394-52.92,489.91-18.12,8.36,3,16.69,6.22,24.93,9.7,66.36,28.05,136.59,66.17,221,45.85,40.91-9.87,77.15-30.92,111-41.52,23.1-7.24,45.93-9.67,69.79.2,25.23,10.44,28.58,28,58.19,36.93,44.21,13.33,86.36-10.31,104.36-18.48,93.76-42.67,178.79,42.85,311,77.79,34.12,9,71,14.78,112,13.89a337.61,337.61,0,0,0,90-13.79c54-15.61,90.29-36.26,164.67-21.39,7.51,1.5,13.9,3.94,21.31,5.94,9.92,2.69,18.59,4.36,28.23,7.43,7.38,2.36,13.38,5.35,20.38,8,9.33,3.54,17.1,6.24,25.53,10,15.19,6.73,28.63,15.71,41,24.46a316.5,316.5,0,0,1,25.92,20.31" transform="translate(0.76 -29.19)" fill="none" stroke="#eee5e6" stroke-miterlimit="10" stroke-dasharray="2 8"/><path d="M.5,281.62c238.39-88.71,387.62-67.71,481-30,75.43,30.46,148,85.38,240,61,67.61-17.93,121.2-72.21,177-48,26,11.28,29.19,29.5,60,39,45.89,14.14,89.67-10.62,108-19,121.45-55.54,229.17,103.34,438,97,122-3.71,151.5-60,264-36,67.47,14.37,118.28,47.68,151,74" transform="translate(0.76 -29.19)" fill="none" stroke="#eee" stroke-miterlimit="10" stroke-dasharray="2 8"/></svg>