<svg xmlns="http://www.w3.org/2000/svg" viewBox="0 0 235 235"><title>ucd</title><g id="more-stuff"><path d="M173.3,111.4a.5.5,0,0,1-.4-.58l.37-2.07a.5.5,0,0,1,1,.18l-.37,2.06A.5.5,0,0,1,173.3,111.4Z" fill="#dce1e5"/><path d="M174.63,104a.5.5,0,0,1-.4-.58l.37-2.07a.5.5,0,0,1,.58-.4.49.49,0,0,1,.4.58l-.37,2.06A.5.5,0,0,1,174.63,104Z" fill="#dce1e5"/><path d="M171.49,106.19l-2.06-.37a.5.5,0,1,1,.17-1l2.07.37a.5.5,0,0,1,.4.58A.49.49,0,0,1,171.49,106.19Z" fill="#dce1e5"/><path d="M178.87,107.52l-2.06-.37a.5.5,0,1,1,.17-1l2.07.37a.5.5,0,0,1,.4.58A.49.49,0,0,1,178.87,107.52Z" fill="#dce1e5"/><path d="M170.2,109.42a.57.57,0,0,1-.32-.21.51.51,0,0,1,.12-.7l1.75-1.21a.5.5,0,0,1,.69.13.49.49,0,0,1-.12.69l-1.75,1.21A.49.49,0,0,1,170.2,109.42Z" fill="#dce1e5"/><path d="M176.36,105.14a.48.48,0,0,1-.33-.21.5.5,0,0,1,.13-.69L177.9,103a.51.51,0,0,1,.7.12.5.5,0,0,1-.13.7l-1.74,1.21A.5.5,0,0,1,176.36,105.14Z" fill="#dce1e5"/><path d="M172.62,104.47a.51.51,0,0,1-.32-.21l-1.22-1.74a.51.51,0,0,1,.13-.7.5.5,0,0,1,.7.13l1.21,1.74a.51.51,0,0,1-.13.7A.55.55,0,0,1,172.62,104.47Z" fill="#dce1e5"/><path d="M176.89,110.62a.5.5,0,0,1-.32-.2l-1.21-1.75a.49.49,0,0,1,.13-.69.5.5,0,0,1,.69.12l1.21,1.75a.5.5,0,0,1-.12.69A.48.48,0,0,1,176.89,110.62Z" fill="#dce1e5"/><path d="M76.05,111.45a2.2,2.2,0,1,1,2.55-1.77,2.2,2.2,0,0,1-2.55,1.77m1-5.31a3.2,3.2,0,1,0,2.58,3.71A3.19,3.19,0,0,0,77,106.14" fill="#fdedee"/><circle cx="163.91" cy="138.67" r="2" fill="#dce1e5"/><path d="M108.07,177.88a.49.49,0,0,1-.21-.89l1.29-1a.52.52,0,0,1,.71.09.51.51,0,0,1-.1.7l-1.29,1A.48.48,0,0,1,108.07,177.88Z" fill="#dce1e5"/><path d="M103.1,181.26a.51.51,0,0,1-.32-.21.5.5,0,0,1,.12-.7l1.28-.89a.5.5,0,0,1,.57.83l-1.28.88A.5.5,0,0,1,103.1,181.26Z" fill="#dce1e5"/><path d="M108.41,182.21a.5.5,0,0,1-.32-.2l-.89-1.28a.51.51,0,0,1,.13-.7.49.49,0,0,1,.69.13l.89,1.28a.5.5,0,0,1-.12.69A.48.48,0,0,1,108.41,182.21Z" fill="#dce1e5"/><path d="M104.92,177.32a.51.51,0,0,1-.33-.23l-.87-1.37a.49.49,0,0,1,.16-.69.5.5,0,0,1,.69.15l.87,1.38a.5.5,0,0,1-.52.76Z" fill="#dce1e5"/><path d="M163,78.66a2.2,2.2,0,1,1,2.56-1.78A2.2,2.2,0,0,1,163,78.66m1-5.31a3.2,3.2,0,1,0,2.58,3.71A3.2,3.2,0,0,0,164,73.35" fill="#fdedee"/><path d="M28.74,121.93a.46.46,0,0,1-.32-.21.49.49,0,0,1,.12-.69l1.28-.89a.5.5,0,1,1,.57.82l-1.28.89A.49.49,0,0,1,28.74,121.93Z" fill="#dce1e5"/><path d="M23.76,125.3a.48.48,0,0,1-.33-.23.49.49,0,0,1,.15-.68l1.38-.88a.51.51,0,0,1,.69.16.5.5,0,0,1-.15.69l-1.38.87A.51.51,0,0,1,23.76,125.3Z" fill="#dce1e5"/><path d="M29.08,126.26a.51.51,0,0,1-.32-.21l-.89-1.28a.5.5,0,0,1,.82-.57l.89,1.28a.51.51,0,0,1-.13.7A.55.55,0,0,1,29.08,126.26Z" fill="#dce1e5"/><path d="M25.69,121.38a.51.51,0,0,1-.31-.19l-1-1.3a.5.5,0,1,1,.8-.6l1,1.29a.51.51,0,0,1-.1.7A.52.52,0,0,1,25.69,121.38Z" fill="#dce1e5"/><circle cx="92.9" cy="65.31" r="2" fill="#dce1e5"/><path d="M201.42,163.41a2.2,2.2,0,1,1,2.56-1.78,2.2,2.2,0,0,1-2.56,1.78m1-5.32a3.2,3.2,0,1,0,2.58,3.72,3.21,3.21,0,0,0-2.58-3.72" fill="#fdedee"/><path d="M99.19,205.57a.08.08,0,0,0-.08.06L95.51,211c0,.1,0,.2.06.21l6.42.45c.1,0,.22-.06.14-.18l-2.82-5.79a.25.25,0,0,0-.12-.1" fill="#fdedee"/><path d="M41.5,65.19,39,69.32c0,.1,0,.2.08.12L44,69.5c.1,0,.12-.08.13-.18L41.74,65Z" fill="#dce1e5"/><path d="M180.27,47.34a.09.09,0,0,0-.11.06l-5,4.08c-.11.08,0,.19.07.21l6,2.3a.36.36,0,0,0,.14-.18l-1-6.38s0-.08-.08-.09" fill="#fdedee"/></g></svg>