<svg xmlns="http://www.w3.org/2000/svg" viewBox="0 0 235 235"><title>ucd</title><g id="circle"><path d="M210.12,59.86l.13.21.52.84a.5.5,0,1,0,.85-.52c-.17-.28-.34-.57-.52-.85l-.13-.21a.5.5,0,1,0-.85.53Zm-3.28-5,.56.81a.5.5,0,0,0,.7.13.49.49,0,0,0,.13-.69l-.57-.83a.5.5,0,1,0-.82.58Zm-3.55-4.79.61.78a.5.5,0,1,0,.79-.61c-.2-.26-.4-.53-.61-.79a.5.5,0,0,0-.79.62Zm-3.8-4.59.65.75a.51.51,0,0,0,.71.05.49.49,0,0,0,.05-.7l-.66-.76a.48.48,0,0,0-.7,0,.49.49,0,0,0,0,.7Zm-4-4.37.69.71a.49.49,0,0,0,.7,0,.5.5,0,0,0,0-.71l-.7-.72a.5.5,0,1,0-.71.7ZM191.16,37l.73.68a.5.5,0,0,0,.69-.73l-.74-.68a.5.5,0,0,0-.71,0,.5.5,0,0,0,0,.7Zm-4.5-3.9.77.63a.5.5,0,0,0,.64-.76l-.77-.64a.5.5,0,0,0-.71.07.5.5,0,0,0,.07.7ZM182,29.44l.8.59a.5.5,0,1,0,.6-.8l-.81-.59a.5.5,0,0,0-.7.1.51.51,0,0,0,.11.7Zm-4.89-3.37.83.54a.5.5,0,1,0,.55-.83l-.83-.55a.5.5,0,1,0-.55.84ZM172,23l.86.5a.5.5,0,0,0,.5-.86l-.86-.51a.5.5,0,0,0-.68.19A.49.49,0,0,0,172,23Zm-5.24-2.82.89.45a.5.5,0,0,0,.46-.89l-.89-.46a.51.51,0,0,0-.46.9Zm-5.38-2.54.91.4a.5.5,0,0,0,.66-.25.5.5,0,0,0-.25-.66l-.92-.4a.49.49,0,0,0-.66.25A.5.5,0,0,0,161.37,17.6Zm-5.51-2.24.92.35a.5.5,0,1,0,.36-.93l-.93-.36a.52.52,0,0,0-.65.3.5.5,0,0,0,.3.64Zm-5.64-1.94.95.3a.49.49,0,0,0,.63-.32.51.51,0,0,0-.32-.63l-1-.3a.49.49,0,0,0-.62.33.49.49,0,0,0,.32.62Zm-5.73-1.63,1,.25a.51.51,0,0,0,.62-.35.5.5,0,0,0-.36-.61l-1-.26a.51.51,0,0,0-.61.36.51.51,0,0,0,.36.61Zm-5.81-1.31,1,.19a.49.49,0,0,0,.59-.38.52.52,0,0,0-.39-.6l-1-.19a.49.49,0,0,0-.59.39.51.51,0,0,0,.39.59Zm-5.87-1,1,.14a.5.5,0,0,0,.15-1l-1-.14a.5.5,0,0,0-.57.42.51.51,0,0,0,.43.57Zm-5.93-.68,1,.09a.51.51,0,0,0,.55-.45.5.5,0,0,0-.45-.55l-1-.09a.5.5,0,0,0-.09,1Zm-5.95-.36,1,0a.5.5,0,0,0,.52-.48.49.49,0,0,0-.47-.52l-1,0a.5.5,0,0,0,0,1Zm-6,0,1,0a.49.49,0,0,0,.49-.5.5.5,0,0,0-.5-.5l-1,0a.52.52,0,0,0-.49.51.5.5,0,0,0,.51.49Zm-6,.3,1-.08a.49.49,0,0,0,.46-.53.5.5,0,0,0-.53-.46l-1,.07a.5.5,0,0,0,.07,1Zm-5.93.62,1-.13a.5.5,0,1,0-.12-1l-1,.13a.5.5,0,0,0-.43.56A.51.51,0,0,0,103.07,9.33Zm-5.9.95c.33-.06.65-.13,1-.18a.5.5,0,0,0,.4-.58A.49.49,0,0,0,98,9.11l-1,.18a.5.5,0,0,0,.19,1Zm-5.84,1.27,1-.24a.49.49,0,0,0,.37-.6.5.5,0,0,0-.6-.37l-1,.24a.5.5,0,0,0,.24,1Zm-5.74,1.59,1-.29a.5.5,0,0,0,.34-.62.51.51,0,0,0-.62-.34l-1,.29a.5.5,0,0,0-.34.63.51.51,0,0,0,.63.33ZM79.94,15l.94-.34a.5.5,0,1,0-.34-.94l-.94.34a.5.5,0,1,0,.34.94Zm-5.53,2.21.91-.39a.5.5,0,1,0-.39-.92l-.92.39a.5.5,0,1,0,.4.92ZM69,19.76l.89-.44a.5.5,0,1,0-.43-.9l-.9.44a.5.5,0,0,0-.23.67.51.51,0,0,0,.67.23Zm-5.26,2.79.87-.48a.5.5,0,0,0,.19-.68.5.5,0,0,0-.68-.2l-.87.49a.51.51,0,0,0-.19.69A.49.49,0,0,0,63.74,22.55Zm-5.1,3.08.84-.53a.5.5,0,0,0-.53-.85l-.85.54a.5.5,0,0,0,.54.84ZM53.71,29l.81-.58a.5.5,0,0,0-.58-.82l-.81.59a.49.49,0,0,0-.12.69.5.5,0,0,0,.7.12ZM49,32.59l.77-.62a.51.51,0,0,0,.09-.71.52.52,0,0,0-.71-.08l-.78.63a.49.49,0,0,0-.07.7.5.5,0,0,0,.7.08Zm-4.54,3.86.74-.66a.51.51,0,0,0,0-.71.5.5,0,0,0-.71,0l-.75.66a.5.5,0,1,0,.67.75Zm-4.32,4.1.71-.7a.51.51,0,0,0,0-.71.5.5,0,0,0-.71,0l-.71.7a.51.51,0,0,0,0,.71.5.5,0,0,0,.71,0ZM36,44.89l.67-.74a.51.51,0,0,0,0-.71.5.5,0,0,0-.71,0c-.23.24-.45.49-.67.74a.5.5,0,0,0,0,.71.5.5,0,0,0,.7,0Zm-3.84,4.55.62-.77A.5.5,0,1,0,32,48q-.32.38-.63.78a.5.5,0,1,0,.78.62ZM28.6,54.19l.58-.8a.5.5,0,0,0-.12-.7.5.5,0,0,0-.69.11l-.59.81a.51.51,0,0,0,.12.7.5.5,0,0,0,.7-.12Zm-3.31,4.94c.17-.28.35-.56.53-.83a.51.51,0,0,0-.15-.7.5.5,0,0,0-.69.15l-.54.85a.49.49,0,0,0,.16.69.51.51,0,0,0,.69-.16Zm-3,5.11.48-.86a.5.5,0,1,0-.86-.5l-.5.87a.5.5,0,0,0,.2.68.5.5,0,0,0,.68-.19Zm-2.76,5.27c.15-.29.29-.59.44-.88a.5.5,0,0,0-.22-.67.49.49,0,0,0-.67.22l-.45.9a.5.5,0,0,0,.23.66.49.49,0,0,0,.67-.23ZM17,74.93l.39-.91a.5.5,0,1,0-.92-.4l-.39.92a.5.5,0,1,0,.92.39Zm-2.17,5.55c.11-.31.22-.63.34-.94a.5.5,0,1,0-.94-.34c-.11.31-.23.62-.34.94a.5.5,0,0,0,.3.64.5.5,0,0,0,.64-.3ZM13,86.13c.1-.31.2-.63.29-.95a.48.48,0,0,0-.33-.62.49.49,0,0,0-.62.33c-.1.32-.2.64-.29,1a.5.5,0,0,0,.33.62.49.49,0,0,0,.62-.34Zm-1.55,5.75.24-1a.51.51,0,0,0-.37-.61.5.5,0,0,0-.6.37l-.24,1a.49.49,0,0,0,.37.6.5.5,0,0,0,.6-.37ZM10.2,97.71l.18-1a.49.49,0,0,0-.39-.59.5.5,0,0,0-.59.4c-.06.32-.12.65-.19,1a.5.5,0,0,0,1,.18Zm-.93,5.89c.05-.33.09-.66.14-1a.51.51,0,0,0-.43-.57.5.5,0,0,0-.56.43c-.05.33-.09.66-.14,1a.5.5,0,0,0,.43.56.49.49,0,0,0,.56-.43Zm-.6,5.93c0-.33.05-.66.08-1a.5.5,0,0,0-1-.08c0,.33,0,.67-.07,1a.5.5,0,1,0,1,.07Zm-.28,6,0-1a.5.5,0,1,0-1,0c0,.33,0,.67,0,1a.5.5,0,1,0,1,0Zm0,6,0-1a.5.5,0,0,0-1,0l0,1A.51.51,0,0,0,8,122a.5.5,0,0,0,.48-.52Zm.38,6-.09-1a.5.5,0,1,0-1,.08c0,.34,0,.67.08,1a.5.5,0,1,0,1-.09Zm.7,5.93c0-.33-.1-.65-.14-1a.5.5,0,1,0-1,.13c0,.33.09.67.14,1a.5.5,0,1,0,1-.15Zm1,5.89c-.07-.33-.14-.65-.2-1a.5.5,0,0,0-.58-.4.51.51,0,0,0-.4.59c.06.33.13.66.2,1a.49.49,0,0,0,.58.39.51.51,0,0,0,.4-.59Zm1.35,5.82c-.09-.32-.17-.65-.25-1a.5.5,0,0,0-1,.25c.08.32.16.65.25,1a.5.5,0,1,0,1-.25Zm1.66,5.72-.3-1a.51.51,0,0,0-.63-.33.5.5,0,0,0-.32.63c.09.32.2.64.3,1a.5.5,0,0,0,.63.32.51.51,0,0,0,.32-.63Zm2,5.62c-.12-.31-.24-.62-.35-.93a.5.5,0,0,0-.65-.29.49.49,0,0,0-.29.64c.11.31.23.63.35.94a.5.5,0,0,0,.65.29.51.51,0,0,0,.29-.65Zm2.28,5.5c-.14-.3-.27-.6-.4-.9a.5.5,0,0,0-.92.4l.4.91a.5.5,0,1,0,.92-.41Zm2.58,5.38c-.16-.3-.31-.59-.45-.89a.5.5,0,0,0-.9.45c.15.3.3.6.46.89a.49.49,0,0,0,.67.22.5.5,0,0,0,.22-.67Zm2.86,5.22-.5-.86a.5.5,0,1,0-.86.5c.16.29.33.58.5.86a.5.5,0,1,0,.86-.5Zm3.14,5.06-.54-.83a.5.5,0,0,0-.84.54l.55.84a.5.5,0,0,0,.83-.55Zm3.41,4.89-.58-.8a.49.49,0,0,0-.7-.11.5.5,0,0,0-.11.69L29,183a.51.51,0,0,0,.7.11.5.5,0,0,0,.1-.7Zm3.67,4.69c-.21-.25-.42-.51-.62-.77a.52.52,0,0,0-.71-.07.49.49,0,0,0-.07.7l.63.78a.52.52,0,0,0,.71.07.51.51,0,0,0,.06-.71Zm3.93,4.49-.68-.73a.49.49,0,0,0-.7,0,.5.5,0,0,0,0,.71c.23.24.45.49.68.74a.5.5,0,0,0,.74-.68Zm4.16,4.26-.71-.69a.5.5,0,0,0-.71,0,.51.51,0,0,0,0,.71l.72.7a.5.5,0,0,0,.71,0,.51.51,0,0,0,0-.71Zm4.39,4-.75-.65a.5.5,0,0,0-.71,0,.51.51,0,0,0,0,.71l.75.66a.49.49,0,0,0,.7,0,.5.5,0,0,0,0-.71Zm4.6,3.78-.78-.61a.5.5,0,0,0-.62.79l.79.61a.5.5,0,0,0,.61-.79Zm4.79,3.52-.81-.57a.5.5,0,0,0-.7.12.51.51,0,0,0,.12.7l.82.57a.5.5,0,1,0,.57-.82Zm5,3.24-.84-.52a.51.51,0,0,0-.69.16.49.49,0,0,0,.16.69l.85.53a.5.5,0,0,0,.52-.86Zm5.15,3-.87-.48a.5.5,0,0,0-.68.2.51.51,0,0,0,.2.68l.88.48a.5.5,0,0,0,.47-.88Zm5.31,2.68-.89-.42a.49.49,0,0,0-.67.23.5.5,0,0,0,.23.67l.9.43a.51.51,0,0,0,.67-.24.5.5,0,0,0-.24-.67Zm5.45,2.4-.92-.38a.5.5,0,0,0-.38.92l.92.38a.49.49,0,0,0,.65-.27.49.49,0,0,0-.27-.65Zm5.57,2.09-.93-.32a.49.49,0,0,0-.64.3.5.5,0,0,0,.3.64l.95.33a.5.5,0,0,0,.63-.31A.51.51,0,0,0,81.81,220.6Zm5.68,1.79-.95-.27a.5.5,0,1,0-.28,1l1,.28a.5.5,0,1,0,.27-1Zm5.77,1.48-1-.22a.5.5,0,0,0-.6.37.49.49,0,0,0,.37.6l1,.23a.5.5,0,1,0,.22-1ZM99.11,225l-1-.17a.5.5,0,1,0-.18,1l1,.18a.51.51,0,0,0,.58-.41.51.51,0,0,0-.41-.58Zm5.9.85-1-.12a.5.5,0,0,0-.12,1l1,.12a.5.5,0,1,0,.11-1Zm5.94.52-1-.06a.5.5,0,1,0-.07,1l1,.07a.5.5,0,0,0,.06-1Zm6,.2h-1a.5.5,0,1,0,0,1h1a.5.5,0,0,0,0-1Zm6-.13-1,.05a.5.5,0,0,0-.48.52.51.51,0,0,0,.52.48l1-.05a.49.49,0,0,0,.47-.52.5.5,0,0,0-.52-.48Zm6-.45-1,.1a.5.5,0,0,0,.09,1l1-.1a.5.5,0,0,0-.1-1Zm5.92-.78-1,.16a.5.5,0,1,0,.15,1l1-.15a.5.5,0,0,0,.41-.57.51.51,0,0,0-.57-.42Zm5.87-1.1-1,.21a.5.5,0,1,0,.21,1l1-.2a.5.5,0,0,0,.38-.6.49.49,0,0,0-.59-.38Zm5.8-1.43-1,.26a.5.5,0,0,0-.36.61.51.51,0,0,0,.62.36l1-.26a.5.5,0,0,0,.35-.62.5.5,0,0,0-.61-.35Zm5.7-1.74-1,.31a.5.5,0,0,0,.31,1l1-.32a.49.49,0,0,0,.32-.63A.51.51,0,0,0,152.12,221Zm5.59-2-.92.37a.5.5,0,0,0-.29.64.5.5,0,0,0,.65.29l.93-.37a.5.5,0,0,0,.28-.65.51.51,0,0,0-.65-.28Zm5.48-2.35-.91.41a.51.51,0,0,0-.25.66.49.49,0,0,0,.66.25l.92-.41a.51.51,0,0,0,.24-.67A.49.49,0,0,0,163.19,216.58Zm5.33-2.65-.88.46a.51.51,0,0,0-.21.68.5.5,0,0,0,.67.21l.89-.47a.49.49,0,0,0,.21-.67.5.5,0,0,0-.68-.21Zm5.19-2.93-.85.51a.5.5,0,1,0,.5.86c.29-.17.58-.34.86-.52a.5.5,0,0,0,.18-.68.5.5,0,0,0-.69-.17Zm5-3.21-.82.55a.5.5,0,0,0,.55.84l.83-.56a.5.5,0,0,0-.56-.83Zm4.84-3.47-.79.6a.5.5,0,1,0,.59.8l.81-.61a.5.5,0,1,0-.61-.79Zm4.65-3.73-.76.64a.49.49,0,0,0-.07.7.51.51,0,0,0,.71.06l.76-.64a.51.51,0,0,0,.06-.71.49.49,0,0,0-.7,0Zm4.43-4-.72.68a.48.48,0,0,0,0,.7.5.5,0,0,0,.71,0l.73-.69a.49.49,0,0,0,0-.7.5.5,0,0,0-.71,0Zm4.21-4.22-.69.72a.5.5,0,0,0,0,.71.49.49,0,0,0,.7,0l.7-.72a.5.5,0,0,0-.73-.69Zm4-4.44c-.21.25-.43.5-.64.76a.5.5,0,1,0,.75.65l.65-.76a.5.5,0,1,0-.76-.65Zm3.72-4.65-.6.79a.5.5,0,0,0,.09.7.51.51,0,0,0,.7-.09l.61-.8a.5.5,0,0,0-.8-.6Zm3.45-4.84c-.18.27-.37.54-.55.82a.5.5,0,0,0,.82.56l.56-.82a.5.5,0,0,0-.13-.7.51.51,0,0,0-.7.14Zm3.18-5c-.16.28-.34.56-.51.84a.5.5,0,1,0,.86.52L212,174a.5.5,0,0,0-.17-.69.51.51,0,0,0-.69.18Zm2.91-5.19-.47.87a.51.51,0,0,0,.21.68.5.5,0,0,0,.68-.21l.46-.88a.5.5,0,1,0-.88-.46Zm2.62-5.35-.42.9a.5.5,0,0,0,.24.67.52.52,0,0,0,.67-.25l.42-.9a.52.52,0,0,0-.25-.67.5.5,0,0,0-.66.25Zm2.32-5.48c-.12.31-.24.62-.37.92a.5.5,0,0,0,.93.38c.13-.31.25-.62.37-.93a.51.51,0,0,0-.28-.65.5.5,0,0,0-.65.28Zm2-5.6-.31.94a.5.5,0,1,0,.94.32c.11-.31.22-.63.32-1a.49.49,0,0,0-.32-.63.51.51,0,0,0-.63.32Zm1.72-5.7-.27.95a.5.5,0,0,0,1,.27c.09-.32.18-.64.26-1a.5.5,0,1,0-1-.26Zm1.4-5.79c-.06.32-.14.64-.21,1a.49.49,0,0,0,.38.59.5.5,0,0,0,.6-.38l.21-1a.5.5,0,0,0-.38-.6.51.51,0,0,0-.6.39Zm1.09-5.86c0,.32-.1.65-.16,1a.5.5,0,0,0,1,.16c.06-.33.11-.66.16-1a.5.5,0,0,0-.41-.57.51.51,0,0,0-.58.42Zm.77-5.92c0,.33-.07.66-.1,1a.5.5,0,1,0,1,.11c0-.33.07-.66.11-1a.5.5,0,0,0-.45-.55.5.5,0,0,0-.55.44Zm.45-5.94c0,.33,0,.66,0,1a.5.5,0,0,0,.47.53.52.52,0,0,0,.53-.47c0-.34,0-.67,0-1a.51.51,0,0,0-.48-.53.5.5,0,0,0-.52.48Zm.12-6v1a.51.51,0,0,0,.5.5.5.5,0,0,0,.5-.5v-1a.5.5,0,0,0-1,0Zm-.2-6c0,.33,0,.66,0,1a.51.51,0,0,0,.53.48.5.5,0,0,0,.47-.53c0-.33,0-.67,0-1a.5.5,0,0,0-.53-.47A.5.5,0,0,0,226.4,110.68Zm-.53-6c0,.33.07.66.11,1a.5.5,0,0,0,.55.45.5.5,0,0,0,.44-.55c0-.34-.07-.67-.11-1a.5.5,0,0,0-.56-.44.49.49,0,0,0-.43.55ZM225,98.82c.06.33.11.66.16,1a.51.51,0,0,0,.58.41.49.49,0,0,0,.41-.57c0-.33-.11-.67-.17-1a.5.5,0,0,0-1,.17ZM223.83,93c.07.32.14.65.22,1a.5.5,0,0,0,1-.21c-.07-.33-.14-.66-.22-1a.5.5,0,0,0-.6-.37.49.49,0,0,0-.37.6Zm-1.5-5.77.27,1a.5.5,0,0,0,.62.34.49.49,0,0,0,.34-.61l-.27-1a.51.51,0,0,0-.62-.34.5.5,0,0,0-.34.62Zm-1.82-5.67.33.94a.5.5,0,0,0,.63.31.5.5,0,0,0,.31-.64c-.1-.31-.21-.63-.32-.94a.5.5,0,1,0-1,.33ZM218.39,76l.38.92a.5.5,0,1,0,.92-.37c-.12-.31-.25-.62-.38-.93a.49.49,0,0,0-.65-.27A.49.49,0,0,0,218.39,76ZM216,70.52l.42.89a.5.5,0,1,0,.91-.42c-.14-.3-.29-.6-.43-.91a.51.51,0,0,0-.67-.23.5.5,0,0,0-.23.67Zm-2.72-5.31.47.88a.5.5,0,0,0,.68.2.49.49,0,0,0,.2-.67c-.15-.3-.31-.59-.47-.89a.5.5,0,0,0-.68-.19.49.49,0,0,0-.2.67Z" fill="#dce1e5"/></g></svg>