<svg xmlns="http://www.w3.org/2000/svg" viewBox="0 0 235 235"><title>ucd</title><g id="Layer_1" data-name="Layer 1"><g id="girl"><circle cx="123.5" cy="102.7" r="30.5" fill="#dce1e5"/><path d="M114.3,69.9a31.94,31.94,0,0,1,7-.8A30.34,30.34,0,1,1,97.4,80.8a31.92,31.92,0,0,1,4.4-4.6" fill="none" stroke="#67717c" stroke-linecap="round" stroke-miterlimit="10" stroke-width="0.5"/><path d="M111.5,70.7c.1,0,.2-.1.3-.1" fill="none" stroke="#67717c" stroke-linecap="round" stroke-miterlimit="10" stroke-width="0.5"/><path d="M107.1,72.6a23.94,23.94,0,0,1,2.8-1.3" fill="none" stroke="#67717c" stroke-linecap="round" stroke-miterlimit="10" stroke-width="0.5"/><path d="M104.9,73.8a4.05,4.05,0,0,1,.9-.5" fill="none" stroke="#67717c" stroke-linecap="round" stroke-miterlimit="10" stroke-width="0.5"/><path d="M141.1,118.2a2.22,2.22,0,0,1-2.2,2.2h0a2.22,2.22,0,0,1-2.2-2.2v-5.1a2.22,2.22,0,0,1,2.2-2.2h0a2.22,2.22,0,0,1,2.2,2.2Z" fill="#fff" stroke="#67717c" stroke-miterlimit="10" stroke-width="0.5"/><circle cx="141.9" cy="121.4" r="3.2" fill="#fff"/><path d="M141.9,124.6a3.2,3.2,0,1,1,3.2-3.2,2.79,2.79,0,0,1-.6,1.8" fill="none" stroke="#67717c" stroke-linecap="round" stroke-miterlimit="10" stroke-width="0.5"/><path d="M105.3,139.8h8.6a.94.94,0,0,0,1-1V125.6h11.8v13.2a.94.94,0,0,0,1,1h8.6a7,7,0,0,1,7,7" fill="#fff" stroke="#67717c" stroke-linecap="round" stroke-miterlimit="10" stroke-width="0.5"/><line x1="120.4" y1="148.6" x2="120.4" y2="150.6" fill="none" stroke="#67717c" stroke-linecap="round" stroke-miterlimit="10" stroke-width="0.5"/><path d="M143.7,147.8v5.3a.22.22,0,0,1-.2.2H109.9c-.3,0-.3-.4,0-.5l31.5-7.1A2.15,2.15,0,0,1,143.7,147.8Z" fill="#e84b54"/><path d="M101.3,118.2a2.22,2.22,0,0,0,2.2,2.2h0a2.22,2.22,0,0,0,2.2-2.2v-5.1a2.22,2.22,0,0,0-2.2-2.2h0a2.22,2.22,0,0,0-2.2,2.2Z" fill="#fff" stroke="#67717c" stroke-miterlimit="10" stroke-width="0.5"/><circle cx="100.5" cy="121.4" r="3.2" fill="#fff"/><path d="M98.2,119.1a3.1,3.1,0,0,0-.9,1.8,3.24,3.24,0,1,0,3.7-2.7" fill="none" stroke="#67717c" stroke-linecap="round" stroke-miterlimit="10" stroke-width="0.5"/><path d="M105.6,91.8a17.84,17.84,0,0,0,15.7,9.6A17.51,17.51,0,0,0,136.9,92s.2-.5.4-.1a17.72,17.72,0,0,1,1.6,7.3V116a17.6,17.6,0,0,1-35.2,0V99.1a18.55,18.55,0,0,1,1.6-7.4C105.2,91.7,105.4,91.4,105.6,91.8Z" fill="#fff" stroke="#67717c" stroke-miterlimit="10" stroke-width="0.5"/><path d="M115.7,112.4a1.5,1.5,0,1,1-1.5-1.5A1.42,1.42,0,0,1,115.7,112.4Z" fill="#dce1e5"/><path d="M129.8,112.4a1.5,1.5,0,1,1-1.5-1.5A1.37,1.37,0,0,1,129.8,112.4Z" fill="#dce1e5"/><path d="M124.7,123.4a3.57,3.57,0,0,1-6.2,0" fill="none" stroke="#67717c" stroke-linecap="round" stroke-miterlimit="10" stroke-width="0.5"/><path d="M123.5,118.5a1.9,1.9,0,0,1-3.8,0" fill="none" stroke="#67717c" stroke-linecap="round" stroke-miterlimit="10" stroke-width="0.5"/><path d="M106.1,162.4l-13.4,3.5a1.93,1.93,0,0,1-2.4-1.4l-7-27.1a1.93,1.93,0,0,1,1.4-2.4l13.4-3.5a1.93,1.93,0,0,1,2.4,1.4l7,27.1A2,2,0,0,1,106.1,162.4Z" fill="#dce1e5"/><path d="M85.5,153.3l-4.4-17.1a1.93,1.93,0,0,1,1.4-2.4l13.4-3.5a1.93,1.93,0,0,1,2.4,1.4l7,27.1a1.93,1.93,0,0,1-1.4,2.4l-13.4,3.5a1.93,1.93,0,0,1-2.4-1.4l-.3-1.3" fill="none" stroke="#67717c" stroke-linecap="round" stroke-miterlimit="10" stroke-width="0.5"/><ellipse cx="91.39" cy="152" rx="7.3" ry="1.9" transform="matrix(0.97, -0.25, 0.25, 0.97, -35.1, 27.67)" fill="#fff" stroke="#67717c" stroke-linecap="round" stroke-miterlimit="10" stroke-width="0.5"/><ellipse cx="92.31" cy="156.2" rx="7.1" ry="1.9" transform="matrix(0.97, -0.25, 0.25, 0.97, -36.12, 28.04)" fill="#fff" stroke="#67717c" stroke-linecap="round" stroke-miterlimit="10" stroke-width="0.5"/><ellipse cx="92.5" cy="159.89" rx="5.6" ry="1.5" transform="matrix(0.97, -0.25, 0.25, 0.97, -37.04, 28.2)" fill="#fff" stroke="#67717c" stroke-linecap="round" stroke-miterlimit="10" stroke-width="0.5"/><ellipse cx="84" cy="149.41" rx="2" ry="3.8" transform="translate(-4.42 2.58) rotate(-1.71)" fill="#fff" stroke="#67717c" stroke-linecap="round" stroke-miterlimit="10" stroke-width="0.5"/><path d="M95.3,133a1.5,1.5,0,1,1-1.5,1.5,1.27,1.27,0,0,1,.1-.6" fill="none" stroke="#67717c" stroke-linecap="round" stroke-miterlimit="10" stroke-width="0.5"/></g></g><g id="circle"><path d="M210.12,59.86l.13.21.52.84a.5.5,0,1,0,.85-.52c-.17-.28-.34-.57-.52-.85l-.13-.21a.5.5,0,1,0-.85.53Zm-3.28-5,.56.81a.5.5,0,0,0,.7.13.49.49,0,0,0,.13-.69l-.57-.83a.5.5,0,1,0-.82.58Zm-3.55-4.79.61.78a.5.5,0,1,0,.79-.61c-.2-.26-.4-.53-.61-.79a.5.5,0,0,0-.79.62Zm-3.8-4.59.65.75a.51.51,0,0,0,.71.05.49.49,0,0,0,.05-.7l-.66-.76a.48.48,0,0,0-.7,0,.49.49,0,0,0,0,.7Zm-4-4.37.69.71a.49.49,0,0,0,.7,0,.5.5,0,0,0,0-.71l-.7-.72a.5.5,0,1,0-.71.7ZM191.16,37l.73.68a.5.5,0,0,0,.69-.73l-.74-.68a.5.5,0,0,0-.71,0,.5.5,0,0,0,0,.7Zm-4.5-3.9.77.63a.5.5,0,0,0,.64-.76l-.77-.64a.5.5,0,0,0-.71.07.5.5,0,0,0,.07.7ZM182,29.44l.8.59a.5.5,0,1,0,.6-.8l-.81-.59a.5.5,0,0,0-.7.1.51.51,0,0,0,.11.7Zm-4.89-3.37.83.54a.5.5,0,1,0,.55-.83l-.83-.55a.5.5,0,1,0-.55.84ZM172,23l.86.5a.5.5,0,0,0,.5-.86l-.86-.51a.5.5,0,0,0-.68.19A.49.49,0,0,0,172,23Zm-5.24-2.82.89.45a.5.5,0,0,0,.46-.89l-.89-.46a.51.51,0,0,0-.46.9Zm-5.38-2.54.91.4a.5.5,0,0,0,.66-.25.5.5,0,0,0-.25-.66l-.92-.4a.49.49,0,0,0-.66.25A.5.5,0,0,0,161.37,17.6Zm-5.51-2.24.92.35a.5.5,0,1,0,.36-.93l-.93-.36a.52.52,0,0,0-.65.3.5.5,0,0,0,.3.64Zm-5.64-1.94.95.3a.49.49,0,0,0,.63-.32.51.51,0,0,0-.32-.63l-1-.3a.49.49,0,0,0-.62.33.49.49,0,0,0,.32.62Zm-5.73-1.63,1,.25a.51.51,0,0,0,.62-.35.5.5,0,0,0-.36-.61l-1-.26a.51.51,0,0,0-.61.36.51.51,0,0,0,.36.61Zm-5.81-1.31,1,.19a.49.49,0,0,0,.59-.38.52.52,0,0,0-.39-.6l-1-.19a.49.49,0,0,0-.59.39.51.51,0,0,0,.39.59Zm-5.87-1,1,.14a.5.5,0,0,0,.15-1l-1-.14a.5.5,0,0,0-.57.42.51.51,0,0,0,.43.57Zm-5.93-.68,1,.09a.51.51,0,0,0,.55-.45.5.5,0,0,0-.45-.55l-1-.09a.5.5,0,0,0-.09,1Zm-5.95-.36,1,0a.5.5,0,0,0,.52-.48.49.49,0,0,0-.47-.52l-1,0a.5.5,0,0,0,0,1Zm-6,0,1,0a.49.49,0,0,0,.49-.5.5.5,0,0,0-.5-.5l-1,0a.52.52,0,0,0-.49.51.5.5,0,0,0,.51.49Zm-6,.3,1-.08a.49.49,0,0,0,.46-.53.5.5,0,0,0-.53-.46l-1,.07a.5.5,0,0,0,.07,1Zm-5.93.62,1-.13a.5.5,0,1,0-.12-1l-1,.13a.5.5,0,0,0-.43.56A.51.51,0,0,0,103.07,9.33Zm-5.9.95c.33-.06.65-.13,1-.18a.5.5,0,0,0,.4-.58A.49.49,0,0,0,98,9.11l-1,.18a.5.5,0,0,0,.19,1Zm-5.84,1.27,1-.24a.49.49,0,0,0,.37-.6.5.5,0,0,0-.6-.37l-1,.24a.5.5,0,0,0,.24,1Zm-5.74,1.59,1-.29a.5.5,0,0,0,.34-.62.51.51,0,0,0-.62-.34l-1,.29a.5.5,0,0,0-.34.63.51.51,0,0,0,.63.33ZM79.94,15l.94-.34a.5.5,0,1,0-.34-.94l-.94.34a.5.5,0,1,0,.34.94Zm-5.53,2.21.91-.39a.5.5,0,1,0-.39-.92l-.92.39a.5.5,0,1,0,.4.92ZM69,19.76l.89-.44a.5.5,0,1,0-.43-.9l-.9.44a.5.5,0,0,0-.23.67.51.51,0,0,0,.67.23Zm-5.26,2.79.87-.48a.5.5,0,0,0,.19-.68.5.5,0,0,0-.68-.2l-.87.49a.51.51,0,0,0-.19.69A.49.49,0,0,0,63.74,22.55Zm-5.1,3.08.84-.53a.5.5,0,0,0-.53-.85l-.85.54a.5.5,0,0,0,.54.84ZM53.71,29l.81-.58a.5.5,0,0,0-.58-.82l-.81.59a.49.49,0,0,0-.12.69.5.5,0,0,0,.7.12ZM49,32.59l.77-.62a.51.51,0,0,0,.09-.71.52.52,0,0,0-.71-.08l-.78.63a.49.49,0,0,0-.07.7.5.5,0,0,0,.7.08Zm-4.54,3.86.74-.66a.51.51,0,0,0,0-.71.5.5,0,0,0-.71,0l-.75.66a.5.5,0,1,0,.67.75Zm-4.32,4.1.71-.7a.51.51,0,0,0,0-.71.5.5,0,0,0-.71,0l-.71.7a.51.51,0,0,0,0,.71.5.5,0,0,0,.71,0ZM36,44.89l.67-.74a.51.51,0,0,0,0-.71.5.5,0,0,0-.71,0c-.23.24-.45.49-.67.74a.5.5,0,0,0,0,.71.5.5,0,0,0,.7,0Zm-3.84,4.55.62-.77A.5.5,0,1,0,32,48q-.32.38-.63.78a.5.5,0,1,0,.78.62ZM28.6,54.19l.58-.8a.5.5,0,0,0-.12-.7.5.5,0,0,0-.69.11l-.59.81a.51.51,0,0,0,.12.7.5.5,0,0,0,.7-.12Zm-3.31,4.94c.17-.28.35-.56.53-.83a.51.51,0,0,0-.15-.7.5.5,0,0,0-.69.15l-.54.85a.49.49,0,0,0,.16.69.51.51,0,0,0,.69-.16Zm-3,5.11.48-.86a.5.5,0,1,0-.86-.5l-.5.87a.5.5,0,0,0,.2.68.5.5,0,0,0,.68-.19Zm-2.76,5.27c.15-.29.29-.59.44-.88a.5.5,0,0,0-.22-.67.49.49,0,0,0-.67.22l-.45.9a.5.5,0,0,0,.23.66.49.49,0,0,0,.67-.23ZM17,74.93l.39-.91a.5.5,0,1,0-.92-.4l-.39.92a.5.5,0,1,0,.92.39Zm-2.17,5.55c.11-.31.22-.63.34-.94a.5.5,0,1,0-.94-.34c-.11.31-.23.62-.34.94a.5.5,0,0,0,.3.64.5.5,0,0,0,.64-.3ZM13,86.13c.1-.31.2-.63.29-.95a.48.48,0,0,0-.33-.62.49.49,0,0,0-.62.33c-.1.32-.2.64-.29,1a.5.5,0,0,0,.33.62.49.49,0,0,0,.62-.34Zm-1.55,5.75.24-1a.51.51,0,0,0-.37-.61.5.5,0,0,0-.6.37l-.24,1a.49.49,0,0,0,.37.6.5.5,0,0,0,.6-.37ZM10.2,97.71l.18-1a.49.49,0,0,0-.39-.59.5.5,0,0,0-.59.4c-.06.32-.12.65-.19,1a.5.5,0,0,0,1,.18Zm-.93,5.89c.05-.33.09-.66.14-1a.51.51,0,0,0-.43-.57.5.5,0,0,0-.56.43c-.05.33-.09.66-.14,1a.5.5,0,0,0,.43.56.49.49,0,0,0,.56-.43Zm-.6,5.93c0-.33.05-.66.08-1a.5.5,0,0,0-1-.08c0,.33,0,.67-.07,1a.5.5,0,1,0,1,.07Zm-.28,6,0-1a.5.5,0,1,0-1,0c0,.33,0,.67,0,1a.5.5,0,1,0,1,0Zm0,6,0-1a.5.5,0,0,0-1,0l0,1A.51.51,0,0,0,8,122a.5.5,0,0,0,.48-.52Zm.38,6-.09-1a.5.5,0,1,0-1,.08c0,.34,0,.67.08,1a.5.5,0,1,0,1-.09Zm.7,5.93c0-.33-.1-.65-.14-1a.5.5,0,1,0-1,.13c0,.33.09.67.14,1a.5.5,0,1,0,1-.15Zm1,5.89c-.07-.33-.14-.65-.2-1a.5.5,0,0,0-.58-.4.51.51,0,0,0-.4.59c.06.33.13.66.2,1a.49.49,0,0,0,.58.39.51.51,0,0,0,.4-.59Zm1.35,5.82c-.09-.32-.17-.65-.25-1a.5.5,0,0,0-1,.25c.08.32.16.65.25,1a.5.5,0,1,0,1-.25Zm1.66,5.72-.3-1a.51.51,0,0,0-.63-.33.5.5,0,0,0-.32.63c.09.32.2.64.3,1a.5.5,0,0,0,.63.32.51.51,0,0,0,.32-.63Zm2,5.62c-.12-.31-.24-.62-.35-.93a.5.5,0,0,0-.65-.29.49.49,0,0,0-.29.64c.11.31.23.63.35.94a.5.5,0,0,0,.65.29.51.51,0,0,0,.29-.65Zm2.28,5.5c-.14-.3-.27-.6-.4-.9a.5.5,0,0,0-.92.4l.4.91a.5.5,0,1,0,.92-.41Zm2.58,5.38c-.16-.3-.31-.59-.45-.89a.5.5,0,0,0-.9.45c.15.3.3.6.46.89a.49.49,0,0,0,.67.22.5.5,0,0,0,.22-.67Zm2.86,5.22-.5-.86a.5.5,0,1,0-.86.5c.16.29.33.58.5.86a.5.5,0,1,0,.86-.5Zm3.14,5.06-.54-.83a.5.5,0,0,0-.84.54l.55.84a.5.5,0,0,0,.83-.55Zm3.41,4.89-.58-.8a.49.49,0,0,0-.7-.11.5.5,0,0,0-.11.69L29,183a.51.51,0,0,0,.7.11.5.5,0,0,0,.1-.7Zm3.67,4.69c-.21-.25-.42-.51-.62-.77a.52.52,0,0,0-.71-.07.49.49,0,0,0-.07.7l.63.78a.52.52,0,0,0,.71.07.51.51,0,0,0,.06-.71Zm3.93,4.49-.68-.73a.49.49,0,0,0-.7,0,.5.5,0,0,0,0,.71c.23.24.45.49.68.74a.5.5,0,0,0,.74-.68Zm4.16,4.26-.71-.69a.5.5,0,0,0-.71,0,.51.51,0,0,0,0,.71l.72.7a.5.5,0,0,0,.71,0,.51.51,0,0,0,0-.71Zm4.39,4-.75-.65a.5.5,0,0,0-.71,0,.51.51,0,0,0,0,.71l.75.66a.49.49,0,0,0,.7,0,.5.5,0,0,0,0-.71Zm4.6,3.78-.78-.61a.5.5,0,0,0-.62.79l.79.61a.5.5,0,0,0,.61-.79Zm4.79,3.52-.81-.57a.5.5,0,0,0-.7.12.51.51,0,0,0,.12.7l.82.57a.5.5,0,1,0,.57-.82Zm5,3.24-.84-.52a.51.51,0,0,0-.69.16.49.49,0,0,0,.16.69l.85.53a.5.5,0,0,0,.52-.86Zm5.15,3-.87-.48a.5.5,0,0,0-.68.2.51.51,0,0,0,.2.68l.88.48a.5.5,0,0,0,.47-.88Zm5.31,2.68-.89-.42a.49.49,0,0,0-.67.23.5.5,0,0,0,.23.67l.9.43a.51.51,0,0,0,.67-.24.5.5,0,0,0-.24-.67Zm5.45,2.4-.92-.38a.5.5,0,0,0-.38.92l.92.38a.49.49,0,0,0,.65-.27.49.49,0,0,0-.27-.65Zm5.57,2.09-.93-.32a.49.49,0,0,0-.64.3.5.5,0,0,0,.3.64l.95.33a.5.5,0,0,0,.63-.31A.51.51,0,0,0,81.81,220.6Zm5.68,1.79-.95-.27a.5.5,0,1,0-.28,1l1,.28a.5.5,0,1,0,.27-1Zm5.77,1.48-1-.22a.5.5,0,0,0-.6.37.49.49,0,0,0,.37.6l1,.23a.5.5,0,1,0,.22-1ZM99.11,225l-1-.17a.5.5,0,1,0-.18,1l1,.18a.51.51,0,0,0,.58-.41.51.51,0,0,0-.41-.58Zm5.9.85-1-.12a.5.5,0,0,0-.12,1l1,.12a.5.5,0,1,0,.11-1Zm5.94.52-1-.06a.5.5,0,1,0-.07,1l1,.07a.5.5,0,0,0,.06-1Zm6,.2h-1a.5.5,0,1,0,0,1h1a.5.5,0,0,0,0-1Zm6-.13-1,.05a.5.5,0,0,0-.48.52.51.51,0,0,0,.52.48l1-.05a.49.49,0,0,0,.47-.52.5.5,0,0,0-.52-.48Zm6-.45-1,.1a.5.5,0,0,0,.09,1l1-.1a.5.5,0,0,0-.1-1Zm5.92-.78-1,.16a.5.5,0,1,0,.15,1l1-.15a.5.5,0,0,0,.41-.57.51.51,0,0,0-.57-.42Zm5.87-1.1-1,.21a.5.5,0,1,0,.21,1l1-.2a.5.5,0,0,0,.38-.6.49.49,0,0,0-.59-.38Zm5.8-1.43-1,.26a.5.5,0,0,0-.36.61.51.51,0,0,0,.62.36l1-.26a.5.5,0,0,0,.35-.62.5.5,0,0,0-.61-.35Zm5.7-1.74-1,.31a.5.5,0,0,0,.31,1l1-.32a.49.49,0,0,0,.32-.63A.51.51,0,0,0,152.12,221Zm5.59-2-.92.37a.5.5,0,0,0-.29.64.5.5,0,0,0,.65.29l.93-.37a.5.5,0,0,0,.28-.65.51.51,0,0,0-.65-.28Zm5.48-2.35-.91.41a.51.51,0,0,0-.25.66.49.49,0,0,0,.66.25l.92-.41a.51.51,0,0,0,.24-.67A.49.49,0,0,0,163.19,216.58Zm5.33-2.65-.88.46a.51.51,0,0,0-.21.68.5.5,0,0,0,.67.21l.89-.47a.49.49,0,0,0,.21-.67.5.5,0,0,0-.68-.21Zm5.19-2.93-.85.51a.5.5,0,1,0,.5.86c.29-.17.58-.34.86-.52a.5.5,0,0,0,.18-.68.5.5,0,0,0-.69-.17Zm5-3.21-.82.55a.5.5,0,0,0,.55.84l.83-.56a.5.5,0,0,0-.56-.83Zm4.84-3.47-.79.6a.5.5,0,1,0,.59.8l.81-.61a.5.5,0,1,0-.61-.79Zm4.65-3.73-.76.64a.49.49,0,0,0-.07.7.51.51,0,0,0,.71.06l.76-.64a.51.51,0,0,0,.06-.71.49.49,0,0,0-.7,0Zm4.43-4-.72.68a.48.48,0,0,0,0,.7.5.5,0,0,0,.71,0l.73-.69a.49.49,0,0,0,0-.7.5.5,0,0,0-.71,0Zm4.21-4.22-.69.72a.5.5,0,0,0,0,.71.49.49,0,0,0,.7,0l.7-.72a.5.5,0,0,0-.73-.69Zm4-4.44c-.21.25-.43.5-.64.76a.5.5,0,1,0,.75.65l.65-.76a.5.5,0,1,0-.76-.65Zm3.72-4.65-.6.79a.5.5,0,0,0,.09.7.51.51,0,0,0,.7-.09l.61-.8a.5.5,0,0,0-.8-.6Zm3.45-4.84c-.18.27-.37.54-.55.82a.5.5,0,0,0,.82.56l.56-.82a.5.5,0,0,0-.13-.7.51.51,0,0,0-.7.14Zm3.18-5c-.16.28-.34.56-.51.84a.5.5,0,1,0,.86.52L212,174a.5.5,0,0,0-.17-.69.51.51,0,0,0-.69.18Zm2.91-5.19-.47.87a.51.51,0,0,0,.21.68.5.5,0,0,0,.68-.21l.46-.88a.5.5,0,1,0-.88-.46Zm2.62-5.35-.42.9a.5.5,0,0,0,.24.67.52.52,0,0,0,.67-.25l.42-.9a.52.52,0,0,0-.25-.67.5.5,0,0,0-.66.25Zm2.32-5.48c-.12.31-.24.62-.37.92a.5.5,0,0,0,.93.38c.13-.31.25-.62.37-.93a.51.51,0,0,0-.28-.65.5.5,0,0,0-.65.28Zm2-5.6-.31.94a.5.5,0,1,0,.94.32c.11-.31.22-.63.32-1a.49.49,0,0,0-.32-.63.51.51,0,0,0-.63.32Zm1.72-5.7-.27.95a.5.5,0,0,0,1,.27c.09-.32.18-.64.26-1a.5.5,0,1,0-1-.26Zm1.4-5.79c-.06.32-.14.64-.21,1a.49.49,0,0,0,.38.59.5.5,0,0,0,.6-.38l.21-1a.5.5,0,0,0-.38-.6.51.51,0,0,0-.6.39Zm1.09-5.86c0,.32-.1.65-.16,1a.5.5,0,0,0,1,.16c.06-.33.11-.66.16-1a.5.5,0,0,0-.41-.57.51.51,0,0,0-.58.42Zm.77-5.92c0,.33-.07.66-.1,1a.5.5,0,1,0,1,.11c0-.33.07-.66.11-1a.5.5,0,0,0-.45-.55.5.5,0,0,0-.55.44Zm.45-5.94c0,.33,0,.66,0,1a.5.5,0,0,0,.47.53.52.52,0,0,0,.53-.47c0-.34,0-.67,0-1a.51.51,0,0,0-.48-.53.5.5,0,0,0-.52.48Zm.12-6v1a.51.51,0,0,0,.5.5.5.5,0,0,0,.5-.5v-1a.5.5,0,0,0-1,0Zm-.2-6c0,.33,0,.66,0,1a.51.51,0,0,0,.53.48.5.5,0,0,0,.47-.53c0-.33,0-.67,0-1a.5.5,0,0,0-.53-.47A.5.5,0,0,0,226.4,110.68Zm-.53-6c0,.33.07.66.11,1a.5.5,0,0,0,.55.45.5.5,0,0,0,.44-.55c0-.34-.07-.67-.11-1a.5.5,0,0,0-.56-.44.49.49,0,0,0-.43.55ZM225,98.82c.06.33.11.66.16,1a.51.51,0,0,0,.58.41.49.49,0,0,0,.41-.57c0-.33-.11-.67-.17-1a.5.5,0,0,0-1,.17ZM223.83,93c.07.32.14.65.22,1a.5.5,0,0,0,1-.21c-.07-.33-.14-.66-.22-1a.5.5,0,0,0-.6-.37.49.49,0,0,0-.37.6Zm-1.5-5.77.27,1a.5.5,0,0,0,.62.34.49.49,0,0,0,.34-.61l-.27-1a.51.51,0,0,0-.62-.34.5.5,0,0,0-.34.62Zm-1.82-5.67.33.94a.5.5,0,0,0,.63.31.5.5,0,0,0,.31-.64c-.1-.31-.21-.63-.32-.94a.5.5,0,1,0-1,.33ZM218.39,76l.38.92a.5.5,0,1,0,.92-.37c-.12-.31-.25-.62-.38-.93a.49.49,0,0,0-.65-.27A.49.49,0,0,0,218.39,76ZM216,70.52l.42.89a.5.5,0,1,0,.91-.42c-.14-.3-.29-.6-.43-.91a.51.51,0,0,0-.67-.23.5.5,0,0,0-.23.67Zm-2.72-5.31.47.88a.5.5,0,0,0,.68.2.49.49,0,0,0,.2-.67c-.15-.3-.31-.59-.47-.89a.5.5,0,0,0-.68-.19.49.49,0,0,0-.2.67Z" fill="#dce1e5"/></g><g id="stuff"><circle cx="158.16" cy="44.03" r="9.5" fill="#dce1e5"/><path d="M149.12,37.46a.25.25,0,0,1-.3-.39,9.6,9.6,0,0,1,2-1.63.24.24,0,0,1,.34.07.26.26,0,0,1-.07.35,9.35,9.35,0,0,0-1.85,1.53Z" fill="#67717c"/><path d="M152.73,35.05l-.36.17a.25.25,0,0,1-.33-.11.25.25,0,0,1,.12-.34l.36-.17a.25.25,0,0,1,.21.45Z" fill="#67717c"/><path d="M153.19,57.8l-.05,0a.56.56,0,0,1-.56,0,.38.38,0,0,1-.19-.38l-.8-4.53a9.69,9.69,0,0,1-5.11-5.85,10.32,10.32,0,0,1,.14-6.56,8.19,8.19,0,0,1,.86-1.78.24.24,0,0,1,.34-.07.25.25,0,0,1,.08.34,7.73,7.73,0,0,0-.81,1.68,9.86,9.86,0,0,0-.14,6.23,9.3,9.3,0,0,0,5,5.61l.12.06.84,4.81h0l3.81-4h.09a8.83,8.83,0,0,0,5.3-2.23,9.44,9.44,0,0,0-7.63-16.55.26.26,0,0,1-.29-.2.25.25,0,0,1,.21-.29A9.91,9.91,0,0,1,165.52,41a10,10,0,0,1-3.1,10.6,9.34,9.34,0,0,1-5.5,2.34Z" fill="#67717c"/><path d="M158.63,42.7l-5-.39c-.22,0-.27.13-.18.31l2.17,4.51c.08.18.31.18.35,0l2.8-4.12C158.9,43,158.77,42.75,158.63,42.7Z" fill="#e84b54"/><path d="M184.8,127.54l15.37-10.72a1,1,0,0,1,1.42.43l1.8,5.35a2.29,2.29,0,0,1-.57,2.27l-10.71,9.81a1,1,0,0,1-1.34,0L184.51,129A1.08,1.08,0,0,1,184.8,127.54Z" fill="#dce1e5"/><path d="M193.45,135.82a3.58,3.58,0,0,1-3.88-.59l-9.88-8.78a.91.91,0,0,0-1.17,0,.25.25,0,1,1-.29-.41,1.39,1.39,0,0,1,1.79.09l9.88,8.78a3.05,3.05,0,0,0,3.8.23l10.36-7.32a.25.25,0,0,1,.35.06.25.25,0,0,1-.07.35L194,135.49A3,3,0,0,1,193.45,135.82Z" fill="#67717c"/><path d="M191.93,133.38a.26.26,0,0,1-.29-.06.24.24,0,0,1,0-.35l9.21-8.54a2,2,0,0,0,.51-2l-1.8-5.35a.77.77,0,0,0-.5-.39.65.65,0,0,0-.54.09l-6.38,4.51a.24.24,0,0,1-.35-.06.24.24,0,0,1,.06-.34l6.38-4.51a1.13,1.13,0,0,1,1-.18,1.29,1.29,0,0,1,.83.7l1.81,5.37a2.54,2.54,0,0,1-.63,2.53L192,133.34Z" fill="#67717c"/><path d="M189.13,123.41a.24.24,0,0,1-.31-.09.23.23,0,0,1,.06-.34l1.49-1a.25.25,0,0,1,.35.06.24.24,0,0,1-.06.34l-1.49,1.06Z" fill="#67717c"/><path d="M187.73,124.41a.25.25,0,0,1-.26,0,.25.25,0,0,1-.05-.35l.14-.17a.25.25,0,0,1,.35,0,.24.24,0,0,1,0,.35l-.13.18Z" fill="#67717c"/><path d="M182.17,128.31a.25.25,0,0,1-.31-.08.25.25,0,0,1,0-.35l3.71-2.67a.25.25,0,0,1,.35.06.23.23,0,0,1-.06.34l-3.7,2.68Z" fill="#67717c"/><path d="M205.54,135.3a2.12,2.12,0,0,1-1.35.18,2,2,0,0,1-1.33-.95,2.17,2.17,0,0,1,3.59-2.45,1.59,1.59,0,0,1,.34.95.25.25,0,0,1-.5.07,1.31,1.31,0,0,0-.23-.72,1.66,1.66,0,0,0-2.37-.44,1.63,1.63,0,0,0-.4,2.33,1.5,1.5,0,0,0,1,.72,1.66,1.66,0,0,0,1.31-.31,2.91,2.91,0,0,0,.62-.81.25.25,0,0,1,.34-.08.25.25,0,0,1,.09.34,3.36,3.36,0,0,1-.74,1A2.77,2.77,0,0,1,205.54,135.3Z" fill="#67717c"/><path d="M197.83,140.65a2.38,2.38,0,0,1-1.42.23A1.91,1.91,0,0,1,195,140a2,2,0,0,1-.21-2,.25.25,0,0,1,.33-.11.24.24,0,0,1,.12.33,1.52,1.52,0,0,0,.18,1.55,1.44,1.44,0,0,0,1,.7,2,2,0,0,0,1.31-.29,1.63,1.63,0,0,0,.4-2.33,1.52,1.52,0,0,0-1-.73,1.69,1.69,0,0,0-1.31.31.24.24,0,0,1-.35,0,.25.25,0,0,1,.05-.35,2.22,2.22,0,0,1,1.71-.4,2,2,0,0,1,1.33,1,2.12,2.12,0,0,1-.57,3Z" fill="#67717c"/><path d="M188.16,128.53a.25.25,0,0,1-.31-.07.25.25,0,0,1,.05-.35l2.72-2a.25.25,0,0,1,.35,0,.25.25,0,0,1-.06.35l-2.71,2Z" fill="#e84b54"/><path d="M189.43,130.25a.25.25,0,0,1-.31-.08.25.25,0,0,1,0-.35l5.61-4a.25.25,0,1,1,.29.4l-5.61,4Z" fill="#e84b54"/><path d="M192.8,92.73l-8.67-.49a3.63,3.63,0,0,1-3.43-3.9l.59-9.6a3.63,3.63,0,0,1,3.9-3.43l8.67.49a3.63,3.63,0,0,1,3.43,3.9l-.59,9.61A3.75,3.75,0,0,1,192.8,92.73Z" fill="#dce1e5"/><path d="M193.75,91.42a4,4,0,0,1-2,.39.25.25,0,0,1-.23-.27.24.24,0,0,1,.26-.23,3.46,3.46,0,0,0,2.5-.84,3.39,3.39,0,0,0,1.14-2.36l.6-10a3.46,3.46,0,0,0-.84-2.5,3.37,3.37,0,0,0-2.36-1.14l-9.25-.54A3.39,3.39,0,0,0,180,77.07l-.6,10.06a3.43,3.43,0,0,0,.83,2.49,3.37,3.37,0,0,0,2.36,1.14l4,.29h1.1a.26.26,0,0,1,.25.26.25.25,0,0,1-.26.24h-1.11l-4-.29a3.84,3.84,0,0,1-2.7-1.31,4,4,0,0,1-1-2.85l.6-10.06a3.88,3.88,0,0,1,4.16-3.66l9.25.54a3.92,3.92,0,0,1,2.71,1.31,4,4,0,0,1,1,2.86l-.6,10a3.8,3.8,0,0,1-2.19,3.28Z" fill="#67717c"/><path d="M194.17,74.82l-.06,0a.24.24,0,0,1-.29-.19l-.63-2.92A2.37,2.37,0,0,0,191,69.79l-5.14-.3a2.07,2.07,0,0,0-1.75.53.26.26,0,0,1-.36,0,.25.25,0,0,1,0-.35,2.61,2.61,0,0,1,2.14-.66l5.12.3a2.89,2.89,0,0,1,2.7,2.34l.62,2.91A.24.24,0,0,1,194.17,74.82Z" fill="#67717c"/><path d="M183.13,71.48a.24.24,0,0,1-.26,0,.25.25,0,0,1-.05-.35l.14-.18a.25.25,0,1,1,.39.31l-.13.17Z" fill="#67717c"/><path d="M182.19,74.14H182a.25.25,0,0,1-.14-.32l.61-1.51a.25.25,0,1,1,.46.18l-.6,1.51Z" fill="#67717c"/><path d="M190.85,96a3.12,3.12,0,0,1-1.47.29L184.24,96a3,3,0,0,1-2.7-2.33l-.67-3a.25.25,0,1,1,.49-.11l.67,3a2.52,2.52,0,0,0,2.25,1.95l5.13.3a2.47,2.47,0,0,0,2.5-1.72l.94-2.67a.26.26,0,0,1,.32-.15.25.25,0,0,1,.15.32l-.93,2.67A3.06,3.06,0,0,1,190.85,96Z" fill="#67717c"/><path d="M196.88,82.51a.82.82,0,0,1-.47.06H196a.26.26,0,0,1-.25-.26.25.25,0,0,1,.25-.24h.45a.32.32,0,0,0,.26,0,.38.38,0,0,0,.12-.27L197,79.5a.27.27,0,0,0,0-.24.43.43,0,0,0-.27-.13h-.41a.26.26,0,0,1-.25-.26.24.24,0,0,1,.25-.24h.45a.92.92,0,0,1,.63.33.75.75,0,0,1,.14.59l-.12,2.26a1,1,0,0,1-.29.59Z" fill="#67717c"/><path d="M196.57,88.32a.82.82,0,0,1-.47.06h-.42a.24.24,0,0,1-.24-.26.25.25,0,0,1,.25-.24h.45a.32.32,0,0,0,.25,0,.38.38,0,0,0,.13-.27l.12-2.26a.3.3,0,0,0,0-.24.43.43,0,0,0-.27-.13h-.42a.26.26,0,0,1-.24-.26.24.24,0,0,1,.25-.24h.45a.92.92,0,0,1,.63.33.8.8,0,0,1,.14.59L197,87.62a.88.88,0,0,1-.33.62Z" fill="#67717c"/><path d="M186.45,81.14l-.06.58v.67l-.12,1.84a.74.74,0,0,0-.53-.19,1.1,1.1,0,1,0,1,1.18l.13-3,2.79-.68-.12,1.84a.75.75,0,0,0-.53-.19,1.1,1.1,0,0,0-.17,2.19,1.08,1.08,0,0,0,1.13-.88l.23-3v-.45l.06-.8Z" fill="#e84b54"/><path d="M47,146.76h0a8.41,8.41,0,0,1-5.13.43l-.14-.22.22-.15a8,8,0,0,0,4.9-.4.19.19,0,0,1,.25.1A.18.18,0,0,1,47,146.76Z" fill="#67717c"/><path d="M39.76,146.93l1.51,3.6a1.58,1.58,0,0,0,1.07.82l18.44,4.44a1.42,1.42,0,0,0,1.76-.95l1.87-7.67a1.32,1.32,0,0,0-1.1-1.58l-18.45-4.44a1.49,1.49,0,0,0-1.3.29l-3.23,3.44A1.49,1.49,0,0,0,39.76,146.93Zm3.7-1.56a1.67,1.67,0,0,1,1.31,2,1.74,1.74,0,0,1-2.08,1.22,1.66,1.66,0,0,1-1.31-2A1.57,1.57,0,0,1,43.46,145.37Z" fill="#dce1e5"/><path d="M62.82,157.66a1.67,1.67,0,0,1-1.14.13.25.25,0,0,1,.12-.48,1.31,1.31,0,0,0,1.5-.91l1.87-7.66a1.3,1.3,0,0,0-.91-1.51l-19.34-4.68a1.51,1.51,0,0,0-1.18.3l-3.16,2.84a2.15,2.15,0,0,0-.51,2.23l1.51,4a1.05,1.05,0,0,0,.82.8L56,156.1a.25.25,0,0,1,.19.3.25.25,0,0,1-.3.19L42.3,153.25a1.54,1.54,0,0,1-1.2-1.14l-1.5-4a2.63,2.63,0,0,1,.64-2.76l3.18-2.87a2,2,0,0,1,1.61-.39l19.35,4.68a1.77,1.77,0,0,1,1.05.8,1.71,1.71,0,0,1,.22,1.31l-1.86,7.66A1.78,1.78,0,0,1,62.82,157.66Z" fill="#67717c"/><path d="M59,157.24l-.15,0-1.2-.19a.26.26,0,0,1-.21-.29.25.25,0,0,1,.29-.21l1.2.2a.25.25,0,0,1,.21.29Z" fill="#67717c"/><path d="M60.6,157.71h-.19l-.14,0a.26.26,0,0,1-.15-.32.25.25,0,0,1,.32-.15l.13,0a.26.26,0,0,1,.16.32Z" fill="#67717c"/><path d="M44.83,147.32l-.07,0a7.32,7.32,0,0,1-2.87-.23,8.35,8.35,0,0,1-6.36-8.71.26.26,0,0,1,.27-.24.26.26,0,0,1,.23.27,7.86,7.86,0,0,0,6,8.2,7.16,7.16,0,0,0,2.68.22.24.24,0,0,1,.28.21A.24.24,0,0,1,44.83,147.32Z" fill="#67717c"/><path d="M44.15,149.16a2,2,0,0,1-1.44.11,2.26,2.26,0,0,1-1.1-.72.25.25,0,0,1,.38-.32,1.84,1.84,0,0,0,.87.57,1.54,1.54,0,0,0,1.21-.16,1.37,1.37,0,0,0,.62-.92,1.51,1.51,0,0,0-.14-1.24,1.35,1.35,0,0,0-.92-.63.25.25,0,0,1-.2-.3.25.25,0,0,1,.29-.19,1.88,1.88,0,0,1,1.26.85,2,2,0,0,1,.2,1.62,1.85,1.85,0,0,1-.85,1.24Z" fill="#67717c"/><path d="M54.55,151.63a1.93,1.93,0,0,1-2.51-.78,1.91,1.91,0,0,1-.21-1.47,1.94,1.94,0,0,1,.91-1.19,1.91,1.91,0,0,1,1.47-.21.26.26,0,0,1,.18.31.25.25,0,0,1-.31.17,1.45,1.45,0,0,0-1.09.16,1.52,1.52,0,0,0-.68.89,1.41,1.41,0,0,0,.16,1.09,1.52,1.52,0,0,0,.89.68,1.48,1.48,0,0,0,1.77-1.05.24.24,0,0,1,.3-.17.25.25,0,0,1,.18.3A2,2,0,0,1,54.55,151.63Z" fill="#e84b54"/><path d="M57.85,152.48a1.9,1.9,0,0,1-1.33.14.25.25,0,0,1,.13-.49,1.45,1.45,0,1,0-1-1.77.25.25,0,1,1-.48-.13,2,2,0,0,1,3.78,1A2,2,0,0,1,57.85,152.48Z" fill="#e84b54"/><path d="M52.09,149.71l-.16,0-1-.19a.27.27,0,0,1-.2-.3.25.25,0,0,1,.3-.19l1,.19a.26.26,0,0,1,.2.29Z" fill="#e84b54"/><path d="M59.89,151.62l-.18,0-1-.29a.25.25,0,1,1,.13-.48l1,.28a.25.25,0,0,1,.18.31Z" fill="#e84b54"/><path d="M63.86,74.75l-1.16-.33a6.36,6.36,0,0,1-4.53-7.81L60,59.84a6.35,6.35,0,0,1,7.8-4.53l1.16.33a6.35,6.35,0,0,1,4.53,7.81l-1.85,6.77A6.36,6.36,0,0,1,63.86,74.75Z" fill="#dce1e5"/><path d="M62.41,54.2l-.18.09a.27.27,0,0,1-.34-.12.25.25,0,0,1,.12-.34l.18-.08a.25.25,0,0,1,.33.11A.26.26,0,0,1,62.41,54.2Z" fill="#67717c"/><path d="M64.69,53.65l-.11,0a4.31,4.31,0,0,0-1.11.11.25.25,0,0,1-.1-.49,5,5,0,0,1,1.22-.12.25.25,0,0,1,.25.25A.26.26,0,0,1,64.69,53.65Z" fill="#67717c"/><path d="M66.84,73a6.65,6.65,0,0,1-4.59.42l-1.16-.33A6.59,6.59,0,0,1,56.39,65l1.89-6.91A6.34,6.34,0,0,1,60.15,55a.24.24,0,0,1,.35,0,.25.25,0,0,1,0,.35,5.8,5.8,0,0,0-1.72,2.85l-1.89,6.9a6.1,6.1,0,0,0,4.35,7.5l1.17.33a6.11,6.11,0,0,0,7.49-4.35l1.9-6.91a6.14,6.14,0,0,0-4.36-7.5l-1.1-.24-.22-.06a.24.24,0,0,1-.32-.12.26.26,0,0,1,.13-.34.68.68,0,0,1,.54,0l1.09.23a6.62,6.62,0,0,1,4.72,8.12l-1.9,6.91a6.58,6.58,0,0,1-3.07,4Z" fill="#67717c"/><path d="M65,61h0a.82.82,0,0,1-.61-1l.66-2.54a.85.85,0,0,1,1.65.43l-.66,2.54A.82.82,0,0,1,65,61Z" fill="#e84b54"/><path d="M67,54.09l-.17,0a.27.27,0,0,1-.18-.31l1.62-6.1a2.34,2.34,0,0,1,4.27-.53,2.14,2.14,0,0,1,.17,1.76.26.26,0,0,1-.32.16.25.25,0,0,1-.15-.32,1.67,1.67,0,0,0-.14-1.36A1.7,1.7,0,0,0,71,46.57a1.64,1.64,0,0,0-1.38.13,1.69,1.69,0,0,0-.85,1.11l-1.61,6.12Z" fill="#67717c"/><path d="M75.38,52.52a2.57,2.57,0,0,1-1.66.17,2.28,2.28,0,0,1-1.63-2.82l.29-1a.25.25,0,0,1,.48.13l-.29,1a1.81,1.81,0,0,0,3.48,1,.25.25,0,0,1,.3-.19.24.24,0,0,1,.19.29A2.12,2.12,0,0,1,75.38,52.52Z" fill="#67717c"/><path d="M79.27,181.3,81.2,198a.31.31,0,0,1-.54.26l-6-4.56a.11.11,0,0,0-.14-.05l-7.51-.16c-.31,0-.4-.36-.26-.54l11.94-11.85A.3.3,0,0,1,79.27,181.3Z" fill="#dce1e5"/><path d="M83,198.47a.58.58,0,0,1-.66-.13l-5.93-4.53-7.51-.16a.49.49,0,0,1-.48-.26.64.64,0,0,1,0-.69l12-11.87a.58.58,0,0,1,.63-.13.54.54,0,0,1,.33.5l.32,2.7a.25.25,0,0,1-.22.28.26.26,0,0,1-.28-.22l-.31-2.74,0-.06-.08,0L68.8,193l0,.12,7.52.16a.34.34,0,0,1,.36.12L82.65,198c.11.1.15,0,.14,0l-.91-7.66a.24.24,0,0,1,.22-.28.25.25,0,0,1,.28.22l.91,7.66A.57.57,0,0,1,83,198.47Z" fill="#67717c"/><path d="M82,189.13l-.07,0a.24.24,0,0,1-.28-.22l-.24-1.88a.25.25,0,0,1,.21-.28.24.24,0,0,1,.28.22l.24,1.88A.24.24,0,0,1,82,189.13Z" fill="#67717c"/><path d="M81.67,186.3l-.07,0a.26.26,0,0,1-.28-.22l0-.31a.25.25,0,1,1,.49-.07l0,.31A.24.24,0,0,1,81.67,186.3Z" fill="#67717c"/><path d="M75.2,197.52H75a.26.26,0,0,1-.16-.32l1.27-3.6a.25.25,0,0,1,.31-.16.26.26,0,0,1,.16.32l-1.27,3.61Z" fill="#67717c"/><path d="M81.24,176.63l-.11,0a.25.25,0,0,1-.25-.25l.05-3.13a.25.25,0,0,1,.5,0l-.05,3.13A.24.24,0,0,1,81.24,176.63Z" fill="#e84b54"/><path d="M88.69,181l-.11,0-3.13,0a.26.26,0,0,1-.25-.26.25.25,0,0,1,.25-.24l3.13,0a.25.25,0,0,1,.11.47Z" fill="#e84b54"/><path d="M78.14,177.8a.28.28,0,0,1-.29-.05l-2.16-2.19a.25.25,0,1,1,.36-.35l2.16,2.18a.26.26,0,0,1,0,.36Z" fill="#e84b54"/><path d="M84.31,177.93a.24.24,0,0,1-.29-.05.25.25,0,0,1,0-.35l2.27-2.2a.25.25,0,0,1,.36,0,.26.26,0,0,1,0,.36l-2.27,2.2Z" fill="#e84b54"/><path d="M58.12,107.58l-10,6.6a.37.37,0,0,1-.22,0l-9-10.87a.33.33,0,0,1,0-.23l12.56-8.26a.1.1,0,0,1,.13.05l6.52,12.62C58.13,107.36,58.21,107.54,58.12,107.58Z" fill="#dce1e5"/><path d="M46.75,114.1a.56.56,0,0,1-.44,0l-.06,0-9-10.93a.59.59,0,0,1,0-.46l0-.08.07,0,12.56-8.26a.36.36,0,0,1,.5.15L56.88,107a.41.41,0,0,1-.1.56l-10,6.59Zm-9.08-11.19,8.84,10.72,9.9-6.48L50,94.84Zm12.2-8.22h0Z" fill="#67717c"/><path d="M38,102.67a.27.27,0,0,1-.3-.07L33.88,98l13.29-8.7,2.74,5.2a.25.25,0,0,1-.11.34.23.23,0,0,1-.33-.1L47,90.06,34.62,98.15l3.47,4.13a.25.25,0,0,1,0,.35Z" fill="#67717c"/><path d="M48.92,115.61c-.35.17-.53,0-.58-.11L47,113.79a.26.26,0,0,1,0-.36.25.25,0,0,1,.35,0l1.33,1.68,8.44-5.6-1-1.8a.25.25,0,0,1,.44-.24l1,1.85a.45.45,0,0,1-.21.62l-8.46,5.62Zm-.18-.4,0,0Z" fill="#67717c"/><path d="M40.86,92.69l6-4a.68.68,0,0,1,.71.1l.66.91a.68.68,0,0,1-.1.71L34.68,99.22a.68.68,0,0,1-.71-.1l-.66-.91a.66.66,0,0,1,.1-.71l2.21-1.4" fill="#fff"/><path d="M34.81,99.43a.94.94,0,0,1-1-.12l-.05,0-.65-.9a.93.93,0,0,1,.1-1l.07,0,2.21-1.4a.25.25,0,0,1,.34.08.24.24,0,0,1-.07.34l-2.18,1.37a.45.45,0,0,0,0,.42l.61.84a.44.44,0,0,0,.43,0l13.35-8.74a.4.4,0,0,0,0-.42L47.36,89a.4.4,0,0,0-.42,0L41,92.9a.26.26,0,0,1-.35-.07.27.27,0,0,1,.07-.35l6-4h0a.93.93,0,0,1,1,.12l.05,0,.66.9a.93.93,0,0,1-.1,1l-.07.06L34.82,99.43Z" fill="#67717c"/><path d="M38.53,94.53a.25.25,0,0,1-.24-.43l1.44-.92a.26.26,0,0,1,.35.08.25.25,0,0,1-.08.34l-1.44.92Z" fill="#67717c"/><path d="M37.54,95.23l-.27.13a.26.26,0,0,1-.34-.11.25.25,0,0,1,.12-.34l.27-.13a.25.25,0,0,1,.33.12A.25.25,0,0,1,37.54,95.23Z" fill="#67717c"/><path d="M41.69,89.8a.27.27,0,0,1-.32-.09,5.67,5.67,0,0,1-.92-2.57,4.91,4.91,0,0,0-.92-2.42A4.7,4.7,0,0,0,37.67,83a5,5,0,0,1-2-1.92.26.26,0,0,1,.08-.35.27.27,0,0,1,.35.08,4.58,4.58,0,0,0,1.85,1.76,5.26,5.26,0,0,1,2,1.92,5.47,5.47,0,0,1,1,2.63,5.12,5.12,0,0,0,.84,2.37.24.24,0,0,1-.08.34Z" fill="#dce1e5"/><path d="M46.44,109.82a.26.26,0,0,1-.31-.07l-4.65-6a.25.25,0,0,1,.05-.35.24.24,0,0,1,.35,0l4.65,6a.25.25,0,0,1-.05.35Z" fill="#e84b54"/><path d="M96.2,27.79a8.3,8.3,0,1,1-3.88,11.08A8.3,8.3,0,0,1,96.2,27.79Z" fill="#dce1e5"/><path d="M89.68,34.31h-.19a.25.25,0,0,1-.15-.32l.14-.4a.23.23,0,0,1,.31-.15.26.26,0,0,1,.16.32l-.14.4Z" fill="#67717c"/><path d="M89.54,37.48l-.09,0a.26.26,0,0,1-.27-.23l-.11-1.62a.26.26,0,0,1,.24-.26.24.24,0,0,1,.26.23l.11,1.61A.23.23,0,0,1,89.54,37.48Z" fill="#67717c"/><path d="M101.33,43.62a8.79,8.79,0,0,1-1.89.65A8.47,8.47,0,0,1,93,43.12a8.27,8.27,0,0,1-3.21-3.84.23.23,0,0,1,.14-.32.25.25,0,0,1,.32.14,7.74,7.74,0,0,0,3,3.6,8,8,0,1,0-2.44-11.1.24.24,0,0,1-.34.07.25.25,0,0,1-.08-.34,8.53,8.53,0,1,1,10.9,12.29Z" fill="#67717c"/><path d="M115,48.27a2.72,2.72,0,0,1-.43.15,1.87,1.87,0,0,1-1.55-.31l-5.57-3.52a2.33,2.33,0,0,1-.92-1.32,2,2,0,0,1,.31-1.55,2.26,2.26,0,0,1,1.31-.91,2,2,0,0,1,1.55.31l5.57,3.52a2.24,2.24,0,0,1,.92,1.32,1.9,1.9,0,0,1-.3,1.55A2.4,2.4,0,0,1,115,48.27ZM108,41.42a1.7,1.7,0,0,0-.69.59,1.43,1.43,0,0,0-.23,1.15,1.76,1.76,0,0,0,.71,1l5.57,3.52a1.42,1.42,0,0,0,1.16.23,1.72,1.72,0,0,0,1-.71,1.43,1.43,0,0,0,.23-1.15,1.79,1.79,0,0,0-.71-1l-5.58-3.53a1.44,1.44,0,0,0-1.15-.23A1.61,1.61,0,0,0,108,41.42Z" fill="#67717c"/><rect x="105.5" y="39.65" width="0.5" height="2.83" transform="translate(14.52 108.5) rotate(-57.7)" fill="#67717c"/><path d="M103.45,34.57h0a.25.25,0,0,1-.31-.16A6.63,6.63,0,0,0,100.48,31a5.92,5.92,0,0,0-2-.84.25.25,0,1,1,.12-.49,6.31,6.31,0,0,1,2.17.92,7.12,7.12,0,0,1,2.81,3.7A.26.26,0,0,1,103.45,34.57Z" fill="#e84b54"/><path d="M188.16,167.76a4.91,4.91,0,0,1-2.29,6.54l-13.7,6.59a4.91,4.91,0,0,1-6.54-2.29,5,5,0,0,1,1.57-6.2L167,172a3.1,3.1,0,0,1,1.45-4.13,3.21,3.21,0,0,1,2.1-.24c0-2.42.16-4.74,3.32-6.26,3.78-1.82,7,.29,8.49,3.35l.17.36A5,5,0,0,1,188.16,167.76Z" fill="#dce1e5"/><path d="M172.71,179.24l-3.24,1.56a5.18,5.18,0,0,1-5.39-8.78l-.13-.27a3.36,3.36,0,0,1,1.56-4.47,3.52,3.52,0,0,1,2-.31c0-.1,0-.2,0-.3s0-.38,0-.61a.26.26,0,0,1,.26-.25.25.25,0,0,1,.24.25c0,.22,0,.41,0,.59s0,.39,0,.62v.31l-.3-.07a3,3,0,0,0-1.94.22,2.86,2.86,0,0,0-1.33,3.8l.31.64-.17.13a4.68,4.68,0,0,0,4.71,8l3.24-1.56a.25.25,0,0,1,.34.12A.24.24,0,0,1,172.71,179.24Z" fill="#67717c"/><path d="M183.12,174.12a.25.25,0,0,1-.33-.11.25.25,0,0,1,.12-.34,4.65,4.65,0,0,0,2.17-6.2,4.74,4.74,0,0,0-5.31-2.5l-.2,0-.26-.54c-1.18-2.45-3.81-4.86-7.37-3.61a.26.26,0,0,1-.32-.15.24.24,0,0,1,.15-.32c3.87-1.36,6.73,1.23,8,3.86l.09.19a5.23,5.23,0,0,1,5.68,2.81A5.15,5.15,0,0,1,183.12,174.12Z" fill="#67717c"/><path d="M168.89,163h-.25a.27.27,0,0,1-.07-.35,5.73,5.73,0,0,1,1.52-1.44.27.27,0,0,1,.35.07.25.25,0,0,1-.07.35A5.11,5.11,0,0,0,169,162.9Z" fill="#67717c"/><path d="M168.2,164.32H168a.25.25,0,0,1-.16-.31l.14-.4a.25.25,0,1,1,.48.16l-.14.4Z" fill="#67717c"/><path d="M176.08,184l-.63.3a.25.25,0,0,1-.21-.45l.63-.31a1.75,1.75,0,0,0,.82-2.33L174,175.57a.25.25,0,0,1,.11-.33.26.26,0,0,1,.34.11l2.69,5.59A2.27,2.27,0,0,1,176.08,184Z" fill="#e84b54"/><path d="M182.34,178.72l-.63.3a2.26,2.26,0,0,1-3-1.05l-1.82-3.79a.25.25,0,1,1,.45-.21l1.82,3.78a1.76,1.76,0,0,0,2.34.82l.63-.3a.25.25,0,0,1,.33.11A.26.26,0,0,1,182.34,178.72Z" fill="#e84b54"/><path d="M115.08,201.08a.24.24,0,0,1-.33-.12.6.6,0,0,1,0-.5.25.25,0,1,1,.47.17s0,0,0,.12A.24.24,0,0,1,115.08,201.08Z" fill="#67717c"/><path d="M115.73,202.88a.25.25,0,0,1-.34-.12L115,202a.25.25,0,0,1,.12-.33.24.24,0,0,1,.33.12l.39.81A.25.25,0,0,1,115.73,202.88Z" fill="#67717c"/><path d="M136.47,199l-12.25,5.89-2.06,6.1a.2.2,0,0,1-.32,0l-4-8.29a8,8,0,0,1-.68-2.11c0-.23-.13-.5-.12-.72a3.59,3.59,0,0,1,0-1,9.58,9.58,0,0,1,18.22-4.32l1.74,3.6A1,1,0,0,1,136.47,199Z" fill="#dce1e5"/><path d="M120,211.31l-.17,0a.4.4,0,0,1-.4-.21l-3.33-6.93a.26.26,0,0,1,.11-.34.25.25,0,0,1,.34.12l3.25,6.75,2-6,12.35-5.94a.43.43,0,0,0,.21-.6l-1.73-3.61a9.33,9.33,0,0,0-17.75,4.22.25.25,0,0,1-.25.25.24.24,0,0,1-.25-.24,9.83,9.83,0,0,1,18.7-4.44l1.73,3.6a.92.92,0,0,1-.44,1.27l-12.16,5.85-2,6A.43.43,0,0,1,120,211.31Z" fill="#67717c"/><path d="M125,199.85a9.58,9.58,0,0,1-5.48.92.25.25,0,1,1,.07-.49,9.1,9.1,0,0,0,5.19-.88,10,10,0,0,0,3.94-3.52.25.25,0,0,1,.35-.07.25.25,0,0,1,.07.34A10.53,10.53,0,0,1,125,199.85Z" fill="#e84b54"/></g><g id="more-stuff"><path d="M173.3,111.4a.5.5,0,0,1-.4-.58l.37-2.07a.5.5,0,0,1,1,.18l-.37,2.06A.5.5,0,0,1,173.3,111.4Z" fill="#dce1e5"/><path d="M174.63,104a.5.5,0,0,1-.4-.58l.37-2.07a.5.5,0,0,1,.58-.4.49.49,0,0,1,.4.58l-.37,2.06A.5.5,0,0,1,174.63,104Z" fill="#dce1e5"/><path d="M171.49,106.19l-2.06-.37a.5.5,0,1,1,.17-1l2.07.37a.5.5,0,0,1,.4.58A.49.49,0,0,1,171.49,106.19Z" fill="#dce1e5"/><path d="M178.87,107.52l-2.06-.37a.5.5,0,1,1,.17-1l2.07.37a.5.5,0,0,1,.4.58A.49.49,0,0,1,178.87,107.52Z" fill="#dce1e5"/><path d="M170.2,109.42a.57.57,0,0,1-.32-.21.51.51,0,0,1,.12-.7l1.75-1.21a.5.5,0,0,1,.69.13.49.49,0,0,1-.12.69l-1.75,1.21A.49.49,0,0,1,170.2,109.42Z" fill="#dce1e5"/><path d="M176.36,105.14a.48.48,0,0,1-.33-.21.5.5,0,0,1,.13-.69L177.9,103a.51.51,0,0,1,.7.12.5.5,0,0,1-.13.7l-1.74,1.21A.5.5,0,0,1,176.36,105.14Z" fill="#dce1e5"/><path d="M172.62,104.47a.51.51,0,0,1-.32-.21l-1.22-1.74a.51.51,0,0,1,.13-.7.5.5,0,0,1,.7.13l1.21,1.74a.51.51,0,0,1-.13.7A.55.55,0,0,1,172.62,104.47Z" fill="#dce1e5"/><path d="M176.89,110.62a.5.5,0,0,1-.32-.2l-1.21-1.75a.49.49,0,0,1,.13-.69.5.5,0,0,1,.69.12l1.21,1.75a.5.5,0,0,1-.12.69A.48.48,0,0,1,176.89,110.62Z" fill="#dce1e5"/><path d="M76.05,111.45a2.2,2.2,0,1,1,2.55-1.77,2.2,2.2,0,0,1-2.55,1.77m1-5.31a3.2,3.2,0,1,0,2.58,3.71A3.19,3.19,0,0,0,77,106.14" fill="#fdedee"/><circle cx="163.91" cy="138.67" r="2" fill="#dce1e5"/><path d="M108.07,177.88a.49.49,0,0,1-.21-.89l1.29-1a.52.52,0,0,1,.71.09.51.51,0,0,1-.1.7l-1.29,1A.48.48,0,0,1,108.07,177.88Z" fill="#dce1e5"/><path d="M103.1,181.26a.51.51,0,0,1-.32-.21.5.5,0,0,1,.12-.7l1.28-.89a.5.5,0,0,1,.57.83l-1.28.88A.5.5,0,0,1,103.1,181.26Z" fill="#dce1e5"/><path d="M108.41,182.21a.5.5,0,0,1-.32-.2l-.89-1.28a.51.51,0,0,1,.13-.7.49.49,0,0,1,.69.13l.89,1.28a.5.5,0,0,1-.12.69A.48.48,0,0,1,108.41,182.21Z" fill="#dce1e5"/><path d="M104.92,177.32a.51.51,0,0,1-.33-.23l-.87-1.37a.49.49,0,0,1,.16-.69.5.5,0,0,1,.69.15l.87,1.38a.5.5,0,0,1-.52.76Z" fill="#dce1e5"/><path d="M163,78.66a2.2,2.2,0,1,1,2.56-1.78A2.2,2.2,0,0,1,163,78.66m1-5.31a3.2,3.2,0,1,0,2.58,3.71A3.2,3.2,0,0,0,164,73.35" fill="#fdedee"/><path d="M28.74,121.93a.46.46,0,0,1-.32-.21.49.49,0,0,1,.12-.69l1.28-.89a.5.5,0,1,1,.57.82l-1.28.89A.49.49,0,0,1,28.74,121.93Z" fill="#dce1e5"/><path d="M23.76,125.3a.48.48,0,0,1-.33-.23.49.49,0,0,1,.15-.68l1.38-.88a.51.51,0,0,1,.69.16.5.5,0,0,1-.15.69l-1.38.87A.51.51,0,0,1,23.76,125.3Z" fill="#dce1e5"/><path d="M29.08,126.26a.51.51,0,0,1-.32-.21l-.89-1.28a.5.5,0,0,1,.82-.57l.89,1.28a.51.51,0,0,1-.13.7A.55.55,0,0,1,29.08,126.26Z" fill="#dce1e5"/><path d="M25.69,121.38a.51.51,0,0,1-.31-.19l-1-1.3a.5.5,0,1,1,.8-.6l1,1.29a.51.51,0,0,1-.1.7A.52.52,0,0,1,25.69,121.38Z" fill="#dce1e5"/><circle cx="92.9" cy="65.31" r="2" fill="#dce1e5"/><path d="M201.42,163.41a2.2,2.2,0,1,1,2.56-1.78,2.2,2.2,0,0,1-2.56,1.78m1-5.32a3.2,3.2,0,1,0,2.58,3.72,3.21,3.21,0,0,0-2.58-3.72" fill="#fdedee"/><path d="M99.19,205.57a.08.08,0,0,0-.08.06L95.51,211c0,.1,0,.2.06.21l6.42.45c.1,0,.22-.06.14-.18l-2.82-5.79a.25.25,0,0,0-.12-.1" fill="#fdedee"/><path d="M41.5,65.19,39,69.32c0,.1,0,.2.08.12L44,69.5c.1,0,.12-.08.13-.18L41.74,65Z" fill="#dce1e5"/><path d="M180.27,47.34a.09.09,0,0,0-.11.06l-5,4.08c-.11.08,0,.19.07.21l6,2.3a.36.36,0,0,0,.14-.18l-1-6.38s0-.08-.08-.09" fill="#fdedee"/></g></svg>