<?xml version="1.0" encoding="utf-8"?>
<!-- Generator: Adobe Illustrator 22.0.1, SVG Export Plug-In . SVG Version: 6.00 Build 0)  -->
<svg version="1.1" id="Layer_1" xmlns="http://www.w3.org/2000/svg" xmlns:xlink="http://www.w3.org/1999/xlink" x="0px" y="0px"
	 viewBox="0 0 100 100" enable-background="new 0 0 100 100" xml:space="preserve">
<g>
	<path fill="#DCE1E5" d="M93.3,45.7c2,9.1-3.4,17.8-12.1,19.8L31.5,77.3c-8.7,2-17.8-3.4-19.8-12.4c-2-8.1,2.4-16.1,9.7-19.2
		c-0.3-0.7-0.3-1-0.7-1.7c-1.3-5.7,2-11.4,7.7-12.8c2.4-0.7,5-0.3,7.1,1c1.3-8.1,4-15.5,15.5-18.1c13.8-3.4,22.8,6,25.5,17.1
		c0,0.3,0.3,1,0.3,1.3C84.6,32.6,91.6,38,93.3,45.7z"/>
	<path fill="#67717C" d="M39,70.4l-11.8,2.7l0,0c-1.2,0.3-2.3,0.4-3.5,0.4c-7.1,0-13.7-4.8-15.3-12.2l0,0l0,0
		c-0.3-1.3-0.5-2.5-0.5-3.8c0-6.3,3.9-12,9.7-14.4l0.8-0.3L18.1,42c-0.3-0.5-0.3-0.9-0.7-1.7l-0.8,0.4l0.8-0.2
		c-0.2-0.8-0.3-1.6-0.3-2.3c0-4.4,2.9-8.4,7.4-9.4l0,0l0,0c0.7-0.2,1.5-0.3,2.2-0.3c1.5,0,3,0.4,4.2,1.2l1,0.7l0.3-1.2
		c0.3-1.3,0.7-2.7,1-4c0.1-0.5-0.2-0.9-0.6-1c-0.5-0.1-0.9,0.2-1,0.6c-0.3,1.3-0.7,2.7-1,4l0.8,0.2l0.5-0.7c-1.5-1-3.3-1.5-5.1-1.5
		c-0.9,0-1.8,0.1-2.7,0.4l0.2,0.8l-0.2-0.8c-5.3,1.2-8.7,5.9-8.7,11.1c0,0.9,0.1,1.8,0.3,2.7v0.1v0.1c0.3,0.5,0.3,0.9,0.7,1.7
		l0.8-0.4L17,41.6c-6.5,2.7-10.8,9-10.8,16c0,1.4,0.2,2.8,0.5,4.2l0.8-0.2l-0.8,0.2c1.8,8.2,9.1,13.5,16.9,13.5
		c1.3,0,2.6-0.1,3.9-0.4l11.8-2.7c0.5-0.1,0.7-0.6,0.6-1C39.9,70.6,39.4,70.3,39,70.4L39,70.4z"/>
	<path fill="#67717C" d="M50.4,11.3c0.8-0.1,1.6-0.1,2.3-0.1c5.1,0,9.3,2,12.5,5.1s5.5,7.5,6.7,12.2l0.8-0.2h-0.8
		c0,0.4,0.1,0.7,0.2,0.9l0.1,0.3v0.1l0,0h0.2h-0.2l0,0h0.2h-0.2v0.9h0.9h0.6c7.1,0,13.4,5,15,12.1l0,0c0.3,1.2,0.4,2.4,0.4,3.6
		c0,7.2-4.8,13.5-11.9,15.2c-0.5,0.1-0.7,0.6-0.6,1c0.1,0.5,0.6,0.7,1,0.6c7.9-1.8,13.2-8.9,13.2-16.8c0-1.3-0.1-2.7-0.4-4l0,0
		c-1.7-7.9-8.7-13.4-16.6-13.4h-0.7v0.8H74c0-0.4-0.1-0.7-0.2-0.9l-0.1-0.3v-0.1l0,0h-0.2h0.2l0,0h-0.2h0.2v-0.1v-0.1
		c-1.3-5-3.7-9.6-7.2-13s-8.1-5.6-13.7-5.6c-0.8,0-1.7,0-2.5,0.1c-0.5,0.1-0.8,0.5-0.7,0.9C49.5,11,49.9,11.3,50.4,11.3L50.4,11.3z"
		/>
	<path fill="#67717C" d="M38.7,16.1c1.6-1.3,3.2-2.3,5.5-3.2c0.4-0.2,0.6-0.7,0.4-1.1c-0.2-0.4-0.7-0.6-1.1-0.4
		c-2.4,1-4.2,2.1-5.9,3.5c-0.4,0.3-0.4,0.8-0.1,1.2C37.8,16.3,38.3,16.4,38.7,16.1L38.7,16.1z"/>
	<path fill="#67717C" d="M35.7,19.8l0.5-0.7l0.2-0.3c0.3-0.3,0.3-0.9,0-1.2c-0.3-0.3-0.9-0.3-1.2,0l-0.5,0.7l-0.2,0.3
		c-0.3,0.3-0.3,0.9,0,1.2C34.9,20.1,35.4,20.1,35.7,19.8L35.7,19.8z"/>
	<path fill="#E84B54" d="M46.1,61l4.7,20.2l0,0c0.1,0.5,0.2,1,0.2,1.5c0,2.7-1.9,5-4.6,5.5l0,0L44,88.9c-0.4,0.1-0.7,0.6-0.6,1
		c0.1,0.4,0.6,0.7,1,0.6l2.4-0.7L46.6,89l0.2,0.8c3.5-0.6,6-3.7,6-7.2c0-0.6-0.1-1.3-0.3-2L51.6,81l0.8-0.2l-4.7-20.2
		c-0.1-0.5-0.6-0.7-1-0.6C46.3,60.1,46,60.6,46.1,61L46.1,61z"/>
	<path fill="#E84B54" d="M56.8,58.7l3.4,13.4l0,0c1,3.6,4,5.8,7.5,5.8c0.5,0,1,0,1.6-0.1l0,0l2.4-0.7c0.4-0.1,0.7-0.6,0.6-1
		s-0.6-0.7-1-0.6l-2.4,0.7l0.2,0.8l-0.2-0.8c-0.4,0.1-0.8,0.1-1.3,0.1c-2.8,0-5.1-1.7-5.9-4.5L61,71.9l0.8-0.2l-3.4-13.4
		c-0.1-0.5-0.6-0.7-1-0.6C57,57.8,56.7,58.2,56.8,58.7L56.8,58.7z"/>
</g>
</svg>
