<?xml version="1.0" encoding="utf-8"?>
<!-- Generator: Adobe Illustrator 22.0.1, SVG Export Plug-In . SVG Version: 6.00 Build 0)  -->
<svg version="1.1" id="Layer_1" xmlns="http://www.w3.org/2000/svg" xmlns:xlink="http://www.w3.org/1999/xlink" x="0px" y="0px"
	 viewBox="0 0 80 80" enable-background="new 0 0 80 80" xml:space="preserve">
<g>
	<path fill="#DCE1E5" d="M41,6.6C21,6.6,4.7,22.9,4.7,43c0,14.2,8.1,26.4,20,32.4l8.1-16.5c-5.8-3-9.7-9-9.7-16c0-9.9,8.1-18,18-18
		c9.9,0,18,8.1,18,18c0,7-4,13-9.7,16l8,16.5c11.9-6,20.1-18.3,20.1-32.5C77.4,22.9,61.1,6.6,41,6.6z"/>
	<path fill="#E84B55" d="M55.4,74L47.2,57l0.2-0.1c5.9-3.1,9.6-9.1,9.6-15.8c0-9.8-8-17.8-17.8-17.8c-9.8,0-17.8,8-17.8,17.8
		c0,6.6,3.7,12.7,9.6,15.7l0.2,0.1l-8.3,16.9l-0.2-0.1C10.3,67.5,2.6,55,2.6,41.1C2.6,21,19,4.5,39.2,4.5S75.8,21,75.8,41.1
		c0,13.9-7.7,26.4-20.2,32.7L55.4,74z M47.8,57.2l7.8,16.1c12.2-6.2,19.7-18.5,19.7-32.2C75.3,21.2,59.1,5,39.2,5
		C19.3,5,3.1,21.2,3.1,41.1c0,13.6,7.5,25.9,19.6,32.1l7.8-16c-5.9-3.2-9.6-9.3-9.6-16.1c0-10.1,8.2-18.3,18.3-18.3
		s18.3,8.2,18.3,18.3C57.5,47.9,53.8,54,47.8,57.2z"/>
	<path fill="#68717D" d="M40.5,47c-3.5,0-6.4-2.8-6.4-6.4s2.8-6.4,6.4-6.4c1.5,0,2.9,0.5,4,1.4c0.1,0.1,0.1,0.2,0,0.4
		c-0.1,0.1-0.2,0.1-0.4,0c-1-0.8-2.3-1.3-3.7-1.3c-3.2,0-5.9,2.6-5.9,5.9c0,3.2,2.6,5.9,5.9,5.9c2,0,3.8-1,4.9-2.6
		c0.1-0.1,0.2-0.1,0.3-0.1c0.1,0.1,0.1,0.2,0.1,0.3C44.7,45.9,42.7,47,40.5,47z"/>
	<path fill="#68717D" d="M46.4,39.2c-0.1,0-0.2-0.1-0.2-0.2c-0.1-0.5-0.4-1-0.6-1.4c-0.1-0.1,0-0.3,0.1-0.3c0.1-0.1,0.3,0,0.3,0.1
		c0.3,0.5,0.5,1,0.7,1.5C46.7,39,46.6,39.2,46.4,39.2L46.4,39.2z"/>
	<path fill="#E84B55" d="M44.8,40.6c0,2.4-1.9,4.3-4.3,4.3s-4.3-1.9-4.3-4.3c0-2.4,1.9-4.3,4.3-4.3S44.8,38.2,44.8,40.6z"/>
</g>
</svg>
