<svg id="Layer_1" data-name="Layer 1" xmlns="http://www.w3.org/2000/svg" viewBox="0 0 235 235"><title>ucd</title><g id="girl"><circle cx="123.5" cy="102.7" r="30.5" fill="#dce1e5"/><path d="M114.3,69.9a31.94,31.94,0,0,1,7-.8A30.34,30.34,0,1,1,97.4,80.8a31.92,31.92,0,0,1,4.4-4.6" fill="none" stroke="#67717c" stroke-linecap="round" stroke-miterlimit="10" stroke-width="0.5"/><path d="M111.5,70.7c.1,0,.2-.1.3-.1" fill="none" stroke="#67717c" stroke-linecap="round" stroke-miterlimit="10" stroke-width="0.5"/><path d="M107.1,72.6a23.94,23.94,0,0,1,2.8-1.3" fill="none" stroke="#67717c" stroke-linecap="round" stroke-miterlimit="10" stroke-width="0.5"/><path d="M104.9,73.8a4.05,4.05,0,0,1,.9-.5" fill="none" stroke="#67717c" stroke-linecap="round" stroke-miterlimit="10" stroke-width="0.5"/><path d="M141.1,118.2a2.22,2.22,0,0,1-2.2,2.2h0a2.22,2.22,0,0,1-2.2-2.2v-5.1a2.22,2.22,0,0,1,2.2-2.2h0a2.22,2.22,0,0,1,2.2,2.2Z" fill="#fff" stroke="#67717c" stroke-miterlimit="10" stroke-width="0.5"/><circle cx="141.9" cy="121.4" r="3.2" fill="#fff"/><path d="M141.9,124.6a3.2,3.2,0,1,1,3.2-3.2,2.79,2.79,0,0,1-.6,1.8" fill="none" stroke="#67717c" stroke-linecap="round" stroke-miterlimit="10" stroke-width="0.5"/><path d="M105.3,139.8h8.6a.94.94,0,0,0,1-1V125.6h11.8v13.2a.94.94,0,0,0,1,1h8.6a7,7,0,0,1,7,7" fill="#fff" stroke="#67717c" stroke-linecap="round" stroke-miterlimit="10" stroke-width="0.5"/><line x1="120.4" y1="148.6" x2="120.4" y2="150.6" fill="none" stroke="#67717c" stroke-linecap="round" stroke-miterlimit="10" stroke-width="0.5"/><path d="M143.7,147.8v5.3a.22.22,0,0,1-.2.2H109.9c-.3,0-.3-.4,0-.5l31.5-7.1A2.15,2.15,0,0,1,143.7,147.8Z" fill="#e84b54"/><path d="M101.3,118.2a2.22,2.22,0,0,0,2.2,2.2h0a2.22,2.22,0,0,0,2.2-2.2v-5.1a2.22,2.22,0,0,0-2.2-2.2h0a2.22,2.22,0,0,0-2.2,2.2Z" fill="#fff" stroke="#67717c" stroke-miterlimit="10" stroke-width="0.5"/><circle cx="100.5" cy="121.4" r="3.2" fill="#fff"/><path d="M98.2,119.1a3.1,3.1,0,0,0-.9,1.8,3.24,3.24,0,1,0,3.7-2.7" fill="none" stroke="#67717c" stroke-linecap="round" stroke-miterlimit="10" stroke-width="0.5"/><path d="M105.6,91.8a17.84,17.84,0,0,0,15.7,9.6A17.51,17.51,0,0,0,136.9,92s.2-.5.4-.1a17.72,17.72,0,0,1,1.6,7.3V116a17.6,17.6,0,0,1-35.2,0V99.1a18.55,18.55,0,0,1,1.6-7.4C105.2,91.7,105.4,91.4,105.6,91.8Z" fill="#fff" stroke="#67717c" stroke-miterlimit="10" stroke-width="0.5"/><path d="M115.7,112.4a1.5,1.5,0,1,1-1.5-1.5A1.42,1.42,0,0,1,115.7,112.4Z" fill="#dce1e5"/><path d="M129.8,112.4a1.5,1.5,0,1,1-1.5-1.5A1.37,1.37,0,0,1,129.8,112.4Z" fill="#dce1e5"/><path d="M124.7,123.4a3.57,3.57,0,0,1-6.2,0" fill="none" stroke="#67717c" stroke-linecap="round" stroke-miterlimit="10" stroke-width="0.5"/><path d="M123.5,118.5a1.9,1.9,0,0,1-3.8,0" fill="none" stroke="#67717c" stroke-linecap="round" stroke-miterlimit="10" stroke-width="0.5"/><path d="M106.1,162.4l-13.4,3.5a1.93,1.93,0,0,1-2.4-1.4l-7-27.1a1.93,1.93,0,0,1,1.4-2.4l13.4-3.5a1.93,1.93,0,0,1,2.4,1.4l7,27.1A2,2,0,0,1,106.1,162.4Z" fill="#dce1e5"/><path d="M85.5,153.3l-4.4-17.1a1.93,1.93,0,0,1,1.4-2.4l13.4-3.5a1.93,1.93,0,0,1,2.4,1.4l7,27.1a1.93,1.93,0,0,1-1.4,2.4l-13.4,3.5a1.93,1.93,0,0,1-2.4-1.4l-.3-1.3" fill="none" stroke="#67717c" stroke-linecap="round" stroke-miterlimit="10" stroke-width="0.5"/><ellipse cx="91.39" cy="152" rx="7.3" ry="1.9" transform="translate(-35.1 27.67) rotate(-14.48)" fill="#fff" stroke="#67717c" stroke-linecap="round" stroke-miterlimit="10" stroke-width="0.5"/><ellipse cx="92.31" cy="156.2" rx="7.1" ry="1.9" transform="matrix(0.97, -0.25, 0.25, 0.97, -36.12, 28.04)" fill="#fff" stroke="#67717c" stroke-linecap="round" stroke-miterlimit="10" stroke-width="0.5"/><ellipse cx="92.5" cy="159.89" rx="5.6" ry="1.5" transform="matrix(0.97, -0.25, 0.25, 0.97, -37.04, 28.2)" fill="#fff" stroke="#67717c" stroke-linecap="round" stroke-miterlimit="10" stroke-width="0.5"/><ellipse cx="84" cy="149.41" rx="2" ry="3.8" transform="translate(-4.42 2.58) rotate(-1.71)" fill="#fff" stroke="#67717c" stroke-linecap="round" stroke-miterlimit="10" stroke-width="0.5"/><path d="M95.3,133a1.5,1.5,0,1,1-1.5,1.5,1.27,1.27,0,0,1,.1-.6" fill="none" stroke="#67717c" stroke-linecap="round" stroke-miterlimit="10" stroke-width="0.5"/></g></svg>