<svg id="Layer_1" data-name="Layer 1" xmlns="http://www.w3.org/2000/svg" viewBox="0 0 186.47 186.39"><defs><style>.cls-1{fill:#4dbd74;}.cls-2{fill:#f8cb00;}.cls-3{fill:#f86c6b;}.cls-4{fill:#63c2de;}.cls-5{fill:#fff;}</style></defs><title>chart</title><path class="cls-1" d="M127,131.67l14.58,92A93.19,93.19,0,0,1,35,146.24a90,90,0,0,1,6.91-52.48Z" transform="translate(-33.72 -38.48)"/><path class="cls-2" d="M127,131.67,87.62,47.21A90.65,90.65,0,0,1,127,38.48Z" transform="translate(-33.72 -38.48)"/><path class="cls-3" d="M127,131.67,41.87,93.76c9.5-21.35,24.57-36.68,45.75-46.55Z" transform="translate(-33.72 -38.48)"/><path class="cls-4" d="M127,131.67V38.48a93.19,93.19,0,0,1,93.19,93.19c0,46.78-32.4,84.72-78.61,92Z" transform="translate(-33.72 -38.48)"/><circle class="cls-5" cx="93.28" cy="93.52" r="57"/></svg>