<svg id="Layer_1" data-name="Layer 1" xmlns="http://www.w3.org/2000/svg" viewBox="0 0 48 44"><title>chat</title><path d="M44.52,4h-39A4.5,4.5,0,0,0,1,8.48v26A4.5,4.5,0,0,0,5.48,39h8.74l11.66,7,9.44-7h9.19A4.5,4.5,0,0,0,49,34.52v-26A4.5,4.5,0,0,0,44.52,4ZM12,14.5a4,4,0,1,1,4,4A4,4,0,0,1,12,14.5Zm19.5,17h-13a2.5,2.5,0,0,1,0-5h13a2.5,2.5,0,0,1,0,5Zm2.5-13a4,4,0,1,1,4-4A4,4,0,0,1,34,18.5Z" transform="translate(-1 -2)"/><rect x="7" width="3" height="4" rx="1.5" ry="1.5"/><rect x="38" width="3" height="4" rx="1.5" ry="1.5"/></svg>