<svg id="Layer_1" data-name="Layer 1" xmlns="http://www.w3.org/2000/svg" viewBox="0 0 187.37 38.33"><defs><style>.cls-1{fill:#045e9f;}.cls-2{fill:#d83976;}</style></defs><title>logo</title><path class="cls-1" d="M9.38,44c.79-3,1.9-5.83,2.82-8.75.52-1.65,1.05-3.3,1.66-4.92a1.25,1.25,0,0,0-.54-1.75c-3.85-2.7-7.66-5.46-11.49-8.21.2-.33.49-.17.71-.17,4.55,0,9.09,0,13.64.07a1.05,1.05,0,0,0,1.23-.88c1.31-4.28,2.67-8.53,4-12.8.09-.3.32-.58.14-.92H22c1.36,4.36,2.68,8.74,4.11,13.08a2.6,2.6,0,0,0,4,1.22,1.12,1.12,0,0,1,1.52,0,2.56,2.56,0,0,0,3.2,0,1,1,0,0,1,1.35,0c1.25.92,2.52.68,3.85-.33-.13.83.38,1.58-.39,2.1a2.55,2.55,0,0,1-3,.29,1.66,1.66,0,0,0-2.17,0,2.37,2.37,0,0,1-2.85-.19,1,1,0,0,0-1.38,0,2.75,2.75,0,0,1-3.38,0c-.25-.16-.48-.5-.86-.21a3.1,3.1,0,0,1-4.3-.17A2.24,2.24,0,0,0,25,23.68a2.11,2.11,0,0,1,2.36,0,2.62,2.62,0,0,0,2.87-.26c.29-.17.53-.48.95-.18a3.11,3.11,0,0,0,3.91,0,1.07,1.07,0,0,1,.33-.07c-.1.76.36,1.56-.56,2.12s-2,.92-2.93.24a1.67,1.67,0,0,0-2.21,0,2.54,2.54,0,0,1-2.94-.26c-.24-.16-.44-.56-.83-.24-1.43,1.16-2.87,1.1-4.4-.24.08.84-.29,1.48.4,2a2.68,2.68,0,0,0,3,.48,2.14,2.14,0,0,1,2.46,0c1.11.65,2.21.17,3.33-.6-.1.83.4,1.58-.41,2.14a2.61,2.61,0,0,1-3.11.29,1.53,1.53,0,0,0-2,0,2.42,2.42,0,0,1-2.7,0c-.28-.15-.49-.44-.85-.43A2.16,2.16,0,0,0,25,30.9a2.19,2.19,0,0,1,2.54,0,2,2,0,0,0,1.89.11c.45-.19.62-.09.77.35,1.31,4,2.65,8,4,12a2.06,2.06,0,0,1,0,.5l-3.78-2.77-7.9-5.83c-.34-.25-.6-.5-1.09-.14C17.51,38,13.63,40.84,9.76,43.7c-.1.07-.23.14-.18.3Z" transform="translate(-1.83 -5.67)"/><path class="cls-2" d="M76.14,38.78V33l6.26-12.9h-6l-2.93,7.36h-.21l-2.91-7.36H64.12l6.26,13.08v5.63ZM48,38.78V28.35h.27l3.21,6.88h3l3.18-6.88h.26V38.78h5.17V20.07h-6l-4,8.35h-.19l-4-8.35h-6V38.78Z" transform="translate(-1.83 -5.67)"/><path class="cls-1" d="M189.2,34.35h-7.65V31.45h7.14v-4h-7.14V24.5h7.65V20.07H175.87V38.78H189.2Zm-26.41-5.78c0-2.7,1-4.14,2.73-4.14s2.58,1.36,2.58,3.14h5.44v-.81c0-4.26-3.36-7-8.07-7-5.54,0-8.57,3.45-8.57,8.81v1.69c0,5.35,3,8.83,8.57,8.83,4.71,0,8.07-2.74,8.07-7v-.84H168.1c0,1.78-.88,3.15-2.58,3.15s-2.73-1.44-2.73-4.13ZM145,28.71V24.2h2.07a2.21,2.21,0,0,1,2.36,2.29,2.14,2.14,0,0,1-2.36,2.22ZM148,20.07h-8.58V38.78H145V32.55h1.44l3,6.24h6.32l-3.67-7a5.93,5.93,0,0,0,3.28-5.3C155.38,22.65,152.85,20.07,148,20.07Zm-22.33,0h-5.76V32.31c0,4.13,3.15,6.78,8.28,6.78s8.28-2.66,8.28-6.78V20.07h-5.76V31.5c0,2-1.08,2.88-2.52,2.88s-2.52-.81-2.52-2.88ZM100,30.38c0,5.25,3.12,8.72,8.84,8.72s8.83-3.47,8.83-8.72V28.54c0-5.28-3.1-8.77-8.83-8.77S100,23.23,100,28.54Zm5.89-1.92c0-2.69,1.11-4.13,2.95-4.13s2.93,1.44,2.93,4.13v1.95c0,2.7-1.11,4.13-2.93,4.13s-2.95-1.43-2.95-4.13ZM82.35,33.05c0,2.88,1.88,6,8,6,5.48,0,8.1-2.66,8.1-6.3,0-3.86-2.69-5.19-5.28-5.58l-2.4-.37c-1.52-.23-2.44-.64-2.44-1.45s.62-1.47,2.08-1.47c1.66,0,2.41,1,2.44,1.77h5.21c0-2.92-2.37-5.92-7.66-5.92-4.66,0-7.77,2.22-7.77,6.09,0,3.47,2.23,5,5.32,5.56l2.26.4c1.69.3,2.62.63,2.62,1.59,0,.77-.6,1.47-2.36,1.47s-2.71-.95-2.74-1.82Z" transform="translate(-1.83 -5.67)"/></svg>