
<svg width="193px" height="121px" viewBox="0 0 193 121" version="1.1" xmlns="http://www.w3.org/2000/svg" xmlns:xlink="http://www.w3.org/1999/xlink">
    <!-- Generator: Sketch 47.1 (45422) - http://www.bohemiancoding.com/sketch -->
    <desc>Created with Sketch.</desc>
    <defs></defs>
    <g id="Page-1" stroke="none" stroke-width="1" fill="none" fill-rule="evenodd">
        <g id="icon1">
            <polygon id="Page-1" fill="#F60000" points="192.746413 0 164 6.45971906 178.439553 14.8304938"></polygon>
            <path d="M46.4703543,71.3636852 C46.4703543,73.2212084 45.0219794,74.7273704 43.2350194,74.7273704 C41.4483748,74.7273704 40,73.2212084 40,71.3636852 C40,69.506162 41.4483748,68 43.2350194,68 C45.0219794,68 46.4703543,69.506162 46.4703543,71.3636852" id="Fill-1" fill="#DC317F"></path>
            <path d="M48.5898977,32.0248426 C48.5898977,35.3521412 45.9952856,38.0496852 42.7949488,38.0496852 C39.5946121,38.0496852 37,35.3521412 37,32.0248426 C37,28.697544 39.5946121,26 42.7949488,26 C45.9952856,26 48.5898977,28.697544 48.5898977,32.0248426" id="Fill-3" fill="#F60000"></path>
            <polygon id="Fill-10" fill="#0063F7" points="12.6706002 27.833765 8.56192521 27.833765 8.56192521 23.5620931 4.31140016 23.5620931 4.31140016 27.833765 0.202725188 27.833765 0.202725188 32.2529143 4.31140016 32.2529143 4.31140016 36.5245862 8.56192521 36.5245862 8.56192521 32.2529143 12.6706002 32.2529143"></polygon>
            <g id="Content" transform="translate(68.000000, 14.000000)">
                <polygon id="Fill-300" fill="#F2F2F2" points="83.1728474 23.9210148 59.9015159 0.671014815 0.914069315 0.671014815 0.914069315 104.831015 83.1728474 104.831015"></polygon>
                <polygon id="Fill-301" fill="#E2E2E2" points="5.54121178 0.747251852 59.9750721 0.747251852 59.9015159 0.671474074 0.914069315 0.671474074 0.914069315 104.831474 5.54121178 104.831474"></polygon>
                <polygon id="Fill-302" fill="#E2E2E2" points="59.901286 0.671014815 59.901286 23.9210148 64.4824559 23.9210148 64.4824559 5.24982963"></polygon>
                <polygon id="Fill-303" fill="#FFFFFF" points="83.1728474 104.831704 83.1728474 23.9217037 59.9015159 0.671703704 59.9750721 4.85096296 77.954957 23.9217037 77.954957 104.831704"></polygon>
                <polygon id="Stroke-304" stroke="#000000" stroke-width="2.3" stroke-linecap="round" stroke-linejoin="round" points="83.1728474 23.9210148 59.9015159 0.671014815 0.914069315 0.671014815 0.914069315 104.831015 83.1728474 104.831015"></polygon>
                <polygon id="Stroke-305" stroke="#000000" stroke-width="2.3" stroke-linecap="round" stroke-linejoin="round" points="83.1728474 23.9210148 59.9015159 0.671014815 59.9015159 23.9210148"></polygon>
                <path d="M20.4487477,53.0731852 L63.6377093,53.0731852" id="Stroke-306" stroke="#000000" stroke-width="2.3" stroke-linecap="round" stroke-linejoin="round"></path>
                <path d="M20.4487477,30.289563 L63.6377093,30.289563" id="Stroke-307" stroke="#000000" stroke-width="2.3" stroke-linecap="round" stroke-linejoin="round"></path>
                <path d="M20.4487477,75.8545111 L63.6377093,75.8545111" id="Stroke-308" stroke="#000000" stroke-width="2.3" stroke-linecap="round" stroke-linejoin="round"></path>
                <polygon id="Fill-309" fill="#FB5B3A" points="105.635981 55.4098963 83.7208408 96.6536741 73.0184189 90.9611556 94.9082737 49.7610074"></polygon>
                <polygon id="Fill-310" fill="#FFFFFF" points="83.7203811 96.6534444 105.635521 55.4096667 103.313904 54.188037 81.4792167 95.2756667"></polygon>
                <polygon id="Fill-311" fill="#DE5336" points="75.3453222 92.125837 97.2098921 50.9739111 94.9089633 49.7614667 73.0168099 90.9616148"></polygon>
                <path d="M73.0174995,90.9620741 L97.1829981,45.4839259 L98.1162419,43.7938519 C99.010409,42.1106667 101.104461,41.4745926 102.782461,42.360963 L107.372825,44.7996296 C109.053124,45.6928889 109.694442,47.7871111 108.802573,49.4657037 L107.890017,51.1764444 L83.7199214,96.6545926 L73.0174995,90.9620741 Z" id="Stroke-312" stroke="#000000" stroke-width="2.3" stroke-linecap="round" stroke-linejoin="round"></path>
                <g id="Group-315" transform="translate(79.452055, 55.367185)">
                    <path d="M0.490527671,35.3549259 L19.1186263,0.205518519" id="Fill-313" fill="#FF5E2F"></path>
                    <path d="M0.490527671,35.3549259 L19.1186263,0.205518519" id="Stroke-314" stroke="#000000" stroke-width="2.3" stroke-linecap="round" stroke-linejoin="round"></path>
                </g>
                <path d="M105.635981,55.4098963 L107.888638,51.1755259 L108.803493,49.4647852 C109.695361,47.7884889 109.051745,45.6942667 107.373745,44.8010074 L102.783381,42.3600444 C101.103082,41.4759704 99.0090299,42.1097481 98.1171614,43.7929333 L97.1816189,45.4853037 L94.9082737,49.7610074 L105.635981,55.4098963 Z" id="Fill-316" fill="#FFE4B8"></path>
                <path d="M106.560949,48.0904519 L105.648393,49.8011926 L103.393437,54.0378593 L94.9873466,49.6106 L94.9091932,49.7621556 L105.6369,55.4110444 L107.889558,51.1766741 L108.804412,49.4659333 C109.693982,47.7873407 109.052664,45.6931185 107.374664,44.7998593 L105.931125,44.0328963 C106.981599,45.0777111 107.289615,46.7126741 106.560949,48.0904519" id="Fill-317" fill="#FFFFFF"></path>
                <path d="M98.1160121,43.7938519 L97.1827682,45.4839259 L94.9071244,49.7619259 L97.3551655,51.0524444 L99.4423216,47.1234815 L100.380163,45.4288148 C101.269733,43.7502222 103.363785,43.1141481 105.044083,43.9959259 L108.560987,45.8651111 C108.257568,45.438 107.866801,45.0637037 107.372596,44.7996296 L102.782231,42.360963 C101.104231,41.4745926 99.0101792,42.1106667 98.1160121,43.7938519" id="Fill-318" fill="#EFD2A8"></path>
                <path d="M105.635981,55.4098963 L107.888638,51.1755259 L108.803493,49.4647852 C109.695361,47.7884889 109.051745,45.6942667 107.373745,44.8010074 L102.783381,42.3600444 C101.103082,41.4759704 99.0090299,42.1097481 98.1171614,43.7929333 L97.1816189,45.4853037 L94.9082737,49.7610074 L103.314364,54.1882667 L105.635981,55.4098963 Z" id="Stroke-319" stroke="#000000" stroke-width="2.3" stroke-linecap="round" stroke-linejoin="round"></path>
                <polygon id="Fill-320" fill="#FFE4B8" points="83.7203811 96.6534444 72.2869948 104.982111 73.0179592 90.9609259"></polygon>
                <polygon id="Fill-321" fill="#FFFFFF" points="73.3542488 103.143237 83.7210707 96.6539037 81.3626762 95.4001259"></polygon>
                <polygon id="Fill-322" fill="#EFD2A8" points="73.0174995 90.9620741 73.3530995 103.143926 75.3299214 92.1905926"></polygon>
                <polygon id="Fill-323" fill="#FB5B3A" points="72.5304197 100.3266 72.2890636 104.981193 76.0864005 102.211859"></polygon>
                <polygon id="Stroke-324" stroke="#000000" stroke-width="2.3" stroke-linecap="round" stroke-linejoin="round" points="83.7203811 96.6534444 72.2869948 104.982111 73.0179592 90.9609259"></polygon>
            </g>
        </g>
    </g>
</svg>