
<svg width="199px" height="125px" viewBox="0 0 199 125" version="1.1" xmlns="http://www.w3.org/2000/svg" xmlns:xlink="http://www.w3.org/1999/xlink">
    <!-- Generator: Sketch 47.1 (45422) - http://www.bohemiancoding.com/sketch -->
    <desc>Created with Sketch.</desc>
    <defs></defs>
    <g id="Page-1" stroke="none" stroke-width="1" fill="none" fill-rule="evenodd">
        <g id="icon2" transform="translate(0.000000, 2.000000)">
            <polygon id="Page-1" fill="#0063F7" points="16.5800049 77 6 91.2233135 22.9726562 84.0085499"></polygon>
            <path d="M11.5898977,35.0248426 C11.5898977,38.3521412 8.99528563,41.0496852 5.79494885,41.0496852 C2.59461207,41.0496852 0,38.3521412 0,35.0248426 C0,31.697544 2.59461207,29 5.79494885,29 C8.99528563,29 11.5898977,31.697544 11.5898977,35.0248426" id="Fill-3" fill="#F60000"></path>
            <g id="Group-14" transform="translate(183.508980, 62.894849) rotate(126.000000) translate(-183.508980, -62.894849) translate(158.508980, 39.639035)">
                <path d="M45.9274979,43.311361 C45.9274979,44.7577804 44.7753425,45.9306012 43.3538488,45.9306012 C41.9326061,45.9306012 40.7804507,44.7577804 40.7804507,43.311361 C40.7804507,41.8649417 41.9326061,40.6921209 43.3538488,40.6921209 C44.7753425,40.6921209 45.9274979,41.8649417 45.9274979,43.311361" id="Fill-1" fill="#DC317F"></path>
                <path d="M50,5.08951887 C50,7.68042543 47.9360341,9.78095357 45.3902254,9.78095357 C42.8444166,9.78095357 40.7804507,7.68042543 40.7804507,5.08951887 C40.7804507,2.4986123 42.8444166,0.398084168 45.3902254,0.398084168 C47.9360341,0.398084168 50,2.4986123 50,5.08951887" id="Fill-3" fill="#F60000"></path>
                <polygon id="Fill-10" fill="#0063F7" points="9.91796399 24.2743156 6.64958903 24.2743156 6.64958903 20.9480429 3.26837496 20.9480429 3.26837496 24.2743156 0 24.2743156 0 27.7154264 3.26837496 27.7154264 3.26837496 31.0416991 6.64958903 31.0416991 6.64958903 27.7154264 9.91796399 27.7154264"></polygon>
            </g>
            <g id="Workshops" transform="translate(28.000000, 0.000000)">
                <path d="M128.0645,35.4452444 L67.7852236,0.679318519 C67.0450647,0.252207407 66.2313496,0.0730962963 65.4291277,0.0822814815 C65.3785578,0.0776888889 65.3302866,0.0822814815 65.2820153,0.0776888889 C65.2291468,0.0822814815 65.1808756,0.0776888889 65.1280071,0.0822814815 C64.3280838,0.0730962963 63.5166674,0.252207407 62.7719112,0.679318519 L2.49493315,35.4452444 C0.29744274,36.7128 -0.456507945,39.5211704 0.81233589,41.7164296 L4.45336603,48.0151704 C5.71991123,50.2104296 8.53343452,50.9636148 10.7332236,49.693763 L65.2820153,18.2345037 L119.82621,49.693763 C122.025999,50.9636148 124.839522,50.2104296 126.106067,48.0151704 L129.747098,41.7164296 C131.015941,39.5211704 130.261991,36.7128 128.0645,35.4452444" id="Fill-325" fill="#00E9C4"></path>
                <path d="M64.8183816,15.9960741 L124.582765,49.6551852 C123.201288,50.4680741 121.445135,50.553037 119.957921,49.6942222 L64.8183816,18.9100741 L64.8183816,15.9960741 Z" id="Fill-326" fill="#18D6B2"></path>
                <path d="M2.62756411,35.4452444 L62.9068408,0.679318519 C63.6469997,0.252207407 64.4607148,0.0730962963 65.2629367,0.0822814815 C65.3135066,0.0776888889 65.3617778,0.0822814815 65.410049,0.0776888889 C65.4629175,0.0822814815 65.5111888,0.0776888889 65.5640573,0.0822814815 C66.3639805,0.0730962963 67.175397,0.252207407 67.9201532,0.679318519 L68.7821395,1.17761481 C68.7200764,1.20976296 68.6534162,1.21894815 68.5913532,1.25339259 L8.31207644,36.0193185 C6.11458603,37.2868741 5.36063534,40.0952444 6.62947918,42.2905037 L10.2705093,48.5892444 C10.4888792,48.9681333 10.7670134,49.2873185 11.068134,49.5766519 L10.8658545,49.693763 C8.66606548,50.9636148 5.85254219,50.2104296 4.58599699,48.0151704 L0.944966849,41.7164296 C-0.323876986,39.5211704 0.430073699,36.7128 2.62756411,35.4452444" id="Fill-327" fill="#18D6B2"></path>
                <path d="M64.8183816,15.9960741 L6.10906932,49.6551852 C7.49054603,50.4680741 9.24669945,50.553037 10.7339132,49.6942222 L64.8183816,18.9100741 L64.8183816,15.9960741 Z" id="Fill-328" fill="#FFFFFF"></path>
                <path d="M128.0645,35.4452444 L67.7852236,0.679318519 C67.0450647,0.252207407 66.2313496,0.0730962963 65.4291277,0.0822814815 C65.3785578,0.0776888889 65.3302866,0.0822814815 65.2820153,0.0776888889 C65.2291468,0.0822814815 65.1808756,0.0776888889 65.1280071,0.0822814815 C64.3280838,0.0730962963 63.5166674,0.252207407 62.7719112,0.679318519 L61.9099249,1.17761481 C61.9719879,1.20976296 62.0386482,1.21894815 62.1007112,1.25339259 L122.379988,36.0193185 C124.577478,37.2868741 125.331429,40.0952444 124.062585,42.2905037 L120.421555,48.5892444 C120.203185,48.9681333 119.925051,49.2873185 119.62393,49.5766519 L119.82621,49.693763 C122.025999,50.9636148 124.839522,50.2104296 126.106067,48.0151704 L129.747098,41.7164296 C131.015941,39.5211704 130.261991,36.7128 128.0645,35.4452444" id="Fill-329" fill="#FFFFFF"></path>
                <path d="M128.0645,35.4452444 L67.7852236,0.679318519 C67.0450647,0.252207407 66.2313496,0.0730962963 65.4291277,0.0822814815 C65.3785578,0.0776888889 65.3302866,0.0822814815 65.2820153,0.0776888889 C65.2291468,0.0822814815 65.1808756,0.0776888889 65.1280071,0.0822814815 C64.3280838,0.0730962963 63.5166674,0.252207407 62.7719112,0.679318519 L2.49493315,35.4452444 C0.29744274,36.7128 -0.456507945,39.5211704 0.81233589,41.7164296 L4.45336603,48.0151704 C5.71991123,50.2104296 8.53343452,50.9636148 10.7332236,49.693763 L65.2820153,18.2345037 L119.82621,49.693763 C122.025999,50.9636148 124.839522,50.2104296 126.106067,48.0151704 L129.747098,41.7164296 C131.015941,39.5211704 130.261991,36.7128 128.0645,35.4452444 Z" id="Stroke-330" stroke="#000000" stroke-width="2.3" stroke-linecap="round" stroke-linejoin="round"></path>
                <path d="M115.034715,46.9287926 L65.280866,18.2342741 L15.5178222,46.9356815 L15.5224195,46.9402741 L15.5224195,102.944644 C15.5224195,105.479756 17.5796934,107.537237 20.1196797,107.537237 L110.439754,107.537237 C112.97974,107.537237 115.037014,105.479756 115.037014,102.944644 L115.037014,46.9402741 L115.034715,46.9287926 Z" id="Fill-331" fill="#B6ECEF"></path>
                <path d="M115.034715,46.9287926 L109.874291,43.9527926 L109.874291,107.537237 L110.439754,107.537237 C112.97974,107.537237 115.037014,105.479756 115.037014,102.944644 L115.037014,46.9402741 L115.034715,46.9287926 Z" id="Fill-332" fill="#FFFFFF"></path>
                <path d="M15.5180521,46.9356815 L15.5203507,46.9402741 L15.5203507,102.944644 C15.5203507,105.479756 17.5799233,107.537237 20.117611,107.537237 L20.8026027,107.537237 L20.8026027,43.8884963 L15.5180521,46.9356815 Z" id="Fill-333" fill="#7FE0F1"></path>
                <path d="M115.034715,46.9287926 L65.280866,18.2342741 L15.5178222,46.9356815 L15.5224195,46.9402741 L15.5224195,102.944644 C15.5224195,105.479756 17.5796934,107.537237 20.1196797,107.537237 L110.439754,107.537237 C112.97974,107.537237 115.037014,105.479756 115.037014,102.944644 L115.037014,46.9402741 L115.034715,46.9287926 Z" id="Stroke-334" stroke="#000000" stroke-width="2.3" stroke-linecap="round" stroke-linejoin="round"></path>
                <path d="M79.5374299,99.9454519 L57.9877723,78.4199704 C59.2796025,74.5667852 58.4015258,70.1487111 55.3328545,67.0808593 C52.2618847,64.0153037 47.8393203,63.1404148 43.9822189,64.4263407 L49.4115833,69.8547852 C50.6114682,71.0511556 50.6114682,72.9938222 49.4115833,74.1901926 L46.7888463,76.8102667 C45.5889614,78.006637 43.6466189,78.006637 42.446734,76.8102667 L37.0196682,71.3841185 C35.7255395,75.2350074 36.6036162,79.6530815 39.674586,82.7209333 C42.7455559,85.7887852 47.1681203,86.6659704 51.022923,85.3754519 L72.5748792,106.900933 C71.283049,110.754119 72.1611258,115.172193 75.2320956,118.240044 C78.3007668,121.307896 82.7233312,122.185081 86.578134,120.894563 L81.146471,115.468415 C79.9534819,114.272044 79.9488847,112.331674 81.146471,111.130711 L83.7738052,108.510637 C84.9713915,107.314267 86.913734,107.314267 88.1113203,108.510637 L93.5429833,113.936785 C94.8325148,110.085896 93.9544381,105.667822 90.8857668,102.59997 C87.8170956,99.5321185 83.3968299,98.6549333 79.5374299,99.9454519" id="Fill-335" fill="#FCFCFC"></path>
                <path d="M77.7212822,114.474578 C75.7582521,111.59043 75.5421808,110.171319 76.8317123,106.318133 L51.9674301,82.0141333 C48.1126274,83.3046519 44.6577863,82.4045037 41.5868164,79.3366519 C40.0467342,77.7981333 39.6375781,75.5385778 39.1962411,73.563763 L37.0194384,71.3845778 C35.7253096,75.2354667 36.6033863,79.6535407 39.6743562,82.7213926 C42.745326,85.7892444 47.1678904,86.6664296 51.0226932,85.3759111 L72.5746493,106.901393 C71.2828192,110.754578 72.1608959,115.172652 75.2318658,118.240504 C78.300537,121.308356 82.7231014,122.183244 86.5802027,120.895022 L83.1207644,117.439096 C81.1416438,117.000504 78.9464521,116.272578 77.7212822,114.474578" id="Fill-336" fill="#E2E2E2"></path>
                <path d="M90.8869162,102.600659 C87.8159463,99.5328074 83.3956805,98.6556222 79.5385792,99.9461407 L57.986623,78.4206593 C59.2784532,74.5674741 58.4003764,70.1494 55.3317052,67.0815481 C52.2607353,64.0136963 47.838171,63.1388074 43.9833682,64.4270296 L46.2590121,66.7049556 C48.9622011,66.7945111 52.0124833,67.5247333 53.6973792,69.9036963 C55.9086614,73.0220667 55.7109792,75.768437 54.4214477,79.6216222 L78.6191271,103.482437 C82.4785271,102.191919 86.1816203,102.354956 89.2525901,105.422807 C91.3144614,107.482585 92.3626367,110.150881 92.4545819,112.84903 L93.541834,113.937474 C94.8336641,110.086585 93.9555874,105.668511 90.8869162,102.600659" id="Fill-337" fill="#FFFFFF"></path>
                <path d="M79.5374299,99.9454519 L57.9877723,78.4199704 C59.2796025,74.5667852 58.4015258,70.1487111 55.3328545,67.0808593 C52.2618847,64.0153037 47.8393203,63.1404148 43.9822189,64.4263407 L49.4115833,69.8547852 C50.6114682,71.0511556 50.6114682,72.9938222 49.4115833,74.1901926 L46.7888463,76.8102667 C45.5889614,78.006637 43.6466189,78.006637 42.446734,76.8102667 L37.0196682,71.3841185 C35.7255395,75.2350074 36.6036162,79.6530815 39.674586,82.7209333 C42.7455559,85.7887852 47.1681203,86.6659704 51.022923,85.3754519 L72.5748792,106.900933 C71.283049,110.754119 72.1611258,115.172193 75.2320956,118.240044 C78.3007668,121.307896 82.7233312,122.185081 86.578134,120.894563 L81.146471,115.468415 C79.9534819,114.272044 79.9488847,112.331674 81.146471,111.130711 L83.7738052,108.510637 C84.9713915,107.314267 86.913734,107.314267 88.1113203,108.510637 L93.5429833,113.936785 C94.8325148,110.085896 93.9544381,105.667822 90.8857668,102.59997 C87.8170956,99.5321185 83.3968299,98.6549333 79.5374299,99.9454519 Z" id="Stroke-338" stroke="#000000" stroke-width="2.3" stroke-linecap="round" stroke-linejoin="round"></path>
                <path d="M47.3474134,119.973059 C45.3476052,121.968541 42.111134,121.968541 40.1136244,119.973059 L37.9391203,117.805356 C35.9416107,115.809874 35.9416107,112.5698 37.9391203,110.574319 L51.5516079,96.9779481 C53.5491175,94.9824667 56.7878874,94.9824667 58.7876956,96.9779481 L60.9576025,99.1479481 C62.9551121,101.145726 62.9551121,104.378911 60.9576025,106.374393 L47.3474134,119.973059 Z" id="Fill-339" fill="#FB5B3A"></path>
                <polygon id="Fill-340" fill="#F2F2F2" points="61.1371255 99.3288963 58.6040351 96.7983778 85.6956899 69.7365259 86.776046 66.4849704 89.4148734 63.8534148 94.1178707 68.551637 91.4836405 71.1831926 88.224183 72.2693407"></polygon>
                <polygon id="Stroke-341" stroke="#000000" stroke-width="2.3" stroke-linecap="round" stroke-linejoin="round" points="61.1371255 99.3288963 58.6040351 96.7983778 85.6956899 69.7365259 86.776046 66.4849704 89.4148734 63.8534148 94.1178707 68.551637 91.4836405 71.1831926 88.224183 72.2693407"></polygon>
                <path d="M56.667669,100.775333 L41.2530553,116.176593" id="Stroke-342" stroke="#000000" stroke-width="2.3" stroke-linecap="round" stroke-linejoin="round"></path>
                <path d="M51.5518378,96.978637 L37.9393501,110.575007 C36.4406433,112.072193 36.0659666,114.272044 36.8176186,116.118267 L57.100731,95.8603407 C55.2503337,95.1094519 53.0505447,95.4814519 51.5518378,96.978637" id="Fill-343" fill="#DE5336"></path>
                <path d="M47.3474134,119.973059 L60.9576025,106.374393 C62.5321641,104.80143 62.8447778,102.466096 61.9391175,100.567059 L41.5318792,120.953578 C43.4328463,121.858319 45.7705532,121.548319 47.3474134,119.973059" id="Fill-344" fill="#FFFFFF"></path>
                <path d="M47.3474134,119.973059 C45.3476052,121.968541 42.111134,121.968541 40.1136244,119.973059 L37.9391203,117.805356 C35.9416107,115.809874 35.9416107,112.5698 37.9391203,110.574319 L51.5516079,96.9779481 C53.5491175,94.9824667 56.7878874,94.9824667 58.7876956,96.9779481 L60.9576025,99.1479481 C62.9551121,101.145726 62.9551121,104.378911 60.9576025,106.374393 L47.3474134,119.973059 Z" id="Stroke-345" stroke="#000000" stroke-width="2.3" stroke-linecap="round" stroke-linejoin="round"></path>
            </g>
        </g>
    </g>
</svg>