
<svg width="221px" height="121px" viewBox="0 0 221 121" version="1.1" xmlns="http://www.w3.org/2000/svg" xmlns:xlink="http://www.w3.org/1999/xlink">
    <!-- Generator: Sketch 47.1 (45422) - http://www.bohemiancoding.com/sketch -->
    <desc>Created with Sketch.</desc>
    <defs></defs>
    <g id="Page-1" stroke="none" stroke-width="1" fill="none" fill-rule="evenodd">
        <g id="icon3">
            <polygon id="Page-1" fill="#0063F7" points="201.831083 93.2891722 191 112 221.025052 106.646106"></polygon>
            <polygon id="Page-1" fill="#F60000" points="34.7464132 0 6 6.45971906 20.4395528 14.8304938"></polygon>
            <path d="M57.4703543,91.3636852 C57.4703543,93.2212084 56.0219794,94.7273704 54.2350194,94.7273704 C52.4483748,94.7273704 51,93.2212084 51,91.3636852 C51,89.506162 52.4483748,88 54.2350194,88 C56.0219794,88 57.4703543,89.506162 57.4703543,91.3636852" id="Fill-1" fill="#DC317F"></path>
            <path d="M62.5898977,43.0248426 C62.5898977,46.3521412 59.9952856,49.0496852 56.7949488,49.0496852 C53.5946121,49.0496852 51,46.3521412 51,43.0248426 C51,39.697544 53.5946121,37 56.7949488,37 C59.9952856,37 62.5898977,39.697544 62.5898977,43.0248426" id="Fill-3" fill="#F60000"></path>
            <polygon id="Fill-10" fill="#0063F7" points="12.467875 67.2716719 8.35920003 67.2716719 8.35920003 63 4.10867498 63 4.10867498 67.2716719 0 67.2716719 0 71.6908212 4.10867498 71.6908212 4.10867498 75.9624931 8.35920003 75.9624931 8.35920003 71.6908212 12.467875 71.6908212"></polygon>
            <g id="HR-Consulting" transform="translate(57.000000, 7.000000)">
                <path d="M33.9543638,78.2974162 C33.9543638,78.2974162 31.9373159,88.8549118 50.1156492,97.0505026 L50.1073486,97.0505026 C68.2856819,88.8549118 66.268634,78.2974162 66.268634,78.2974162 L65.928309,72.5102028 L66.0832537,72.0482099 C62.7962126,75.2411552 58.1478717,77.2312787 53.0014942,77.2312787 L46.8701112,77.2312787 C41.886979,77.2312787 37.3935827,75.3723721 34.1259097,72.3707848 L33.9543638,78.2974162 Z" id="Fill-476" fill="#FFE4B8"></path>
                <path d="M34.1367005,72.9823104 C34.1367005,72.9741093 34.1283999,72.9741093 34.1283999,72.9741093 L33.9540871,78.4742857 C33.9540871,78.4742857 33.7991424,79.2779894 33.9845227,80.5737566 L34.1367005,72.9823104 Z" id="Fill-477" fill="#EFD2A8"></path>
                <path d="M66.2340481,80.6174956 C66.427729,79.2943915 66.2700174,78.4742857 66.2700174,78.4742857 L65.9490606,73.395097 L66.2340481,80.6174956 Z" id="Fill-478" fill="#EFD2A8"></path>
                <path d="M46.8756449,80.7722222 L53.007028,80.7722222 C58.0814668,80.7722222 62.6689366,76.2124339 65.9393765,73.2409171 L65.928309,73.1069665 L66.0832537,72.6750441 C62.7962126,75.6328924 58.1478717,77.4890653 53.0014942,77.4890653 L46.8701112,77.4890653 C41.909114,77.4890653 37.4184846,75.766843 34.1674128,72.997619 C37.4184846,75.7969136 41.9146477,80.7722222 46.8756449,80.7722222" id="Fill-479" fill="#EFD2A8"></path>
                <path d="M39.7340778,80.6759965 L39.8724212,75.9193827 C38.3119068,75.1402822 35.3762581,73.513739 34.1283999,72.3710582 L33.9540871,78.2976896 C33.9540871,78.2976896 31.9370392,88.8497178 50.1126057,97.0453086 C50.2979859,96.9605644 50.4473969,96.8758201 50.6300103,96.7910758 C38.3119068,89.0602116 39.7340778,80.6759965 39.7340778,80.6759965" id="Fill-480" fill="#EFD2A8"></path>
                <path d="M50.1070719,97.0515961 L50.1153725,97.0515961 C50.1153725,97.0461287 50.1126057,97.0461287 50.1126057,97.0461287 C50.1126057,97.0461287 50.1070719,97.0461287 50.1070719,97.0515961" id="Fill-481" fill="#FFE4B8"></path>
                <path d="M60.4897501,80.6708025 L60.3514066,75.9141887 C61.9119211,75.1405556 64.8475698,73.5140123 66.0926611,72.3713316 L66.2697407,78.297963 C66.2697407,78.297963 68.2867887,88.8499912 50.1139891,97.045582 C49.9230751,96.9608377 49.7708973,96.8760935 49.5938176,96.7886155 C61.7791114,89.7165697 60.4897501,80.6708025 60.4897501,80.6708025" id="Fill-482" fill="#FFFFFF"></path>
                <path d="M28.7650999,59.5087919 C28.7650999,69.0138183 36.7392181,76.7091446 46.5754395,76.7091446 L52.6293503,76.7091446 C62.460038,76.7091446 70.4341562,69.0138183 70.4341562,59.5087919 L70.4341562,54.7767813 C70.4341562,46.4144356 66.8980968,36.745388 60.4983274,34.1401852 C57.0342067,42.0186684 42.3697977,42.8223721 36.40166,42.8005026 C28.1729898,42.8141711 28.7650999,54.7767813 28.7650999,54.7767813 L28.7650999,59.5087919 Z" id="Fill-483" fill="#FFE4B8"></path>
                <path d="M33.4369592,59.5087919 L33.4369592,54.7767813 C33.4369592,54.7767813 32.9555239,42.7868342 40.910274,42.8114374 C39.2750541,42.8114374 37.7864782,42.7895679 36.5884237,42.7868342 C27.0067542,42.8005026 28.7692502,54.7767813 28.7692502,54.7767813 L28.7692502,59.5087919 C28.7692502,69.0138183 38.0437971,76.7091446 49.4848029,76.7091446 L54.1442114,76.7091446 C42.7115061,76.7091446 33.4369592,69.0138183 33.4369592,59.5087919" id="Fill-484" fill="#EFD2A8"></path>
                <path d="M58.7684805,34.6759877 C58.3589838,35.4468871 57.7917756,36.1193739 57.1609293,36.7371869 C63.3808522,40.1378924 66.1421881,48.3034127 66.1421881,55.6624956 L66.1421881,60.3890388 C66.1421881,67.7645238 60.3151607,74.0027954 52.180564,76.4467108 C62.4982208,75.2001499 70.4336028,68.1253704 70.4336028,59.5087919 L70.4336028,54.7767813 C70.4336028,46.4144356 66.4714455,37.2811905 58.7684805,34.6759877" id="Fill-485" fill="#FFFFFF"></path>
                <path d="M28.485646,58.8226367 C28.485646,68.6994444 36.5870403,76.7091446 46.5837402,76.7091446 L52.7455588,76.7091446 C62.7422587,76.7091446 70.8436529,68.6994444 70.8436529,58.8226367 L70.8436529,53.9211376 C70.8436529,45.2225485 67.000471,36.8520018 60.4983274,34.1401852 C56.9761024,42.3412434 42.3089266,41.4855996 36.2467153,41.4637302 C27.8797016,41.4801323 28.485646,53.9211376 28.485646,53.9211376 L28.485646,58.8226367 Z" id="Stroke-486" stroke="#000000" stroke-width="2.76" stroke-linecap="round" stroke-linejoin="round"></path>
                <path d="M70.7600934,54.0012346 C71.5569519,52.4567019 72.2625036,50.8301587 72.8573806,49.1380071 C79.1243403,31.322575 71.7617002,22.1975309 62.514822,21.8612875 L62.4871533,21.8804233 C59.183511,16.5470018 53.4394897,13.5508818 46.3618372,13.8379189 C34.3812918,14.3190476 23.4936599,23.5042328 24.1964448,37.5171076 C24.4841992,43.2769841 25.8510328,49.1790123 28.2333075,54.1461199 C28.2333075,54.1461199 28.1115653,42.4049383 34.2650833,41.5328924 C40.4269019,40.6663139 56.80677,42.3940035 60.434136,33.9824515 C60.434136,33.9824515 70.9731424,39.0971781 70.7600934,54.0012346" id="Fill-487" fill="#425060"></path>
                <path d="M33.9233749,80.2596561 C33.85697,79.8031305 33.8016326,79.3575397 33.7822645,78.9884921 C17.9336354,80.6314374 4.97361816,94.5048942 1.24111106,112.817857 L7.41676403,112.817857 C10.6650689,96.8914021 20.8886522,84.3437831 33.9233749,80.2596561" id="Fill-488" fill="#7FE0F1"></path>
                <path d="M65.8881894,80.2596561 C65.9545943,79.8031305 66.0099317,79.3575397 66.0292998,78.9884921 C81.8779289,80.6314374 94.8379461,94.5048942 98.5704532,112.817857 L92.3948003,112.817857 C89.1464954,96.8914021 78.9229122,84.3437831 65.8881894,80.2596561" id="Fill-489" fill="#FFFFFF"></path>
                <path d="M70.9072909,54.3164286 C71.7124499,52.7582275 72.4263023,51.1180159 73.0211793,49.4149295 C79.3379426,31.4600794 71.9171983,22.2639594 62.6011483,21.9222487 L62.5679459,21.9441182 C59.2394018,16.5669577 53.4511105,13.5489683 46.3181207,13.8360053 C34.2407348,14.3226014 23.2700968,23.5788624 23.9784154,37.7010847 C24.2717036,43.5074339 25.6496047,49.4559347 28.0484806,54.4640476 C28.0484806,54.4640476 27.9239715,42.6271869 34.1272932,41.7524074 C40.3361486,40.8776279 56.8460595,42.6189859 60.4983274,34.1390917 C60.4983274,34.1390917 71.1231067,39.2948236 70.9072909,54.3164286 Z" id="Stroke-490" stroke="#000000" stroke-width="2.76" stroke-linecap="round" stroke-linejoin="round"></path>
                <path d="M33.6060149,77.7823898 C33.6060149,77.7823898 31.5695989,89.1900617 49.9167113,98.0499383 L49.9001101,98.0499383 C68.2416887,89.1900617 66.2052727,77.7823898 66.2052727,77.7823898 L65.8621808,71.527716 L66.0115918,71.0274515 C62.6996489,74.4773633 58.0153386,76.6287743 52.8191575,76.6369753 L46.6324371,76.6369753 C41.6161025,76.6369753 37.0729026,74.6304497 33.7858615,71.3664286 L33.6060149,77.7823898 Z" id="Stroke-491" stroke="#000000" stroke-width="2.76" stroke-linecap="round" stroke-linejoin="round"></path>
                <path d="M0.662835312,111.750353 C4.29850198,94.9053792 16.5861699,81.9832451 31.820554,79.6514109 L31.8122534,79.6514109 C32.3213574,78.9160494 32.9134675,78.2873016 33.6051849,77.7815697 C33.6051849,77.7815697 31.5687688,89.1892416 49.9158812,98.0491182 L49.89928,98.0491182 C68.2408587,89.1892416 66.2044426,77.7815697 66.2044426,77.7815697 C66.8989269,78.2873016 67.4965707,78.9242504 68.0084416,79.659612 L67.9946073,79.6514109 C83.2262245,81.9832451 95.5111255,94.9053792 99.1495591,111.750353" id="Stroke-492" stroke="#000000" stroke-width="2.76" stroke-linecap="round" stroke-linejoin="round"></path>
                <path d="M33.6060149,77.3283245 C33.6060149,77.3283245 31.5723658,88.7387302 49.9139444,97.5931393 C49.9139444,97.5931393 36.1902712,98.667478 32.2502488,111.283439 C31.9763287,111.816508 24.5030139,84.0285891 33.6060149,77.3283245" id="Fill-493" fill="#B6ECEF"></path>
                <path d="M33.4209114,77.5046473 C24.6361004,84.4755467 31.9766054,111.815141 32.2505255,111.282072 C33.407077,107.57246 35.4213581,104.882513 37.67359,102.903325 C35.4573274,97.1461817 31.7801577,85.2519136 33.4209114,77.5046473" id="Fill-494" fill="#7FE0F1"></path>
                <path d="M66.2058261,77.3283245 C66.2058261,77.3283245 68.2394752,88.7387302 49.8978966,97.5931393 C49.8978966,97.5931393 63.6215698,98.667478 67.5615922,111.283439 C67.8355123,111.816508 75.3088271,84.0285891 66.2058261,77.3283245" id="Fill-495" fill="#B6ECEF"></path>
                <path d="M66.2058261,77.3283245 C66.2058261,77.3283245 66.2113598,77.3611287 66.2113598,77.3665961 C68.2809783,85.0455203 64.7393852,97.3935802 62.5922943,103.320212 C64.6591459,105.261129 66.482513,107.825326 67.5615922,111.283439 C67.8355123,111.816508 75.3088271,84.0285891 66.2058261,77.3283245" id="Fill-496" fill="#FFFFFF"></path>
                <path d="M33.6220628,77.7823898 C33.6220628,77.7823898 31.5884136,89.1927954 49.9299923,98.0472046 C49.9299923,98.0472046 36.206319,99.1215432 32.2662967,111.737504 C31.9923766,112.270573 24.5190618,84.4826543 33.6220628,77.7823898 Z" id="Stroke-497" stroke="#000000" stroke-width="2.76" stroke-linecap="round" stroke-linejoin="round"></path>
                <path d="M66.2218739,77.7823898 C66.2218739,77.7823898 68.2555231,89.1900617 49.9139444,98.0499383 C49.9139444,98.0499383 63.6376177,99.1160758 67.57764,111.740238 C67.8515601,112.273307 75.3248749,84.4908554 66.2218739,77.7823898 Z" id="Stroke-498" stroke="#000000" stroke-width="2.76" stroke-linecap="round" stroke-linejoin="round"></path>
                <path d="M101.210324,39.9405203 L123.635802,39.9405203 L143.739876,39.9405203 C145.065207,39.9405203 146.133219,38.8825838 146.133219,37.5758818 L146.133219,2.70224868 C146.133219,1.39281305 145.065207,0.334876543 143.739876,0.334876543 L88.8036802,0.334876543 C87.4783497,0.334876543 86.4075711,1.39281305 86.4075711,2.70224868 L86.4075711,39.9405203 L86.4075711,57.7204145 L101.210324,39.9405203 Z" id="Fill-499" fill="#FFE843"></path>
                <polygon id="Fill-500" fill="#FFFFFF" points="86.4086779 52.7464727 86.4086779 57.7190476 101.21143 39.9391534 97.0694265 39.9391534"></polygon>
                <path d="M143.740153,0.334056437 L139.598149,0.334056437 C140.92348,0.334056437 141.994258,1.39472663 141.994258,2.70142857 L141.994258,37.5750617 C141.994258,38.8844974 140.92348,39.9397002 139.598149,39.9397002 L143.740153,39.9397002 C145.065484,39.9397002 146.133495,38.8844974 146.133495,37.5750617 L146.133495,2.70142857 C146.133495,1.39472663 145.065484,0.334056437 143.740153,0.334056437" id="Fill-501" fill="#FFFFFF"></path>
                <path d="M90.4051443,39.9405203 L90.4051443,2.70224868 C90.4051443,1.39281305 91.4759229,0.334876543 92.7984866,0.334876543 L88.8031268,0.334876543 C87.4777963,0.334876543 86.4097846,1.39281305 86.4097846,2.70224868 L86.4097846,39.9405203 L86.4097846,57.7204145 L90.4051443,52.9200617 L90.4051443,39.9405203 Z" id="Fill-502" fill="#F4D93D"></path>
                <path d="M105.544625,20.3588536 C105.544625,22.340776 103.917705,23.9454497 101.914492,23.9454497 C99.9085114,23.9454497 98.2815921,22.340776 98.2815921,20.3588536 C98.2815921,18.3769312 99.9085114,16.7722575 101.914492,16.7722575 C103.917705,16.7722575 105.544625,18.3769312 105.544625,20.3588536" id="Fill-503" fill="#FFFFFF"></path>
                <path d="M105.544625,20.3588536 C105.544625,22.340776 103.917705,23.9454497 101.914492,23.9454497 C99.9085114,23.9454497 98.2815921,22.340776 98.2815921,20.3588536 C98.2815921,18.3769312 99.9085114,16.7722575 101.914492,16.7722575 C103.917705,16.7722575 105.544625,18.3769312 105.544625,20.3588536 Z" id="Stroke-504" stroke="#000000" stroke-width="2.76" stroke-linecap="round" stroke-linejoin="round"></path>
                <path d="M120.416549,20.3588536 C120.416549,22.340776 118.78963,23.9454497 116.786416,23.9454497 C114.780436,23.9454497 113.153516,22.340776 113.153516,20.3588536 C113.153516,18.3769312 114.780436,16.7722575 116.786416,16.7722575 C118.78963,16.7722575 120.416549,18.3769312 120.416549,20.3588536" id="Fill-505" fill="#FFFFFF"></path>
                <path d="M120.416549,20.3588536 C120.416549,22.340776 118.78963,23.9454497 116.786416,23.9454497 C114.780436,23.9454497 113.153516,22.340776 113.153516,20.3588536 C113.153516,18.3769312 114.780436,16.7722575 116.786416,16.7722575 C118.78963,16.7722575 120.416549,18.3769312 120.416549,20.3588536 Z" id="Stroke-506" stroke="#000000" stroke-width="2.76" stroke-linecap="round" stroke-linejoin="round"></path>
                <path d="M135.288473,20.3588536 C135.288473,22.340776 133.661554,23.9454497 131.65834,23.9454497 C129.65236,23.9454497 128.02544,22.340776 128.02544,20.3588536 C128.02544,18.3769312 129.65236,16.7722575 131.65834,16.7722575 C133.661554,16.7722575 135.288473,18.3769312 135.288473,20.3588536" id="Fill-507" fill="#FFFFFF"></path>
                <path d="M135.288473,20.3588536 C135.288473,22.340776 133.661554,23.9454497 131.65834,23.9454497 C129.65236,23.9454497 128.02544,22.340776 128.02544,20.3588536 C128.02544,18.3769312 129.65236,16.7722575 131.65834,16.7722575 C133.661554,16.7722575 135.288473,18.3769312 135.288473,20.3588536 Z" id="Stroke-508" stroke="#000000" stroke-width="2.76" stroke-linecap="round" stroke-linejoin="round"></path>
                <path d="M101.210324,39.9405203 L123.635802,39.9405203 L143.739876,39.9405203 C145.065207,39.9405203 146.133219,38.8825838 146.133219,37.5758818 L146.133219,2.70224868 C146.133219,1.39281305 145.065207,0.334876543 143.739876,0.334876543 L88.8036802,0.334876543 C87.4783497,0.334876543 86.4075711,1.39281305 86.4075711,2.70224868 L86.4075711,39.9405203 L86.4075711,57.7204145 L101.210324,39.9405203 Z" id="Stroke-509" stroke="#000000" stroke-width="2.76" stroke-linecap="round" stroke-linejoin="round"></path>
            </g>
        </g>
    </g>
</svg>