<svg id="Layer_1" data-name="Layer 1" xmlns="http://www.w3.org/2000/svg" viewBox="0 0 512 512"><polygon points="329.98 84.3 299.52 96.49 299.52 224.64 329.98 236.83 329.98 84.3" fill="#232021"/><rect x="337.81" y="84.29" width="39.13" height="152.53" fill="#232021"/><path d="M195.6,380.74,183.41,350.3h-.26V260.8a36.21,36.21,0,0,1,36.17-36.16h80.16V96.49H219.32C128.71,96.49,55,170.2,55,260.8v89.64h.2l-12.13,30.3ZM71.3,281.3a193.42,193.42,0,0,1,16.18-78.23C135.61,94.17,248,115.65,248,115.65c-105.67,7.58-160.82,77.57-147.85,210.67H71.3Z" fill="#232021"/><rect x="43.06" y="388.58" width="152.54" height="39.13" fill="#232021"/><path d="M387.29,189.95c19.59,35.38,23.17,74.31,22.82,100.3a29.44,29.44,0,0,0,29.39,29.92h0a29.33,29.33,0,0,0,28.75-35.51C450.06,202.29,387.29,189.95,387.29,189.95Z" fill="#232021"/></svg>