<svg id="Layer_1" data-name="Layer 1" xmlns="http://www.w3.org/2000/svg" viewBox="0 0 512 512"><title>icon</title><path d="M367.3,246.23l-.55-1.29c-9-21-18.8-39.29-29.14-58.61l-2.19-4.09c-15.91-29.72-36-63.19-61.58-102.34-4.4-6.76-8.26-12.39-11.45-16.74a7.77,7.77,0,0,0-12.73.29c-41.9,63-73.64,114.86-102.37,178.77L146.07,245c-9.4,20.86-20.05,44.52-21.86,69.76-2.42,33.74,10.3,68,34.88,93.86C187.21,438.2,217.8,452,255.37,452c4.08,0,8.32-.17,12.58-.5,31.45-2.42,62.23-17.46,84.42-41.25,10.87-11.65,36.09-43.72,35.72-89.87C387.87,294.14,376,266.46,367.3,246.23ZM234.06,374.62a39.2,39.2,0,0,1-18,4.32c-21.22,0-39.73-16.56-40.43-36.15-.54-15.12,7.13-28.71,14.55-41.85,1.59-2.81,3.09-5.46,4.52-8.15,6.89-12.94,13-24.31,20.16-35.9,6.7,10.5,13.61,21.92,20.45,34.78,1,1.83,2,3.73,3.08,5.69,7.29,13.36,15.54,28.51,16,42.72C254.91,356.43,244.21,369.45,234.06,374.62Z" fill="#231f20"/></svg>