<svg id="Layer_1" data-name="Layer 1" xmlns="http://www.w3.org/2000/svg" viewBox="0 0 128 128"><title>icon</title><path d="M46.17,97.46h-20a6.9,6.9,0,0,1-7-6.83v-62a6.88,6.88,0,0,1,7-6.8H74.58a6.84,6.84,0,0,1,6.94,6.8v52L90.46,70V22a9,9,0,0,0-9-9.11H18.91a8.68,8.68,0,0,0-8.68,8.73V97.5a9.06,9.06,0,0,0,9.05,9.11H54.41L50.26,103a15.73,15.73,0,0,1-4.09-5.56Zm0,0" fill="#015e9f"/><path d="M70.85,48.18H30.7a4.46,4.46,0,0,0,0,8.92H70.85a4.46,4.46,0,0,0,0-8.92Zm0,0" fill="#015e9f"/><path d="M70.85,63.06H30.7a4.36,4.36,0,1,0,0,8.71H70.85a4.36,4.36,0,1,0,0-8.71Zm0,0" fill="#015e9f"/><path d="M115,65.33a7.8,7.8,0,0,0-11,.89L78.35,96.3l-12.83-11A7.81,7.81,0,1,0,55.36,97.12l18.76,16.11a7.83,7.83,0,0,0,5.1,1.89h.61a7.87,7.87,0,0,0,5.33-2.71l30.75-36.05a7.82,7.82,0,0,0-.89-11Zm0,0" fill="#015e9f"/></svg>