<svg id="Layer_1" data-name="Layer 1" xmlns="http://www.w3.org/2000/svg" viewBox="0 0 128 128"><title>icon</title><path d="M70,15.69a49.22,49.22,0,0,0-40.3,21,24.09,24.09,0,0,1,5.38,5A42,42,0,0,1,65,23.23L70,31.79l5.06-8.56a42.09,42.09,0,0,1,36.65,36.65l-8.56,5.06L111.72,70a42,42,0,0,1-19.26,30.41,12.76,12.76,0,0,1,1.1,4.65,12.13,12.13,0,0,1-.31,3.3A49.24,49.24,0,0,0,70,15.69M82.59,96.8c-11.36-9.12-14.53-4.64-19.68.51-3.6,3.6-12.7-3.92-20.55-11.77S27,68.58,30.57,65c5.15-5.15,9.64-8.33.51-19.68s-15.21-2.64-20.2,2.35c-5.76,5.76-.3,27.22,20.91,48.43S74.47,122.76,80.23,117c5-5,13.71-11.07,2.36-20.2M48,72.65c0-10.09,11.81-11.89,11.81-15.83a2.7,2.7,0,0,0-2.95-2.72c-2.6,0-4,2.91-4,2.91l-5-3.33a10.54,10.54,0,0,1,9.64-5.88c4.47,0,9.33,2.56,9.33,8.37,0,8.53-11,10.17-11.2,13.69H67.23V75.6H48.31A16.5,16.5,0,0,1,48,72.65m22-7.72L80.59,48.26h8.18V63.44H92V69H88.77V75.6H82.15V69H70Zm12.12-1.49V57.32a24.67,24.67,0,0,1,.23-3.06H82.3A14.33,14.33,0,0,1,81,57.09l-4.13,6.27v.08Z" fill="#015e9f"/></svg>