<svg id="Layer_1" data-name="Layer 1" xmlns="http://www.w3.org/2000/svg" viewBox="0 0 512 512"><path d="M406.67,361.12a15.65,15.65,0,0,0-22.11,0l-2.89,2.9a24.15,24.15,0,0,1-34.16,0l-5.79-5.79a11.53,11.53,0,0,0-16.32,0,6.31,6.31,0,0,1-8.92-8.93,24.15,24.15,0,0,1,34.16,0l5.79,5.8a11.53,11.53,0,0,0,16.32,0l2.89-2.9a28.27,28.27,0,0,1,39.94,0,6.31,6.31,0,0,1-8.92,8.92ZM315.59,255.18H304.5a6.31,6.31,0,0,1,0-12.62h11.09a6.31,6.31,0,0,1,0,12.62Zm0-30.28H304.5a6.31,6.31,0,0,1,0-12.62h11.09a6.31,6.31,0,0,1,0,12.62Zm0-30.28H304.5a6.31,6.31,0,0,1,0-12.62h11.09a6.31,6.31,0,0,1,0,12.62Zm0-30.28H304.5a6.31,6.31,0,0,1,0-12.62h11.09a6.31,6.31,0,0,1,0,12.62Zm0-30.28H304.5a6.31,6.31,0,0,1,0-12.62h11.09a6.31,6.31,0,0,1,0,12.62Zm-33.11,183.3v-.09a6.31,6.31,0,1,1,12.61,0v.09a6.31,6.31,0,1,1-12.61,0Zm-26.49,39a39.12,39.12,0,0,1-6.31-77.72V126a6.31,6.31,0,1,1,12.62,0V278.67A39.3,39.3,0,0,1,287.46,294a6.31,6.31,0,1,1-10.14,7.5A26.5,26.5,0,1,0,277,333.4a6.31,6.31,0,1,1,10,7.7A38.84,38.84,0,0,1,256,356.37ZM230.78,197a6.31,6.31,0,0,1,6.3,6.31v.74a6.31,6.31,0,1,1-12.61,0v-.73A6.31,6.31,0,0,1,230.78,197Zm84.5,120.25A59.28,59.28,0,1,1,224.47,267v-31.5a6.31,6.31,0,1,1,12.61,0v35.12a6.31,6.31,0,0,1-3.3,5.55,46.66,46.66,0,1,0,44.43,0,6.31,6.31,0,0,1-3.3-5.55V126a18.92,18.92,0,1,0-37.84,0v46.05a6.31,6.31,0,1,1-12.61,0V126a31.53,31.53,0,1,1,63.06,0V267A59.29,59.29,0,0,1,315.28,317.25ZM195.51,364a24.15,24.15,0,0,1-34.16,0l-5.79-5.79a11.53,11.53,0,0,0-16.32,0L133.46,364a24.15,24.15,0,0,1-34.16,0l-2.89-2.9a6.31,6.31,0,1,1,8.92-8.92l2.89,2.9a11.53,11.53,0,0,0,16.32,0l5.79-5.8a24.15,24.15,0,0,1,34.16,0l5.79,5.8a11.53,11.53,0,0,0,16.32,0,6.31,6.31,0,0,1,8.92,8.92Zm-90.19,34.6,2.89,2.9a11.54,11.54,0,0,0,16.32,0l5.79-5.8a24.15,24.15,0,0,1,34.16,0l5.79,5.8a11.54,11.54,0,0,0,16.32,0l5.79-5.8a24.18,24.18,0,0,1,34.16,0l5.79,5.8a11.55,11.55,0,0,0,16.32,0l5.79-5.8a24.18,24.18,0,0,1,34.16,0l5.79,5.8a11.55,11.55,0,0,0,16.32,0l5.79-5.8a24.14,24.14,0,0,1,34.15,0l5.79,5.8a11.55,11.55,0,0,0,16.32,0l2.89-2.9a28.28,28.28,0,0,1,39.95,0,6.31,6.31,0,0,1-8.92,8.92,15.65,15.65,0,0,0-22.11,0l-2.89,2.9a24.15,24.15,0,0,1-34.16,0l-5.79-5.8a11.54,11.54,0,0,0-16.32,0l-5.79,5.8a24.18,24.18,0,0,1-34.16,0l-5.79-5.8a11.55,11.55,0,0,0-16.32,0l-5.79,5.8a24.17,24.17,0,0,1-34.15,0l-5.79-5.8a11.55,11.55,0,0,0-16.32,0l-5.79,5.8a24.14,24.14,0,0,1-34.15,0l-5.79-5.8a11.55,11.55,0,0,0-16.32,0l-5.79,5.8a24.14,24.14,0,0,1-34.15,0l-2.89-2.9a6.31,6.31,0,0,1,8.92-8.92Z" fill="#010101"/></svg>