<svg id="Layer_1" data-name="Layer 1" xmlns="http://www.w3.org/2000/svg" viewBox="0 0 128 128"><title>icon</title><path d="M55.35,67.42a2.4,2.4,0,0,0-1.41.15,7.93,7.93,0,0,0-2.05,1.65l-2.48,2.48,3.64,3.64,2.4-2.4a9.51,9.51,0,0,0,1.46-1.79,2.69,2.69,0,0,0,.44-1.58,2.31,2.31,0,0,0-.76-1.45A2.42,2.42,0,0,0,55.35,67.42Z" fill="#015e9f"/><path d="M115.52,53.42c0-.08,0-.16,0-.24L113.34,22a4.21,4.21,0,0,0-.58-1.88,7.85,7.85,0,0,0-2.68-2.68,4.21,4.21,0,0,0-1.88-.58L77,14.66h-.21c-1.88,0-6.25-.5-8.45,1.7L16,68.72a12.05,12.05,0,0,0,0,17l28.46,28.46a12.05,12.05,0,0,0,17,0l52.37-52.37C116,59.64,115.53,56.71,115.52,53.42ZM48.33,95.7a1.79,1.79,0,0,1-1.38.56,2.49,2.49,0,0,1-1.6-.86L35.15,85.22a3.15,3.15,0,0,1-.77-1.12,1.51,1.51,0,0,1,0-1.07,3.2,3.2,0,0,1,.77-1.1l6.32-6.32a2,2,0,0,1,1.24-.67,1.36,1.36,0,0,1,1.06.43,1.38,1.38,0,0,1,.44,1.07,1.94,1.94,0,0,1-.67,1.24L38.26,83l3.39,3.39,4.42-4.42a1.87,1.87,0,0,1,1.19-.64,1.34,1.34,0,0,1,1,.43,1.31,1.31,0,0,1,.43,1,1.9,1.9,0,0,1-.64,1.18l-4.42,4.42L48,92.73a2.48,2.48,0,0,1,.86,1.61A1.78,1.78,0,0,1,48.33,95.7ZM68.44,75.29a2,2,0,0,1-.52.82,1.84,1.84,0,0,1-1,.55,2.89,2.89,0,0,1-1.07,0q-.55-.1-1.56-.36l-2.86-.71a14,14,0,0,0-2.53-.47,3.61,3.61,0,0,0-1.63.22,4.51,4.51,0,0,0-1.37,1l-.94.94,4.26,4.26a2.51,2.51,0,0,1,.87,1.61,1.79,1.79,0,0,1-.57,1.36,1.74,1.74,0,0,1-1.41.58,2.6,2.6,0,0,1-1.57-.87L46.37,74a2,2,0,0,1,0-3.29l4.36-4.36a18.73,18.73,0,0,1,1.62-1.47A5.52,5.52,0,0,1,53.82,64a4.77,4.77,0,0,1,1.85-.35,4.63,4.63,0,0,1,1.86.41,5.35,5.35,0,0,1,1.62,1.12,4.68,4.68,0,0,1,1.53,3.2,6.79,6.79,0,0,1-1.28,3.79A6.9,6.9,0,0,1,61.89,72a16,16,0,0,1,2.74.42,16.59,16.59,0,0,1,2.3.71,4.22,4.22,0,0,1,1.21.64,1.33,1.33,0,0,1,.35.69A1.65,1.65,0,0,1,68.44,75.29ZM80.23,63.35l-7.29,7.29a2,2,0,0,1-3.29,0l-10-10a3.15,3.15,0,0,1-.77-1.12,1.5,1.5,0,0,1,0-1.07,3.21,3.21,0,0,1,.77-1.1l7.08-7.08A2,2,0,0,1,68,49.64a1.36,1.36,0,0,1,1.06.43,1.37,1.37,0,0,1,.44,1.07,1.94,1.94,0,0,1-.67,1.24l-6,6,3.25,3.25,5.57-5.57a1.88,1.88,0,0,1,1.19-.64,1.33,1.33,0,0,1,1,.43,1.38,1.38,0,0,1,.44,1,1.83,1.83,0,0,1-.64,1.21L68.08,63.7l3.77,3.77,6.25-6.25a1.93,1.93,0,0,1,1.25-.66,1.42,1.42,0,0,1,1.1.46,1.4,1.4,0,0,1,.44,1.08A1.94,1.94,0,0,1,80.23,63.35ZM92.57,51,85.28,58.3a2.44,2.44,0,0,1-1.65.87A2.46,2.46,0,0,1,82,58.29l-10-10a3.16,3.16,0,0,1-.77-1.12,1.5,1.5,0,0,1,0-1.07A3.2,3.2,0,0,1,72,45L79.12,38a2,2,0,0,1,1.24-.67,1.5,1.5,0,0,1,1.5,1.5A1.94,1.94,0,0,1,81.19,40l-6,6,3.25,3.25L84,43.77a1.88,1.88,0,0,1,1.19-.64,1.32,1.32,0,0,1,1,.42,1.38,1.38,0,0,1,.44,1A1.84,1.84,0,0,1,86,45.79l-5.57,5.57,3.77,3.77,6.25-6.25a1.93,1.93,0,0,1,1.25-.66,1.42,1.42,0,0,1,1.1.46,1.4,1.4,0,0,1,.44,1.09A1.94,1.94,0,0,1,92.57,51Zm.92-9.07a1,1,0,0,1-1.09.27,5.78,5.78,0,0,1-1.52-1l-4.62-4q-1.35-1.18-1.9-1.74a2.33,2.33,0,0,1-.78-1.56,1.91,1.91,0,0,1,.61-1.45,1.47,1.47,0,0,1,1.58-.5,5.15,5.15,0,0,1,1.81,1.29,16.94,16.94,0,0,1,1.15,1.27l4.07,4.84a5,5,0,0,1,.95,1.49A1,1,0,0,1,93.5,41.93Zm4.34,4.23a2,2,0,0,1-1.32.6,1.77,1.77,0,0,1-1.41-.59,1.9,1.9,0,0,1,0-2.7,1.89,1.89,0,0,1,1.36-.58,1.81,1.81,0,0,1,1.36.55,1.79,1.79,0,0,1,.59,1.4A2,2,0,0,1,97.83,46.16Zm5.45-14.31a4.24,4.24,0,1,1,4.24-4.24A4.24,4.24,0,0,1,103.29,31.85Z" fill="#015e9f"/></svg>