<svg id="Layer_1" data-name="Layer 1" xmlns="http://www.w3.org/2000/svg" viewBox="0 0 512 512"><path d="M368.55,244.52V380a23,23,0,0,1-45.94,0V218.68a23,23,0,0,1,45.94,0v8.62h17.23V206.62H403v37.9Zm-47.95-66H303.37c0-11.27,4-17.29,7.17-22.12,2.6-3.93,4.32-6.53,4.32-12.62s-1.72-8.69-4.32-12.62c-3.19-4.83-7.17-10.85-7.17-22.12H320.6c0,6.09,1.72,8.69,4.31,12.62,3.19,4.83,7.17,10.85,7.17,22.12s-4,17.29-7.17,22.12C322.31,169.79,320.6,172.38,320.6,178.48ZM305.38,380a23,23,0,0,1-45.94,0V218.68a23,23,0,0,1,45.94,0ZM286.15,178.48H268.92c0-11.27,4-17.29,7.17-22.12,2.6-3.93,4.31-6.53,4.31-12.62s-1.72-8.69-4.31-12.62c-3.19-4.83-7.17-10.85-7.17-22.12h17.23c0,6.09,1.71,8.69,4.31,12.62,3.19,4.83,7.17,10.85,7.17,22.12s-4,17.29-7.17,22.12C287.86,169.79,286.15,172.38,286.15,178.48Zm-34.46,0H234.47c0-11.27,4-17.29,7.17-22.12,2.6-3.93,4.31-6.53,4.31-12.62s-1.72-8.69-4.31-12.62c-3.19-4.83-7.17-10.85-7.17-22.12h17.23c0,6.09,1.71,8.69,4.32,12.62,3.19,4.83,7.17,10.85,7.17,22.12s-4,17.29-7.17,22.12C253.41,169.79,251.69,172.38,251.69,178.48Zm-34.45,0H200c0-11.27,4-17.29,7.17-22.12,2.6-3.93,4.32-6.53,4.32-12.62s-1.72-8.69-4.32-12.62C204,126.29,200,120.27,200,109h17.23c0,6.09,1.72,8.69,4.31,12.62,3.19,4.83,7.17,10.85,7.17,22.12s-4,17.29-7.17,22.12C219,169.79,217.24,172.38,217.24,178.48Zm2,17.23a23,23,0,0,1,23,23V380a23,23,0,0,1-45.94,0V218.68A23,23,0,0,1,219.25,195.71Zm-36.46-17.23H165.56c0-11.27,4-17.29,7.17-22.12,2.6-3.93,4.31-6.53,4.31-12.62s-1.71-8.69-4.31-12.62c-3.19-4.83-7.17-10.85-7.17-22.12h17.23c0,6.09,1.72,8.69,4.32,12.62,3.19,4.83,7.17,10.85,7.17,22.12s-4,17.29-7.17,22.12C184.5,169.79,182.79,172.38,182.79,178.48ZM175,218.68V380a23,23,0,0,1-45.94,0V244.52H109V227.29h20.1v-8.62a23,23,0,0,1,45.94,0Z" fill="#010101"/></svg>