<svg id="Layer_1" data-name="Layer 1" xmlns="http://www.w3.org/2000/svg" viewBox="0 0 512 512"><title>icon</title><path d="M417.22,171.68a8.18,8.18,0,0,0-13.87-4.76l-55.42,55.42a20.38,20.38,0,0,1-19.68,5.27L305,221.37A20.37,20.37,0,0,1,290.55,207l-6.25-23.3A20.38,20.38,0,0,1,289.58,164l55.51-55.51a8.18,8.18,0,0,0-4.75-13.86A91,91,0,0,0,240,210a19.62,19.62,0,0,1-4.95,19.34L104.26,360.13c-12.66,12.66-14.16,33.27-2.34,46.72A33.62,33.62,0,0,0,151,408.48L282.61,276.85A19.61,19.61,0,0,1,302,271.9,90.85,90.85,0,0,0,417.22,171.68ZM122.58,389.35a9.68,9.68,0,1,1,13.68,0A9.67,9.67,0,0,1,122.58,389.35Z"/></svg>