<svg id="Layer_1" data-name="Layer 1" xmlns="http://www.w3.org/2000/svg" viewBox="0 0 512 512"><path d="M411.53,140.41a15.74,15.74,0,0,0-22.25,0l-51.2,51.22,22.25,22.25,51.21-51.21A15.71,15.71,0,0,0,411.53,140.41Z"/><path d="M322.07,73.21a15.74,15.74,0,1,0-22.25-22.26l-51.2,51.22,22.24,22.25Z"/><path d="M284.84,324.64c8.38-1.32,20.15-7.3,26.14-13.28l58.5-58.5a15.47,15.47,0,0,0,0-21.79l-138-138a15.47,15.47,0,0,0-21.8,0l-58.49,58.49c-6,6-12,17.77-13.29,26.15l-2.51,16.12L268.72,327.15ZM215.64,223.71l8.47-31.63,31.62-8.47,23.16,23.14-8.48,31.62-31.62,8.49Z"/><polygon points="251.63 329.82 132.68 210.86 129.61 230.43 232.05 332.87 251.63 329.82"/><path d="M185.82,327.5c6,6,17.75,9.82,26.13,8.52l3-.48-88-88-.47,3c-1.31,8.37,2.53,20.13,8.53,26.12Z"/><path d="M264.86,382.81l-46.81,46.81a60.92,60.92,0,0,1-86.15-86.15l18.92-18.92a12.75,12.75,0,0,0,13.65-2.84l5.13-5.13-23.7-23.72L140.77,298a12.73,12.73,0,0,0-2.83,13.67L119,330.58A79.14,79.14,0,0,0,230.95,442.51l46.81-46.8a60.81,60.81,0,0,1,103.52,49.57h18.28a79,79,0,0,0-134.69-62.47Z"/></svg>